<svg id="Layer_1" data-name="Layer 1" xmlns="http://www.w3.org/2000/svg" viewBox="0 0 85.04 85.04"><defs><style>.cls-1{fill:#1d1d1b;}</style></defs><path class="cls-1" d="M72.35,51.27l-1.29-3.11c-.81-1.93-1.61-3.85-2.41-5.78a1.3,1.3,0,0,0-1.31-.85H60.28v-.06a11,11,0,0,0,0-1.74l.1,0a6.73,6.73,0,0,0,5.25-4.17,9.56,9.56,0,0,0,.49-4.11c0-.4,0-.8,0-1.2a.81.81,0,0,0-.27-.62,1.06,1.06,0,0,0-.76-.28,1,1,0,0,0-1,.94c0,.19,0,.39,0,.58v.38c0,.28,0,.56,0,.84A14.42,14.42,0,0,1,64,34a4.77,4.77,0,0,1-9.45-.65c0-.61,0-1.22,0-1.83,0-.35,0-.7,0-1.05a1,1,0,0,0-1-1.09.88.88,0,0,0-.71.26,1.16,1.16,0,0,0-.31.84c0,1,0,2.15,0,3.24a5,5,0,0,0,.24,1.25,6.69,6.69,0,0,0,5.45,4.78l.09,0v.09c0,.48,0,1.06,0,1.63v.09H50.83V13.46c0-.26,0-.52,0-.78a2.45,2.45,0,0,0-2.43-2.42H36a2.51,2.51,0,0,0-1.06.26,2.46,2.46,0,0,0-1.36,2.4V39.07c0,.82,0,1.64,0,2.46h0c-.59,0-1.18,0-1.77,0l-.08-.06c-.27-1-.55-2-.83-3l-.56-2q-1.86-6.68-3.7-13.34a1,1,0,0,0-2,0c-.54,2-1.09,3.91-1.63,5.87l-1,3.48c-.84,3-1.67,6-2.52,9h-.94a1.1,1.1,0,0,0-1.15.76L15,48.1l-1.32,3.14a1.2,1.2,0,0,0,0,1.14,1.19,1.19,0,0,0,1.06.45c.53,0,1.07,0,1.6,0h1.06a1.21,1.21,0,0,1,0,.19V75.38c0,1,.31,1.31,1.3,1.31H67.39c.88,0,1.22-.35,1.22-1.24V67.92q0-7.48,0-15c0-.08,0-.13,0-.14h.12c.78,0,1.56,0,2.33,0h.27a1.14,1.14,0,0,0,1-.45A1.12,1.12,0,0,0,72.35,51.27ZM19.42,53a.45.45,0,0,0,0-.12H66.59a.91.91,0,0,1,0,.17V74.67H19.43V70.21Q19.43,61.57,19.42,53ZM27,33.68a2.7,2.7,0,0,1,.86,1.41c.22.93.48,1.84.76,2.8l-1-1q-1.8-1.8-3.61-3.59c-.13-.14-.14-.18-.09-.34.15-.46.27-.93.4-1.4l.12-.47h0c.27.28.52.56.78.82l.35.35C26.1,32.78,26.56,33.24,27,33.68Zm-1.88-4.86c.17-.58.34-1.16.49-1.75l.92,3.29-.13-.13L25.2,29C25.13,28.93,25.12,28.92,25.15,28.82ZM22.89,37c.12-.52.27-1,.42-1.57v0l6.12,6.13h-.61c-.41,0-.82,0-1.23,0a.54.54,0,0,1-.36-.13Q25.08,39.26,23,37.1S22.9,37,22.89,37Zm-1.26,4.5.58-2.11,2.09,2.11Zm14-.15V13a2.81,2.81,0,0,1,0-.29.42.42,0,0,1,.47-.44H48.34c.29,0,.44.15.47.46s0,.39,0,.58v28a1.15,1.15,0,0,1,0,.19H35.6ZM70,50.78H16.07l1.32-3.18c.55-1.32,1.1-2.64,1.64-4,0-.09,0-.09.28-.09H66.69c.23,0,.27,0,.36.25.73,1.78,1.48,3.56,2.22,5.35Z"/><path class="cls-1" d="M55.54,34.8a3.88,3.88,0,0,0,3.68,2.34,5.39,5.39,0,0,0,.88-.07,3.88,3.88,0,0,0,3.27-3.82c0-.66,0-1.33,0-2V29.51c0-.63,0-1.26,0-1.89a3.89,3.89,0,0,0-3.35-4,4.15,4.15,0,0,0-3.43.86,4,4,0,0,0-1.42,3.07c0,1.7,0,3.68,0,5.63A4.26,4.26,0,0,0,55.54,34.8ZM59,33a1,1,0,0,0-1-1,8.17,8.17,0,0,0-.86,0h0c0-1.1,0-2.19,0-3.33.27,0,.55,0,.83,0a1,1,0,0,0,1-1.06A1,1,0,0,0,58,26.67h-.58a2.08,2.08,0,0,1,2.32-1.08,1.93,1.93,0,0,1,1.64,1.85c0,.4,0,.81,0,1.21v.68a4.7,4.7,0,0,0-.65,0,1,1,0,0,0-1,1.06,1,1,0,0,0,1,.94h.54c0,.18,0,.35,0,.53a11.64,11.64,0,0,1,0,1.78,1.85,1.85,0,0,1-1.77,1.46A2,2,0,0,1,57.4,34h.26l.44,0A1,1,0,0,0,59,33Z"/><path class="cls-1" d="M34.74,61.09l1.48,1.07L38.74,64l.09.07a.48.48,0,0,1,0,.12c-.54,1.6-1.05,3.2-1.56,4.8a1.26,1.26,0,0,0,0,.69.93.93,0,0,0,.61.65,1.12,1.12,0,0,0,1-.22l.22-.16c1.26-.91,2.52-1.81,3.77-2.74.14-.11.16-.11.31,0l2.39,1.74,1.56,1.14a1.28,1.28,0,0,0,.75.3.94.94,0,0,0,.56-.2,1,1,0,0,0,.34-1.27c-.25-.73-.48-1.46-.72-2.2s-.54-1.68-.82-2.52a.47.47,0,0,1,0-.12l.08-.08,2.38-1.72,1.59-1.15a1.1,1.1,0,0,0,.54-1.27,1.06,1.06,0,0,0-1.16-.69H45.69c-.07,0-.1,0-.12-.08-.29-.9-.58-1.81-.88-2.71-.22-.68-.45-1.36-.66-2a1.06,1.06,0,0,0-1-.84h0a1.06,1.06,0,0,0-1,.84l-.57,1.76c-.33,1-.65,2-1,3a.45.45,0,0,1,0,.08.23.23,0,0,1-.09,0H35.25a1,1,0,0,0-1,.73A1.07,1.07,0,0,0,34.74,61.09Zm10.83,1.66a1.09,1.09,0,0,0-.46,1.43l.83,2.55-2.19-1.59a1.05,1.05,0,0,0-1.47,0l-2.19,1.59c.09-.29.19-.58.28-.87l.56-1.69a1.09,1.09,0,0,0-.46-1.41l-2.2-1.6H41a1.08,1.08,0,0,0,1.18-.88L43,57.73l.84,2.59a1.06,1.06,0,0,0,1.16.85h.13c.83,0,1.69,0,2.56,0Z"/><path class="cls-1" d="M42.2,39.84h0a5.8,5.8,0,0,0,0-11.6h0a5.8,5.8,0,1,0,0,11.6Zm-3.8-5.77a3.73,3.73,0,0,1,1.07-2.66,3.82,3.82,0,0,1,2.72-1.16h0A3.76,3.76,0,0,1,46,34a3.81,3.81,0,0,1-1.11,2.72,3.7,3.7,0,0,1-2.65,1.12h0A3.88,3.88,0,0,1,38.4,34.07Z"/><path class="cls-1" d="M42.2,25.57h0a5.81,5.81,0,0,0,0-11.61h0a5.81,5.81,0,0,0-4.13,1.71,5.79,5.79,0,0,0,0,8.2A5.81,5.81,0,0,0,42.2,25.57Zm-3.79-5.8a3.75,3.75,0,0,1,1.11-2.67A3.79,3.79,0,0,1,42.18,16h0a3.79,3.79,0,1,1,0,7.58h0A3.78,3.78,0,0,1,38.41,19.77Z"/><path class="cls-1" d="M42.18,36.49h0A2.46,2.46,0,0,0,44.68,34a2.51,2.51,0,0,0-.74-1.76,2.39,2.39,0,0,0-1.69-.72h0a2.44,2.44,0,0,0-2.5,2.4,2.59,2.59,0,0,0,.71,1.83A2.45,2.45,0,0,0,42.18,36.49Zm0-2h0a.49.49,0,0,1-.33-.13.45.45,0,0,1-.12-.33.44.44,0,0,1,.45-.43h0a.46.46,0,0,1,.44.45A.45.45,0,0,1,42.21,34.47Z"/><path class="cls-1" d="M42.2,22.24h0a2.47,2.47,0,0,0,0-4.94h0a2.44,2.44,0,0,0-1.74.71,2.48,2.48,0,0,0-.72,1.76,2.45,2.45,0,0,0,.73,1.76A2.41,2.41,0,0,0,42.2,22.24Zm-.44-2.47a.46.46,0,0,1,.44-.46h0a.47.47,0,0,1,.44.47.49.49,0,0,1-.46.45h0A.47.47,0,0,1,41.76,19.77Z"/></svg>