<svg id="Layer_1" data-name="Layer 1" xmlns="http://www.w3.org/2000/svg" viewBox="0 0 85.04 85.04"><path d="M64.58,49.62c-1.39.59-2.69,1.18-4,1.7a47.94,47.94,0,0,1-8.48,2.4c-.18,0-.46.26-.46.4,0,1.16,0,2.32,0,3.52a7,7,0,0,1,5.1,3.54A6.78,6.78,0,0,1,57.46,66a7,7,0,1,1-7.88-8.37V54.1a50.46,50.46,0,0,1-12.94.12,14.05,14.05,0,0,0,0,3.05A10.29,10.29,0,0,0,38,59.85c.09.15.44.18.68.22.57.11,1.15.18,1.72.27a1.36,1.36,0,0,1,1.16,1,1.4,1.4,0,0,1-.35,1.5c-.47.47-1,.91-1.41,1.41a1,1,0,0,0-.21.69c.06.64.23,1.26.28,1.9a1.46,1.46,0,0,1-2.24,1.52c-.55-.28-1.09-.6-1.66-.85a.87.87,0,0,0-.67,0c-.56.25-1.1.57-1.66.85a1.46,1.46,0,0,1-2.23-1.52c.05-.64.22-1.27.29-1.91a1,1,0,0,0-.22-.69c-.41-.46-.87-.89-1.32-1.32a1.44,1.44,0,0,1-.44-1.58,1.42,1.42,0,0,1,1.23-1,7.48,7.48,0,0,1,1.23-.19A1.5,1.5,0,0,0,33.77,59a13.79,13.79,0,0,1,.75-1.42,1,1,0,0,0,.12-.4c0-1,0-2.08,0-3.18a48.54,48.54,0,0,1-12.92-3.91v3.6a7,7,0,0,1,4.88,3.23,6.57,6.57,0,0,1,1,4.64,7,7,0,0,1-7.47,6,7.06,7.06,0,0,1-6.43-6.3c-.29-3.75,2-6.77,6-7.63a29.73,29.73,0,0,1,0-3.13,2,2,0,0,0-1.25-2.2,50,50,0,0,1-4.21-2.77,1,1,0,0,1-.36-1.5,1,1,0,0,1,1.58-.1,40.09,40.09,0,0,0,10.39,5.68,47.24,47.24,0,0,0,12.53,2.76,47.75,47.75,0,0,0,24-4,37.15,37.15,0,0,0,7.1-4.22l.35-.26a1,1,0,0,1,1.49.14,1,1,0,0,1-.28,1.47c-1.26.89-2.51,1.78-3.82,2.57a1.14,1.14,0,0,0-.69,1.28,1.68,1.68,0,0,1,0,.5,6.68,6.68,0,0,0,1.24,4.78,1.28,1.28,0,0,0,.78.45,17.06,17.06,0,0,0,1.72.27,1.47,1.47,0,0,1,.84,2.48,8,8,0,0,1-1,1,1.42,1.42,0,0,0-.54,1.72,7.26,7.26,0,0,1,.23,1.53,1.44,1.44,0,0,1-2.06,1.38,14.56,14.56,0,0,1-1.71-.89.83.83,0,0,0-1,0c-.5.29-1,.56-1.54.81a1.45,1.45,0,0,1-2.2-1.46c0-.66.23-1.31.28-2a1.16,1.16,0,0,0-.23-.74c-.41-.47-.88-.88-1.33-1.32a1.43,1.43,0,0,1-.41-1.53,1.4,1.4,0,0,1,1.21-1,9.56,9.56,0,0,1,1.29-.19,1.47,1.47,0,0,0,1.52-1.08c.2-.54.56-1,.8-1.54a2,2,0,0,0,.1-.78C64.59,51.06,64.58,50.37,64.58,49.62ZM20.63,65.57a5,5,0,1,0-4.94-5.06A5,5,0,0,0,20.63,65.57Zm30,4a5,5,0,1,0-5-5A5,5,0,0,0,50.58,69.56Zm17-8.39a7,7,0,0,1-.1-2.33c.2-.61.87-1.08,1.48-1.79a2.65,2.65,0,0,1-3.29-2.27,6.73,6.73,0,0,1-1.26,1.91,7.06,7.06,0,0,1-2.28.59c1.75.86,2,2.18,1.46,3.83A2.69,2.69,0,0,1,67.56,61.17ZM39,62.17a2.84,2.84,0,0,1-3.27-2.39,7,7,0,0,1-1.27,1.91,5.72,5.72,0,0,1-2,.52c.49.57,1.16,1,1.35,1.65A6,6,0,0,1,33.66,66a5.75,5.75,0,0,1,1.94-.76,7.08,7.08,0,0,1,2.16.79A2.8,2.8,0,0,1,39,62.17Z"/><path d="M46.65,34.68a7,7,0,0,1,5.92,7.74,7,7,0,0,1-13.9,0,7,7,0,0,1,5.92-7.79V31.09a58.14,58.14,0,0,1-13.94,1.55,15.07,15.07,0,0,0,.06,3.23,11,11,0,0,0,1.34,2.64c.05.09.25.1.39.12.61.1,1.23.17,1.84.27a1.5,1.5,0,0,1,.91,2.58c-.46.45-.95.88-1.38,1.36a1,1,0,0,0-.21.68c.07.68.25,1.35.29,2A1.45,1.45,0,0,1,31.71,47c-.56-.27-1.09-.6-1.67-.85a1.13,1.13,0,0,0-.79,0c-.57.24-1.1.58-1.66.85a1.45,1.45,0,0,1-2.17-1.44c0-.68.23-1.35.29-2a1,1,0,0,0-.22-.69c-.41-.47-.88-.88-1.33-1.32a1.43,1.43,0,0,1-.42-1.59,1.51,1.51,0,0,1,1.35-1,11.82,11.82,0,0,1,1.42-.2,1.13,1.13,0,0,0,1.14-.83c.25-.59.59-1.14.89-1.71a.75.75,0,0,0,.11-.28c0-1.09,0-2.19,0-3.25-1.72-.21-3.39-.37-5-.61a44.23,44.23,0,0,1-9.18-2.43,1,1,0,0,1-.68-1.34,1,1,0,0,1,1.46-.52,43.26,43.26,0,0,0,8.15,2.21,51.27,51.27,0,0,0,10.79.63,54.5,54.5,0,0,0,16.22-3.28,45.82,45.82,0,0,0,17.39-11c.63-.66,1.23-1.36,1.83-2.05s1.16-.79,1.65-.35.45,1-.09,1.64a41.11,41.11,0,0,1-8,7.33,1,1,0,0,0-.54,1c0,1.26,0,2.53,0,3.82a7,7,0,0,1,5,3.28,6.55,6.55,0,0,1,1,4.66,7,7,0,0,1-7.52,6,7,7,0,0,1-.44-13.91V24.59a54.87,54.87,0,0,1-13.89,6Zm14.89,5a5,5,0,1,0-4.94-5.06A5,5,0,0,0,61.54,39.63Zm-15.88-3A5,5,0,1,0,50.6,41.7,5,5,0,0,0,45.66,36.64ZM33,40.79a3,3,0,0,1-3.31-2.43,2.82,2.82,0,0,1-3.31,2.34c.57.66,1.24,1.13,1.45,1.76a6.18,6.18,0,0,1-.11,2.12s3.91,0,4.13.05C31,43,31.49,41.78,33,40.79Z"/><path d="M29.65,24.66c-.69,0-1.31,0-1.93,0a1,1,0,1,1,0-2l1.8,0s0,0,.11-.09c0-.56,0-1.18,0-1.8a1,1,0,0,1,1-1.08c.61,0,1,.41,1,1.1v1.89c.64,0,1.26,0,1.87,0s1.11.37,1.12,1-.41,1-1.14,1-1.19,0-1.85,0c0,.67,0,1.29,0,1.91a1,1,0,1,1-2,0C29.65,26,29.65,25.35,29.65,24.66Z"/><path d="M61.56,67.54c.11-.79-.28-1.87,1-2,.71,0,.87.3,1,2,.76.13,2-.28,1.93,1.07s-1.17.87-1.95,1c-.1.8.28,1.88-1,2-.7,0-.87-.31-1-2-.75-.14-2,.28-1.92-1.08S60.78,67.66,61.56,67.54Z"/><path d="M18.68,37.61a1,1,0,1,1-1-1A1,1,0,0,1,18.68,37.61Z"/></svg>