<svg id="Layer_1" data-name="Layer 1" xmlns="http://www.w3.org/2000/svg" viewBox="0 0 85.04 85.04"><path d="M56.7,16.19a1.53,1.53,0,0,1,.71,1.49q0,13.83,0,27.65V46c.55.12,1.09.22,1.61.35A10.42,10.42,0,0,1,65.4,61.55a1.45,1.45,0,0,1-1.42.83c-3.86,0-7.72,0-11.58,0h-.68c.3.72.57,1.39.84,2.05l1.3,3.09c.39.95,0,1.62-1.07,1.62H31.9c-1.06,0-1.5-.66-1.1-1.63l4.83-11.56c.07-.15.13-.31.22-.56H33.24c-.93,0-1.43-.35-1.44-1s.51-1.06,1.46-1.06,2,0,3.06,0a.51.51,0,0,0,.57-.36c.66-1.61,1.35-3.2,2-4.81a.7.7,0,0,0-.09-.58,10.28,10.28,0,0,0-9-3.79,10.54,10.54,0,0,0-9.68,9c0,.16,0,.34,0,.57h3.27a1.56,1.56,0,0,1,.65.11,1,1,0,0,1,.56,1.1.94.94,0,0,1-.91.84c-1.61,0-3.21,0-4.81,0a1,1,0,0,1-.91-1.1,12.2,12.2,0,0,1,2.57-7.58,12.34,12.34,0,0,1,6.25-4.44.47.47,0,0,0,.4-.54c0-.53,0-1.06,0-1.6a2.45,2.45,0,0,1,2.47-2.64v-.59q0-9.62,0-19.23a1.6,1.6,0,0,1,.64-1.46H31a1.32,1.32,0,0,1,.74,1.35c0,6.44,0,12.88,0,19.33v.6a2.47,2.47,0,0,1,2.46,2.68V42c1.11.54,2.19,1,3.16,1.56a33.57,33.57,0,0,1,2.77,2.1l1.22-.18v-.64q0-13.59,0-27.17a1.63,1.63,0,0,1,.63-1.47h.83a1.63,1.63,0,0,1,.63,1.47q0,13.61,0,27.22v.69c1.24-.3,1.56.52,1.9,1.38.55,1.39,1.15,2.76,1.73,4.14,0,.11.11.21.2.38a10.74,10.74,0,0,1,3.4-3.71,10.87,10.87,0,0,1,4.69-1.7v-.69q0-13.87,0-27.74A1.52,1.52,0,0,1,56,16.19ZM33.27,67H51.39c-.58-1.38-1.17-2.7-1.68-4-.19-.49-.43-.68-.94-.62a1.41,1.41,0,0,1-1.53-.87A10.7,10.7,0,0,1,46,55.07a2.64,2.64,0,0,0-.17-1.24c-.66-1.67-1.38-3.33-2.07-5-.51-1.22-.51-1.21-1.86-1.23a.67.67,0,0,0-.75.5q-2.91,7-5.86,14Zm23-6.77h7a.55.55,0,0,0,.61-.34,8.31,8.31,0,1,0-15.12-.05.58.58,0,0,0,.62.39C51.7,60.24,54,60.25,56.31,60.25ZM32,41.66c0-.59,0-1.16,0-1.72a.54.54,0,0,0-.38-.35,18.31,18.31,0,0,0-2,0c-.13,0-.37.18-.38.29,0,.6,0,1.19,0,1.78Z"/><path d="M28.18,55.38a1.06,1.06,0,0,1-1-1.05,1.09,1.09,0,0,1,1.09-1,1,1,0,0,1,1,1A1,1,0,0,1,28.18,55.38Z"/></svg>