<svg id="Layer_1" data-name="Layer 1" xmlns="http://www.w3.org/2000/svg" viewBox="0 0 85.04 85.04"><path d="M33.3,17l.13-.06a4.21,4.21,0,0,0,2-1.89,3.71,3.71,0,0,1,6.1-.24,1,1,0,0,0,.94.45,23.42,23.42,0,0,1,8.83,1.14A21.79,21.79,0,0,1,64.7,29.37a1.92,1.92,0,0,0,.63.78,4.28,4.28,0,0,1,1.56,2,1,1,0,0,0,.49.48,3.82,3.82,0,0,1,1.18,6.56.77.77,0,0,0-.21.58q.54,5.36,1.11,10.69c.38,3.51.77,7,1.15,10.51.14,1.25.26,2.51.39,3.83-1.65-.09-3.28.26-4.85-.48v2.38c1.16,0,2.31.07,3.45,0a2,2,0,0,1,2.25,2.26,13.34,13.34,0,0,0,0,1.55,1.86,1.86,0,0,1-1.91,1.92H56.61a1.87,1.87,0,0,1-1.9-1.87c0-.66,0-1.31,0-2a1.87,1.87,0,0,1,1.9-1.87c1.24,0,2.49,0,3.78,0,0-.21,0-.38,0-.55,0-2.46,0-4.91,0-7.37A.92.92,0,0,0,60,58c-.76-.63-1.45-1.34-2.17-2a1.08,1.08,0,0,1-.22-1.1c.34-1.64.67-3.29,1-4.93.07-.32.07-.53-.33-.67A24.8,24.8,0,0,1,42.43,32.77l-.1-.13c-.09.21-.16.37-.21.53a24.73,24.73,0,0,1-15.56,16c-.48.18-.57.37-.46.85.36,1.62.68,3.25,1,4.89a1.23,1.23,0,0,1-.21,1c-.71.76-1.5,1.44-2.26,2.16-.13.12-.33.28-.33.42,0,2.71,0,5.43,0,8.21h3.59A1.89,1.89,0,0,1,30,68.8v1.67a1.86,1.86,0,0,1-1.91,1.92H14.74a1.87,1.87,0,0,1-1.9-1.88c0-.65,0-1.3,0-2a1.87,1.87,0,0,1,1.9-1.87c1.24,0,2.49,0,3.77,0V64.32c-1.54.7-3.16.38-4.83.47.09-1,.18-1.85.27-2.74.31-2.87.61-5.75.92-8.62.34-3.13.69-6.26,1-9.38.16-1.48.32-3,.46-4.43a.63.63,0,0,0-.21-.43,3.8,3.8,0,0,1,1.22-6.6,10,10,0,0,0,1.29-2.13c0-.76,0-1.51,0-2.4-2.9-1.12-4.67-3.54-6.14-6.46l3.72-2.29c-.72-1.84-.53-3.86-.53-5.86,3.2-.25,6.26,0,8.94,2a3.92,3.92,0,0,1,2.4-2,3.75,3.75,0,0,1,4.5,2.16,1.32,1.32,0,0,0,.89.89A5.28,5.28,0,0,1,33.3,17Zm13.81,4.14c0,1.78,0,3.38,0,5A19,19,0,0,0,59.77,43.73l.09-.19c0-.1.06-.19.08-.29a3,3,0,0,0-.26-2.89,1.48,1.48,0,0,0-.54-.52,4.24,4.24,0,0,1-1.89-1.48,2.89,2.89,0,0,0-.56-.6A15.07,15.07,0,0,1,51,27.48c-.16-1.49-.08-3-.13-4.51,0-.19-.08-.5-.19-.54C49.55,22,48.38,21.61,47.11,21.18ZM59.45,45.67,59,45.49A20.86,20.86,0,0,1,45.2,25.9c0-1.45,0-2.9,0-4.34a3,3,0,0,0,0-.42,4.93,4.93,0,0,1-1.7,2.12.52.52,0,0,0-.15.41A44.87,44.87,0,0,0,43.57,29,22.63,22.63,0,0,0,55,45.67c1.26.74,2.65,1.27,4,1.92ZM30.53,32.57l-1.37.66c-.08,0-.2.07-.24.14-.32.56-.64,1.12-.93,1.7a.68.68,0,0,0,0,.4,3.68,3.68,0,0,1-2.24,4.24,2.23,2.23,0,0,0-1.27,1.81,5.53,5.53,0,0,0,.38,2.24,19.29,19.29,0,0,0,10.93-9.95A3.93,3.93,0,0,1,30.53,32.57ZM68.86,62.82c-.78-7.21-1.54-14.38-2.31-21.56a10.59,10.59,0,0,1-1,.83.85.85,0,0,0-.42.83c0,1.07,0,2.14,0,3.21,0,4.46,0,8.91,0,13.37A3.17,3.17,0,0,0,68.86,62.82Zm-53,0a3.11,3.11,0,0,0,3.67-3.15c0-5.62,0-11.25,0-16.87a.79.79,0,0,0-.2-.51c-.34-.35-.72-.66-1.15-1.05ZM25.6,47.5a23.15,23.15,0,0,0,15.78-22l-1.13.82a1.74,1.74,0,0,0,0,.22,3.85,3.85,0,0,1-1.19,4,1.54,1.54,0,0,0-.34.66A20.45,20.45,0,0,1,30.3,43.1c-1.56,1-3.31,1.82-5,2.76ZM62.65,29.58c-2-6.8-11.92-13.33-18.58-12.32a3.62,3.62,0,0,1,.64,1c.22.9.87,1,1.59,1l.3,0A18.08,18.08,0,0,1,60.8,29.93l.19.35c.31-.16.56-.31.83-.43S62.37,29.67,62.65,29.58Zm-9.8-6c-.32,4.47.72,8.37,3.9,11.65a4.06,4.06,0,0,1,2.59-2.64.63.63,0,0,0,.19-.54,12.9,12.9,0,0,0-.66-1.65A16.29,16.29,0,0,0,52.85,23.53ZM62,42.75l-2.41,12a.59.59,0,0,0,.09.43,5,5,0,0,0,3.55,1.91V42.93ZM21.43,57.08a4.94,4.94,0,0,0,3.37-1.69,1.15,1.15,0,0,0,.22-.83c-.31-1.71-.66-3.41-1-5.12-.45-2.22-.9-4.44-1.35-6.7l-1.24.2ZM69.9,70.46V68.63H56.65v1.83ZM28,68.62H14.78v1.82H28ZM15.1,22.22a8.77,8.77,0,0,0,3.56,3.7c.74.42,1.46.8,2.26.12.18-.16.48-.2.6-.38a9,9,0,0,0,.54-1.18l-3.68-.63L18.71,22l3.43.56-.91-2.39A13.18,13.18,0,0,0,15.1,22.22Zm8-5.46A8.32,8.32,0,0,0,17.5,15.4L18,18.67c1.32-.18,2.49-.34,3.65-.52A.73.73,0,0,0,22,18C22.39,17.57,22.74,17.17,23.12,16.76ZM64.23,66.65c0-.76,0-1.47,0-2.18a5.58,5.58,0,0,0-.52-2.79,10,10,0,0,1-.59-2.63l-.76-.12v7.72Zm-41.91,0V58.92l-.93.16a5.29,5.29,0,0,1-.87,3.54.4.4,0,0,0-.06.22c0,1.26,0,2.52,0,3.81Zm7.93-48.51c.89,1.34,1,2.64-.06,3.81s-2.57,1.23-4,.32a2,2,0,0,0,.62,2,2,2,0,0,0,1.33.47,9,9,0,0,0,1.94-.91s0,0,0-.06a3.86,3.86,0,0,1,1.84-2.32,16.9,16.9,0,0,1,0-2.15c.11-.82.07-1-.76-1.12A8.66,8.66,0,0,0,30.25,18.14Zm6.43,4.13a2.08,2.08,0,0,0,.88,2.25,1.81,1.81,0,0,0,2.06-.08,2.14,2.14,0,0,0,.78-2.19A3,3,0,0,1,36.68,22.27Zm-5.1,7.26a3,3,0,0,1,0-3.74C30,25.68,29,26.44,29,27.67S30.06,29.66,31.58,29.53ZM23.28,34a2.12,2.12,0,0,0-.91-2.27,1.77,1.77,0,0,0-2.06.08A2.11,2.11,0,0,0,19.54,34,3,3,0,0,1,23.28,34Zm41.84,0a2,2,0,0,0-1-2.3A1.88,1.88,0,0,0,61.49,34,2.9,2.9,0,0,1,65.12,34ZM40.73,18.18a3,3,0,0,1,0,3.75A2.14,2.14,0,0,0,43,21,1.75,1.75,0,0,0,43,19,2.1,2.1,0,0,0,40.73,18.18Zm-4.39,3.75a3,3,0,0,1,0-3.76,2.15,2.15,0,0,0-2.2.81,1.73,1.73,0,0,0-.09,2A2.12,2.12,0,0,0,36.34,21.93ZM19.21,34.36c-1.2-.09-1.91.22-2.31,1a1.76,1.76,0,0,0,.17,2.05,1.91,1.91,0,0,0,2.1.65A2.92,2.92,0,0,1,19.21,34.36Zm4.38,3.75a2.14,2.14,0,0,0,2.27-.91,1.73,1.73,0,0,0,0-2,2.12,2.12,0,0,0-2.23-.84A3,3,0,0,1,23.59,38.11Zm37.5,0a3,3,0,0,1,0-3.76,2.17,2.17,0,0,0-2.2.8,1.75,1.75,0,0,0-.09,2A2.13,2.13,0,0,0,61.09,38.11Zm4.41,0a2,2,0,0,0,2.2-.81,1.79,1.79,0,0,0,0-2.06,2.13,2.13,0,0,0-2.24-.84A2.92,2.92,0,0,1,65.5,38.07Zm-46,.36a2.09,2.09,0,0,0,.83,2.22,1.74,1.74,0,0,0,2,0,2.09,2.09,0,0,0,.89-2.27A2.94,2.94,0,0,1,19.54,38.43Zm41.86,0a2.13,2.13,0,0,0,.91,2.27,1.79,1.79,0,0,0,2.06-.09,2.13,2.13,0,0,0,.77-2.19A3,3,0,0,1,61.4,38.43ZM25.88,18.17a2.16,2.16,0,0,0-2.24.86,1.74,1.74,0,0,0,0,2,2.11,2.11,0,0,0,2.23.84A3,3,0,0,1,25.88,18.17Zm14.53-.32a2.1,2.1,0,0,0-.91-2.26,1.76,1.76,0,0,0-2.06.07,2.12,2.12,0,0,0-.77,2.2A3,3,0,0,1,40.41,17.85Zm-14.22,0a3,3,0,0,1,3.76,0,2.16,2.16,0,0,0-.87-2.23,1.75,1.75,0,0,0-2,0A2.14,2.14,0,0,0,26.19,17.86Zm5.71,12a2.12,2.12,0,0,0,.94,2.29,1.74,1.74,0,0,0,1.95-.06,2.13,2.13,0,0,0,.86-2.24A3,3,0,0,1,31.9,29.86Zm4-.3c.33,0,.55,0,.76,0a1.88,1.88,0,0,0,1.71-2.48A.76.76,0,0,0,38,26.7c-.63-.25-1.27-.46-1.89-.68A2.94,2.94,0,0,1,35.94,29.56Zm-.44-4.21a4,4,0,0,0-.64-1.28,9.68,9.68,0,0,0-1.74-1c-.07,0-.22.09-.32.15a2.15,2.15,0,0,0-.9,2.27A3,3,0,0,1,35.5,25.35Zm-8.28,1.34A9.87,9.87,0,0,1,26,26.06c-.38-.27-.67-.67-1-1a.55.55,0,0,0-.5-.07,1.92,1.92,0,0,0-1,2.31,2.93,2.93,0,0,1,3.68,0c.06-.22.1-.39.14-.56A.4.4,0,0,0,27.22,26.69Zm-4.32,1c-1.49-.12-2.55.73-2.37,1.92h1.69Zm10.88.92a.95.95,0,1,0-1-1A1,1,0,0,0,33.78,28.61Zm-7.63.94a.94.94,0,1,0-.94,1A1,1,0,0,0,26.15,29.55ZM21.4,35.28a.95.95,0,1,0,1,1A1,1,0,0,0,21.4,35.28Zm41.89,1.89a.95.95,0,1,0-.06-1.89,1,1,0,0,0-.9.95A1,1,0,0,0,63.29,37.17ZM29,20.07A.95.95,0,1,0,28,21,1,1,0,0,0,29,20.07Zm9.51-1a1,1,0,0,0-.93,1,.95.95,0,0,0,1.89,0A1,1,0,0,0,38.52,19.11ZM26.94,33.37l.2-1.52-1.83.66Zm2.19-2.16L29.08,31l-1-.78-.65,1.3Z"/></svg>