<svg id="Layer_1" data-name="Layer 1" xmlns="http://www.w3.org/2000/svg" viewBox="0 0 85.04 85.04"><path d="M28.41,73.36a15.48,15.48,0,0,1-1.52-.6,4.54,4.54,0,0,1-2.34-2.93,1.54,1.54,0,0,1,1.58-2.14h1.63a5.37,5.37,0,0,0-.34-.42A17.29,17.29,0,0,1,22,57a25.33,25.33,0,0,1,.24-8.24,10.24,10.24,0,0,1,.25-1.25,4.16,4.16,0,0,1,3.49-3l-.41-1.17a29,29,0,0,0-5.27,4.92,30,30,0,0,0-5,8.36c-.2.5-.5.88-1.08.8a1,1,0,0,1-.84-1,19.44,19.44,0,0,1,1.51-9.82,1.6,1.6,0,0,1,.78-.76,1,1,0,0,1,.88.33,1.4,1.4,0,0,1,.1,1c-.36,1.23-.79,2.44-1.16,3.66a4.32,4.32,0,0,0-.13,1.15,37.46,37.46,0,0,1,5.1-6.71,30,30,0,0,1,6.62-5.15,3.24,3.24,0,0,0-3.43,0,16.3,16.3,0,0,0-5,3.85,1.41,1.41,0,0,1-1,.49.9.9,0,0,1-.58-1.52,17.06,17.06,0,0,1,7.37-5.21,2,2,0,0,1,1,0c1,.19,2,.43,3.22.68-.84-1-1.57-1.83-2.32-2.66a.86.86,0,0,0-.6-.18c-2.19.08-4.37.17-6.56.27l-4,.21A1,1,0,0,1,14,35.5c-.16-.55.15-.89.59-1.15l5.7-3.23.29-.17a24.87,24.87,0,0,0-5.42-2.74,9.76,9.76,0,0,1-1.53-.61,1.22,1.22,0,0,1-.59-.87,1.14,1.14,0,0,1,.63-.84,17.89,17.89,0,0,1,7.74-1.5,18.08,18.08,0,0,1,9.17,3.25l.83.59.12-.15c-1-.94-2-1.92-3-2.82a34.19,34.19,0,0,0-13-7c-.95-.28-1.28-.6-1.21-1.14.1-.76.72-.83,1.31-1a28.44,28.44,0,0,1,6.29-.86,20.29,20.29,0,0,1,17.25,9.45l.3.46h.09c.25-1.81.49-3.62.76-5.43.41-2.78.83-5.57,1.25-8.35a.92.92,0,0,1,1-.91c.6,0,.87.4.94.93q.95,6.48,1.88,13c0,.26.08.52.15.88l.32-.45a20.35,20.35,0,0,1,12-8.84c.7-.2,1.2,0,1.37.52s-.11,1.06-.89,1.27C52.52,19.39,48.59,23.13,46,28.4a2,2,0,0,0,0,.94c.13,1.55.26,3.09.4,4.64,0,.17.07.34.13.64.37-.53.67-1,1-1.4a42.12,42.12,0,0,1,8.4-9.85,35.28,35.28,0,0,1,9.67-5.69l.44-.17v-.16l-3.13-.17c-.24,0-.49,0-.74,0a.94.94,0,0,1-1-.92.91.91,0,0,1,1-.93c1.55.06,3.1.12,4.64.29,1.07.12,2.11.43,3.17.65A.94.94,0,0,1,70,18.15a39.17,39.17,0,0,0-7.86,3.2,33.93,33.93,0,0,0-8.21,6.44c-.11.12-.2.24-.41.49,1-.63,1.84-1.19,2.72-1.69a16.86,16.86,0,0,1,9.71-2.17,20.84,20.84,0,0,1,5.59,1.5,1.09,1.09,0,0,1,.54.85,1.25,1.25,0,0,1-.64.85c-.88.42-1.84.67-2.72,1.09-1.42.66-2.8,1.4-4.31,2.17,1,.54,1.94,1,2.79,1.46,1.14.65,2.24,1.35,3.36,2a1,1,0,0,1,.56,1.11,1,1,0,0,1-1.08.7c-2-.11-4-.22-5.94-.31-1.61-.07-3.22-.13-4.84-.17a.78.78,0,0,0-.53.21,25.16,25.16,0,0,0-2.09,2.59c1-.21,2-.46,3-.63a2.47,2.47,0,0,1,1.24.08c5.85,2.44,9.53,6.7,10.61,13a38.26,38.26,0,0,1,.26,5.37c0,.69-.32,1.12-.84,1.18s-.89-.34-1.1-.86A30.51,30.51,0,0,0,60,43.8l-.34-.26-.2-.11-.41,1.13.55.13a4,4,0,0,1,3,3.15A25,25,0,0,1,63,57.69a17,17,0,0,1-5,9.27c-.2.2-.43.37-.65.55l.08.18h1.55a1.54,1.54,0,0,1,1.58,2.14A4.72,4.72,0,0,1,57,73.23a2,2,0,0,0-.34.13H53.57c-.39-.33-.73-.67-.51-1.25s.69-.61,1.21-.6,1,0,1.54,0a2.79,2.79,0,0,0,2.73-1.93H26.47c0,.09,0,.16.05.21a3.1,3.1,0,0,0,3.06,1.73c6.79,0,13.58,0,20.37,0a1.6,1.6,0,0,1,1,.38c.4.39.24.9-.36,1.45ZM59.19,46.51c.28,1.44.64,2.84.8,4.27a19.13,19.13,0,0,1-1,8.08.84.84,0,0,1-.93.64.85.85,0,0,1-.85-.73c0-.12-.07-.24-.09-.36a30.5,30.5,0,0,0-4.49-11.54.76.76,0,0,0-.73-.42c-6.27,0-12.55,0-18.82,0a.91.91,0,0,0-.67.37c-.88,1.61-1.79,3.2-2.56,4.87a25.64,25.64,0,0,0-2,6.72c-.08.52-.23,1-.89,1.07a.88.88,0,0,1-1-.66,19.3,19.3,0,0,1-.83-9.11c.17-1.08.48-2.13.74-3.22a2,2,0,0,0-1.65,1.54,24,24,0,0,0-.5,8.52,16.17,16.17,0,0,0,6.74,10.89,1.22,1.22,0,0,0,.67.22H53.88a1,1,0,0,0,.57-.15,16.74,16.74,0,0,0,6.37-8.83,22.3,22.3,0,0,0,0-10.37A2.23,2.23,0,0,0,59.19,46.51ZM38.57,34.65c.07-.32.11-.48.13-.63.13-1.47.27-2.93.39-4.4a2.46,2.46,0,0,0,0-1.18,22.27,22.27,0,0,0-3.81-5.6A18.45,18.45,0,0,0,22.68,17.2a35.68,35.68,0,0,0-3.58.12l0,.18,1.12.44,1.18.52a35.85,35.85,0,0,1,15,12.9C37.08,32.4,37.77,33.46,38.57,34.65Zm4-16.55h-.13a.61.61,0,0,0-.07.17c-.34,2.56-.75,5.12-1,7.7-.43,4.37-.76,8.74-1.12,13.11a.78.78,0,0,0,.07.53c.69,1,1.41,1.93,2.17,3l2.15-2.93a.71.71,0,0,0,.09-.41c-.18-2.83-.31-5.66-.58-8.49s-.68-5.91-1-8.87C43,20.62,42.79,19.36,42.61,18.1Zm23.62,16a21,21,0,0,0-5.88-2.69,16.76,16.76,0,0,0-8.52-.53,1.55,1.55,0,0,0-1,.68c-1.28,1.9-2.59,3.77-3.89,5.66l-.36.53a3.65,3.65,0,0,0,1.14-.61,14.83,14.83,0,0,1,7.88-3c2.42-.18,4.85-.15,7.28-.17C64,33.94,65.11,34.06,66.23,34.12Zm-47.41,0,3.47-.2a37.2,37.2,0,0,1,8.37.33,16.36,16.36,0,0,1,7.18,3.25,4,4,0,0,0,.56.34,1.45,1.45,0,0,0-.27-.6c-1.3-1.88-2.61-3.75-3.89-5.65a1.53,1.53,0,0,0-1-.69,15.69,15.69,0,0,0-6.92.12A23.49,23.49,0,0,0,18.82,34.12ZM69.76,52a1.92,1.92,0,0,0,0-.24,15.09,15.09,0,0,0-8.08-11.45A4,4,0,0,0,58,40.19,33.14,33.14,0,0,1,69.76,52ZM36,39.82c-.75,0-1.32,0-1.88,0a1.43,1.43,0,0,0-.73.23,15,15,0,0,0-6.51,11.53c0,.77,0,1.55,0,2.33l.2,0A32.15,32.15,0,0,1,36,39.82ZM58,53.93l.24,0c-.06-1.24,0-2.48-.19-3.7a15.2,15.2,0,0,0-5.89-9.83c-.94-.76-1.91-.49-3.07-.54A32,32,0,0,1,58,53.93ZM16.86,26.79a1.35,1.35,0,0,0,.19.16c1.77,1,3.55,2,5.34,2.94a1.12,1.12,0,0,0,.72.08c.83-.2,1.64-.49,2.47-.68,1-.23,2.06-.39,3.1-.58A14.27,14.27,0,0,0,16.86,26.79Zm39.42,1.88.37.13c1.73.38,3.46.74,5.17,1.16a1.19,1.19,0,0,0,1-.15c1.62-.94,3.26-1.84,4.9-2.75l.55-.28C64,25.6,60.1,26.44,56.28,28.67Zm-19.59,13c.68.93,1.33,1.81,2,2.68a.57.57,0,0,0,.41.19c.57,0,1.14,0,1.71,0s.62-.31.35-.68c-.9-1.21-1.81-2.41-2.75-3.66Zm11.68,0L46.65,40.2l-2.72,3.62c-.3.41-.17.7.33.72a16.45,16.45,0,0,0,1.72,0,.69.69,0,0,0,.44-.25C47.06,43.45,47.68,42.6,48.37,41.67ZM28.93,35.9l2.49,3.3a4,4,0,0,1,3.5-1.33A13.79,13.79,0,0,0,28.93,35.9Zm24.72,3.28,2.48-3.29a13.55,13.55,0,0,0-6,2C51.58,37.58,52.64,38.3,53.65,39.18ZM35.35,43,34.1,44.49h2.34Zm14.34,0L48.61,44.5H51Zm-22.53-.71.38,1.08,1.5-2L29,41.3Zm30.35,1.08.39-1.09-1.82-1L56,41.4Z"/></svg>