<svg id="Layer_1" data-name="Layer 1" xmlns="http://www.w3.org/2000/svg" viewBox="0 0 85.04 85.04"><defs><style>.cls-1{fill:#1d1d1b;}</style></defs><path class="cls-1" d="M73.11,61.91l-1.18.15c-1.52.21-3.1.42-4.65.51A61.52,61.52,0,0,1,50.82,61.2,85.5,85.5,0,0,1,23.69,49.8a84.14,84.14,0,0,1-10.26-7.41,1,1,0,0,0-1.53,0,.91.91,0,0,0-.25.68,1.28,1.28,0,0,0,.5.88c.15.12.3.24.44.37s.56.45.81.69a.87.87,0,0,1,.25.53c.09,3,.16,6,.23,9l0,2c0,.68.18,1.1.51,1.3a1.45,1.45,0,0,0,1.38-.18l7.59-3.9.11,1c.12,1,.24,2,.35,3,.08.68.15,1.37.23,2,.14,1.29.28,2.58.44,3.86.08.67.28,1.07.62,1.22s.77,0,1.33-.31l8.25-5.39c0,.08.05.16.07.23.55,2.35,1.09,4.69,1.64,7L37,68.9c.15.62.4,1,.76,1.12A1.35,1.35,0,0,0,39,69.58l3.64-3.12,2-1.71,1.12-.94.32-.28.66,1.76,2.6,7c.24.63.54,1,.91,1s.75-.14,1.2-.63c1.11-1.23,2.21-2.47,3.31-3.7l2.43-2.71,1-1.11.23-.26,1.31,2.29q1.73,3.06,3.47,6.11a6,6,0,0,0,.4.58l.18.23.06.09H65L70.32,66c.32-.47.64-1,.93-1.46a1,1,0,0,1,.85-.49,8.23,8.23,0,0,0,1.46-.24,2.49,2.49,0,0,0,.69-.35l.27-.16.11-.06v-.8l0,0A1.42,1.42,0,0,0,73.11,61.91Zm-4.23,2.66-4.43,6.79L60.6,64.57Zm-12.54-.33-5.51,6.15-2.9-7.74ZM45,61.83l-6.32,5.4-2-8.34ZM33.57,57.5l-7.19,4.69-1-9ZM22.88,51.72l-7,3.6-.22-8.51Z"/><path class="cls-1" d="M74.58,12c-.62-.73-1.06-.77-1.82-.15A93.77,93.77,0,0,1,54.25,23.52c-9.82,4.73-19.15,7.24-28.51,7.68-2.75.13-5.63,0-7.95-.16-1.21-.07-2.44-.25-3.62-.43l-1.59-.23a1,1,0,0,0-1.23.81c-.1.6.24,1,.92,1.16l.13,0a12.83,12.83,0,0,0,1.53.24.85.85,0,0,1,.75.5c1.36,2.17,2.73,4.33,4.09,6.49l1.44,2.28c.46.72.82,1,1.2,1h0c.39,0,.74-.32,1.17-1L27.25,34l.22-.35,2,2.35q2.41,2.79,4.84,5.56a1.33,1.33,0,0,0,1.16.61c.37-.07.67-.39.89-.95.45-1.13.89-2.26,1.33-3.38l2.1-5.35.09.09.54.46,6.4,5.65a1.28,1.28,0,0,0,1.2.42c.35-.11.61-.46.75-1l.41-1.63c.15-.63.31-1.25.47-1.88.42-1.68.85-3.37,1.28-5.09l.3-1.2h0l.41.27,7.72,5.22c.57.39,1,.5,1.36.35s.56-.56.65-1.23c.15-1.08.28-2.17.42-3.25l.24-1.92.45-3.42L62.71,23h0l.44.23,2,1.05c1.57.82,3.2,1.68,4.76,2.57.77.44,1.3.55,1.69.33s.56-1,.58-1.65c.09-3.58.24-7.14.4-10.49a1.25,1.25,0,0,1,.37-.72c.36-.35.75-.67,1.13-1l.48-.4.08-.06V12.1ZM70.51,16.2l-.34,8.5L63.25,21Zm-9.77,6.26-1.15,9-7.12-4.81ZM49.26,28l-2.07,8.3L41,30.77ZM38,31.53l-3,7.7L29.6,33Zm-12.74,1.8L21.38,40,17,33.09Z"/><path class="cls-1" d="M74.23,42.31A2.06,2.06,0,0,0,73.5,42c-1.42-.23-2.86-.42-4.26-.6l-.36,0a.69.69,0,0,1-.62-.46c-.59-1.23-1.29-2.69-2.05-4.12a1.46,1.46,0,0,0-1-.75h0a1.44,1.44,0,0,0-1,.74c-.39.74-.78,1.51-1.14,2.26s-.63,1.27-1,1.89a.87.87,0,0,1-.52.41c-1.08.17-2.19.32-3.26.47L56.94,42c-.42.06-.94.13-1.14.73A1.16,1.16,0,0,0,56.27,44l.62.61c.9.86,1.83,1.75,2.72,2.64a.87.87,0,0,1,.19.62c-.1.7-.23,1.39-.35,2.09s-.29,1.63-.41,2.44a1.76,1.76,0,0,0,.32,1.26.66.66,0,0,0,.54.27,1.87,1.87,0,0,0,.82-.28l1.08-.57c1-.52,2-1.06,3.06-1.57a.82.82,0,0,1,.65,0c.67.33,1.33.67,2,1s1.5.79,2.26,1.16a1.58,1.58,0,0,0,1.19,0c.58-.27.45-1,.4-1.24-.27-1.48-.53-3-.79-4.71a.63.63,0,0,1,.13-.45c1-1,2-1.94,3-2.9l.95-.91v-.95l-.12-.06ZM68.5,47.8c.19.94.35,1.91.51,2.84l0,.23a1,1,0,0,1,0,.18l-.66-.34c-.75-.38-1.46-.74-2.17-1.14a1.86,1.86,0,0,0-2.08,0c-.7.41-1.43.78-2.19,1.16l-.66.34.12-.77c.15-.93.29-1.81.47-2.69a1.42,1.42,0,0,0-.47-1.44c-.69-.65-1.37-1.31-2-2l-.26-.25a1.49,1.49,0,0,1-.21-.22l2.62-.39.24,0c.2,0,.39-.06.58-.07a1.4,1.4,0,0,0,1.26-.88c.39-.8.79-1.6,1.2-2.43l.37-.73c0,.06.07.11.09.16l.33.65c.38.76.77,1.54,1.14,2.31a1.46,1.46,0,0,0,1.27.92c.87.11,1.73.24,2.63.38l.82.12-.09.1-.59.58c-.57.56-1.15,1.14-1.75,1.67A1.68,1.68,0,0,0,68.5,47.8Z"/><path class="cls-1" d="M19.36,18.78c.35.34.7.68,1,1a.74.74,0,0,1,.17.56c-.12.85-.26,1.7-.4,2.52l-.15.83v0a1.12,1.12,0,0,0,.45,1.05A.84.84,0,0,0,21,25a1.28,1.28,0,0,0,.58-.15c1.1-.54,2-1,2.78-1.45a.93.93,0,0,1,1.07,0,27.45,27.45,0,0,0,2.74,1.42,1.38,1.38,0,0,0,1.19,0,1.25,1.25,0,0,0,.35-1.09c-.08-.63-.19-1.25-.29-1.86s-.17-1-.23-1.47a.64.64,0,0,1,.14-.45c.34-.35.7-.69,1.05-1s.92-.89,1.36-1.35a1.28,1.28,0,0,0,.34-1.1,1.24,1.24,0,0,0-.9-.7c-1.08-.21-2.19-.36-3.22-.49a.67.67,0,0,1-.64-.43c-.4-.86-.88-1.88-1.44-2.85a1.37,1.37,0,0,0-1-.69h0a1.42,1.42,0,0,0-1,.7c-.55,1-1,1.94-1.44,2.86a.63.63,0,0,1-.58.41h-.09c-1,.12-2.06.25-3.07.46a1.39,1.39,0,0,0-1,.74,1.47,1.47,0,0,0,.44,1.17C18.53,18,19,18.39,19.36,18.78Zm7.74,1.61c.09.47.17.94.25,1.45l0,.29L27.07,22c-.52-.26-1-.51-1.47-.77a1.37,1.37,0,0,0-1.46,0c-.47.26-.95.5-1.45.76l-.37.19c0-.1,0-.2.05-.29.06-.44.13-.84.22-1.23a1.87,1.87,0,0,0-.66-2.16,7,7,0,0,1-.88-.92l-.17-.2.29-.05c.5-.09,1-.18,1.55-.23A1.46,1.46,0,0,0,24,16.13c.21-.47.45-.94.71-1.44l.16-.31.16.33c.24.47.47.93.69,1.39a1.49,1.49,0,0,0,1.31,1c.51,0,1,.13,1.56.22l.34.06c-.08.08-.15.16-.23.23a14.38,14.38,0,0,1-1,1A1.67,1.67,0,0,0,27.1,20.39Z"/><path class="cls-1" d="M17.09,67.35H15.81V67c0-.34,0-.64,0-.94,0-.77-.38-1.22-1-1.22h0c-.61,0-1,.47-1,1.23,0,.32,0,.63,0,1v.29h-1a4,4,0,0,0-.59,0,.9.9,0,0,0-.86,1,1,1,0,0,0,1,1,11.39,11.39,0,0,0,1.17,0h.33v.32c0,.35,0,.67,0,1a1.08,1.08,0,0,0,1,1.18h0c.59,0,1-.44,1-1.16,0-.33,0-.65,0-1v-.29h.4l.9,0c.74,0,1.22-.43,1.22-1S17.87,67.37,17.09,67.35Z"/><path class="cls-1" d="M40.68,45.54a1.17,1.17,0,0,0-.84.39.88.88,0,0,0-.2.68,1,1,0,0,0,1.07.92h1.43v.6c0,.25,0,.49,0,.74,0,.71.39,1.16,1,1.16h0c.6,0,1-.45,1-1.17,0-.33,0-.67,0-1v-.3h1.26c.8,0,1.2-.34,1.21-1s-.44-1-1.2-1H44.15V45.2c0-.37,0-.71,0-1a1,1,0,0,0-1-1.09h0a1,1,0,0,0-1,1.09c0,.34,0,.67,0,1v.33h-.34C41.42,45.52,41.05,45.52,40.68,45.54Z"/><path class="cls-1" d="M46.25,15.44h1.34v1.18c0,1.1.63,1.28,1,1.29h0c.64,0,1-.42,1-1.25V15.44H51a1.28,1.28,0,0,0,.93-.4.82.82,0,0,0,.2-.65A1,1,0,0,0,51,13.45H49.61v-.31c0-.36,0-.69,0-1,0-1-.63-1.13-1-1.13h0c-.61,0-1,.43-1,1.14,0,.33,0,.67,0,1v.3H46.28c-.72,0-1.16.37-1.17,1S45.55,15.42,46.25,15.44Z"/></svg>