<svg id="Layer_1" data-name="Layer 1" xmlns="http://www.w3.org/2000/svg" viewBox="0 0 85.04 85.04"><path d="M69.58,41.12a2.49,2.49,0,0,0-.41-1.28l-1.08-1.59c-2-3-4.07-6-6.17-9C56.59,21.71,49.29,17.8,40.24,17.64c-5.35-.09-10.78-.07-16-.05H17.58a2.14,2.14,0,0,1-.36,0,1.73,1.73,0,0,0-1.33.37,1.86,1.86,0,0,0-.34,1.36V41.94h0V61c0,1.63,0,3.25,0,4.88,0,1,.44,1.39,1.4,1.43H53A1.29,1.29,0,0,0,54.34,66V65.8c0-.37,0-.74.09-1.1a11.24,11.24,0,0,1,4.45-8,15.14,15.14,0,0,1,9.1-3c1.15,0,1.6-.48,1.6-1.6v-1.8C69.59,47.3,69.6,44.21,69.58,41.12ZM52.28,62.36l-.44,2.37H18.12V62.36ZM53,59.75H18.12v-1.2H53.94q-.31.59-.63,1.11A.92.92,0,0,1,53,59.75ZM67.05,50.6l0,.65-.48.07c-.66.08-1.32.17-2,.29a16.59,16.59,0,0,0-8.45,4.19.65.65,0,0,1-.37.17H18.13V20.16h0l6.71,0c5.19,0,10.56,0,15.83.05a22.87,22.87,0,0,1,16.68,7.49,34,34,0,0,1,3.13,4l.17.25c1.68,2.38,3.35,4.82,5,7.19L66.89,41a.8.8,0,0,1,.15.36C67.05,44.43,67.05,47.52,67.05,50.6Z"/><path d="M61,37.78c-1.36-2-2.73-4-4.13-6A19.89,19.89,0,0,0,40.34,22.9c-4-.09-8-.07-11.89,0H23.24a1.77,1.77,0,0,0-1.33.36,1.83,1.83,0,0,0-.36,1.35V41.49c0,1.34.36,1.71,1.69,1.71H62.05a1.36,1.36,0,0,0,1.39-.68A1.51,1.51,0,0,0,63.19,41C62.46,39.9,61.74,38.84,61,37.78Zm-1.14,2.84H24.14V25.42l4.89,0c3.8,0,7.73,0,11.58.05a17.17,17.17,0,0,1,13.87,7.37c1.38,1.87,2.7,3.83,4,5.73C58.93,39.24,59.4,39.94,59.87,40.62Z"/><path d="M34.12,46.41h-6.9a1.22,1.22,0,0,0-1.36,1.36c0,.55,0,1.1,0,1.66a1.22,1.22,0,0,0,1.22,1.32h0a1.25,1.25,0,0,0,1.27-1.33c0-.15,0-.3,0-.44h4.72a3.72,3.72,0,0,0,0,.58,1.27,1.27,0,0,0,1.29,1.19,1.2,1.2,0,0,0,1.24-1.25c0-.52,0-1,0-1.56C35.65,46.85,35.22,46.42,34.12,46.41Z"/></svg>