<svg id="Layer_1" data-name="Layer 1" xmlns="http://www.w3.org/2000/svg" viewBox="0 0 85.04 85.04"><path d="M44.37,66.11a2.44,2.44,0,0,1-2.48-1.9,16,16,0,0,0-11.1-11,2.48,2.48,0,0,1-1.87-2.52,2.51,2.51,0,0,1,1.92-2.49A16,16,0,0,0,41.91,37.09a2.6,2.6,0,0,1,5,0,16,16,0,0,0,11.1,11,2.46,2.46,0,0,1,1.87,2.52A2.51,2.51,0,0,1,58,53.18,16,16,0,0,0,46.88,64.26,2.42,2.42,0,0,1,44.37,66.11Zm10.7-15.45a24.59,24.59,0,0,1-10.7-10.61A24.28,24.28,0,0,1,33.71,50.68a24.09,24.09,0,0,1,10.7,10.66A24.24,24.24,0,0,1,55.07,50.66Z"/><path d="M32.87,40.59a1.58,1.58,0,0,1-1.6-1.23,10.32,10.32,0,0,0-7.15-7.12,1.59,1.59,0,0,1-1.21-1.62A1.62,1.62,0,0,1,24.15,29a10.27,10.27,0,0,0,7.13-7.13,1.68,1.68,0,0,1,3.22,0A10.32,10.32,0,0,0,41.65,29a1.58,1.58,0,0,1,1.21,1.62,1.61,1.61,0,0,1-1.24,1.6,10.33,10.33,0,0,0-7.13,7.14A1.59,1.59,0,0,1,32.87,40.59Zm4.68-10A10.79,10.79,0,0,1,32.87,26a10.56,10.56,0,0,1-4.66,4.64,10.6,10.6,0,0,1,4.68,4.66A10.62,10.62,0,0,1,37.55,30.63Z"/><path d="M53.63,32.78a1.09,1.09,0,0,1-1.1-.84A7.1,7.1,0,0,0,47.61,27a1.09,1.09,0,0,1-.83-1.12,1.11,1.11,0,0,1,.85-1.1,7.09,7.09,0,0,0,4.91-4.9,1.06,1.06,0,0,1,1.11-.82,1.08,1.08,0,0,1,1.1.83,7.06,7.06,0,0,0,4.92,4.9A1.09,1.09,0,0,1,60.5,26a1.13,1.13,0,0,1-.86,1.1A7.09,7.09,0,0,0,54.74,32,1.08,1.08,0,0,1,53.63,32.78Zm2.25-6.84a5.26,5.26,0,0,1-2.25-2.23,5.08,5.08,0,0,1-2.24,2.23,5,5,0,0,1,2.25,2.25A5.08,5.08,0,0,1,55.88,25.94Z"/></svg>