<svg id="Layer_1" data-name="Layer 1" xmlns="http://www.w3.org/2000/svg" viewBox="0 0 85.04 85.04"><path d="M42.4,21.23h0a22.24,22.24,0,0,0-.11,44.48h0a22.24,22.24,0,0,0,.08-44.48ZM56.52,57.67a20,20,0,0,1-14.2,5.84h0a20,20,0,0,1,.1-40.08h0a20.05,20.05,0,0,1,20,20.07A19.84,19.84,0,0,1,56.52,57.67Z"/><path d="M50.31,42.64h-6.8V35.53a1.13,1.13,0,0,0-.71-1.08,1.08,1.08,0,0,0-1,.09,1.29,1.29,0,0,0-.53,1.1c0,1.27,0,2.56,0,3.81v3.19H34.45a1.08,1.08,0,0,0-1.07.85,1.1,1.1,0,0,0,.18.95,1.42,1.42,0,0,0,1.1.45h5l.44,0,1.13.05v2.89c0,1.15,0,2.34,0,3.51a1.27,1.27,0,0,0,.36.93,1.18,1.18,0,0,0,.78.3h0a1.14,1.14,0,0,0,1.11-1.24V44.89H50a2.39,2.39,0,0,0,.74-.09,1.09,1.09,0,0,0,.73-1.14A1.12,1.12,0,0,0,50.31,42.64Z"/></svg>