<svg id="Layer_1" data-name="Layer 1" xmlns="http://www.w3.org/2000/svg" viewBox="0 0 85.04 85.04"><path d="M20.33,74.67a1.64,1.64,0,0,1-.64-1.52q0-15.29,0-30.57A12.15,12.15,0,0,1,23,33.84a17.9,17.9,0,0,1,2.47-2,1,1,0,0,0,.46-.89q0-8.48,0-17c0-1.28.27-1.54,1.58-1.54h5.41c1,0,1.32.35,1.32,1.37,0,2.74,0,5.47,0,8.21,0,3,0,5.95,0,8.93a.89.89,0,0,0,.47.88,12.13,12.13,0,0,1,5.65,8.73,14.9,14.9,0,0,1,.13,2.12q0,15.23,0,30.45a1.61,1.61,0,0,1-.71,1.56Zm7.74-45.59a.62.62,0,0,0-.06.14c0,.79-.06,1.59,0,2.37a1.69,1.69,0,0,1-1,1.75,9.93,9.93,0,0,0-5.22,9.11c0,9.83,0,19.66,0,29.48v.64H38.34v-30a12,12,0,0,0-.08-1.7,9.93,9.93,0,0,0-5.16-7.58,1.57,1.57,0,0,1-1-1.63c.06-.86,0-1.73,0-2.6ZM28,26.87H32.1V19.74H28Zm0-9.34h4.06v-3H28Z"/><path d="M49.39,74.67c-.82-.54-.7-1.34-.52-2.12a5.11,5.11,0,0,1,4.93-4.08c.36,0,.72,0,1.13,0,0-.23,0-.41,0-.58,0-3.45,0-6.89,0-10.34,0-.41-.09-.57-.55-.65a9.19,9.19,0,0,1-7.35-7.32,14.42,14.42,0,0,1,.05-5.36q.72-4.92,1.42-9.85c.05-.38.09-.76.16-1.14A1.14,1.14,0,0,1,50,32.12H61.89c1,0,1.3.27,1.44,1.19.39,2.62.75,5.24,1.13,7.86.21,1.54.42,3.09.64,4.63.7,5-2.15,10.23-7.7,11.14a.53.53,0,0,0-.34.37c0,3.69,0,7.37,0,11.16.48,0,.92,0,1.36,0a5.16,5.16,0,0,1,4.86,4.91,1.47,1.47,0,0,1-.63,1.28ZM63.1,46.59c-.6-4.17-1.19-8.26-1.77-12.35l-.33,0c-3.28,0-6.56,0-9.84,0-.53,0-.51.32-.56.66l-1.05,7.32c-.21,1.45-.41,2.91-.62,4.41Zm-.23,2.2H49.17a6.89,6.89,0,0,0,13.7,0ZM60.94,72.58a2.92,2.92,0,0,0-2.67-2c-1.5,0-3,0-4.49,0a2.81,2.81,0,0,0-2.65,2Z"/><path d="M23.85,55V46c0-1.06.36-1.43,1.42-1.43h9.6c1.05,0,1.45.38,1.45,1.42V64c0,1-.36,1.36-1.41,1.36-3.22,0-6.45,0-9.67,0-1.08,0-1.39-.32-1.39-1.42Zm2.09,8.23h8.22V46.73H25.94Z"/></svg>