<svg id="Layer_1" data-name="Layer 1" xmlns="http://www.w3.org/2000/svg" viewBox="0 0 85.04 85.04"><path d="M57.65,62.82A26,26,0,0,0,66.89,47.1c.11-.62.2-1.26.28-1.88,0-.32.08-.61.12-.89l0-3.69a1.22,1.22,0,0,1-.06-.26c0-.33-.09-.67-.13-1-.08-.66-.16-1.32-.29-2a26,26,0,0,0-9-15.1,1.37,1.37,0,0,0-.89-.35h-.1a1.07,1.07,0,0,0-.75.39,1.21,1.21,0,0,0,.25,1.75l.66.61a23.94,23.94,0,0,1,2.34,2.38A23.89,23.89,0,0,1,56.19,61a1.35,1.35,0,0,0-.51.91,1.08,1.08,0,0,0,.27.81A1.17,1.17,0,0,0,57.65,62.82Z"/><path d="M42.67,34.54a12,12,0,0,0-.23-2.22,13,13,0,0,0-5.7-8.39,12.89,12.89,0,0,0-7-2.06,13.32,13.32,0,0,0-2.94.33,12.94,12.94,0,0,0-10,12.51c0,5.53,0,10.54,0,15.7A11.85,11.85,0,0,0,17,52.82a13,13,0,0,0,25.67-2.33V40C42.68,38.17,42.69,36.34,42.67,34.54Zm-2.3,15.65a10.64,10.64,0,0,1-8.25,10.45,10.17,10.17,0,0,1-2.4.29,10.64,10.64,0,0,1-10.45-8.77A14.16,14.16,0,0,1,19.08,50c0-1.62,0-3.24,0-4.86V39.43c0-1.53,0-3,0-4.57A10.63,10.63,0,0,1,40.18,33a13.19,13.19,0,0,1,.19,1.94C40.38,39.74,40.39,44.88,40.37,50.19Z"/><path d="M52,57.39c.47.11.84-.11,1.31-.52A18.26,18.26,0,0,0,59.9,43.63a20.32,20.32,0,0,0-1.77-9.09A18.64,18.64,0,0,0,53.06,28a1.29,1.29,0,0,0-1.2-.25,1.16,1.16,0,0,0-.74.93,1.23,1.23,0,0,0,.55,1.19A16.29,16.29,0,0,1,57.49,44a15.27,15.27,0,0,1-3.09,8.2,23.78,23.78,0,0,1-2.2,2.39l0,0-.7.7a1.22,1.22,0,0,0-.39,1.25A1.07,1.07,0,0,0,52,57.39Z"/><path d="M48.45,51.26a11.42,11.42,0,0,0,4.07-8.73v-.26l.07,0c-.05-.26-.09-.52-.13-.78A22.27,22.27,0,0,0,52,39.09a10.83,10.83,0,0,0-3.6-5.39,1.2,1.2,0,0,0-.77-.31,1.27,1.27,0,0,0-.46.1,1.07,1.07,0,0,0-.71,1A1.41,1.41,0,0,0,47,35.64a9,9,0,0,1,2.71,9.64,8.74,8.74,0,0,1-2.86,4.26,1.16,1.16,0,0,0-.47,1.28,1.11,1.11,0,0,0,.74.8h0A1.39,1.39,0,0,0,48.45,51.26Z"/><path d="M28.15,54.49a1.16,1.16,0,0,0,1,1.29,1.24,1.24,0,0,0,1.1-.4L33,52.88l3.57-3.26a1.47,1.47,0,0,0,.59-1,1.5,1.5,0,0,0-.61-1.05l-2-1.82-2.8-2.55a1.83,1.83,0,0,0-.22-.13l-.18-.11-.4-.23,2.5-2.29,3.22-2.92a1.34,1.34,0,0,0,.49-1,1.29,1.29,0,0,0-.47-.93l-4-3.69-2.42-2.2a1.17,1.17,0,0,0-2,.93c0,1.81,0,3.61,0,5.42V39l-.63.28L27.36,39l-.11-.16-.19-.25-.29-.29c-.62-.64-1.25-1.28-1.88-1.91a1.16,1.16,0,0,0-1.7-.08,1.2,1.2,0,0,0,0,1.71c.22.24.46.47.69.7l3.71,3.8-.4.44c-.07.06-.12.13-.19.19l-.89.92-2.93,3a1.14,1.14,0,0,0-.3,1.29,1.08,1.08,0,0,0,.78.72,1.3,1.3,0,0,0,1.19-.37l3.25-3.11v3.49C28.14,50.89,28.14,52.69,28.15,54.49ZM30.5,33.16l3.7,3.37-3.7,3.36Zm0,12.06L34.2,48.6,30.49,52Z"/></svg>