<svg id="Layer_1" data-name="Layer 1" xmlns="http://www.w3.org/2000/svg" viewBox="0 0 85.04 85.04"><path d="M66.59,37.31a23,23,0,0,0-21.9-17.53h-.08c-1.33,0-1.48.87-1.48,1.25s.13,1.24,1.45,1.28a21,21,0,0,1,5.23.75A20.3,20.3,0,0,1,64.22,46.64,20.22,20.22,0,0,1,37,61.42C30,58.6,25.78,53.32,24.36,45.74a15,15,0,0,1-.18-1.6v0a.62.62,0,0,0,0-.13l.68.49,2.8,2a1.24,1.24,0,0,0,1.79-.25,1.22,1.22,0,0,0,.26-.94,1.25,1.25,0,0,0-.54-.85c-1.89-1.39-3.88-2.84-5.92-4.3a1.2,1.2,0,0,0-1.75.27c-1.4,1.9-2.82,3.86-4.32,6a1.18,1.18,0,0,0,.23,1.69,1.17,1.17,0,0,0,.93.3,1.46,1.46,0,0,0,1-.65c.6-.8,1.19-1.62,1.79-2.45l.55-.75.05.37c.11.77.22,1.56.37,2.34A22.88,22.88,0,0,0,44.43,65.42h0a21.39,21.39,0,0,0,4.94-.57A22.77,22.77,0,0,0,66.59,37.31Z"/><path d="M44,43.86c1.46.78,2.94,1.59,4.36,2.37l1.64.89.87.48.18.11c.9.49,1.91,1,2.92,1.55a1.31,1.31,0,0,0,.61.13,1.73,1.73,0,0,0,.81-.19A1.31,1.31,0,0,0,55.91,48a1.77,1.77,0,0,0-.85-1c-2.8-1.55-5.75-3.16-9-4.92a.59.59,0,0,1-.4-.65c0-1.93,0-3.89,0-5.78V31.42c0-1.53,0-3.07,0-4.6a1.28,1.28,0,0,0-.95-1.38,1.17,1.17,0,0,0-1.06.18,1.39,1.39,0,0,0-.52,1.13v9.89c0,2,0,3.84,0,5.67A1.59,1.59,0,0,0,44,43.86Z"/><path d="M33.61,25.21h0a1.31,1.31,0,0,0,1.26-1.32A1.23,1.23,0,0,0,34.5,23a1.29,1.29,0,0,0-.92-.34A1.32,1.32,0,0,0,32.36,24,1.28,1.28,0,0,0,33.61,25.21Z"/><path d="M25.65,33.07h.07a1.31,1.31,0,0,0,.88-.34,1.24,1.24,0,0,0,.41-.88,1.21,1.21,0,0,0-.35-.89,1.32,1.32,0,0,0-.93-.42,1.26,1.26,0,0,0-1.31,1.18,1.24,1.24,0,0,0,.32.9A1.33,1.33,0,0,0,25.65,33.07Z"/><path d="M29.13,28.62h0a1.28,1.28,0,0,0,1.28-1.27,1.3,1.3,0,0,0-.38-.9,1.36,1.36,0,0,0-.94-.35,1.26,1.26,0,0,0,0,2.52Z"/><path d="M23.55,38.25h.05A1.24,1.24,0,0,0,24.81,37a1.28,1.28,0,0,0-1.23-1.26,1.24,1.24,0,0,0-.91.36,1.28,1.28,0,0,0-.38.93,1.23,1.23,0,0,0,.37.9A1.29,1.29,0,0,0,23.55,38.25Z"/><path d="M38.82,23a1.25,1.25,0,0,0,1.26-1.23,1.28,1.28,0,0,0-1.28-1.31,1.34,1.34,0,0,0-1.27,1.24,1.2,1.2,0,0,0,.35.9A1.34,1.34,0,0,0,38.82,23Z"/></svg>