<svg id="Layer_1" data-name="Layer 1" xmlns="http://www.w3.org/2000/svg" viewBox="0 0 85.04 85.04"><defs><style>.cls-1{fill:#1d1d1b;}</style></defs><path class="cls-1" d="M62,44.42V35.37c0-1.13,0-2.26,0-3.39a5,5,0,0,0-4-5.19,12,12,0,0,0-2.32-.17h-.81c-.57,0-1.14,0-1.71,0h-.59V25.08q0-2.13,0-4.26c0-.2,0-.41,0-.62a3.3,3.3,0,0,1,.32-2,.82.82,0,0,0,.08-.46V17c0-.69,0-1.37,0-2.06a4.53,4.53,0,0,0-4.48-4.41H36.68a4.32,4.32,0,0,0-4.29,3.34,15.68,15.68,0,0,0-.16,3c0,.4,0,.8,0,1.2a.75.75,0,0,0,.1.34.5.5,0,0,1,0,.13l.08.24a2.18,2.18,0,0,1,.13.58c0,1.74,0,3.49,0,5.23v2.05H31.52c-1,0-1.93,0-2.87,0a6.93,6.93,0,0,0-2.37.45,5.06,5.06,0,0,0-3.13,5.09q0,11.2,0,22.4v8.56c0,.86,0,1.72,0,2.57A5,5,0,0,0,26,70.47a.62.62,0,0,1,.42.7,3,3,0,0,0,1.2,2.92,5.76,5.76,0,0,0,.63.37l.28.15.05,0h2.6l.06,0,.46-.3a3.22,3.22,0,0,0,1-.83,4,4,0,0,0,.5-1.4c0-.15.06-.3.1-.45a1.52,1.52,0,0,0,0-.52v0H51.8A3.22,3.22,0,0,0,54,74.62h2.6l0,0a3.11,3.11,0,0,0,2-2,5.23,5.23,0,0,0,.11-1,4.08,4.08,0,0,1,0-.61.77.77,0,0,1,.14-.4c2.15-1,3.16-2.82,3.14-5.61C62,58.15,62,51.17,62,44.42ZM34.59,14.49a2.1,2.1,0,0,1,2.13-1.69c4.51,0,8.25,0,11.76,0a2.16,2.16,0,0,1,2.18,2.07,14.24,14.24,0,0,1,0,1.61c0,.2,0,.4,0,.6H49v-.9a1.58,1.58,0,0,0-1.67-1.68H37.88a1.59,1.59,0,0,0-1.71,1.71v.86h-1.6c0-.23,0-.46,0-.69A13.1,13.1,0,0,1,34.59,14.49Zm15.64,4.92v7.15h-.79V19.41Zm-3.11,7.14H38.06v-2c0-1.71,0-3.42,0-5.12a1.88,1.88,0,0,1,.12-.55c0-.12.07-.23.1-.34l0-.15a3.67,3.67,0,0,0,.13-.66c0-.25,0-.5,0-.75,0-.05,0-.09,0-.14h8.29c0,.09,0,.17,0,.25a2.68,2.68,0,0,0,0,1,17.19,17.19,0,0,1,.35,5.34C47.09,24.41,47.05,25.49,47.12,26.55ZM35.74,19.41v7.15H35V19.41ZM30.81,72.18a3,3,0,0,1-1.83,0c-.29-.1-.31-.31-.27-.81,0-.11,0-.21,0-.32h2.33a2,2,0,0,0,0,.25C31.12,71.84,31.11,72.08,30.81,72.18Zm25.4,0a3,3,0,0,1-1.83,0c-.3-.1-.31-.31-.28-.81,0-.11,0-.22,0-.33h2.33a1.94,1.94,0,0,1,0,.24C56.52,71.82,56.51,72.06,56.21,72.17Zm2.62-4.28a3.12,3.12,0,0,1-2.28.87h0c-9.94,0-19.06,0-27.87,0h0a3,3,0,0,1-3.21-3.2c.05-4,0-8.12,0-12.08V44.13c0-3.94,0-8,0-12a3,3,0,0,1,3.14-3.17h0c6.57,0,13.25,0,19.72,0h8.28a2.81,2.81,0,0,1,3.1,3.12v8.67c0,8.15,0,16.57,0,24.86A3.23,3.23,0,0,1,58.83,67.89Z"/><path class="cls-1" d="M46,36.67a6.91,6.91,0,0,0-.07-1.08,3.18,3.18,0,0,0-2.45-2.73A3.24,3.24,0,0,0,40,34a3.84,3.84,0,0,0-.78,2.57V60.32c0,.74,0,1.5,0,2.25a3.63,3.63,0,0,0,1.14,2.61,3.3,3.3,0,0,0,2.24.86h.22A3.44,3.44,0,0,0,46,62.36v-13Q46,43,46,36.67ZM43.66,52V62.42c0,.78-.3,1.2-.92,1.29a1.09,1.09,0,0,1-.81-.21,1.06,1.06,0,0,1-.4-.74c0-.15,0-.31,0-.47V36.49c0-.14,0-.28,0-.42a1,1,0,0,1,1-1h0a1,1,0,0,1,1.06,1c0,1.14,0,2.28,0,3.42Z"/><path class="cls-1" d="M56.36,36.1a3.36,3.36,0,0,0-6.7-.41,30.22,30.22,0,0,0,0,3.43v.75a1,1,0,0,0,.33.75,1.16,1.16,0,0,0,.79.3h0a1.06,1.06,0,0,0,1.09-1,4.52,4.52,0,0,0,0-.52V38.3c0-.69,0-1.39,0-2.08a1.24,1.24,0,0,1,.45-1,1.06,1.06,0,0,1,.91-.16c.67.16.81.82.81,1.35v26a1.51,1.51,0,0,1,0,.3,1.1,1.1,0,0,1-1.07,1h0a1,1,0,0,1-1-.91,4.09,4.09,0,0,1-.05-.71V50.19c0-2,0-3.95,0-5.93A1.16,1.16,0,0,0,50.8,43h0a1.11,1.11,0,0,0-.78.31,1.3,1.3,0,0,0-.37,1v2c0,5.4,0,11,0,16.48A3.36,3.36,0,0,0,52.88,66H53a3.33,3.33,0,0,0,3.36-3.31c0-3.2,0-6.39,0-9.59V45.66C56.37,42.47,56.37,39.29,56.36,36.1Z"/><path class="cls-1" d="M35.56,36.17a3.4,3.4,0,0,0-1.16-2.61,3.44,3.44,0,0,0-2.78-.77,3.31,3.31,0,0,0-2.8,3.46q0,6.41,0,12.81v5a2,2,0,0,0,0,.35,1,1,0,0,0,.89,1,1,1,0,0,0,1.21-.56,2.36,2.36,0,0,0,.15-.92q0-6.46,0-12.92V36.46a2,2,0,0,1,0-.42,1.06,1.06,0,0,1,1-1,1,1,0,0,1,1.09.91,5,5,0,0,1,0,.77V58.6c0,1.28,0,2.55,0,3.82,0,.82-.42,1.31-1.09,1.31h0c-.66,0-1.08-.51-1.08-1.31V58.75A1.18,1.18,0,0,0,30,57.46h0a1.16,1.16,0,0,0-1.12,1.3c0,.3,0,.61,0,.91,0,1,0,2.09,0,3.14a3.71,3.71,0,0,0,.55,1.71A3.23,3.23,0,0,0,32.17,66a3.43,3.43,0,0,0,1-.14,3.39,3.39,0,0,0,2.4-3.28c0-3.15,0-6.31,0-9.46V45.53Q35.57,40.85,35.56,36.17Z"/></svg>