<svg id="Layer_1" data-name="Layer 1" xmlns="http://www.w3.org/2000/svg" viewBox="0 0 85.04 85.04"><path d="M44.21,52.87V44.33H59.29a1.38,1.38,0,0,0,1.56-1.55V33.06A5.55,5.55,0,0,0,60,22.15h-.33a5.52,5.52,0,0,0-5.54,4.3,5.36,5.36,0,0,0,.44,3.69,5.55,5.55,0,0,0,3.57,2.92v8.52H44.2V33.05a5.55,5.55,0,1,0-6.79-6.61,5.3,5.3,0,0,0,.43,3.69,5.54,5.54,0,0,0,3.58,2.92v8.52H27.52V33.05a5.55,5.55,0,1,0-6.77-6.65,5.25,5.25,0,0,0,.4,3.69,5.53,5.53,0,0,0,3.6,3V52.86A5.56,5.56,0,0,0,26.2,63.8h.24a5.56,5.56,0,0,0,1.09-10.93V44.36H41.42v8.51A5.55,5.55,0,0,0,42.84,63.8H43a5.56,5.56,0,0,0,1.18-10.93Zm15.27-28h0a2.73,2.73,0,0,1,2,.83,2.73,2.73,0,0,1,0,4,2.7,2.7,0,0,1-1.92.81h0a2.8,2.8,0,0,1,0-5.6Zm-16.7,0h0a2.73,2.73,0,0,1,1.93.8,2.85,2.85,0,0,1,.86,2,2.83,2.83,0,0,1-2.79,2.82,2.8,2.8,0,0,1,0-5.6Zm0,36.18a2.76,2.76,0,0,1-1.93-.81,2.77,2.77,0,0,1,0-4,2.79,2.79,0,0,1,2-.83h0a2.81,2.81,0,0,1,0,5.61ZM28.1,29.66a2.78,2.78,0,0,1-2,.82h0a2.86,2.86,0,0,1-2.8-2.81,2.8,2.8,0,0,1,.85-2,2.76,2.76,0,0,1,1.95-.82h0a2.79,2.79,0,0,1,1.94,4.78ZM23.33,58.23a2.86,2.86,0,0,1,2.79-2.78h0a2.83,2.83,0,0,1,2,.86,2.72,2.72,0,0,1,.81,2,2.84,2.84,0,0,1-2.79,2.76h0a2.81,2.81,0,0,1-2-.86A2.75,2.75,0,0,1,23.33,58.23Z"/><path d="M59.53,52.72h0a5.54,5.54,0,1,0-.05,11.07h0a5.54,5.54,0,0,0,.05-11.07Zm-2,3.55a2.77,2.77,0,0,1,1.94-.82h0a2.87,2.87,0,0,1,2,.87,2.74,2.74,0,0,1,.8,2,2.86,2.86,0,0,1-2.8,2.78h0a2.79,2.79,0,0,1-1.92-4.79Z"/></svg>