<svg id="Layer_1" data-name="Layer 1" xmlns="http://www.w3.org/2000/svg" viewBox="0 0 85.04 85.04"><path d="M72.05,23.23l0,0a3,3,0,0,0-3.16-2.08h0q-20,0-40,0H16.16A2.89,2.89,0,0,0,13,24.25v29a2.88,2.88,0,0,0,3.11,3.11H38.71v3.38h-2a4.72,4.72,0,0,0-4.43,4.7,1,1,0,0,0,1.11,1.1H51.7a1,1,0,0,0,1.13-1.15,4.76,4.76,0,0,0-4.48-4.65H46.44V56.34h6.19a1,1,0,0,0,1.09-.85,1,1,0,0,0-.63-1.19,1.86,1.86,0,0,0-.74-.09h-36c-1,0-1.2-.22-1.21-1.22V24.41c0-.88.24-1.13,1.11-1.13H68.86c.87,0,1.12.25,1.12,1.13v1.84c0,1.64,0,3.33,0,5a1.51,1.51,0,0,0,.42,1,.81.81,0,0,0,.63.24,1.54,1.54,0,0,0,1-.64l0-.05V23.28ZM37,61.87c3.75,0,7.47,0,11.07,0a2.37,2.37,0,0,1,2.27,1.49H34.77A2.4,2.4,0,0,1,37,61.87Zm3.89-2.2V56.39h3.32v3.28Z"/><path d="M72,36.07l0,0a2.89,2.89,0,0,0-3-2H58.29a2.86,2.86,0,0,0-3,3q0,12.78,0,25.54a2.86,2.86,0,0,0,3,3H69.13a4,4,0,0,0,.83-.09,3.18,3.18,0,0,0,2.14-2.06l0-27.21-.05,0Zm-2,1.21v25c0,.91-.24,1.15-1.16,1.15H58.55c-.87,0-1.13-.25-1.13-1.12v-25c0-1,.22-1.17,1.19-1.17H68.82C69.74,36.14,70,36.37,70,37.28Z"/><path d="M63.77,48.7h0a4.83,4.83,0,0,0-3.42,1.38,4.76,4.76,0,0,0,3.32,8.1h0a4.79,4.79,0,0,0,3.4-1.38,4.75,4.75,0,0,0-3.29-8.1Zm0,7.33h-.05a2.65,2.65,0,0,1-2.59-2.61,2.65,2.65,0,0,1,2.6-2.59s0,0,0,0a2.65,2.65,0,0,1,2.57,2.58A2.64,2.64,0,0,1,63.74,56Z"/><path d="M60,39.81H60a1.07,1.07,0,0,0,.73-.28,1,1,0,0,0,.33-.76,1,1,0,0,0-1-1.09,1.09,1.09,0,0,0-.8.28A1.08,1.08,0,0,0,60,39.81Z"/><path d="M63.7,39.81h0a1.06,1.06,0,0,0,1.07-1,1.09,1.09,0,0,0-.3-.78,1.07,1.07,0,0,0-.77-.31h0a1,1,0,0,0-1.07,1,1.11,1.11,0,0,0,.3.79A1.07,1.07,0,0,0,63.7,39.81Z"/><path d="M67.35,39.81h0a1,1,0,0,0,1.07-1.08,1,1,0,0,0-1-1,1.09,1.09,0,0,0-.79.3,1,1,0,0,0-.3.77A1,1,0,0,0,67.35,39.81Z"/><path d="M60,43.48H60a1,1,0,0,0,.73-.28,1,1,0,0,0,.33-.75,1,1,0,0,0-1-1.1,1,1,0,0,0-.8.28,1.08,1.08,0,0,0-.33.75A1,1,0,0,0,60,43.48Z"/><path d="M63.66,43.48h0a1.07,1.07,0,0,0,.75-.29,1.12,1.12,0,0,0,.32-.77,1.05,1.05,0,0,0-1-1.07,1.1,1.1,0,0,0-.79.29,1.12,1.12,0,0,0-.32.77A1.05,1.05,0,0,0,63.66,43.48Z"/><path d="M67.37,41.35a1.07,1.07,0,0,0-.78,1.8,1,1,0,0,0,.75.33h0a1,1,0,0,0,1.07-1,1,1,0,0,0-1-1.13Z"/><path d="M60,47.16h0a1,1,0,0,0,1.05-1.06,1,1,0,0,0-.3-.77A1.18,1.18,0,0,0,60,45a1.05,1.05,0,0,0-1,1.06,1.07,1.07,0,0,0,.31.77A1,1,0,0,0,60,47.16Z"/><path d="M63.7,45a1.05,1.05,0,0,0-1.07,1,1.06,1.06,0,0,0,1,1.12h0a1.05,1.05,0,0,0,1.07-1,1.08,1.08,0,0,0-.29-.79,1.09,1.09,0,0,0-.77-.33Z"/><path d="M67.35,47.16h0a1,1,0,0,0,1.07-1.08,1.07,1.07,0,0,0-1.82-.76,1.1,1.1,0,0,0-.31.78A1,1,0,0,0,67.35,47.16Z"/><path d="M60,59.72h0a1,1,0,0,0-1.06,1,1.07,1.07,0,0,0,.3.79,1.06,1.06,0,0,0,.77.31h0a1,1,0,0,0,1.06-1A1.05,1.05,0,0,0,60.8,60,1.07,1.07,0,0,0,60,59.72Z"/><path d="M63.72,59.72h0a1.06,1.06,0,0,0-.76.3,1.1,1.1,0,0,0-.31.78,1,1,0,0,0,.33.76,1.06,1.06,0,0,0,.74.29h0a1.07,1.07,0,0,0,0-2.13Z"/><path d="M67.37,59.72h0a1,1,0,0,0-.77.32,1.07,1.07,0,0,0,.77,1.81h0A1.07,1.07,0,0,0,68.14,60,1.07,1.07,0,0,0,67.37,59.72Z"/></svg>