<svg id="Layer_1" data-name="Layer 1" xmlns="http://www.w3.org/2000/svg" viewBox="0 0 85.04 85.04"><path d="M56.17,29.08h-6a1.31,1.31,0,0,0-1.51,1.5v6c0,1.09.47,1.56,1.56,1.56h1.73c0,.19,0,.38,0,.56,0,.48,0,.93,0,1.38a3.08,3.08,0,0,1-1.53,2.53c-1.71,1-3.44,2.07-5.16,3.1L43.46,46.8h0V28.27h3.91a1.31,1.31,0,0,0,1.18-2.2c-.63-1-1.27-2-1.9-3-1.09-1.73-2.17-3.47-3.27-5.2a2.48,2.48,0,0,0-.55-.57L42.55,17l0,0H41.8l0,0a2.11,2.11,0,0,1-.23.19,2.07,2.07,0,0,0-.49.49c-2,3.11-3.89,6.18-5.33,8.51a1.38,1.38,0,0,0-.14,1.41,1.4,1.4,0,0,0,1.28.64c.84,0,1.68,0,2.53,0h1.49V53.49l-.14-.07-5.4-3c-.17-.1-.34-.2-.51-.32A2.89,2.89,0,0,1,33.55,48a11.36,11.36,0,0,1,0-1.65c0-.22,0-.43,0-.64A5.63,5.63,0,0,0,32.42,34.6h-.26a5.68,5.68,0,0,0-5.37,4.28,5.56,5.56,0,0,0,.48,3.93A5.69,5.69,0,0,0,31,45.72V47.2a5.8,5.8,0,0,0,3.17,5.41c1.11.6,2.21,1.22,3.32,1.83l3.07,1.71c.28.15.36.28.35.55a14.59,14.59,0,0,0,0,1.87c0,.29-.06.39-.36.48a5.61,5.61,0,0,0,1.61,11,6.06,6.06,0,0,0,1-.09,5.63,5.63,0,0,0,4.57-5.26,5.56,5.56,0,0,0-4-5.62c-.33-.1-.42-.21-.42-.55,0-3.12,0-5.72,0-8.2a.92.92,0,0,1,.53-.93l.89-.53c2.37-1.4,4.81-2.85,7.18-4.35a5.12,5.12,0,0,0,2.36-4.15c0-.51,0-1,0-1.56,0-.21,0-.42,0-.63h1.83a1.34,1.34,0,0,0,1.52-1.51c0-2,0-4.06,0-6.08A1.33,1.33,0,0,0,56.17,29.08Zm-1,2.53v4H51.13v-4Zm-9.82-5.88H38.93l3.23-5.17ZM42.3,61.28a3.14,3.14,0,0,1,2,5.42,3.1,3.1,0,0,1-2.24.86,3.23,3.23,0,0,1-2.27-1A3,3,0,0,1,39,64.37,3.17,3.17,0,0,1,42.3,61.28ZM30,38a3.19,3.19,0,0,1,2.23-1h0a3.17,3.17,0,0,1,0,6.33h0a3.22,3.22,0,0,1-3.15-3.14A3.11,3.11,0,0,1,30,38Z"/></svg>