<svg id="Layer_1" data-name="Layer 1" xmlns="http://www.w3.org/2000/svg" viewBox="0 0 85.04 85.04"><path d="M73.61,65.71a1.54,1.54,0,0,0-1.35-.65H72.2c-.84,0-1.7,0-2.52,0h-.89a7.52,7.52,0,0,0-6.28-6.26V47a4,4,0,0,0-4.18-4.2H56.9V39.86c0-1.89,0-3.79,0-5.68a3.53,3.53,0,0,0-2.63-3.45,4.9,4.9,0,0,0-1-.13c-.22,0-.45,0-.67-.05a.75.75,0,0,1-.43-.22,3.38,3.38,0,0,0-3.3-2H29l-.62-3.5c-.53-3-1.05-5.91-1.58-8.85a3.24,3.24,0,0,0-3.26-3c-3.22,0-6.49,0-9.66,0h-.56c-.79,0-1.25.38-1.26,1a1,1,0,0,0,.27.75,1.33,1.33,0,0,0,1,.34h5.3l2.38,13.32a3.24,3.24,0,0,0-2.47,2.91,3.12,3.12,0,0,0,.7,2.34,3.44,3.44,0,0,0,2.44,1.2c.4,0,.53.08.59.49.11.82.27,1.64.42,2.43.08.4.16.81.23,1.22.19,1,.37,2.07.55,3.1l.16.92a16.26,16.26,0,0,0,7.46,30.63h.25a15.91,15.91,0,0,0,10.07-3.58,16.26,16.26,0,0,0,6.12-13.41H60.39v2.15a7.41,7.41,0,0,0,0,14.66,7.37,7.37,0,0,0,5-1.12,7.48,7.48,0,0,0,3.32-5.12h.93c.86,0,1.67,0,2.5,0h.06a1.57,1.57,0,0,0,1.35-.64l0,0v-.81ZM24.38,34.91H28a.27.27,0,0,1,.13.13c.31,1.7.61,3.4.92,5.1l.18,1.07-3.52.87Zm1.87-6.57c-1,0-1.92,0-2.86,0a.38.38,0,0,1-.22-.21c-.62-3.35-1.23-6.77-1.82-10.07l-.11-.61c-.1-.55-.19-1.1-.29-1.67l-.12-.65h.81c.76,0,1.49,0,2.22,0,.42,0,.68.34.81,1,.23,1.18.45,2.38.66,3.55l.11.61q.54,3,1.09,6.07l.36,2ZM31.3,43.28h0A14.11,14.11,0,0,1,41.2,67.47a14.22,14.22,0,0,1-10.21,4,14.12,14.12,0,0,1,.31-28.23Zm-10.56-12a1,1,0,0,1,.86-.82,5.23,5.23,0,0,1,.75-.05H48.71a3.62,3.62,0,0,1,.47,0,1.14,1.14,0,0,1-.09,2.28H41.34a1,1,0,0,0-.7.15,1.89,1.89,0,0,0-.56,1,.85.85,0,0,0,.79.94,4.84,4.84,0,0,0,.74,0h2.33c1.55,0,3.15,0,4.73,0a3.45,3.45,0,0,0,3.58-2.22h.28a8,8,0,0,1,.85,0,1.48,1.48,0,0,1,1.4,1.47c0,2.08,0,4.12,0,6.28v2.32H38.86a2.27,2.27,0,0,1-.86-.17,17.35,17.35,0,0,0-6.29-1.46.75.75,0,0,1-.39-.17c-.31-1.66-.6-3.29-.91-5l-.18-1h6.18a4,4,0,0,0,.68,0,1,1,0,0,0,.9-1,1,1,0,0,0-.92-1,2.5,2.5,0,0,0-.47,0h-5q-4.8,0-9.61,0a1.37,1.37,0,0,1-1.13-.47A1.07,1.07,0,0,1,20.74,31.33Zm32,18.36a1,1,0,0,0,.34.78,1.38,1.38,0,0,0,.9.28h6.36v3.73h-13L46.2,50.75h3.38a1.2,1.2,0,0,0,1-.51,1,1,0,0,0,0-1,1.12,1.12,0,0,0-1.12-.62H45.34a.75.75,0,0,1-.45-.16c-.87-1-1.73-2-2.56-3l-.48-.57H58.3A1.91,1.91,0,0,1,60.41,47c0,.4,0,.79,0,1.21v.44H54C53.22,48.66,52.77,49,52.77,49.69ZM66.72,66.14a5.17,5.17,0,0,1-1.52,3.7,5.26,5.26,0,0,1-3.71,1.56h0a5.27,5.27,0,0,1-3.75-1.56,5.14,5.14,0,0,1-1.53-3.7,5.27,5.27,0,0,1,5.27-5.23h0A5.27,5.27,0,0,1,66.72,66.14Z"/><path d="M31.26,69.59h.09A12.18,12.18,0,0,0,40,48.83a12,12,0,0,0-8.53-3.63h-.09a12.2,12.2,0,0,0-.07,24.39Zm0-22.26h.07a10.1,10.1,0,0,1,10,10,10.07,10.07,0,0,1-9.93,10.08h-.06a10.06,10.06,0,1,1-.12-20.12Z"/><path d="M61.48,62.9h0a3.25,3.25,0,0,0-2.3,1,3.2,3.2,0,0,0-1,2.31,3.25,3.25,0,0,0,3.21,3.24h0a3.18,3.18,0,0,0,2.26-.93,3.25,3.25,0,0,0-2.24-5.57Zm0,4.37h0a1.11,1.11,0,0,1-.79-.33,1.13,1.13,0,0,1-.32-.81A1.11,1.11,0,0,1,61.46,65h0a1.08,1.08,0,0,1,.79.34,1.12,1.12,0,0,1,.33.81A1.13,1.13,0,0,1,61.46,67.27Z"/><path d="M31.27,61.87h0a4.4,4.4,0,0,0,3.13-1.3,4.46,4.46,0,0,0,1.31-3.18A4.39,4.39,0,0,0,31.31,53h0a4.47,4.47,0,0,0-3.18,1.32,4.4,4.4,0,0,0-1.3,3.13A4.56,4.56,0,0,0,31.27,61.87Zm0-2.14h0A2.3,2.3,0,0,1,29,57.44a2.35,2.35,0,0,1,.67-1.69,2.31,2.31,0,0,1,1.64-.69,2.37,2.37,0,0,1,1.66.69,2.33,2.33,0,0,1-1.63,4Z"/></svg>