<svg id="Layer_1" data-name="Layer 1" xmlns="http://www.w3.org/2000/svg" viewBox="0 0 85.04 85.04"><path d="M75,40a4.78,4.78,0,0,0-3.48-1.26h0L61,38.74l-10,0H46.84c-2.29,0-4.59,0-6.88,0a4.34,4.34,0,0,0-4.66,4.67v31a4.33,4.33,0,0,0,4.62,4.63H57.3l.2,0h14a4.38,4.38,0,0,0,4.72-4.72V43.47A4.79,4.79,0,0,0,75,40ZM71.69,77.24h0c-1.77,0-3.55,0-5.32,0H58.79V55.14H74.41v5.78c0,4.43,0,9,0,13.52a2.73,2.73,0,0,1-.75,2A2.8,2.8,0,0,1,71.69,77.24Zm2.67-26v2H37.23v-2Zm-22,26H39.9a2.44,2.44,0,0,1-2.71-2.69V55.11H52.85V77.2h0ZM71.81,40.7a2.58,2.58,0,0,1,1.93.77,2.55,2.55,0,0,1,.69,1.88c-.07,1.39-.05,2.75,0,4.19,0,.54,0,1.09,0,1.63H37.19V47.41c0-1.57,0-3.06,0-4.57a2.27,2.27,0,0,1,2-2.11,6.87,6.87,0,0,1,1.09-.07h18.8l4.53,0c2.67,0,5.44,0,8.15,0Zm-15,14.42v22h-2v-22Z"/><path d="M38.42,32.32h0L63,32.26l7.28,0A2.75,2.75,0,0,0,73,30a13.47,13.47,0,0,0,.12-2.2v-.35A3,3,0,0,0,70,24.08a.75.75,0,0,1-.49-.37,3.21,3.21,0,0,1,.29-2.89,1,1,0,0,0,.08-1,1.11,1.11,0,0,0-1-.49H68.8a4.62,4.62,0,0,0-.91,0c-.32,0-.45-.07-.57-.45a3.48,3.48,0,0,1,.3-2.78A1.07,1.07,0,0,0,67.74,15c-.12-.21-.39-.45-1-.45H63.13c-2.71,0-5.41,0-8.11,0A3.35,3.35,0,0,0,53.76,21l.34.14h0a3.54,3.54,0,0,0-.08,3H49.91L50,24a7.14,7.14,0,0,0,1.46-5.29,6.92,6.92,0,0,0-2.7-4.62,4,4,0,0,1-1.6-2.94c0-.41-.09-.85-.16-1.27A2.08,2.08,0,0,0,45.35,8a3.32,3.32,0,0,0-2.73.38,2.79,2.79,0,0,0-.91,2.09,5.33,5.33,0,0,1-2,4,6.77,6.77,0,0,0-1,9.24l.31.44h-.77a2.89,2.89,0,0,0-3,3c0,.65,0,1.3,0,1.94A2.92,2.92,0,0,0,38.42,32.32ZM67.53,21.66c-.08.08-.24.11-.51.12-2.23,0-4.49,0-6.68,0H58.09a1,1,0,0,0-.63.08c-.23.13-.77.49-.77.88s.48.71.77.88a1,1,0,0,0,.63.07h2.3c2.24,0,4.47,0,6.71,0h0a.63.63,0,0,1,.48.13.51.51,0,0,1,.08.32h0c-.12,0-.23,0-.35,0h-10a1.74,1.74,0,0,1-1.4-.53,1.36,1.36,0,0,1-.27-1.14,1.25,1.25,0,0,1,1.2-1.14c.59,0,1.19,0,1.78,0h8.65c.12,0,.24,0,.36,0A.51.51,0,0,1,67.53,21.66Zm-2.12-4.72h-9.5c-.53,0-1.35,0-1.35,1a.9.9,0,0,0,.23.67,1.3,1.3,0,0,0,1,.24h9.64l.14.47-.16,0H63.28c-2.74,0-5.49,0-8.23,0a1.56,1.56,0,0,1-1.34-.65,1.39,1.39,0,0,1-.1-1.33,1.32,1.32,0,0,1,1.25-.9l5.24,0h5.46ZM51,26.12H70c1,0,1.29.27,1.29,1.31v.38c0,.49,0,1,0,1.48a1,1,0,0,1-1,1.11,4.23,4.23,0,0,1-.71,0H38.86c-1.44,0-1.67-.23-1.67-1.67v-.45c0-.35,0-.69,0-1,0-.83.36-1.18,1.16-1.19h2.84l2,0Zm-2.23-3.55a3.12,3.12,0,0,1-2.94,1.58l-.54,0H43.62a4.28,4.28,0,0,1-4.31-5,5.11,5.11,0,0,1,2-3.59,5,5,0,0,0,2.09-3.64,4.29,4.29,0,0,1,.07-.5,6.48,6.48,0,0,0,.1-.77.88.88,0,0,1,.2-.66.93.93,0,0,1,.69-.15c.54,0,.68.15.71.55a5.25,5.25,0,0,0,.08.68l.06.43a5.79,5.79,0,0,0,2.37,4.15A5.07,5.07,0,0,1,48.74,22.57Z"/><path d="M36,38.8a2.25,2.25,0,0,0,.88-3.72,9.07,9.07,0,0,0-10.91-2.4c-1.48.71-3,1.4-4.47,2.08l-1.66.77-.51.2h0v-.12c0-.26,0-.5,0-.73a2.86,2.86,0,0,0-2.91-2.79h0A2.84,2.84,0,0,0,13.52,35c0,.12,0,.24,0,.37a6.33,6.33,0,0,0,0,1.23A1.91,1.91,0,0,1,12.09,39a2.59,2.59,0,0,0-1.67,2.2,2.79,2.79,0,0,0,1.26,2.64,4.66,4.66,0,0,0,1.28.49l.56.17h0v5.75q0,10.08,0,20.14c0,.33-.12.42-.42.56a8.46,8.46,0,0,0-4.44,4.89,2.32,2.32,0,0,0,.21,2.21,2.56,2.56,0,0,0,2.08,1h0c2.31,0,4.65,0,6.92,0h4.34a2.41,2.41,0,0,0,2.05-1,2.46,2.46,0,0,0,.24-2.26,8,8,0,0,0-4.75-5.06.73.73,0,0,1-.54-.85q0-11.05,0-22.12V42.59a.66.66,0,0,0,0-.14.5.5,0,0,1,0-.17.88.88,0,0,1,.24-.37,11.32,11.32,0,0,1,1.11-.51l.2-.09,0,.29a2.59,2.59,0,0,0,1.13,2,2.54,2.54,0,0,0,2.33,0l.2-.08a5.92,5.92,0,0,0,.64-.28c.26-.14.42-.11.71.09a5.51,5.51,0,0,0,5.08.62,5.3,5.3,0,0,0,3.39-3.57,1.89,1.89,0,0,1,1.47-1.56Zm-3.6,1.5A3.32,3.32,0,0,1,30.64,42a3.7,3.7,0,0,1-2.93.22ZM16.4,34a.94.94,0,0,1,1,1v.14c.08,1.54.09,1.66-2,2.34,0-.2,0-.39,0-.58,0-.64,0-1.25,0-1.86a.93.93,0,0,1,.95-1Zm-4,8a1.12,1.12,0,0,1,0-.82.86.86,0,0,1,.48-.49c2.26-1,4.53-2,6.82-3l2.09-.92-.11.32c-.22.64-.43,1.24-.66,1.83a.83.83,0,0,1-.38.44c-2.35,1.07-4.68,2.1-6.85,3.05A1,1,0,0,1,12.44,42Zm3,2.31c0-.51.12-.7.54-.85s.76-.3,1.16-.47l.25-.12v27.3H15.4v-5Q15.42,54.75,15.39,44.3Zm1.1,27.78h.07a6.33,6.33,0,0,1,6.09,4.14c.16.42.19.68.11.8s-.35.19-.8.19H14.9c-1.25,0-2.49,0-3.74,0-.4,0-.64-.06-.72-.17s0-.37.08-.74A6.44,6.44,0,0,1,16.49,72.08ZM22.93,42c-.12-.08-.19-.3-.21-.67A7,7,0,0,1,24.58,36a7.64,7.64,0,0,1,5.65-2.34h0a6.84,6.84,0,0,1,5,2.51c.22.25.32.44.29.55s-.19.22-.49.35L23.59,41.89C23.27,42,23.05,42.06,22.93,42Z"/><path d="M49,62.93h0c-.57,0-.92.42-.93,1.07v2.73c0,.5,0,1,0,1.52s.35,1,.93,1h0c.59,0,.93-.39.94-1.05q0-2.13,0-4.26a1.2,1.2,0,0,0-.29-.8A.93.93,0,0,0,49,62.93Z"/><path d="M62.65,62.94a.82.82,0,0,0-.66.24,1.17,1.17,0,0,0-.29.87c0,1.39,0,2.77,0,4.16,0,.86.48,1.06.89,1.08h.06a.9.9,0,0,0,.64-.23,1.1,1.1,0,0,0,.3-.83q0-.74,0-1.47V65.45c0-.46,0-.92,0-1.38C63.6,63.37,63.25,63,62.65,62.94Z"/><path d="M58.48,44H53.2a1.24,1.24,0,0,0-.93.3A.88.88,0,0,0,52,45c0,.41.22.9,1.15.91h5.28c.92,0,1.11-.52,1.11-.94a.87.87,0,0,0-.23-.67A1.18,1.18,0,0,0,58.48,44Z"/></svg>