<svg id="Layer_1" data-name="Layer 1" xmlns="http://www.w3.org/2000/svg" viewBox="0 0 85.04 85.04"><defs><style>.cls-1{stroke:#000;stroke-miterlimit:10;stroke-width:0.25px;}</style></defs><path class="cls-1" d="M12.52,14.35A1.52,1.52,0,0,1,14,13.52a12.07,12.07,0,0,1,6.63,2.14,36.27,36.27,0,0,1,8,6.7,10,10,0,0,1,2.58,6.73,20,20,0,0,1-2.66,10.2,52,52,0,0,0-4,8.64,17.89,17.89,0,0,0-1,5.89c.07,2.81,1.51,4.88,4.25,5.45a5.5,5.5,0,0,0,3,0,4.15,4.15,0,0,0,2.68-3.12,16,16,0,0,0,.16-6.95c-.2-1.18-.5-2.34-.67-3.52a9.79,9.79,0,0,1,6.8-10.53l.55-.17v-.7c0-5.8,0-11.61,0-17.41A2.72,2.72,0,0,1,43.13,14Q55,14,66.8,14a2.72,2.72,0,0,1,2.88,2.9q0,22,0,44v.87h.82A2.48,2.48,0,0,1,73,64.23q0,1.86,0,3.72a2.42,2.42,0,0,1-2.43,2.49c-2.37,0-4.73,0-7.09,0-7.83,0-15.66,0-23.49,0a2.71,2.71,0,0,1-3-3c.06-.94,0-1.89,0-2.84a2.58,2.58,0,0,1,2.83-2.91l.43,0V37.32c-.23.07-.45.12-.65.2a7.47,7.47,0,0,0-4.42,8.62A24.94,24.94,0,0,1,36,53.43c-.13,2.28-.5,4.51-2.08,6.31a5.55,5.55,0,0,1-4.75,1.88,9.37,9.37,0,0,1-4.45-1.19,7.18,7.18,0,0,1-3.44-6.1,20.28,20.28,0,0,1,1.46-8A42.5,42.5,0,0,1,26,39.46a21.17,21.17,0,0,0,2.81-7.82,9.75,9.75,0,0,0-1.66-7.5l-1.29,1.62a2.5,2.5,0,0,1-4,.48c-1.65-1.3-3.3-2.62-4.94-3.94a2.53,2.53,0,0,1-.4-3.91l1.38-1.67a7.17,7.17,0,0,0-3.82-.93,1.61,1.61,0,0,1-1.54-.73ZM42.4,38.92v21.9c0,.87,0,.89.9.89H66.62c.89,0,.92,0,.92-.94V17.09c0-.91-.05-1-1-1H43.38c-.93,0-1,0-1,.95ZM55,68.31H70.13c.56,0,.77-.17.75-.75,0-.88,0-1.77,0-2.65,0-1.05,0-1.05-1-1.05H40c-.71,0-.78.08-.78.77,0,.92,0,1.85,0,2.77s0,.9.89.9ZM23.6,24.88a2.6,2.6,0,0,0,.4-.33c.45-.54.88-1.1,1.34-1.64.3-.34.2-.57-.12-.82q-2.45-1.93-4.88-3.9c-.34-.27-.61-.29-.9.08-.4.53-.82,1.05-1.25,1.56-.3.34-.28.59.08.88,1.64,1.29,3.26,2.59,4.89,3.89C23.29,24.69,23.43,24.76,23.6,24.88Z"/><path class="cls-1" d="M64.84,29.42c0,2.36,0,4.72,0,7.08a2.5,2.5,0,0,1-2.76,2.78H47.85a2.47,2.47,0,0,1-2.75-2.72q0-7.19,0-14.35a2.46,2.46,0,0,1,2.67-2.69q7.2,0,14.4,0a2.46,2.46,0,0,1,2.67,2.7C64.85,24.62,64.84,27,64.84,29.42ZM55,21.67H48c-.71,0-.77.07-.77.79q0,7,0,13.92c0,.55.18.77.75.77H62c.58,0,.76-.22.75-.77,0-4.64,0-9.29,0-13.93,0-.71-.08-.78-.78-.78Z"/><path class="cls-1" d="M55,43.29h5.31a2.44,2.44,0,0,1,.81.11,1,1,0,0,1,.65,1.08,1,1,0,0,1-.79.91,3.33,3.33,0,0,1-.7.07H49.74c-1,0-1.53-.39-1.54-1.08s.54-1.1,1.52-1.1Z"/></svg>