<svg id="Layer_1" data-name="Layer 1" xmlns="http://www.w3.org/2000/svg" viewBox="0 0 85.04 85.04"><path d="M52.66,55.18a5.6,5.6,0,0,0-1.54-3.86,6,6,0,0,0-3-1.74V45.17q0-4.61,0-9.21a3.46,3.46,0,0,0-3.49-3.49h-25A3.47,3.47,0,0,0,16.13,36V49.58a6,6,0,0,0-4.56,6c.07,2.62.06,5.28,0,7.86,0,1.06,0,2.13,0,3.19a4.66,4.66,0,0,0,1.33,3.58A2.94,2.94,0,0,1,13.87,73c0,.13,0,.25,0,.37v.14A3.56,3.56,0,0,0,17.38,77h0a3.55,3.55,0,0,0,3.52-3.56c0-.28,0-.56,0-.85s0-.66,0-1a2.07,2.07,0,0,1,1.51-1.51H41.84a.76.76,0,0,1,.49.12c.64.57,1.24,1.11,1,2.07a3,3,0,0,0,0,.89c0,.12,0,.23,0,.34A3.58,3.58,0,0,0,46.86,77h0a3.55,3.55,0,0,0,3.51-3.51c0-.19,0-.39,0-.59a8.94,8.94,0,0,1,0-1.16,1.58,1.58,0,0,1,.38-.88,5.87,5.87,0,0,0,1.87-4.38V55.18Zm-9.06.16A3.29,3.29,0,0,1,46.85,52h0a3.33,3.33,0,0,1,3.27,3.38V61c0,.61,0,1.21,0,1.81,0,1.24,0,2.53,0,3.79A3.27,3.27,0,0,1,48,69.66a3.2,3.2,0,0,1-3.58-.94,3.31,3.31,0,0,1-.81-2.19v-.86C43.58,62.28,43.58,58.78,43.6,55.34Zm2-19.19q0,5.35,0,10.71v2.63l-.57.29-1.44.69a1.44,1.44,0,0,1-.62.13H21.3a2,2,0,0,1-.74-.2l-1.33-.63-.57-.27s0-.11,0-.18v-13c0-.93.38-1.31,1.3-1.31q12.16,0,24.36,0C45.19,35,45.6,35.36,45.6,36.15ZM20.67,62.7c0,1.26,0,2.57,0,3.85a3.26,3.26,0,0,1-6.31,1.19,3.13,3.13,0,0,1-.22-1V66.3c0-3.63,0-7.39,0-11.08A3.25,3.25,0,0,1,17,52a3.11,3.11,0,0,1,.43,0,3.23,3.23,0,0,1,3,2.17,4.69,4.69,0,0,1,.23,1.42c0,1.29,0,2.61,0,3.88V62.7ZM17.92,74.19a1.18,1.18,0,0,1-1,0c-.52-.32-.48-.81-.43-1.38a3,3,0,0,0,0-.42h1.88c0,.11,0,.22,0,.33C18.44,73.32,18.48,73.85,17.92,74.19Zm23.15-9.6v3H23.18v-3c0-3.2,0-6.5,0-9.74A5.36,5.36,0,0,0,23,53.58c0-.14-.07-.29-.1-.43H41.28c0,.35-.05.7-.07,1.05-.06.83-.12,1.7-.13,2.55C41.06,59.36,41.07,62,41.07,64.59Zm4.78,8.24a3.38,3.38,0,0,0,0-.45h2c0,.12,0,.25,0,.37,0,.6.07,1.12-.5,1.45a1.23,1.23,0,0,1-1,0C45.81,73.89,45.83,73.4,45.85,72.83Z"/><path d="M73.06,52.92a3.43,3.43,0,0,0-3.46-3.44H66.36c-.38,0-.78,0-1.14,0h0V27.05h1.46c1.18,0,2.41,0,3.6,0a1.68,1.68,0,0,0,1.39-.45,1.76,1.76,0,0,0,.26-1.51C71.7,24,71.55,23,71.41,21.9c-.07-.45-.13-.89-.19-1.33l-.44-3c-.36-2.54-.73-5.07-1.1-7.61-.14-.93-.53-1.27-1.5-1.27H59.54c-1,0-1.34.33-1.49,1.28-.21,1.32-.4,2.66-.58,4l-.53,3.66c-.37,2.55-.75,5.19-1.11,7.78a1.59,1.59,0,0,0,.24,1.3,1.61,1.61,0,0,0,1.3.42h5.21V49.44l0,0-4.39,0a3.48,3.48,0,0,0-3.47,3.44c0,6.69,0,13.6,0,20.55a3.47,3.47,0,0,0,3.45,3.46H69.61a3.47,3.47,0,0,0,3.45-3.46C73.07,66.65,73.07,59.74,73.06,52.92ZM69.2,24.51H58.54l1.9-13.29H67.3Zm-12,37.42V59.1c0-1.88,0-3.77,0-5.66,0-1.11.33-1.45,1.44-1.45H69.12c1.08,0,1.43.34,1.43,1.39v8.07a2.83,2.83,0,0,1,0,.41v.07ZM70.55,73c0,1.1-.34,1.44-1.45,1.44H58.61c-1.07,0-1.41-.34-1.41-1.4,0-2,0-4.07,0-6.14V64.49H70.52a.28.28,0,0,0,0,.09c0,.13,0,.26,0,.4Z"/><path d="M66.09,54c-1.48,0-3,0-4.45,0a1.25,1.25,0,1,0,0,2.5h4.46a1.25,1.25,0,1,0,0-2.5Z"/><path d="M66.1,66.49c-1.48,0-3,0-4.46,0a1.25,1.25,0,1,0,0,2.5H66.1a1.25,1.25,0,1,0,0-2.5Z"/></svg>