<svg id="Layer_1" data-name="Layer 1" xmlns="http://www.w3.org/2000/svg" viewBox="0 0 85.04 85.04"><path d="M60.81,62.74c-.06.06-.11.12-.17.17l-.12.13a24.7,24.7,0,0,1-15,7.47,24.22,24.22,0,0,1-12.61-1.8,24.51,24.51,0,0,1-14.8-27c1.52-8.86,6.61-15.23,15.15-18.95A23.69,23.69,0,0,1,42.35,21c1.1,0,1.58-.51,1.59-1.63V16.87l1.26.94,5.44,4.05-.12.1-1.4,1-5.18,3.84V24.42a1.76,1.76,0,0,0-.43-1.28,1.6,1.6,0,0,0-1.27-.39,23.13,23.13,0,0,0-11.57,3.34,1.7,1.7,0,0,0-.82,1,1.19,1.19,0,0,0,.18,1,1.34,1.34,0,0,0,2,.33,20.16,20.16,0,0,1,7-2.63c.57-.1,1.15-.16,1.78-.22l.36,0v.32c0,.54,0,1.15,0,1.74a2.32,2.32,0,0,0,1.28,2.14A2.21,2.21,0,0,0,45,29.42l2.26-1.68q2.54-1.86,5-3.74a2.71,2.71,0,0,0,1.15-2.15,2.66,2.66,0,0,0-1.12-2.11c-1.74-1.3-3.52-2.61-5.25-3.87l-2.83-2.08H43l-.16,0a2.61,2.61,0,0,0-1.64,2.79c0,.46,0,.91,0,1.39v.29h0l-1.39.16a29.67,29.67,0,0,0-3.06.44A27.56,27.56,0,0,0,15.24,49.23a26.14,26.14,0,0,0,6.48,14.55,26.86,26.86,0,0,0,20.8,9.57c1,0,2,0,3.1-.15a26.12,26.12,0,0,0,14.1-5.82c.89-.71,1.71-1.52,2.51-2.29l.46-.45a1.41,1.41,0,0,0,.48-1,1.3,1.3,0,0,0-.45-1A1.32,1.32,0,0,0,60.81,62.74Z"/><path d="M69.73,41.25a27,27,0,0,0-6.86-14.06,2.44,2.44,0,0,0-1.73-.88,2.68,2.68,0,0,0-1.79.81l-.87.86-.59.59a2.35,2.35,0,0,0-.14,3.67,20,20,0,0,1,4.63,18.28A20.35,20.35,0,1,1,27.05,32.67c.38-.45.81-.88,1.24-1.32.2-.2.4-.4.59-.61a1.31,1.31,0,0,0,.27-1.58,1.25,1.25,0,0,0-1.51-.67,2,2,0,0,0-.85.55c-6.13,6.06-8.4,13.33-6.74,21.61a22.4,22.4,0,0,0,10.12,14.6,23.22,23.22,0,0,0,12.48,3.64A22.75,22.75,0,0,0,48,68.25,23.29,23.29,0,0,0,65.51,48.1a22.57,22.57,0,0,0-3-13.79c-.6-1-1.29-2-2-2.89l-.67-.92,1.22-1.23a24.9,24.9,0,0,1,2.21,30.27,2.55,2.55,0,0,0-.25.43,1.38,1.38,0,0,0,.18,1.37,1.18,1.18,0,0,0,1.14.43,2,2,0,0,0,1.22-.86A27.19,27.19,0,0,0,69.73,41.25Z"/><path d="M32.4,37.41c-.36,0-.73,0-1.1,0h-.4a3.61,3.61,0,0,0-4,4q0,4.45,0,8.93a3.61,3.61,0,0,0,3.93,3.93H54.33a3.59,3.59,0,0,0,3.89-3.85c0-3,0-6.07,0-9.11a3.6,3.6,0,0,0-3.89-3.85H36.85a2.35,2.35,0,0,0-.64.06,1.21,1.21,0,0,0,.14,2.37c.24,0,.48,0,.73,0H54.31c1.12,0,1.45.32,1.45,1.44v9c0,1.16-.3,1.46-1.48,1.46H30.75c-1,0-1.36-.35-1.36-1.36V41.17c0-.93.36-1.29,1.3-1.31h1.73a1.46,1.46,0,0,0,1-.42,1.19,1.19,0,0,0,.3-.85A1.26,1.26,0,0,0,32.4,37.41Z"/><path d="M42.78,43.56a2.52,2.52,0,0,1,2.16.1l.11.05a1.22,1.22,0,0,0,.94.23,1.66,1.66,0,0,0,1-.82,1.11,1.11,0,0,0-.58-1.44,4.93,4.93,0,0,0-7.48,4.9,5,5,0,0,0,4.77,4.2l.32,0c3.06-.23,4.16-2.75,4.18-4.84a1.21,1.21,0,0,0-1.25-1.3c-.69,0-1.41,0-2.14,0a1.25,1.25,0,0,0-1.27,1.25,1.24,1.24,0,0,0,1.24,1.18c.24,0,.49,0,.73,0a1.71,1.71,0,0,1-1.21,1.22,2.48,2.48,0,0,1-2.9-3.07A2.53,2.53,0,0,1,42.78,43.56Z"/><path d="M31.41,46.66c-.3.77-.6,1.55-.88,2.33a1.21,1.21,0,0,0,.64,1.64,1.31,1.31,0,0,0,.47.09,1.27,1.27,0,0,0,1.16-.86,6.29,6.29,0,0,0,.29-.79c0-.14.06-.17.24-.16.42,0,.84,0,1.27,0h.52c.81,0,.81,0,1.11.75l0,.11a.84.84,0,0,0,.41.56,1.74,1.74,0,0,0,1.12.29,1.29,1.29,0,0,0,.7-.55l.15-.18.15-.14-.13-.47a3.44,3.44,0,0,0-.11-.34L35.91,41.9a1.38,1.38,0,0,0-1.34-1h0a1.36,1.36,0,0,0-1.34,1Zm3.15-1.4L35,46.4h-.88Z"/><path d="M52,43.38c.52,0,1,0,1.53,0a1.15,1.15,0,0,0,1.18-1.22A1.18,1.18,0,0,0,53.5,41c-1,0-2,0-3,0a1.19,1.19,0,0,0-1.23,1.2q0,3.69,0,7.38a1.11,1.11,0,0,0,1.12,1.17l1.59,0,1.68,0a1.1,1.1,0,0,0,1.1-1.1,1.16,1.16,0,0,0-.94-1.28,1.94,1.94,0,0,0-.58,0H51.67V47.06h1.45c1.25,0,1.38-.86,1.37-1.21a1.23,1.23,0,0,0-1.38-1.23H51.67V43.38Z"/></svg>