<svg id="Layer_1" data-name="Layer 1" xmlns="http://www.w3.org/2000/svg" viewBox="0 0 85.04 85.04"><defs><style>.cls-1{stroke:#000;stroke-miterlimit:10;stroke-width:0.5px;}</style></defs><path class="cls-1" d="M68.6,54.64a12.53,12.53,0,0,1-1,2,3.72,3.72,0,0,1-3.06,1.54c-2.59,0-5.18,0-7.76,0a1,1,0,1,1,0-2h7.16a2.33,2.33,0,0,0,2.63-2.61V32.39a2.33,2.33,0,0,0-2.63-2.62H35.67a2.1,2.1,0,0,1-.79-.1.94.94,0,0,1-.58-1.07,1,1,0,0,1,.89-.84,5.19,5.19,0,0,1,.56,0c9.4,0,18.81,0,28.21,0a4.45,4.45,0,0,1,4.56,3.45.42.42,0,0,0,.08.12Z"/><path class="cls-1" d="M34.54,58.19H21.14a4.26,4.26,0,0,1-4.52-4.5V32.22a4.26,4.26,0,0,1,4.49-4.48h6a1,1,0,0,1,1.07.81,1,1,0,0,1-.63,1.14,1.73,1.73,0,0,1-.6.07H21.2a2.3,2.3,0,0,0-2.55,2.54V53.63a2.3,2.3,0,0,0,2.56,2.53q13.47,0,26.95,0c.92,0,1.41.35,1.43,1s-.5,1-1.44,1Z"/><path class="cls-1" d="M39.83,47c.41-1.21.78-2.33,1.15-3.44l2.64-8a2.87,2.87,0,0,1,.21-.51,1,1,0,0,1,1.26-.45,1,1,0,0,1,.59,1.15c-.4,1.29-.82,2.57-1.25,3.85-1.17,3.57-2.36,7.14-3.54,10.7-.22.68-.57,1-1.07,1s-.84-.31-1.06-1q-1.83-5.51-3.65-11c0-.13-.09-.25-.16-.45-.78,2.34-1.54,4.61-2.29,6.88-.51,1.53-1,3.07-1.52,4.6-.22.64-.55,1-1.05,1S29.24,51,29,50.42L24.32,36.16c-.15-.45-.23-.95.19-1.25a1.58,1.58,0,0,1,1-.24c.44,0,.61.47.74.87l3.54,10.7c.08.23.16.45.26.76.08-.2.13-.32.17-.45,1.22-3.64,2.42-7.29,3.65-10.94a1.88,1.88,0,0,1,.6-.88c.58-.39,1.24,0,1.51.74.45,1.35.88,2.69,1.33,4C38.15,42,39,44.46,39.83,47Z"/><path class="cls-1" d="M49.68,43a32.09,32.09,0,0,1,0-3.8,5.06,5.06,0,0,1,4.78-4.57,5.83,5.83,0,0,1,4.71,1.25A5,5,0,0,1,61,39.51c0,.76-.34,1.25-1,1.29s-1-.44-1.08-1.17a2.8,2.8,0,0,0-1.24-2.32A4.3,4.3,0,0,0,56,36.69a6,6,0,0,0-2.11.12,2.87,2.87,0,0,0-2.15,2.71c0,2.3-.06,4.6,0,6.9a3,3,0,0,0,2.93,2.85,7.87,7.87,0,0,0,1.82-.06A3.07,3.07,0,0,0,59,46.3c.06-.73.5-1.19,1.08-1.16s1,.53,1,1.29a4.8,4.8,0,0,1-.09.75,5.17,5.17,0,0,1-4.55,4.13,6.35,6.35,0,0,1-3.95-.58,5.15,5.15,0,0,1-2.79-4.57c0-1.06,0-2.13,0-3.19Z"/><path class="cls-1" d="M51.62,57.16a1,1,0,0,1,1-1,1,1,0,0,1,1,1,1.05,1.05,0,0,1-1,1A1,1,0,0,1,51.62,57.16Z"/><path class="cls-1" d="M30.23,28.71a1,1,0,0,1,1.07-1,1,1,0,0,1,.95,1.05,1,1,0,1,1-2-.08Z"/></svg>