<svg id="Layer_1" data-name="Layer 1" xmlns="http://www.w3.org/2000/svg" viewBox="0 0 85.04 85.04"><path d="M49.17,41.58c0-.6.06-1.2.09-1.81,0,0,0,0,.08-.17.63,0,1.27.1,1.92.12a1.25,1.25,0,0,0,1.4-1.19,1.28,1.28,0,0,0-1.33-1.33l-.69,0c-1.45-.06-2-.09-2.54-.57l-.38-.37v0h0L46.4,35a1.11,1.11,0,0,1,0-.24c.23-1.08.89-1.31,2-1.28a2.62,2.62,0,0,1,2.25,1,9.55,9.55,0,0,0,1.05,1.06,1.27,1.27,0,0,0,1.8,0,1.22,1.22,0,0,0,0-1.78c-.46-.49-1-.92-1.5-1.44.54-.55,1-1,1.51-1.55a1.19,1.19,0,0,0,.22-1.49,1.13,1.13,0,0,0-1.24-.64,1.88,1.88,0,0,0-.72.33,3.67,3.67,0,0,0-.5.47c-1.76,1.76-1.76,1.76-4.3,1.52-.17-.42-.35-.83-.56-1.33l2-2,.29-.26a1,1,0,0,1,.57-.13c.75,0,1.5.07,2.25.09A1.28,1.28,0,0,0,53,26.12c0-.77-.49-1.29-1.39-1.35l-1.8-.09a1.11,1.11,0,0,1-.18-.09c0-.62.1-1.27.12-1.91a1.24,1.24,0,0,0-1.18-1.4,1.27,1.27,0,0,0-1.33,1.33c0,.23,0,.46,0,.69-.05,1.32-.08,1.87-.44,2.38-.72.7-1.42,1.42-2.15,2.15l-1.35-.55c0-.81,0-1.64,0-2.47a1,1,0,0,1,.29-.57c.53-.56,1.09-1.09,1.63-1.65a1.27,1.27,0,1,0-1.8-1.78l-.66.66-.78.87c-.46-.54-.84-1-1.27-1.47a1.29,1.29,0,0,0-1.93-.17,1.32,1.32,0,0,0,.16,2,1.85,1.85,0,0,0,.14.14,3.84,3.84,0,0,1,1.6,4.5l-1.23.53c-.74-.75-1.5-1.52-2.27-2.27h0A1,1,0,0,1,37,25c0-.75.06-1.49.08-2.24a1.26,1.26,0,0,0-1.18-1.47c-.77-.05-1.29.48-1.34,1.38,0,.6-.06,1.2-.1,1.81a1,1,0,0,1-.08.17c-.63,0-1.27-.1-1.91-.12a1.26,1.26,0,0,0-1.41,1.18A1.3,1.3,0,0,0,32.39,27l.69,0c1.47.06,2,.09,2.56.6l.29.28L36,28h0l1.59,1.56L37,31c-.83,0-1.68,0-2.53,0a.89.89,0,0,1-.51-.29c-.54-.52-1.06-1.07-1.59-1.59a1.28,1.28,0,1,0-1.79,1.8l1.27,1.29s0,0,.07.18c-.45.43-.94.86-1.38,1.33a1.23,1.23,0,0,0-.09,1.83,1.28,1.28,0,0,0,1.89-.08c.16-.15.32-.32.48-.48,1.6-1.61,1.6-1.61,3.85-1.44a.76.76,0,0,1,.46.36,8.21,8.21,0,0,1,.45,1l-1.26,1.23c-.29.26-.57.53-.87.78a1,1,0,0,1-.57.13l-2.25-.09a1.27,1.27,0,0,0-1.46,1.18c-.05.77.48,1.29,1.38,1.35l1.8.09.18.08c0,.63-.1,1.28-.12,1.92A1.24,1.24,0,0,0,35.62,43,1.29,1.29,0,0,0,37,41.63c0-.23,0-.46,0-.69a4.47,4.47,0,0,1,.4-2.32c.67-.66,1.32-1.34,2-2l.26.08a1.24,1.24,0,0,1,1.1,1.18h0c0,.41,0,.82-.06,1.22a.89.89,0,0,1-.32.5c-.54.52-1.1,1-1.64,1.53A1.27,1.27,0,1,0,40.39,43l1.34-1.21s0,0,.19-.07c.41.47.82,1,1.27,1.44A1.23,1.23,0,0,0,45,43.3a1.27,1.27,0,0,0,0-1.88l-.46-.51c-.86-.92-1.24-1.34-1.36-1.91a5.84,5.84,0,0,1,0-1.25c0-.43.11-.69.56-.79a4.61,4.61,0,0,0,.81-.33l1.8,1.8.22.24a.92.92,0,0,1,.12.58c0,.75-.06,1.49-.08,2.24A1.28,1.28,0,0,0,47.82,43C48.59,43,49.11,42.48,49.17,41.58ZM42,34.78a2.52,2.52,0,0,1-2.53-2.59,2.53,2.53,0,0,1,5,.05A2.53,2.53,0,0,1,42,34.78Z"/><path d="M31.57,50.71a1.76,1.76,0,0,0-3.34,0q-2.3,6-4.56,12a1.48,1.48,0,1,0,2.75,1.09c.23-.54.39-1.1.63-1.63a.73.73,0,0,1,.51-.37c1.66,0,3.32,0,5,0,.26.68.51,1.34.78,2a1.44,1.44,0,0,0,1.92,1,1.47,1.47,0,0,0,.85-2Q33.86,56.72,31.57,50.71ZM28.32,58.8c.53-1.38,1-2.67,1.57-4.12.55,1.44,1.05,2.75,1.56,4.12Z"/><path d="M59.94,61.28a1.5,1.5,0,0,0-2.15.12,4.89,4.89,0,0,1-1.5,1A4.67,4.67,0,1,1,57.58,54a1.49,1.49,0,1,0,1.5-2.56,7.39,7.39,0,0,0-4-1.14c-.43,0-.88,0-1.31.09a7.75,7.75,0,0,0-6.23,5.86,7.65,7.65,0,0,0,3.23,8.05c3,2,7,1.63,9.14-.85A1.45,1.45,0,0,0,59.94,61.28Z"/><path d="M43.78,49.48a1.53,1.53,0,0,0-1.64,1.26c-1.06,4-2.13,7.93-3.18,11.9a1.52,1.52,0,0,0,1,2.08c.87.21,1.56-.27,1.84-1.31Q43.41,57.53,45,51.64c.06-.21.09-.43.11-.52A1.52,1.52,0,0,0,43.78,49.48Z"/></svg>