<svg id="Layer_1" data-name="Layer 1" xmlns="http://www.w3.org/2000/svg" viewBox="0 0 85.04 85.04"><path d="M76.22,60.08a6.63,6.63,0,0,0-3.15-5.94.61.61,0,0,1-.23-.26,10.92,10.92,0,0,0-.61-3.79c-.13-.47-.27-1-.37-1.44-.22-1-.46-1.9-.71-2.89l-.27-1h.41c.47,0,.93,0,1.38,0a1.14,1.14,0,0,0,.82-.36,1.1,1.1,0,0,0,.28-.82,1.09,1.09,0,0,0-1.08-1.1H56.5c-1.18,0-1.47.29-1.47,1.46V62.39H33.78a2.4,2.4,0,0,1-.84-.19A5.44,5.44,0,0,0,29,61.93a10.37,10.37,0,0,1-3.72.45h-1c-.56,0-1.12,0-1.68,0a5.41,5.41,0,0,1-1.25-.24,5.36,5.36,0,0,0-3.46-.27,13.52,13.52,0,0,1-4.84.51c-.59,0-1.2,0-1.8,0h-.82A1.7,1.7,0,0,0,8.7,64.14c0,1.17,0,2.41,0,3.67a1.68,1.68,0,0,0,1.78,1.77h2.14c.79,3,2.59,4.67,5.34,5.1a7.43,7.43,0,0,0,1.22.1,6.33,6.33,0,0,0,5.59-3.42l.16.26a6.32,6.32,0,0,0,6.57,3.07,6.15,6.15,0,0,0,5.25-4.62c.14-.44.26-.5.68-.5h21.5c1.08,3.34,3.26,5.14,6.32,5.19s5.19-1.64,6.51-5.19h3c1,0,1.43-.41,1.43-1.42s0-1.85,0-2.77C76.21,63.62,76.21,61.85,76.22,60.08Zm-12-4.85c.3.12.34.22.33.49,0,.45,0,.89,0,1.35v.39H57.39V44.76h4.3v6.71A3.77,3.77,0,0,0,64.22,55.23Zm1.87-2.09c-1.57,0-2.1-.52-2.1-2.08v-6.3h4.49l2.09,8.39Zm.75,5V55.39l1.09,0a19,19,0,0,1,2.76.21,4,4,0,0,1,3.17,3.79c.09,1.84.07,3.74,0,5.58,0,.75,0,1.5,0,2.25H71.77a6.45,6.45,0,0,0-1.61-3.31A6.31,6.31,0,0,0,63.66,62,6.18,6.18,0,0,0,59,66.79c-.12.48-.24.54-.64.5a3.54,3.54,0,0,0-.46,0h-.55V59.8h7.86C66.54,59.8,66.84,59.49,66.84,58.16ZM65.32,72.45h0a4.1,4.1,0,0,1-2.93-1.28,4,4,0,0,1-1.2-2.93,4.16,4.16,0,0,1,4.23-4.11h0a4.13,4.13,0,0,1,4.09,4.15,4.18,4.18,0,0,1-4.19,4.17ZM55,64.72v2.5H37l-1-2.5ZM34.65,68.21a4.17,4.17,0,0,1-4.14,4.24h0a4.17,4.17,0,1,1,0-8.33h0a4.17,4.17,0,0,1,3,1.23A4,4,0,0,1,34.65,68.21ZM25,64.75l-.27.44-.25-.44ZM23.2,68.26A4.22,4.22,0,0,1,19,72.45h0a4.2,4.2,0,0,1-3-1.25,4.1,4.1,0,0,1-1.22-2.94A4.18,4.18,0,0,1,19,64.12h0A4.18,4.18,0,0,1,23.2,68.26ZM11,67.28V64.73h2.43l-.12.35c-.24.7-.48,1.41-.74,2.1a.37.37,0,0,1-.19.09H11Z"/><path d="M10.06,59.38c0,1.29.35,1.64,1.62,1.64H51.49c1.28,0,1.63-.35,1.63-1.63V41.05c0-1.4-.06-1.5-1.35-2l-.61-.25L33.56,31.5a1,1,0,0,0-.21-.07c-.25-.07-.35-.1-.35-.35a.75.75,0,0,1,.45-.82,3.75,3.75,0,0,0,2-3.17c.12-1.75-.74-3-2.69-4V20.4c.92-.09,1.17-.33,1.4-1.24.41-1.62.82-3.24,1.21-4.86a1.4,1.4,0,0,0-.14-1.22,1.4,1.4,0,0,0-1.14-.43h-5a1.44,1.44,0,0,0-1.17.43,1.42,1.42,0,0,0-.13,1.25c.14.58.29,1.16.43,1.73.24.91.47,1.82.69,2.74.17.76.38,1.69,1.53,1.61v3.4c0,1,.26,1.32,1.27,1.47a1.75,1.75,0,0,1,1.21.75,1.44,1.44,0,0,1,.19,1.19,1.57,1.57,0,0,1-1.61,1.2A1.59,1.59,0,0,1,30,26.92c-.1-.83-.58-1.3-1.28-1.22s-1,.57-1,1.39a3.39,3.39,0,0,0,1.21,2.59,7.75,7.75,0,0,0,1.24.8l.55.32c.09.29,0,.49-.63.74l-8.92,3.58q-5,2-10.06,4a1.5,1.5,0,0,0-1.07,1.62q0,6.93,0,13.86Zm2.34-.69v-17H50.77v17Zm4.9-19.44,1.27-.52.8-.33c4-1.61,8-3.23,12-4.82a1.13,1.13,0,0,1,.74,0l12.61,5.18,1.32.54ZM32.82,15c0,.23-.11.46-.17.68-.19.73-.39,1.48-.55,2.23-.05.22-.11.21-.35.2h-.33c-.24,0-.29,0-.33-.19-.17-.75-.36-1.48-.56-2.25-.06-.23-.12-.45-.17-.67Z"/><path d="M17.85,43.77a1,1,0,0,0-.79-.3h0c-.42,0-1.14.18-1.14,1.35V55.34c0,1.16.7,1.35,1.12,1.36h0a1,1,0,0,0,.77-.28,1.45,1.45,0,0,0,.37-1.1V44.8A1.38,1.38,0,0,0,17.85,43.77Z"/><path d="M24.37,43.47c-.75,0-1.13.49-1.13,1.43V55.28c0,1.17.62,1.42,1.13,1.42h0a1.08,1.08,0,0,0,.78-.28,1.51,1.51,0,0,0,.36-1.11V44.92a1.58,1.58,0,0,0-.37-1.17A1.14,1.14,0,0,0,24.37,43.47Z"/><path d="M31.62,43.47h0a1.09,1.09,0,0,0-.78.29,1.46,1.46,0,0,0-.36,1.09V55.38a1.37,1.37,0,0,0,.36,1,1,1,0,0,0,.78.29h0c.72,0,1.14-.49,1.14-1.35V44.83C32.74,43.67,32,43.48,31.62,43.47Z"/><path d="M38.77,43.47a1.09,1.09,0,0,0-1.12,1.22c0,3.58,0,7.15,0,10.73,0,.8.43,1.28,1.14,1.28h0a1.07,1.07,0,0,0,.79-.29,1.41,1.41,0,0,0,.35-1V44.71A1.12,1.12,0,0,0,38.77,43.47Z"/><path d="M46.13,43.47h0c-.43,0-1.15.18-1.15,1.34V55.33c0,1.17.69,1.36,1.11,1.37h0a1.07,1.07,0,0,0,.77-.28,1.48,1.48,0,0,0,.37-1.09V44.81C47.27,43.65,46.56,43.47,46.13,43.47Z"/></svg>