<svg id="Layer_1" data-name="Layer 1" xmlns="http://www.w3.org/2000/svg" viewBox="0 0 85.04 85.04"><defs><style>.cls-1,.cls-2,.cls-3,.cls-4{stroke:#000;stroke-miterlimit:10;}.cls-1{stroke-width:0.9px;}.cls-2{stroke-width:0.5px;}.cls-3,.cls-4{stroke-width:0.8px;}.cls-4{fill:#fff;}</style></defs><path class="cls-1" d="M41.43,65.5c-6.77,0-16.7,0-23.46,0a4.78,4.78,0,0,1-4.84-4.88V26.93a4.82,4.82,0,0,1,5-5c13.53,0,34.45,0,48,0a4.82,4.82,0,0,1,4.84,4.52c0,.39,0,.78,0,1.17V60a5.58,5.58,0,0,1-.7,3.1,4.63,4.63,0,0,1-4.14,2.38H41.43Zm0-1.2H65.7a5.65,5.65,0,0,0,1-.07,3.62,3.62,0,0,0,3-3.7c0-12,0-20.86,0-32.87,0-.33,0-.65,0-1a3.63,3.63,0,0,0-3.53-3.51h-48A3.65,3.65,0,0,0,14.33,27V60.43a3.69,3.69,0,0,0,3.89,3.87Z"/><path class="cls-2" d="M56.76,46.1l-2,4.11q-1.73,3.52-3.44,7a.81.81,0,0,1-.82.51H18.78a2.25,2.25,0,0,1-2.26-2.26q0-5.65,0-11.31c0-.48.23-.74.62-.73s.58.25.58.74v11c0,1,.43,1.36,1.41,1.4.48,0,3.89-.12,4.11-.57,1.28-2.68,2.6-5.34,3.9-8a.56.56,0,0,0,0-.46A7.33,7.33,0,0,1,26,44.74a.77.77,0,0,0-.36-.42c-1.81-1-6.79-4.12-8.61-5.1a.9.9,0,0,1-.54-.9c0-4.6,0-6,0-10.65a2.3,2.3,0,0,1,2.4-2.34h26.2c.49,0,.81.21.81.59a1.5,1.5,0,0,1-.19.6C45,28,44.7,28.48,44,30c-.11.21-.21.43-.33.7,6.13,3.36,16.49,8.83,22.67,12.22,0-.18,0-.3,0-.42V27.93c0-1-.37-1.36-1.36-1.36H49.63c-.65,0-1-.2-1-.61s.29-.63.93-.63c3.77,0,11.77,0,15.54,0a2.4,2.4,0,0,1,2.41,2.39c0,11.72,0,20.27,0,27.76a2.23,2.23,0,0,1-2.28,2.27H54.33c-.55,0-.81-.2-.81-.61s.28-.6.83-.6h10.7a1.13,1.13,0,0,0,1.28-1.29c0-2,0-1.82,0-3.79A.61.61,0,0,0,66.1,51c-1.64-.92-7.53-3.93-9.18-4.83Zm9.62,3.63c-.16-.85.13-1.61-.22-2.33a.82.82,0,0,1,0-.43,4.38,4.38,0,0,0,.12-.61c0-.51,0-1,0-1.54a.67.67,0,0,0-.42-.72c-4.06-2.21-12.34-6.55-16.4-8.77l-6.9-3.79a.64.64,0,0,1-.31-1c.52-1.06.59-1.07,1.11-2.13l.89-1.85c-.56,0-1.06,0-1.56,0a.48.48,0,0,0-.52.33c-.45.94-.91,1.88-1.37,2.82a.66.66,0,0,1-.87.36.64.64,0,0,1-.24-.91c.29-.61.59-1.2.89-1.81l.37-.78c-.65,0-1.21,0-1.77,0-.09,0-.21.14-.26.24-1.7,3.43-2.94,5.82-4.63,9.26l-.62,1.3a6.63,6.63,0,0,1,4,2.51c.63-1.28,1.23-2.48,1.82-3.69.29-.59.58-.68,1.16-.36L46.49,39l4.92,2.7c.51.29.6.55.37,1.06l-.39.79L45.53,55.48c-.16.33-.31.67-.48,1.05h5a.55.55,0,0,0,.35-.25c.66-1.32,1.31-2.65,2-4,1.18-2.4,2.35-4.81,3.53-7.21.24-.49.57-.58,1.06-.31s5.38,2.74,6,3.06ZM50.47,42.62l-10-5.49c-.66,1.34-1.3,2.62-1.92,3.92a.59.59,0,0,0,0,.41A6.52,6.52,0,0,1,34.37,50a.8.8,0,0,0-.41.36c-.79,1.56-1.56,3.13-2.33,4.7-.23.46-.45.93-.69,1.44H43.21a.6.6,0,0,0,.64-.39q2.76-5.67,5.56-11.33ZM37.71,26.56H19a1.13,1.13,0,0,0-1.3,1.24c0,2.17,0,1.17,0,3.34a.5.5,0,0,0,.22.36C20.58,33,26.39,36.53,29,38a.61.61,0,0,0,.46,0A7,7,0,0,1,32,37.29a.55.55,0,0,0,.55-.36c.86-1.79,1.75-3.58,2.62-5.36C36.17,29.58,36.69,28.64,37.71,26.56Zm.06,17.21a5.29,5.29,0,1,0-10.58.13,5.29,5.29,0,0,0,10.58-.13ZM27.62,56.53c.61,0,1.14,0,1.66,0a.49.49,0,0,0,.38-.24c.52-1,1-2,1.53-3.07s.92-1.9,1.39-2.86l-1.81-.22c-.19.4-.39.81-.6,1.21a.61.61,0,0,1-.83.34.61.61,0,0,1-.27-.88c.17-.38.35-.75.53-1.11l-1.45-1-3.83,7.82c.6,0,1.12,0,1.65,0a.39.39,0,0,0,.42-.28q.24-.54.51-1c.22-.42.54-.56.88-.39a.63.63,0,0,1,.22.93C27.89,56,27.77,56.22,27.62,56.53ZM17.71,36.2c0,.6,0,1.1,0,1.61a.52.52,0,0,0,.32.54c1.37.73,5.91,3.6,7.27,4.35l.69.37a6.72,6.72,0,0,1,2.15-4.17c-2.43-1.33-8-4.75-10.43-6.09,0,.62,0,1.15,0,1.67a.43.43,0,0,0,.28.46c1.1.59,5.36,3.31,6.45,3.92.43.23.55.52.37.88s-.53.43-1,.18C22.86,39.4,18.74,36.76,17.71,36.2Z"/><path class="cls-2" d="M29.23,60.07H18.71A.94.94,0,0,0,18.62,62a2.67,2.67,0,0,0,.4,0H36.5a1,1,0,0,0,1-.67,1,1,0,0,0-1-1.22Z"/><path class="cls-3" d="M53.47,61a1,1,0,0,0-1-.94,1,1,0,0,0,0,1.9A.94.94,0,0,0,53.47,61Z"/><path class="cls-3" d="M59.91,61a1,1,0,1,0-1,.94A1,1,0,0,0,59.91,61Z"/><path class="cls-3" d="M65.39,60.07a1,1,0,1,0,0,1.9,1,1,0,0,0,.93-.93A1,1,0,0,0,65.39,60.07Z"/><path class="cls-4" d="M50.47,42.62l-1.06,2.19q-2.79,5.65-5.56,11.33a.6.6,0,0,1-.64.39H30.94c.24-.51.46-1,.69-1.44.77-1.57,1.54-3.14,2.33-4.7a.8.8,0,0,1,.41-.36,6.52,6.52,0,0,0,4.2-8.57.59.59,0,0,1,0-.41c.62-1.3,1.26-2.58,1.92-3.92Z"/><path class="cls-2" d="M38.8,31.4c.6,0,.9.44.72.88s-.33.7-.5,1c-.39.8-.78,1.59-1.18,2.38-.21.43-.58.6-.9.43s-.41-.54-.2-1c.53-1.09,1-2.18,1.6-3.25A2.36,2.36,0,0,1,38.8,31.4Z"/><path class="cls-2" d="M63.88,45.2c0,.58-.48.9-.89.68-1.19-.62-6.59-3.39-7.77-4A.64.64,0,0,1,55,41a.65.65,0,0,1,.92-.19c.75.41,5.73,2.94,6.49,3.36.36.2.74.38,1.09.61A2.06,2.06,0,0,1,63.88,45.2Z"/><path class="cls-2" d="M51.08,50.79c-.09.26-.13.41-.2.56L49.29,54.6c-.22.43-.56.59-.91.42s-.42-.53-.2-1c.54-1.12,1.09-2.24,1.64-3.36.15-.3.4-.49.72-.36S50.91,50.64,51.08,50.79Z"/><path class="cls-2" d="M52.31,48c-.59,0-.91-.43-.72-.83.57-1.21,1.17-2.41,1.77-3.61a.59.59,0,0,1,.82-.27.63.63,0,0,1,.25.87c-.31.67-.65,1.32-1,2-.24.49-.47,1-.74,1.47A1.73,1.73,0,0,1,52.31,48Z"/><path class="cls-2" d="M41.69,33.07a1.4,1.4,0,0,1,.33.13c1.1.59,2.19,1.19,3.28,1.8.4.22.52.53.36.85a.61.61,0,0,1-.93.23c-1.12-.6-2.24-1.21-3.35-1.83a.59.59,0,0,1-.33-.74C41.14,33.2,41.35,33.09,41.69,33.07Z"/><path class="cls-2" d="M52.68,39.29c0,.6-.48.87-.94.63-.88-.46-1.74-1-2.62-1.42-.27-.15-.54-.29-.81-.45a.64.64,0,0,1-.26-.84.61.61,0,0,1,.83-.25c1.16.63,2.32,1.26,3.47,1.91A1.19,1.19,0,0,1,52.68,39.29Z"/><path class="cls-2" d="M34.9,41.46l-.63,5.29a1.11,1.11,0,0,1-.81,1,1.19,1.19,0,0,1-1.33-.35c-.28-.34-.52-.71-.81-1a.81.81,0,0,0-.46-.25c-.38-.06-.77-.07-1.16-.1a1.2,1.2,0,0,1-1.15-.79,1.14,1.14,0,0,1,.34-1.36c1.34-1.13,2.68-2.24,4-3.35a1.23,1.23,0,0,1,2,1ZM33,46.56l.62-5-3.91,3.22c.51,0,.91.1,1.31.11a1.45,1.45,0,0,1,1.22.66C32.49,45.86,32.74,46.17,33,46.56Z"/></svg>