<svg id="Layer_1" data-name="Layer 1" xmlns="http://www.w3.org/2000/svg" viewBox="0 0 85.04 85.04"><path d="M22.23,42.26A20.67,20.67,0,0,0,42.85,62.9h0a20.64,20.64,0,0,0,0-41.27h0A20.66,20.66,0,0,0,22.23,42.26ZM42.85,23.92h0a18.35,18.35,0,0,1,0,36.69h0a18.35,18.35,0,0,1,0-36.69Z"/><path d="M44,40.09a1,1,0,0,0-.44-.71,1.11,1.11,0,0,0-.64-.21.91.91,0,0,0-.23,0,1.12,1.12,0,0,0-.93,1.26q0,5.1,0,10.21v1.19a2.73,2.73,0,0,0,0,.41,1.13,1.13,0,0,0,1,.86,1.19,1.19,0,0,0,.9-.28,1.35,1.35,0,0,0,.36-1c0-1.32,0-2.64,0-4v-3c0-1.11,0-2.22,0-3.32v-.3A7.37,7.37,0,0,0,44,40.09Z"/><path d="M42.85,32.87a1.27,1.27,0,0,0-1.28,1.27,1.31,1.31,0,0,0,.39.93,1.23,1.23,0,0,0,.9.38h0a1.3,1.3,0,0,0,1.28-1.29,1.24,1.24,0,0,0-.36-.91,1.3,1.3,0,0,0-.92-.38Z"/></svg>