<svg id="Layer_1" data-name="Layer 1" xmlns="http://www.w3.org/2000/svg" viewBox="0 0 85.04 85.04"><path d="M71.29,35.27a1.43,1.43,0,0,0-1.41-.61c-.94,0-1.87,0-2.85,0H65.54V29c0-4.16,0-8.46,0-12.69a2.48,2.48,0,0,0-.67-1.76,2.43,2.43,0,0,0-1.76-.68h0c-13.39,0-27.16,0-40.92,0h0a2.3,2.3,0,0,0-2.4,2.41c0,4.22,0,8.51,0,12.66v5.72h-2c-.88,0-1.75,0-2.63,0s-1.17.34-1.17,1.16v8.79c0,.79.34,1.13,1.14,1.14,1,0,2,0,3,0h1.6v3.07c0,2.36,0,4.73,0,7.09a2.71,2.71,0,0,0,.12.66,3.77,3.77,0,0,1,.1.43,1.09,1.09,0,0,1,0,.54,9.44,9.44,0,0,0-.14,4,3,3,0,0,0,2.68,2.6l.32.07.39.09v3.06c0,2.08.56,2.91,2.5,3.69l.1.07h5.89l.41-.2a5.77,5.77,0,0,0,.92-.51,3.23,3.23,0,0,0,1.24-2.81q0-1,0-2.13V64.27H51V65.5c0,.72,0,1.43,0,2.13a3.23,3.23,0,0,0,1.16,2.74,5.81,5.81,0,0,0,1,.56l.43.22h6l.42-.22a6,6,0,0,0,1-.57A2.85,2.85,0,0,0,62,68.11c0-.82,0-1.63,0-2.47V64.32l.51-.09c.2,0,.39-.07.57-.12a3.17,3.17,0,0,0,2.4-3.06c0-.27,0-.54,0-.81a6.42,6.42,0,0,0-.28-2.77.54.54,0,0,1,0-.46,2.2,2.2,0,0,0,.26-1.48c0-.17,0-.34,0-.51q0-3,0-6.06v-3.2H67c1,0,1.91,0,2.86,0a1.48,1.48,0,0,0,1.41-.61ZM19.78,43.89H15.94V36.56h3.84ZM32.5,68a1.31,1.31,0,0,1-1.45,1.31H26.6a1.33,1.33,0,0,1-1.46-1.42c0-.78,0-1.55,0-2.34V64.28h7.37v.25c0,.35,0,.7,0,1C32.53,66.37,32.54,67.19,32.5,68Zm27.66.21a1.16,1.16,0,0,1-1.22,1.09H54.15a1.3,1.3,0,0,1-1.31-1.39c0-.78,0-1.54,0-2.35,0-.34,0-.68,0-1v-.25h7.35v.25c0,.36,0,.72,0,1.07C60.19,66.45,60.2,67.33,60.16,68.2Zm3.53-7.72v.43a1.42,1.42,0,0,1-1.4,1.49H23.52c-1.38,0-1.85-.47-1.85-1.86V60c0-.39,0-.79,0-1.18a1.41,1.41,0,0,1,1.4-1.55,1.86,1.86,0,0,1,.41,0H61.77a2.24,2.24,0,0,1,1.27.28,1.77,1.77,0,0,1,.62,1.16A12.66,12.66,0,0,1,63.69,60.48Zm-40.4-7.65c0,.55,0,1.11,0,1.67v.91H21.7V46.76l.34.13a1.7,1.7,0,0,1,1.28,1.87C23.26,50.11,23.27,51.49,23.29,52.83Zm36.88-4.16-.3-.09c-1.19-.35-1.84.34-2.59,1.13l-.16.17-.72.72c-.8.79-.8.79-.8,2.15v2.67H29.75V54.31c0-.67,0-1.32,0-2a1.87,1.87,0,0,0-.66-1.6,16.64,16.64,0,0,1-1.46-1.45,1.83,1.83,0,0,0-1.75-.75h-.71l0-.43c0-.14,0-.26,0-.39V44q0-7.5,0-15a3.65,3.65,0,0,1,2.8-3.89A4.67,4.67,0,0,1,29.17,25h27a3.68,3.68,0,0,1,3.94,2.82,4.43,4.43,0,0,1,.11,1.12V47.81c0,.08,0,.17,0,.29Zm0,2v4.79H57.44v-.9c0-.72,0-1.43,0-2.13a.85.85,0,0,1,.29-.53l.17-.18a9.28,9.28,0,0,1,.9-.87,2.82,2.82,0,0,1,.62-.37l.26-.13.2-.11ZM27.91,54.79c0,.12,0,.25,0,.38v.25H25.17V50.05l.37.2.37.19c.23.12.43.22.62.34a3.15,3.15,0,0,1,1.39,3.33A3.82,3.82,0,0,0,27.91,54.79Zm34.12-6a1.7,1.7,0,0,1,1.28-1.88l.33-.13v8.66H62.06v-.86c0-.56,0-1.12,0-1.69C62.08,51.53,62.09,50.13,62,48.77Zm.37-3.64-.34.15V39.66c0-3.75,0-7.5,0-11.24a5.43,5.43,0,0,0-5.24-5.26c-9.37,0-18.87,0-28.25,0a5.43,5.43,0,0,0-5.24,5.26c0,3.73,0,7.47,0,11.2v5.52L23,45.07a1.42,1.42,0,0,1-1.32-1.6V15.78h42v6.87c0,6.77,0,13.77,0,20.65A1.76,1.76,0,0,1,62.4,45.13Zm7-1.24H65.58V36.56h3.83Z"/><path d="M56.29,27.76H29.07a2.07,2.07,0,0,0-2.33,2.33q0,3.27,0,6.56c0,1.85,0,3.7,0,5.56a1.23,1.23,0,0,0,.84,1.29c.77.31,1.54.65,2.3,1l2.46,1a3,3,0,0,0,1.16.23q3.61,0,7.25,0h4.11c2.35,0,4.71,0,7.06,0a2.77,2.77,0,0,0,1.05-.2l2.5-1.07,2.36-1a1.15,1.15,0,0,0,.8-1.2V38.11q0-4,0-8.07A2,2,0,0,0,56.29,27.76Zm-.16,14.45c-.53.2-1.06.43-1.59.66l-.62.28a9,9,0,0,1-3.71.82,12.27,12.27,0,0,1-1.55-.11l-.29,0,.08-.28c.32-1.12.52-1.28,1.64-1.28H52.4a.9.9,0,1,0,.14-1.8,3.51,3.51,0,0,0-.57,0H45.84c-.74,0-1.2.38-1.19.93s.45.9,1.19.9h.88l-.07.31c-.22,1-.57,1.33-1.54,1.33H36.74l.13-.34c.46-1.22.55-1.3,1.74-1.3h2.25a.92.92,0,0,0,1-.84.9.9,0,0,0-.85-1,5.5,5.5,0,0,0-.82,0H34.5a2.81,2.81,0,0,0-.67.07.85.85,0,0,0-.71,1,.89.89,0,0,0,.86.8h1.35l-.23.52c0,.09-.07.14-.1.2a1.46,1.46,0,0,1-2.17.76l-.14-.06c-1.18-.5-2.39-1-3.58-1.55a1,1,0,0,1-.53-.73c0-3.3,0-6.61-.06-9.91V30.13a1.11,1.11,0,0,1,0-.19l.05-.31H56.78v3.26q0,4.17,0,8.34A.92.92,0,0,1,56.13,42.21Z"/><path d="M51.75,52H33.49a.9.9,0,0,0-.12,1.79,4.48,4.48,0,0,0,.57,0H51.41a4,4,0,0,0,.73-.07A.83.83,0,0,0,52.8,53a.9.9,0,0,0-.21-.67A1.16,1.16,0,0,0,51.75,52Z"/><path d="M52.26,48.64a2,2,0,0,0-.73-.1H33.83a2.06,2.06,0,0,0-.65.07.88.88,0,0,0,0,1.69,3.25,3.25,0,0,0,.77.08H51.41a2.6,2.6,0,0,0,.81-.1.77.77,0,0,0,.58-.78A.8.8,0,0,0,52.26,48.64Z"/><path d="M40.13,59.84a1,1,0,0,0-1-.91c-.78,0-1.53,0-2.25,0l-2.18,0a1,1,0,0,0-.74.3.88.88,0,0,0-.24.64.94.94,0,0,0,1,.89H39C39.7,60.75,40.13,60.38,40.13,59.84Z"/><path d="M51.66,59.88a.83.83,0,0,0-.23-.64,1,1,0,0,0-.73-.31l-2.25,0-2.24,0a1,1,0,0,0-.74.31.85.85,0,0,0-.24.63.94.94,0,0,0,1.05.89h4.27C51.22,60.75,51.64,60.4,51.66,59.88Z"/></svg>