<svg id="Layer_1" data-name="Layer 1" xmlns="http://www.w3.org/2000/svg" viewBox="0 0 85.04 85.04"><path d="M7.09,30.85a3.22,3.22,0,0,1,3.5-2.15c3.66.07,7.33,0,11,0,.26,0,.52,0,.77,0a1,1,0,0,1,1,1,1.05,1.05,0,0,1-1,1.09,5.19,5.19,0,0,1-.56,0H10.38c-1,0-1.19.15-1.19,1.22V49.85c0,1.09.11,1.2,1.2,1.2H49.67a4.49,4.49,0,0,1,.9,0,1,1,0,0,1,0,2.06,3.29,3.29,0,0,1-.83.06H21.6c0,.66,0,1.26,0,1.86,0,1.53-.72,2.24-2.22,2.26H14.9a2,2,0,0,1-2.19-2.22v-1.9c-.67,0-1.3,0-1.92,0a3.35,3.35,0,0,1-3.7-2.08Zm7.85,22.41v1.92h4.45V53.26Z"/><path d="M73.16,53.23c0,.7,0,1.33,0,2a1.94,1.94,0,0,1-2.1,2.16c-1.57,0-3.13,0-4.69,0a1.93,1.93,0,0,1-2.1-2.09c0-.65,0-1.29,0-2H55.11a2.94,2.94,0,0,1-.89-.11.83.83,0,0,1-.65-1,1.78,1.78,0,0,1,.69-.93,1.84,1.84,0,0,1,1-.11H75.45c1.14,0,1.23-.09,1.23-1.24V32.1c0-1.12-.13-1.25-1.23-1.25H26.86c-1,0-1.43-.34-1.44-1a1,1,0,0,1,.9-1.06,4.29,4.29,0,0,1,.62,0H75.6c1.67,0,2.72.7,3.09,2.08a3.28,3.28,0,0,1,.09.89V50.25a2.81,2.81,0,0,1-2.92,3C75,53.24,74.14,53.23,73.16,53.23Zm-6.7,2H71V53.28H66.46Z"/><path d="M56.66,46.39a5.42,5.42,0,0,1-5.46-5.46A5.46,5.46,0,1,1,62.11,41,5.44,5.44,0,0,1,56.66,46.39Zm0-8.73A3.31,3.31,0,0,0,53.32,41,3.33,3.33,0,1,0,60,41,3.3,3.3,0,0,0,56.62,37.66Z"/><path d="M73.47,40.91c0,.81,0,1.63,0,2.44a1.74,1.74,0,0,1-1.76,1.79c-1.16,0-2.33,0-3.49,0a1.74,1.74,0,0,1-1.76-1.79c0-1.61,0-3.22,0-4.83a1.78,1.78,0,0,1,1.79-1.77q1.71,0,3.42,0a1.81,1.81,0,0,1,1.79,1.85C73.48,39.37,73.47,40.14,73.47,40.91Zm-4.88-2V43h2.72V38.89Z"/><path d="M12.4,41a3.72,3.72,0,0,1,7.43,0,3.72,3.72,0,1,1-7.43,0Zm3.7,1.56a1.58,1.58,0,1,0-1.59-1.6A1.6,1.6,0,0,0,16.1,42.53Z"/><path d="M35.43,44.59A3.63,3.63,0,0,1,31.8,41a3.67,3.67,0,1,1,3.63,3.64ZM37,40.93a1.5,1.5,0,1,0-1.47,1.55A1.49,1.49,0,0,0,37,40.93Z"/><path d="M45,44.59A3.65,3.65,0,1,1,48.58,41,3.6,3.6,0,0,1,45,44.59Zm-1.53-3.71a1.51,1.51,0,0,0,1.42,1.6A1.53,1.53,0,0,0,46.44,41a1.5,1.5,0,1,0-3-.16Z"/><path d="M26.53,44.59A3.59,3.59,0,0,1,22.88,41a3.65,3.65,0,0,1,3.67-3.68A3.69,3.69,0,0,1,30.18,41,3.64,3.64,0,0,1,26.53,44.59ZM25,40.92a1.51,1.51,0,1,0,1.55-1.48A1.51,1.51,0,0,0,25,40.92Z"/><path d="M70,48.73c-.53,0-1.07,0-1.6,0a1.08,1.08,0,1,1,0-2.16c1,0,2.09,0,3.14,0a1.12,1.12,0,0,1,1.17,1.06,1.14,1.14,0,0,1-1.13,1.1H70Z"/><path d="M16.12,46.57c.54,0,1.07,0,1.61,0a1.07,1.07,0,0,1,1.11,1,1,1,0,0,1-1.07,1.12c-1.12,0-2.23,0-3.35,0a1,1,0,0,1-1-1.08,1,1,0,0,1,1.13-1.06C15.05,46.55,15.59,46.57,16.12,46.57Z"/></svg>