<svg id="Layer_1" data-name="Layer 1" xmlns="http://www.w3.org/2000/svg" viewBox="0 0 85.04 85.04"><path d="M10.73,20.6c.45-.81,1.27-.55,2-.64v-.7q0-3.09,0-6.18c0-.94.32-1.25,1.27-1.25H25.7c1.15,0,1.4.26,1.4,1.43,0,2,0,4,0,6V20h1a1,1,0,0,1,1.06,1q0,5.1,0,10.19a1.6,1.6,0,0,1-.35.83A36.49,36.49,0,0,1,26,35.66a2.57,2.57,0,0,0-.67,2.09c0,.43,0,.86,0,1.29,0,1.09-.27,1.36-1.34,1.36h-.92a3.41,3.41,0,0,0-.06.44c0,3.37-.11,6.76.06,10.12a14.47,14.47,0,0,0,8.12,12.75A15.21,15.21,0,0,0,53.33,52.84a16.3,16.3,0,0,0,.22-2.7c0-4,0-8,0-11.92,0-.13,0-.25,0-.4l-.43,0a1.62,1.62,0,0,1-1.46-1.63c0-.85,0-1.69,0-2.54a.88.88,0,0,0-.31-.58c-.62-.45-1.26-.86-1.9-1.28a1.8,1.8,0,0,1-.86-1.61c0-3.64,0-7.28,0-10.93,0-1.19.53-1.69,2.06-1.89V15.69c0-.76,0-1.52,0-2.28a1.55,1.55,0,0,1,1.64-1.57c1.54,0,3.08,0,4.63,0a1.55,1.55,0,0,1,1.66,1.6c0,1.27,0,2.55,0,3.78.09.06.11.11.15.11,1.55.23,1.92.66,1.92,2.21,0,3.48,0,7,0,10.44a1.94,1.94,0,0,1-1,1.85,3.37,3.37,0,0,0-.31.21c-.59.41-1.41.69-1.7,1.26s-.08,1.4-.09,2.12v.38c0,1.31-.51,1.88-1.9,2,0,.22,0,.46,0,.7,0,4.28.07,8.57-.09,12.84A16.25,16.25,0,0,1,50,63,17,17,0,0,1,37,67.53,17.36,17.36,0,0,1,21.38,54,23.77,23.77,0,0,1,21,49.82c-.06-2.88,0-5.76,0-8.64v-.73H19a3.12,3.12,0,0,0-.06.41c0,3.13,0,6.27.07,9.39a22.7,22.7,0,0,0,4.84,13.28,22.8,22.8,0,0,0,14.36,9c9.85,1.76,17.92-1.42,24-9.32A22.54,22.54,0,0,0,66.8,51.45c.13-1.23.13-2.47.14-3.7,0-3.09,0-6.18,0-9.27v-.65c-1.5-.2-2-.72-2-2.21,0-.64,0-1.28,0-1.91a.81.81,0,0,0-.44-.8c-.6-.36-1.16-.78-1.75-1.15a1.78,1.78,0,0,1-.89-1.6c0-3.66,0-7.33,0-11,0-1.17.53-1.63,2.06-1.87V13.75a1.67,1.67,0,0,1,1.92-1.92h4.2A1.66,1.66,0,0,1,72,13.65c0,1,0,2,0,3v.69l.53.08A1.56,1.56,0,0,1,74,18.92c0,3.83,0,7.66,0,11.49a2.07,2.07,0,0,1-.75,1.26,11.53,11.53,0,0,1-1.83,1.24.83.83,0,0,0-.46.84c0,.7,0,1.4,0,2.1,0,1.27-.54,1.84-1.9,2v.69c0,3.44,0,6.88,0,10.32A26.1,26.1,0,0,1,50.31,74c-1.62.48-3.33.65-5,1l-.48.11H41c-.18,0-.35-.09-.53-.12-1.36-.23-2.73-.36-4.06-.71a25.57,25.57,0,0,1-14.17-9.38A24.8,24.8,0,0,1,16.92,50.5c-.13-3.1-.07-6.21-.09-9.32V40.4H15.64c-.79,0-1.1-.33-1.13-1.13a10.24,10.24,0,0,1,0-1.24,3.11,3.11,0,0,0-.83-2.58c-1.09-1.19-2-2.56-3-3.85Zm2.08,1.5c0,2.89,0,5.71,0,8.53a1.17,1.17,0,0,0,.25.6c.64.88,1.28,1.77,2,2.61a1.21,1.21,0,0,0,.8.4q4.08,0,8.16,0a1.14,1.14,0,0,0,.81-.39c.69-.84,1.34-1.72,2-2.61A1.57,1.57,0,0,0,27,30.4c0-2.57,0-5.15,0-7.72V22.1Zm59.11-2.65H64a1.26,1.26,0,0,0-.05.16c0,3.37,0,6.75,0,10.12a.87.87,0,0,0,.3.53,3.52,3.52,0,0,0,2.94.95,6.11,6.11,0,0,1,1.54,0,3.49,3.49,0,0,0,2.73-.83.93.93,0,0,0,.42-.81c0-2.79,0-5.59,0-8.39Zm-21.29,0c0,3.5,0,6.94,0,10.37a.78.78,0,0,0,.31.47,3.47,3.47,0,0,0,2.87.93,7.13,7.13,0,0,1,1.6,0,3.49,3.49,0,0,0,2.68-.81,1,1,0,0,0,.46-.9c0-3.15,0-6.3,0-9.45,0-.19,0-.39,0-.61ZM25,20V14H14.86v6Zm-1.8,16.4H16.57c0,.5,0,1,0,1.39s.11.61.58.6c1.48,0,3,0,4.44,0,1.86,0,1.86,0,1.67-1.87ZM66.11,13.94v3.37h3.76V13.94Zm-13.38,0v3.39h3.73V13.93Zm1,19.4v2.33h1.67V33.33ZM67.1,35.66h1.7V33.34H67.1Z"/><path d="M19.92,26.77c-1.52,0-3,0-4.57,0-.78,0-1.26-.39-1.28-1s.46-1.06,1.3-1.06q4.56,0,9.14,0c.79,0,1.27.37,1.28,1s-.48,1.07-1.29,1.07C23,26.78,21.45,26.77,19.92,26.77Z"/><path d="M19.91,31.62h-3a1.06,1.06,0,0,1-1.19-1,1.09,1.09,0,0,1,1.17-1.09H23a1.09,1.09,0,0,1,1.19,1.07c0,.61-.49,1-1.23,1Z"/><path d="M68,24.31c-.74,0-1.48,0-2.22,0a1,1,0,1,1,0-2.08h4.5a1,1,0,1,1,0,2.08C69.45,24.32,68.71,24.31,68,24.31Z"/><path d="M68,26.37c.74,0,1.48,0,2.22,0a1,1,0,1,1,0,2.07q-2.25,0-4.5,0a1,1,0,0,1-1.12-1.05c0-.61.41-1,1.13-1S67.22,26.37,68,26.37Z"/><path d="M54.59,24.31c-.74,0-1.48,0-2.22,0a1,1,0,1,1,0-2.08h4.5A1,1,0,0,1,58,23.29a1,1,0,0,1-1.08,1C56.11,24.32,55.35,24.31,54.59,24.31Z"/><path d="M54.66,26.37c.72,0,1.44,0,2.15,0s1.13.39,1.14,1a1,1,0,0,1-1.11,1.06c-1.49,0-3,0-4.49,0a1,1,0,0,1-1.1-1.06c0-.62.4-1,1.13-1S53.9,26.37,54.66,26.37Z"/><path d="M18.9,17a1,1,0,1,1-2,0,1,1,0,0,1,1.06-1A1,1,0,0,1,18.9,17Z"/><path d="M23,17a1,1,0,1,1-2-.07A1,1,0,0,1,23,17Z"/></svg>