<svg id="Layer_1" data-name="Layer 1" xmlns="http://www.w3.org/2000/svg" viewBox="0 0 85.04 85.04"><path d="M21.61,32.08c0-.93,0-1.75,0-2.57a5.68,5.68,0,0,1,5.88-5.87c5.12,0,10.23,0,15.34,0,5.72,0,11.44,0,17.15,0a5.61,5.61,0,0,1,5.65,4,7.42,7.42,0,0,1,.26,2.1c0,3.33,0,6.65,0,10v.87h2.17a2.85,2.85,0,0,1,3.09,3.09q0,7.45,0,14.89a2.9,2.9,0,0,1-3.06,3.1q-3.22,0-6.47,0a3,3,0,0,1-3.11-3.14c0-1.51,0-3,0-4.54v-.71c-.22,0-.37-.05-.51-.05H50.66L51.24,56c.21,1,.44,2,.63,3,.07.38.21.56.64.53s1,0,1.55,0c.79,0,1.29.41,1.3,1s-.49,1.09-1.33,1.09H33.58c-.86,0-1.32-.32-1.38-.94a1.06,1.06,0,0,1,1.13-1.19c.37,0,.74,0,1.1,0h1.1l1.35-6.27h-4.7c0,1.28,0,2.52,0,3.77a4.34,4.34,0,0,1-2.41,4,5.65,5.65,0,0,1-2.35.57c-3.86,0-7.73,0-11.59,0a4.54,4.54,0,0,1-4.72-4.79V36.77a4.42,4.42,0,0,1,4.3-4.64c1.78-.1,3.58,0,5.37-.05ZM63.8,40.55v-11A3.49,3.49,0,0,0,60,25.78c-3.36,0-6.73,0-10.09,0q-11.26,0-22.52,0a3.27,3.27,0,0,0-3.52,2.6,21.67,21.67,0,0,0,0,3.7c1.14,0,2.3,0,3.47,0A4.58,4.58,0,0,1,32.18,37v9H58.52c0-.79,0-1.54,0-2.29a2.91,2.91,0,0,1,3.14-3.15ZM30.05,46.89c0-3.32,0-6.64,0-10a2.43,2.43,0,0,0-2.71-2.72H15.89a2.48,2.48,0,0,0-2.72,2.73c0,6.6,0,13.2,0,19.81a2.62,2.62,0,0,0,2.78,2.76c3.75-.06,7.51-.07,11.26,0a2.64,2.64,0,0,0,2.88-2.92C30,53.37,30.05,50.13,30.05,46.89Zm30.6,8.36h8.44c0-3.93,0-7.81,0-11.69,0-.66-.33-.93-1-.93H61.83c-1,0-1.17.2-1.18,1.17V55.25Zm-2.17-7H32.22V51H58.48ZM37.72,59.45H49.83l-1.34-6.26H39.43c-.39,0-.44.23-.5.52l-.63,2.9C38.1,57.53,37.92,58.47,37.72,59.45Zm22.94-2c0,.46,0,.87,0,1.27a.73.73,0,0,0,.8.81h6.78a.77.77,0,0,0,.84-.79c0-.42,0-.84,0-1.29Z"/><path d="M21.66,55.32c.37,0,.73,0,1.1,0a1,1,0,0,1,1,1,1,1,0,0,1-.95,1c-.78,0-1.55,0-2.33,0a1,1,0,0,1,.05-2.06h1.16Z"/><path d="M64.86,45.78c-.37,0-.74,0-1.1,0a1,1,0,0,1-.1-2.06,19.06,19.06,0,0,1,2.39,0,1,1,0,0,1-.1,2.06C65.59,45.8,65.22,45.78,64.86,45.78Z"/></svg>