<svg id="Layer_1" data-name="Layer 1" xmlns="http://www.w3.org/2000/svg" viewBox="0 0 85.04 85.04"><path d="M45.08,27c-2.14,0-4.18-.06-6.22,0s-2.83-.71-2.7-2.71c0-.67,0-1.34,0-2A1.68,1.68,0,0,1,38,20.46a1.49,1.49,0,0,0,1.74-1.12A11.05,11.05,0,0,1,46.2,13.4a24.72,24.72,0,0,1,3.18-.94c.89-.22,1.39.21,1.41,1.15,0,.75,0,1.5,0,2.25a.81.81,0,0,0,.65.89,3.6,3.6,0,0,0,1.08.14c1.07-.08,1.31-.37,1.32-1.44,0-.67,0-1.34,0-2a1,1,0,0,1,1.2-1c3.83.69,7.07,2.38,9.23,5.75A10.22,10.22,0,0,1,65.16,20c.11.3.24.42.56.4s.64,0,1,0a1.69,1.69,0,0,1,1.76,1.69c0,1,0,2.07,0,3.1A1.74,1.74,0,0,1,66.53,27h-7v.85q0,18.7,0,37.42a2.27,2.27,0,0,1-.82,1.85c-1.85,1.66-3.66,3.37-5.48,5.07-.79.73-1.14.73-1.91,0-1.87-1.74-3.72-3.48-5.61-5.2a2,2,0,0,1-.69-1.59q0-18.73,0-37.48Zm-6.89-2H66.44V22.42H38.19ZM56,14.67a13.07,13.07,0,0,1-.73,2.85,2.85,2.85,0,0,1-2.53,1.32,4.15,4.15,0,0,1-2.93-.73c-1.22-.88-1-2.21-1.06-3.52-3.28.95-5.93,2.56-7.37,5.8H63.15C62.37,17.86,59.17,15.34,56,14.67Zm-9,47.93,10.46-2.84V54l-.09,0q-5.05,1.35-10.1,2.72a.48.48,0,0,0-.26.38C47.07,58.87,47.07,60.69,47.07,62.6Zm0-23.78L57.51,36V30.15a1.85,1.85,0,0,0-.29,0l-8.87,2.41c-1.28.35-1.28.36-1.28,1.68Zm0,7.85a1.12,1.12,0,0,0,.26,0c3.27-.89,6.53-1.78,9.81-2.65.37-.1.39-.32.39-.62,0-1.5,0-3,0-4.49V38L47.1,40.86Zm0,7.91a1.7,1.7,0,0,0,.32,0c3.27-.89,6.54-1.77,9.8-2.68a.65.65,0,0,0,.32-.52c0-1,0-2.06,0-3.1V46L47.1,48.78Zm10.45,7.27a3.47,3.47,0,0,0-.48.09c-3.11.84-6.23,1.67-9.34,2.53-.24.06-.56.21-.63.4a.85.85,0,0,0,.31,1c1.52,1.37,3,2.78,4.5,4.17.13.12.28.22.43.35,1.7-1.58,3.36-3.12,5-4.67a.58.58,0,0,0,.19-.35C57.56,64.18,57.55,63,57.55,61.85Zm-10.45-31,10.42-2.82V27H47.1Z"/><path d="M40.54,52.41c0,2.15,0,4.3,0,6.44a.77.77,0,0,1-.45.76C36.39,61.74,32.67,63.88,29,66a.78.78,0,0,1-.92,0Q22.52,62.8,17,59.62a.84.84,0,0,1-.5-.85q0-6.37,0-12.75a.85.85,0,0,1,.49-.86c3.7-2.11,7.39-4.25,11.08-6.39a.83.83,0,0,1,1,0c3.65,2.12,7.3,4.24,11,6.33a1,1,0,0,1,.56,1C40.52,48.2,40.54,50.31,40.54,52.41Zm-2,0c0-1.78,0-3.56,0-5.35a.88.88,0,0,0-.34-.66q-4.65-2.73-9.35-5.4a.86.86,0,0,0-.75,0c-3.08,1.75-6.13,3.53-9.2,5.28a.79.79,0,0,0-.47.81q0,5.3,0,10.57a.77.77,0,0,0,.43.77C22,60.22,25.05,62,28.15,63.77a.89.89,0,0,0,.75,0C32,62,35.1,60.21,38.21,58.42a.64.64,0,0,0,.38-.66C38.57,56,38.58,54.19,38.58,52.41Z"/><path d="M28.53,59.33a6.95,6.95,0,1,1,7-6.93A6.94,6.94,0,0,1,28.53,59.33Zm5-7a5,5,0,0,0-5-5,5,5,0,1,0,5,5Z"/></svg>