<svg id="Layer_1" data-name="Layer 1" xmlns="http://www.w3.org/2000/svg" viewBox="0 0 85.04 85.04"><path d="M35.22,68.89c-.81-.53-.7-1.29-.53-2.06a5.12,5.12,0,0,1,5-4V57.71a14,14,0,0,1-10.78-12,13.36,13.36,0,0,1-.1-1.41c0-.78.36-1.24,1-1.25s1,.43,1,1.18a11.74,11.74,0,0,0,1.92,6.27A11.4,11.4,0,0,0,41,55.85c5.25.63,9.27-1.42,12-5.91a11.67,11.67,0,0,0,1.57-5.77,1,1,0,1,1,2,0,12.91,12.91,0,0,1-1.37,5.93,13.77,13.77,0,0,1-9.14,7.49l-.39.12V62.8a5.13,5.13,0,0,1,2.63.76,5,5,0,0,1,2.45,4.21,1.29,1.29,0,0,1-.64,1.12Zm13.31-2a2.91,2.91,0,0,0-2.87-2c-2,0-4,0-5.95,0a3.76,3.76,0,0,0-1.4.32,2.73,2.73,0,0,0-1.5,1.68ZM41.8,58v4.75h1.78V58Z"/><path d="M68.54,40.81l-.25.3a1,1,0,0,1-1.06.29,1,1,0,0,1-.7-.84,2,2,0,0,1,0-.35V23.88A1.14,1.14,0,0,1,67,22.82c.56-.38,1.07-.22,1.58.52Z"/><path d="M33.2,35.41c0-2.88,0-5.75,0-8.63a9.49,9.49,0,0,1,18.88-1.43,14.13,14.13,0,0,1,.1,1.45V44A9.49,9.49,0,0,1,33.3,45.45a12.32,12.32,0,0,1-.1-1.61C33.19,41,33.2,38.22,33.2,35.41Zm2-.45H50.15c0-.12,0-.2,0-.29,0-2.65,0-5.31,0-8A6.79,6.79,0,0,0,50,25.35a7.46,7.46,0,0,0-8.54-6,7.38,7.38,0,0,0-6.16,6.44c-.14,1.51-.09,3.05-.1,4.58S35.22,33.39,35.22,35Zm0,2.12c0,.61,0,1.16,0,1.71,0,2.09-.07,4.18.11,6.25a7.41,7.41,0,0,0,9,6.34A7.5,7.5,0,0,0,50.16,44c0-2.16,0-4.31,0-6.46,0-.13,0-.26,0-.41Z"/><path d="M16.84,32V23.8a1.05,1.05,0,0,1,.74-1.13,1,1,0,0,1,1.26.83,2.68,2.68,0,0,1,0,.4V40.21c0,.75-.32,1.17-.91,1.22a1,1,0,0,1-1.11-1.07c0-1.48,0-3,0-4.45Z"/><path d="M26.94,33.43q0,3.39,0,6.76A1,1,0,0,1,25,40.6a1.66,1.66,0,0,1-.07-.55V26.79c0-.72.4-1.2,1-1.21s1,.48,1,1.2Q26.95,30.1,26.94,33.43Z"/><path d="M20.88,32.53c0-1.62,0-3.23,0-4.85a1,1,0,0,1,1.93-.45,1.64,1.64,0,0,1,.08.54q0,4.79,0,9.55c0,.73-.41,1.18-1,1.17a1,1,0,0,1-1-1.16Z"/><path d="M64.5,32.58v4.7c0,.75-.37,1.19-1,1.21s-1-.44-1-1.22V27.82c0-.73.39-1.2,1-1.22s1,.48,1,1.23Z"/><path d="M58.44,31.25V26.67a1,1,0,0,1,.88-1.07,1,1,0,0,1,1.07.66,1.57,1.57,0,0,1,.07.49v9.08a1,1,0,1,1-2,0Z"/><path d="M31,32.55c0,.78,0,1.55,0,2.32a1,1,0,1,1-2,0q0-2.34,0-4.68a1,1,0,1,1,2,0C31,31,31,31.78,31,32.55Z"/><path d="M56.42,32.58c0,.75,0,1.51,0,2.26a1,1,0,0,1-1,1.12,1,1,0,0,1-1-1.09c0-1.55,0-3.09,0-4.64a1,1,0,0,1,1-1.1,1,1,0,0,1,1,1.13C56.43,31,56.42,31.81,56.42,32.58Z"/><path d="M60.46,40.27a1,1,0,1,1-1-1A1,1,0,0,1,60.46,40.27Z"/><path d="M42.67,26.67H40.35a1,1,0,0,1-1.12-1,1,1,0,0,1,1.14-1H45c.71,0,1.14.39,1.15,1s-.43,1-1.17,1Z"/><path d="M42.71,28.4c.79,0,1.58,0,2.37,0a1,1,0,0,1,1,.73.92.92,0,0,1-.42,1.13,1.23,1.23,0,0,1-.62.17H40.32a.91.91,0,0,1-1-.62,1.07,1.07,0,0,1,1.12-1.42c.75-.05,1.51,0,2.26,0Z"/><path d="M47.94,44.34a5.35,5.35,0,0,1-5.15,5,1,1,0,0,1-1.1-.9,1,1,0,0,1,.9-1.12c.34-.08.71-.08,1-.19a3.06,3.06,0,0,0,2.23-2.59c0-.17,0-.34.07-.5a1,1,0,0,1,1.07-1,1,1,0,0,1,.95,1Z"/><path d="M46.93,39.6a1,1,0,1,1-1,1A1,1,0,0,1,46.93,39.6Z"/></svg>