<svg id="Layer_1" data-name="Layer 1" xmlns="http://www.w3.org/2000/svg" viewBox="0 0 85.04 85.04"><path d="M76,47.16c-.31.46-.69.81-1.3.59S74,47,74,46.48q0-9.65,0-19.28v-.82H11.29V72.82c0,.91,0,.91.91.91H73.12c.93,0,.93,0,.93-1q0-10.12,0-20.24c0-.56.06-1.07.66-1.27a1,1,0,0,1,1.3.59V74a3,3,0,0,1-1.69,1.69H11A2.74,2.74,0,0,1,9.32,72.8q0-26,0-52.08c0-.22-.07-.48,0-.64A1.77,1.77,0,0,1,10,19.3c.67-.29,1.26.2,1.27,1,0,1.34,0,2.68,0,4H55.78V11H15.39c-1.15,0-2.3,0-3.45,0-.48,0-.66.18-.65.65,0,1.09,0,2.17,0,3.26,0,.71-.38,1.13-1,1.12s-1-.42-1-1.14c0-1.06.07-2.13,0-3.18A2.48,2.48,0,0,1,12,9Q42.57,9,73.12,9A2.73,2.73,0,0,1,76,10.7Zm-2-22.8V11.87c0-.91,0-.91-.9-.91H57.83v13.4Z"/><path d="M65.22,65.13c-.73,0-1.36,0-2,0a1,1,0,0,1-1.08-1c0-1.23,0-2.47,0-3.71,0-.69.37-1,1.08-1h2V32.15c0-1.11.31-1.59,1-1.6s1,.48,1,1.57V59.36H69c1,0,1.29.31,1.29,1.28s0,2.21,0,3.31c0,.85-.35,1.17-1.19,1.18l-1.69,0s-.07,0-.18.08v2.1c0,.45,0,.91,0,1.37a1,1,0,0,1-1,1.07,1,1,0,0,1-1-1.13C65.2,67.5,65.22,66.35,65.22,65.13Zm-1-2h4.11V61.39H64.17Z"/><path d="M20.13,59.36H22c.82,0,1.17.34,1.18,1.14,0,1.17,0,2.34,0,3.51,0,.8-.39,1.11-1.2,1.12H20.31s-.08,0-.18.08c0,1,0,2.13,0,3.2a2,2,0,0,1-.1.7.9.9,0,0,1-1,.63.93.93,0,0,1-.87-1c0-.89,0-1.78,0-2.67v-1H16.26c-.86,0-1.2-.32-1.21-1.15,0-1.17,0-2.35,0-3.52,0-.74.33-1.07,1.07-1.09s1.25,0,1.95,0c0-.32,0-.59,0-.87V32.21a4.59,4.59,0,0,1,.07-.91.8.8,0,0,1,.92-.72,1.71,1.71,0,0,1,.92.66,1.67,1.67,0,0,1,.1.88q0,13.18,0,26.36Zm-3.06,2v1.75h4.1V61.37Z"/><path d="M39,64h1.91c.8,0,1.16.36,1.16,1.14q0,1.75,0,3.51c0,.76-.34,1.15-1.1,1.15-2,0-3.94,0-5.92,0a1,1,0,0,1-1.13-1.15c0-1.17,0-2.34,0-3.51A1.06,1.06,0,0,1,35.05,64c.59,0,1.17,0,1.76,0l.15-.07v-.77q0-15.52,0-31,0-1.53,1-1.53c.67,0,1,.49,1,1.52V64Zm-3,2v1.73H40V66Z"/><path d="M27.56,54.83c-.69,0-1.3,0-1.9,0-.82,0-1.2-.39-1.21-1.19q0-1.72,0-3.45A1,1,0,0,1,25.61,49c.63,0,1.25,0,1.95,0v-17a4.66,4.66,0,0,1,0-.65.88.88,0,0,1,.91-.84.91.91,0,0,1,1,.81,3.51,3.51,0,0,1,0,.65V49h1.85c.89,0,1.26.39,1.26,1.28,0,1.11,0,2.22,0,3.32a1.07,1.07,0,0,1-1.19,1.22c-.61,0-1.21,0-1.92,0V68.62a1,1,0,0,1-1,1.16c-.58,0-1-.44-1-1.13V54.83Zm-1.11-2h4.14v-1.7H26.45Z"/><path d="M55.82,48.57c-.68,0-1.28,0-1.89,0a1.08,1.08,0,0,1-1.22-1.25c0-1.11,0-2.21,0-3.32,0-.86.37-1.23,1.22-1.24h1.69a1.19,1.19,0,0,0,.2-.07V31.59a1,1,0,0,1,1-1,1,1,0,0,1,1,1c0,.54,0,1.08,0,1.63v9.55h1.87c.86,0,1.23.37,1.24,1.22,0,1.13,0,2.26,0,3.38,0,.81-.38,1.18-1.2,1.21-.3,0-.6,0-.91,0h-1V68.23c0,.22,0,.44,0,.65a.91.91,0,0,1-1,.88.92.92,0,0,1-1-.85,3.85,3.85,0,0,1,0-.59V48.57Zm3.06-3.78H54.74v1.72h4.14Z"/><path d="M46.39,40.06H44.57c-.94,0-1.25-.34-1.26-1.25,0-1.13,0-2.26,0-3.39,0-.8.34-1.14,1.14-1.15h1.93V32.45c0-.31,0-.61,0-.91a1,1,0,0,1,1-1,1,1,0,0,1,1,1c0,.69,0,1.39,0,2.08v.63h1.93a1,1,0,0,1,1.15,1.11c0,1.19,0,2.38,0,3.58,0,.72-.37,1.06-1.1,1.09s-1.29,0-2,0V68.58c0,.72-.43,1.2-1,1.19s-.94-.44-1-1.14c0-.22,0-.44,0-.65V40.06Zm3-3.78H45.32V38h4.11Z"/><path d="M28.41,19.68a3.39,3.39,0,1,1,.11-6.77,3.39,3.39,0,0,1-.11,6.77Zm1.39-3.35a1.39,1.39,0,1,0-2.78,0,1.39,1.39,0,1,0,2.78,0Z"/><path d="M46.8,19.68a3.3,3.3,0,0,1-3.4-3.41,3.31,3.31,0,0,1,3.45-3.36,3.39,3.39,0,0,1-.05,6.77Zm1.36-3.36a1.39,1.39,0,1,0-2.78,0,1.42,1.42,0,0,0,1.39,1.41A1.41,1.41,0,0,0,48.16,16.32Z"/><path d="M22.62,16.32a3.37,3.37,0,0,1-3.39,3.36,3.39,3.39,0,1,1,0-6.77A3.36,3.36,0,0,1,22.62,16.32Zm-3.39-1.44a1.46,1.46,0,0,0-1.42,1.41,1.43,1.43,0,1,0,2.85,0A1.46,1.46,0,0,0,19.23,14.88Z"/><path d="M37.65,12.91a3.39,3.39,0,0,1,0,6.77,3.39,3.39,0,1,1,0-6.77Zm0,4.81A1.47,1.47,0,0,0,39,16.29a1.42,1.42,0,1,0-2.84.05A1.48,1.48,0,0,0,37.62,17.72Z"/><path d="M29.39,21.72a1,1,0,0,1-1.95,0,1,1,0,1,1,1.95,0Z"/><path d="M47.75,21.74a.93.93,0,0,1-1,1,.92.92,0,0,1-1-1,1,1,0,0,1,1-1A1,1,0,0,1,47.75,21.74Z"/><path d="M36.6,21.72a1,1,0,0,1,2,0,1,1,0,0,1-2,0Z"/><path d="M19.24,20.74a1,1,0,0,1,1,1,1,1,0,0,1-2,0A1,1,0,0,1,19.24,20.74Z"/><path d="M70,18.64a1,1,0,1,1,0-1.95.91.91,0,0,1,1,1A.93.93,0,0,1,70,18.64Z"/><path d="M62.83,21.74a1,1,0,0,1-1,1,.92.92,0,0,1-.95-1,1,1,0,0,1,1-1A1,1,0,0,1,62.83,21.74Z"/><path d="M66.88,13.6a1,1,0,0,1-1,1,1,1,0,0,1-1-1,.94.94,0,0,1,1-1A.93.93,0,0,1,66.88,13.6Z"/><path d="M62.83,13.58a1,1,0,0,1-1,1,1,1,0,0,1-1-1,.92.92,0,0,1,.95-1A1,1,0,0,1,62.83,13.58Z"/><path d="M70,20.74a1,1,0,0,1,.93,1,.91.91,0,0,1-1,.94,1,1,0,0,1-1-1A1,1,0,0,1,70,20.74Z"/><path d="M66.88,21.76a.92.92,0,0,1-1,.94.94.94,0,0,1-.94-1,1,1,0,0,1,1-1A1,1,0,0,1,66.88,21.76Z"/><path d="M65.94,16.69a.93.93,0,0,1,.94,1,1,1,0,1,1-.94-1Z"/><path d="M62.84,17.65a1,1,0,0,1-1,1,1,1,0,0,1,0-1.95A1,1,0,0,1,62.84,17.65Z"/><path d="M70,14.59a1,1,0,0,1-1-1,1,1,0,0,1,1-1,.92.92,0,0,1,1,1A1,1,0,0,1,70,14.59Z"/></svg>