<svg id="Layer_1" data-name="Layer 1" xmlns="http://www.w3.org/2000/svg" viewBox="0 0 85.04 85.04"><path d="M33.76,55.52a4.07,4.07,0,0,1-.75-.46c-.83-.8-1.63-1.62-2.45-2.43a1,1,0,0,1-.23-1.34,3,3,0,0,0,.06-3.17,2.8,2.8,0,0,0-1.88-1.82c-1-.29-1.06-.46-1.06-1.52s0-2.05,0-3.08a1.09,1.09,0,0,1,.88-1.23,2.93,2.93,0,0,0,2.14-2,2.87,2.87,0,0,0-.09-2.89A1.15,1.15,0,0,1,30.64,34c.78-.75,1.55-1.52,2.3-2.3a1.11,1.11,0,0,1,1.5-.26,2.91,2.91,0,0,0,3,.06,2.83,2.83,0,0,0,1.92-2c.23-.82.5-1,1.35-1,1.07,0,2.13,0,3.2,0a1.11,1.11,0,0,1,1.25.86,3,3,0,0,0,2.07,2.18A2.91,2.91,0,0,0,50,31.5c.77-.43,1.06-.33,1.69.3L54,34.06a1.06,1.06,0,0,1,.26,1.39,3,3,0,0,0-.07,3.12,2.84,2.84,0,0,0,1.92,1.85c.94.27,1,.49,1,1.48s0,2.09,0,3.14a1.06,1.06,0,0,1-.84,1.19,2.94,2.94,0,0,0-2.19,2.07,2.85,2.85,0,0,0,.09,2.83,1.17,1.17,0,0,1-.27,1.6c-.77.74-1.52,1.5-2.26,2.27a1.1,1.1,0,0,1-1.49.28,3,3,0,0,0-3.06-.05,2.82,2.82,0,0,0-1.88,2c-.24.86-.5,1-1.39,1H40.6a1,1,0,0,1-1.19-.84,3,3,0,0,0-2.12-2.21,2.74,2.74,0,0,0-2.72.07A4.59,4.59,0,0,1,33.76,55.52Zm9.7.66c.16-.41.33-.78.44-1.17a1.64,1.64,0,0,1,1.31-1.22,8,8,0,0,0,2.16-.87,2,2,0,0,1,2.17-.1c1,.49,1,.44,1.73-.3.91-.92.94-.93.39-2.08a1.77,1.77,0,0,1,.06-1.79,9.68,9.68,0,0,0,1-2.25,1.88,1.88,0,0,1,1.38-1.46c1.06-.35,1.05-.39,1.05-1.53s0-1.26-1.18-1.68a1.7,1.7,0,0,1-1.21-1.31,8.09,8.09,0,0,0-.87-2.15,2,2,0,0,1-.1-2.18c.49-1,.45-1-.31-1.73s-.92-.93-2.07-.38a1.84,1.84,0,0,1-1.84-.1,9.41,9.41,0,0,0-2.2-.92,1.89,1.89,0,0,1-1.47-1.38c-.34-1.06-.38-1-1.52-1s-1.26,0-1.68,1.18a1.7,1.7,0,0,1-1.31,1.21,7.41,7.41,0,0,0-2.1.85,2,2,0,0,1-2.33.06c-.63-.42-1.06-.28-1.55.27-1,1-1,1-.43,2.35a2,2,0,0,1,0,1.27,31.06,31.06,0,0,1-1.26,3.05c-.14.31-.42.72-.7.77-1.43.26-1.78,1.15-1.55,2.44a3.49,3.49,0,0,1,0,.56c.41.16.79.33,1.18.45a1.63,1.63,0,0,1,1.21,1.31,7.33,7.33,0,0,0,.84,2.09,1.94,1.94,0,0,1,.06,2.34c-.42.63-.27,1.05.28,1.55,1,.95,1,1,2.35.42a2,2,0,0,1,1.27,0c1,.36,2,.8,3,1.26.31.14.71.42.77.7.26,1.44,1.14,1.79,2.44,1.56A3.3,3.3,0,0,1,43.46,56.18Z"/><path d="M62,64.63l-5.13-5.14q-9.33,7.92-21.25,4.58a3.51,3.51,0,0,1,.24.47.92.92,0,0,1-.34,1.19.85.85,0,0,1-1.23-.1c-.87-1.16-1.72-2.35-2.51-3.57a.91.91,0,0,1,.64-1.3c1.19-.31,2.38-.59,3.59-.83a.88.88,0,0,1,1.06.63,1,1,0,0,1-.44,1.22c-.18.09-.37.15-.61.25a18.92,18.92,0,0,0,6.71,1,19.79,19.79,0,0,0,12.15-4.54c.39-.33.77-.68,1.14-1,.71-.65,1.15-.64,1.84.05L63,62.67a2.91,2.91,0,0,1,.35.51C67,61.44,70,62,71.79,64.63a5.93,5.93,0,1,1-9.8,0ZM70.86,68a3.94,3.94,0,1,0-3.9,4A4,4,0,0,0,70.86,68Z"/><path d="M49,22.69a5.79,5.79,0,0,1-.28-.55A.9.9,0,0,1,49.07,21a.85.85,0,0,1,1.22.13c.85,1.13,1.67,2.29,2.45,3.47a.91.91,0,0,1-.58,1.37c-1.2.32-2.42.61-3.64.85a.89.89,0,0,1-1.05-.67,1,1,0,0,1,.49-1.2,1.28,1.28,0,0,0,.53-.36c-1.33-.26-2.65-.63-4-.77a19.54,19.54,0,0,0-14.74,4.36c-.45.36-.86.76-1.29,1.15a1,1,0,0,1-1.7,0l-5.45-5.44-.26-.25a5.93,5.93,0,0,1-5.38.73,5.8,5.8,0,0,1-3.13-2.55,5.93,5.93,0,0,1,8.77-7.68,6,6,0,0,1,1.24,8l5.18,5.19a21.63,21.63,0,0,1,10-5.07A21.94,21.94,0,0,1,49,22.69Zm-27.39-4a3.94,3.94,0,1,0-3.91,3.93A4,4,0,0,0,21.57,18.72Z"/><path d="M21.57,36.69c-.17.09-.28.17-.4.22a1,1,0,0,1-1.3-.36.94.94,0,0,1,.25-1.31c1.08-.79,2.16-1.57,3.27-2.31a1,1,0,0,1,1.48.55c.32,1.19.58,2.39.84,3.59a1,1,0,0,1-1.88.58c-.08-.16-.13-.33-.23-.59a19.09,19.09,0,0,0-1,7,19.66,19.66,0,0,0,4.49,11.86c.34.41.71.8,1.07,1.19.66.72.67,1.16,0,1.84l-5.19,5.19-.45.47a5.92,5.92,0,0,1,.8,5.16A5.72,5.72,0,0,1,20.86,73a5.92,5.92,0,0,1-7.93-8.56A6,6,0,0,1,21,63.09l5.12-5.17C20.89,51.73,19.35,44.65,21.57,36.69ZM13.69,68a3.94,3.94,0,1,0,4-3.92A4,4,0,0,0,13.69,68Z"/><path d="M63,50c.32-.1.63-.31.85-.25a1.43,1.43,0,0,1,.88.63,1.14,1.14,0,0,1-.21,1c-1.11.87-2.28,1.68-3.46,2.46a.91.91,0,0,1-1.37-.59c-.32-1.2-.6-2.42-.84-3.65a.87.87,0,0,1,.67-1,.93.93,0,0,1,1.17.44,5.11,5.11,0,0,1,.26.65,19.37,19.37,0,0,0,1-7.39A19.73,19.73,0,0,0,56.29,29.5c-.54-.56-.5-1.07.09-1.66l5.22-5.23.46-.47a5.93,5.93,0,0,1-.77-5.27,5.71,5.71,0,0,1,2.49-3.18,5.93,5.93,0,0,1,7.81,8.67,6,6,0,0,1-8.13,1.21c-.84.84-1.68,1.7-2.54,2.55L58.34,28.7A22,22,0,0,1,63,50Zm0-31.29a3.94,3.94,0,1,0,4-3.9A4,4,0,0,0,63,18.67Z"/><path d="M42.28,35.84a7.52,7.52,0,1,1-7.52,7.49A7.51,7.51,0,0,1,42.28,35.84Zm5.53,7.49a5.54,5.54,0,1,0-5.5,5.57A5.59,5.59,0,0,0,47.81,43.33Z"/></svg>