<svg id="Layer_1" data-name="Layer 1" xmlns="http://www.w3.org/2000/svg" viewBox="0 0 85.04 85.04"><path d="M42.09,58.92H13.6a1.87,1.87,0,0,1-.86-.06,2.47,2.47,0,0,1-.75-.79c-.09-.12,0-.36,0-.55V29.22c0-1.1.25-1.37,1.34-1.37q28.77,0,57.55,0c1.1,0,1.35.26,1.35,1.36v28.3c0,1.17-.24,1.41-1.44,1.41ZM13.87,57H70.29V29.81H13.87Z"/><path d="M42.09,34.89h21.5c1.14,0,1.4.26,1.4,1.39,0,1.45,0,2.91,0,4.37a1.45,1.45,0,0,1-.53,1.13C63.23,43,62,44.16,60.83,45.39a1,1,0,0,0-.22.66c0,1.55,0,3.09,0,4.63,0,.87-.33,1.19-1.21,1.19H24.77c-.87,0-1.19-.32-1.19-1.22,0-1.27,0-2.54,0-3.81a1.72,1.72,0,0,0-.37-1c-1.19-1.42-2.44-2.79-3.64-4.2a1.54,1.54,0,0,1-.37-.88c0-1.54,0-3.08,0-4.62,0-1,.31-1.25,1.28-1.25ZM23.45,43.2l.13-.07v-.5c0-1.24.24-1.47,1.5-1.47l11.44,0H55.19l4.19,0c.89,0,1.2.33,1.22,1.2,0,.17,0,.34,0,.63.82-.83,1.56-1.56,2.28-2.31a.5.5,0,0,0,.15-.32c0-1.16,0-2.32,0-3.52h-42v3.52a.46.46,0,0,0,.11.28Zm2,6.72H58.68V43.16H56.21c0,1,0,1.88,0,2.79s-.31,1.19-1.2,1.2H51.89c-1.07,0-1.33-.27-1.33-1.32,0-.89,0-1.78,0-2.68H48.7c0,.93,0,1.82,0,2.71s-.3,1.28-1.25,1.29h-3c-1.2,0-1.45-.26-1.45-1.47V43.15H41.18v2.64c0,1.05-.3,1.35-1.32,1.36H36.74c-1,0-1.26-.32-1.26-1.28s0-1.82,0-2.71H33.62c0,1,0,1.91,0,2.85s-.32,1.13-1.13,1.14H29.12c-.85,0-1.15-.33-1.15-1.19s0-1.86,0-2.81H25.49Zm4.39-4.69h1.81V43.16H29.88ZM54.3,43.14H52.51v2.08H54.3Zm-15.11,2.1V43.16H37.45v2.08ZM45,43.15v2.08h1.74V43.15Z"/><path d="M16.67,33a9.37,9.37,0,0,1-1.06,0,.93.93,0,0,1,0-1.85,15,15,0,0,1,2.12,0,.93.93,0,0,1,0,1.85A9.37,9.37,0,0,1,16.67,33Z"/><path d="M66.57,31.14c.32,0,.63,0,.94,0a1,1,0,0,1,.95,1,.93.93,0,0,1-.91.92c-.66,0-1.33,0-2,0a.89.89,0,0,1-.88-.94.92.92,0,0,1,.9-.93C65.91,31.12,66.24,31.14,66.57,31.14Z"/><path d="M16.67,53.26c.33,0,.67,0,1,0a1,1,0,0,1,.91.93.93.93,0,0,1-.89.94c-.67,0-1.33,0-2,0a.89.89,0,0,1-.9-.92.94.94,0,0,1,1-1Z"/><path d="M66.59,53.26c.34,0,.67,0,1,0a.91.91,0,0,1,.86,1,.87.87,0,0,1-.86.9c-.68,0-1.37,0-2,0a.93.93,0,0,1,0-1.86A9.37,9.37,0,0,1,66.59,53.26Z"/></svg>