<svg id="Layer_1" data-name="Layer 1" xmlns="http://www.w3.org/2000/svg" viewBox="0 0 85.04 85.04"><defs><style>.cls-1{fill:#1d1d1b;}</style></defs><path class="cls-1" d="M55.11,12.64l0,0-.05,0,0,0H34.71l0,0c-.42.3-.83.69-.59,1.35s.79.7,1.3.7h6.24c3.93,0,8,0,12,0h0a3.54,3.54,0,0,1,2.54,1,3.49,3.49,0,0,1,1,2.5c-.05,7.81-.05,15.82,0,23.82a3.32,3.32,0,0,1-3.47,3.47h0c-8,0-16,0-23.77,0h0a3.47,3.47,0,0,1-2.53-1,3.37,3.37,0,0,1-.94-2.47c0-2.86,0-5.77,0-8.58,0-1.19,0-2.38,0-3.57V26.39q0-4.28,0-8.56a3.06,3.06,0,0,1,2.79-3.19,7.23,7.23,0,0,1,1.31,0,1.17,1.17,0,0,0,1.32-.7c.24-.66-.16-1.05-.59-1.35l0,0H28.64l0,0-.07,0-.1.06a5.17,5.17,0,0,0-4.1,5.17c0,9,0,17,0,24.31a5.18,5.18,0,0,0,5.4,5.29H53.87a5.4,5.4,0,0,0,1.05-.07,5.26,5.26,0,0,0,4.36-5.46q0-11.91,0-23.82A5.28,5.28,0,0,0,55.11,12.64Z"/><path class="cls-1" d="M54,58.35H52c0-.5,0-1,0-1.5,0-1.39,0-2.7,0-4a4.17,4.17,0,0,0-.56-1.93,2.75,2.75,0,0,0-3.19-1.1,2.94,2.94,0,0,0-2,2.86c0,1.18,0,2.39,0,3.55,0,.5,0,1,0,1.49v.64H37.4v-.56c0-.51,0-1,0-1.54,0-1.17,0-2.38,0-3.57a3.12,3.12,0,0,0-1.13-2.4,2.89,2.89,0,0,0-2.43-.52,2.92,2.92,0,0,0-2.22,3c0,1.31,0,2.63,0,4v1.69H29.67A1.56,1.56,0,0,0,28,60c0,.77,0,1.53,0,2.44a1.48,1.48,0,0,0,.9,1.48.45.45,0,0,1,.31.53c0,1,0,2.07,0,3.16A7.33,7.33,0,0,0,36.67,75h5.2l5.25,0a7.76,7.76,0,0,0,1.94-.27,7,7,0,0,0,4-2.83,1,1,0,0,0,0-1.32,1,1,0,0,0-1.25-.26,2.17,2.17,0,0,0-.59.58,5,5,0,0,1-4,2c-3.7,0-7.32,0-10.75,0a5,5,0,0,1-5-4.27,17.65,17.65,0,0,1-.08-3.18c0-.45,0-.91,0-1.36H52.29c0,.27,0,.55,0,.82,0,.73,0,1.42,0,2.12a1.27,1.27,0,0,0,.37.94,1,1,0,0,0,.81.24c.6-.07.94-.49,1-1.21s0-1.42,0-2.14v-.81a1.64,1.64,0,0,0,1.21-1.61c0-.74,0-1.62,0-2.5A1.55,1.55,0,0,0,54,58.35Zm-20.2-4.3c0-.5,0-1,0-1.5s.27-.77.74-.77a.78.78,0,0,1,.55.19.72.72,0,0,1,.2.54c0,1.42,0,2.83,0,4.26v1.55h-1.5Zm14.59,1.88c0-1.08,0-2.16,0-3.24a1,1,0,0,1,.22-.74.74.74,0,0,1,.55-.17c.49,0,.73.29.73.89,0,1.37,0,2.74,0,4.14v1.52H48.34Zm5.12,4.54V62H30.14v-1.5Z"/><path class="cls-1" d="M42.8,67.38H38.41c-.8,0-1.31.43-1.31,1.06s.53,1.07,1.31,1.07H45.2c.78,0,1.3-.43,1.31-1.06S46,67.39,45.2,67.38Z"/><path class="cls-1" d="M41.72,43.77h0A13.84,13.84,0,0,0,51.6,39.7a13.61,13.61,0,0,0,4-9.73,13.82,13.82,0,0,0-13.8-13.79h0a13.8,13.8,0,1,0-.1,27.59Zm.07-25.52h0A11.73,11.73,0,0,1,53.5,30,11.72,11.72,0,0,1,50,38.31a11.59,11.59,0,0,1-8.21,3.39h-.06a11.73,11.73,0,0,1,0-23.45Z"/><path class="cls-1" d="M32.45,32a2.91,2.91,0,0,0,2,.86h0A2.89,2.89,0,0,0,36.57,32a2.79,2.79,0,0,0,.83-2,2.87,2.87,0,0,0-2.83-2.83h0a2.93,2.93,0,0,0-2.07.84,2.82,2.82,0,0,0,0,4Zm2-2.78h0a.7.7,0,0,1,.5.21.8.8,0,0,1,.25.55.79.79,0,0,1-.74.8h0a.72.72,0,0,1-.5-.22.77.77,0,0,1-.25-.55A.78.78,0,0,1,34.5,29.2Z"/><path class="cls-1" d="M49.07,32.84h0A2.94,2.94,0,0,0,51.16,32,2.8,2.8,0,0,0,52,30a2.87,2.87,0,0,0-2.88-2.84h0A2.89,2.89,0,0,0,46.21,30,2.79,2.79,0,0,0,47,32,2.84,2.84,0,0,0,49.07,32.84Zm0-2.08h0a.72.72,0,0,1-.51-.22.8.8,0,0,1-.24-.56.77.77,0,0,1,.74-.78h0a.75.75,0,0,1,.51.21.84.84,0,0,1,.24.56A.81.81,0,0,1,49.1,30.76Z"/></svg>