<svg id="Layer_1" data-name="Layer 1" xmlns="http://www.w3.org/2000/svg" viewBox="0 0 85.04 85.04"><path d="M65.89,63.48a1.18,1.18,0,0,0-1.21-.57c-.64,0-1.27,0-1.9,0V24.57c.67,0,1.3,0,1.92,0A1.19,1.19,0,0,0,65.88,24a1.14,1.14,0,0,0-.17-1.27L62.8,18.09c-.68-1.09-1.44-1.1-2.12,0l-3.21,5.15v.69a1.44,1.44,0,0,0,1.39.67c.6,0,1.21,0,1.84,0V62.92c-.61,0-1.23,0-1.84,0a1.42,1.42,0,0,0-1.39.68v.68c1,1.66,2.06,3.32,3.11,5a11.42,11.42,0,0,0,.76,1h.8a6.73,6.73,0,0,0,.6-.72c1-1.57,2-3.15,2.95-4.72A1.19,1.19,0,0,0,65.89,63.48Zm-5.59-41,1.44-2.31,1.43,2.31Zm1.44,44.79L60.3,65h2.87C62.69,65.76,62.23,66.49,61.74,67.29Z"/><path d="M52.42,48.08c0-.13,0-.27,0-.41a1,1,0,0,0-1-1,1.07,1.07,0,0,0-1,.95,4.34,4.34,0,0,0,0,.51V64a3.26,3.26,0,0,1-3.44,3.44H24.8A3.27,3.27,0,0,1,21.35,64V22.16a3.28,3.28,0,0,1,3.53-3.51H46.81a3.28,3.28,0,0,1,3.52,3.52V38a4.34,4.34,0,0,0,0,.51,1.08,1.08,0,0,0,1.08,1,1,1,0,0,0,1-1c0-.17,0-.34,0-.52V30.17c0-2.85,0-5.7,0-8.54a5.21,5.21,0,0,0-5.25-5H24.53a5,5,0,0,0-2.61.72,5.39,5.39,0,0,0-2.67,5q0,20.79,0,41.59c0,.21,0,.41,0,.62a5.24,5.24,0,0,0,3.49,4.75,9.61,9.61,0,0,0,1.08.32h24l.93-.27A5.41,5.41,0,0,0,52.43,64C52.39,58.67,52.42,53.38,52.42,48.08Z"/><path d="M35.86,62.58a11.39,11.39,0,1,0-11.4-11.15A11.41,11.41,0,0,0,35.86,62.58Zm0-20.67a9.28,9.28,0,1,1-9.29,9.25A9.3,9.3,0,0,1,35.83,41.91Z"/><path d="M42.26,30a6.43,6.43,0,1,0-6.49,6.42A6.45,6.45,0,0,0,42.26,30ZM31.49,30a4.35,4.35,0,0,1,8.7,0,4.35,4.35,0,1,1-8.7,0Z"/><path d="M24.68,23.7c.25,0,.51,0,.77,0h0a6.46,6.46,0,0,0,.88,0,1,1,0,0,0,.92-1.06,1,1,0,0,0-1-1,14.23,14.23,0,0,0-1.6,0,1,1,0,0,0-1,1A1.08,1.08,0,0,0,24.68,23.7Z"/><path d="M47,21.62a13.36,13.36,0,0,0-1.55,0,1,1,0,0,0-1,1,1,1,0,0,0,1,1.07,6.59,6.59,0,0,0,.77,0c.26,0,.52,0,.78,0a1.07,1.07,0,0,0,1-1.05A1,1,0,0,0,47,21.62Z"/><path d="M24.62,64.51a7.69,7.69,0,0,0,.83,0h0c.28,0,.55,0,.83,0a1,1,0,0,0,1-1,1,1,0,0,0-.87-1.1,9.53,9.53,0,0,0-1.85,0,1,1,0,0,0-.87,1.06A1,1,0,0,0,24.62,64.51Z"/><path d="M45.41,64.52a13.36,13.36,0,0,0,1.55,0,1,1,0,0,0,1-1,1.08,1.08,0,0,0-1.08-1h-.72a7.66,7.66,0,0,0-.83,0,1,1,0,0,0-1,1.08A1,1,0,0,0,45.41,64.52Z"/><path d="M35.83,57A5.83,5.83,0,1,0,30,51.18,5.82,5.82,0,0,0,35.83,57Zm0-9.53a3.71,3.71,0,1,1-3.73,3.74A3.7,3.7,0,0,1,35.84,47.48Z"/></svg>