<svg id="Layer_1" data-name="Layer 1" xmlns="http://www.w3.org/2000/svg" viewBox="0 0 85.04 85.04"><defs><style>.cls-1{fill:#1d1d1b;}</style></defs><path class="cls-1" d="M63.36,15.72a5.21,5.21,0,0,0-5-3.08H27.63a5.5,5.5,0,0,0-5.87,5.88V32.37q0,16.62,0,33.25a5.57,5.57,0,0,0,4,5.65.49.49,0,0,1,.2.28c0,1,0,2,0,3v1.1h6.74V71.53H53.07v4.12h6.74V74.54c0-1,0-2,0-3a.54.54,0,0,1,.27-.3A5.44,5.44,0,0,0,64,65.86c0-15.31,0-31.59,0-47.59A6.13,6.13,0,0,0,63.36,15.72ZM61.43,35.56V47.92q0,8.88,0,17.76a2.92,2.92,0,0,1-1.64,3,4,4,0,0,1-1.63.34q-15.31,0-30.65,0h0a3,3,0,0,1-3.25-3.23q0-15.42,0-30.85,0-8.31,0-16.62a2.94,2.94,0,0,1,3.25-3.21H58.13a3.35,3.35,0,0,1,2.43.91,3.27,3.27,0,0,1,.89,2.39C61.42,24.11,61.42,29.93,61.43,35.56ZM28.51,73.15V71.52h1.57v1.63ZM57.2,71.52v1.65H55.65V71.52Z"/><path class="cls-1" d="M17.68,56.48h-.05l-.05,0-.15.08a2,2,0,0,0-.6.35c-.9.87-1.86,1.83-2.94,2.93a1.55,1.55,0,0,0-.47,1.06,1.19,1.19,0,0,0,.38.83,1.15,1.15,0,0,0,.81.34,1.54,1.54,0,0,0,1.07-.5q1.44-1.41,2.85-2.85a1.88,1.88,0,0,0,.36-.48,1.17,1.17,0,0,0-.05-1.13A1.4,1.4,0,0,0,17.68,56.48Z"/><path class="cls-1" d="M72.17,60.42a2.5,2.5,0,0,0-.4-.6c-.94-1-1.9-1.93-2.8-2.81a1.59,1.59,0,0,0-1.09-.52h0a1.19,1.19,0,0,0-.83.38c-.54.56-.47,1.26.19,1.93.9.91,1.81,1.81,2.72,2.71a2.5,2.5,0,0,0,.52.41,1.18,1.18,0,0,0,.55.14,1.14,1.14,0,0,0,.59-.16,1.43,1.43,0,0,0,.67-1.23v-.06l0,0A1,1,0,0,1,72.17,60.42Z"/><path class="cls-1" d="M16.76,43.81a1.69,1.69,0,0,0,.47.36,1.21,1.21,0,0,0,.55.14,1.2,1.2,0,0,0,.62-.18,1.34,1.34,0,0,0,.63-1.2v0l0-.05-.1-.16a2.66,2.66,0,0,0-.4-.61c-.94-1-1.9-1.92-2.8-2.81a1.54,1.54,0,0,0-1.1-.51,1.18,1.18,0,0,0-.83.39A1.28,1.28,0,0,0,14,41C14.88,42,15.82,42.88,16.76,43.81Z"/><path class="cls-1" d="M67.88,44.33a1.5,1.5,0,0,0,1.05-.49c.91-.9,1.89-1.87,2.84-2.85a2.88,2.88,0,0,0,.42-.63l.2-.35.07-.12-.09-.11-.24-.3a2.46,2.46,0,0,0-.57-.59,1.13,1.13,0,0,0-1.45.26c-1.19,1.17-2.09,2.08-2.94,2.94A1.24,1.24,0,0,0,67,44,1.2,1.2,0,0,0,67.88,44.33Z"/><path class="cls-1" d="M17.73,49.17c-1.34,0-2.7,0-4,0a1.24,1.24,0,0,0-1.3,1.24,1.28,1.28,0,0,0,1.36,1.25h3.93a1.31,1.31,0,0,0,1.37-1.25A1.27,1.27,0,0,0,17.73,49.17Z"/><path class="cls-1" d="M72,49.17c-1.34,0-2.7,0-4,0a1.26,1.26,0,0,0-1.3,1.25,1.3,1.3,0,0,0,1.38,1.24H72a1.28,1.28,0,0,0,1.35-1.26A1.24,1.24,0,0,0,72,49.17Z"/><path class="cls-1" d="M54.76,38.37a16.84,16.84,0,0,0-11.89-4.85h0a16.9,16.9,0,0,0,0,33.8h0A16.94,16.94,0,0,0,54.76,38.37ZM28.46,50.44A14.42,14.42,0,0,1,42.85,36h0A14.44,14.44,0,0,1,57.25,50.37,14.37,14.37,0,0,1,42.86,64.8h0A14.43,14.43,0,0,1,28.46,50.44Z"/><path class="cls-1" d="M42.84,31.83h0a7.56,7.56,0,0,0,7.5-7.54,7.51,7.51,0,0,0-7.5-7.49h0a7.52,7.52,0,0,0,0,15Zm-5-7.49a5,5,0,0,1,5-5.05h.08a4.82,4.82,0,0,1,3.41,1.42,5,5,0,0,1,1.53,3.58,5,5,0,0,1-5,5h0A5,5,0,0,1,37.86,24.34Z"/><rect class="cls-1" x="25.98" y="64.87" width="2.43" height="2.44"/><rect class="cls-1" x="57.29" y="64.86" width="2.46" height="2.41"/><rect class="cls-1" x="25.97" y="16.85" width="2.45" height="2.39"/><rect class="cls-1" x="57.29" y="16.83" width="2.46" height="2.4"/><path class="cls-1" d="M55.59,50.42a12.54,12.54,0,0,0-3.68-9,12.69,12.69,0,0,0-9-3.77h0a12.7,12.7,0,0,0-9.08,3.8,12.47,12.47,0,0,0-3.65,8.93A12.87,12.87,0,0,0,42.83,63.15h.07A12.77,12.77,0,0,0,55.59,50.42Zm-2.51,0A10.23,10.23,0,0,1,42.86,60.62h0a10.21,10.21,0,0,1-7.2-17.46,10.13,10.13,0,0,1,7.21-3h0A10.25,10.25,0,0,1,53.08,50.43Z"/><path class="cls-1" d="M42.85,27.64h0a3.38,3.38,0,0,0,3.33-3.29,3.29,3.29,0,0,0-1-2.34,3.4,3.4,0,0,0-2.37-1h0a3.32,3.32,0,0,0-2.33,1,3.43,3.43,0,0,0-1,2.35,3.38,3.38,0,0,0,3.34,3.34Zm-.58-3.91a.78.78,0,0,1,.58-.23h0a.8.8,0,0,1,.58.23.82.82,0,0,1,.23.57.79.79,0,0,1-.81.82h0a.78.78,0,0,1-.81-.81A.75.75,0,0,1,42.27,23.73Z"/><path class="cls-1" d="M42.84,45h0a5.3,5.3,0,0,0-3.75,1.56,5.45,5.45,0,0,0-1.62,3.84,5.5,5.5,0,0,0,5.42,5.43h0a5.52,5.52,0,0,0,3.87-1.66,5.19,5.19,0,0,0,1.52-3.76A5.39,5.39,0,0,0,42.84,45ZM40,50.39a2.88,2.88,0,0,1,2.91-2.89h0a2.85,2.85,0,0,1,2,.85,2.88,2.88,0,0,1,.83,2.08,2.92,2.92,0,0,1-.88,2.08,2.75,2.75,0,0,1-2,.82A2.9,2.9,0,0,1,40,50.39Z"/></svg>