<svg id="Layer_1" data-name="Layer 1" xmlns="http://www.w3.org/2000/svg" viewBox="0 0 85.04 85.04"><path d="M75.63,44.63a29.29,29.29,0,0,1-.81,3.26,26.1,26.1,0,0,1-1.58,3.34c-.39.74-1,.92-1.55.58s-.65-.92-.2-1.64a13.15,13.15,0,0,0,.24-13.82c-.12-.2-.26-.4-.37-.61a1,1,0,0,1,.33-1.42,1,1,0,0,1,1.42.36,15,15,0,0,1,2.13,4.92c.14.63.26,1.27.39,1.9Z"/><path d="M60.49,43.06V66.8A6.14,6.14,0,0,1,54,73.32H30.49A6.14,6.14,0,0,1,24,66.83V19.3a6.13,6.13,0,0,1,6.5-6.48H54a6.13,6.13,0,0,1,6.47,6.45Zm-34.43,0v23.8a4,4,0,0,0,4.38,4.38H54.05a4,4,0,0,0,4.37-4.38V19.26A4,4,0,0,0,54,14.89H30.44a4,4,0,0,0-4.38,4.38Z"/><path d="M12,34.19c1.12,0,1.56.83,1.07,1.62a14.37,14.37,0,0,0-1.78,4.1,13,13,0,0,0,1.45,9.85l.31.5a1,1,0,0,1-.23,1.54,1,1,0,0,1-1.49-.45A25,25,0,0,1,9.48,47.3a14.62,14.62,0,0,1,1.78-12.41A3.11,3.11,0,0,1,12,34.19Z"/><path d="M13.15,43.08A10,10,0,0,1,15,37.28c.45-.64,1-.8,1.55-.44s.56.95.14,1.61a8,8,0,0,0,0,9.22c.44.69.39,1.29-.16,1.65s-1.07.16-1.53-.5A10.05,10.05,0,0,1,13.15,43.08Z"/><path d="M71.33,43.1a9.93,9.93,0,0,1-1.82,5.74c-.45.66-1,.82-1.54.46s-.58-.95-.16-1.6a8,8,0,0,0,0-9.27c-.42-.65-.36-1.25.17-1.6s1.08-.18,1.54.47A10,10,0,0,1,71.33,43.1Z"/><path d="M19.83,39.45a1.06,1.06,0,0,1,1,1.69,3.36,3.36,0,0,0-.44,2.91,6,6,0,0,0,.48,1,1.06,1.06,0,0,1-.25,1.45,1,1,0,0,1-1.47-.34,5.35,5.35,0,0,1,0-6.16A2.87,2.87,0,0,1,19.83,39.45Z"/><path d="M66.39,43.22a4.89,4.89,0,0,1-.91,2.85A1,1,0,0,1,64,46.5c-.53-.35-.61-.89-.22-1.54a3.4,3.4,0,0,0,0-3.8A1,1,0,0,1,64,39.63c.52-.34,1.06-.18,1.49.44A5.4,5.4,0,0,1,66.39,43.22Z"/><path d="M55.54,55.29A13.3,13.3,0,1,1,42.25,42,13.33,13.33,0,0,1,55.54,55.29ZM42.23,44A11.26,11.26,0,1,0,53.48,55.3,11.23,11.23,0,0,0,42.23,44Z"/><path d="M42.21,36a8.55,8.55,0,1,1,8.6-8.56A8.61,8.61,0,0,1,42.21,36Zm0-15a6.48,6.48,0,1,0,6.54,6.46A6.51,6.51,0,0,0,42.21,21Z"/><path d="M54.08,19.19c-.28,0-.56,0-.84,0a1,1,0,0,1-1-1,1,1,0,0,1,.88-1,9.1,9.1,0,0,1,2,0A.93.93,0,0,1,56,18.24a1,1,0,0,1-1,1C54.69,19.21,54.39,19.19,54.08,19.19Z"/><path d="M30.35,19.19c-.28,0-.57,0-.85,0a1,1,0,0,1-.1-2,11.55,11.55,0,0,1,2,0,1,1,0,0,1-.09,2C31,19.21,30.65,19.19,30.35,19.19Z"/><path d="M30.4,69.86a8.94,8.94,0,0,1-1,0,.91.91,0,0,1-.84-1,.89.89,0,0,1,.84-1,15,15,0,0,1,2,0,.91.91,0,0,1,.88,1,.94.94,0,0,1-.88,1,7.85,7.85,0,0,1-1,0Z"/><path d="M54.07,69.83c-.31,0-.61,0-.91,0a1,1,0,0,1-.93-1,.93.93,0,0,1,.9-1,12.69,12.69,0,0,1,1.95,0,1,1,0,0,1,0,2,8.85,8.85,0,0,1-1,0Z"/><path d="M42.21,63.83a8.55,8.55,0,1,1,8.6-8.54A8.57,8.57,0,0,1,42.21,63.83Zm0-2a6.49,6.49,0,1,0-6.52-6.5A6.52,6.52,0,0,0,42.25,61.78Z"/><path d="M46.29,27.5a4.05,4.05,0,1,1-4-4.12A4.06,4.06,0,0,1,46.29,27.5Zm-2-.06a2,2,0,1,0-4,0,2,2,0,1,0,4,0Z"/><path d="M45.39,55.28a3.15,3.15,0,1,1-6.3,0,3.15,3.15,0,1,1,6.3,0Zm-3.17,1.11a1.07,1.07,0,0,0,1.12-1.1,1.1,1.1,0,1,0-2.19,0A1.07,1.07,0,0,0,42.22,56.39Z"/></svg>