<svg id="Layer_1" data-name="Layer 1" xmlns="http://www.w3.org/2000/svg" viewBox="0 0 85.04 85.04"><defs><style>.cls-1{fill:#1d1d1b;}</style></defs><path class="cls-1" d="M61.73,19.6a6.07,6.07,0,0,0-3.61-5.85,6.86,6.86,0,0,0-1-.36l-.48-.15H28.09l0,0,0,.05c-3.41.89-5.06,3-5.06,6.58v6.74c0,9.79,0,19.91,0,29.87A20.19,20.19,0,0,0,23.28,60a15.66,15.66,0,0,0,15,12.61h4.58l3.39,0A15.31,15.31,0,0,0,58.6,66.33a15.47,15.47,0,0,0,3.13-9.66V19.6ZM25,37.7c0-.08,0-.17,0-.27v-.07h.76c.73,0,1.19-.41,1.19-1s-.45-1-1.17-1H25V33.89h.78c.71,0,1.17-.45,1.15-1a1.06,1.06,0,0,0-1.15-1c-.19,0-.39,0-.6,0H25V30.4h.2a5.77,5.77,0,0,0,.72,0,1,1,0,0,0,1-1,1,1,0,0,0-1-1c-.24,0-.47,0-.72,0H25V26.93h.2a5.63,5.63,0,0,0,.71,0,1,1,0,0,0,1-1,1,1,0,0,0-1.1-1H25V23.45h.2c.23,0,.47,0,.71,0a1,1,0,1,0,0-2h-.86l0-.88a10.79,10.79,0,0,1,.05-2.06,4,4,0,0,1,3.86-3.28c1.18,0,2.36,0,3.45,0a.57.57,0,0,1,.35.28,9,9,0,0,1,.28.88c.05.18.1.36.16.54a2.47,2.47,0,0,0,2.6,1.9H48.71a2.59,2.59,0,0,0,2.88-2.17c.1-.35.21-.71.31-1l.1-.32,1.34,0a23.83,23.83,0,0,1,3.06.06,3.78,3.78,0,0,1,3.27,3.74c0,.55,0,1.09,0,1.66v.67c-1.39.11-1.85.28-1.86,1a.91.91,0,0,0,.74,1,5.31,5.31,0,0,0,.81.07h.27v1.41c-.14,0-.31,0-.48,0a1.44,1.44,0,0,0-1.07.27,1.07,1.07,0,0,0-.24.76c0,1,.73,1,1.3,1a4.24,4.24,0,0,1,.51,0v1.38a3.64,3.64,0,0,1-.48,0c-.6,0-1.34,0-1.33,1s.75,1,1.35,1h.44v1.41a3.39,3.39,0,0,1-.46,0,1.5,1.5,0,0,0-1.1.3,1,1,0,0,0-.22.8c0,.93.77.93,1.34.94a3.17,3.17,0,0,1,.44,0V35.3a3.24,3.24,0,0,1-.45,0c-.57,0-1.29,0-1.36,1,0,.76.54.92,1.82,1v0a1,1,0,0,1,0,.24c0,1.92,0,3.85,0,5.78,0,4.61,0,9.39,0,14.08a13.49,13.49,0,0,1-11.32,12.9,20.49,20.49,0,0,1-3.15.22l-1.92,0a58.29,58.29,0,0,1-5.91-.13C32,70,28.16,67.13,25.94,62a12.15,12.15,0,0,1-1-4.84c0-4.13,0-8.26,0-12.38ZM49.84,15.5a5.15,5.15,0,0,1-.32,1,.82.82,0,0,1-.54.35c-4.76,0-9.1,0-13.27,0a.9.9,0,0,1-.6-.44,4,4,0,0,1-.28-.85c0-.09,0-.18-.07-.28H49.91C49.89,15.32,49.86,15.41,49.84,15.5Z"/><path class="cls-1" d="M31,38.08c2.83,0,5.66,0,8.49,0H53.82A2.13,2.13,0,0,0,56.06,36a2.09,2.09,0,0,0,0-.25V23.1a2.15,2.15,0,0,0-2.38-2.37c-1.22,0-2.46,0-3.69,0a1.46,1.46,0,0,0-1.09.31.9.9,0,0,0-.23.7c0,.87.73,1,1.36,1h1c.82,0,1.67,0,2.51,0a.58.58,0,0,1,.43.09.61.61,0,0,1,.1.43c0,3.72,0,7.64,0,12.36a.61.61,0,0,1-.09.41.54.54,0,0,1-.39.1H31.13a.54.54,0,0,1-.39-.1c-.07-.06-.1-.19-.09-.42,0-4.71,0-8.63,0-12.35a.59.59,0,0,1,.1-.42c.07-.07.19-.1.43-.1h0c3.74,0,7.54,0,11.22,0h2.85a1.7,1.7,0,0,0,.45,0,.92.92,0,0,0,.82-1,.9.9,0,0,0-.89-1H31a2.14,2.14,0,0,0-2.34,2.35V35.72A2.17,2.17,0,0,0,31,38.08Z"/><path class="cls-1" d="M46.78,41a13.35,13.35,0,0,0-12.36,1.8,13.81,13.81,0,0,0-5.8,10.62A12.34,12.34,0,0,0,30,59.85a1.21,1.21,0,0,0,.81.69.89.89,0,0,0,.78-.22,1,1,0,0,0,.19-1.4,11.27,11.27,0,0,1-1.14-4.78c0-.2,0-.4.05-.6,0-.42.08-.85.14-1.27a11.77,11.77,0,0,1,13.11-9.9,11.54,11.54,0,0,1,7.89,4.72,11.86,11.86,0,0,1,2.09,9,11.84,11.84,0,0,1-17.27,8,13.52,13.52,0,0,1-1.93-1.45L34,62.16a1.06,1.06,0,0,0-1.46,0,1,1,0,0,0,0,1.46c.14.15.29.29.42.41A13,13,0,0,0,42,67.66a16.27,16.27,0,0,0,2.65-.23A13.67,13.67,0,0,0,46.78,41Z"/><path class="cls-1" d="M39.6,47.65a1.33,1.33,0,0,0-1.41-1.37H36.05a1.41,1.41,0,0,0-1.43,1.08.83.83,0,0,1-.31.41,3,3,0,0,0,0,5.22.82.82,0,0,1,.32.41,1.43,1.43,0,0,0,1.49,1.09h2A1.38,1.38,0,0,0,39.61,53c0-.59,0-1.17,0-1.75V49.58C39.62,49,39.62,48.29,39.6,47.65Zm-3,4.84a1.45,1.45,0,0,0-1.31-1.27.77.77,0,0,1-.59-.83.78.78,0,0,1,.64-.85,1.43,1.43,0,0,0,1.26-1.24h1v4.19Z"/><path class="cls-1" d="M45.08,53.12a1.31,1.31,0,0,0,1.41,1.37h2.14a1.41,1.41,0,0,0,1.43-1.08.78.78,0,0,1,.31-.41A2.81,2.81,0,0,0,52,50.36a2.84,2.84,0,0,0-1.57-2.58.82.82,0,0,1-.32-.41,1.42,1.42,0,0,0-1.48-1.09h-2a1.39,1.39,0,0,0-1.55,1.54c0,.58,0,1.17,0,1.75v1.62C45.06,51.82,45.06,52.48,45.08,53.12Zm3-4.81a1.51,1.51,0,0,0,1.34,1.25.76.76,0,0,1,.57.85.8.8,0,0,1-.61.82c-.59.14-1.16.39-1.27,1.17a.35.35,0,0,1-.17.1H47.1v-4.2Z"/><path class="cls-1" d="M39.7,61.59a1.83,1.83,0,0,0,1.95,1.92h1.44A1.77,1.77,0,0,0,45,61.71c0-1.33,0-2.65,0-3.93A1.8,1.8,0,0,0,43,56H41.7a1.84,1.84,0,0,0-2,2c0,.41,0,.82,0,1.23v1.13C39.69,60.73,39.69,61.17,39.7,61.59Zm2.09-.1V58h1.1v3.51Z"/></svg>