
<svg id="Layer_1" data-name="Layer 1" xmlns="http://www.w3.org/2000/svg" viewBox="0 0 85.04 85.04"><defs><style>.cls-1{fill:#1d1d1b;}</style></defs><path class="cls-1" d="M79.78,56.88l0-.11a.71.71,0,0,1-.07-.16A15.41,15.41,0,0,0,49.1,60.55,15.5,15.5,0,0,0,63.85,74h.56A15.33,15.33,0,0,0,79.29,62.64c.14-.5.25-1,.35-1.52l.15-.7V56.88ZM73.29,67.93A7.94,7.94,0,0,1,70.51,70l.67-2.07ZM58.36,70.16l-3-2.2,0,0h.47c.53,0,1.08,0,1.61,0a.47.47,0,0,1,.26.21c.19.52.36,1.06.52,1.58Zm14.52-4.75h0c-2.08,0-2.09,0-3.34-1.72a.94.94,0,0,1-.14-.7c.41-1.34.86-2.69,1.29-4l.21-.63c0-.1.12-.34.19-.37.84-.37,1.71-.71,2.57-1a.62.62,0,0,1,.37.16c1,.72,2,1.43,3,2.19a.71.71,0,0,1,.23.5A11.34,11.34,0,0,1,75.62,65a1,1,0,0,1-.65.37,9.41,9.41,0,0,1-1.3,0h-.79Zm-16.64,0-.24,0h-.19a5.42,5.42,0,0,1-.57,0,4.62,4.62,0,0,0-.91,0c-.69.1-1.08-.13-1.43-.86A13.85,13.85,0,0,1,51.56,60a.92.92,0,0,1,.29-.68c1-.77,1.94-1.48,2.88-2.1a1.34,1.34,0,0,1,.85-.09,3.45,3.45,0,0,1,3,3.19,9.28,9.28,0,0,0,.71,2.2A1.48,1.48,0,0,1,59,64.09,2.5,2.5,0,0,1,56.24,65.42ZM68.4,57.85C68,59.26,67.5,60.7,67,62.11a.53.53,0,0,1-.36.26c-1.24,0-2.51,0-3.74,0h-1L60.3,57.54l4.1-3,.86.62c1,.73,2,1.48,3,2.23A.59.59,0,0,1,68.4,57.85ZM66,52.64a1.11,1.11,0,0,1-.36-.7c0-.21,0-.43,0-.66a3.79,3.79,0,0,1,.13-2A3.32,3.32,0,0,1,67,48.21c.23-.15.47-.3.69-.46l1.15-.85a1.75,1.75,0,0,1,.27-.16l.08-.05.09,0,.31.13A12.3,12.3,0,0,1,73.94,50a1,1,0,0,1,.16.79c-.28,1-.64,2.14-1.08,3.39a1.07,1.07,0,0,1-.52.53l-.59.29a3.45,3.45,0,0,1-1.71.56,3,3,0,0,1-1.39-.83c-.19-.16-.39-.33-.6-.48L67.88,54C67.26,53.57,66.62,53.12,66,52.64Zm-.24-6.57c-.4.29-.82.6-1.24.87a.52.52,0,0,1-.39-.06c-.38-.25-.76-.53-1.12-.8l-.31-.23h3.36Zm-2.64,4.76v.05c.34,1.18-.25,1.82-1.23,2.43-.82.51-1.6,1.1-2.35,1.67l-.51.39a.85.85,0,0,1-.84.14c-1.89-.47-2.86-1.48-3-3.18a2,2,0,0,0-.25-.74,1.54,1.54,0,0,1,.63-2.32c1.29-.88,2.47-1.66,3.69-2.41a.47.47,0,0,1,.23,0,1,1,0,0,1,.48.12c.51.33,1,.7,1.49,1.05s.83.61,1.25.9a.9.9,0,0,1,.46.93,5.61,5.61,0,0,0,0,.71C63.15,50.63,63.15,50.73,63.15,50.83Zm-2.35,15A2.86,2.86,0,0,1,62,64.84H65.1c2.24,0,2.24,0,3.55,1.81a.74.74,0,0,1,.12.55c-.39,1.32-.78,2.52-1.19,3.66a.79.79,0,0,1-.46.42,12,12,0,0,1-5.47,0,.71.71,0,0,1-.41-.37c-.32-.92-.63-1.86-.93-2.76l-.29-.9a.85.85,0,0,1,0-.17A2.89,2.89,0,0,1,60.8,65.78Zm16.36-9.45-.37-.27c-.42-.3-.86-.61-1.27-.94a.4.4,0,0,1-.06-.3c.14-.51.3-1,.46-1.51l.13-.39,1.12,3.4ZM53.38,55a.39.39,0,0,1-.16.24c-.39.3-.8.59-1.21.88l-.38.28h0L52.74,53l.14.38C53.06,53.86,53.24,54.41,53.38,55Z"/><path class="cls-1" d="M38.2,64.15a1.23,1.23,0,0,0-2.1-1.3l-.21.34-.14.21A6.56,6.56,0,0,1,32,66.19a6.63,6.63,0,0,1-4.25-.14l.2-1.11c.23-1.27.44-2.48.69-3.7a.82.82,0,0,1,.49-.41,4.36,4.36,0,0,1,3.39.62,1.54,1.54,0,0,0,1.16.24,1.28,1.28,0,0,0,.89-1.46,1.62,1.62,0,0,0-.8-.92,9.84,9.84,0,0,0-1.37-.65,6.89,6.89,0,0,0-3.68-.33V55.87c0-1.46,0-3,0-4.45a2.08,2.08,0,0,0-1.5-2.23c-1-.33-2-.64-3-.94l-2.54-.79a1,1,0,0,1-.49-.3c0-.58,0-1.17,0-1.8,0-.17,0-.34,0-.51a31.58,31.58,0,0,0,17.79,0c-.07,1.43,0,2.88,0,4.27,0,3.23.09,6.27-.87,9.3a1.38,1.38,0,0,0,.06,1.06,1.22,1.22,0,0,0,.73.58,1.26,1.26,0,0,0,1-.11,1.32,1.32,0,0,0,.6-.88c.07-.35.15-.7.23-1a21.31,21.31,0,0,0,.64-3.82c.13-2.55.13-5.15.13-7.67,0-.67,0-1.34,0-2a2.34,2.34,0,0,0-.82-1.94,2.29,2.29,0,0,0-2.08-.22,28.9,28.9,0,0,1-17,0,2.31,2.31,0,0,0-2.07.22,2.32,2.32,0,0,0-.82,1.94c0,.63,0,1.26,0,1.9v.68h-.29A24.7,24.7,0,0,0,7.3,49.26,1.94,1.94,0,0,0,6,51c0,.91,0,1.82,0,2.52a1.15,1.15,0,0,0,1.21,1.16,1.17,1.17,0,0,0,1.22-1.16,12.78,12.78,0,0,0,0-1.52.58.58,0,0,1,.44-.7,22,22,0,0,1,16.91,0,.61.61,0,0,1,.46.69c0,.85,0,1.72,0,2.56,0,1.49,0,3-.05,4.54a26.07,26.07,0,0,1-.78,5.47,22.67,22.67,0,0,1-2.2,5.13,6.71,6.71,0,0,1-5.7,3.4,6.82,6.82,0,0,1-6-3.21A20.22,20.22,0,0,1,8.47,58.63c0-.86-.46-1.39-1.21-1.4h0c-.74,0-1.2.52-1.22,1.37a22.2,22.2,0,0,0,3.4,12.47,9.33,9.33,0,0,0,8,4.46h.09a9.31,9.31,0,0,0,8-4.61c.34-.56.65-1.15,1-1.77l.41-.79.05,0,.37.13a9.14,9.14,0,0,0,7.57-.84A8.89,8.89,0,0,0,38.2,64.15Z"/><path class="cls-1" d="M25.63,36.56a2.1,2.1,0,0,0,1.89.22A23.72,23.72,0,0,1,42.14,37a2.39,2.39,0,0,0,.69.1,4.35,4.35,0,0,0,.84-.1c.86-.17,1.73-.37,2.58-.57s1.62-.37,2.44-.54,1.42-.68,1.35-1.36a1.17,1.17,0,0,0-.43-.84,1.5,1.5,0,0,0-1.15-.24c-1,.14-2,.32-3.09.51l-1.19.21a.28.28,0,0,1,0-.09V29q0-7.65,0-15.28c0-.34.08-.45.42-.55a23.34,23.34,0,0,1,12.3-.31c1.47.36,1.47.36,1.57,1.86h.15l-.15,0v0a1.24,1.24,0,0,0,1.26,1.28h0A1.23,1.23,0,0,0,61,14.75c0-.49,0-1,0-1.47v-.19a2,2,0,0,0-1.59-2.15,25.88,25.88,0,0,0-15.72-.12,2.4,2.4,0,0,1-1.5,0A25.83,25.83,0,0,0,26.43,11a2,2,0,0,0-1.59,2.14V34.76A2.14,2.14,0,0,0,25.63,36.56ZM27.35,13.9c0-.53.13-.71.61-.84a23.89,23.89,0,0,1,13.2,0c.36.1.49.21.49.58q0,7.77,0,15.55v4.82a1.28,1.28,0,0,1,0,.17,26.06,26.06,0,0,0-14.23,0v-.08c0-.18,0-.35,0-.51v-5C27.37,23.81,27.37,18.82,27.35,13.9Z"/><path class="cls-1" d="M53.82,35.85l.66.13c1.19.22,2.41.45,3.6.75a3.93,3.93,0,0,0,1,.13,1.89,1.89,0,0,0,1.19-.36A2.33,2.33,0,0,0,61,34.56V20.24a2.71,2.71,0,0,0,0-.4,1.25,1.25,0,0,0-1.22-1.21h-.05a1.21,1.21,0,0,0-1.22,1.17,2.6,2.6,0,0,0,0,.56V34.21l-.57-.14c-.53-.13-1-.26-1.56-.35A21.87,21.87,0,0,0,54,33.4a1.42,1.42,0,0,0-1.08.3,1.16,1.16,0,0,0-.38.84C52.54,35.19,53,35.7,53.82,35.85Z"/><path class="cls-1" d="M50.72,71.38a29.28,29.28,0,0,1-15.21,0,1.27,1.27,0,0,0-1.73.81,1.11,1.11,0,0,0,.07.86,1.56,1.56,0,0,0,1,.71A30.6,30.6,0,0,0,43,74.89h0a32,32,0,0,0,8.34-1.11,1.6,1.6,0,0,0,1-.71,1.09,1.09,0,0,0,.08-.87A1.27,1.27,0,0,0,50.72,71.38Z"/><path class="cls-1" d="M13.1,40.42l.24,0a1.26,1.26,0,0,0,1.2-1,5,5,0,0,0,.12-.63c0-.1,0-.2.05-.29a29,29,0,0,1,5.68-12.75,3.34,3.34,0,0,0,.35-.62c.06-.12.12-.25.2-.39l0-.1-.08-.08a2.66,2.66,0,0,1-.26-.31,1.38,1.38,0,0,0-.69-.57,1.6,1.6,0,0,0-1.33.36A16.3,16.3,0,0,0,17,26.25a31.29,31.29,0,0,0-4.87,12.64A1.29,1.29,0,0,0,13.1,40.42Z"/><path class="cls-1" d="M65.47,25.08a2.42,2.42,0,0,0,.31.6,28.91,28.91,0,0,1,5.85,13.57,1.48,1.48,0,0,0,.55,1,1.2,1.2,0,0,0,.7.23l.22,0a1.27,1.27,0,0,0,1-1.58A28.64,28.64,0,0,0,70.85,29c-.7-1.27-1.53-2.49-2.34-3.67-.27-.4-.55-.8-.82-1.21a1.08,1.08,0,0,0-1.44-.45,2.69,2.69,0,0,0-.65.57,3.71,3.71,0,0,1-.27.29l-.08.08,0,.09C65.37,24.84,65.42,25,65.47,25.08Z"/><path class="cls-1" d="M49.13,22.24h5.8A1.26,1.26,0,0,0,56.36,21a1.14,1.14,0,0,0-.32-.85,1.53,1.53,0,0,0-1.12-.42H47.69A1.26,1.26,0,0,0,46.26,21a1.15,1.15,0,0,0,.3.85,1.52,1.52,0,0,0,1.13.41Z"/><path class="cls-1" d="M47.58,27.08h7.17A1.74,1.74,0,0,0,56,26.64a1.13,1.13,0,0,0,.33-.83c0-.76-.61-1.23-1.63-1.23H50.2c-.86,0-1.75,0-2.63,0a1.24,1.24,0,0,0-1.31,1.24A1.3,1.3,0,0,0,47.58,27.08Z"/><path class="cls-1" d="M14.85,65.51a1.24,1.24,0,0,0-1.83.3,1.16,1.16,0,0,0-.16,1,1.58,1.58,0,0,0,.72.84,6.79,6.79,0,0,0,3.64,1.08h.12a7,7,0,0,0,3.86-1.11,1.23,1.23,0,0,0,.55-1.77,1.27,1.27,0,0,0-1.84-.35A4.58,4.58,0,0,1,14.85,65.51Z"/><path class="cls-1" d="M36.18,51.75a15.51,15.51,0,0,0-1.73-.67l-.79-.27-.06,0-.05,0-.78.27a17.55,17.55,0,0,0-1.72.67,1.21,1.21,0,0,0-.64.75,1.24,1.24,0,0,0,.15,1,1.19,1.19,0,0,0,1,.6,1.35,1.35,0,0,0,.7-.21,2.47,2.47,0,0,1,2.69,0,1.23,1.23,0,1,0,1.23-2.13Z"/><path class="cls-1" d="M19.1,60.55a14.31,14.31,0,0,0,1.66.65l.74.27.05,0,.05,0,.78-.27A12.23,12.23,0,0,0,24,60.57a1.2,1.2,0,0,0,.64-.74,1.28,1.28,0,0,0-.16-1,1.2,1.2,0,0,0-1.69-.39,2.3,2.3,0,0,1-2.48,0,1.19,1.19,0,0,0-1.69.43,1.23,1.23,0,0,0-.12,1A1.17,1.17,0,0,0,19.1,60.55Z"/><path class="cls-1" d="M15.37,58.28a1.26,1.26,0,0,0-.94.14,2.26,2.26,0,0,1-2.48,0,1.21,1.21,0,0,0-1.7.39,1.23,1.23,0,0,0-.17,1,1.2,1.2,0,0,0,.65.74,13,13,0,0,0,1.62.64l.77.27.05,0,.05,0L14,61.2a13.79,13.79,0,0,0,1.67-.65,1.16,1.16,0,0,0,.6-.7,1.3,1.3,0,0,0-.12-1A1.22,1.22,0,0,0,15.37,58.28Z"/><path class="cls-1" d="M30.9,22.23h7.23c.86,0,1.41-.47,1.42-1.2a1.11,1.11,0,0,0-.32-.84,1.54,1.54,0,0,0-1.13-.42H31c-.91,0-1.48.47-1.5,1.21a1.1,1.1,0,0,0,.31.83A1.53,1.53,0,0,0,30.9,22.23Z"/><path class="cls-1" d="M38,24.58H31c-.94,0-1.55.49-1.55,1.24s.61,1.26,1.61,1.26H38c.94,0,1.55-.5,1.55-1.25a1.09,1.09,0,0,0-.32-.83A1.67,1.67,0,0,0,38,24.58Z"/></svg>
