
<svg id="Layer_1" data-name="Layer 1" xmlns="http://www.w3.org/2000/svg" viewBox="0 0 85.04 85.04"><defs><style>.cls-1{stroke:#1d1d1b;stroke-miterlimit:10;stroke-width:0.25px;}</style></defs><path class="cls-1" d="M74.51,75.75c-1,0-2,0-3.13,0v-.84q0-30.33,0-60.65a1,1,0,0,1,.55-1,3.37,3.37,0,0,0,1.6-3.9,3.41,3.41,0,0,0-3.32-2.51H42.66A3.43,3.43,0,0,0,41,13.32a.82.82,0,0,1,.5.88c0,3.44,0,6.88,0,10.32v.7H15.11a3.44,3.44,0,0,0-1.74,6.43.91.91,0,0,1,.54.94q0,21.21,0,42.43c0,.22,0,.45,0,.73-1.06,0-2,0-3,0s-1.49.45-1.47,1.17S9.92,78,10.8,78H74.51c.87,0,1.42-.45,1.42-1.15S75.39,75.76,74.51,75.75Zm-42.28,0H25.45V69h6.78Zm9.23,0H34.68c0-.25,0-.5,0-.75V68.2c0-1.28-.39-1.67-1.64-1.67H24.67c-1.15,0-1.54.39-1.54,1.52,0,2.28,0,4.56,0,6.83v.82H16.31V32.18H41.46Zm0-46-.69,0q-12.66,0-25.33,0a1.82,1.82,0,0,1-1.19-.44,1.05,1.05,0,0,1,.57-1.73,2.32,2.32,0,0,1,.7-.08H40.78l.69,0ZM59.81,75.69H53.07V68.93h6.74Zm9.16,0H62.19c0-.26,0-.51,0-.76V68c0-1-.42-1.46-1.46-1.46q-4.28,0-8.54,0c-1.08,0-1.51.44-1.51,1.52,0,2.28,0,4.55,0,6.83v.82H43.83V13.82H69ZM70.32,11.4a3.43,3.43,0,0,1-.64,0H43.22c-.21,0-.43,0-.64,0a1,1,0,0,1-1-1,1,1,0,0,1,.82-1.16,3.45,3.45,0,0,1,.85-.08H69.63a3,3,0,0,1,.9.11,1,1,0,0,1,.74,1.15A1.05,1.05,0,0,1,70.32,11.4Z"/><path class="cls-1" d="M52.85,45.88c-.71,0-1.43,0-2.14,0s-1.47,0-2.2,0a1.18,1.18,0,0,0-1.3,1.27c0,1.45,0,2.9,0,4.34a1.2,1.2,0,0,0,1.27,1.32q2.21,0,4.41,0a1.19,1.19,0,0,0,1.26-1.32c0-1.45,0-2.89,0-4.34A1.19,1.19,0,0,0,52.85,45.88Zm-1.1,4.51H49.62V48.25h2.13Z"/><path class="cls-1" d="M48.47,34.43c1.46,0,2.94,0,4.4,0a1.21,1.21,0,0,0,1.28-1.31c0-1.45,0-2.89,0-4.34a1.19,1.19,0,0,0-1.29-1.28c-.74,0-1.47,0-2.2,0H48.59a1.22,1.22,0,0,0-1.38,1.34c0,1.42,0,2.84,0,4.27A1.19,1.19,0,0,0,48.47,34.43Zm1.14-4.56h2.12V32H49.61Z"/><path class="cls-1" d="M48.43,25.22c.74,0,1.47,0,2.21,0s1.47,0,2.2,0A1.16,1.16,0,0,0,54.15,24c0-1.47,0-2.93,0-4.4A1.13,1.13,0,0,0,53,18.33c-1.51,0-3,0-4.55,0a1.12,1.12,0,0,0-1.19,1.22c0,1.5,0,3,0,4.48A1.12,1.12,0,0,0,48.43,25.22Zm1.16-4.51h2.15v2.17H49.59Z"/><path class="cls-1" d="M48.43,43.59c.74,0,1.47,0,2.21,0h2.2a1.16,1.16,0,0,0,1.31-1.25c0-1.46,0-2.93,0-4.4A1.12,1.12,0,0,0,53,36.71c-1.51,0-3,0-4.55,0a1.11,1.11,0,0,0-1.19,1.21c0,1.5,0,3,0,4.48A1.12,1.12,0,0,0,48.43,43.59Zm1.18-4.51h2.15v2.18H49.61Z"/><path class="cls-1" d="M53,55.09c-1.53,0-3.07,0-4.61,0a1.09,1.09,0,0,0-1.15,1.18c0,1.49,0,3,0,4.48A1.13,1.13,0,0,0,48.48,62h4.41a1.15,1.15,0,0,0,1.26-1.22c0-1.49,0-3,0-4.48A1.11,1.11,0,0,0,53,55.09Zm-1.22,4.56H49.61V57.44h2.15Z"/><path class="cls-1" d="M60,34.44c1.46,0,2.93,0,4.4,0a1.14,1.14,0,0,0,1.24-1.19c0-1.54,0-3.08,0-4.61a1.09,1.09,0,0,0-1.2-1.13c-.73,0-1.47,0-2.2,0s-1.47,0-2.2,0a1.14,1.14,0,0,0-1.27,1.27c0,1.45,0,2.89,0,4.34A1.16,1.16,0,0,0,60,34.44Zm1.08-4.58h2.21V32H61.05Z"/><path class="cls-1" d="M59.92,52.81c1.49,0,3,0,4.48,0a1.12,1.12,0,0,0,1.21-1.21c0-1.51,0-3,0-4.54a1.11,1.11,0,0,0-1.23-1.18q-2.2,0-4.41,0a1.12,1.12,0,0,0-1.24,1.23c0,.73,0,1.47,0,2.2s0,1.47,0,2.2A1.15,1.15,0,0,0,59.92,52.81Zm1.13-4.53h2.21v2.13H61.05Z"/><path class="cls-1" d="M64.59,36.73c-1.61,0-3.22,0-4.83,0a1,1,0,0,0-1,1.12c0,1.52,0,3,0,4.55a1.08,1.08,0,0,0,1.19,1.19c.76,0,1.52,0,2.27,0s1.47,0,2.21,0,1.19-.38,1.2-1.11c0-1.56,0-3.12,0-4.68A1,1,0,0,0,64.59,36.73Zm-1.33,4.54h-2.2v-2.2h2.2Z"/><path class="cls-1" d="M60,25.22c.74,0,1.47,0,2.21,0s1.47,0,2.2,0A1.09,1.09,0,0,0,65.6,24.1c0-1.54,0-3.08,0-4.62a1.06,1.06,0,0,0-1.12-1.14c-1.54,0-3.08,0-4.62,0a1.08,1.08,0,0,0-1.14,1.18c0,1.5,0,3,0,4.49C58.74,24.81,59.16,25.2,60,25.22ZM61,20.69h2.2v2.19H61Z"/><path class="cls-1" d="M64.39,55.08c-1.49,0-3,0-4.48,0a1.08,1.08,0,0,0-1.18,1.2c0,1.49,0,3,0,4.47A1.08,1.08,0,0,0,59.91,62c.73,0,1.47,0,2.2,0s1.52,0,2.27,0a1.1,1.1,0,0,0,1.23-1.17c0-1.52,0-3,0-4.55A1.09,1.09,0,0,0,64.39,55.08Zm-1.13,4.57h-2.2V57.44h2.2Z"/><path class="cls-1" d="M36.73,45.88c-.71,0-1.43,0-2.14,0s-1.42,0-2.13,0a1.2,1.2,0,0,0-1.33,1.32q0,2.13,0,4.26a1.22,1.22,0,0,0,1.31,1.35c1.45,0,2.9,0,4.34,0a1.2,1.2,0,0,0,1.29-1.29c0-1.45,0-2.9,0-4.34A1.2,1.2,0,0,0,36.73,45.88Zm-1.06,4.53H33.53V48.27h2.14Z"/><path class="cls-1" d="M36.85,55.08c-1.5,0-3,0-4.48,0a1.12,1.12,0,0,0-1.23,1.18c0,1.52,0,3,0,4.55A1.11,1.11,0,0,0,32.33,62c.75,0,1.51,0,2.27,0h2.2a1.17,1.17,0,0,0,1.27-1.29c0-1.45,0-2.89,0-4.34A1.14,1.14,0,0,0,36.85,55.08Zm-1.18,4.56H33.53V57.43h2.14Z"/><path class="cls-1" d="M32.4,43.59h2.2c.76,0,1.52,0,2.28,0a1.11,1.11,0,0,0,1.18-1.15c0-1.51,0-3,0-4.55A1.08,1.08,0,0,0,37,36.72c-1.58,0-3.17,0-4.76,0a1.06,1.06,0,0,0-1.08,1.11c0,1.53,0,3.08,0,4.61A1.13,1.13,0,0,0,32.4,43.59Zm1.13-4.53h2.15v2.15H33.53Z"/><path class="cls-1" d="M20.84,52.8c1.51,0,3,0,4.54,0a1.14,1.14,0,0,0,1.18-1.24c0-.74,0-1.47,0-2.21s0-1.46,0-2.2a1.15,1.15,0,0,0-1.27-1.28c-1.44,0-2.88,0-4.33,0a1.12,1.12,0,0,0-1.28,1.19c0,1.52,0,3,0,4.55A1.1,1.1,0,0,0,20.84,52.8ZM22,48.26h2.22V50.4H22Z"/><path class="cls-1" d="M20.86,43.59h4.48c.81,0,1.2-.42,1.22-1.25s0-1.42,0-2.13,0-1.47,0-2.21-.37-1.28-1.18-1.29c-1.51,0-3,0-4.55,0a1,1,0,0,0-1.14,1.11c0,1.56,0,3.13,0,4.7A1.05,1.05,0,0,0,20.86,43.59ZM22,39.06h2.19v2.19H22Z"/><path class="cls-1" d="M25.45,55.09c-1.54,0-3.08,0-4.63,0a1,1,0,0,0-1.13,1.11c0,1.54,0,3.08,0,4.62A1.08,1.08,0,0,0,20.86,62c1.5,0,3,0,4.49,0a1.09,1.09,0,0,0,1.21-1.18c0-.73,0-1.47,0-2.2s0-1.57,0-2.35A1.06,1.06,0,0,0,25.45,55.09Zm-1.21,4.54H22v-2.2h2.21Z"/></svg>
