
<svg id="Layer_1" data-name="Layer 1" xmlns="http://www.w3.org/2000/svg" viewBox="0 0 85.04 85.04"><path d="M26.27,78.72c-1.16-.78-.79-1.94-.61-2.94a8.9,8.9,0,0,1,9.05-7.49c1.39,0,2.79,0,4.22,0,0-.2,0-.33,0-.46V61.52A13.4,13.4,0,0,1,34,60.3a13.59,13.59,0,0,1-8.11-12.59c0-1.11,0-2.21,0-3.32,0-.91.42-1.39,1.16-1.41s1.2.51,1.22,1.43a52,52,0,0,0,.19,5.3A11.24,11.24,0,0,0,37.93,59l1,.15V56.7a9.07,9.07,0,0,1-5-2.05,8.66,8.66,0,0,1-3.26-6.86c0-6.95,0-13.89,0-20.84a2,2,0,0,1,.06-.54A1.1,1.1,0,0,1,32,25.47a1,1,0,0,1,1.1,1c.06.82,0,1.65,0,2.57h5.72c1.21,0,1.72.36,1.71,1.19S40,31.4,38.75,31.4H33.14v3.91h5.75c1.08,0,1.6.4,1.6,1.19s-.52,1.2-1.58,1.2H33.15v3.91h6.06c.82,0,1.3.46,1.28,1.19A1.14,1.14,0,0,1,39.22,44H33a40.5,40.5,0,0,0,.31,5.35,6.27,6.27,0,0,0,6.17,5c2.46,0,4.92,0,7.38,0a6.46,6.46,0,0,0,6.77-6.06c.13-1.4,0-2.83,0-4.32H47.79c-1,0-1.52-.42-1.51-1.19s.52-1.15,1.48-1.15h5.9V37.74l-.73,0H47.68c-.87,0-1.39-.46-1.4-1.18s.49-1.16,1.38-1.21h6V31.44l-.73,0c-1.77,0-3.54,0-5.31,0-.88,0-1.38-.45-1.36-1.2s.53-1.14,1.36-1.14h6V25.17H47.73c-.92,0-1.45-.46-1.45-1.2s.49-1.15,1.4-1.16h5.91c.91-5.39-2.61-8.66-6.48-8.66-2.48,0-5,0-7.45,0a6.48,6.48,0,0,0-6.53,6.23c0,.3,0,.6,0,.89a1.21,1.21,0,0,1-1.17,1.28,1.19,1.19,0,0,1-1.19-1.33,13,13,0,0,1,.34-2.86,8.73,8.73,0,0,1,8.31-6.55q4.17-.11,8.34,0a8.83,8.83,0,0,1,8.21,7.52,15.35,15.35,0,0,1,.13,1.92q0,13.24,0,26.49a9,9,0,0,1-5.63,8.33,9.05,9.05,0,0,1-1.25.39c-.42.11-.85.16-1.34.24v2.56a35.28,35.28,0,0,0,3.44-.91A11.33,11.33,0,0,0,58.5,47.61c0-1.24,0-2.48,0-3.73,0-1,.43-1.45,1.19-1.44s1.19.54,1.18,1.47A32.84,32.84,0,0,1,60.49,51,13.8,13.8,0,0,1,49.21,61.34l-1.38.19v6.76h4.06a9,9,0,0,1,9.4,8.95,1.55,1.55,0,0,1-.8,1.48H39s0-.09-.05-.11a1.15,1.15,0,0,1-.56-1.41c.24-.67.77-.82,1.43-.82q9.11,0,18.2,0h.82a6.42,6.42,0,0,0-5.87-5.66c-3-.07-6,0-9,0-3.34,0-6.67,0-10,0A6.34,6.34,0,0,0,28,76.38h.75c1.77,0,3.54,0,5.31,0a1.2,1.2,0,0,1,1.2.75A1.12,1.12,0,0,1,35,78.4l-.33.32ZM45.42,67.8v-11h-4v11Z"/><path d="M27,15.58a6.68,6.68,0,0,1-1,1.14c-1,.65-2,1.21-3.06,1.85a2.26,2.26,0,0,0-.7.71c-.64,1-1.22,2-1.85,3.06s-1.61,1-2.26,0a16.32,16.32,0,0,1-1-1.66,6,6,0,0,0-3-3,13.81,13.81,0,0,1-1.77-1.06,1.15,1.15,0,0,1,0-2c1.05-.66,2.13-1.26,3.18-1.92a2.47,2.47,0,0,0,.76-.75c.63-1,1.2-2,1.81-3s1.76-1.17,2.31,0A10.94,10.94,0,0,0,26,14.45C26.35,14.63,26.61,15.12,27,15.58Zm-7.76,4a6.89,6.89,0,0,1,4.07-4A13.6,13.6,0,0,1,20.86,14a14.71,14.71,0,0,1-1.68-2.54,6.9,6.9,0,0,1-3.94,4.11A7.21,7.21,0,0,1,19.27,19.6Z"/><path d="M67.25,16.57a5.86,5.86,0,0,1,1.08,1c.65,1,1.19,2,1.82,3a2.77,2.77,0,0,0,.8.8c1,.62,2,1.18,3,1.77,1.14.69,1.15,1.66,0,2.35-.67.4-1.32.85-2,1.18A4.88,4.88,0,0,0,69.55,29a23.89,23.89,0,0,1-1.22,2.07,1.19,1.19,0,0,1-2.2,0c-.64-1-1.23-2.1-1.88-3.13a2.26,2.26,0,0,0-.7-.71c-1-.63-2-1.2-3-1.81s-1.14-1.64,0-2.33a13.65,13.65,0,0,1,1.6-.94,6.13,6.13,0,0,0,3.09-3.15,10.16,10.16,0,0,1,1-1.65A6,6,0,0,1,67.25,16.57Zm0,3.64a14.58,14.58,0,0,1-1.65,2.53,12.88,12.88,0,0,1-2.4,1.56,14,14,0,0,1,2.41,1.58,14.36,14.36,0,0,1,1.64,2.51,7,7,0,0,1,3.95-4.11A6.71,6.71,0,0,1,67.29,20.21Z"/><path d="M25.31,57.43a5.88,5.88,0,0,1-.93,1.11,18.51,18.51,0,0,1-2.18,1.31,3.17,3.17,0,0,0-1.42,1.43c-.37.69-.78,1.35-1.19,2-.7,1.16-1.75,1.22-2.32,0a9.67,9.67,0,0,0-4.75-4.73,1.15,1.15,0,0,1,0-2.22,9.71,9.71,0,0,0,4.77-4.79,1.16,1.16,0,0,1,2.2,0,9.56,9.56,0,0,0,4.83,4.83C24.69,56.54,24.91,57,25.31,57.43ZM18.42,60.6a5.78,5.78,0,0,1,3.31-3.15,5.6,5.6,0,0,1-3.32-3.1,6.13,6.13,0,0,1-3.12,3.14A5.91,5.91,0,0,1,18.42,60.6Z"/></svg>
