
<svg id="Layer_1" data-name="Layer 1" xmlns="http://www.w3.org/2000/svg" viewBox="0 0 85.04 85.04"><defs><style>.cls-1{fill:#1d1d1b;}</style></defs><path class="cls-1" d="M76.56,24.67a2.41,2.41,0,0,0-1.51-2,2.61,2.61,0,0,0-2.42.28l-7.55,4.32-2.73,1.56-.26.14c-.23.13-.46.26-.68.41A1.17,1.17,0,0,0,61,31a1.24,1.24,0,0,0,1.64.55l.38-.2,2-1.15,8.69-5,.29-.13L49.5,40.83a1.6,1.6,0,0,0,0-.21,10.07,10.07,0,0,0,.27-1.3,1,1,0,0,1,.59-.82c2.06-1.16,4.1-2.33,6.15-3.5l2.1-1.19.41-.24a1.26,1.26,0,0,0,.59-1.74,1.22,1.22,0,0,0-.72-.59,1.55,1.55,0,0,0-1.14.19l-4.68,2.68L51.2,35.2c-.16.1-.33.2-.53.3l.06-.34,1.06-4.84Q53.91,20.57,56,10.81a3.77,3.77,0,0,0,.07-1.19,2.66,2.66,0,0,0-1.77-2.1L53,7.5l-.08,0a3.19,3.19,0,0,0-1.86,2.27Q49,17.52,46.89,25.25,45,32.32,43,39.39a1.27,1.27,0,0,1-.68.88L26.85,49.12l-3.77,2.15-2,1.11c-1.43.82-2.87,1.63-4.29,2.47a4.25,4.25,0,0,0-2.1,2.95,4.18,4.18,0,0,0,1,3.42,4.33,4.33,0,0,0,5.7.63l12.3-7.91L39.84,50l.37-.23L39,54.17c-1.54,5.63-3.14,11.46-4.68,17.2a5.13,5.13,0,0,0-.14,2.14,4,4,0,0,0,4,3.39h0a4.27,4.27,0,0,0,4.2-3.47l.72-3.32.92-4.26q2.3-10.62,4.62-21.23a.87.87,0,0,1,.32-.51L67.82,32l3.89-2.49,3.72-2.4A2.39,2.39,0,0,0,76.56,24.67ZM17.37,59.31a1.67,1.67,0,0,1,.55-2.22c.57-.37,1.16-.69,1.77-1l.65-.36,1.71,2.8-.66.42c-.63.41-1.22.79-1.85,1.12A1.65,1.65,0,0,1,17.37,59.31Zm22.49,14a1.66,1.66,0,0,1-2,1.07,1.61,1.61,0,0,1-1.21-1.92c.13-.67.31-1.32.5-2,.07-.24.13-.49.2-.74l3.19.78c-.06.25-.11.51-.17.76C40.2,72,40.06,72.64,39.86,73.3Zm2-29.66c-.22.82-.42,1.55-.63,2.29a.51.51,0,0,1-.14.28c-.84.56-1.69,1.1-2.56,1.66l-.57.37-1.18-2L42,43.34ZM40.66,68c-.65-.18-1.3-.33-2-.5L38,67.3l3.68-13.47,2.34.56-.4,1.85c-.35,1.62-.69,3.22-1,4.81-.17.78-.34,1.55-.52,2.33-.31,1.43-.63,2.86-.93,4.3,0,.22-.09.29-.13.31S40.84,68,40.66,68Zm1.66-16.54L52.66,13.57C50.75,23.45,45.25,49.46,44.47,52Zm-6.43-1.84L24.13,57.14,22.5,54.45l12.14-6.93Z"/><path class="cls-1" d="M17.15,38.39A1.53,1.53,0,0,0,18.26,38a1.12,1.12,0,0,0,.32-.83c0-.73-.58-1.21-1.45-1.21H11.94a1.29,1.29,0,0,1-1.18-.48,1.3,1.3,0,0,1,.17-1.27L24.12,11.36c.56-1,1.4-1,2,0q6.6,11.41,13.18,22.83a1.26,1.26,0,0,1,.16,1.24,1.31,1.31,0,0,1-1.2.49H21.58a1.29,1.29,0,0,0-1.36.81,1.18,1.18,0,0,0,.1,1.09,1.46,1.46,0,0,0,1.23.55H32.78c1.88,0,3.84,0,5.76,0a3.38,3.38,0,0,0,3-5.21c-4.57-8-9.09-15.8-13.42-23.24a3.47,3.47,0,0,0-3-1.81,3.54,3.54,0,0,0-3,1.83C17.3,18.18,12.91,25.79,8.67,33.19a3.39,3.39,0,0,0,2.95,5.19c.76,0,1.53,0,2.3,0h3.23Z"/><path class="cls-1" d="M14.31,30.67A4.44,4.44,0,0,0,16.66,35a4.76,4.76,0,0,0,2.16.56A4.74,4.74,0,0,0,22,34.19a4.61,4.61,0,0,0,3.24,1.35h0a4.64,4.64,0,0,0,3.21-1.34,4.43,4.43,0,0,0,5.12.92,4.23,4.23,0,0,0,2.56-4,4.38,4.38,0,0,0-3.46-4.38,4.56,4.56,0,0,0-3.16-5.76c.08-2.33,0-2.93-.77-3.87A4.31,4.31,0,0,0,25,15.28a4.21,4.21,0,0,0-3.12,1.37,5.62,5.62,0,0,0-1.07,4.29,4.62,4.62,0,0,0-3.18,5.81A4.58,4.58,0,0,0,14.31,30.67Zm2.5.43a2,2,0,0,1,3.35-1.44,2,2,0,0,1,.6,1.45,2,2,0,0,1-2,2h0A2,2,0,0,1,16.81,31.1Zm7-1.42a1.92,1.92,0,0,1,1.39-.59h0a2,2,0,0,1,0,4h-.06a1.89,1.89,0,0,1-1.32-.54,2,2,0,0,1-.06-2.87Zm4.56-2.37A2,2,0,0,1,27,26.72a2,2,0,0,1-.6-1.44,2,2,0,0,1,2-2h0a2,2,0,0,1,2,2,2,2,0,0,1-1.95,2ZM25.17,21.7h0a2,2,0,0,1-1.44-.6,1.94,1.94,0,0,1-.55-1.42,2,2,0,0,1,2-1.94h0a2,2,0,0,1,1.94,2A1.93,1.93,0,0,1,25.17,21.7Zm-3.28,1.62H22a2,2,0,0,1,1.36.55,2,2,0,0,1,.61,1.44,2,2,0,0,1-2,2h0a2.06,2.06,0,0,1-2-2A2,2,0,0,1,21.89,23.32Zm7.83,7.77a2,2,0,0,1,2-2h0a2,2,0,0,1,2,2,2,2,0,0,1-2,2h0A2,2,0,0,1,29.72,31.09Z"/></svg>
