
<svg id="Layer_1" data-name="Layer 1" xmlns="http://www.w3.org/2000/svg" viewBox="0 0 85.04 85.04"><defs><style>.cls-1{stroke:#000;stroke-miterlimit:10;stroke-width:0.25px;}</style></defs><path class="cls-1" d="M78.22,33.09A43.12,43.12,0,0,0,67,31.5c-2.88-.07-5.77,0-8.65,0a2.31,2.31,0,0,1-1.61-.57q-4.14-3.42-8.33-6.79a2.82,2.82,0,0,0-1.33-.56,50.55,50.55,0,0,0-13,.49A120.4,120.4,0,0,0,15.31,28.5c-2,.64-4,1.37-6,2.09a1.28,1.28,0,0,0-.89,1.71,1.3,1.3,0,0,0,1.73.7l1.16-.39c.27,1.65.52,3.2.78,4.76L4.54,38.94c-1.16.25-1.51.87-1.18,2,.18.61.37,1.23.56,1.85.57,1.89,1.13,3.78,1.72,5.74l-.8.11A1.31,1.31,0,0,0,3.73,50,1.26,1.26,0,0,0,5,51.18a5.87,5.87,0,0,0,1.11-.09c1.41-.23,2.35-1.2,3.39-2.06a5.08,5.08,0,0,1,1.93-1,2.51,2.51,0,0,1,2.39.92,6.9,6.9,0,0,0,3,2,5.31,5.31,0,0,0,5.29-1.39,4.77,4.77,0,0,1,3-1.7,1.15,1.15,0,0,0,1.07-1.36,1.23,1.23,0,0,0-1.42-1.12,9,9,0,0,0-2.65.85,10.66,10.66,0,0,0-1.89,1.56,2.78,2.78,0,0,1-3.85,0c-.4-.35-.77-.72-1.16-1.06a4.94,4.94,0,0,0-4.63-1.26,18.22,18.22,0,0,0-2.8,1.21c-.52-1.74-1.09-3.6-1.67-5.53l5.38-1.09c1.58-.32,3.17-.6,4.75-.92a1.28,1.28,0,0,0,1.18-1.45A1.23,1.23,0,0,0,16,36.69c-.42,0-.83.11-1.32.17-.29-1.73-.58-3.43-.87-5.16a130.15,130.15,0,0,1,16.76-4.41c.74,2.17,1.47,4.34,2.21,6.53a5.5,5.5,0,0,1-.62.18c-3.75.6-7.5,1.19-11.24,1.8-1.23.19-1.7.66-1.59,1.54s.76,1.18,2,1c2.9-.46,5.78-1,8.68-1.4,4.27-.61,8.55-1.23,12.84-1.69,3.91-.43,7.83-.68,11.74-1a101.57,101.57,0,0,1,17.44.2c.9.1,1.79.28,2.77.44a46.6,46.6,0,0,1-8.14,10.2,1.31,1.31,0,0,1-1.2.37,4.69,4.69,0,0,0-3.6.87c-.62.49-1.2,1-1.81,1.55a2.74,2.74,0,0,1-3.73,0c-.42-.36-.8-.75-1.22-1.11a5.25,5.25,0,0,0-7.12,0c-.46.39-.87.83-1.34,1.2a2.69,2.69,0,0,1-3.49,0c-.43-.34-.82-.73-1.22-1.1a5.3,5.3,0,0,0-4.75-1.38,6,6,0,0,0-3.31,2,2.92,2.92,0,0,1-4.36.16,1.3,1.3,0,0,0-1.93,0,1.35,1.35,0,0,0,.25,2,5.3,5.3,0,0,0,7.36.16c.4-.33.76-.71,1.16-1.05a2.74,2.74,0,0,1,3.79,0c.39.34.76.72,1.15,1.06a5.26,5.26,0,0,0,7.19,0c.38-.32.73-.67,1.1-1a2.74,2.74,0,0,1,3.9,0c.37.33.72.69,1.1,1a5.26,5.26,0,0,0,7.19,0c.37-.32.72-.67,1.1-1a2.74,2.74,0,0,1,3.9,0l1.1,1A5.26,5.26,0,0,0,72.91,51a6.53,6.53,0,0,0,2.89-1.9A3.44,3.44,0,0,1,78,48a1.3,1.3,0,0,0,1.34-1.45c-.1-.78-.78-1.18-1.73-1.11a6.42,6.42,0,0,0-3.87,2,4.64,4.64,0,0,1-1.6,1c-1.61.51-2.6-.53-3.62-1.63A49.51,49.51,0,0,0,77.4,35.54c1.32.29,1.56.23,2.26-.63V34A6.3,6.3,0,0,0,78.22,33.09Zm-42.88.35c-.7-2.13-1.41-4.32-2.15-6.6.89-.13,1.83-.31,2.77-.42a48.31,48.31,0,0,1,10.34-.34,1.61,1.61,0,0,1,.81.28c2.07,1.66,4.13,3.35,6.19,5,.05.05.09.11.15.18Z"/><path class="cls-1" d="M53.39,53.59a5.08,5.08,0,0,0-4.76.53A18.22,18.22,0,0,0,47,55.52a2.78,2.78,0,0,1-4.18,0l-.88-.81A5.22,5.22,0,0,0,35,54.34a16.63,16.63,0,0,0-1.34,1.18,2.78,2.78,0,0,1-4.18,0l-.93-.86a5.22,5.22,0,0,0-6.83-.34c-.52.38-1,.85-1.46,1.28a2.75,2.75,0,0,1-4,0c-.36-.31-.69-.65-1-1a5,5,0,0,0-3.64-1.41,5,5,0,0,0-3.82,1.59,4.68,4.68,0,0,1-3,1.65,1.18,1.18,0,0,0-1.1,1.34A1.21,1.21,0,0,0,5.14,59a10.36,10.36,0,0,0,2.72-.85,8.23,8.23,0,0,0,1.71-1.43,2.82,2.82,0,0,1,4.13,0c.3.26.58.54.88.81a5.24,5.24,0,0,0,7,.35c.62-.46,1.14-1,1.75-1.51a2.6,2.6,0,0,1,3.19,0,16.63,16.63,0,0,1,1.34,1.18,5.25,5.25,0,0,0,7,.35c.61-.46,1.14-1,1.75-1.51a2.6,2.6,0,0,1,3.19,0c.46.34.83.79,1.3,1.12a8.46,8.46,0,0,0,2.14,1.3,5.15,5.15,0,0,0,5.58-1.48c1.12-1.16,2.33-1.82,4-1.25a1.2,1.2,0,0,0,1.42-.9A1.25,1.25,0,0,0,53.39,53.59Z"/><path class="cls-1" d="M78.06,53.27a4.34,4.34,0,0,0-2.87.86c-.7.54-1.35,1.16-2,1.72a2.63,2.63,0,0,1-3.37,0c-.45-.35-.86-.76-1.28-1.14a5.23,5.23,0,0,0-6.89-.38,11.45,11.45,0,0,0-1.23,1.08,2.93,2.93,0,0,1-3.73.61,1.22,1.22,0,0,0-1.78.48,1.27,1.27,0,0,0,.59,1.77,5.24,5.24,0,0,0,5.63-.15,14.77,14.77,0,0,0,1.42-1.2c1.61-1.48,3-1.5,4.58,0l.7.66a5.38,5.38,0,0,0,7.58-.23,4.26,4.26,0,0,1,2.94-1.57,1.2,1.2,0,0,0,1-1.32A1.24,1.24,0,0,0,78.06,53.27Z"/><path class="cls-1" d="M65,38.05v.12h1.49a1.62,1.62,0,0,0,.22,0A1.31,1.31,0,0,0,68,36.91a1.2,1.2,0,0,0-1.22-1.31,35.19,35.19,0,0,0-3.56-.06,1.28,1.28,0,0,0-1.17,1.24,1.29,1.29,0,0,0,1.22,1.27C63.86,38.08,64.43,38.05,65,38.05Z"/></svg>
