
<svg id="Layer_1" data-name="Layer 1" xmlns="http://www.w3.org/2000/svg" viewBox="0 0 85.04 85.04"><defs><style>.cls-1{fill:#1d1d1b;}</style></defs><path class="cls-1" d="M72.11,54.17a33,33,0,0,0-1-4.32c-.14-.5-.28-1-.41-1.49a1.21,1.21,0,0,0-.56-.75,1.22,1.22,0,0,0-1-.07,1.2,1.2,0,0,0-.75,1.5c.16.63.32,1.25.49,1.88.21.79.43,1.58.63,2.38a7.43,7.43,0,0,1-5.28,9.18c-3.92,1.08-7.86,2.12-11.2,3a7.46,7.46,0,0,1-7.26-1.87,7.89,7.89,0,0,1-2.3-4.28c-.21-.87-.44-1.72-.68-2.61l-.27-1,1-.27,2.53-.68a4.86,4.86,0,0,0,3.65-3.68.77.77,0,0,1,.42-.43c3-.83,5.89-1.6,8.63-2.33a4.58,4.58,0,0,1,4.31,1,4.81,4.81,0,0,1,1.45,2.22,1.19,1.19,0,0,0,1.56.87,1.23,1.23,0,0,0,.68-1.64,7,7,0,0,0-8.17-4.84c-2,.47-4,1-5.93,1.54L50,48.23a2.25,2.25,0,0,1-.36.06h0a4.63,4.63,0,0,0-4.24-3,9.66,9.66,0,0,0-2.75.46l-.84.22a1.22,1.22,0,0,0-.79.55,1.11,1.11,0,0,0-.11.86,1.21,1.21,0,0,0,1.55.88l1-.28,1-.26a2.28,2.28,0,0,1,2.53.91,2.53,2.53,0,0,1,.42,2.32,2.5,2.5,0,0,1-1.77,1.52l-1.39.36c-.8.21-1.63.42-2.43.68a2.19,2.19,0,0,1-2.21-.5,3.64,3.64,0,0,1-1.26-1.93l-.51-1.9-.44-1.67a9,9,0,0,1,.45-6c.69-1.6,1.71-3.29,4.1-3.7a43.71,43.71,0,0,0,4.41-1.1l1.77-.5v0c.05.15.09.29.13.43l.38,1.44.78,2.87a2.79,2.79,0,0,0,2.25,2.14,3.31,3.31,0,0,0,3.14-.94,3.37,3.37,0,0,0,.76-3.23c-.27-1.07-.56-2.13-.85-3.21l-.32-1.21,1-.27c1-.29,2.14-.59,3.21-.85a1.31,1.31,0,0,1,.83.08,13.36,13.36,0,0,1,7,8.16c.19.59.36,1.2.51,1.8s.26,1,.4,1.44a1.25,1.25,0,0,0,.6.76,1.2,1.2,0,0,0,1.69-1.43c-.07-.29-.15-.57-.23-.86s-.17-.59-.24-.89a16.23,16.23,0,0,0-8.82-11.23.78.78,0,0,1-.32-.45c-.34-1.21-.66-2.43-1-3.64-.19-.71-.37-1.41-.56-2.11a2.7,2.7,0,0,0-3.68-2.14l-2.22.6-1.66.45-2.27.6-1.13.3L44.84,14.22l.06,0,.9.83a3.65,3.65,0,0,0,4.33.45,3.52,3.52,0,0,0,1.65-3.9,3.75,3.75,0,0,0-3.37-2.89c-4,0-7.86-.06-11.77,0a3.36,3.36,0,0,0-3.15,2.3A3.31,3.31,0,0,0,34,14.74a3.41,3.41,0,0,0,3.72,1.15A7,7,0,0,0,39.35,15l.13-.09L33.62,31.36l-1.74-.47-4.55-1.2a2.6,2.6,0,0,0-3.45,2l-.41,1.52c-.36,1.35-.74,2.74-1.09,4.12a.81.81,0,0,1-.65.67,11.43,11.43,0,0,0-7.62,7.79c-.3,1-.55,1.93-.8,2.88l-.23.87a6.08,6.08,0,0,0,1.21,5.6.76.76,0,0,1,.13.57c-.26,1-.55,2.12-.83,3.15l-.33,1.23a9.91,9.91,0,0,0,.43,6.54c1.5,3.53,4.31,5.55,8.86,6.37A1.24,1.24,0,0,0,24,72,1.21,1.21,0,0,0,23,70.68c-.58-.17-1.18-.33-1.76-.47L21,70.14a7.61,7.61,0,0,1-5.49-9.2c.73-2.91,1.54-5.88,2.24-8.45a3.11,3.11,0,0,1,3.83-2.28,1.23,1.23,0,0,0,1.53-.91,1.15,1.15,0,0,0-1-1.42,5.14,5.14,0,0,0-4.57,1,6.63,6.63,0,0,0-2.22,3.27,3.41,3.41,0,0,1,0-1.85c.29-1.2.6-2.44,1-3.64a9.15,9.15,0,0,1,6.44-6.46,1.66,1.66,0,0,1,.83,0c2.2.57,4.4,1.16,6.59,1.75l.55.14,3,.81,1.06.29c0,.37,0,.74,0,1.11a12.64,12.64,0,0,0,.08,2.76,37.37,37.37,0,0,0,1.38,5.29,4.74,4.74,0,0,0,2.83,3.11,2.28,2.28,0,0,1,1.47,1.86c.11.42.21.84.31,1.27a17.76,17.76,0,0,0,1.6,4.68.69.69,0,0,1,0,.41l-.18.69c-.31,1.17-.62,2.38-1,3.56a7.61,7.61,0,0,1-8.93,5.23c-1.05-.25-2.12-.54-3.14-.82l-1.74-.47a1.56,1.56,0,0,0-1.22.1,1.18,1.18,0,0,0-.52.76c-.15.66.28,1.23,1.12,1.45l4.2,1.12,1.68.44h2.56l0,0,.1,0a.47.47,0,0,1,.15-.06,9.91,9.91,0,0,0,8.07-7.3c.19-.65.37-1.32.55-2,.06-.23.12-.46.19-.69l.06,0a9.56,9.56,0,0,0,8.83,2.2c4.37-1.07,8.3-2.13,12-3.23A9.69,9.69,0,0,0,72.11,54.17Zm-26.77-43H46c.78,0,1.52,0,2.26,0a1.3,1.3,0,0,1,1.24,1.18,1.05,1.05,0,0,1-.69,1.14,1.24,1.24,0,0,1-1.57-.35l-1.46-1.55Zm7.83,29.16a.91.91,0,0,1-.58.38.79.79,0,0,1-1-.61c-.31-1.1-.6-2.2-.9-3.32l-.32-1.21L52,35.09c.1.4.21.79.32,1.19.32,1.2.62,2.34.9,3.5A.61.61,0,0,1,53.17,40.29ZM39.66,11.21l-.4.42c-.52.55-1,1.09-1.54,1.63a1.15,1.15,0,0,1-1.43.21,1,1,0,0,1-.7-1.08,1.19,1.19,0,0,1,.93-1.16c.48,0,.95,0,1.44,0h1.7ZM28.52,36.56a1.44,1.44,0,0,0,.63-1.1,1.47,1.47,0,0,0-.82-1,15.56,15.56,0,0,0-1.9-.56l-.59-.15.09-.36c.1-.42.2-.81.32-1.2s.18-.26.56-.15l.12,0,4.18,1.12,2.26.61,3.75,1c.32.09.44.2.48.46a9.42,9.42,0,0,0,.3,1.19l.06.21c.07.23,0,.29,0,.29s-.06,0-.3,0L34.4,36l-1.47-.39-.12,0-.2-.06a1.55,1.55,0,0,0-1,.08,1.08,1.08,0,0,0-.57.77c-.16.72.23,1.26,1.06,1.48.63.18,1.27.34,1.9.51l1.6.42.61.18.13,0-.91,1.83L24.69,38l.51-1.93.53.14c.59.16,1.14.31,1.71.43A1.33,1.33,0,0,0,28.52,36.56Zm23.22-10.4,1.63,6.08L40.23,35.76l-.9-3.29-.62-2.3c-.1-.41-.05-.53.25-.61l8.22-2.2,4.47-1.19ZM37.55,27.49l4.78-13.42,2.83,11.34ZM36.4,30.72l.38,1.47L36,32Zm19.29.89-1.63-6.08.33-.1a9.34,9.34,0,0,1,1.19-.29.85.85,0,0,1,.42.17c.45,1.56.86,3.11,1.31,4.74l.28,1.06Z"/></svg>
