
<svg id="Layer_1" data-name="Layer 1" xmlns="http://www.w3.org/2000/svg" viewBox="0 0 85.04 85.04"><defs><style>.cls-1{fill:#1d1d1b;}</style></defs><path class="cls-1" d="M76.19,38.7a2.82,2.82,0,0,0-3.14-1.88c-.35,0-.7,0-1.07,0h-.67c-.86,0-1.37.48-1.36,1.24a1.22,1.22,0,0,0,1.37,1.23c.65,0,1.37,0,2.1,0a.44.44,0,0,1,.27.05.43.43,0,0,1,.06.27c0,.46,0,.91,0,1.37v.6c0,.76,0,.76-.75.76H11.55a.42.42,0,0,1-.26,0,.44.44,0,0,1-.06-.28c0-.45,0-.91,0-1.37v-.59c0-.77,0-.77.73-.77H65.44c.78,0,1.84-.12,1.86-1.21a1.08,1.08,0,0,0-.28-.82,2.22,2.22,0,0,0-1.61-.44h-2.3v-1a2.62,2.62,0,0,0-2.79-2.78c-.83,0-1.66,0-2.49,0a2.56,2.56,0,0,0-2.69,2.64c0,.3,0,.6,0,.89v.2l-1.24,0a19.55,19.55,0,0,0-2.86.07A4.34,4.34,0,0,1,46.85,35a4.57,4.57,0,0,1-1.09-3.73h7.88a2.6,2.6,0,0,0,2.79-2.71c0-3,0-6,0-8.89,0-.89-.47-1.43-1.25-1.43h0c-.78,0-1.25.53-1.26,1.43s0,1.88,0,2.81v1.57c0,.15,0,.29,0,.44H30.06V20.93c0-3.09,0-6.17,0-9.26a.44.44,0,0,1,.06-.28c.06-.06.23-.06.39-.06h23a.52.52,0,0,1,.34.08.57.57,0,0,1,.07.36c0,.74,0,1.49,0,2.23v.59a1.79,1.79,0,0,0,.42,1.3,1.1,1.1,0,0,0,.87.31c.46,0,1.23-.22,1.24-1.58V11.67a2.6,2.6,0,0,0-2.81-2.8H47.46c-5.56,0-11.31,0-17,0h0a2.94,2.94,0,0,0-2.12.82,2.87,2.87,0,0,0-.8,2.13c.07,5.36.07,10.92,0,16.53a2.9,2.9,0,0,0,.8,2.19,3.06,3.06,0,0,0,2.19.8c1.73,0,3.49,0,5.19,0,.84,0,1.68,0,2.51,0h0A4,4,0,0,1,37,35.11a12,12,0,0,0-1.28,1.36,1,1,0,0,1-.81.37h0q-3.66,0-7.32,0H24.82V30.71a1.71,1.71,0,0,0-1.93-1.93c-3.12,0-6.23,0-9.35,0a1.67,1.67,0,0,0-1.88,1.9v5.69c0,.15,0,.3,0,.45h-.18a2.49,2.49,0,0,0-2.68,2.75v2.55a2.49,2.49,0,0,0,2.6,2.7c.64,0,1.27,0,1.91,0h2.54c0,.11,0,.21-.05.3L15.34,47c-.21.85-.41,1.7-.62,2.56a1.26,1.26,0,0,0,.84,1.54,1.23,1.23,0,0,0,1.56-.89c0-.13.07-.27.12-.46l1.17-4.8h2l-.93,3.86q-1.9,7.89-3.8,15.77c-.73,3-1.47,6-2.21,9,0,.1-.12.23-.11.25-.56,0-1.11,0-1.7,0h-.28c.05-.21.09-.4.13-.59l.85-3.48c1.24-5.15,2.49-10.3,3.7-15.45A1.71,1.71,0,0,0,15.77,53a1.2,1.2,0,0,0-1.26-.24,2,2,0,0,0-.83,1.13c-1.49,6-3,12.2-4.39,18.15l-.37,1.54a2,2,0,0,0,1.16,2.69l.06,0h4.45l.06,0A3.13,3.13,0,0,0,16,74.15Q18.6,63.08,21.29,52l1.11-4.56,2.51,10.39q2,8.37,4,16.76a2.52,2.52,0,0,0,1.26,1.65l.06,0h4.45l.06,0c1.24-.8,1.44-1.33,1.07-2.83q-3.09-12.8-6.17-25.58l-.72-3,.4,0H48.25c.22,0,.35,0,.41.08a.75.75,0,0,1,.08.44q0,6.38,0,12.76,0,7.83,0,15.65A2.56,2.56,0,0,0,50,76.27l.06,0h3.85l.11,0a2.21,2.21,0,0,0,1.33-2.35,10.83,10.83,0,0,1,0-1.28c0-.12,0-.24,0-.36H65.85v.29a11.39,11.39,0,0,1,0,1.17,2.4,2.4,0,0,0,1.24,2.53l0,0H71l.06,0a2.31,2.31,0,0,0,1.33-2.33q0-11.07,0-22.15V44.86c1.42,0,3.1,0,3.78-1.93l0-4.14ZM69.9,62.88v6.86H51.27V62.88ZM51.26,73.8V72.3h1.51v1.5ZM69.9,53.62v6.66H51.26V53.62ZM51.25,51V44.89H69.9V51ZM69.89,72.29v1.53H68.4V72.29ZM31.33,73.82l-7-29h.31c.57,0,1.11,0,1.64,0a.84.84,0,0,1,.17.33C27.63,50,28.79,54.81,30,59.61q1.5,6.18,3,12.36l.36,1.5c0,.11.05.23.07.35Zm-9-38.44v1.4H14.18v-1.4Zm0-4v1.37H14.16V31.36Zm31.17-2.58H30.74a1.87,1.87,0,0,1-.64-.05,2.19,2.19,0,0,1,0-.62V27.06H53.9v.25c0,.46,0,.92,0,1.34a.34.34,0,0,1-.17.12A.76.76,0,0,1,53.45,28.78ZM40.76,31.35H43.2a6.36,6.36,0,0,0,2,5.44H38.84A6.21,6.21,0,0,0,40.76,31.35Zm19.82,5.44H57.63a.49.49,0,0,0,0-.12,5.28,5.28,0,0,1,0-.81.51.51,0,0,1,.22-.24c.54,0,1.09,0,1.62,0h.84c.16,0,.21,0,.22,0a.31.31,0,0,1,0,.2c0,.26,0,.53,0,.81Z"/><path class="cls-1" d="M59.62,67.4l1,0q.49,0,1,0a1.13,1.13,0,0,0,.79-.38,1.24,1.24,0,0,0,.3-.91A1.15,1.15,0,0,0,61.48,65H60.31c-.23,0-.45,0-.68,0a1.2,1.2,0,0,0-1.14,1.16,1.15,1.15,0,0,0,.28.85A1.23,1.23,0,0,0,59.62,67.4Z"/><path class="cls-1" d="M59.67,58.18l.94,0c.3,0,.57,0,.85,0a1.17,1.17,0,0,0,1.16-1.28,1.24,1.24,0,0,0-1.25-1.21h-1c-.21,0-.41,0-.61,0A1.26,1.26,0,0,0,58.49,57,1.21,1.21,0,0,0,59.67,58.18Z"/><path class="cls-1" d="M61.48,46.64c-.56,0-1.16,0-1.85,0a1.17,1.17,0,0,0-1.14,1.15,1.1,1.1,0,0,0,.26.82,1.3,1.3,0,0,0,.86.48l.37,0h.85a4.73,4.73,0,0,0,.65,0,1.2,1.2,0,0,0,1.14-1.23A1.14,1.14,0,0,0,61.48,46.64Z"/></svg>
