
<svg id="Layer_1" data-name="Layer 1" xmlns="http://www.w3.org/2000/svg" viewBox="0 0 85.04 85.04"><path d="M79.45,58.31a2.21,2.21,0,0,1-2.09.95c-2.06,0-4.13,0-6.19,0-.46,0-.7.07-.85.6a7.35,7.35,0,0,1-14.08.07c-.17-.56-.42-.67-1-.67q-14.11,0-28.22,0a.8.8,0,0,0-.93.69,7.37,7.37,0,0,1-14.08,0c-.06-.21-.13-.41-.21-.65H7.74c-1.56,0-2-.46-2-2V23.19c0-1.48.44-1.92,1.93-1.92H51.93c1.5,0,2,.48,2,2v1.4H65.6c3.51,0,5.71,1.73,6.54,5.16.75,3.14,1.48,6.29,2.25,9.42A1.37,1.37,0,0,0,75,40c1.09.69,2.24,1.29,3.33,2a8,8,0,0,1,1.14,1ZM8.74,24.25V45.71H50.88V24.25ZM54,56.29a9.33,9.33,0,0,1,1.06,0c.7.08,1.06-.11,1.3-.88a7.27,7.27,0,0,1,6.32-5,7,7,0,0,1,7.21,4.19c.6,1.6,1.43,1.85,2.86,1.72,1.23-.11,2.48,0,3.74,0v-4c-1.35,0-2.66,0-4,0a1.47,1.47,0,0,1-1.68-1.67c0-1.32,0-2.64,0-4s.53-1.83,1.83-1.84h3.8l.12-.19a2.74,2.74,0,0,0-.51-.51c-.84-.51-1.67-1-2.55-1.47a3.81,3.81,0,0,0-1.54-.42c-3.53,0-7.05,0-10.58,0-1.41,0-1.91-.5-1.91-1.9V27.69H54Zm-42.13,0c1.74-4.23,3.92-6,7.54-5.85s6,2.33,7,5.82H50.9V54H50c-4,0-8.06,0-12.09,0a1.5,1.5,0,0,1-1.68-1.68C36.33,51.49,37,51,38,51H50.88V48.75H8.75v7.52Zm59.37-17.1a.44.44,0,0,0,0-.19c-.71-3-1.4-6.11-2.15-9.14a2.64,2.64,0,0,0-2.32-2.1c-1.41-.14-2.85,0-4.27,0V39.17ZM63.32,53.38a4.36,4.36,0,0,0-4.45,4.23,4.39,4.39,0,1,0,8.78.25A4.34,4.34,0,0,0,63.32,53.38ZM14.73,57.75a4.39,4.39,0,1,0,4.37-4.37A4.34,4.34,0,0,0,14.73,57.75Zm59-9.93v1.41h2.66V47.82Z"/><path d="M32.17,54c-1.65.16-2.24-.84-2.11-1.68a1.37,1.37,0,0,1,.08-.35c.49-1.1,1.47-1,2.4-.95a1.55,1.55,0,0,1,1.62,1.06A1.49,1.49,0,0,1,32.86,54,5.23,5.23,0,0,1,32.17,54Z"/></svg>
