
<svg id="Layer_1" data-name="Layer 1" xmlns="http://www.w3.org/2000/svg" viewBox="0 0 85.04 85.04"><path d="M80.6,26.24c-.11.48-.21,1-.34,1.42a5.79,5.79,0,0,1-5.62,4.47c-1.22.08-2.45.07-3.68.1h-.89l.86,4.41c.71,3.65,1.44,7.3,2.14,11A1.32,1.32,0,0,0,74,48.79a7.12,7.12,0,0,1,4.66,6.7,17.91,17.91,0,0,1-.33,3.8c-.65,3-2.76,4.73-6.23,5.25a.82.82,0,0,0-.81.66,8.31,8.31,0,0,1-16.09.1c0-.17-.1-.33-.17-.55-.2,0-.41,0-.63,0H31.86c-.51,0-.71.13-.85.64A8.31,8.31,0,0,1,15,65.3c0-.17-.1-.33-.15-.46a30.05,30.05,0,0,1-3-.43A8.76,8.76,0,0,1,5.13,56q0-15.13,0-30.28A8.83,8.83,0,0,1,13.81,17q30,0,60.05,0a9.4,9.4,0,0,1,3,.52,5.38,5.38,0,0,1,3.41,4.21c.1.43.2.86.31,1.28ZM56.75,29.05H72.49a21.44,21.44,0,0,0,2.27-.14,2.47,2.47,0,0,0,2.43-2.25,17.25,17.25,0,0,0,.12-3.73c-.14-1.81-1.19-2.66-3-2.73q-.56,0-1.11,0H14.67c-.4,0-.79,0-1.18,0a5.59,5.59,0,0,0-5.12,5.09c-.08,1.64-.07,3.29-.07,4.93,0,8.38,0,16.75,0,25.13a5.85,5.85,0,0,0,5.62,6.19c.69,0,.95-.17,1.14-.84a8.34,8.34,0,0,1,16,.23c.07.23.29.54.49.58a9.81,9.81,0,0,0,1.55,0V29.1H51.71V61.48H55c1-3.72,3.33-6.16,7.13-6.57,4.85-.52,7.87,2,9.32,6.51C74,61,75,60.13,75.39,57.91a10.89,10.89,0,0,0,.09-2.49,4,4,0,0,0-3-3.81,11,11,0,0,0-3-.43c-4,0-8,0-11.94,0h-.79ZM36.26,32.27V61.49H48.44V32.27Zm23.72,0V47.9h9.89l-.1-.64c-.86-4.37-1.73-8.74-2.57-13.12-.37-1.91-.34-1.91-2.26-1.91ZM22.9,68.28a5.15,5.15,0,1,0-5.09-5.21A5.1,5.1,0,0,0,22.9,68.28Zm40.36,0a5.12,5.12,0,0,0,5.13-5.16A5.19,5.19,0,0,0,63.25,58a5.28,5.28,0,0,0-5.2,5.22A5.2,5.2,0,0,0,63.26,68.29Z"/><path d="M28.76,42.86H12.54V29.1H28.76Zm-3.18-3.2V32.27H15.73v7.39Z"/></svg>
