<svg id="Layer_1"  data-name="Layer 1" xmlns="http://www.w3.org/2000/svg" viewBox="0 0 85.04 85.04"><path d="M57.86,60.19H27c0,.82-.06,1.63,0,2.44a4.9,4.9,0,0,1-5.31,5.3c-1.87-.05-3.75,0-5.61-.11a4.68,4.68,0,0,1-4.2-4.68c0-1,0-2.1,0-3.14a1.1,1.1,0,0,0-.4-.76,5.28,5.28,0,0,1-2.29-4.48c0-2.94,0-5.89,0-8.83a11.09,11.09,0,0,1,2.87-7.58c.81-.91,1.6-1.84,2.45-2.82-.69-.08-1.31-.09-1.89-.21A3.56,3.56,0,0,1,9.78,32a14.59,14.59,0,0,1,0-1.87,3.67,3.67,0,0,1,3.45-3.34c.42,0,.84,0,1.27,0a1.55,1.55,0,0,1,1.6,1.45A1.53,1.53,0,0,1,14.72,30,6.13,6.13,0,0,1,14,30c-1,0-1,.07-1,1,0,1.12,0,1.15,1.19,1.15,1.54,0,1.54,0,2-1.44.69-2.21,1.32-4.44,2.07-6.63A11.77,11.77,0,0,1,29.55,16H55.23a11.81,11.81,0,0,1,11.6,8.52c.74,2.35,1.46,4.7,2.15,7.07.14.46.34.67.83.6.3,0,.6,0,.9,0,1.13,0,1.61-.73,1.15-1.79a.85.85,0,0,0-.57-.36c-.36-.07-.75,0-1.11-.06a1.53,1.53,0,0,1-1.4-1.72,1.55,1.55,0,0,1,1.57-1.48,4.41,4.41,0,0,1,3.73,1.13,3.48,3.48,0,0,1,1,2.27c0,.5,0,1,0,1.49a3.72,3.72,0,0,1-3.88,3.78h-.89c.19.25.3.42.43.57.82,1,1.68,1.91,2.48,2.9a10.79,10.79,0,0,1,2.42,6.92c0,3,0,5.94,0,8.91a5.35,5.35,0,0,1-2.27,4.48,1.31,1.31,0,0,0-.42.83c0,1,0,2.1,0,3.14a4.64,4.64,0,0,1-4.18,4.61,51,51,0,0,1-6.88,0,4.58,4.58,0,0,1-4-4.55C57.85,62.25,57.86,61.25,57.86,60.19Zm14.66-6.55H71.46c-2.22,0-4.45,0-6.67,0a4.8,4.8,0,0,1-4.49-3.66,16,16,0,0,1-.2-3.79A4.75,4.75,0,0,1,64,41.49a31.62,31.62,0,0,1,5.51-.12c.35,0,.79.45,1,.8a1.54,1.54,0,0,1-1.33,2.31c-1.22.06-2.44,0-3.66,0a2,2,0,0,0-2.26,2.27q0,.67,0,1.35a2,2,0,0,0,2.3,2.3h6.29c.19,0,.38,0,.6,0,0-1.65,0-3.24,0-4.83a7.76,7.76,0,0,0-2-5c-.84-1-1.7-1.89-2.5-2.89a5.44,5.44,0,0,1-.9-1.59c-1.17-3.65-2.25-7.33-3.44-11a8.12,8.12,0,0,0-7.65-5.81q-13.36-.15-26.73,0a8.4,8.4,0,0,0-8,6.18c-.57,1.8-1.16,3.6-1.66,5.42-1,3.64-2.09,7.23-5.13,9.8a3.28,3.28,0,0,0-.45.59A6.93,6.93,0,0,0,12.51,45c-.09,1.75,0,3.5,0,5.24,0,.07.06.13.11.21,2.37,0,4.74,0,7.11,0a1.89,1.89,0,0,0,1.93-2V46.81c0-1.57-.7-2.28-2.28-2.3-1.17,0-2.35,0-3.52,0a1.6,1.6,0,1,1,.07-3.19c1.3,0,2.6,0,3.9,0a5,5,0,0,1,5,4.23,15,15,0,0,1,.11,3.28,5.07,5.07,0,0,1-4.93,4.8c-1.51.06-3,0-4.56,0H12.57c-.39,2,.25,3.35,2.6,3.31,4.89-.1,9.79,0,14.68,0h.95V52c0-1.54.58-2.12,2.13-2.12H52c1.62,0,2.16.54,2.16,2.14v4.92H70.35a1.86,1.86,0,0,0,2-1.4A16.83,16.83,0,0,0,72.52,53.64Zm-21.71-.49H34.07v3.69H50.81ZM15.16,60.2c0,1,0,1.89,0,2.81a1.51,1.51,0,0,0,1.57,1.63c1.82,0,3.64,0,5.46,0a1.42,1.42,0,0,0,1.52-1.27c.07-1,0-2.08,0-3.17Zm45.94,0c0,1,0,1.93,0,2.87a1.49,1.49,0,0,0,1.56,1.57c1.82,0,3.64,0,5.46,0a1.45,1.45,0,0,0,1.53-1.18c.08-1.08,0-2.17,0-3.26Z"/><path d="M42.44,32.18h19c1.44,0,2.3,1.31,1.55,2.41a3.07,3.07,0,0,1-1.26.8,2,2,0,0,1-.82,0H24a5.15,5.15,0,0,1-1.11-.09,1.54,1.54,0,0,1-1.21-1.65,1.61,1.61,0,0,1,1.43-1.49,6.26,6.26,0,0,1,.75,0Z"/><path d="M42.36,44.46H29.5a1.6,1.6,0,0,1-1.73-1.78,1.53,1.53,0,0,1,1.28-1.37,6.24,6.24,0,0,1,1-.05H54.85c.25,0,.5,0,.75,0a1.59,1.59,0,0,1-.07,3.17c-1.87,0-3.74,0-5.61,0Z"/></svg>
