
<svg id="Layer_1" data-name="Layer 1" xmlns="http://www.w3.org/2000/svg" viewBox="0 0 85.04 85.04"><defs><style>.cls-1{fill:#1d1d1b;}</style></defs><path class="cls-1" d="M57.8,54.36h8.52c.61,0,.77.15.77.73,0,.35,0,.7,0,1s0,.62,0,.93c0,.87.46,1.42,1.19,1.42h0c.56,0,1.17-.38,1.18-1.43v-.21c0-.63,0-1.26,0-1.89a2.92,2.92,0,0,0-3.09-3H65v-8.3Q65,34,65,24.24a11.43,11.43,0,0,0-8.3-11.32c-.39-.11-.8-.2-1.2-.29l-.58-.13H52.11l-.68.15c-.48.11-1,.22-1.46.38A11.46,11.46,0,0,0,42,24c0,4.55,0,9.11,0,13.66V48.49c0,4.18,0,8.35,0,12.53a5.69,5.69,0,0,1-4.42,5.71,5.76,5.76,0,0,1-4.83-1,5.9,5.9,0,0,1-2.22-4.51c0-2.22,0-4.48,0-6.66l0-2.1a.54.54,0,0,1,.06-.18,3.37,3.37,0,0,0,2-3.44c0-.16,0-.32,0-.48v0a8.4,8.4,0,0,0,3.75-1.51,8.26,8.26,0,0,0,3.57-6.86c0-2.47,0-5,0-7.39,0-1.06,0-2.12,0-3.18,0-2.48-.82-3.63-3.13-4.3V22.74c0-.67,0-1.34,0-2,0-1.53,0-3.11,0-4.66a3.27,3.27,0,0,0-2.29-3.56H33.26l-.1,0a3.31,3.31,0,0,0-2.29,3.56c0,2,0,4.06,0,6,0,.84,0,1.69,0,2.53V25H24.55V22.1c0-2,0-4,0-6a3.33,3.33,0,0,0-2.24-3.58L21,12.5l-.33.13-.42.22a2.85,2.85,0,0,0-1.52,2.58v9.62a3.91,3.91,0,0,0-3.12,2.86l0,6.24.07.08a1.27,1.27,0,0,0,1.51.58,1.3,1.3,0,0,0,.77-1.42q0-2.2,0-4.41a1.39,1.39,0,0,1,1.59-1.6H36c.7,0,1.54.24,1.54,1.4v2.09c0,3.17,0,6.45-.08,9.67a5.88,5.88,0,0,1-5.58,5.4c-3,.07-5.64.08-8,0a6,6,0,0,1-6-6.14c0-.55,0-1.11,0-1.67a1.24,1.24,0,0,0-2.27-.92l-.08.08V41l.08.22,0,.09a8.17,8.17,0,0,0,4.25,5.94,12.26,12.26,0,0,0,2.14.86l.82.28v.05c0,.24,0,.51,0,.79a3.17,3.17,0,0,0,1.78,2.88c.21.11.25.19.25.45,0,2.73,0,5.45,0,8.18A14.71,14.71,0,0,0,25.07,63a11.27,11.27,0,0,0,5.15,7.8,11.41,11.41,0,0,0,6.09,1.77,11.1,11.1,0,0,0,3.17-.46,11.42,11.42,0,0,0,8.23-11V44.65q0-10.38,0-20.77a5.76,5.76,0,0,1,7-5.61,5.8,5.8,0,0,1,4.62,5.87V52H57.77a3,3,0,0,0-3,3v8.65A3,3,0,0,0,56,66.15a.62.62,0,0,1,.2.38c0,.54,0,1.08,0,1.62v1.16a3.11,3.11,0,0,0,3.27,3.23h5.4A3.07,3.07,0,0,0,68,69.39q0-1.4,0-2.79c0-.26,0-.35.21-.47a2.68,2.68,0,0,0,1.21-2.25c0-.8,0-1.6,0-2.39a1.14,1.14,0,0,0-1.17-1.28h0a1.17,1.17,0,0,0-1.17,1.3q0,.59,0,1.17c0,.31,0,.62,0,.93,0,.53-.16.69-.68.69q-4.29,0-8.59,0c-.49,0-.68-.18-.68-.65q0-4.32,0-8.64C57.14,54.57,57.33,54.39,57.8,54.36ZM27.28,52.5h.92v2.82c0,2,0,4,0,5.93a8.1,8.1,0,0,0,7.67,8,8.2,8.2,0,0,0,8.45-6.87,12.93,12.93,0,0,0,.11-1.78V24.16A8.79,8.79,0,0,1,49.08,16a8.88,8.88,0,0,1,8.39-.24,9,9,0,0,1,5,6.77,9.54,9.54,0,0,1,.11,1.4v28h-.92v-28a8.13,8.13,0,0,0-8.16-8.17h-.14a8.1,8.1,0,0,0-8,7.82c0,.31,0,.63,0,.94V34.91q0,13,0,26a9.11,9.11,0,0,1-6.46,8.94,9,9,0,0,1-7.45-1,8.92,8.92,0,0,1-4.06-6.27,8.37,8.37,0,0,1-.1-1.17V52.5Zm2.87-3a.75.75,0,0,1-.81.59c-1.25,0-2.28,0-3.23,0a.78.78,0,0,1-.83-.75,5.87,5.87,0,0,1,0-.84V48.4h4.9a1,1,0,0,0,0,.17A4.24,4.24,0,0,1,30.15,49.52ZM34.42,25H33.29V15.72a2.75,2.75,0,0,1,0-.41c0-.24.17-.46.46-.43a1.57,1.57,0,0,1,.64.45.9.9,0,0,1,0,.24v.08C34.43,18.77,34.42,21.89,34.42,25ZM22.17,22.9V25H21V15.74a1.67,1.67,0,0,1,0-.4.54.54,0,0,1,.6-.48.5.5,0,0,1,.51.5Q22.18,19.11,22.17,22.9ZM64.91,69a1.14,1.14,0,0,0-1.16-1.22h0A1.16,1.16,0,0,0,62.57,69c0,.34,0,.68,0,1v.16H61.8V70c0-.33,0-.67,0-1a1.14,1.14,0,0,0-1.16-1.27h0a1.18,1.18,0,0,0-1.17,1.3c0,.28,0,.56,0,.85v.26a.8.8,0,0,1-.57-.15.87.87,0,0,1-.24-.7c0-.66,0-1.31,0-2v-.58h7.06c0,.21,0,.42,0,.64,0,.73,0,1.42,0,2.12a.6.6,0,0,1-.19.46.88.88,0,0,1-.53.19V70C64.92,69.65,64.92,69.3,64.91,69Z"/><path class="cls-1" d="M30.4,31.44a1.12,1.12,0,0,0-.79-.36h0a1.58,1.58,0,0,0-1.09.54l-1.22,1.22-2.22,2.22a1.62,1.62,0,0,0-.5,1.84,1.53,1.53,0,0,0,1.58,1h1.34l-.94.93c-.41.41-.82.83-1.24,1.24a1.23,1.23,0,0,0-.17,1.84,1.08,1.08,0,0,0,.79.36h0a1.49,1.49,0,0,0,1-.51l1.5-1.5,1.9-1.9a1.59,1.59,0,0,0-1.16-2.84H28l2.18-2.18C31,32.46,30.76,31.82,30.4,31.44Z"/></svg>
