
<svg id="Layer_1" data-name="Layer 1" xmlns="http://www.w3.org/2000/svg" viewBox="0 0 85.04 85.04"><defs><style>.cls-1{fill:#1d1d1b;}</style></defs><path class="cls-1" d="M73.92,38.76a3.44,3.44,0,0,0-.15-1.1,21.8,21.8,0,0,1-.93-8c0-.42,0-.84,0-1.25v-.51c0-1.1-.42-1.51-1.53-1.51H58.88l0,0a9.85,9.85,0,0,0-5.92-8.93l-2.06-1c-1.21-.62-2.46-1.26-3.72-1.83a3.86,3.86,0,0,1-2.3-2.26,1.62,1.62,0,0,0-1-.94l-.83-.22a17.77,17.77,0,0,0-5.92-.92,50.71,50.71,0,0,1-5.23,0,22.35,22.35,0,0,0-6.94.81A2.89,2.89,0,0,0,22.64,13a2,2,0,0,1-1.23,1.23l-.89.43c-2.07,1-4.2,2-6.26,3.16A9.42,9.42,0,0,0,9,26.48C9,28.24,9,30,9,31.77v4.38c0,1.78,0,3.56,0,5.34a1.21,1.21,0,0,0,1.36,1.39h7.25V62.75c0,1.33.35,1.67,1.7,1.67H43.48v9.3c0,1,.43,1.47,1.42,1.47H55.27c.92,0,1.33-.35,1.43-1.25q.6-4.84,1.18-9.69c.23-2,.47-3.9.7-5.85,0-.17.05-.35.07-.52.35,2.1.6,4.19.85,6.22l.32,2.7c.29,2.35.57,4.69.86,7,.13,1,.48,1.35,1.55,1.35H72.39c1.15,0,1.53-.4,1.53-1.57V38.76ZM71.44,70.92V72.7H63l-.21-1.78Zm-16.87,0-.2,1.78H46V70.91Zm-37-32.3v1.77H11.52V38.61ZM60,32.84V28.92h1.78v3.92Zm-4.3,0V28.92h1.77v3.92Zm-2.55-3.92v3.93H51.35V28.92Zm-8.56.9a21.08,21.08,0,0,1-.92,7.76,4.21,4.21,0,0,0-.16,1.3v23H35.16V55.74q0-13.37,0-26.73a.76.76,0,0,1,.5-.83c1.24-.6,2.5-1.23,3.71-1.84l3.44-1.72a1.54,1.54,0,0,0,1-1.61c0-.65,0-1.29,0-2,0-.25,0-.51,0-.77h2.9a1.43,1.43,0,0,0,1.24-.57,1.42,1.42,0,0,0,0-1.36l-.35-.71-.06-.11,1.45.71c1.23.6,2.5,1.22,3.71,1.91a7.2,7.2,0,0,1,3.75,6.29H46.09c-1.15,0-1.53.4-1.54,1.56v.55C44.54,29,44.54,29.39,44.56,29.82ZM40.55,14V13.1l.39.1c.58.14,1.14.28,1.69.43a.4.4,0,0,1,.2.16c.56,1.09,1.1,2.19,1.68,3.34l.34.69h-2.1c-1,0-1.42.44-1.42,1.4q0,.51,0,1c0,.66,0,1.34,0,2a.61.61,0,0,1-.23.44c-1.73.89-3.5,1.77-5.21,2.62l-.67.33h0A3.19,3.19,0,0,1,36,22.77c1.28-1.36,2.47-2.85,3.62-4.29l.45-.57a2.38,2.38,0,0,0,.47-1.29C40.57,15.76,40.56,14.9,40.55,14Zm8.27,15v3.92H47V28.94ZM71.47,60.59v7.79H62.53l-.09-.68c-.08-.57-.15-1.15-.22-1.73q-.45-3.64-.88-7.29l-.68-5.62q-.36-3-.73-6c-.12-1-.72-1.2-1.19-1.21A1.21,1.21,0,0,0,57.47,47q-.4,3.31-.8,6.61L56.27,57c-.22,1.74-.43,3.48-.64,5.23l-.53,4.3c-.05.47-.11.94-.16,1.42l0,.47h-9V60.61c0-6.59,0-13.41,0-20.12a18.79,18.79,0,0,1,.74-4.63l.12-.49H70.64a20.31,20.31,0,0,1,.86,5.26C71.46,47.28,71.46,54.05,71.47,60.59ZM70.35,28.94v3.92H68.58V28.94Zm-4.31,0v3.92H64.27V28.94ZM29.83,14.56V12.78h8.23v1.78Zm-9.7,29.05V39.69h6.09v3.92Zm0,2.51h7.09c1.07,0,1.49-.41,1.49-1.47V34.35c0-1-.42-1.45-1.45-1.46H20.09V30.17a1.71,1.71,0,0,0-.4-1.28,1.06,1.06,0,0,0-.85-.3c-.8,0-1.2.53-1.2,1.55v5.94H11.48v-.52c0-.88,0-1.76,0-2.64,0-2,0-4.07,0-6.11a7.35,7.35,0,0,1,4.31-7l4.59-2.29-.05.09c-.14.29-.27.53-.38.78a1.23,1.23,0,0,0,1.17,1.87c.69,0,1.39,0,2.12,0h.86V21c0,.68,0,1.33,0,2a1.57,1.57,0,0,0,1,1.65l4.09,2,3.07,1.52a.64.64,0,0,1,.44.67q0,13.9,0,27.8v5.26H20.12Zm7.23-29.55a2.52,2.52,0,0,0,.47,1.35c1.6,2,2.94,3.61,4.22,5.07a2.34,2.34,0,0,1,.68,1.94,3.62,3.62,0,0,0,0,.58.37.37,0,0,1,0,.11l-.29-.11-1.77-.89c-1.23-.61-2.46-1.23-3.7-1.83a.62.62,0,0,1-.41-.68c0-.8,0-1.62,0-2.41v-.49a1.22,1.22,0,0,0-1.37-1.39H23q.2-.39.39-.75a20.12,20.12,0,0,0,1-2.11,2.3,2.3,0,0,1,2.1-1.68,5.26,5.26,0,0,0,.65-.12l.16,0c0,.29,0,.58,0,.87C27.31,14.88,27.31,15.72,27.35,16.57ZM20.14,37.19v-1.8h6.05v1.8Zm17.4-20.11-3.6,4.33-3.61-4.33Z"/></svg>
