
<svg id="Layer_1" data-name="Layer 1" xmlns="http://www.w3.org/2000/svg" viewBox="0 0 85.04 85.04"><defs><style>.cls-1{fill:#1d1d1b;}</style></defs><path class="cls-1" d="M70.87,71.26v-.42A9.49,9.49,0,0,0,66,62.57a.58.58,0,0,1-.33-.6c0-.33,0-.67,0-1a29.77,29.77,0,0,0-.1-3,8.79,8.79,0,0,0-13.53-6.37,13.05,13.05,0,0,0-1.5,1.19l-.48.42v-.11a6.36,6.36,0,0,0,0-.87,1,1,0,0,1,.47-1c.63-.5,1.22-1,1.91-1.67A8.09,8.09,0,0,0,54.9,45.5c.15-.62.24-1.25.34-1.91,0-.27.07-.55.12-.83l.21-.08a8,8,0,0,0,5.34-7.22c.14-2.05.1-4.15.06-6.19V29a4.18,4.18,0,0,0-2.4-3.83.86.86,0,0,1-.51-.66,16.49,16.49,0,0,0-3.5-7.22,1.27,1.27,0,0,1-.25-.67,3.12,3.12,0,0,0-1.11-2.29c-.6-.52-1.21-1-1.82-1.49a1.69,1.69,0,0,0-2.19-.05.64.64,0,0,1-.5.06,16.6,16.6,0,0,0-13.56,0,.64.64,0,0,1-.5-.06,1.71,1.71,0,0,0-2.2.05c-.58.45-1.17.94-1.82,1.49a3.11,3.11,0,0,0-1.1,2.29,1.36,1.36,0,0,1-.25.68,16.37,16.37,0,0,0-3.49,7.22.87.87,0,0,1-.53.65,4,4,0,0,0-2.34,3.41c-.12,2.56-.13,4.65,0,6.56a8.09,8.09,0,0,0,5.44,7.59c.25.1.25.22.25.46v.08a8.71,8.71,0,0,0,2.76,6.29c.43.41.88.8,1.31,1.17l.81.71,0,0c.09.08.23.21.23.28,0,.52,0,1,0,1.54v.24L33.22,53a11.83,11.83,0,0,0-1.55-1.31,8.67,8.67,0,0,0-8.36-.86,1.22,1.22,0,0,0-.8.87.94.94,0,0,0,.29.9,1.19,1.19,0,0,0,1.41.12,6.73,6.73,0,0,1,9.07,4.72A1.08,1.08,0,0,1,32.65,59a2.52,2.52,0,0,1-.74.28c-.69.15-1.43.31-2.17.41a.66.66,0,0,1-.53-.17c-.43-.56-.81-1.16-1.2-1.78a2.62,2.62,0,0,0-3.52-1,2.59,2.59,0,0,0-1,3.49l.28.53,0,.08L20,61.63c0-.28,0-.56,0-.83,0-2-.08-3.88,1.14-5.58a1,1,0,0,0,.2-.81,1.06,1.06,0,0,0-.49-.68,1,1,0,0,0-1.43.35A7.7,7.7,0,0,0,18,57.92c-.06.8-.07,1.62-.08,2.41,0,.59,0,1.2-.05,1.8a.9.9,0,0,1-.32.55,5.73,5.73,0,0,1-.63.47,7.77,7.77,0,0,0-.66.51,9.72,9.72,0,0,0-3.31,8.15,1.62,1.62,0,0,0,.63,1.39l0,0h.8l0,0a1.57,1.57,0,0,0,.63-1.47,7.74,7.74,0,0,1,1.32-5.15,7.19,7.19,0,0,1,3.35-2.64,14.24,14.24,0,0,1,2.69,7c0,.3.05.62,0,.94a1.59,1.59,0,0,0,.6,1.35l0,0h.8l0,0a1.41,1.41,0,0,0,.65-1.38,16,16,0,0,0-2.25-7.69L22,63.58l-.12-.2.64-.13c.81-.17,1.58-.33,2.35-.46a.48.48,0,0,1,.38.21,17.59,17.59,0,0,1,2.6,8.19c0,.12,0,.24,0,.35a1.78,1.78,0,0,0,.62,1.66l0,0h.8l0,0A1.57,1.57,0,0,0,30,71.53c0-.15,0-.3,0-.45H53.62c0,.13,0,.27,0,.4,0,.63-.08,1.27.62,1.72l0,0h.8l0,0a1.77,1.77,0,0,0,.63-1.39c.1-1.13.25-2.28.39-3.39v-.11A1.08,1.08,0,0,0,55.4,67a1.06,1.06,0,0,0-1.31.86c0,.13-.05.28-.07.43s-.07.53-.19.6A1.6,1.6,0,0,1,53,69H42.85c0-.48,0-1,0-1.43a35.22,35.22,0,0,1,.07-3.72,3.42,3.42,0,0,1,.63-1.4c.13-.2.26-.41.37-.62a.34.34,0,0,1,.17-.07,12.53,12.53,0,0,0,4.83-2c1,1.33,2.44,1.58,3.84,1.82.39.07.79.14,1.17.23.57.13,1.14.24,1.74.36l.67.12-.16.29c-.17.32-.33.63-.48.94a1,1,0,0,0,.41,1.45,1,1,0,0,0,1.43-.5c.3-.53.55-1,.78-1.43a.38.38,0,0,1,.51-.26l2.38.48.74.15,0,0c-.16.27-.31.51-.45.76a15.92,15.92,0,0,0-2.23,7.63,1.41,1.41,0,0,0,.66,1.38l0,0h.8l0,0a1.78,1.78,0,0,0,.61-1.61v-.16a14,14,0,0,1,2.71-7.5,7.38,7.38,0,0,1,4,3.66,8.12,8.12,0,0,1,.72,4.15,1.56,1.56,0,0,0,.62,1.46l0,0h.8l0,0a1.49,1.49,0,0,0,.63-1.41A4.68,4.68,0,0,1,70.87,71.26ZM52.2,22.06c0,.65,0,1.31,0,2v.56h-1.6V14.9h0c.92.65,1.71,1.22,1.63,2.56C52.16,19,52.18,20.55,52.2,22.06ZM47.19,51c0-.26,0-.53,0-.79a9.64,9.64,0,0,0-.12-1.86,2.4,2.4,0,0,0-2.48-1.93H39.23A2.58,2.58,0,0,0,36.61,49c0,.59,0,1.18,0,1.79v.64l-.18-.13L33,48.22a6.59,6.59,0,0,1-2.29-5H37.2c.29,0,.41,0,.52.35a2.12,2.12,0,0,0,2.12,1.51h3.85a2.26,2.26,0,0,0,2.19-1.52.6.6,0,0,1,.34-.32c2,0,4,0,6,0h.9l.09,0h0a6.55,6.55,0,0,1-2,4.64c-.9.85-1.82,1.65-2.81,2.5-.38.33-.77.66-1.16,1V51Zm-2.72,5.77c0-.07.14-.19.22-.26l.08-.07c.5-.47,1.09-1,1.7-1.58.37-.34.74-.66,1.16-1l.4-.35v.75c0,1.17,0,2.26,0,3.35a.49.49,0,0,1-.12.31,9.62,9.62,0,0,1-3.44,1.64v-.59C44.45,58.16,44.45,57.45,44.47,56.74ZM25.52,58.59a.57.57,0,0,1,.27-.07c.19,0,.36.13.5.39a9.71,9.71,0,0,0,2.5,3.1,9.56,9.56,0,0,0,7.9,2.29,5.67,5.67,0,0,0,4.61-5.41c0-.45,0-.89,0-1.36V57h1a7.49,7.49,0,0,1-1.89,6.41,7.21,7.21,0,0,1-6,2.06,11.34,11.34,0,0,1-8.92-5.85l-.12-.2a1,1,0,0,1-.12-.48A.44.44,0,0,1,25.52,58.59Zm9.33,1.21L38,61.35a2.71,2.71,0,0,1-1.7.94,7.22,7.22,0,0,1-4.58-.87A4.66,4.66,0,0,0,34.85,59.8Zm4.08-3.47c.25.18.34.29.33.55,0,.64,0,1.27,0,1.93v.66A9.29,9.29,0,0,1,36,57.9a.61.61,0,0,1-.19-.4c0-1.06,0-2.15,0-3.19v-.89h0l.47.46,1.27,1.24.09.09A14.29,14.29,0,0,0,38.93,56.33Zm2.35-1.48a2.45,2.45,0,0,1-2.59-2.47c0-1,0-2,0-3v-.22c0-.52.19-.7.74-.71h4.91c.58,0,.76.18.77.74v.33c0,.93,0,1.9,0,2.85a2.43,2.43,0,0,1-2.56,2.49Zm2.55-11.93a2,2,0,0,1-.57.1h-3a.69.69,0,0,1-.64-.29.62.62,0,0,1,.1-.64,16,16,0,0,1,1.4-1.77A.92.92,0,0,1,41.8,40h0a1,1,0,0,1,.71.32A10.91,10.91,0,0,1,43.81,42,1.4,1.4,0,0,1,43.83,42.92Zm6.27-1.79H46.5a1.24,1.24,0,0,1-1.08-.53c-.36-.48-.75-1-1.18-1.46A3.16,3.16,0,0,0,41.81,38h0a3.19,3.19,0,0,0-2.43,1.22c-.4.47-.78.94-1.13,1.42a1.23,1.23,0,0,1-1.07.54c-.79,0-1.58,0-2.37,0-1.31,0-2.67,0-4,0a6.16,6.16,0,0,1-5.86-5.93c0-2,0-4,0-5.88V29a2.25,2.25,0,0,1,2-2.3,6.68,6.68,0,0,1,.88,0H56.21a2.38,2.38,0,0,1,2.56,1.68,2.13,2.13,0,0,1,.1.67v1.27c0,1.57,0,3.2,0,4.8a6.14,6.14,0,0,1-5.93,6C52,41.12,51,41.13,50.1,41.13ZM40.69,66v3H30.17c-.4,0-.51-.1-.58-.51-.12-.64-.29-1.26-.47-1.91L29,66C33.64,68.15,37.27,68.14,40.69,66ZM54.32,24.59V20.37h0l1.73,4.23ZM33.21,18A.91.91,0,0,0,34,19a1.63,1.63,0,0,0,1-.33,1.11,1.11,0,0,0,.26-.8c0-.37,0-.73,0-1.09s0-.92,0-1.38a.74.74,0,0,1,.3-.51,14.22,14.22,0,0,1,12.58,0,.66.66,0,0,1,.32.39c0,2.56,0,5.17,0,7.7v1.58H35.28V22.5a1.37,1.37,0,0,0-.34-1,1.07,1.07,0,0,0-.73-.26c-.37,0-1,.19-1,1.25,0,.49,0,1,0,1.49v.61H31.58V22.13c0-1.64,0-3.33,0-5a1.68,1.68,0,0,1,.76-1.58c.23-.16.45-.33.69-.53l.19-.16V18ZM27.86,24.6a14,14,0,0,1,1.6-4v4ZM63.59,60.73c0,.28,0,.56,0,.85l-.76-.15-2-.39-1.68-.33L52,59.26a2.45,2.45,0,0,1-1-.43c-.7-.56-.86-.86-.6-1.72a6.82,6.82,0,0,1,6.42-4.86,6.61,6.61,0,0,1,.76,0,6.71,6.71,0,0,1,6,6.42C63.6,59.38,63.59,60,63.59,60.73Z"/><path class="cls-1" d="M57.54,30.82V29.41c0-1-.35-1.32-1.31-1.33H27.78c-1.23,0-1.52.29-1.52,1.54V31.2c0,1.22,0,2.48,0,3.71a4.88,4.88,0,0,0,4.89,4.86H36c1.08,0,1.12,0,1.76-.83l.44-.56.19-.23,0,0a4.47,4.47,0,0,1,3.34-1.51h0a4.45,4.45,0,0,1,3.35,1.54c.14.16.27.32.4.49s.36.46.56.67a1.44,1.44,0,0,0,.77.45c.36,0,.73,0,1.13,0l1.11,0a.93.93,0,0,0,.68-.33,1,1,0,0,0-.72-1.71h0a2.36,2.36,0,0,0-.46,0,1.78,1.78,0,0,1-1.79-.82,6.23,6.23,0,0,0-6.71-2.15,6.42,6.42,0,0,0-3.61,2.49c-.17.22-.44.45-.63.45-1.73,0-3.26.06-4.68,0a2.8,2.8,0,0,1-2.83-3c0-1.06,0-2.13,0-3.17,0-.38,0-.77,0-1.16a1.8,1.8,0,0,1,0-.22v0H55.45v4.4a2.83,2.83,0,0,1-2.34,3.06,1,1,0,1,0,.48,2,4.88,4.88,0,0,0,3.94-4.73C57.54,33.57,57.54,32.17,57.54,30.82Z"/><path class="cls-1" d="M41.9,50.61h0a1.1,1.1,0,0,0-1,1,1,1,0,0,0,.3.72,1.06,1.06,0,0,0,.74.32h0a1,1,0,0,0,1-1h0A1.1,1.1,0,0,0,41.9,50.61Z"/></svg>
