
<svg id="Layer_1" data-name="Layer 1" xmlns="http://www.w3.org/2000/svg" viewBox="0 0 85.04 85.04"><defs><style>.cls-1{fill:#1d1d1b;}</style></defs><path class="cls-1" d="M78.16,23.74H70.31a.66.66,0,0,1-.71-.4,1.68,1.68,0,0,0-1.22-.74h0a1.67,1.67,0,0,0-1.2.79.55.55,0,0,1-.59.35H58.67a1.4,1.4,0,1,0,0,2.79H67v2.16h-2a2.89,2.89,0,0,0-2.17.88,1.29,1.29,0,0,1-.82.35c-3.21,0-6.42,0-9.63,0a.79.79,0,0,1-.84-.54,10,10,0,0,0-18.12.14.82.82,0,0,1-.56.37c-2.89,0-6.07,0-10,0a.77.77,0,0,1-.52-.21,2.93,2.93,0,0,0-2.47-1H17.92V26.53h8.39a1.4,1.4,0,1,0,0-2.79H18.41c-.37,0-.56,0-.73-.44a1.47,1.47,0,0,0-1.12-.71h0a2.07,2.07,0,0,0-1.08.51l-.13.09a.88.88,0,0,0-.25.43.56.56,0,0,1,0,.12H7a1.88,1.88,0,0,0-1.77.9l0,0v.94l0,0a1.88,1.88,0,0,0,1.81.91c1.48,0,3,0,4.46,0h3.52v2.16h-.62c-.53,0-1,0-1.55,0a2.62,2.62,0,0,0-2.71,2.81q0,2.28,0,4.56A2.61,2.61,0,0,0,13,38.87h1.7c1.72,0,3.5,0,5.25,0a4,4,0,0,0,1.33-.38l.58-.23.18-.08c.07,0,.19-.09.23-.07.64.22,1.26.47,1.92.73l.53.2L20.58,52.26c-.93,3-1.87,6-2.79,8.94a2.6,2.6,0,0,0,2.65,3.6c.47,0,.93,0,1.39,0h.35a2.68,2.68,0,0,0,3-2.13l7.21-19.8c.07-.2.14-.39.22-.59l.08-.21.7.27,2.77,1.06a.65.65,0,0,1,.34.22c.33.62.65,1.25,1,1.92l.23.47H36.39a3.76,3.76,0,0,0-4,3.8c0,3.18,0,6.42,0,9.92a3.78,3.78,0,0,0,3.9,3.87c4.33,0,8.34,0,12.24,0a3.71,3.71,0,0,0,3.85-3.68c.07-3.46.07-6.92,0-10.28A3.71,3.71,0,0,0,48.62,46H47.15l.23-.48c.32-.64.62-1.24.93-1.83a.43.43,0,0,1,.23-.21l3-1.15.69-.27,4.36,12,3.18,8.73a2.6,2.6,0,0,0,2.8,2h.62a9.3,9.3,0,0,1,1.18,0l.31,0a2.57,2.57,0,0,0,2-1,3,3,0,0,0,.44-2.78c-1.14-3.4-2.21-6.89-3.26-10.26l-1.23-4c-.81-2.6-1.63-5.2-2.45-7.85l.55-.22c.56-.23,1.1-.44,1.65-.62a1.15,1.15,0,0,1,.61.1l.12,0a5.37,5.37,0,0,1,.56.21,2.86,2.86,0,0,0,1.08.32c2.16,0,4.35,0,6.46,0h.86a2.57,2.57,0,0,0,2.66-2.69c0-1.2,0-2.41,0-3.61v-1a2.65,2.65,0,0,0-2.89-2.92h-2V26.53h8.31a1.4,1.4,0,1,0,0-2.79ZM64.9,36.09V31.52h7v4.57Zm-34.77,5-7.63,21H20.4L27.32,40Zm16.5,0H38.31a2.62,2.62,0,0,1-.94-.17L31,38.46l-7.64-2.94c-.44-.16-.56-.34-.54-.76a14.65,14.65,0,0,0,0-1.49v-.59h10.9c1.18,0,1.46-.2,1.86-1.33a7.19,7.19,0,0,1,6.85-4.81h0a7.2,7.2,0,0,1,6.82,4.78c.44,1.2.66,1.36,2,1.36h10.8c0,.19,0,.39,0,.58,0,.65,0,1.26,0,1.88,0,.07-.17.25-.32.3C57.38,37.12,52.8,38.88,47.29,41A1.88,1.88,0,0,1,46.63,41.07Zm-1.54,2.78L44,46h-.64c-.78,0-1.58,0-2.37,0a.4.4,0,0,1-.25-.21c-.27-.5-.52-1-.78-1.54l-.19-.39Zm-8.53,4.89c4,0,7.95,0,11.8,0,1,0,1.35.41,1.35,1.4q0,4.66,0,9.33c0,1-.35,1.33-1.31,1.34H36.54c-1,0-1.36-.36-1.36-1.36V50.11C35.18,49.13,35.57,48.75,36.56,48.74Zm21-8.74,6.91,22.06h-2.1l-7.63-21ZM20,31.54V36.1H13V31.54Z"/><path class="cls-1" d="M42.42,58.64h0a3.88,3.88,0,0,0,3.89-3.83,3.91,3.91,0,0,0-3.84-3.87h0a3.91,3.91,0,0,0-3.87,3.91A3.9,3.9,0,0,0,42.42,58.64Zm-1-3.89a1.06,1.06,0,0,1,1.07-1h0a1,1,0,0,1,1,1.1,1.07,1.07,0,0,1-.32.78,1.09,1.09,0,0,1-.81.28A1,1,0,0,1,41.38,54.75Z"/></svg>
