
<svg id="Layer_1" data-name="Layer 1" xmlns="http://www.w3.org/2000/svg" viewBox="0 0 85.04 85.04"><defs><style>.cls-1{fill:#1d1d1b;}</style></defs><path class="cls-1" d="M73.43,21.59a3.67,3.67,0,0,0-.83-.1H68a2.41,2.41,0,0,0-2.8-2.1h-.38a8.48,8.48,0,0,0-.87,0,1,1,0,0,1-.88-.38,3.14,3.14,0,0,0-1.33-.72c-.6-.17-1.22-.31-1.81-.45-.43-.09-.87-.19-1.3-.3a.69.69,0,0,1-.37-.3A3.36,3.36,0,0,0,55,15.19H49.8a1.72,1.72,0,0,1-1-.33,3.54,3.54,0,0,0-1.63-.65c-.8-.06-1.62-.05-2.42,0H43.4a1.52,1.52,0,0,1-.68-.16c-1.36-.79-2.71-1.61-3.85-2.3A4.9,4.9,0,0,0,36.26,11h0c-2.81,0-5.84,0-8.87,0h-.07a4.62,4.62,0,0,0-3.47,1.42,2.34,2.34,0,0,1-1.76.69H15.31a4,4,0,0,0-3.19,1.34,6.67,6.67,0,0,0-.89,1.5c-.12.23-.23.46-.35.68l0,0V28.81a5.17,5.17,0,0,0,3.52,3.65c1,.4,2,.86,3,1.31l.87.4a1.93,1.93,0,0,1,1.22,2.52,56.48,56.48,0,0,0-2.31,18.15,2.17,2.17,0,0,1-.73,1.78l-.58.57C14,59,14,59,14,62.47c0,1.11,0,2.23,0,3.34,0,.94,0,1.88,0,2.82a5.44,5.44,0,0,0,3.1,5.23,5.64,5.64,0,0,0,1,.38l.47.15H43.72l0,0,.83-.49c.61-.36,1.24-.72,1.85-1.11a3,3,0,0,0,1.5-2.44c0-.73,0-1.47.06-2.19,0-.44,0-.88,0-1.32a3.92,3.92,0,0,0-.81-2.5c-.71-1-1.47-2-2.18-3a8.93,8.93,0,0,0-7.77-4h-.1c-2,0-4,0-6.35,0a1.75,1.75,0,0,1-1.45-.61,1.63,1.63,0,0,1-.19-1.47c.94-3.39,2-6.95,3.21-11.21a2.85,2.85,0,0,1,2.21-2.05,2.44,2.44,0,0,1,.56-.08c.15,0,.31,0,.46-.06a2.2,2.2,0,0,0,1.84-1.95,5.75,5.75,0,0,0-.39-2.72,3.5,3.5,0,0,1,.25-3.23.9.9,0,0,1,.88-.49c.65,0,1.31,0,1.94,0h.41a3.14,3.14,0,0,0,2.86-1.77.52.52,0,0,1,.54-.34h0l.66,0a16.37,16.37,0,0,0,2.32-.05,5,5,0,0,0,1.32-.45l.57-.24.25-.11a1.46,1.46,0,0,1,.52-.16c.95,0,1.9,0,2.84,0H55a3.38,3.38,0,0,0,3.22-2,.84.84,0,0,1,.47-.37c.38-.1.77-.18,1.15-.26s.83-.18,1.24-.29a3.37,3.37,0,0,1,.34-.09,2.89,2.89,0,0,0,1.41-.62,1.86,1.86,0,0,1,1.64-.54,10.44,10.44,0,0,0,1.12,0,2.29,2.29,0,0,0,2.09-1.24,4.57,4.57,0,0,0,.24-.65c0-.07,0-.14.07-.21h4.52a3.88,3.88,0,0,0,.82-.09,1.18,1.18,0,0,0,.07-2.27Zm-7.92.29v1.66H63.83V21.88Zm-4.2-.53c0,1.09,0,2.21,0,3.29a.6.6,0,0,1-.27.17l-2,.47-.51.12V20.05l2.79.63Zm-11.18.49h2.45c1.41,0,1.71-.67,1.71-1.22a1,1,0,0,0-.3-.8,1.94,1.94,0,0,0-1.4-.43H50.13V17.61h2.25c.84,0,1.69,0,2.54,0s1.16.33,1.17,1.11c0,2.77,0,5.46,0,8,0,.73-.33,1.05-1.08,1.05H50.13Zm-2.48,5.64c0,.62-.07.95-.26,1.13s-.53.27-1.16.26c-.8,0-1.6,0-2.41,0V27.08h.64c.85,0,1.41-.48,1.43-1.18a1.14,1.14,0,0,0-.3-.8,1.62,1.62,0,0,0-1.15-.43h-.58V20.8h.33a1.91,1.91,0,0,0,1.38-.37,1.19,1.19,0,0,0,.27-.92c0-1.12-.92-1.16-1.67-1.16h-.08a1.92,1.92,0,0,1-.24,0V16.61h.74a23.83,23.83,0,0,1,2.39,0c.19,0,.46.42.61.66l0,0a1,1,0,0,1,0,.41,1,1,0,0,0,0,.17C47.65,21.11,47.66,24.3,47.65,27.48Zm-16.5,8.46a4.9,4.9,0,0,1,3.43-2.34l-.06.71a11,11,0,0,0-.07,2.15,11.53,11.53,0,0,0,.43,2.1c.08.26.15.53.22.81a5.72,5.72,0,0,0-3.85,1.76A6.19,6.19,0,0,1,31.15,35.94Zm-2.5-.36a9,9,0,0,0,.14,6l.06.21a3.87,3.87,0,0,0,.39,1,3.11,3.11,0,0,1,.16,2.73c-.53,1.71-1,3.47-1.5,5.16-.32,1.11-.63,2.23-1,3.34a5,5,0,0,0,0,3.22H19.13a5.86,5.86,0,0,0,.47-3.12c0-.23,0-.47,0-.7a53,53,0,0,1,2.13-15.62,4.44,4.44,0,0,0-.81-4.63,5.88,5.88,0,0,0-1.79-1.25c-1.44-.71-2.93-1.35-4.33-1.93a2.29,2.29,0,0,1-1.52-2.35c0-2,0-4,0-6V17.82a2,2,0,0,1,2.33-2.31h1.23c1.74,0,3.54,0,5.3,0h.07a4.5,4.5,0,0,0,3.31-1.36,2.55,2.55,0,0,1,1.93-.75h3c1.82,0,3.72,0,5.58,0a4,4,0,0,1,1.73.47c1,.53,2,1.15,2.94,1.75l.38.23a.68.68,0,0,1,.27.42c0,3.79,0,7.65,0,11.38v1.87c0,1.22-.2,1.42-1.44,1.42H38.5c-1,0-2,0-3,0C33.34,31,29.78,32.48,28.65,35.58ZM25.91,72c-2,0-4.06,0-6.09,0a3.08,3.08,0,0,1-3.3-2.35,2.06,2.06,0,0,1-.05-.38.15.15,0,0,0,0-.07h29c.22.92.05,1.21-.69,1.79a5,5,0,0,1-3.31,1H41.4c-3.47,0-7,0-10.44,0ZM37.45,59.7a6.2,6.2,0,0,1,5.31,2.62c.86,1.16,1.68,2.32,2.46,3.45a3.63,3.63,0,0,1,.3.68l.09.24H16.47v0c0-.11,0-.21,0-.31,0-1.89,0-3.78,0-5.67,0-.87.1-1,.94-1h5.67c4.71,0,9.57,0,14.36,0Z"/><path class="cls-1" d="M22.74,22c0-.77,0-1.54,0-2.3a2.3,2.3,0,0,0-2.36-2.42h-3a2.27,2.27,0,0,0-2.36,2.36c0,1.1,0,2.2,0,3.3,0,.68,0,1.37,0,2.05a2.33,2.33,0,0,0,1.46,2.28c1.19.51,2.19.91,3.15,1.25a2.54,2.54,0,0,0,.85.15,2.18,2.18,0,0,0,1.26-.39,2.33,2.33,0,0,0,1-1.93c0-.77,0-1.54,0-2.31V22Zm-2.47-2.24v6.39L19.83,26c-.77-.3-1.52-.6-2.26-.91a.31.31,0,0,1-.09-.14V19.77Z"/><path class="cls-1" d="M37.73,25.82a2.88,2.88,0,0,0-.9-.12H27.22a2.54,2.54,0,0,0-.82.11,1.18,1.18,0,0,0,0,2.24,2.76,2.76,0,0,0,.77.11H37a1.24,1.24,0,0,0,.78-.17,2.07,2.07,0,0,0,.71-1A1,1,0,0,0,37.73,25.82Z"/><path class="cls-1" d="M26.61,23.89a5.36,5.36,0,0,0,.75.06h9.87a1.23,1.23,0,1,0-.1-2.44H27.22a3.45,3.45,0,0,0-.64.05,1.16,1.16,0,0,0-1,1.19A1.13,1.13,0,0,0,26.61,23.89Z"/><path class="cls-1" d="M26.27,19.58a2,2,0,0,0,.9.14h9.77a2,2,0,0,0,.81-.1,1.14,1.14,0,0,0,.75-1.29,1.22,1.22,0,0,0-1.3-1H26.92a1.18,1.18,0,0,0-1.3,1A1.1,1.1,0,0,0,26.27,19.58Z"/></svg>
