
<svg id="Layer_1" data-name="Layer 1" xmlns="http://www.w3.org/2000/svg" viewBox="0 0 85.04 85.04"><defs><style>.cls-1{stroke:#000;stroke-miterlimit:10;stroke-width:0.25px;}</style></defs><path class="cls-1" d="M81.09,62.35a7.18,7.18,0,0,0-7.48-5.84h-2V54.1c1.08,0,2.13,0,3.18,0A3.55,3.55,0,0,0,78.24,50c-.44-2.51-.94-5-1.48-7.5a3.53,3.53,0,0,0-3.7-2.87H64.34c-1.07,0-1.43-.31-1.64-1.34-.5-2.55-1-5.1-1.52-7.65a3.61,3.61,0,0,0-3.73-3c-1.53,0-3.06,0-4.58,0A1.16,1.16,0,0,1,51.7,27q-2.61-4.23-5.25-8.41a6,6,0,0,0-5.39-3c-5.46,0-10.92,0-16.38,0a1.9,1.9,0,0,1-1.44-.57,6.31,6.31,0,0,0-6.53-1.55,5.92,5.92,0,0,0-4.47,5,23.5,23.5,0,0,0,.17,5.29c.33,3.51.75,7,1.13,10.52s.77,7.21,1.17,10.82a3.25,3.25,0,0,1-.34,2.08,5.73,5.73,0,0,0-.51,2.07c-.08.79,0,1.59,0,2.42-.46,0-.86,0-1.25.09A9.74,9.74,0,0,0,4.2,61.69c.14,4.66,4.08,9,8.75,9.21s9.42,0,14.13,0a1,1,0,0,0,1.15-.88c.2-1.72.1-3.37-1.51-4.52-.91-.65-1.79-1.37-2.71-2a1.2,1.2,0,0,1-.56-1.12c0-4.36.05-8.72,0-13.08a10.82,10.82,0,0,0-.64-2.5,3.37,3.37,0,0,1-.23-1c.24-2.59.52-5.18.8-7.77q.57-5.4,1.16-10.82c.14-1.35.31-2.71.46-4.05a2.58,2.58,0,0,1,.4,0c3.29.5,6.57,1,9.86,1.49,1.81.25,3.33.78,4.13,2.62.65,1.49,1.41,2.94,2.18,4.37a4.5,4.5,0,0,1,.6,2.84c-.36,2.8-.6,5.62-.87,8.43-.25,2.47-.51,4.93-.71,7.4a3.54,3.54,0,0,0,3.56,3.81h.93v2.41H42.6a7.22,7.22,0,0,0,0,14.43q15.72,0,31.43,0a7.19,7.19,0,0,0,6.83-5c.11-.33.22-.65.32-1V62.52C81.17,62.47,81.1,62.42,81.09,62.35ZM25.14,67.43a7.14,7.14,0,0,1,.91,1.06c-.39,0-.55.05-.71.05-3.78,0-7.56,0-11.34,0a7.25,7.25,0,0,1-7.08-5.21,7.12,7.12,0,0,1,6.34-9.14c2.55-.23,5.14,0,7.8,0,0,3.13,0,6.18,0,9.23A1.73,1.73,0,0,0,21.84,65C23,65.74,24.06,66.58,25.14,67.43ZM16.31,48.92a2.35,2.35,0,0,1,2.41-2A2.43,2.43,0,0,1,21,49.2c.05.8,0,1.6,0,2.47H16.29A22.88,22.88,0,0,1,16.31,48.92Zm6.5-28.71c-.55,5.55-1.17,11.1-1.76,16.64q-.37,3.56-.76,7.09a4.81,4.81,0,0,1-.13.62h-3c-.08-.62-.19-1.32-.27-2Q15.95,33.75,15,25c-.17-1.59-.4-3.18-.53-4.78a4,4,0,0,1,2-3.95,3.94,3.94,0,0,1,4.4,0A3.93,3.93,0,0,1,22.81,20.21Zm19,6.56a6.92,6.92,0,0,0-6-4.52c-3.5-.44-7-1-10.51-1.57-.07-.86-.14-1.72-.22-2.67h.73c5,0,10,0,15,0a4,4,0,0,1,3.73,2.07c1.52,2.49,3.09,5,4.72,7.57-1.23,0-2.3,0-3.37,0a3.72,3.72,0,0,0-2.8,1.56C42.64,28.36,42.18,27.59,41.85,26.77ZM44.72,51.7c-1.42,0-1.83-.47-1.69-1.88l1.8-18c.15-1.51.45-1.79,2-1.79h10.3c1.17,0,1.49.27,1.72,1.42L60.33,39a3.63,3.63,0,0,0,3.81,3.12h8.64c1.12,0,1.46.3,1.68,1.38l1.29,6.38c.26,1.28-.2,1.87-1.5,1.87H44.72Zm24.4,2.45V56.5H47.58V54.15Zm4.71,14.38c-5.15,0-10.31,0-15.47,0H43a4.87,4.87,0,0,1-4.9-3.73,4.81,4.81,0,0,1,4.52-5.89H73.68a4.86,4.86,0,0,1,5,3.73A4.8,4.8,0,0,1,73.83,68.53Z"/><path class="cls-1" d="M59.53,45.34c-.24-1.51-.53-3-.83-4.5-.18-.94-.72-1.33-1.5-1.17s-1.05.79-.87,1.71.36,2,.55,3H47.67c.33-3.61.65-7.17,1-10.75h6.28c.16.87.29,1.73.48,2.58a1.2,1.2,0,0,0,1.51,1,1.18,1.18,0,0,0,.88-1.43c-.2-1.16-.43-2.31-.63-3.47a1.22,1.22,0,0,0-1.36-1.11H47.69c-.89,0-1.28.34-1.37,1.22-.19,1.8-.36,3.59-.52,5.38-.23,2.55-.47,5.09-.67,7.63-.07,1,.4,1.4,1.34,1.4H58.2A1.2,1.2,0,0,0,59.53,45.34Z"/><path class="cls-1" d="M73.91,60.12H42.78a3.78,3.78,0,0,0-.89.08,3.61,3.61,0,0,0,.86,7.13h19.1a1.16,1.16,0,0,0,1.31-1.21c0-.75-.51-1.19-1.41-1.19H46.26V62.56H70.45v2.37H67c-1,0-1.47.43-1.47,1.21s.52,1.19,1.48,1.19q3.44,0,6.85,0a3.61,3.61,0,1,0,0-7.21Zm-31.16,4.8a1.26,1.26,0,0,1-1.23-1.18,1.2,1.2,0,0,1,2.39-.06A1.26,1.26,0,0,1,42.75,64.92Zm31.23,0A1.25,1.25,0,0,1,72.8,63.7,1.2,1.2,0,1,1,74,64.92Z"/><path class="cls-1" d="M18.75,16.81a3.61,3.61,0,1,0,3.51,3.62A3.58,3.58,0,0,0,18.75,16.81Zm-.13,4.8a1.2,1.2,0,1,1,1.23-1.18A1.26,1.26,0,0,1,18.62,21.61Z"/></svg>
