
<svg id="Layer_1" data-name="Layer 1" xmlns="http://www.w3.org/2000/svg" viewBox="0 0 85.04 85.04"><defs><style>.cls-1{fill:#1d1d1b;}</style></defs><path class="cls-1" d="M73.26,40.49l-.15-1c-.1-.74-.2-1.48-.33-2.22a29.9,29.9,0,0,0-7.67-15.44A30.2,30.2,0,0,0,49,12.65c-.82-.18-1.67-.28-2.49-.38l-1.2-.16A2.29,2.29,0,0,1,45,12l-.26,0h-4l-1.06.14c-.75.1-1.5.2-2.25.33A29.82,29.82,0,0,0,22,20.1a29.08,29.08,0,0,0-9.51,18.2C11,50.21,15.18,60,24.78,67.27a28.28,28.28,0,0,0,13.65,5.54,34,34,0,0,0,4.46.3,29.64,29.64,0,0,0,18.58-6.46A29.93,29.93,0,0,0,72.7,48.39c.14-.72.23-1.46.31-2.17,0-.35.09-.7.13-1,0-.13,0-.25.08-.37l0-.25Zm-58.32.62a27.21,27.21,0,0,1,2.77-10.72l.83,3.51c.15.64.3,1.28.46,1.92a.55.55,0,0,1-.13.59c-1.21,1.42-2.4,2.86-3.59,4.3Zm34.8-25c-2.32.93-4.61,1.85-6.9,2.75a.37.37,0,0,1-.23,0q-3.84-1.5-7.66-3h0c3.86-1.41,11.66-1.41,15.55,0Zm-1,35a.47.47,0,0,1-.13.12c-3.36,0-6.72,0-10.13,0h-1.7l-1-4c-.5-2-1-4-1.49-6a.54.54,0,0,1,.08-.34c2.32-1.89,4.66-3.76,7-5.65l1.35-1.07,1.16.93q3.65,2.91,7.24,5.81a.42.42,0,0,1,.07.24C50.36,44.59,49.53,47.93,48.71,51.12Zm16-19.84c-.31,1.31-.61,2.61-.91,3.91a.36.36,0,0,1-.31.34l-4.62,1.53-5.59,1.86a.58.58,0,0,1-.34-.06C50,36.54,47.07,34.23,44.29,32a.65.65,0,0,1-.18-.42c0-1.26,0-2.52,0-3.78v-2.5c0-1.23,0-2.46,0-3.69,0-.24,0-.29.22-.37l4.61-1.82,5.06-2a.76.76,0,0,1,.27-.05.61.61,0,0,1,.28.06,27.5,27.5,0,0,1,11,9.32.57.57,0,0,1,.08.4C65.32,28.51,65,29.9,64.67,31.28Zm-23.35-3.5c0,1.25,0,2.5,0,3.75a.82.82,0,0,1-.21.47l-4.82,3.87-3.68,3a.46.46,0,0,1-.51.09q-5-1.7-10-3.35a.5.5,0,0,1-.41-.46c-.35-1.52-.71-3-1.07-4.57-.26-1.15-.53-2.29-.8-3.44a.51.51,0,0,1,0-.31A27.81,27.81,0,0,1,31,17.36a.32.32,0,0,1,.15,0,.52.52,0,0,1,.18,0l4.61,1.82,5.29,2.08c.12,0,.13.06.13.31v6.21ZM15.06,45.4a1.14,1.14,0,0,1,.16-.31c.81-1,1.63-2,2.45-3,1.06-1.29,2.13-2.56,3.19-3.85.13-.17.18-.18.41-.1q4.95,1.66,9.92,3.3a.49.49,0,0,1,.39.42c.39,1.6.79,3.2,1.19,4.8.44,1.78.89,3.56,1.33,5.35a.74.74,0,0,1-.12.49c-1.51,2.05-3.09,4.16-4.84,6.45a.48.48,0,0,1-.27.17q-4.65-.72-9.28-1.49a.48.48,0,0,1-.28-.13,27.53,27.53,0,0,1-4.26-12.11ZM31.38,60.6l1.91-2.53q1.47-2,3-3.91a.67.67,0,0,1,.41-.16L40,54h4.11c1.58,0,3.15,0,4.73,0a.57.57,0,0,1,.39.18q1.47,1.91,2.93,3.83c.67.88,1.33,1.76,2,2.64.09.11.09.13,0,.28-.73,1.26-1.45,2.52-2.17,3.78Q50.65,67,49.31,69.36a.79.79,0,0,1-.39.29,27.33,27.33,0,0,1-11.7.16A.54.54,0,0,1,37,69.6l-2.89-4.52c-.9-1.4-1.8-2.81-2.71-4.21C31.28,60.75,31.28,60.73,31.38,60.6Zm22,7.26c1.13-2,2.24-3.92,3.36-5.85a.23.23,0,0,1,.15-.11c2.29-.38,4.58-.74,6.86-1.1-1.83,2.5-7.29,6.36-10.66,7.57Zm3-8.81q-2.52-3.3-5-6.63a.5.5,0,0,1,0-.28Q52.58,47,53.9,41.77a.41.41,0,0,1,.2-.21l5.64-1.9,4.51-1.51.12,0s.07,0,.14.11l3.32,4,2.41,2.89a1.34,1.34,0,0,1,.13.23,27.08,27.08,0,0,1-2.84,9.72c-.18.35-.38.69-.57,1s-.44.75-.63,1.14a.94.94,0,0,1-.83.54c-1.22.18-2.44.37-3.65.57l-5.25.81S56.39,59.09,56.35,59.05ZM23.58,61.1l.4.06,4.53.73a.66.66,0,0,1,.34.15c1.57,2.42,2.89,4.5,4.11,6.49a27.07,27.07,0,0,1-11.19-7.71Zm46.89-20L68.7,39c-.74-.89-1.48-1.77-2.21-2.67a.47.47,0,0,1-.09-.26c.41-1.83.84-3.65,1.26-5.46l0-.21A27.35,27.35,0,0,1,70.47,41.09Z"/></svg>
