
<svg id="Layer_1" data-name="Layer 1" xmlns="http://www.w3.org/2000/svg" viewBox="0 0 85.04 85.04"><path d="M74,62.59l-.48-1.51c-.38-1.21-.77-2.46-1.18-3.68a1.54,1.54,0,0,0-.76-.92,1.34,1.34,0,0,0-1,0,1.35,1.35,0,0,0-.76,1.88c.15.42.3.83.46,1.25s.35.93.51,1.4a7.86,7.86,0,0,1,.45,3.81,8.26,8.26,0,0,1-13.53,5.33,10.19,10.19,0,0,1-2.18-2.76c-.15-.24-.3-.48-.46-.72a.78.78,0,0,1,0-.88,5.31,5.31,0,1,0-10-3.55H39.7c-1-2.8-3.45-4.38-6.07-3.84a5.42,5.42,0,0,0-3.79,2.78A5.52,5.52,0,0,0,29.78,66a.68.68,0,0,1,0,.54,22.56,22.56,0,0,1-1.29,2.07A7.91,7.91,0,0,1,20.2,72a8.17,8.17,0,0,1-5.65-4A8.27,8.27,0,0,1,14,61c1.93-5.29,3.91-10.63,5.9-15.88a10.19,10.19,0,0,1,9.63-6.75c10-.05,18.21-.05,25.75,0a9.88,9.88,0,0,1,8.87,5.15,16.69,16.69,0,0,1,1.23,2.84c.15.4.3.81.47,1.21.38.94,1.09,1.34,1.86,1a1.38,1.38,0,0,0,.72-1.95l-.17-.47c-.28-.77-.57-1.58-.88-2.36a13,13,0,0,0-12.11-8.19H52.5a.81.81,0,0,0,0-.11A7.28,7.28,0,0,0,45,29.74q-.45,0-.9,0h-.29c0-.19,0-.36,0-.54a7.55,7.55,0,0,0-.1-1.28,6.66,6.66,0,0,0-6.86-5.7H24.22A4.08,4.08,0,0,1,21,20.77a4,4,0,0,1,3.24-6.54H42a5.62,5.62,0,0,0,.58,0,1.34,1.34,0,0,0,1.19-1.27,1.51,1.51,0,0,0-.69-1.3l-.14-.13H23.12l-.13.05a1.25,1.25,0,0,1-.26.07,6.76,6.76,0,0,0-5.36,6,6.71,6.71,0,0,0,6.87,7.27H36.8a4.21,4.21,0,0,1,3.29,1.48A4.09,4.09,0,0,1,41,29.74c-4.58-.33-7.53,1.65-8.75,5.91H29.53A12.91,12.91,0,0,0,17.36,44C15.9,47.89,14.44,51.83,13,55.64L11.4,60A11,11,0,0,0,20.78,74.8a10.85,10.85,0,0,0,10.36-5.29l.55-.88a4.11,4.11,0,0,1,.24-.39A5.35,5.35,0,0,0,39.7,65h5.36a5.35,5.35,0,0,0,7.77,3.23c.09.16.19.32.29.47.26.42.51.82.77,1.22A11,11,0,0,0,63,74.86a10.66,10.66,0,0,0,2-.2,10.88,10.88,0,0,0,8.73-8.23c.07-.27.14-.55.2-.82s.05-.24.08-.36V62.59ZM38,32.72a4.34,4.34,0,0,1,1.46-.25c2,0,4,0,5.9,0a4.53,4.53,0,0,1,4.25,2.95,1.05,1.05,0,0,1,.06.21H35.11A4.41,4.41,0,0,1,38,32.72ZM36.34,65.46a2.48,2.48,0,0,1-1.78.74h0a2.6,2.6,0,0,1-1.78-4.43A2.54,2.54,0,0,1,34.56,61h0a2.58,2.58,0,0,1,2.54,2.59A2.55,2.55,0,0,1,36.34,65.46Zm15.63,0a2.52,2.52,0,0,1-1.76.73h0a2.59,2.59,0,0,1-1.75-4.44A2.52,2.52,0,0,1,50.19,61h0A2.6,2.6,0,0,1,52,65.47Z"/><path d="M30.74,42.19a3.82,3.82,0,0,0-2.55.53,4,4,0,0,0-1.84,2.89,3.86,3.86,0,0,0-3.43,3.62A3.77,3.77,0,0,0,26,53.16c.37.08.42.28.5.62a3.84,3.84,0,0,0,3.71,2.94A3.89,3.89,0,0,0,34,53.27c2.29-.56,3.48-1.93,3.43-4A3.87,3.87,0,0,0,34,45.59,3.86,3.86,0,0,0,30.74,42.19Zm4,7.19a1.05,1.05,0,0,1-.88,1.09,3.83,3.83,0,0,1-.76.05h-.39A1.37,1.37,0,0,0,31.29,52v.39a3.85,3.85,0,0,1,0,.59,1.09,1.09,0,0,1-1,1,1,1,0,0,1-1.11-.85,5.23,5.23,0,0,1-.06-.81c0-.13,0-.26,0-.4a1.31,1.31,0,0,0-1.35-1.36h-.46a4.51,4.51,0,0,1-.52,0,1.11,1.11,0,0,1-1.1-1.1,1.13,1.13,0,0,1,1.17-1.08c2.08-.07,2.16-.15,2.27-2.21a1.14,1.14,0,0,1,1.08-1.24h0a1.1,1.1,0,0,1,1.08,1,3.62,3.62,0,0,1,0,.57v.41a1.4,1.4,0,0,0,1.43,1.45h.43a5,5,0,0,1,.55,0A1.11,1.11,0,0,1,34.74,49.38Z"/><path d="M57.76,45.37a4.05,4.05,0,0,0-2.87,1.16,4.09,4.09,0,0,0,2.84,7h0a4.07,4.07,0,0,0,0-8.14Zm1.34,4.05a1.35,1.35,0,0,1-1.32,1.34,1.25,1.25,0,0,1-1-.39,1.33,1.33,0,0,1-.41-1,1.34,1.34,0,0,1,2.68,0Z"/><path d="M46.92,45.37a4,4,0,0,0-4.07,4A4.1,4.1,0,0,0,44,52.31a4,4,0,0,0,2.87,1.2h0A4.09,4.09,0,0,0,51,49.44a4,4,0,0,0-4.07-4.07Zm1,3.16a1.3,1.3,0,0,1,.36.94,1.35,1.35,0,0,1-1.33,1.3h0a1.33,1.33,0,0,1-.89-2.3,1.45,1.45,0,0,1,1-.38A1.38,1.38,0,0,1,47.89,48.53Z"/><path d="M67.76,52.57a1.33,1.33,0,0,0,1.33,1.32h0a1.34,1.34,0,0,0,1-.38,1.31,1.31,0,0,0,.39-1,1.38,1.38,0,0,0-.4-1,1.34,1.34,0,0,0-.95-.39h0a1.35,1.35,0,0,0-1,.4A1.41,1.41,0,0,0,67.76,52.57Z"/></svg>
