
<svg id="Layer_1" data-name="Layer 1" xmlns="http://www.w3.org/2000/svg" viewBox="0 0 85.04 85.04"><path d="M69.12,9.4l-.43-.13-.25-.07h-1.1l-.06,0-.07,0-.12.06A4.55,4.55,0,0,0,63.33,13c-.11.51-.19,1-.27,1.53,0,.19-.05.38-.08.57l-.43,2.63c-.44,2.71-.9,5.52-1.37,8.27a1.93,1.93,0,0,1-.5.94A6.62,6.62,0,0,0,59,30.23c-.18,1-.35,2-.52,3-.12.73-.24,1.46-.37,2.19a1.33,1.33,0,0,1-.55,1,1.38,1.38,0,0,1-1.16-.08l-4.25-1.73q-9.83-4-19.65-8A17.43,17.43,0,0,0,27,25.23,13.55,13.55,0,0,0,13.59,33.6a23.1,23.1,0,0,0-1.28,12.75,18.91,18.91,0,0,0,2.9,7.46,1.28,1.28,0,1,0,2.15-1.37l-.3-.5a11.84,11.84,0,0,1-.59-1,19.88,19.88,0,0,1-.65-16,10.79,10.79,0,0,1,5.82-6.2,11,11,0,0,1,8.59-.18c2.7,1.07,5.43,2.18,8.07,3.25l3.22,1.31L46,34.92c3.16,1.29,6.43,2.62,9.65,3.91a3.51,3.51,0,0,0,5-2.76c.13-.76.25-1.52.38-2.28.17-1,.35-2.14.55-3.2a3.66,3.66,0,0,1,1.58-2.35,3.72,3.72,0,0,1,2.79-.58,3.86,3.86,0,0,1,3,4.45c-.69,3.67-1.34,7.26-1.93,10.68A18.17,18.17,0,0,1,65,49c-2,3.43-5.2,6-9.71,7.84A36.38,36.38,0,0,1,45.56,59c-1.16.13-1.36.82-1.32,1.38a1.23,1.23,0,0,0,.4.85,1.37,1.37,0,0,0,.89.28h.21c1.56-.15,3-.33,4.28-.54a27.14,27.14,0,0,0,11.64-4.61,17.52,17.52,0,0,0,7.51-11.39c.3-1.67.6-3.34.89-5,.41-2.31.83-4.7,1.26-7a6.49,6.49,0,0,0-.78-4.8.93.93,0,0,1-.12-.59c.68-4.2,1.37-8.42,2.06-12.54A4.73,4.73,0,0,0,69.12,9.4Zm-1,2.39a2.05,2.05,0,0,1,1.45.79,2.2,2.2,0,0,1,.4,1.71c-.44,2.74-.88,5.43-1.35,8.27l-.53,3.23a6.4,6.4,0,0,0-3-.72,6.54,6.54,0,0,0-1.23.11L64,24.4c.14-.88.28-1.74.42-2.6s.29-1.81.44-2.72c.28-1.7.57-3.41.83-5.11C66,12.45,66.86,11.65,68.14,11.79Z"/><path d="M46.35,47A13.61,13.61,0,0,0,30.59,35.4a13.13,13.13,0,0,0-11,9.82c-1.54,5.43-.06,10.31,4.28,14.12A16.48,16.48,0,0,1,27,62.88l.12.19a4.81,4.81,0,0,0,.34.49c1.69,2,2.32,3.93,1.85,5.62v0c0,.43,0,.82,0,1.18,0,.82,0,1.48,0,2.14a2.38,2.38,0,0,0,.3,1c.68,1.08,1.39,2.12,2.05,3.09a1.47,1.47,0,0,0,1.18.76h0A1.49,1.49,0,0,0,34,76.69l.27-.41c.55-.8,1.12-1.63,1.62-2.48a3.19,3.19,0,0,0,.46-1.47c0-1,0-2,0-3,0-.81,0-1.65,0-2.47a2.11,2.11,0,0,1,.32-1c1.13-1.75,2.3-3.49,3.3-5a2.79,2.79,0,0,1,.66-.67A13.46,13.46,0,0,0,46.35,47Zm-2.36,2A11.25,11.25,0,0,1,32.81,60.17h0a11.19,11.19,0,0,1,0-22.38h0A11.19,11.19,0,0,1,44,48.94ZM31.81,68.31c0-.35,0-.7,0-1h2c0,.45,0,.9,0,1.35,0,1.21,0,2.47-.06,3.68a2.32,2.32,0,0,1-.57,1.11l-.32.45a3.76,3.76,0,0,1-1.07-2.91A22.91,22.91,0,0,0,31.81,68.31Zm4.13-6-.22.35c-.45.67-.87,1.3-1.3,1.92a.46.46,0,0,1-.3.09H31.48a.6.6,0,0,1-.35-.13c-.41-.59-.8-1.19-1.22-1.82l-.27-.42A13.82,13.82,0,0,0,35.94,62.32Z"/><path d="M50,56.31a2,2,0,0,0,.47-.06A23.47,23.47,0,0,0,56.78,54a15,15,0,0,0,6.76-6.43,19.27,19.27,0,0,0,.9-2.28c.12-.35.24-.7.37-1.05V44.2a1.52,1.52,0,0,0-1.18-1.4,1.29,1.29,0,0,0-1.44,1s0,.07,0,.1v0a10.85,10.85,0,0,1-5,6.94,20.7,20.7,0,0,1-7.27,2.94c-.9.19-1.38.78-1.24,1.49a1.28,1.28,0,0,0,.53.82A1.47,1.47,0,0,0,50,56.31Z"/><path d="M41.23,27.75a1.18,1.18,0,0,0,.6.7,1.33,1.33,0,0,0,.6.15,1.43,1.43,0,0,0,1.22-.84q4-7.11,7.91-14.24a3,3,0,0,0,.2-.5l0-.11v-.05a1.25,1.25,0,0,0-1-1.37,1.31,1.31,0,0,0-1.52.82l-3.94,7.1c-1.31,2.36-2.62,4.73-3.94,7.09A1.67,1.67,0,0,0,41.23,27.75Z"/><path d="M35.64,26.32a0,0,0,0,1,0,0,1.43,1.43,0,0,0,1.23-.92c1-1.77,2-3.54,2.94-5.31l1.19-2.15.39-.68c.31-.55.63-1.12.93-1.69a1.42,1.42,0,0,0,.06-1.28,1.2,1.2,0,0,0-.89-.66,1.3,1.3,0,0,0-1.46.82Q38.69,17,37.28,19.5l-.47.85-.72,1.29c-.49.88-1,1.79-1.49,2.7a1.4,1.4,0,0,0,0,1.41A1.22,1.22,0,0,0,35.64,26.32Z"/><path d="M19.46,36.72a1.38,1.38,0,0,0,.79-.75,6.65,6.65,0,0,1,8.08-3.33,1.28,1.28,0,0,0,1,0,1.3,1.3,0,0,0,.66-.77,1.25,1.25,0,0,0-.08-1,1.3,1.3,0,0,0-.81-.62c-.68-.2-1.37-.34-1.93-.45l-.52-.11h0c-4,.19-6.83,1.86-8.58,5.08a1.29,1.29,0,0,0,.45,1.84,1.25,1.25,0,0,0,1,.12Z"/><path d="M48.25,28.75A1.67,1.67,0,0,0,48,30a1.14,1.14,0,0,0,.59.69,1.24,1.24,0,0,0,.6.17A1.5,1.5,0,0,0,50.47,30l3.69-6.64a3.49,3.49,0,0,0,.23-.54c0-.07,0-.14.08-.2v-.07a1.36,1.36,0,0,0-1-1.24A1.25,1.25,0,0,0,52,22l-1.3,2.33C49.88,25.8,49.06,27.27,48.25,28.75Z"/><path d="M23.74,45.44h0a1.23,1.23,0,0,0-1.25,1.24A1.22,1.22,0,0,0,23.69,48h0A1.22,1.22,0,0,0,25,46.68,1.25,1.25,0,0,0,23.74,45.44Z"/><path d="M28.31,43.18A1.23,1.23,0,0,0,27,44.44a1.22,1.22,0,0,0,1.25,1.24h0a1.21,1.21,0,0,0,1.25-1.22h0A1.21,1.21,0,0,0,28.31,43.18Z"/><path d="M32.8,54.48h0a1.32,1.32,0,0,0-1.27,1.32A1.28,1.28,0,0,0,32.79,57h0A1.25,1.25,0,0,0,34,55.75,1.27,1.27,0,0,0,32.8,54.48Z"/><path d="M41.86,48h0a1.26,1.26,0,1,0,0-2.51h0a1.33,1.33,0,0,0-.93.39,1.22,1.22,0,0,0-.35.91A1.27,1.27,0,0,0,41.86,48Z"/><path d="M41.87,50h0a1.27,1.27,0,0,0-.91.4,1.23,1.23,0,0,0-.36.91,1.28,1.28,0,0,0,1.28,1.21h0a1.29,1.29,0,0,0,1.26-1.26A1.31,1.31,0,0,0,41.87,50Z"/><path d="M37.34,43.18h0A1.29,1.29,0,0,0,36,44.39a1.21,1.21,0,0,0,.34.88,1.28,1.28,0,0,0,.89.41h0a1.29,1.29,0,0,0,.91-.35,1.26,1.26,0,0,0-.88-2.15Z"/><path d="M37.29,50.21h0A1.24,1.24,0,0,0,38.59,49a1.26,1.26,0,0,0-1.27-1.31h0A1.31,1.31,0,0,0,36,48.94,1.27,1.27,0,0,0,37.29,50.21Z"/><path d="M37.33,52.22h0A1.31,1.31,0,0,0,36,53.55a1.29,1.29,0,0,0,1.28,1.2h0a1.27,1.27,0,0,0,1.23-1.28A1.29,1.29,0,0,0,37.33,52.22Z"/><path d="M28.23,50.21h0A1.2,1.2,0,0,0,29.51,49a1.27,1.27,0,0,0-.35-.94,1.25,1.25,0,0,0-.9-.37h0A1.27,1.27,0,0,0,27,48.94,1.23,1.23,0,0,0,28.23,50.21Z"/><path d="M32.82,50h0a1.3,1.3,0,0,0-1.27,1.22,1.25,1.25,0,0,0,1.21,1.3h.06a1.21,1.21,0,0,0,1.26-1.24A1.25,1.25,0,0,0,32.82,50Z"/><path d="M28.27,52.22h0a1.29,1.29,0,0,0-.89.38,1.31,1.31,0,0,0-.37.94,1.24,1.24,0,0,0,1.26,1.21h0a1.22,1.22,0,0,0,1.23-1.26A1.26,1.26,0,0,0,28.27,52.22Z"/><path d="M32.79,40.92h0a1.26,1.26,0,0,0-1.26,1.24,1.23,1.23,0,0,0,.38.9,1.26,1.26,0,0,0,.9.37h0a1.23,1.23,0,0,0,1.21-1.28h0A1.22,1.22,0,0,0,32.79,40.92Z"/><path d="M32.83,45.44a1.27,1.27,0,0,0-.93.37,1.23,1.23,0,0,0-.38.9A1.25,1.25,0,0,0,32.79,48h0a1.22,1.22,0,0,0,1.26-1.23A1.24,1.24,0,0,0,32.83,45.44Z"/><path d="M23.73,50h0a1.28,1.28,0,0,0-.84,2.19,1.27,1.27,0,0,0,.87.33h.06a1.23,1.23,0,0,0,1.2-1.3A1.27,1.27,0,0,0,23.73,50Z"/></svg>
