
<svg id="Layer_1" data-name="Layer 1" xmlns="http://www.w3.org/2000/svg" viewBox="0 0 85.04 85.04"><path d="M62.57,48.74c3.37,0,6.62,0,9.87,0a3.74,3.74,0,0,1,4,4V72.49a3.73,3.73,0,0,1-4,4H12.36a3.74,3.74,0,0,1-4-4V32.55a3.74,3.74,0,0,1,4-4h9.88V27.7q0-7.68,0-15.36a3.72,3.72,0,0,1,3.93-3.95H58.63a3.73,3.73,0,0,1,3.94,3.94V48.74ZM41.14,68.91v-1q0-7.72,0-15.45a3.72,3.72,0,0,1,3.73-3.75c.41,0,.83,0,1.25,0V41.23H10.89V72.09c0,1.47.39,1.86,1.86,1.86H41.23l-.13-2.52H15.24a5.58,5.58,0,0,1-.71,0,1.22,1.22,0,0,1-1.12-1.28c0-.81.55-1.23,1.58-1.23H41.14Zm7.6-35.36H60a1.72,1.72,0,0,0,0-.21q0-10.47,0-20.94c0-1-.53-1.49-1.61-1.49-6.14,0-12.28,0-18.42,0a.84.84,0,0,0-.89.57c-.54,1.13-1.14,2.24-1.67,3.38A1.7,1.7,0,0,1,35.69,16c-3.36,0-6.72,0-10.08,0h-.82V28.56h20.1a3.74,3.74,0,0,1,3.74,3A13,13,0,0,1,48.74,33.55Zm10,40.4H72.16c1.32,0,1.76-.43,1.76-1.73V53c0-1.3-.44-1.73-1.76-1.73H45.46c-1.38,0-1.8.41-1.8,1.77V72.18c0,1.36.43,1.77,1.8,1.77ZM10.89,38.6h35.3V33c0-1.59-.36-2-1.94-2H12.83c-.21,0-.42,0-.63,0a1.27,1.27,0,0,0-1.3,1.31C10.87,34.44,10.89,36.49,10.89,38.6Zm37.87-2.44V48.67H60V36.16Zm-24-22.73c3.45,0,6.8,0,10.16,0a.67.67,0,0,0,.5-.26c.38-.7.72-1.43,1.12-2.24-3.6,0-7.08,0-10.57,0a1.21,1.21,0,0,0-1.2,1.23C24.73,12.54,24.76,12.94,24.76,13.43Z"/><path d="M28.51,66.39A10.09,10.09,0,1,1,38.62,56.31,10.05,10.05,0,0,1,28.51,66.39ZM23.09,51.2A4,4,0,0,1,26,55.64a13.6,13.6,0,0,1,0,2.12,6,6,0,0,1-.92,2.34,7.91,7.91,0,0,1-1.88,1.41c2.53,3,7.57,3.15,10.62.23a7.53,7.53,0,0,0-.14-11C30.6,47.93,25.55,48.14,23.09,51.2Zm-1.58,2.43a7.29,7.29,0,0,0,0,5.47c1.71-.24,2-.52,2-2.14V55.54C23.49,54.11,23,53.64,21.51,53.63Z"/><path d="M55,22.18c0-.79,0-1.57,0-2.36a1.26,1.26,0,1,1,2.52,0c0,1.62,0,3.25,0,4.87a1.26,1.26,0,1,1-2.52,0C55,23.86,55,23,55,22.18Z"/><path d="M55,53.78h7.24c1.16,0,1.58.4,1.58,1.54V69.89c0,1.13-.42,1.54-1.58,1.54H47.77c-1.19,0-1.58-.41-1.58-1.62V55.4c0-1.24.38-1.62,1.65-1.62Zm6.25,15.09V56.36H48.75V68.87Z"/><path d="M68.93,56.3h1.18a1.22,1.22,0,0,1,1.28,1.28,1.2,1.2,0,0,1-1.24,1.23c-.86,0-1.72,0-2.59,0a1.25,1.25,0,0,1,0-2.5C68,56.29,68.49,56.3,68.93,56.3Z"/><path d="M68.84,63.86c-.45,0-.9,0-1.34,0a1.2,1.2,0,0,1-1.14-1.25,1.18,1.18,0,0,1,1.14-1.24c.92,0,1.83,0,2.75,0a1.18,1.18,0,0,1,1.14,1.24,1.2,1.2,0,0,1-1.14,1.25C69.78,63.89,69.31,63.86,68.84,63.86Z"/><path d="M68.82,68.91c-.4,0-.79,0-1.18,0a1.26,1.26,0,1,1,0-2.51c.84,0,1.68,0,2.51,0a1.22,1.22,0,0,1,1.28,1.28,1.24,1.24,0,0,1-1.32,1.24C69.65,68.92,69.23,68.91,68.82,68.91Z"/><path d="M28.58,33.61h6.06c.93,0,1.46.47,1.46,1.26s-.54,1.25-1.47,1.25q-6.09,0-12.19,0c-.94,0-1.47-.46-1.46-1.26s.52-1.25,1.46-1.25Z"/><path d="M15.89,36.12c-.44,0-.89,0-1.33,0a1.21,1.21,0,0,1-1.15-1.25,1.19,1.19,0,0,1,1.15-1.25c.91,0,1.83,0,2.74,0a1.18,1.18,0,0,1,1.15,1.24,1.21,1.21,0,0,1-1.15,1.26C16.84,36.15,16.36,36.12,15.89,36.12Z"/><path d="M41.09,36.12c-.42,0-.84,0-1.26,0a1.26,1.26,0,0,1,0-2.51c.87,0,1.73,0,2.59,0a1.26,1.26,0,0,1,0,2.51C42,36.14,41.53,36.12,41.09,36.12Z"/><path d="M57.53,42.44c0,.81,0,1.62,0,2.44a1.26,1.26,0,1,1-2.52,0c0-1.63,0-3.25,0-4.88a1.26,1.26,0,1,1,2.52,0C57.54,40.82,57.53,41.63,57.53,42.44Z"/></svg>
