
<svg id="Layer_1" data-name="Layer 1" xmlns="http://www.w3.org/2000/svg" viewBox="0 0 85.04 85.04"><path d="M77.54,41.82a1.85,1.85,0,0,0-1.37-.39l-.41,0A32.85,32.85,0,0,0,44.39,10.05V10a2,2,0,0,0-.8-2l-.06,0h-1L42.49,8c-.58.49-.61.58-.78,2A32.85,32.85,0,0,0,10.36,41.41h-.31a1.77,1.77,0,0,0-1.76.81l0,.05v.88l0,.12a1.74,1.74,0,0,0,1.76.8h.31A32.85,32.85,0,0,0,41.72,75.45c0,.13,0,.27,0,.41,0,.69,0,1.62,1.26,1.67h.08a1.26,1.26,0,0,0,.91-.3,1.91,1.91,0,0,0,.4-1.36,2.82,2.82,0,0,1,0-.42A32.85,32.85,0,0,0,75.76,44.09h.36c.7,0,1.66,0,1.71-1.24A1.37,1.37,0,0,0,77.54,41.82Zm-11.77.9a1.23,1.23,0,0,0,.35.91,1.61,1.61,0,0,0,1.17.44H73c-.16,16.52-14.84,28.11-28.65,28.7V67.05a1.72,1.72,0,0,0-.45-1.25,1.22,1.22,0,0,0-.86-.33h0c-.78,0-1.29.63-1.29,1.56v5.73C26.48,72.28,13.69,59.49,13,44.07h5.71A1.7,1.7,0,0,0,20,43.63a1.25,1.25,0,0,0,.35-.89c0-.8-.63-1.3-1.62-1.3H13.07c.4-15.19,13.45-28.23,28.67-28.66v5.73A1.38,1.38,0,0,0,43.05,20a1.21,1.21,0,0,0,.89-.35,1.65,1.65,0,0,0,.44-1.18V12.77c15.1.28,28.15,13.32,28.69,28.66h-5.8A1.36,1.36,0,0,0,65.77,42.72Z"/><path d="M48.51,57.47A23.81,23.81,0,0,0,49,53.53c0-.59.07-1.18.13-1.77L49.28,50l.89-.15a11.07,11.07,0,0,0,2.15-.49c3.47-1.32,5.67-4.08,6.75-8.44a1.2,1.2,0,0,0-.86-1.52l-.4-.12a6.56,6.56,0,0,0-1.89-.39h-.07a17.84,17.84,0,0,0-2.52.29l-.86.13c-.65-2.22-1.32-2.91-4.11-4.22l.22-.21a7,7,0,0,1,1-.83c.88-.56,1.83-1,2.75-1.51a2.14,2.14,0,0,1,.84-.22h4.38c.94,0,1.53-.52,1.53-1.33s-.57-1.3-1.52-1.3H54.69l.15-.29.69-1.25c.46-.82.92-1.64,1.36-2.47a1.47,1.47,0,0,0,.11-1.3,1.25,1.25,0,0,0-.83-.7,1.32,1.32,0,0,0-1.6.79c-.31.57-.63,1.14-1,1.7-.58,1.05-1.19,2.12-1.75,3.2a2.05,2.05,0,0,1-1.08,1c-.1-.21-.19-.42-.28-.64-.29-.64-.57-1.29-.88-1.92A1.43,1.43,0,0,0,48.4,27h0a1.14,1.14,0,0,0-1,.63,1.89,1.89,0,0,0,0,1.4c.25.69.57,1.38.87,2l.27.58a5.7,5.7,0,0,0-2.94,3.56.46.46,0,0,1-.28.17,11,11,0,0,1-4.25.05c-.32-.05-.41-.13-.48-.4a5.1,5.1,0,0,0-1.73-2.62c-.28-.23-.57-.42-.88-.63l-.24-.16.27-.59c.29-.65.58-1.3.86-1.95a1.59,1.59,0,0,0,.11-1.28,1.23,1.23,0,0,0-.72-.69c-.73-.3-1.4,0-1.79.92q-.41.87-.78,1.74l-.28.62a2.06,2.06,0,0,1-1.08-1C33.64,28.19,33,27,32.36,25.91l-.68-1.23q-.86-1.51-2-.9a1.2,1.2,0,0,0-.66.9,2.09,2.09,0,0,0,.32,1.25l2.08,3.75H28.32A1.22,1.22,0,0,0,27,30.83a1.29,1.29,0,0,0,1.07,1.45,2.78,2.78,0,0,0,.57,0h4.27a1.67,1.67,0,0,1,.72.15l.17.09c.92.47,1.88,1,2.76,1.52a6.31,6.31,0,0,1,1,.82l.23.22a5.88,5.88,0,0,0-4.2,4.32A7.52,7.52,0,0,0,28,39.33a1.35,1.35,0,0,0-.94,1.84l.1.32a16.69,16.69,0,0,0,1.08,2.8c1.94,3.67,4.66,5.5,8.32,5.58.23,0,.26,0,.27.36.06,1.08.12,2.16.17,3.23A14.25,14.25,0,0,0,38,58.62a4.9,4.9,0,0,0,2.2,2.59,6.56,6.56,0,0,0,3,.74,5.42,5.42,0,0,0,2.29-.49A5.65,5.65,0,0,0,48.51,57.47ZM49.9,47.19c.07-.14.13-.28.2-.41.26-.56.51-1.08.79-1.59a23.49,23.49,0,0,1,1.38-2.35,3.43,3.43,0,0,1,2.55-1.31,3.48,3.48,0,0,1,.57,0h.74C55.2,44.72,52.51,47.16,49.9,47.19Zm-13.64,0c-2.67-.06-5.43-2.52-6.25-5.62a3.92,3.92,0,0,1,3,.57,4.18,4.18,0,0,1,1,1.07l.06.07a17.67,17.67,0,0,1,1,1.58c.34.61.66,1.22,1,1.88Zm-.13-6.46a3.17,3.17,0,0,1,1-2.4,2.11,2.11,0,0,1,2.18-.56,15.23,15.23,0,0,0,7.44,0,2.45,2.45,0,0,1,1.95.33,3,3,0,0,1,1.23,2,3.28,3.28,0,0,1-.56,2.63c-2.31,3-2.78,6.47-2.95,9.49l0,.56A23.73,23.73,0,0,1,46,56.73c-.46,2.15-1.57,2.82-4,2.39a2.11,2.11,0,0,1-1.61-1.42,11.37,11.37,0,0,1-.76-4.12l0-.57c-.1-1.54-.21-3.13-.44-4.67a13.08,13.08,0,0,0-2.36-5.5,5.53,5.53,0,0,1-.65-1.41L36,41l.12-.05Z"/><path d="M35.6,19.75a20.34,20.34,0,0,1,2.29-.61c.42-.1.85-.19,1.27-.3a1.31,1.31,0,0,0,1-1.5,1.3,1.3,0,0,0-1.45-1.05,3.55,3.55,0,0,0-.57.07A26.7,26.7,0,0,0,18.37,32.25a24,24,0,0,0-1.78,6.1v0a1.33,1.33,0,0,0,1.14,1.49h.14a1.26,1.26,0,0,0,1.27-1c.05-.15.08-.31.12-.47C21.21,29.15,26.7,22.88,35.6,19.75Z"/><path d="M39.15,66.67l-.48-.12c-9.52-2-15.86-7.79-18.85-17.06a17.29,17.29,0,0,1-.43-1.72c-.08-.38-.16-.76-.25-1.14a1.29,1.29,0,0,0-1.45-1,1.32,1.32,0,0,0-1.1,1.42,4.23,4.23,0,0,0,.07.57C18.63,57,24,63.69,32.72,67.49a31.25,31.25,0,0,0,4,1.35l1.86.55.25.08.07-.25a1.29,1.29,0,0,0,1.24-1.08A1.31,1.31,0,0,0,39.15,66.67Z"/><path d="M53,64.85a24.73,24.73,0,0,1-5.9,1.81A1.29,1.29,0,0,0,46,68.15a1.31,1.31,0,0,0,1.35,1.07h.09l.18,0a2.44,2.44,0,0,0,.39,0c9.68-2.07,16.44-7.71,20.12-16.77a26.54,26.54,0,0,0,1.16-4.07c.08-.39.17-.77.26-1.15a1.24,1.24,0,0,0-.16-1,1.35,1.35,0,0,0-.92-.56,1.31,1.31,0,0,0-1.45,1c0,.13-.08.27-.11.41A24,24,0,0,1,53,64.85Z"/><path d="M53.81,18.17a23.79,23.79,0,0,0-6.35-1.88h0A1.32,1.32,0,0,0,46,17.42a1.25,1.25,0,0,0,1,1.41,4.21,4.21,0,0,0,.48.12c9.32,2,15.63,7.55,18.74,16.6a18.3,18.3,0,0,1,.54,2.09c.09.38.17.77.26,1.14a1.37,1.37,0,0,0,1.27,1.11,1,1,0,0,0,.24,0,1.33,1.33,0,0,0,1-1.53,4.13,4.13,0,0,0-.07-.49A26.69,26.69,0,0,0,53.81,18.17Z"/></svg>
