
<svg id="Layer_1" data-name="Layer 1" xmlns="http://www.w3.org/2000/svg" viewBox="0 0 85.04 85.04"><defs><style>.cls-1{fill:#1d1d1b;}</style></defs><path class="cls-1" d="M79.06,27.48l0-.07,0-.06a9.56,9.56,0,0,0-7.36-8,4.81,4.81,0,0,1-.53-.2L71,19.13c.26-1,.25-1.59-.49-2s-1.21,0-1.73.67a.27.27,0,0,0-.08-.07,1.53,1.53,0,0,1-.36-.36c-.14-.24-.28-.47-.43-.7a13.57,13.57,0,0,1-1.17-2.19,5.64,5.64,0,0,0-5.21-3.83h-.16a1.21,1.21,0,1,0-.06,2.42,3.13,3.13,0,0,1,3.19,2.49,9.07,9.07,0,0,0,3,4.38c.31.24.35.37.17.65-1,1.49-1.88,3-2.82,4.47l-.09.15a.61.61,0,0,1-.73.3,3.34,3.34,0,0,0-2.71.82,2.92,2.92,0,0,0-1,2.3,1.49,1.49,0,0,1-.92,1.54,8.51,8.51,0,0,0-.9.57.62.62,0,0,1-.82,0,6,6,0,0,0-6.29-.41,2.18,2.18,0,0,1-2.84-.33,1.38,1.38,0,0,0-.31-.22c-.29-.15-.38-.34-.35-.76a3.36,3.36,0,0,0-1-2.66,3.4,3.4,0,0,0-2.76-.88.77.77,0,0,1-.54-.11,22.61,22.61,0,0,1-3.23-5.17,9.57,9.57,0,0,0,3.44-4.81A3.06,3.06,0,0,1,47,13.11h9.14a1.51,1.51,0,0,0,1.12-.4,1.12,1.12,0,0,0,.31-.82c0-.74-.57-1.2-1.46-1.2H46.57a5.2,5.2,0,0,0-1.48.24,5.29,5.29,0,0,0-3.65,3.68,7,7,0,0,1-2,3.22c-.51-.66-1-1-1.66-.7s-.79.8-.58,2.05a10.54,10.54,0,0,0-5.21,2.69A9.84,9.84,0,0,0,29.18,27L29,26.94l-.18-.1a9.58,9.58,0,0,0-9.39-.22,12.72,12.72,0,0,0-3.4,2.77l-.68.7a1.39,1.39,0,0,0-.48,1,1.18,1.18,0,0,0,.38.84,1.22,1.22,0,0,0,1.82-.12c.27-.26.54-.52.8-.79l1-1A7.13,7.13,0,0,1,29,30.07C31.47,32.45,34,35,36.49,37.51a7,7,0,0,1,.19,10c-2.52,2.68-5.15,5.31-7.84,7.84a7,7,0,0,1-10-.2c-2.34-2.29-4.75-4.7-7.36-7.35a7.18,7.18,0,0,1,0-10.35l.93-.93c.34-.34.68-.67,1-1a1.19,1.19,0,0,0,.13-1.81,1.21,1.21,0,0,0-1.82.07c-.52.5-1,1-1.52,1.52l-.37.37a9.58,9.58,0,0,0,0,14l.95,1c2,2,4.09,4.11,6.16,6.14a12.66,12.66,0,0,0,1.34,1.08c.31.22.62.46.92.7a1,1,0,0,1,.33.6c0,1.79,0,3.62,0,5.38v.87a1.92,1.92,0,0,1,0,.3.5.5,0,0,0,0,.12h-1c-.8,0-1.62,0-2.43,0a4.37,4.37,0,0,0,.19,8.7l7.85,0c2.57,0,5.09,0,7.54,0a4.09,4.09,0,0,0,3-1.47,4.33,4.33,0,0,0,1-3.41,4.38,4.38,0,0,0-4.56-3.89c-.66,0-1.33,0-2,0H28.4l0,0s0,0,0,0v-.89c0-1.91,0-3.9,0-5.85a.81.81,0,0,1,.31-.4c.29-.24.59-.47.9-.7a15.83,15.83,0,0,0,1.56-1.28c1.66-1.62,3.32-3.3,4.93-4.92.68-.68,1.35-1.36,2-2a4.58,4.58,0,0,1,.38-.36l.18-.17c.13.16.26.31.4.46.37.42.72.83,1.1,1.21a1.45,1.45,0,0,0,1,.47h0a1.15,1.15,0,0,0,.82-.36A1.24,1.24,0,0,0,41.86,49c-.61-.63-1.13-1.13-1.61-1.57a.48.48,0,0,1-.14-.67A9.64,9.64,0,0,0,38,35.57l-1.48-1.5C35.2,32.7,33.82,31.29,32.38,30a2.36,2.36,0,0,1-.75-2.7l0-.09c.06-.19.11-.39.17-.57A7.46,7.46,0,0,1,38,21.5l.57.85c1.06,1.57,2,3.06,3.06,4.58a.63.63,0,0,1,0,.42,3.35,3.35,0,0,0,4.64,4.39c.16-.08.32-.11.35-.08.47.28.93.6,1.37.91l.34.23a9.62,9.62,0,0,0-.51,10.29A7.36,7.36,0,0,0,53.52,47a7.07,7.07,0,0,0,6.07-2.75,8.87,8.87,0,0,0,1.81-7.78,17.11,17.11,0,0,0-.93-2.62c-.15-.37-.31-.74-.45-1.11.06-.05.14-.09.21-.14.31-.2.67-.43,1-.69a.68.68,0,0,1,.89-.07,3.19,3.19,0,0,0,3.74-.54,3.26,3.26,0,0,0,.75-3.78c-.16-.34-.09-.5.13-.83.8-1.22,1.59-2.48,2.35-3.69l.69-1.1a2.71,2.71,0,0,0,.21-.37l0-.06.42.13,1,.32a7.2,7.2,0,0,1,5,8.37c-2.16,11.28-8.56,19.54-19,24.54a7.29,7.29,0,0,1-6.81,0c-1.26-.65-2.52-1.38-3.74-2.07l-1.08-.62c-.79-.45-1.47-.35-1.87.27a1.13,1.13,0,0,0-.18.88,1.53,1.53,0,0,0,.75.91c1,.63,2.27,1.38,3.57,2.09a.72.72,0,0,1,.47.78c0,1.9,0,3.83,0,5.69v2.46c0,.13,0,.26,0,.41a.41.41,0,0,0,0,.11h-.67c-.38,0-.76,0-1.14,0-.82,0-1.68,0-2.52,0a4.37,4.37,0,0,0,.26,8.74c6.9,0,13.84,0,19.11,0a4.39,4.39,0,1,0-.17-8.78h-3.9V62.93c0-1.87,0-3.81,0-5.71a1,1,0,0,1,.62-1A35,35,0,0,0,78,34.46c.29-1,.52-2,.75-3,.1-.46.2-.91.31-1.37v-2.6Zm-14.6,1.37a.84.84,0,0,1-.88.85.86.86,0,0,1-.88-.85.85.85,0,0,1,.86-.88h0a.87.87,0,0,1,.63.24A.86.86,0,0,1,64.46,28.85ZM59.17,38.94a6.2,6.2,0,0,1-1.87,4.2,4.62,4.62,0,0,1-3.24,1.4h0a4.66,4.66,0,0,1-3.28-1.46,7.14,7.14,0,0,1-.24-9.18,4.75,4.75,0,0,1,3.56-1.72h.17a4.73,4.73,0,0,1,3.59,2A7.29,7.29,0,0,1,59.17,38.94ZM43.66,28.83a.88.88,0,0,1,.26-.63.9.9,0,0,1,.62-.23h.05a.87.87,0,1,1-.05,1.73h0A.84.84,0,0,1,43.66,28.83ZM24,68.16H31.2A1.93,1.93,0,0,1,33.28,70a1.92,1.92,0,0,1-2,2c-4.67,0-9.47,0-14.67,0a2.06,2.06,0,0,1-1.49-.61A1.88,1.88,0,0,1,14.59,70a1.93,1.93,0,0,1,2.07-1.88H24Zm-1.2-2.45h-.71v-6h3.85v2.81c0,.92,0,1.87,0,2.8a.92.92,0,0,1-.22.42C24.71,65.72,23.77,65.72,22.77,65.71Zm28.33,0V57.62a10.09,10.09,0,0,0,5.91,0v8.05ZM65.54,70a1.94,1.94,0,0,1-1.48,2,4.12,4.12,0,0,1-.93.09H44.75A2.2,2.2,0,0,1,43,71.25a1.86,1.86,0,0,1-.3-1.67,1.89,1.89,0,0,1,1.8-1.41H63.62A2,2,0,0,1,65.54,70Z"/><path class="cls-1" d="M17.94,51.16a5.43,5.43,0,0,0,.69,0,4.2,4.2,0,0,0,4.25-3.32,5.39,5.39,0,0,0-2.06-5.63,2,2,0,0,1-.93-2,.49.49,0,0,0,0-.17.88.88,0,0,1,.54-1,3.24,3.24,0,0,0,1.44-3.7,3.41,3.41,0,0,0-3.08-2.43h-.14a3.32,3.32,0,0,0-3.11,2.18,3.06,3.06,0,0,0,1.08,3.73,1.57,1.57,0,0,1,.8,1.74,1.71,1.71,0,0,0,0,.32.8.8,0,0,1,0,.35,1,1,0,0,1-.32.55,6,6,0,0,0-2.8,4.56v0C14.27,48.86,15.81,50.88,17.94,51.16Zm.71-7.33a1.17,1.17,0,0,1,.78.37,4.17,4.17,0,0,1,1.18,2.57A1.93,1.93,0,0,1,20,48.2a2,2,0,0,1-1.38.57h-.07a2,2,0,0,1-1.39-.67,1.94,1.94,0,0,1-.48-1.42,3.89,3.89,0,0,1,1.15-2.46A1.16,1.16,0,0,1,18.65,43.83Zm0-8.47h0a.85.85,0,0,1,.85.88.81.81,0,0,1-.85.87.92.92,0,0,1-.64-.24.9.9,0,0,1-.24-.66A.85.85,0,0,1,18.65,35.36Z"/><path class="cls-1" d="M27.78,41.72A5.69,5.69,0,0,0,25,45.5a4.63,4.63,0,0,0,.73,4A4.36,4.36,0,0,0,29.2,51.2h0a4.32,4.32,0,0,0,4.2-3.12,5.68,5.68,0,0,0-2.05-5.86,1.82,1.82,0,0,1-.93-2,1.11,1.11,0,0,0,0-.32.66.66,0,0,1,.42-.78,3.26,3.26,0,0,0,1.62-3.56,3.35,3.35,0,0,0-3.2-2.65h-.06a3.34,3.34,0,0,0-1.6,6.27c.25.15.36.28.36.34a13.65,13.65,0,0,1,0,1.94A.46.46,0,0,1,27.78,41.72Zm2.32,2.57a3.79,3.79,0,0,1,1.06,2.26,2.25,2.25,0,0,1-.65,1.72,1.91,1.91,0,0,1-1.42.5A2,2,0,0,1,27.65,48a1.73,1.73,0,0,1-.3-1.47,6.68,6.68,0,0,1,1-2.19,1.08,1.08,0,0,1,.77-.51h.06A1.31,1.31,0,0,1,30.1,44.29Zm-1.49-8.68a.87.87,0,0,1,.62-.25h0a.9.9,0,0,1,.88.89.88.88,0,0,1-.89.86h0a.87.87,0,0,1-.89-.84A.93.93,0,0,1,28.61,35.61Z"/><path class="cls-1" d="M56.26,35a2.8,2.8,0,0,0-4.14-.26,5.29,5.29,0,0,0,0,7.2,2.87,2.87,0,0,0,1.92.78A2.82,2.82,0,0,0,56,42a5.05,5.05,0,0,0,1.45-3.57h0A5.21,5.21,0,0,0,56.26,35Zm-1.67,5a.53.53,0,0,1-.4.3.66.66,0,0,1-.55-.3,3.26,3.26,0,0,1,0-3.32.68.68,0,0,1,.48-.27h0a.56.56,0,0,1,.41.28A2.55,2.55,0,0,1,55,38.42,2.88,2.88,0,0,1,54.59,40Z"/></svg>
