
<svg id="Layer_1" data-name="Layer 1" xmlns="http://www.w3.org/2000/svg" viewBox="0 0 85.04 85.04"><path d="M71,74q-1.71-6.3-3.44-12.59l-1.09-4c-.29-1.06-.58-2.11-.88-3.16a1.14,1.14,0,0,0-1.24-.94,1.13,1.13,0,0,0-1.1,1,1.85,1.85,0,0,0,.11.78v.06q1.3,4.73,2.6,9.45l1.63,5.91.57,2.14.2.74H65.64l0,0c0-.14-.08-.27-.11-.4L60.62,55.23Q55.79,37.62,51,20a1.79,1.79,0,0,1,0-.83c.33-1.23.67-2.48,1-3.69l.25-.88.91,3.33c.67,2.43,1.33,4.81,2,7.19l2,7.23,5,18.37a2.05,2.05,0,0,0,.46.87,1,1,0,0,0,1.38.12,1.3,1.3,0,0,0,.46-1.6l-1.69-6.17Q58.1,27,53.45,10.15A2.6,2.6,0,0,0,53,9.32,2.62,2.62,0,0,1,52.75,9l-.06-.09h-6.2l-.06.1-.22.34a3.23,3.23,0,0,0-.45.84c-.44,1.49-.86,3-1.26,4.51l-.41,1.47H39.5c-.33-1.2-.67-2.4-1-3.61l-.19-.73c-.14-.52-.28-1.07-.46-1.59a4.51,4.51,0,0,0-.46-.87c-.08-.12-.15-.24-.22-.36l-.06-.1H30.9L30.84,9a3.55,3.55,0,0,1-.23.31,2.54,2.54,0,0,0-.45.8c-2.53,9.14-5,18.27-7.59,27.59q-5,18.2-10,36.4a1.44,1.44,0,0,0,.12,1.29,1.42,1.42,0,0,0,1.21.46h4.55c1.11,0,1.38-.21,1.68-1.31l.76-2.77,1.86-6.85c.11-.41.22-.55.66-.53,1.4,0,2.82,0,4.19,0h3.24v0c0,.15-.07.28-.11.41l-.83,3L28.2,74.14a1.2,1.2,0,0,0,1.28,1.69h4.74c.94,0,1.27-.26,1.52-1.17l5.08-18.55.74-2.67.24-.86c0,.05,0,.11.05.16l1.09,4c.42,1.56.85,3.12,1.28,4.68q1.68,6.15,3.37,12.28l.26,1c.25.91.58,1.17,1.51,1.17h4.75a1.39,1.39,0,0,0,1.14-.45,1.37,1.37,0,0,0,.13-1.23c-.33-1.23-.66-2.46-1-3.69l-1.65-6.07h1.82c1.9,0,3.7,0,5.54,0,.52,0,.63.14.75.59.65,2.44,1.32,4.88,2,7.32l.62,2.3c.28,1,.58,1.25,1.66,1.25h4.48a1.56,1.56,0,0,0,1.3-.45A1.52,1.52,0,0,0,71,74ZM36.17,16.14l.41-1.54L37,16.14Zm5.63,8.41-1.65-6h3.28ZM52.16,73.48c-.67,0-1.32,0-2,0-.17,0-.2,0-.26-.28L45.12,55.74c-.66-2.41-1.33-4.82-2-7.23l0-.11a.83.83,0,0,1-.06-.35c.41-1.54.86-3.17,1.41-4.79l2,7.24h-.09l-.59.07a1.1,1.1,0,0,0-1,1.14,1.15,1.15,0,0,0,.87,1.16,2.74,2.74,0,0,0,.51.06c1,0,1,0,1.21,1l2.13,7.74a3.4,3.4,0,0,1,.07.34h0c-.19,0-.36,0-.54,0a1.1,1.1,0,0,0-1.07,1.12A1.19,1.19,0,0,0,49,64.38h.14c1.15.07,1.15.07,1.45,1.2l1.66,6,.51,1.85ZM45.77,38.14c.55-2.08,1.12-4.15,1.69-6.23L48,30h3.27l2.47,9h-8a1.09,1.09,0,0,0,0-.18A2.34,2.34,0,0,1,45.77,38.14ZM56.54,50.52H54.37c-1.68,0-3.36,0-5,0h0c-.33,0-.43-.09-.52-.44C48.24,48,47.67,46,47.1,43.89l-.62-2.28,0-.13H54c.3,0,.39,0,.45.23.54,2,1.09,4,1.63,6l.74,2.71a.11.11,0,0,1,0,0Zm-7,2.43H57.2c.26,0,.35.06.42.34.57,2.14,1.16,4.28,1.75,6.43l.6,2.19L60,62H57.74c-1.68,0-3.41,0-5.12,0-.45,0-.58-.06-.7-.49-.57-2.17-1.18-4.38-1.77-6.52Zm-.93-25.36,1-3.5,1,3.5Zm-15.5,45.9c-.34,0-.67,0-1,0H30.85l3.63-13.23Q41.14,36,47.79,11.7c.11-.4.2-.49.57-.47.58,0,1.15,0,1.76,0h.53l-.88,3.22L47.45,23l-2.6,9.45Q39.28,52.71,33.72,73C33.6,73.43,33.5,73.51,33.15,73.49ZM20.65,62a4.47,4.47,0,0,0-.82,0,1.12,1.12,0,0,0-1.1,1.1,1.16,1.16,0,0,0,1.06,1.24,4.07,4.07,0,0,0,.61,0h.05L18,73.46H15.24l.09-.36.3-1.14L18,63.47Q25,37.64,32.11,11.83c.13-.48.27-.64.74-.6s1.09,0,1.66,0H35l-1.35,4.93h-.26c-.32,0-.63,0-.95,0a1.18,1.18,0,1,0,0,2.36H33l-2.48,9.08H29.48a1.21,1.21,0,1,0-.05,2.4h.42a2.36,2.36,0,0,1-.08.4l-.67,2.46c-.52,1.9-1.05,3.81-1.56,5.72-.11.44-.25.54-.61.48a3.86,3.86,0,0,0-.76,0,1.2,1.2,0,0,0,0,2.4,4.8,4.8,0,0,0,.55,0h0l-1.94,7.1,0,.16a2.42,2.42,0,0,0-.1.36c-.18,1-.39,1.66-1.57,1.45a1,1,0,0,0-.8.22,1.26,1.26,0,0,0-.42,1,1.22,1.22,0,0,0,1.25,1.2,3.68,3.68,0,0,0,.47,0h0l-.31,1.14c-.26,1-.52,2-.79,2.94l-.42,1.51c-.28,1-.58,2-.83,3C21.13,62,21,62.06,20.65,62Zm19.63-32-1.09,4-1.09-4ZM33,27.58l1-3.49,1,3.49Zm-1.66,6,.3-1.08c.19-.7.39-1.4.57-2.11.09-.34.16-.43.48-.41.93.05,1.84,0,2.61,0,.24,0,.31,0,.38.3.27,1,.55,1.93.82,2.9.47,1.64.94,3.28,1.39,4.93a1.58,1.58,0,0,1,0,.68,1.55,1.55,0,0,0,0,.21h-8ZM27.9,50.52H26.73l1.66-6.08.19-.68c.17-.66.35-1.33.56-2a.55.55,0,0,1,.25-.27c2.16,0,4.32,0,6.54,0h1.21l-1.21,4.43c-.39,1.42-.78,2.84-1.18,4.26a.71.71,0,0,1-.26.33C32.32,50.53,30.18,50.52,27.9,50.52Zm9.52-23-.25-.9L35.88,22l-.12-.52a8,8,0,0,0-.31-1.06,2.33,2.33,0,0,1,.08-1.91H36c.51,0,1,0,1.46,0a.45.45,0,0,1,.3.21c.75,2.66,1.48,5.33,2.21,8l.21.81ZM23.84,61.07c.73-2.68,1.44-5.29,2.17-7.9a.46.46,0,0,1,.16-.21c2.25,0,4.49,0,6.77,0H34l-.54,1.94C32.91,56.94,32.36,59,31.8,61c-.28,1-.28,1-1.32,1h-6.9Z"/></svg>
