
<svg id="Layer_1" data-name="Layer 1" xmlns="http://www.w3.org/2000/svg" viewBox="0 0 85.04 85.04"><defs><style>.cls-1{fill:#1d1d1b;}</style></defs><path class="cls-1" d="M77.16,63.76,77,63.59a1.85,1.85,0,0,1-.23-.34l-.38-.75c-1.48-2.9-3-5.89-4.49-8.86a2.81,2.81,0,0,1-.27-1.15q0-10.32,0-20.63V24.47c0-2.13,0-4.27,0-6.4a2.07,2.07,0,0,0-2.12-2.13H16c-2,0-2.67.7-2.67,2.67v6.5q0,13.67,0,27.31A3,3,0,0,1,13,53.7c-.69,1.38-1.39,2.77-2.1,4.15-.91,1.79-1.85,3.64-2.74,5.47A6.79,6.79,0,0,0,8,67.8a1.91,1.91,0,0,0,1.52,1.41,5.36,5.36,0,0,0,1.29.14H30.67c14.22,0,28.92,0,43.39,0h0a3,3,0,0,0,3.1-1.84V63.8ZM74.8,67c-.09.1-.33.09-.72.07l-.64,0h0c-20.52,0-41.34,0-61.87,0h0l-.65,0c-.39,0-.62,0-.71-.07s-.12-.66-.07-1.5H74.87C74.92,66.37,74.94,66.85,74.8,67ZM15.67,52.22V18.28H69.33V52.22Zm.09,2.34H41.82l27.44,0a.94.94,0,0,1,.66.25c1.16,2.23,2.27,4.42,3.45,6.75l.78,1.55h-.06l-.36,0h-5.1c-5.19,0-10.54,0-15.81,0h0c-.45,0-.61-.13-.72-.58-.2-.81-.43-1.63-.65-2.41l-.18-.64A2.11,2.11,0,0,0,49,57.71H42.62c-2.24,0-4.46,0-6.64,0a2.08,2.08,0,0,0-2.23,1.79c-.1.33-.19.66-.28,1-.21.76-.42,1.54-.66,2.3a.64.64,0,0,1-.38.35c-7.2,0-14.52,0-21.57,0h0l.37-.72.69-1.38.87-1.71c.7-1.39,1.44-2.82,2.14-4.24A.8.8,0,0,1,15.76,54.56Zm34.1,8.59H35.14L36,60.06H49Z"/><path class="cls-1" d="M17.89,33.39a1.07,1.07,0,0,0,.77.32h0a1.17,1.17,0,0,0,1.11-1.12c0-.14,0-.27,0-.41V22.45H65.19v9.93a1.19,1.19,0,0,0,1.13,1.33h0a1.07,1.07,0,0,0,.77-.31,1.3,1.3,0,0,0,.36-.93c0-3.11,0-6.81,0-10.6A1.66,1.66,0,0,0,66,20.16a4,4,0,0,0-.69,0H19.75a3.88,3.88,0,0,0-.83.07,1.63,1.63,0,0,0-1.38,1.63c0,3.11,0,6.52,0,10.73A1.17,1.17,0,0,0,17.89,33.39Z"/><path class="cls-1" d="M67.46,38.1a1.34,1.34,0,0,0-.39-1,1.12,1.12,0,0,0-.91-.23c-.44.06-1,.34-1,1.36v9.84H19.81v-10a1.13,1.13,0,0,0-1.12-1.25h0a1.15,1.15,0,0,0-.81.31,1.11,1.11,0,0,0-.32.82c0,3.69,0,7.3,0,10.73a1.63,1.63,0,0,0,1.18,1.59,5.24,5.24,0,0,0,1.24.1H65.59a1.76,1.76,0,0,0,1.88-2V42.29C67.47,40.89,67.47,39.49,67.46,38.1Z"/></svg>
