
<svg id="Layer_1" data-name="Layer 1" xmlns="http://www.w3.org/2000/svg" viewBox="0 0 85.04 85.04"><defs><style>.cls-1{fill:#1d1d1b;}</style></defs><path class="cls-1" d="M77,38.61c-.87-.78-1.21-.82-2.27-.24L64.46,43.93,64.3,44a3,3,0,0,0-.51.31,1.29,1.29,0,0,0,.72,2.35,1.45,1.45,0,0,0,.35,0,2.46,2.46,0,0,0,.62-.26l1.12-.61c3.15-1.7,6.31-3.41,9.45-5.14a3,3,0,0,0,.65-.52l.25-.24.1-.09V38.7Z"/><path class="cls-1" d="M64.33,33.92a4,4,0,0,0-.26-2.25,3.51,3.51,0,0,0-2-2,4.05,4.05,0,0,0-3.26.19l-4.92,2.37L48.06,35a1.5,1.5,0,0,1-.89.13c-3.86-.77-7.71-1.57-11.56-2.37l-3.36-.69a1.64,1.64,0,0,0-1.26.16,1.18,1.18,0,0,0-.51.78c-.16.84.31,1.45,1.26,1.65l4.75,1,3.89.8,4.6,1,1.23.25L41.3,61.4,30.77,59.22q-7.6-1.56-15.2-3.12a6.41,6.41,0,0,1-4.15-2.65,6.2,6.2,0,0,1-.78-4.76L11,47.21c.64-3,1.31-6.16,1.88-9.26.5-2.76,1.71-4.48,3.81-5.41a1.3,1.3,0,0,0,.52-.45,1.22,1.22,0,0,0-.08-1.54,1.3,1.3,0,0,0-1.68-.32,8.32,8.32,0,0,0-4.88,6c-.67,3.11-1.32,6.28-1.95,9.34L8,48.34a8.56,8.56,0,0,0,6.65,10.23c4.9,1,9.8,2,14.71,3.07l11.7,2.43a1.77,1.77,0,0,1,.89.51q3.19,3.66,6.37,7.35l1.39,1.61A3.81,3.81,0,0,0,52.65,75a4.12,4.12,0,0,0,1.07-.15,3.76,3.76,0,0,0,2.83-3.14q.89-4.35,1.79-8.67l1.86-9C61.57,47.45,63,40.63,64.33,33.92Zm-2.6-.34-1.23,6L56.44,59.2l-2.06,10q-.21,1.09-.45,2.19a1.4,1.4,0,0,1-1.2,1.1,2.69,2.69,0,0,0-.29-.16,2.23,2.23,0,0,1-.66-.44c-2.46-2.81-5-5.76-7.79-9a.94.94,0,0,1-.15-.64c1.59-7.76,3.24-15.72,5-24.32a.77.77,0,0,1,.34-.47c2.23-1.1,4.48-2.19,6.72-3.27l4-1.93a1.51,1.51,0,0,1,.7-.19,1.08,1.08,0,0,1,.68.25A1.18,1.18,0,0,1,61.73,33.58Z"/><path class="cls-1" d="M16.79,46.52a7.38,7.38,0,0,0,5.85,5.85,6.93,6.93,0,0,0,1.28.12,7.4,7.4,0,0,0,6.42-3.72,7.26,7.26,0,0,0-.81-8.34,1.33,1.33,0,0,1-.37-1q0-5.58,0-11.14V22.15c0-2.68,0-5.36,0-8a3.39,3.39,0,0,0-3.62-3.59H22.4a3.33,3.33,0,0,0-3.59,3.58v15c0,3.45,0,6.9,0,10.35a1.34,1.34,0,0,1-.3.8A7.3,7.3,0,0,0,16.79,46.52ZM24,40.47h0a4.6,4.6,0,0,1,3.28,1.36,4.74,4.74,0,0,1,1.38,3.32,4.68,4.68,0,0,1-9.35,0A4.76,4.76,0,0,1,24,40.47Zm2.51-2.19a7.61,7.61,0,0,0-5,0V14.38c0-1.05.2-1.25,1.25-1.26h2.94c.61,0,.87.27.87.85q0,11.2,0,22.42Z"/><path class="cls-1" d="M62.38,60.27a2.05,2.05,0,0,0-.63-.49l-.34-.22-.19-.13-.17.15-.31.22c-.27.18-.53.35-.61.63a1.77,1.77,0,0,0,.19,1.42c2.36,3.11,4.79,6.24,7.14,9.27l.5.64a1.44,1.44,0,0,0,1.13.62,1.36,1.36,0,0,0,1.29-1.12,1.48,1.48,0,0,0-.32-1.1Q66.24,65.21,62.38,60.27Z"/><path class="cls-1" d="M72.54,53.84l-9.16-1.9a1.59,1.59,0,0,0-1.26.19,1.25,1.25,0,0,0-.52.86c-.12.74.4,1.35,1.31,1.54l1.9.4,3.07.65.88.18c1.12.24,2.25.47,3.38.68a1.53,1.53,0,0,0,.3,0,1.19,1.19,0,0,0,.78-.27,1.61,1.61,0,0,0,.49-1.29h0C73.71,54.41,73.24,54,72.54,53.84Z"/><path class="cls-1" d="M42.34,40.55l.23,0a1.34,1.34,0,0,0,.8-.28,1.4,1.4,0,0,0,.53-1v0A1.33,1.33,0,0,0,42.79,38l-.26-.06c-2.27-.47-4.53-.94-6.8-1.39a1.41,1.41,0,0,0-1,.2,1.32,1.32,0,0,0-.55.85,1.36,1.36,0,0,0,1.09,1.53Q38.78,39.83,42.34,40.55Z"/><path class="cls-1" d="M33.3,41.35a1.25,1.25,0,0,0,1,1.49c2.55.56,5,1.06,7.13,1.49l.26,0a1.31,1.31,0,0,0,1.28-1,1.29,1.29,0,0,0-.94-1.59,2.85,2.85,0,0,0-.48-.13l-.46-.1-3.33-.69-2.1-.42-.91-.18h0A1.28,1.28,0,0,0,33.3,41.35Z"/><path class="cls-1" d="M23.92,48.77h0a3.64,3.64,0,0,0,3.62-3.58A3.6,3.6,0,0,0,24,41.58h0a3.55,3.55,0,0,0-3.57,3.57A3.6,3.6,0,0,0,23.92,48.77ZM24,46.11h0A.94.94,0,0,1,23,45.2a1,1,0,0,1,.26-.69,1,1,0,0,1,.67-.29h0a1,1,0,0,1,.68.28.91.91,0,0,1,.28.67A1,1,0,0,1,24,46.11Z"/></svg>
