
<svg id="Layer_1" data-name="Layer 1" xmlns="http://www.w3.org/2000/svg" viewBox="0 0 85.04 85.04"><path d="M70.25,63.06h0a.86.86,0,0,1-.74-.35,4.87,4.87,0,0,1,0-6.21.86.86,0,0,1,.73-.36h0a3.42,3.42,0,0,0,2.41-1,3.33,3.33,0,0,0,.95-2.38,3.29,3.29,0,0,0-3.41-3.31c-.6,0-1.2,0-1.84,0h-.19c2.86-2.79,3.77-6,2.7-9.59S67.15,34,63.07,33.24a3.4,3.4,0,0,0-.5-2.7,3.48,3.48,0,0,0-2.69-1.28.8.8,0,0,1-.44-.25,4.26,4.26,0,0,1-.13-5.4.94.94,0,0,1,.79-.4,3,3,0,0,0,2.32-1.08,3.18,3.18,0,0,0,.72-2.52,3.11,3.11,0,0,0-3.35-2.68H25.89a9.48,9.48,0,0,0-1.76.13A9,9,0,0,0,16.85,23a8.87,8.87,0,0,0,1.59,9.25,12.31,12.31,0,0,0,.85.93l0,0H16.37a3.13,3.13,0,0,0-3.22,3.12,3.17,3.17,0,0,0,3.17,3.19.9.9,0,0,1,.59.27A4.26,4.26,0,0,1,17,45.2a.85.85,0,0,1-.74.36,3.06,3.06,0,0,0-2.91,2.08,3.13,3.13,0,0,0,.88,3.41l.23.2a10.07,10.07,0,0,0-4,5.39c-.12.37-.22.75-.31,1.14,0,.17-.08.35-.13.52v2.53l.06.22a2.45,2.45,0,0,1,.08.29,10,10,0,0,0,9.64,8.36l12.72,0H70.24a3.33,3.33,0,1,0,0-6.65ZM29.31,22a1.18,1.18,0,0,0,1.09,1.19H56.74a6.79,6.79,0,0,0,0,6H25.65a3,3,0,0,1-3.09-3.15,3.06,3.06,0,0,1,2.88-2.89c.22,0,.43,0,.65,0h.65a1.18,1.18,0,1,0,0-2.36c-2.44-.18-4.16.47-5.4,2a5.12,5.12,0,0,0-.71,5.58,5,5,0,0,0,4.67,3.13c3,0,6,0,9,0H60.05a.76.76,0,0,1,.74.77.77.77,0,0,1-.73.79,2,2,0,0,1-.35,0H25.9a7,7,0,0,1-7.11-5.42,7,7,0,0,1,5.79-8.39,14.5,14.5,0,0,1,1.69-.11H59.56a2.65,2.65,0,0,1,.7.06.68.68,0,0,1,.53.77.66.66,0,0,1-.58.68,3.54,3.54,0,0,1-.74.05H31a5.09,5.09,0,0,0-.55,0A1.12,1.12,0,0,0,29.31,22ZM63.2,51.84h1.43c1.82,0,3.65,0,5.47,0a1.15,1.15,0,0,1,1,.51.88.88,0,0,1,0,.9,1,1,0,0,1-.95.54h-7v-2ZM19.58,39.5H61.71A3.11,3.11,0,0,1,64.93,42a2.93,2.93,0,0,1-1.8,3.23V44c0-1-.41-1.43-1.43-1.43H43.77a1.28,1.28,0,0,0-1.08.5,1.1,1.1,0,0,0-.14,1,1.2,1.2,0,0,0,1.28.84H49.6v.6h-30A6.7,6.7,0,0,0,19.58,39.5ZM60.73,57.32,60,56.94c-.89-.45-1.73-.88-2.56-1.34a2,2,0,0,0-1-.31,2.15,2.15,0,0,0-1,.31c-.82.46-1.65.88-2.53,1.33l-.75.38V45h8.66Zm2.4-8h0v-.24c0-.42,0-.83,0-1.2a.54.54,0,0,1,.26-.18,5.42,5.42,0,0,0,3.85-4.19,5.41,5.41,0,0,0-4.92-6.39c-.4,0-.79,0-1.19,0H16.82a4.73,4.73,0,0,1-.67,0,.69.69,0,0,1-.61-.71.7.7,0,0,1,.59-.78,2.2,2.2,0,0,1,.53,0H61.59a7,7,0,0,1,7.27,6.37A6.86,6.86,0,0,1,63.13,49.36Zm-13.51.11h-.39q-16.24,0-32.49,0a2.42,2.42,0,0,1-.66-.06.69.69,0,0,1-.55-.76A.69.69,0,0,1,16.1,48a2.09,2.09,0,0,1,.55-.06h33Zm-31.3,2.62a9.1,9.1,0,0,1,2.07-.25H49.62v2H20.24A5.93,5.93,0,0,0,16,55.53a6,6,0,0,0-1.68,4.33,5.74,5.74,0,0,0,5.51,5.52c4.78,0,9.57,0,14.35,0H53.43a2.68,2.68,0,0,0,.49,0A1.12,1.12,0,0,0,55,64.26a1.15,1.15,0,0,0-1.08-1.21H20.35a3.51,3.51,0,0,1-3.59-2.65,3.43,3.43,0,0,1,.61-2.85,3.68,3.68,0,0,1,2.7-1.4H49.65v.74c0,.74,0,1.46,0,2.17a1.21,1.21,0,0,0,2,1.16l1.56-.8c1-.51,1.94-1,2.92-1.49a.81.81,0,0,1,.61,0c1,.49,2,1,3,1.52l1.51.78a1.21,1.21,0,0,0,2-1.18V56.19h3.7a7.17,7.17,0,0,0,0,6.86h-9.2a1.39,1.39,0,0,0-1.15.52,1.09,1.09,0,0,0-.13,1,1.22,1.22,0,0,0,1.3.82H70c.73,0,1.23.4,1.24,1A.88.88,0,0,1,71,67a1.3,1.3,0,0,1-1,.35H59.73q-19.87,0-39.74,0a7.73,7.73,0,0,1-1.67-15.26Z"/></svg>
