
<svg id="Layer_1" data-name="Layer 1" xmlns="http://www.w3.org/2000/svg" viewBox="0 0 85.04 85.04"><path d="M69.25,63.6H67.93c0-.15,0-.29,0-.42V56.76q0-8.55,0-17.11c0-.34,0-.43.38-.54a5.19,5.19,0,0,0,3.79-4.41l.05-.11,0-.1,0-4.15-.68-1.41c-1.1-2.17-2.19-4.33-3.28-6.51a1.24,1.24,0,0,1-.1-.57c0-.64,0-1.28,0-1.91V18.39A2.25,2.25,0,0,0,65.74,16H26A6,6,0,0,0,25,16a1.12,1.12,0,0,0-.1,2.19,3.89,3.89,0,0,0,.88.08q16.4,0,32.79,0h7.12v3H17.06v-3h3.88a1.17,1.17,0,0,0,1.27-1.17A1.12,1.12,0,0,0,21,16c-1.48,0-2.82,0-4.19,0a2.16,2.16,0,0,0-2.11,2.3V19.9c0,.63,0,1.27,0,1.9a2.09,2.09,0,0,1-.19.8L12.9,25.79c-.65,1.29-1.3,2.59-1.94,3.89a3.07,3.07,0,0,0-.31,1.3v.07a35.81,35.81,0,0,0,.09,3.58,5.19,5.19,0,0,0,3.8,4.49c.32.09.36.14.36.43q0,9.09,0,18.17v5.56c0,.09,0,.19,0,.32h-.25c-.36,0-.72,0-1.07,0a3,3,0,0,0-2.94,3c0,.92,0,1.83,0,2.75a1.68,1.68,0,0,0,1.6,1.8,5.39,5.39,0,0,0,.69,0h57a2.26,2.26,0,0,0,2.24-1.16l0-4,0-.1A3.26,3.26,0,0,0,69.25,63.6ZM63.7,32.31v-.59h6.17c0,.28,0,.57,0,.85a11.78,11.78,0,0,1-.21,2.34A3,3,0,0,1,66.27,37a3.08,3.08,0,0,1-2.56-2.95C63.7,33.48,63.7,32.9,63.7,32.31Zm-50.7,0v-.61h6.13c0,.26,0,.53,0,.79A11.44,11.44,0,0,1,19,34.72,2.9,2.9,0,0,1,15.63,37,3,3,0,0,1,13,34.14C13,33.54,13,33,13,32.32Zm25.39.11c0-.24,0-.48,0-.72h6.13c0,.27,0,.53,0,.8a14,14,0,0,1-.18,2.28,3,3,0,0,1-5.9-.31A15.48,15.48,0,0,1,38.39,32.43ZM30.08,42H20.54a2,2,0,0,0-2.28,2.29V63.54H17.2V58.69q0-9.52,0-19c0-.38.06-.47.41-.56a5,5,0,0,0,2.65-1.79,5.33,5.33,0,0,0,4.21,2.06h0a5.23,5.23,0,0,0,4.22-2,5.41,5.41,0,0,0,4.3,2,5.56,5.56,0,0,0,4.17-2,5.3,5.3,0,0,0,4.2,2h0a5.22,5.22,0,0,0,4.23-2,5.6,5.6,0,0,0,4.19,2h.08a5.49,5.49,0,0,0,4.2-2,5.43,5.43,0,0,0,4.13,2,5.58,5.58,0,0,0,4.34-2,5.41,5.41,0,0,0,2.94,1.87.66.66,0,0,1,.11.2s0,.06,0,.09,0,.08,0,.12V63.53H32.46V44.39C32.46,42.73,31.75,42,30.08,42ZM21.93,29.35l.34-1c.38-1.08.76-2.14,1.15-3.2l.15-.51a1.91,1.91,0,0,1,.45-1,1.76,1.76,0,0,1,1-.07,3.57,3.57,0,0,0,.56,0H29l-1.22,5.69Zm5.69,2.33c0,.29,0,.58,0,.87a12.25,12.25,0,0,1-.22,2.38A2.9,2.9,0,0,1,24.05,37a3,3,0,0,1-2.57-2.72c0-.64,0-1.27,0-1.93,0-.23,0-.45,0-.67h6.15Zm8.42.8a14.26,14.26,0,0,1-.15,2.2A3,3,0,0,1,30,34.42a16.73,16.73,0,0,1,0-2c0-.23,0-.47,0-.7h6.12C36.05,32,36,32.22,36,32.48Zm19-3.13-1.22-5.69H56.4c.74,0,1.49,0,2.22,0a.63.63,0,0,1,.22.07c.6,1.61,1.18,3.22,1.77,4.86l.27.75Zm6.07,5.91A3.06,3.06,0,0,1,57.83,37a3,3,0,0,1-2.5-2.49,11.93,11.93,0,0,1,0-2.08c0-.24,0-.49,0-.73h6.06c0,.27,0,.55,0,.83A6,6,0,0,1,61.08,35.26Zm-8.42-.09A3,3,0,0,1,49.36,37a3.09,3.09,0,0,1-2.56-2.9c0-.58,0-1.17,0-1.79,0-.21,0-.43,0-.64h6.13c0,.23,0,.47,0,.7A6.84,6.84,0,0,1,52.66,35.17Zm15.57-5.79c-1.58,0-3.14,0-4.69,0a.39.39,0,0,1-.23-.15c-.57-1.54-1.13-3.1-1.71-4.7l-.3-.85H64c.64,0,1.28,0,1.93,0a.6.6,0,0,1,.34.15c.82,1.59,1.62,3.2,2.42,4.79l.36.77Zm-21.52,0-.41-5.66h5.12l1.22,5.66Zm-16.55,0,1.22-5.66H36.5l-.41,5.66Zm-9.48-5.69h.82l-.29.82c-.58,1.61-1.15,3.18-1.72,4.74a.32.32,0,0,1-.17.14c-1.6,0-3.19,0-4.82,0h-.8a.42.42,0,0,1,0-.1L14,28.7c.8-1.6,1.6-3.19,2.42-4.77a.6.6,0,0,1,.26-.25C18,23.65,19.33,23.66,20.68,23.66Zm17.74,5.68.41-5.65H44l.41,5.65Zm-8.3,15V63.53H20.61V44.38ZM69.89,67.24v1.58h-57v-.48c0-.53,0-1,0-1.56s.31-.87.94-.89H68.53C69.7,65.89,69.89,66.08,69.89,67.24Z"/><path d="M36.05,60.21h25.4A2,2,0,0,0,63.7,58V44.3A2,2,0,0,0,61.46,42H51.12a1.51,1.51,0,0,0-.51,0,1.09,1.09,0,0,0-.91,1.14,1.07,1.07,0,0,0,1,1.11c.22,0,.45,0,.67,0h9.93V57.85H36.19V44.34h9.92a3.33,3.33,0,0,0,.7,0,1.06,1.06,0,0,0,.93-1.18c0-.69-.53-1.09-1.39-1.09H36a2,2,0,0,0-2.25,2.27q0,6.83,0,13.65A2,2,0,0,0,36.05,60.21Z"/><path d="M27.94,55.61H28a1,1,0,0,0,.67-.25,1.22,1.22,0,0,0,.42-.82c0-.2,0-.4,0-.6v-.52c0-.22,0-.43,0-.64A1.22,1.22,0,0,0,28.7,52,1,1,0,0,0,28,51.7a1.1,1.1,0,0,0-1.1,1c0,.58,0,1.19,0,1.81A1.1,1.1,0,0,0,27.94,55.61Z"/></svg>
