
<svg id="Layer_1" data-name="Layer 1" xmlns="http://www.w3.org/2000/svg" viewBox="0 0 85.04 85.04"><defs><style>.cls-1{stroke:#1d1d1b;stroke-miterlimit:10;stroke-width:0.5px;}</style></defs><path class="cls-1" d="M69.08,45.33a4.63,4.63,0,0,0,7.33-2.55,1.13,1.13,0,0,1,.12-.21V40.85a6.42,6.42,0,0,0-2.82-3.67c-4.17-3.07-8.29-6.21-12.44-9.3a1.31,1.31,0,0,1-.62-1.19q0-6.64,0-13.3A3.93,3.93,0,0,0,57.54,9.3a3.53,3.53,0,0,0-.79-.08H51.33a4,4,0,0,0-3.91,3.86c0,1.59,0,3.17,0,4.76a.2.2,0,0,1,0,.1c-1-.22-2-.5-3-.65a12.47,12.47,0,0,0-9.53,2.44c-5,3.71-10,7.47-15,11.22q-4.63,3.47-9.25,7a4.64,4.64,0,0,0,1.88,8.31,4.39,4.39,0,0,0,3.29-.63c.25-.15.48-.32.78-.53V57.49c-.35.06-.73.12-1.11.22a5.25,5.25,0,0,0-3.85,4.69,1.29,1.29,0,0,1-.27.7,5.2,5.2,0,0,0-.88,5.56.72.72,0,0,1-.13.64,4.19,4.19,0,0,0-1.55,4.18,4.15,4.15,0,0,0,3.21,3.4c.06,0,.11.07.16.11H73.09a4.73,4.73,0,0,0,2.61-1.76,16.38,16.38,0,0,0,.83-1.68V71.83a5,5,0,0,0-2-2.75,5.38,5.38,0,0,0,.5-3.68s0-.09,0-.13a11.88,11.88,0,0,1-1.36-2.52A9.78,9.78,0,0,0,72.85,60a5.38,5.38,0,0,0-4.19-2.51V45.09Zm-19-28.28c0-1.19,0-2.38,0-3.57s.52-1.61,1.63-1.62h4.77A1.35,1.35,0,0,1,58,13.3q0,5.88,0,11.78a2,2,0,0,1,0,.3L52.13,21,52,20.92c-.63-.48-1.51-.83-1.83-1.47A6.13,6.13,0,0,1,50.08,17.05ZM12.81,66.27a3.87,3.87,0,0,1,.94-1.67A1.87,1.87,0,0,0,14.37,63a2.49,2.49,0,0,1,2.79-2.73,1.54,1.54,0,0,0,1.51-.59,2.49,2.49,0,0,1,4,0,1.54,1.54,0,0,0,1.5.59A2.46,2.46,0,0,1,27,62.83a2,2,0,0,0,.78,1.89,2.28,2.28,0,0,1,.83,1.94c-.05,1.21-.59,1.73-1.78,1.73H14.54A1.63,1.63,0,0,1,12.81,66.27Zm61.07,6.4c0,1.08-.81,1.68-2.3,1.68H13.75c-1.51,0-2.31-.57-2.33-1.64S12.23,71,13.72,71H71.61C73.06,71,73.87,71.61,73.88,72.67ZM38.67,60.12c-.41,0-.83,0-1.4,0a51.2,51.2,0,0,1,.31-6.25,5.11,5.11,0,0,1,5.42-4,5.17,5.17,0,0,1,4.9,5c.11,4.47,0,9,0,13.47H37.38V62.81h1.19A1.38,1.38,0,0,0,40,61.54,1.32,1.32,0,0,0,38.67,60.12Zm32.25,3a1.54,1.54,0,0,0,.63,1.49,2.5,2.5,0,0,1,.6,3.32,1,1,0,0,1-.91.51c-2.2,0-4.41,0-6.61,0s-4.37,0-6.55,0A1.09,1.09,0,0,1,57,67.75a2.39,2.39,0,0,1,.5-3,2.06,2.06,0,0,0,.8-1.89,2.46,2.46,0,0,1,2.84-2.6,1.49,1.49,0,0,0,1.41-.54c1.32-1.47,2.84-1.46,4.16,0a1.45,1.45,0,0,0,1.35.51A2.5,2.5,0,0,1,70.92,63.08ZM59.17,34.54,46.85,25.28a6.5,6.5,0,0,0-8.35,0c-2.34,1.74-4.66,3.5-7,5.24A1.38,1.38,0,0,0,30.88,32a1.11,1.11,0,0,0,1,1,2.23,2.23,0,0,0,1.32-.42c2.2-1.59,4.36-3.23,6.52-4.87s3.61-1.66,5.78,0q10,7.5,20,15a1.1,1.1,0,0,1,.43.72c0,4.15,0,8.3,0,12.44a1.06,1.06,0,0,1,0,.19,20.59,20.59,0,0,0-2.08,0,5.12,5.12,0,0,0-2.67,1.22,1.26,1.26,0,0,1-.68.29,5.2,5.2,0,0,0-4.87,4.88.89.89,0,0,1-.17.54,5.35,5.35,0,0,0-1.14,5.4H50.59V55.13a7.94,7.94,0,0,0-15.75-1.42,9.88,9.88,0,0,0-.13,1.44c0,4.15,0,8.3,0,12.44v.78H31.14c0-1,.08-2,0-3s-1-1.72-1.33-2.6A14.53,14.53,0,0,0,28.91,60a5.2,5.2,0,0,0-4-2.43,1,1,0,0,1-.55-.13,5.4,5.4,0,0,0-5-1.32v-.74c0-3.91,0-7.81,0-11.72a1.1,1.1,0,0,1,.51-1c1.16-.84,2.3-1.71,3.44-2.57a1.36,1.36,0,0,0,.64-1.54,1.34,1.34,0,0,0-2.19-.64c-2.07,1.53-4.13,3.09-6.19,4.64-.32.24-.63.49-1,.71a2,2,0,0,1-2.77-.36,1.89,1.89,0,0,1,.42-2.75c1.81-1.4,3.65-2.76,5.49-4.14l18.4-13.81a10.24,10.24,0,0,1,12.91-.08Q61,31,72.91,40a2,2,0,0,1,.9,2.11,1.71,1.71,0,0,1-1.62,1.49A2.88,2.88,0,0,1,70.5,43C66.7,40.22,62.94,37.37,59.17,34.54Z"/><path class="cls-1" d="M42.61,43.23a5.29,5.29,0,1,0-5.25-5.31A5.26,5.26,0,0,0,42.61,43.23Zm0-7.93A2.64,2.64,0,1,1,40,38,2.69,2.69,0,0,1,42.63,35.3Z"/><path class="cls-1" d="M27.43,33.94a1.27,1.27,0,0,0-1.34,1.31,1.33,1.33,0,0,0,1.33,1.35,1.38,1.38,0,0,0,1.32-1.3A1.3,1.3,0,0,0,27.43,33.94Z"/></svg>
