
<svg id="Layer_1" data-name="Layer 1" xmlns="http://www.w3.org/2000/svg" viewBox="0 0 85.04 85.04"><path d="M71.15,61.79c-.32-.7-.65-1.42-1-2.1a4.81,4.81,0,0,0-.91-1.1l-.15-.15L60.7,50.07l-2.46-2.46c-1-.94-1.42-1-2.4,0a1.08,1.08,0,0,1-1,.33.73.73,0,0,1-.47-.59,1.56,1.56,0,0,1,.17-.69,1.14,1.14,0,0,1,.22-.24.93.93,0,0,0,.14-.14,1.26,1.26,0,0,0,0-2q-.7-.72-1.44-1.44L53,42.38l.7-.71,4-4a.57.57,0,0,1,.29,0,11.75,11.75,0,0,0,13.5-9.55.34.34,0,0,1,0-.1,1,1,0,0,1,0-.1l0-3.57v-.07c0-.09,0-.17-.07-.25a3.55,3.55,0,0,1-.14-.51,1.3,1.3,0,0,0-.92-1.15,1.26,1.26,0,0,0-1.34.45l-1.42,1.42c-1.33,1.32-2.66,2.65-4,4a.56.56,0,0,1-.71.16c-1.28-.46-2.59-.88-3.72-1.24a.54.54,0,0,1-.43-.41c-.43-1.35-.88-2.66-1.3-3.88a.39.39,0,0,1,.13-.51c2-2,4-4,5.48-5.47a1.39,1.39,0,0,0,.47-1.35,1.4,1.4,0,0,0-1.1-.89l-.69-.13-.42-.07-.24-.07-.11,0H58.63l-.19.05a.58.58,0,0,1-.15.06,11.47,11.47,0,0,0-8.57,5.75,11.32,11.32,0,0,0-1.45,7.55v.07c0,.3.06.45-.12.63Q43,33.62,37.79,38.8l-10,10a.68.68,0,0,1-.46.16,11.54,11.54,0,0,0-3.93,0,11.7,11.7,0,0,0-9.72,11.64,11.52,11.52,0,0,0,3.31,8.11,11.65,11.65,0,0,0,8.47,3.58A11.74,11.74,0,0,0,37,58.85a.74.74,0,0,1,.25-.73c1-1,2-2,3-3l1.25-1.26.23-.2.38.4,1.32,1.34c.84.84,1.4.85,2.25,0a2.1,2.1,0,0,1,.42-.35.73.73,0,0,1,.94.12.71.71,0,0,1,.14.93,2.62,2.62,0,0,1-.39.47,1.32,1.32,0,0,0,0,2.17L57.91,69.91a7.86,7.86,0,0,0,5.92,2.42,7.5,7.5,0,0,0,6.27-3.25,9.8,9.8,0,0,0,1-2c.13-.31.26-.63.41-.93l0-3.36,0-.11C71.41,62.36,71.28,62.07,71.15,61.79Zm-3.19,6a5.43,5.43,0,0,1-5.71,1.87L69,62.94A5.51,5.51,0,0,1,68,67.83ZM34.48,58.74a9,9,0,0,1-3.92,9.67,9.15,9.15,0,0,1-8.82.9,9.33,9.33,0,0,1,2.07-17.87A8.15,8.15,0,0,1,25,51.36c.7,0,1.42.07,2.12.13h.1a2.1,2.1,0,0,0,1.9-.6c6.92-7,14-14,21-21a2,2,0,0,0,.6-2,9.16,9.16,0,0,1,5.64-10.47,8.57,8.57,0,0,1,3.44-.66.72.72,0,0,0-.15.11l-1.86,1.85q-1.2,1.22-2.43,2.43A1.57,1.57,0,0,0,55,23c.56,1.59,1.09,3.22,1.61,4.8l.11.34a1.66,1.66,0,0,0,1.14,1.14c1.67.55,3.46,1.13,5.25,1.75a1.48,1.48,0,0,0,1.67-.4q1.64-1.65,3.27-3.27l1-1,.13-.13c0,.1,0,.19,0,.29A10.07,10.07,0,0,1,69,28a9.06,9.06,0,0,1-7.77,7.25,12.12,12.12,0,0,1-3.06-.1l-.21,0a1.91,1.91,0,0,0-1.77.56c-7.61,7.63-14.52,14.53-21.12,21.11A1.94,1.94,0,0,0,34.48,58.74ZM51.32,44.19l1.09,1.15a3,3,0,0,0-.48,2.46,4.13,4.13,0,0,0,1,1.73c.71.75,2,1.41,4,.34L67.63,60.53l-7.81,7.82-.23-.21L49.3,57.85c-.18-.18-.19-.19-.1-.33a3.13,3.13,0,0,0-.49-4.09,3.07,3.07,0,0,0-2.18-.9,3.49,3.49,0,0,0-1.87.57L43.55,52Z"/><path d="M14.57,21.36c.95,1.67,1.94,3.41,2.94,5.09a2.14,2.14,0,0,0,1.11.85c.53.18,1.08.31,1.61.44l1.21.31a2,2,0,0,1,.79.45q4.32,4.29,8.64,8.62l2.79,2.8.3.29.24.23L36,38.71l-.33-.29-.29-.27-2.24-2.23Q28.55,31.36,24,26.8a3.7,3.7,0,0,0-2.09-1.17c-.61-.11-1.23-.28-1.83-.45l-.26-.07c-.33-.1-.39-.19-.4-.2-.84-1.45-1.67-2.9-2.51-4.37l-.56-1,.43-.42c.67-.67,1.33-1.33,2-2a.54.54,0,0,1,.28,0c1.78,1,3.41,1.93,5,2.87a.82.82,0,0,1,.31.44c.1.37.2.74.29,1.1s.23,1,.39,1.45a3.43,3.43,0,0,0,.74,1.33c2.64,2.66,5.3,5.32,8,8l3.75,3.76a1.18,1.18,0,0,1,.2.28s0,.1.08.14l.16.25L39.82,35l-.29-.3-.31-.33-2.79-2.8c-2.53-2.53-5.14-5.16-7.74-7.7A4.78,4.78,0,0,1,27.05,21a4.64,4.64,0,0,0-.19-.82,6.06,6.06,0,0,1-.16-.61,2,2,0,0,0-1.13-1.49L20.74,15.3l-1.68-1h-.84L17,15.56l-2.88,2.86a1.27,1.27,0,0,0-.19,1.77Z"/><path d="M29.4,55.31a1.43,1.43,0,0,0-1.31-.75h-5.4a1.41,1.41,0,0,0-1.29.7c-.92,1.54-1.83,3.08-2.76,4.62a1.31,1.31,0,0,0,0,1.42q1.39,2.3,2.77,4.61a1.35,1.35,0,0,0,1.23.68q1,0,1.95,0h1.59c.64,0,1.26,0,1.9,0h.05a1.39,1.39,0,0,0,1.27-.74c.89-1.49,1.78-3,2.69-4.47a1.45,1.45,0,0,0,0-1.62C31.18,58.29,30.29,56.8,29.4,55.31Zm.2,5.43C29,61.85,28.32,62.93,27.68,64a.6.6,0,0,1-.36.21c-.46,0-.94,0-1.4,0H25c-.2,0-.43,0-.64,0a2.25,2.25,0,0,1-1.16-.09,2.37,2.37,0,0,1-.69-1c-.09-.19-.19-.38-.29-.56l-.21-.34c-.29-.48-.6-1-.87-1.48a.57.57,0,0,1,0-.34c.63-1.1,1.27-2.16,1.9-3.16a.63.63,0,0,1,.35-.22l2,0,2,0a.52.52,0,0,1,.35.21c.63,1,1.25,2,1.9,3.16A.42.42,0,0,1,29.6,60.74Z"/><polygon points="52.55 31.93 31.42 53.05 31.24 53.23 32.77 54.8 54.12 33.45 52.55 31.93"/><polygon points="63.74 62.8 53.93 53 52.29 54.49 62.19 64.39 63.74 62.8"/></svg>
