
<svg id="Layer_1" data-name="Layer 1" xmlns="http://www.w3.org/2000/svg" viewBox="0 0 85.04 85.04"><defs><style>.cls-1{fill:#1d1d1b;}</style></defs><path class="cls-1" d="M57.06,36.59A7.06,7.06,0,0,0,51.78,31a8.28,8.28,0,0,0-1.19-.22l-.46-.07a.35.35,0,0,0,0-.06c0-.64,0-1.28,0-1.92,0-1.52,0-3.09-.05-4.63a10,10,0,0,0-.71-3.34,6.62,6.62,0,0,0-6.84-4.21l-.71.08c-2.13.24-4.33.49-6.49.64a64.61,64.61,0,0,1-13.63-.56,8,8,0,0,0-3.83.1A7.54,7.54,0,0,0,13,23.72c0,1.65,0,3.31,0,4.92,0,.68,0,1.35,0,2l-.65.17-2,.53a1.26,1.26,0,0,0-.53.32,1.08,1.08,0,0,0-.21,1.45,1.13,1.13,0,0,0,1.49.51,5,5,0,0,1,3.39-.24,5.11,5.11,0,0,1,3.59,5.13c0,2,0,4.08,0,6.12s0,4.32,0,6.48a3.3,3.3,0,0,0,3.5,3.52H41.47A3.33,3.33,0,0,0,45,51.07V47c0-2.82,0-5.74,0-8.61a5.46,5.46,0,0,1,1.68-3.94,4.57,4.57,0,0,1,3.46-1.26,5,5,0,0,1,4.55,3.75,4.9,4.9,0,0,1-2.46,5.47,1.65,1.65,0,0,0-.94,1.65c0,3.89,0,7.86,0,11.7v1.82A3.06,3.06,0,0,1,48,60.88H15.11a3,3,0,0,1-3.31-3.34V55.65q0-5.82,0-11.64a1.55,1.55,0,0,0-.8-1.52,4.88,4.88,0,0,1-2.33-6.38c.32-.85.1-1.48-.6-1.76s-1.23,0-1.63.81A5.6,5.6,0,0,0,6,37.69c0,.22,0,.43,0,.65A6.49,6.49,0,0,0,8.89,44a1.08,1.08,0,0,1,.52,1v.83c0,4,0,8.13,0,12.2a5.29,5.29,0,0,0,4.63,5.19c.38,0,.76.08,1.17.11l.48,0v.83c0,.69,0,1.41,0,2.11A2.21,2.21,0,0,0,18,68.63h1.21A2.31,2.31,0,0,0,21.87,66V63.39H41.19c0,.32,0,.64,0,1,0,.62,0,1.25,0,1.87a2.25,2.25,0,0,0,2.46,2.4h1c1.9,0,2.71-.81,2.72-2.71V63.36h.33A5.69,5.69,0,0,0,52,61.75a5.93,5.93,0,0,0,1.69-4.47c-.09-2.67-.07-5.39,0-8,0-1.39,0-2.82,0-4.23a1.08,1.08,0,0,1,.5-1A7.05,7.05,0,0,0,57.06,36.59ZM42.61,38.42c0,1.4,0,2.8,0,4.23V44.5H20.49v-.15c0-.2,0-.39,0-.58,0-.69,0-1.39,0-2.08a39.77,39.77,0,0,0-.17-4.75,6.76,6.76,0,0,0-4.39-5.58.77.77,0,0,1-.56-.88c0-1.08,0-2.19,0-3.25s0-2,0-3a5.37,5.37,0,0,1,2.23-4.56A3.55,3.55,0,0,1,20.35,19a72.47,72.47,0,0,0,17.91.51c.8-.08,1.6-.18,2.38-.27L43,19a3.78,3.78,0,0,1,3.38,1.5,5.61,5.61,0,0,1,1.33,3.72c0,1.06,0,2.13,0,3.19s0,2.19,0,3.29a.55.55,0,0,1-.41.61A7.34,7.34,0,0,0,42.61,38.42Zm0,12.95c0,.34-.14.81-1.13.81H22c-1.38,0-1.53-.15-1.53-1.57V47H42.6v1.18C42.61,49.24,42.62,50.31,42.58,51.37Zm2.32,12v2.79H43.73V63.38Zm-25.54,0V66.2H18.18V63.37Z"/><path class="cls-1" d="M79,42.83c0-.12,0-.25,0-.37a2.45,2.45,0,0,0-2.69-2.67H69.93v-4.5h1c.85,0,1.65,0,2.47,0a2.23,2.23,0,0,0,1.82-.91,2.14,2.14,0,0,0,.21-2c-.76-2.18-1.55-4.32-2.3-6.34A2,2,0,0,0,71,24.66H66.43a2.09,2.09,0,0,0-2.31,1.6l-.69,1.94C63,29.5,62.5,30.83,62,32.12a2.3,2.3,0,0,0,.17,2.27,2.37,2.37,0,0,0,2.11.92c.73-.05,1.5,0,2.24,0h.89v4.5H64.85c-1.35,0-2.75,0-4.12,0a3.62,3.62,0,0,0-2.84.78c-.58.6-.78,1.54-.66,3.05,0,0,0,0,0,.08v.06a2,2,0,0,0,1.45,1.93c.89.2.91.68.84,1.38a3.87,3.87,0,0,0,0,.59v.07c0,.81.46,1.28,1.17,1.29h0a1.19,1.19,0,0,0,1.21-1.32V46H74.29v6.71H62v-.06c0-.1,0-.19,0-.28a1.63,1.63,0,0,0-.44-1.17,1.06,1.06,0,0,0-.81-.29c-.72,0-1.15.58-1.15,1.48v1.36c0,2.8,0,5.69,0,8.54,0,.25.05,1.11.45,1.39.62.43.6,1,.59,1.59v.26c0,1.32.09,2.12.54,2.59s1.24.54,2.53.54h0c1.61,0,2.34-.71,2.35-2.32V64.39h3.81v1c0,.11,0,.23,0,.34,0,.27,0,.54,0,.81a2,2,0,0,0,2.11,2H73.1a2,2,0,0,0,2.2-2.18v-.67c0-.36,0-.74,0-1.1a.61.61,0,0,1,.25-.43,2.07,2.07,0,0,0,1.2-2.08q0-5.89,0-11.79V46c1.39-.37,2.06-1,2.23-1.91A6.14,6.14,0,0,0,79,42.83ZM72.36,66.19V64.4l.44,0v1.82ZM63.55,66s-.19.16-.28.21l-.13.07-.06-.08V64.4l.5,0v.38A8.56,8.56,0,0,1,63.55,66ZM74.3,55.18v6.75H62V55.18ZM73,32.81H64.33l1-2.75c.31-.85.63-1.73.92-2.6.11-.32.24-.43.55-.43h3.73a.6.6,0,0,1,.43.19c.58,1.51,1.12,3,1.7,4.6Zm3.6,9.48v1.17H59.71V42.29Z"/><path class="cls-1" d="M67.82,48.8l.29,0,.13,0h.14a3.11,3.11,0,0,0,.61,0,1.21,1.21,0,0,0,0-2.41,8.27,8.27,0,0,0-1.73,0,1.19,1.19,0,0,0,0,2.36A4.62,4.62,0,0,0,67.82,48.8Z"/><path class="cls-1" d="M39.89,27.61c-.16-.93-.52-1.34-1.18-1.37h-.07c-1,0-1.16.78-1.27,1.4A1.25,1.25,0,0,0,36,28.76c-.1.75.39,1.07,1.39,1.4.21,1,.55,1.34,1.22,1.34h.07c.68,0,1-.44,1.21-1.38,1-.2,1.41-.6,1.39-1.28S40.86,27.8,39.89,27.61Z"/><path class="cls-1" d="M25.7,27.61c-.17-.83-.45-1.38-1.24-1.38h0c-.71,0-1.09.43-1.25,1.42-.88.1-1.32.46-1.38,1.11s.43,1.11,1.39,1.38c.14.89.48,1.29,1.12,1.35h.17c.7,0,1-.48,1.23-1.39.83-.17,1.37-.46,1.36-1.26S26.67,27.8,25.7,27.61Z"/><path class="cls-1" d="M67.18,58c.32,0,.63,0,.94,0a8,8,0,0,0,1-.06,1.06,1.06,0,0,0,1-1.17,1.12,1.12,0,0,0-1-1.16,3.68,3.68,0,0,0-.66-.06H68v0h-.17a2.92,2.92,0,0,0-.66,0,1.14,1.14,0,0,0-1,1.2A1.08,1.08,0,0,0,67.18,58Z"/></svg>
