
<svg id="Layer_1" data-name="Layer 1" xmlns="http://www.w3.org/2000/svg" viewBox="0 0 85.04 85.04"><path d="M3.82,52.47c.13-.29.26-.58.36-.87a17.75,17.75,0,0,1,9.35-10.46l.45-.22a3.75,3.75,0,0,0-.27-.36A6,6,0,0,1,12.53,34a6,6,0,0,1,5.59-3.83,9.2,9.2,0,0,1,1.05,0,1.56,1.56,0,1,1,0,3.1h-1a3.11,3.11,0,0,0,0,6.22c5.27,0,10.53,0,15.8,0a3.11,3.11,0,0,0-.09-6.21c-.27,0-.55,0-.83,0a1.52,1.52,0,0,1-1.48-1.59A1.5,1.5,0,0,1,33,30.14a6.21,6.21,0,0,1,5.39,2.19,6.11,6.11,0,0,1,.78,7,20.52,20.52,0,0,1,1.14,1.88c1.27,2.75,2.52,5.53,3.75,8.31a.88.88,0,0,0,.95.63c1.06,0,2.12,0,3.18,0a.71.71,0,0,0,.79-.51C50,47.17,51,44.76,52,42.32a1.37,1.37,0,0,0-.07-1c-1.59-3.72-3.22-7.42-4.81-11.14a5.2,5.2,0,0,1-.36-1.74c0-1.86,0-3.72,0-5.66H42.33c-1.41,0-2.16-.53-2.17-1.54s.75-1.57,2.14-1.57h4.47c0-.42,0-.79,0-1.16a1.55,1.55,0,0,1,1.62-1.61,9.07,9.07,0,0,1,9.68,9.29c0,1.57,0,1.57,1.55,2.05A15.08,15.08,0,0,1,70.16,42c0,1.29-.37,1.76-1.64,2-6,1.09-10.17,5-11.4,10.78a20.33,20.33,0,0,0-.24,3.83c0,1.29-.52,1.9-1.78,1.9q-10.51,0-21,0c-1.21,0-1.74-.56-1.76-1.78s0-2.66,0-4.06H28.94a11.43,11.43,0,0,1-2.85,10.67,11,11,0,0,1-8,3.58,11.07,11.07,0,0,1-9.23-4.29,11.39,11.39,0,0,1-2.21-10c-1.09,0-2.16.1-2.79-1Zm49.83,5c.68-8.52,5.08-14,13.3-16.31,0,0,0-.07,0-.11a11.86,11.86,0,0,0-6.83-9.25,10.7,10.7,0,0,0-4.66-1.09H50.7c.15.37.24.62.35.87,1.36,3.14,2.74,6.26,4.06,9.41a2.42,2.42,0,0,1,.11,1.65c-1.3,3.21-2.69,6.38-4,9.57a1.61,1.61,0,0,1-1.6,1h-6a1.65,1.65,0,0,1-1.65-1.08c-.42-1-.9-1.9-1.29-2.88a1,1,0,0,0-1.11-.74c-2.21,0-4.43,0-6.64,0A1.59,1.59,0,0,1,31,47c0-.93.64-1.53,1.75-1.54,1.71,0,3.42,0,5.13,0h.92c-.4-.89-.75-1.64-1.05-2.4a.77.77,0,0,0-.85-.54c-5.29,0-10.58-.07-15.86,0A14.42,14.42,0,0,0,8,50.45c-.19.33-.31.69-.5,1.12h26c1.38,0,1.93.56,1.93,1.93v3.93ZM21.84,54.64c1.16,3.3.83,5.2-1.14,6.71A4.85,4.85,0,0,1,13.17,59a5.12,5.12,0,0,1,.62-4.42c-1.11,0-2.09.06-3.06,0-.74-.06-1,.23-1.16.9a8.42,8.42,0,1,0,16.29-.29c-.07-.22-.31-.54-.47-.55C24.21,54.62,23,54.64,21.84,54.64Zm33.1-27.13c.54-3.8-2.17-7.69-5-7.31v7.31Zm-35.39,30a1.76,1.76,0,0,0-1.75-1.78A1.74,1.74,0,0,0,16,57.45a1.76,1.76,0,0,0,1.78,1.82A1.78,1.78,0,0,0,19.55,57.51Z"/><path d="M70.24,69a11,11,0,1,1,11-10.82A11,11,0,0,1,70.24,69Zm0-18.8a7.88,7.88,0,0,0,0,15.76,7.88,7.88,0,1,0,0-15.76Z"/><path d="M27.71,31.64a1.44,1.44,0,0,1-1.53,1.49,1.48,1.48,0,0,1-1.49-1.47,1.54,1.54,0,0,1,1.51-1.55A1.48,1.48,0,0,1,27.71,31.64Z"/><path d="M70.28,53.37A4.69,4.69,0,0,1,75,58a4.77,4.77,0,0,1-4.71,4.72,4.7,4.7,0,0,1-4.64-4.67A4.61,4.61,0,0,1,70.28,53.37ZM71.85,58a1.63,1.63,0,0,0-1.58-1.59,1.64,1.64,0,0,0-1.61,1.65,1.57,1.57,0,0,0,1.67,1.55A1.53,1.53,0,0,0,71.85,58Z"/></svg>
