
<svg id="Layer_1" data-name="Layer 1" xmlns="http://www.w3.org/2000/svg" viewBox="0 0 85.04 85.04"><path d="M72.77,39.91c0,1.43-.11,2.77,0,4.1a3.64,3.64,0,0,1-4.69,4c0,1.54,0,3.07,0,4.59a3.45,3.45,0,0,1-3.68,3.7H62.24a3.46,3.46,0,0,1-3.47-3.47V40h-3.5c0,1,0,2,0,3a4.62,4.62,0,0,1-.2,1.28c-.61,1.89-1.26,3.77-1.86,5.66A5,5,0,0,0,53,51.42c0,5.76,0,11.53,0,17.29,0,1.2-.35,1.54-1.56,1.54q-7.8,0-15.61,0c-1.15,0-1.5-.36-1.5-1.53,0-5.71,0-11.42,0-17.13a2.7,2.7,0,0,0-.42-1.4c-1.24-1.94-2.55-3.84-3.8-5.78a3,3,0,0,1-.41-1.34c-.06-1,0-2,0-3.11H26.1v12.6a3.46,3.46,0,0,1-3.69,3.69H20.23a3.46,3.46,0,0,1-3.46-3.48c0-1.6,0-3.2,0-4.81-2.39.39-4.11-.58-4.58-2.58a7.07,7.07,0,0,1-.08-1.6c0-1.26,0-2.52,0-3.87-.45,0-.85,0-1.26,0a3.45,3.45,0,0,1-3.4-3.38c0-.81,0-1.61,0-2.41A3.45,3.45,0,0,1,11,30.58H12.1c0-1.19,0-2.34,0-3.5a9.14,9.14,0,0,1,.08-2c.45-2,2.21-3,4.58-2.58V18a3.48,3.48,0,0,1,3.74-3.71h2a3.45,3.45,0,0,1,3.55,3.54c0,4,0,7.92,0,11.88v.91c1.18,0,2.33,0,3.49,0,.1,0,.24-.14.3-.25a3.64,3.64,0,0,1,3.84-2.07,4.32,4.32,0,0,0,.54,0c0-.36,0-.69,0-1a3.5,3.5,0,0,1,5.6-2.95l.19.1c2.77-1.43,4.31-1,5.81,1.66,2.61-.29,3.46.13,4.65,2.31a10.19,10.19,0,0,1,1.65-.08,3.26,3.26,0,0,1,2.7,1.85.72.72,0,0,0,.78.47c1,0,2,0,3.12,0V17.92a3.47,3.47,0,0,1,3.7-3.68h2.19a3.46,3.46,0,0,1,3.44,3.42c0,1.61,0,3.21,0,4.74a12.19,12.19,0,0,1,2.23.19,3.35,3.35,0,0,1,2.44,3.25c0,1.51,0,3,0,4.52a1.18,1.18,0,0,0,.07.22H74a3.47,3.47,0,0,1,3.47,3.47v2.33a3.47,3.47,0,0,1-3.56,3.53C73.54,39.92,73.21,39.91,72.77,39.91Zm-36.13,28h14v-.83c0-3.89.13-7.78,0-11.66a23,23,0,0,1,1.69-10.22c.1-.24.15-.51.26-.75.67-1.44.35-3,.41-4.46H41.25l.42.5a8,8,0,0,1,1.93,5.28,1.11,1.11,0,0,1-1.13,1.17,1.14,1.14,0,0,1-1.2-1.1,11,11,0,0,0-.22-1.51,5.81,5.81,0,0,0-5.44-4.38c-1-.07-1.34-.43-1.34-1.41,0-1.44,0-2.87,0-4.3a1.14,1.14,0,0,1,1.3-1.29c.68,0,1.37,0,2,0a1.23,1.23,0,0,0,1.32-1.33c0-.3,0-.62,0-1H33.43c-1.06,0-1.49.44-1.49,1.52,0,3.47,0,6.95,0,10.42a1.84,1.84,0,0,0,.28.94c1,1.52,2,3,3,4.55.7,1.07,1.7,2,1.3,3.58,1.27,0,2.4,0,3.54,0A1.17,1.17,0,1,1,40,53.92c-1.13,0-2.26,0-3.38,0ZM19.1,35.17V52.31c0,1.21.4,1.6,1.62,1.61H22c1.47,0,1.81-.34,1.81-1.79V18.37c0-.17,0-.34,0-.51a1.23,1.23,0,0,0-1.3-1.28c-.55,0-1.11,0-1.67,0-1.32,0-1.7.37-1.7,1.68Zm46.67.08V22.7c0-1.55,0-3.11,0-4.66,0-1-.45-1.45-1.48-1.46H62.91c-1.47,0-1.81.33-1.81,1.79V52.13c0,.17,0,.34,0,.51a1.21,1.21,0,0,0,1.29,1.27c.53,0,1.07,0,1.6,0,1.42,0,1.77-.35,1.77-1.76Zm-49,0V26.94c0-.27,0-.54,0-.81,0-.83-.51-1.39-1.19-1.38a1.24,1.24,0,0,0-1.14,1.35c0,.14,0,.29,0,.44V43.81c0,.17,0,.34,0,.51,0,.85.47,1.41,1.14,1.42a1.24,1.24,0,0,0,1.19-1.38Zm51.33-.08v8.17c0,.34,0,.68,0,1,0,.83.5,1.39,1.18,1.38a1.24,1.24,0,0,0,1.15-1.34V26.1a1.25,1.25,0,0,0-1.15-1.35,1.22,1.22,0,0,0-1.18,1.38Q68.1,30.66,68.1,35.17ZM41.27,31.75v4.3c0,1,.46,1.54,1.19,1.52S43.6,37,43.6,36.08q0-4.34,0-8.67c0-.91-.45-1.48-1.15-1.49s-1.18.57-1.18,1.53Zm7,1.16c0-1.07,0-2.13,0-3.2,0-.9-.48-1.47-1.19-1.46s-1.14.57-1.14,1.42q0,3.24,0,6.48c0,.85.47,1.41,1.14,1.42s1.18-.56,1.19-1.45C48.28,35.05,48.27,34,48.27,32.91Zm7,0v4.59h3.47V33Zm-29.11,0v4.6h3.42v-4.6Zm26.8,1.15c0-.75,0-1.5,0-2.26a1.16,1.16,0,1,0-2.32,0q0,2.22,0,4.44a1.17,1.17,0,1,0,2.32,0C53,35.55,52.94,34.82,52.94,34.09ZM12.08,32.91h-.73c-1.16,0-1.58.41-1.58,1.58,0,.6,0,1.21,0,1.82a1.16,1.16,0,0,0,1,1.23,8,8,0,0,0,1.3,0ZM72.8,37.57c.44,0,.81,0,1.17,0a1.19,1.19,0,0,0,1.11-1.5C75,35,75.79,33.46,74,32.94a4.43,4.43,0,0,0-1.21,0ZM36.6,35.28c0,.8-.24,1.66.63,2.1a1.39,1.39,0,0,0,1.18-.07c.81-.54.47-1.41.51-2.14Zm2.33-7.06c0-.83.24-1.71-.66-2.13a1.39,1.39,0,0,0-1.13.08c-.76.49-.53,1.3-.5,2Z"/></svg>
