
<svg id="Layer_1" data-name="Layer 1" xmlns="http://www.w3.org/2000/svg" viewBox="0 0 85.04 85.04"><defs><style>.cls-1{fill:#1d1d1b;}</style></defs><path class="cls-1" d="M77.06,60.2l0-.09A.21.21,0,0,0,77,60a15.41,15.41,0,0,0-3-7.45,3,3,0,0,1-.5-2.48,12.34,12.34,0,0,0-8-14.21c-.36-.13-.43-.24-.43-.62,0-.93,0-1.85,0-2.77,0-2.83,0-5.75,0-8.62a8.88,8.88,0,0,1,1.5-5.79,2.14,2.14,0,0,0,.41-1.2c0-2.29,0-4.18,0-5.93A2.73,2.73,0,0,0,64.1,8.22H58.71A2.75,2.75,0,0,0,55.86,11c0,.34,0,.68,0,1a12.67,12.67,0,0,1,0,1.85,9,9,0,0,0,1.68,6.5,1.42,1.42,0,0,1,.22.72c0,2.43,0,4.85,0,7.28s0,4.66,0,7c0,.27,0,.33-.37.48a32.46,32.46,0,0,0-3,1.52,7.59,7.59,0,0,0-1.13.85.39.39,0,0,0-.1.08V36h.09l.7,0a1.22,1.22,0,0,0,1.18-1.17A1.26,1.26,0,0,0,54,33.43a2.85,2.85,0,0,0-.5,0H28.65a2.8,2.8,0,0,0-.5,0A1.23,1.23,0,0,0,27,34.76a1.18,1.18,0,0,0,1.16,1.18c.22,0,.43,0,.66.05h.08v1.28c0,2,0,3.88,0,5.8a.87.87,0,0,1-.33.45A19.31,19.31,0,0,0,26.23,70a.46.46,0,0,1,0,.65c-1.05,1.75-2.06,3.5-2.82,4.82a1.29,1.29,0,0,0,.35,1.82,1.25,1.25,0,0,0,.93.18,1.48,1.48,0,0,0,.9-.7q.36-.57.69-1.17l2-3.34a19,19,0,0,0,15.09,5.11,22.6,22.6,0,0,0,3.48-.71c.4-.11.79-.21,1.19-.3a1.21,1.21,0,0,0,.76-.53,1,1,0,0,0,.11-.79,1.83,1.83,0,0,0-.79-1A1.5,1.5,0,0,0,47,74a17.4,17.4,0,0,1-8.5.59A16.93,16.93,0,0,1,24.72,59.7a16.44,16.44,0,0,1,4.84-13.51,16.65,16.65,0,0,1,19.88-3.08c.33.18.35.25.24.58a12.1,12.1,0,0,0-.34,6.55,2.71,2.71,0,0,1-.67,2.53,8.86,8.86,0,0,0-15,9.4,8.6,8.6,0,0,0,4.85,4.2,8.78,8.78,0,0,0,7.58-.75l0,0,0,.13A15.65,15.65,0,0,0,57.06,77a18.24,18.24,0,0,0,1.88.44l.88.17H63l.88-.18A14.62,14.62,0,0,0,65.83,77,15.55,15.55,0,0,0,77,64a.55.55,0,0,1,.05-.13.54.54,0,0,0,0-.11l0-3.46ZM51.72,48.88c-.83-4.08,2-9,6-10.42v3c0,3.05,0,6.1,0,9.16a.93.93,0,0,1-.36.83A6.3,6.3,0,0,0,55.29,57a5.79,5.79,0,0,0,3.1,4.55,1.28,1.28,0,0,0,1.79-.43,1.25,1.25,0,0,0-.44-1.73l-.16-.1-.08-.05A3.61,3.61,0,0,1,58,55a3.56,3.56,0,0,1,3.71-2.42,3.51,3.51,0,0,1,3.25,2.91,3.43,3.43,0,0,1-1.23,3.44c-.13.11-.27.2-.41.3l-.28.19a1.27,1.27,0,0,0-.42,1.74,1.23,1.23,0,0,0,1.74.42A5.88,5.88,0,0,0,67.5,57a6,6,0,0,0-2.21-5.6.61.61,0,0,1-.21-.35c0-4,0-8.08,0-12.12v-.43A9,9,0,0,1,69,41.32a9.55,9.55,0,0,1,2,8.24,5.88,5.88,0,0,0,1.12,4.81A12.93,12.93,0,0,1,70.72,71.2a12.4,12.4,0,0,1-13.11,3.31,12.53,12.53,0,0,1-9.09-10.09,12.07,12.07,0,0,1,2-9.73A7,7,0,0,0,51.72,48.88Zm12.65-35v.22a2.53,2.53,0,0,0,0,.55,5.64,5.64,0,0,1-1.21,4.27.67.67,0,0,1-.42.27,26.42,26.42,0,0,1-2.67,0,.63.63,0,0,1-.42-.24c-.41-.64-.77-1.33-1.1-2a1.47,1.47,0,0,1-.15-.59V14.14c0-.93,0-1.87,0-2.8a.69.69,0,0,1,.12-.48.61.61,0,0,1,.47-.13h0c1.52,0,3.12,0,4.78,0a.67.67,0,0,1,.47.11.62.62,0,0,1,.1.46c0,.6,0,1.2,0,1.8ZM62.43,48.19V50H60.34V48.19Zm0-5.15v2.47h-2.1V43Zm-2.09-7.8V32.77h2.08v2.47Zm2.09,2.67v2.47h-2.1V37.91ZM60.36,25V21.81h2.07V25Zm2.08,2.58v2.51H60.35V27.61Zm-12.35,13-1.37-.51L46.4,39.2a.57.57,0,0,1-.25-.23c0-.78,0-1.56,0-2.38V36h4.39v4.79A3.36,3.36,0,0,0,50.09,40.59ZM43.57,36v2.75H38.34V36Zm-7.8.58c0,1,0,1.86,0,2.77a.35.35,0,0,1-.07.12c-1.21.53-2.43,1-3.68,1.57l-.52.22V39c0-.92,0-1.83,0-2.74a.72.72,0,0,1,.12-.29c1.16,0,2.3,0,3.52,0h.62Zm7.1,15.23A6,6,0,0,1,47,54.93a.91.91,0,0,1,0,.67,16.32,16.32,0,0,0-1.32,6.77.86.86,0,0,1-.25.58,6,6,0,0,1-6.14,1,5.93,5.93,0,0,1-4-4.84A6.07,6.07,0,0,1,36.8,54a7.18,7.18,0,0,1,5.45-2.23Z"/><path class="cls-1" d="M22.75,28.15l4.36,1.19a4.23,4.23,0,0,0,1.48.16,3.3,3.3,0,0,0,3-3.05,3.34,3.34,0,0,0-2.64-3.63l-.68-.19c-5.3-1.47-10.78-3-16.19-4.45a4.22,4.22,0,0,0-2,0,3.22,3.22,0,0,0-2.39,3.12A3.29,3.29,0,0,0,10,24.59c1.69.49,3.41,1,5.07,1.43l2,.57c.82.22.82.22.82,1.07v1.28c0,1,0,2.07,0,3.1a1.32,1.32,0,0,0,1.24,1.38h.06a1.32,1.32,0,0,0,1.28-1.37c0-.24,0-.48,0-.73V27.53l.46.12Zm5-1.28L11,22.23a1.15,1.15,0,0,1-.73-.49.72.72,0,0,1,0-.56c.16-.54.58-.72,1.24-.54l13.47,3.72,3.25.91a2,2,0,0,1,.35.11.76.76,0,0,1,.51.91.8.8,0,0,1-.93.67l-.06,0Z"/><path class="cls-1" d="M20.45,36.63a1.22,1.22,0,0,0-1.23-1,1.24,1.24,0,0,0-1.25,1,3.35,3.35,0,0,0,0,.72V75.69a2.85,2.85,0,0,0,0,.65,1.21,1.21,0,0,0,1.23,1h0a1.19,1.19,0,0,0,1.23-1,4,4,0,0,0,.06-.86q0-7.62,0-15.23V37.4A3.36,3.36,0,0,0,20.45,36.63Z"/><path class="cls-1" d="M57,69H65.7a1.33,1.33,0,0,0,1-.38,1.31,1.31,0,0,0-.93-2.19H57a1.31,1.31,0,0,0-1.39,1.24,1.23,1.23,0,0,0,.34.92A1.37,1.37,0,0,0,57,69Z"/></svg>
