
<svg id="Layer_1" data-name="Layer 1" xmlns="http://www.w3.org/2000/svg" viewBox="0 0 85.04 85.04"><path d="M74.06,41c-.08-.22-.15-.44-.24-.65a4.89,4.89,0,0,0-3-3c-.26-.1-.28-.16-.28-.4q0-3.37,0-6.74V29.13c0-.81-.3-1.16-1.12-1.34l-.06,0-.05,0a1.18,1.18,0,0,0-1.1,1.36v1.21c0,2.17,0,4.33,0,6.5,0,.32,0,.4-.33.5a3.48,3.48,0,0,0-2.09,1.85c0,.09-.08.12-.08.13a1.23,1.23,0,0,1-.15-.08,4.59,4.59,0,0,1-2.35-4.15,30.75,30.75,0,0,0,0-4.29,8.1,8.1,0,0,0-5.31-6.88l-.33-.13.37-.34a1.2,1.2,0,0,0,.1-1.7,1.12,1.12,0,0,0-.82-.39,1.17,1.17,0,0,0-.87.37,12.43,12.43,0,0,1-6.19,3,.36.36,0,0,1-.46-.16,3.29,3.29,0,0,0-2.5-1.25l-1.05,0a32.15,32.15,0,0,0-3.4,0A4,4,0,0,1,39.55,22l-.11-.1-.22-.19a1.12,1.12,0,0,0-1.63,0,1.13,1.13,0,0,0-.13,1.52c-.24,0-.46,0-.68.05a3.42,3.42,0,0,0-3.06,2.27c-.54,1.38-1,2.6-1.42,3.73-.1.28-.19.35-.45.33-.83,0-1.74,0-2.86,0-.24,0-.27,0-.32-.2a3.85,3.85,0,0,0-1.22-1.83c-.1-.08-.11-.1-.12-.14-.1-2.05,0-4.39,1.78-6.26a8.34,8.34,0,0,1,5.08-2.61,2.7,2.7,0,0,0,2.34-2A4.82,4.82,0,0,1,41.22,13c4.16,0,8.63-.08,13.1,0A4.76,4.76,0,0,1,59,16.6a2.61,2.61,0,0,0,2.34,2,8.19,8.19,0,0,1,5.51,3.18,6.3,6.3,0,0,1,1.24,2.92,1.26,1.26,0,0,0,1.24,1.22h.1c.86-.28,1.13-.69,1-1.5a9.62,9.62,0,0,0-7.39-7.83A2.68,2.68,0,0,1,60.8,14.8a6.55,6.55,0,0,0-6.26-4.08c-3.67-.08-7.39-.06-11,0H41.06a7.12,7.12,0,0,0-6.71,5,.7.7,0,0,1-.68.57,9.94,9.94,0,0,0-8.46,7.43A9.17,9.17,0,0,0,25,26.39a.55.55,0,0,1,0,.2s0,.05-.24,0H18.63a4,4,0,0,0-3.88,2.27,3.91,3.91,0,0,0,.52,4.46l.06.06-.1.1A4,4,0,0,0,15,39.35s.06.08.07.08l-.07.1a4,4,0,0,0,0,5.67l.08.1s0,.05-.1.14a4,4,0,0,0-.4,4.93c.12.19.11.27,0,.5q-1.42,2.7-2.82,5.41a1.42,1.42,0,0,0-.19,1.25,1.48,1.48,0,0,0,1.07.75l.06,0,.07,0a1.76,1.76,0,0,0,1.13-1l1.35-2.59,1.25-2.4c.13-.27.15-.27.36-.18a3,3,0,0,0,1.27.18h.43a3.44,3.44,0,0,0,.64,0c.36,0,.73-.08.88.07s.11.54.07.91a4.54,4.54,0,0,0,0,.63c0,.26,0,.51,0,.77V55a3.6,3.6,0,0,0,3.51,3.62h1l-.31,1.43c-.28,1.28-.56,2.55-.85,3.82l-.87,3.86c-.3,1.29-.59,2.57-.88,3.86a3.93,3.93,0,0,0-.06.48l0,.26a1.2,1.2,0,0,0,.42.72,1.45,1.45,0,0,1,.17.18l.07.09h.93l.07,0a1.8,1.8,0,0,0,.72-1.12q1-4.44,2-8.89l1-4.4a.5.5,0,0,1,0-.12c0-.05,0-.11.05-.12a1.52,1.52,0,0,0,.37,0c.26,0,.32,0,.39.14.2.44.42.87.64,1.3l.28.54a7,7,0,0,0,4,3.53l1.9.69c.63.23,1.26.47,1.9.69a1.2,1.2,0,0,0,1.7-.61l0-.09a1.22,1.22,0,0,0-.89-1.49l-2-.71c-.63-.23-1.26-.47-1.9-.69A4.52,4.52,0,0,1,31,59.66l-1.44-2.84c-.61-1.22-1.22-2.43-1.84-3.64A7.72,7.72,0,0,1,27,50.77L26.92,50c-.29-1.59-.57-3.18-.83-4.77,0-.23,0-.37,0-.44a.72.72,0,0,1,.44-.15,2.32,2.32,0,0,1,2,.65,1.42,1.42,0,0,1,.48,1.2A12.93,12.93,0,0,0,39.84,59.86c1.61.24,3.22.63,4.78,1l2.1.49c2.88.64,5.49-.16,8-2.45a4.82,4.82,0,0,0,1.24-4.31c-.09-.78-.19-1.56-.28-2.33-.25-2-.51-4-.57-6,0-1,0-2,0-3.26a1.92,1.92,0,0,1,.73-1.42,2.1,2.1,0,0,1,1.64-.48c.22,0,.28.08.28.38,0,.56,0,1.12.05,1.68s0,1.14,0,1.71a6.27,6.27,0,0,0,.71,2.78C59.88,50.17,61,52.75,62,55.39a9.82,9.82,0,0,1,.25,7.49A19.46,19.46,0,0,0,61,71.34a4.56,4.56,0,0,1,0,.52v.29l0,0c.18.5.51,1.16,1.39,1,.43-.07.95-.36,1-1.38l0-1.46,0-2.48A9.46,9.46,0,0,1,64.06,65c.11-.3.22-.6.32-.9a13.94,13.94,0,0,0,.73-3,2.78,2.78,0,0,1,.49-1.32,12.55,12.55,0,0,0,1.91-4.83c0-.2,0-.23.19-.28,3.46-1.09,5.59-3.59,6.36-7.45,0,0,0,0,0-.07l.12,0V41.41Zm-2.43,6.37a6.77,6.77,0,0,1-3.89,4.74V49.18c0-2.81,0-5.6,0-8.4a1.25,1.25,0,0,1,.59-1,1.83,1.83,0,0,1,1-.32,1.88,1.88,0,0,1,.66.12A2.6,2.6,0,0,1,71.81,42l0,.2A19.05,19.05,0,0,1,71.63,47.37ZM65.4,44.89c0,2.58,0,5.25,0,7.87a9.94,9.94,0,0,1-.65,3.41,26.77,26.77,0,0,0-1.07-2.87l-.4-1a1.2,1.2,0,0,1,0-.38V40.4a8.74,8.74,0,0,0,2.16,1.4v3.09ZM34.67,29.62a1.2,1.2,0,0,1,.06-.17c.38-.93.75-1.9,1.1-2.83l.06-.16a1.15,1.15,0,0,1,1.2-.83H46.9a1.18,1.18,0,0,1,1.21.83l.17.44c.32.84.66,1.7,1,2.55a.88.88,0,0,1,.06.17H34.67ZM60.81,46.74a5.39,5.39,0,0,1-.57-2.52c0-.87,0-1.75-.07-2.6l0-.64a2.45,2.45,0,0,0-2.43-2.25h-.38a4.39,4.39,0,0,0-3.84,2,14.11,14.11,0,0,0-2.63-3.31h9.62c.22,0,.28,0,.3,0s0,.08,0,.3c0,2.42,0,4.84,0,7.25ZM25.2,56.25h-.51a6.55,6.55,0,0,1-1.09,0A1.17,1.17,0,0,1,22.49,55c0-.45,0-.91,0-1.37s0-.82,0-1.23a.66.66,0,0,1,0-.14.38.38,0,0,1,.15,0c.55,0,1.09,0,1.64,0h.61a.31.31,0,0,1,0,.07,10.77,10.77,0,0,0,1.27,3.11l.37.72.07.14a.55.55,0,0,1-.13,0l-.5,0h-.54v0Zm.9-24.36a1.87,1.87,0,0,1-1.33.55c-2.12,0-4.23,0-6.35,0a1.68,1.68,0,0,1-1.76-1.71A1.7,1.7,0,0,1,18.56,29h5.61l.3,0,.19,0a1.81,1.81,0,0,1,1.39.49,1.61,1.61,0,0,1,.52,1.19A1.67,1.67,0,0,1,26.1,31.89ZM18,46.43c1.28,0,2.59,0,3.86,0,.63,0,1.25,0,1.88,0h.13a.12.12,0,0,1,0,.08c0,.42.12.82.18,1.23l.08.51,0,.14a.83.83,0,0,1,.06.21c0,.16.07.34.12.53a1.94,1.94,0,0,1,.12.75c-.14.16-.52.12-.88.08a4.91,4.91,0,0,0-.53,0h0q-2.47,0-4.95,0A1.74,1.74,0,1,1,18,46.43ZM24,43.92c-.07.14-.11.17-.27.17h0c-.75,0-1.5,0-2.24,0-1.21,0-2.42,0-3.63,0a1.54,1.54,0,0,1-1.18-.55,1.76,1.76,0,0,1-.39-1.39A1.69,1.69,0,0,1,18,40.6h1a1.21,1.21,0,0,0,1.37-1l0,0v-.05c-.14-.95-.51-1.27-1.47-1.28h-.39c-.25,0-.49,0-.74,0a1.56,1.56,0,0,1-1.14-.6,1.7,1.7,0,0,1-.36-1.33A1.6,1.6,0,0,1,17.9,34.8c2.24,0,4.51,0,6.72,0h2.63a2,2,0,0,1,1.41.51,1.64,1.64,0,0,1,.48,1.2,1.67,1.67,0,0,1-.47,1.21,1.93,1.93,0,0,1-1.39.53H23.77c-.93,0-1.25.24-1.54,1.13l0,.07,0,.06a1.26,1.26,0,0,0,1.38,1.08h0c1.36,0,2.74,0,4.11,0h1.62a.61.61,0,0,1,.34,0l.12,0c.36.08.56.16.59.23s0,.27-.17.57a15.42,15.42,0,0,0-.67,1.68,4.77,4.77,0,0,0-3.3-.8A2.7,2.7,0,0,0,24,43.92Zm7.2-5.81c.08-.59.34-.76,1.09-.67a7.1,7.1,0,0,0,.93,0A13.23,13.23,0,0,0,31.75,39l0,0-.7-.39,0,0A1.25,1.25,0,0,0,31.17,38.11Zm28.25-3H47.63a2.43,2.43,0,0,1-.9-.17,13,13,0,0,0-9.46,0,2,2,0,0,1-.79.15H31.56c-.26,0-.36,0-.46-.25a3.93,3.93,0,0,0-2.69-2.27c.11-.55.47-.63,1.26-.65q11.4,0,22.81,0h6.74a1.8,1.8,0,0,1,1.31.36,1.78,1.78,0,0,1,.35,1.28,5.48,5.48,0,0,0,0,.55c0,.37.09.75-.06.91s-.53.12-.9.07A5.29,5.29,0,0,0,59.42,35.09ZM42.05,36.41h.25a10.67,10.67,0,1,1-8,18,10.92,10.92,0,0,1-2.95-7.9A10.71,10.71,0,0,1,42.05,36.41Zm17.36-6.79H57.26c-1.69,0-3.37,0-5,0-.29,0-.39-.06-.47-.31-.23-.67-.51-1.33-.77-2l-.1-.24L50.81,27l.15,0a15.38,15.38,0,0,0,3.6-1.2,1,1,0,0,1,.52-.1,6.47,6.47,0,0,1,5.51,4.13A4.4,4.4,0,0,0,59.41,29.62ZM50.77,56.76a14.76,14.76,0,0,0,2.63-3.18c0,.08,0,.15,0,.23a11,11,0,0,1,.2,2A2,2,0,0,1,53,57.33c-2,1.62-3.84,2.18-5.81,1.72A13.26,13.26,0,0,0,50.77,56.76Z"/><path d="M47.05,66.85c-.84-.32-1.69-.62-2.53-.92s-1.82-.65-2.73-1a1.29,1.29,0,0,0-1.7.51l0,.1a1.22,1.22,0,0,0,1,1.59l1.79.66L46.16,69a2.69,2.69,0,0,1,2,2.87c0,.78.38,1.26,1,1.33h.17c.57,0,.95-.35,1.15-1.11A5,5,0,0,0,47.05,66.85Z"/><path d="M41.83,56h.26a8.84,8.84,0,0,0,8.54-6.64,1.22,1.22,0,0,0-.76-1.69l-.06,0h-.07c-.91.07-1.13.27-1.42,1.27a6.55,6.55,0,0,1-7.94,4.54,6.63,6.63,0,1,1,7.79-8.76,1.37,1.37,0,0,0,1.51,1l.1,0a1.27,1.27,0,0,0,.65-1.65,8.91,8.91,0,0,0-17.18,4.51A8.86,8.86,0,0,0,41.83,56Z"/><path d="M46.14,28.79a1.41,1.41,0,0,0,1-.39,1.1,1.1,0,0,0,.3-.82,1.19,1.19,0,0,0-1.34-1.11H37.64a1.18,1.18,0,0,0-1.31,1.15,1.21,1.21,0,0,0,1.32,1.17h8.49Z"/></svg>
