
<svg id="Layer_1" data-name="Layer 1" xmlns="http://www.w3.org/2000/svg" viewBox="0 0 85.04 85.04"><defs><style>.cls-1{fill:#1d1d1b;}</style></defs><path class="cls-1" d="M76.75,19a5.19,5.19,0,0,0-4.93-3.49,1,1,0,0,1-.61-.22c-.41-.36-.82-.74-1.22-1.11s-1-.94-1.55-1.39c-.27-.23-.33-.38-.25-.65.23-.83.42-1.59.59-2.34A1.12,1.12,0,0,0,68,8.27l-.28-.11-.15-.07H65.71a5.58,5.58,0,0,0-3.61,2.79.62.62,0,0,1-.34.15l-.19.05c-.83.18-1.7.37-2.55.51a.9.9,0,0,1-.63-.15c-.47-.43-.93-.89-1.37-1.34l-.83-.82a1.43,1.43,0,0,0-1-.51h0a1.42,1.42,0,0,0-1,.57A5.15,5.15,0,0,0,53.37,15a.79.79,0,0,1,.08.57c-.33.42-.7.81-1.09,1.23-.11.13-.23.25-.35.38l-.59-.59c-.45-.46-.87-.89-1.3-1.3a1.41,1.41,0,0,0-1.06-.49,1.34,1.34,0,0,0-.94.6,6.73,6.73,0,0,0-1,1.69,4.91,4.91,0,0,0,.35,4.29l-1.67,1.7-.51-.51-1.18-1.16a1.54,1.54,0,0,0-1-.53h0a1.56,1.56,0,0,0-1,.62,5.09,5.09,0,0,0-.71,5.7.67.67,0,0,1,0,.49c-.35.42-.73.82-1.12,1.25l-.37.38q-.3-.3-.57-.6L38,27.43A1.45,1.45,0,0,0,37,27a1.37,1.37,0,0,0-1,.52,4.74,4.74,0,0,0-1.28,4.23,10.37,10.37,0,0,0,.39,1.39,4,4,0,0,1,.15.45L34,35a8.51,8.51,0,0,0-5.17-1.66.58.58,0,0,1-.39-.32c-.32-1.49-.69-3.17-1-4.85a9,9,0,0,0-9.9-7.58,8.75,8.75,0,0,0-6,3.62A8.26,8.26,0,0,0,10,30.55l.19,1c.76,4,1.54,8.12,2.43,12.16.32,1.44.26,2.51-1,3.38a2.56,2.56,0,0,0-.83,1l-.06.13A7.78,7.78,0,0,0,10,50.26a4.92,4.92,0,0,0,1.92,4.66.67.67,0,0,1,.19.94c-.63,1.34-1.26,2.7-1.86,4-.43.92-.85,1.85-1.28,2.77A7.55,7.55,0,0,0,9,69.42a16.19,16.19,0,0,0,5.91,6.36,7.82,7.82,0,0,0,4.35,1.33,8.82,8.82,0,0,0,6.21-2.72L42.34,57.52l7.88-7.88.41-.4.15-.13.49.52c.43.45.83.88,1.25,1.3a1.47,1.47,0,0,0,1,.51h0a1.47,1.47,0,0,0,1-.61,5.16,5.16,0,0,0,.73-5.7.71.71,0,0,1,0-.55c.34-.4.71-.78,1.11-1.18.13-.12.25-.25.38-.38l.52.54c.43.46.84.89,1.27,1.32a1.49,1.49,0,0,0,1,.51h0a1.45,1.45,0,0,0,1-.61A5,5,0,0,0,61.35,39a.74.74,0,0,1-.06-.43c.37-.43.77-.84,1.19-1.26l.37-.38.55.58c.44.45.85.89,1.27,1.3a1.41,1.41,0,0,0,1,.49,1.36,1.36,0,0,0,1-.6,6.65,6.65,0,0,0,.92-1.51,5,5,0,0,0-.3-4.48L69,31l.47.49c.4.42.82.85,1.24,1.27a1.46,1.46,0,0,0,1,.52h0a1.5,1.5,0,0,0,1-.62A5.08,5.08,0,0,0,73,26.14a1,1,0,0,1-.12-.67c.08-.55.17-1.11.27-1.66s.22-1.3.31-1.95c0-.32.1-.44.37-.5.7-.18,1.4-.38,2-.56a1.45,1.45,0,0,0,1-.65A1.5,1.5,0,0,0,76.75,19Zm-2.56-.14,0,0-1,.3-.41-1.29,0,0Zm-8.7,17.51-.9-1,1-.94A2.63,2.63,0,0,1,65.49,36.34Zm-6,6.08-.86-1,.91-.88A2.84,2.84,0,0,1,59.44,42.42ZM37.11,31.84V30L38,31Zm6.11-7.93.92,1-1,.86A2.68,2.68,0,0,1,43.22,23.91ZM48,48.66l0,0-1.53-1.55.79-.78,1.54-1.53a1.14,1.14,0,0,0,.24-1.6,1.07,1.07,0,0,0-.77-.49,1.35,1.35,0,0,0-1,.43c-.57.56-1.12,1.12-1.65,1.67-.19.21-.39.41-.58.61L39.06,39.6c.06-.06.13-.14.22-.22q10-10.07,20.11-20.11a4.13,4.13,0,0,1,5.26-.92,4.08,4.08,0,0,1,1.16,6.06,9.13,9.13,0,0,1-.76.83L54.62,35.68l-4.17,4.18c-.59.58-1.1,1.29-.4,2a1,1,0,0,0,.72.33h0a1.94,1.94,0,0,0,1.29-.71l3.7-3.7,11.1-11.1a6.42,6.42,0,0,0,1.24-8,6.41,6.41,0,0,0-9.26-1.92,13.67,13.67,0,0,0-1.22,1.08L42.33,33.08l-4.58,4.58-.36.35-.08.07-1.49-1.55h0l.29-.3,5.83-5.84c4.7-4.71,9.57-9.59,14.38-14.36a8.36,8.36,0,0,1,9.71-2,8,8,0,0,1,5,6.56,8.49,8.49,0,0,1-2.6,7.56C63.24,33.39,58,38.66,52.87,43.75l-4.66,4.66ZM18.39,28.06a1.67,1.67,0,0,1,.37,0,1.14,1.14,0,0,1,.64.17,1.55,1.55,0,0,1,.63,1c.51,2.5,1,4.95,1.52,7.66a.54.54,0,0,1-.08.36c-.53.56-1.08,1.11-1.66,1.7l-.42.43-.22-1.09-.52-2.61c-.19-.94-.37-1.88-.55-2.82s-.4-2-.59-3A1.38,1.38,0,0,1,18.39,28.06ZM28.55,48a1.33,1.33,0,0,1-.9.57,1.56,1.56,0,0,1-1.72-1.42q-.57-2.76-1.09-5.53l-.57-2.86-.5-2.56c-.49-2.5-1-5.08-1.52-7.61a3.61,3.61,0,0,0-3.48-2.93h-.05a3.56,3.56,0,0,0-3.44,2.74,4.54,4.54,0,0,0,0,1.84c.68,3.56,1.39,7.12,2.06,10.42A1,1,0,0,1,17,41.74c-.51.47-1,1-1.5,1.49l-.54.55-.29-1.44c-.24-1.16-.46-2.28-.68-3.39l-.37-1.86c-.44-2.25-.89-4.58-1.3-6.87a6.72,6.72,0,0,1,3.08-6.5,6.32,6.32,0,0,1,5.91-.34,6.78,6.78,0,0,1,3.94,5.09C26,32.65,26.86,36.9,27.67,41c.37,1.86.73,3.72,1.1,5.58A1.92,1.92,0,0,1,28.55,48Zm-6.81-7.8.35-.34.05,0,.19.95c.17.86.34,1.69.5,2.52l.3,1.54c.17.92.35,1.87.55,2.8a3.81,3.81,0,0,0,3.61,3.23h.11A3.62,3.62,0,0,0,31,48.08a4.54,4.54,0,0,0,0-1.84c-.47-2.49-1-5-1.46-7.46-.2-1-.39-1.93-.58-2.91a.9.9,0,0,1,0-.24v0A6.17,6.17,0,0,1,32.88,37a13.55,13.55,0,0,1,1,1l.13.13L45.81,49.88l.33.34,0,.05L28.34,68.11,28,67.79,13.3,53.09c-1.48-1.49-1.49-2.93,0-4.42Zm42.9-29.08,1.57-.81,0,.05L66,11.54l-1.32-.35Zm-9.29.63,1,1.17-1,.81A2.4,2.4,0,0,1,55.35,11.78Zm-6.08,8a2.52,2.52,0,0,1,0-2l.94,1ZM22.35,67.22c-.72.73-1.46,1.49-2.22,2.22a1.1,1.1,0,0,1-1.69,0,36.5,36.5,0,0,1-2.62-2.65,1.29,1.29,0,0,1-.25-1.08c.51-1.25,1.08-2.48,1.63-3.68.17-.36.34-.72.5-1.08l5.45,5.45Zm-6.5-7.76-.32.72c-.6,1.37-1.22,2.79-1.91,4.14a3.49,3.49,0,0,0,.72,4.3c.75.79,1.55,1.59,2.38,2.37a3.5,3.5,0,0,0,5.18,0c.73-.72,1.44-1.44,2.14-2.14L24.8,68,26.74,70c-.4.37-.79.76-1.18,1.14a22.18,22.18,0,0,1-3,2.67,6,6,0,0,1-7.63-.88c-.75-.71-1.48-1.46-2.2-2.18l-.31-.33a6.13,6.13,0,0,1-1.23-7.06c.66-1.3,1.26-2.65,1.84-4l.82-1.83c.07-.13.13-.26.21-.43l.06-.1.41.42c.48.49.93,1,1.35,1.45A.67.67,0,0,1,15.85,59.46Zm37.51-11-.89-1,.93-1A2.61,2.61,0,0,1,53.36,48.49ZM71.54,30.31l-1-1,1-1.19A2.58,2.58,0,0,1,71.54,30.31Z"/><path class="cls-1" d="M29,62.15a1.13,1.13,0,0,0,.78.37h0a1.45,1.45,0,0,0,1-.48c2.55-2.54,4.79-4.79,6.87-6.88a2.28,2.28,0,0,0,.37-.59l.2-.37,0-.08-.06-.07c-.09-.09-.16-.19-.24-.28a2.18,2.18,0,0,0-.54-.55,1,1,0,0,0-1.36.29c-1.92,1.9-4.43,4.41-6.92,6.92A1.17,1.17,0,0,0,29,62.15Z"/><path class="cls-1" d="M26.53,59.26h.06a1.77,1.77,0,0,0,1.07-.51c1.29-1.24,2.58-2.54,3.82-3.8l.4-.4a1.91,1.91,0,0,0,.44-.63,1.06,1.06,0,0,0-.12-1,1.33,1.33,0,0,0-1.09-.53H31l0,0-.16.11a3.41,3.41,0,0,0-.59.42c-.67.65-1.34,1.33-2,2l-.62.62-.5.49a18.14,18.14,0,0,0-1.28,1.34,1.38,1.38,0,0,0-.25,1.13A1.29,1.29,0,0,0,26.53,59.26Z"/><path class="cls-1" d="M61,26.57h0a3.16,3.16,0,0,0,3.12-3.18,3,3,0,0,0-.9-2.19,3.08,3.08,0,0,0-2.19-.9h0a3.15,3.15,0,0,0-3.11,3.12,3.21,3.21,0,0,0,.93,2.23A3.12,3.12,0,0,0,61,26.57Zm.86-3.14a.77.77,0,0,1-.22.57.79.79,0,0,1-.59.23.78.78,0,0,1-.83-.78.85.85,0,0,1,.25-.61.82.82,0,0,1,.57-.25h0A.86.86,0,0,1,61.87,23.43Z"/></svg>
