
<svg id="Layer_1" data-name="Layer 1" xmlns="http://www.w3.org/2000/svg" viewBox="0 0 85.04 85.04"><defs><style>.cls-1{fill:#1d1d1b;}</style></defs><path class="cls-1" d="M76.2,65.16a9.82,9.82,0,0,0-2.28-4.3L74,60.8a3,3,0,0,0,.33-.28,7.11,7.11,0,0,0,2-6.15A7.51,7.51,0,0,0,73,49a7.59,7.59,0,0,0-6.39-.72A.44.44,0,0,1,66,48.1c-1.28-1.68-2.56-3.35-3.86-5L61,41.6a3.81,3.81,0,0,0,.13-4.38c-.58-1.14-1.17-2.41-1.8-3.87a6.47,6.47,0,0,0-3.84-3.55,1,1,0,0,1-.52-.47c-1.35-2.85-2.8-6-4.57-9.79a.65.65,0,0,1,0-.49,2.55,2.55,0,0,0-.07-2.38c-1.06-2.22-2-4.22-2.92-6.27a3.5,3.5,0,0,0-1.83-2H44.3l-4.9,2.32A9.89,9.89,0,0,0,34.58,8.6l-.67-.14L33.6,8.4H30.4l-.93.2c-.68.15-1.39.29-2.07.48a11.36,11.36,0,0,0-4.51,2.23,5.12,5.12,0,0,0-1.4,6.5A7.68,7.68,0,0,0,24.11,21l.45.3c1.93,1.31,3.92,2.67,6,3.86,3.11,1.82,6.64,4,9.25,7.37a15.9,15.9,0,0,1,3.49,7.36A11.24,11.24,0,0,1,42,47.25a22,22,0,0,1-3.4,4.56c0-.13,0-.26-.05-.39-.07-.42-.12-.82-.21-1.2a11.45,11.45,0,0,0-2.2-4.66,1.35,1.35,0,0,1-.25-.75c0-1.57,0-3.17,0-4.72V38.2A6.88,6.88,0,0,0,29,31c-1.65-.08-3.37-.06-5.09,0a6.82,6.82,0,0,0-6.38,6.69c0,1.39,0,2.82,0,4.19v2.94a1.26,1.26,0,0,1-.21.7,12.78,12.78,0,0,0-2.57,7.08c-.21,2.1-.46,4.23-.7,6.29-.12,1.07-.25,2.14-.37,3.22,0,.33-.15.43-.45.41s-.55,0-.82,0a7.66,7.66,0,0,1-.83,0,2.76,2.76,0,0,0-3,1.75V74.65a2.8,2.8,0,0,0,2.74,1.69l.39,0a25.44,25.44,0,0,1,3.15,0,2.74,2.74,0,0,0,2.65-1.15,9.91,9.91,0,0,0,5,1.15c2.79,0,5.52,0,8.12,0a10.07,10.07,0,0,0,5.33-1.14,2.82,2.82,0,0,0,2.73,1.14c.82,0,1.66,0,2.47,0h1.16a2.36,2.36,0,0,0,2.57-2.59c0-.93,0-1.86,0-2.79,0-1.85,0-3.77,0-5.66a2.54,2.54,0,0,0-2.77-2.78c-.53,0-1.06,0-1.62,0h-.68c-.07-.58-.13-1.15-.19-1.72-.2-1.76-.39-3.41-.61-5.11a1.25,1.25,0,0,1,.38-1.05l1-1.1a38.78,38.78,0,0,0,3.07-3.79,13.59,13.59,0,0,0,2-11.85,20.85,20.85,0,0,0-4.78-8.25A36.51,36.51,0,0,0,31.8,23c-1.95-1.15-3.86-2.45-5.7-3.71l-.69-.46a5.16,5.16,0,0,1-1.8-2.47,2.37,2.37,0,0,1,.51-2.67,5.38,5.38,0,0,1,1.37-1.06,13.41,13.41,0,0,1,9.1-1.39,6.23,6.23,0,0,1,3.12,1.47l-.42.24a7.11,7.11,0,0,0-1.14.77,4.82,4.82,0,0,0-1.55,4.23,5.61,5.61,0,0,0,2.8,4.36,4.9,4.9,0,0,0,5-.19,1.29,1.29,0,0,1,1-.08,1.3,1.3,0,0,1,.75.69l.87,1.86c1.17,2.5,2.37,5.08,3.54,7.64a1.52,1.52,0,0,1,0,1,6.38,6.38,0,0,0,.24,5c.61,1.24,1.24,2.58,2,4.35a3.71,3.71,0,0,0,3.34,2.4.48.48,0,0,1,.31.2c.19.73.35,1.48.52,2.19l.14.61,0,0-.15.09-.19.1a10.62,10.62,0,0,0-5.61,8.65,10.87,10.87,0,0,0,8.67,11.49c.31.06.39.14.45.47a9.16,9.16,0,1,0,18-3.53ZM41.42,19.68c-.94.55-1.8.94-2.75.38a3.42,3.42,0,0,1-1.59-3c0-1.19.81-1.76,2.1-2.23Zm6.63-1.82-3.83,1.79L41,12.76,44.83,11Zm0,2.79,4.19,9-1.79.82-4.19-9Zm7.47,29.88.14-.09.18.72c.16.63.31,1.25.46,1.87.31,1.32.61,2.63.92,3.95l.81,3.48a1.59,1.59,0,0,0,.67,1,1.2,1.2,0,0,0,.95.12c.73-.18,1.06-.84.85-1.73-1.07-4.58-2.34-10-3.63-15.44-.1-.42,0-.56.33-.7a12.24,12.24,0,0,0,1.18-.53l.44-.21L60,44.51c.89,1.15,1.78,2.29,2.66,3.44l2,2.62,3.7,4.81a1.31,1.31,0,0,0,1.78.45,1.27,1.27,0,0,0,.49-1.6,2,2,0,0,0-.28-.42l-.07-.09-1.89-2.47-.53-.69a4.53,4.53,0,0,1,3.62.57,4.74,4.74,0,0,1,2.27,3.28,4.82,4.82,0,0,1-2.09,5c-.76.54-1.07.92-1.09,1.33s.24.8.92,1.39a6.35,6.35,0,0,1,2.22,6.34,6.28,6.28,0,0,1-4.46,5,6.58,6.58,0,0,1-8.62-6c0-1.09-.39-1.48-1.46-1.61a8.32,8.32,0,0,1-4.1-15.05C55.24,50.72,55.39,50.63,55.56,50.53ZM51.22,33.44A3.16,3.16,0,0,1,54,32a3.52,3.52,0,0,1,2.79,1.88c.71,1.38,1.37,2.82,2,4.21l.36.79a1,1,0,0,1-.54,1.42c-1.22.59-2.53,1.2-3.88,1.81a1,1,0,0,1-1.47-.53l-.39-.83c-.64-1.33-1.3-2.7-1.89-4.07A3.58,3.58,0,0,1,51.22,33.44ZM15,73.19a1.79,1.79,0,0,1,.22.46,1.12,1.12,0,0,0,0,.13H11.06V65.11h2.19l0,.4c0,.4-.07.77-.12,1.15A8.23,8.23,0,0,0,15,73.19Zm23.05.59,0-.1a1.24,1.24,0,0,1,.16-.38,8.81,8.81,0,0,0,1.89-7.76l-.06-.39v0h2.2v8.67Zm-11.42-.06c-.59,0-1.18,0-1.76,0a28.81,28.81,0,0,1-3.83-.07,5.9,5.9,0,0,1-4.19-2.23,6.49,6.49,0,0,1-1.22-5c.29-2.1.53-4.24.76-6.31.13-1.19.27-2.38.41-3.58L17,55a42.53,42.53,0,0,1,.61-4.35,9.12,9.12,0,0,1,8.73-7.05,9.19,9.19,0,0,1,9.45,7.13,39.43,39.43,0,0,1,.56,4c.06.54.11,1.08.18,1.62l.08.69c.31,2.61.63,5.3.92,8,0,.28.07.56.11.84a8.45,8.45,0,0,1,0,3.17,6.32,6.32,0,0,1-6.26,4.73c-1.09,0-2.2,0-3.27,0H26.76v-.08Zm6.61-32.39c0,.54,0,1.09,0,1.64a12.42,12.42,0,0,0-13.17,0h0V41.34c0-1.3,0-2.65,0-4a4.27,4.27,0,0,1,4.13-3.89H29.1a4.18,4.18,0,0,1,4.11,3.82C33.29,38.63,33.27,39.94,33.25,41.33Z"/><path class="cls-1" d="M33.58,52.54a6.95,6.95,0,0,0-6.91-6.95h0a6.9,6.9,0,1,0,0,13.8h0A6.9,6.9,0,0,0,33.58,52.54ZM25.42,51.2a1.57,1.57,0,0,0,.41,1.12,1.19,1.19,0,0,0,.83.33h0a1.28,1.28,0,0,0,1.23-1.42V48.38a4.27,4.27,0,0,1,3,4.83,4.4,4.4,0,0,1-4.28,3.68h-.08A4.37,4.37,0,0,1,22.35,53a4.21,4.21,0,0,1,3.07-4.65v.76C25.41,49.84,25.41,50.52,25.42,51.2Z"/><path class="cls-1" d="M21.84,69.29c-1.26-.18-1.64-.57-1.75-1.81a1.28,1.28,0,0,0-1.19-1.25h-.1a1.24,1.24,0,0,0-1.23,1.08,2.77,2.77,0,0,0,0,.76,4.28,4.28,0,0,0,4.08,3.74h.07a1.31,1.31,0,0,0,1.46-1.19C23.19,69.92,22.69,69.41,21.84,69.29Z"/></svg>
