
<svg id="Layer_1" data-name="Layer 1" xmlns="http://www.w3.org/2000/svg" viewBox="0 0 85.04 85.04"><defs><style>.cls-1{fill:#1d1d1b;}</style></defs><path class="cls-1" d="M72.49,36.39c-.06-.2-.1-.41-.15-.61A13.45,13.45,0,0,0,72,34.44a9.07,9.07,0,0,0-8.56-6H61.6V25.89c0-.78,0-1.57,0-2.36a3,3,0,0,0-3-3c-.69,0-1.37,0-2,0h-.78l-.24-.33a4.72,4.72,0,0,0-.56-.68c-1.81-1.83-3.66-3.68-5.45-5.47l-.81-.81-.44-.41-.23-.2H31.13a2.59,2.59,0,0,0-1.47,2.75c.05,1.07,0,2.17,0,3.23,0,.47,0,.94,0,1.4v.5h-.76c-.64,0-1.23,0-1.83,0a3.22,3.22,0,0,0-2.44.93,3.16,3.16,0,0,0-.92,2.41c0,.93,0,1.88,0,2.8,0,.42,0,.83,0,1.25v.61h-.83a18.76,18.76,0,0,0-2,0A9,9,0,0,0,13,35.9a11.59,11.59,0,0,0-.12,1.69c0,1.81,0,3.62,0,5.44,0,3.63,0,7.39,0,11.08a4.43,4.43,0,0,0,1.25,3.13,4.23,4.23,0,0,0,3.07,1.21h9.66l-.12.73c-.11.67-.21,1.32-.32,2-.16,1-.33,2-.5,3q-.53,3.13-1,6.27a1.62,1.62,0,0,0,.34,1.32,1.68,1.68,0,0,0,1.3.57H58.84a1.62,1.62,0,0,0,1.66-2L58.58,58.9c0-.11,0-.22,0-.34s0-.08,0-.11H68a4.18,4.18,0,0,0,4.48-3.23l0,0,0,0V36.39ZM26,28.41V24.65c0-1.84,0-1.86,1.87-1.86h1.82v5.62Zm29.75,0V22.84h.74a22.52,22.52,0,0,1,2.32.05c.19,0,.56.45.57.68,0,1.23,0,2.49,0,3.71,0,.38,0,.76,0,1.15ZM27.17,70l3.08-18.51H55.09L58.17,70Zm28-20.77H30.55c-1.6,0-2.24.53-2.53,2.09-.24,1.29-.52,2.82-.74,4.4-.06.38-.16.46-.49.43a4.12,4.12,0,0,0-.61,0H26v-.08c0-.12,0-.23,0-.34V49.6a1.87,1.87,0,0,1,2-2.05H57.35a1.86,1.86,0,0,1,2,2.05v6.54c-1.21.12-1.22.09-1.42-1.08s-.44-2.63-.67-3.94A2.07,2.07,0,0,0,55.21,49.27ZM16.26,33.7a6.46,6.46,0,0,1,5.53-3H63.55a6.67,6.67,0,0,1,5,2.25,6.93,6.93,0,0,1,1.72,5.39H15.09A7,7,0,0,1,16.26,33.7ZM60.2,46.3a4.2,4.2,0,0,0-2.91-1H28.05a4.32,4.32,0,0,0-3.16,1.28,4.24,4.24,0,0,0-1.17,3.08c.06,1.51,0,3,0,4.55,0,.64,0,1.29,0,1.94h-.08l-.32,0H17a1.82,1.82,0,0,1-1.95-2c0-3.37,0-6.73,0-10.1V40.75a.38.38,0,0,1,0-.1h55.2v.5c0,1.18,0,2.37,0,3.55,0,3,0,6.14,0,9.21a2.33,2.33,0,0,1-.62,1.74,2.14,2.14,0,0,1-1.62.54c-.77,0-1.55,0-2.32,0H61.6v-2c0-1.58,0-3.13,0-4.68A4.09,4.09,0,0,0,60.2,46.3ZM51.27,19.55c-.77,0-1.56,0-2.34,0a.4.4,0,0,1-.18-.21c0-.76,0-1.54,0-2.29v-.41l2.92,2.92Zm2.14,2.25v6.6H31.93V14.87H46.5v4.58a2.28,2.28,0,0,0,2.35,2.35h4.56Z"/><path class="cls-1" d="M63.38,33.41H60.54a1.13,1.13,0,0,0-1.16,1.13,1.07,1.07,0,0,0,1.11,1.1l1.51,0,1.45,0a1.18,1.18,0,0,0,.85-.37,1.05,1.05,0,0,0,.29-.78A1.15,1.15,0,0,0,63.38,33.41Z"/><path class="cls-1" d="M55.46,33.41H52.62a1.11,1.11,0,0,0-1.15,1.13,1,1,0,0,0,1.1,1.1l1.5,0,1.46,0a1.19,1.19,0,0,0,.85-.37,1.05,1.05,0,0,0,.29-.78A1.15,1.15,0,0,0,55.46,33.41Z"/></svg>
