
<svg id="Layer_1" data-name="Layer 1" xmlns="http://www.w3.org/2000/svg" viewBox="0 0 85.04 85.04"><defs><style>.cls-1{fill:#1d1d1b;}</style></defs><path class="cls-1" d="M70.93,33.32H57.24v-.06H56.08V31.09c0-1.58-.23-1.83-1.79-1.9,0,0,0,0,0,0h0v-.5a10.18,10.18,0,0,0-6-9.86,19.87,19.87,0,0,0-3.07-1.14l-1-.32c-.34-.12-.43-.25-.42-.58,0-.81,0-1.64,0-2.44v-.15c0-.89-.43-1.4-1.15-1.41h0c-.71,0-1.13.52-1.15,1.4v.51a17.94,17.94,0,0,0,0,1.94c0,.46-.12.65-.6.79C40,17.68,39,18,38,18.34a10.29,10.29,0,0,0-6.94,8.13,12.58,12.58,0,0,0-.17,1.93c0,.26,0,.52,0,.78-1.62.12-1.77.32-1.77,2v2.07h-1v0h-14c-1,0-1.41.41-1.41,1.4,0,3.2,0,6.39,0,9.59,0,.94.36,1.4,1.1,1.41a1,1,0,0,0,.79-.27,1.59,1.59,0,0,0,.35-1.17v-8.6H70.24V66.2H68.41v-.64c0-.82,0-1.65,0-2.48,0-1.85,0-3.77,0-5.66A8.35,8.35,0,0,0,64,50.07a1.45,1.45,0,0,0-1.61,0,8.12,8.12,0,0,0-4.4,7c-.08,2-.07,3.95,0,5.88,0,.87,0,1.73,0,2.59v.68H56.08V39c0-1.23-.38-1.61-1.62-1.61H30.76c-1.3,0-1.65.36-1.65,1.65V66.2H27.27v-.7c0-.87,0-1.73,0-2.59,0-1.93,0-3.93-.06-5.89a8.1,8.1,0,0,0-4.42-7,1.44,1.44,0,0,0-1.56,0,8.35,8.35,0,0,0-4.43,7.4c0,1.88,0,3.79,0,5.64,0,.83,0,1.67,0,2.5v.6H14.92V52.45c0-1.15,0-2.34,0-3.51a1,1,0,0,0-1.11-1.1h0a1.06,1.06,0,0,0-1.1,1.06,1.13,1.13,0,0,0,0,.26V67.05c0,1.09.36,1.44,1.48,1.44h15v.72c0,.64,0,1.24,0,1.85a1.58,1.58,0,0,0,.71,1.52l0,0H40.94l0,0c.05-.07.11-.13.17-.2a1.7,1.7,0,0,0,.34-.5,1.07,1.07,0,0,0-.1-1,1.19,1.19,0,0,0-1-.49H37.61l0,0,0,0c0-1,0-2,0-3a40.19,40.19,0,0,1,.27-7,11.7,11.7,0,0,1,4.77-7.93,11.86,11.86,0,0,1,4,5.1,13.76,13.76,0,0,1,1,4.85c0,1.9,0,3.76,0,5.73,0,.78,0,1.56,0,2.35H45.17c-.51,0-1.17,0-1.45.69a1.33,1.33,0,0,0,.51,1.52l0,0H55.35l0,0a1.58,1.58,0,0,0,.71-1.52c0-.6,0-1.21,0-1.84v-.73H71c1.14,0,1.48-.35,1.48-1.51V34.88C72.51,33.67,72.16,33.32,70.93,33.32ZM33.78,25.13a8,8,0,0,1,5-4.67c1.14-.38,2.25-.76,3.38-1.1a1.49,1.49,0,0,1,.81,0c1.11.34,2.28.73,3.56,1.18A8.08,8.08,0,0,1,52,28.63a3.34,3.34,0,0,1,0,.43.52.52,0,0,0,0,.11H33.26A7.26,7.26,0,0,1,33.78,25.13Zm20,6.41v1.74H31.45V31.54ZM66.16,63.6c0,.84,0,1.67,0,2.51a.51.51,0,0,1,0,.09v0H60.23v-.06c0-.11,0-.22,0-.32V63.46c0-2,0-4.05,0-6.07a6.11,6.11,0,0,1,2.63-5,.46.46,0,0,1,.66,0,6.11,6.11,0,0,1,2.64,5C66.18,59.46,66.17,61.56,66.16,63.6ZM35.32,66.55c0,.8,0,1.59,0,2.39v1.37H31.43V43.87H53.75V70.35H49.89v-.59c0-.78,0-1.55,0-2.32,0-1.67,0-3.4,0-5.1a14.73,14.73,0,0,0-6.13-12c-1-.71-1.28-.71-2.24,0a13.85,13.85,0,0,0-6,10.73C35.35,62.89,35.34,64.75,35.32,66.55ZM53.76,39.79v1.69H31.43V39.79ZM25,63.52c0,.89,0,1.78,0,2.68H19v-2c0-1.72,0-3.49,0-5.22a16.21,16.21,0,0,1,.26-3.06,5.82,5.82,0,0,1,2.42-3.48.42.42,0,0,1,.6,0A5.78,5.78,0,0,1,25,57C25,59.18,25,61.38,25,63.52Z"/></svg>
