
<svg id="Layer_1" data-name="Layer 1" xmlns="http://www.w3.org/2000/svg" viewBox="0 0 85.04 85.04"><defs><style>.cls-1{fill:#1d1d1b;}</style></defs><path class="cls-1" d="M69.31,50.43a11.55,11.55,0,0,0-2-.17l-.84,0V47.66c0-1.84,0-3.75,0-5.63A3.29,3.29,0,0,0,66,40.27a3,3,0,0,0-1-.78l-.49-.29V15.74a3.08,3.08,0,0,0-3.09-3.1h0a3.08,3.08,0,0,0-3.14,3.15q0,8,0,15.91v7.67a2.17,2.17,0,0,0-2,2.4v8.52H16.85a4,4,0,0,0-4.14,4.14c0,3.3,0,6.61,0,9.91a4,4,0,0,0,3.13,4,7,7,0,0,0,1.32.15l.5,0v2.57c0,1,.4,1.33,1.35,1.34h2c.92,0,1.85,0,2.78,0H25c.85,0,1.32-.05,1.6-.33s.33-.94.32-2.15V68.46h31.4v2.59c0,1,.4,1.33,1.36,1.34H66c1.14,0,1.48-.36,1.48-1.52V68.42h.81a4.06,4.06,0,0,0,4.14-4.14q0-5,0-9.91A3.94,3.94,0,0,0,69.31,50.43Zm-4.14,18v1.63H60.61V68.44Zm-40.61,0v1.62H20V68.46Zm36-52.36a1.5,1.5,0,0,1,0-.3.87.87,0,0,1,.83-.87h0a.87.87,0,0,1,.83.85,2.09,2.09,0,0,1,0,.25V39.36H60.56V16.1ZM58.62,50.26V41.71h5.57v8.55Zm11.54,4.51c0,3.06,0,6.11,0,9.17a1.92,1.92,0,0,1-2.2,2.2H17.32c-1.68,0-2.33-.65-2.33-2.32v-9a1.92,1.92,0,0,1,2.2-2.21H68A1.92,1.92,0,0,1,70.16,54.77Z"/><path class="cls-1" d="M16.64,33.09l.35-.33.33-.31A23,23,0,0,1,38,26.67,22.63,22.63,0,0,1,49.67,33a1.49,1.49,0,0,0,1,.51,1.07,1.07,0,0,0,.78-.38,1.11,1.11,0,0,0,.36-.79,1.4,1.4,0,0,0-.5-1,25.33,25.33,0,0,0-17.68-7.51h0A25.16,25.16,0,0,0,20,27.6a36,36,0,0,0-3.74,2.87l-1.13.94a1.08,1.08,0,0,0-.43.81,1.14,1.14,0,0,0,.37.88A1.06,1.06,0,0,0,16.64,33.09Z"/><path class="cls-1" d="M46,37.8a1.06,1.06,0,0,0,1.25-.6,1.16,1.16,0,0,0-.35-1.49,19,19,0,0,0-12.5-5.64h-.11A20.71,20.71,0,0,0,24,32.37a19.89,19.89,0,0,0-4.58,3.4,1.37,1.37,0,0,0-.46.94,1.24,1.24,0,0,0,1.14,1.14,1.4,1.4,0,0,0,.95-.45l.13-.13.22-.21a17.22,17.22,0,0,1,23.79.2A2,2,0,0,0,46,37.8Z"/><path class="cls-1" d="M42,42.27H42a1.15,1.15,0,0,0,.81-.49c.42-.54.34-1.1-.25-1.67a13,13,0,0,0-8.35-3.82h0c-4.38,0-8,1.36-10.46,3.92a1.29,1.29,0,0,0-.34,1.31,1,1,0,0,0,.88.68,1.7,1.7,0,0,0,1.23-.52,11,11,0,0,1,10.86-2.61A10.58,10.58,0,0,1,41,41.77,1.47,1.47,0,0,0,42,42.27Z"/><path class="cls-1" d="M28,44.72a1.1,1.1,0,0,0-.32,1,1.15,1.15,0,0,0,.74.82,1,1,0,0,0,.4.08,1.47,1.47,0,0,0,1-.47,5.09,5.09,0,0,1,3.93-1.35h0a4.75,4.75,0,0,1,2.86,1.34,1.62,1.62,0,0,0,1.08.47,1.09,1.09,0,0,0,.75-.39c.49-.56.39-1.17-.3-1.81a7,7,0,0,0-4.23-1.91A7.1,7.1,0,0,0,28,44.72Z"/><path class="cls-1" d="M29.7,54.25h0a3.13,3.13,0,0,0,0,6.25h0a3.13,3.13,0,1,0,0-6.25Zm-.84,3.13a.85.85,0,0,1,.27-.59.82.82,0,0,1,.57-.25h0a.81.81,0,0,1,.57.27.78.78,0,0,1,.25.58.87.87,0,0,1-.86.81A.89.89,0,0,1,28.86,57.38Z"/><path class="cls-1" d="M21.78,54.25h0a3.11,3.11,0,0,0-2.21.9,3.14,3.14,0,0,0,2.2,5.35h0a3.13,3.13,0,0,0,0-6.25Zm-.6,2.56a.81.81,0,0,1,.58-.27h0a.84.84,0,0,1,.57.25.83.83,0,0,1,.26.58.78.78,0,0,1-.25.57.83.83,0,0,1-.58.26h0a.86.86,0,0,1-.82-.8A.83.83,0,0,1,21.18,56.81Z"/><path class="cls-1" d="M37.63,54.25h0a3.13,3.13,0,0,0,0,6.25h0a3.14,3.14,0,0,0,2.22-.91,3.18,3.18,0,0,0,0-4.43A3.07,3.07,0,0,0,37.63,54.25Zm0,4h0a.84.84,0,0,1-.57-.25.79.79,0,0,1-.26-.57.89.89,0,0,1,.83-.84h0a.81.81,0,0,1,.57.27.78.78,0,0,1,.25.58A.87.87,0,0,1,37.64,58.2Z"/><path class="cls-1" d="M52.35,56.23H43.69c-.78,0-1.24.41-1.26,1.11a1.09,1.09,0,0,0,.29.82,1.31,1.31,0,0,0,1,.35c1,0,2,0,3.05,0h5.61a1.32,1.32,0,0,0,1-.35,1.13,1.13,0,0,0,.29-.82C53.6,56.64,53.14,56.24,52.35,56.23Z"/><path class="cls-1" d="M59.47,56.24h-.84c-.13,0-.26,0-.4,0h-1.3a1.09,1.09,0,0,0-1.12,1.11,1.08,1.08,0,0,0,1.07,1.17h2.6a1.09,1.09,0,0,0,.77-.33,1.2,1.2,0,0,0,.3-.85A1.07,1.07,0,0,0,59.47,56.24Z"/></svg>
