
<svg id="Layer_1" data-name="Layer 1" xmlns="http://www.w3.org/2000/svg" viewBox="0 0 85.04 85.04"><defs><style>.cls-1{fill:#1d1d1b;}</style></defs><path class="cls-1" d="M79.27,50.53C78,45,74.77,41.45,69.74,40a22.86,22.86,0,0,0-2.59-.53l-1.1-.18v-4h.38c.37,0,.73,0,1.09,0a3.85,3.85,0,0,0,3.89-4q0-1.83,0-3.66a3.83,3.83,0,0,0-3.88-3.91c-.35,0-.71,0-1.09,0H66c0-.13,0-.25,0-.38a6.17,6.17,0,0,0,0-1.06,2.14,2.14,0,0,0-.42-1.1c-.72-.84-1.47-1.61-2.11-2.26A5.58,5.58,0,0,0,60,17.21c-1.46-.11-2.95-.13-4.39-.14H54.28a1.42,1.42,0,0,0-1,.34,1.19,1.19,0,0,0-.32.86c0,.75.51,1.2,1.37,1.21h1c.86,0,1.75,0,2.62,0a5.39,5.39,0,0,1,5,2.57l-.65.43c-.53.35-1.08.72-1.61,1.11a6.73,6.73,0,0,0-2.93,5c-.14,2.06-.18,4.34-.11,7A4.78,4.78,0,0,1,56.34,39C54,41.77,51.7,44.6,49.46,47.34L48,49.09a3.34,3.34,0,0,1-2.71,1.33h-.11c-.71,0-1.44,0-2.16,0s-1.36.49-1.35,1.24a1.26,1.26,0,0,0,1.38,1.22h2.23a5.78,5.78,0,0,0,4.54-2.16l1.52-1.86c2.41-2.93,4.9-6,7.37-8.93a5.43,5.43,0,0,0,1.31-3.64c0-.75,0-1.51,0-2.26,0-1.33,0-2.7,0-4.06-.06-2.37,1-4,3.54-5.41v4.29c0,4.3,0,8.74,0,13.11a3.17,3.17,0,0,1-1,2.45l-.17.15c-3,2.83-6.07,5.76-9.07,8.66a3.77,3.77,0,0,1-2.79,1.11H39.09c0-.65,0-1.29,0-1.92,0-1.57,0-3.06,0-4.57a6.12,6.12,0,0,1,1.34-3.9c.66-.85,1.31-1.7,2-2.56,1.36-1.8,2.77-3.66,4.24-5.41s2.14-3.54,1.83-5.42c0-.1,0-.2,0-.31a1,1,0,0,0,0-.17,3.42,3.42,0,0,0-3.67-3.67H43.28c-1.55,0-3.15,0-4.73,0h-.21a7.85,7.85,0,0,1-4.27-1.22,8.47,8.47,0,0,0-4.48-1.35c-4.36,0-8.89,0-13.85,0a3.41,3.41,0,0,0-3.41,3.5v4.55l-.17,0a3.38,3.38,0,0,0-3,3.65v.86c0,.55,0,1.1,0,1.65a3.47,3.47,0,0,0,1.8,3.2l.4.25.09.06s0,0,0,0l-.34.31,0,0a15.89,15.89,0,0,0-4.64,7.19C6.21,50,6,50.8,5.84,51.62c-.08.38-.16.75-.25,1.12v1.81a3.11,3.11,0,0,0,1.94,2c.55.15.72.35.84,1a12.78,12.78,0,0,0,25,.87c.09-.39.16-.78.24-1.19l.09-.49H51.88A12.82,12.82,0,0,0,64.63,68.15a13.29,13.29,0,0,0,1.4-.08,12.31,12.31,0,0,0,8.22-4.28,12.74,12.74,0,0,0,3.14-9.88C79,52.91,79.59,51.89,79.27,50.53ZM66.05,32.88V26.27l.55,0a7.77,7.77,0,0,1,1.53.13A1.16,1.16,0,0,1,69,27.67c0,1.36,0,2.6,0,3.85a1.31,1.31,0,0,1-1.45,1.36H66.05ZM55.38,54.58a7.51,7.51,0,0,0,1.18-1.07l.22-.22A10.08,10.08,0,0,0,57,57.62a8.11,8.11,0,0,0,7.37,5.75c.93,0,1.46-.38,1.51-1.13a1.16,1.16,0,0,0-.25-.88,1.52,1.52,0,0,0-1.09-.42,5.54,5.54,0,0,1-3.73-9.53l.23.27c.22.27.44.54.68.79a4.91,4.91,0,0,0,3.75,1.58h4.2c.38,0,.49.12.53.52a5.59,5.59,0,0,1-1.54,4.69,1.77,1.77,0,0,0-.56,1,1.12,1.12,0,0,0,.37.92,1.15,1.15,0,0,0,.8.33h0A1.6,1.6,0,0,0,70.38,61a7.83,7.83,0,0,0,2.21-6.59,1.76,1.76,0,0,1,0-.23v0h2.29a9.23,9.23,0,0,1-.61,5,10.34,10.34,0,0,1-19.76-1.71C54.24,56.2,54.29,55.3,55.38,54.58Zm10.3-3h-.05a3.1,3.1,0,0,1-2.4-1,15.56,15.56,0,0,0-1.33-1.21l-.54-.46c.25-.23.47-.46.69-.67.51-.49.94-.92,1.41-1.32a6.12,6.12,0,0,0,2.56-5c2.56.12,8.36,1.11,10.44,7.55.14.42.24.85.35,1.3a.78.78,0,0,1,0,.63.76.76,0,0,1-.62.2H70.87C69.17,51.6,67.41,51.6,65.68,51.62Zm-36.43,10a11.39,11.39,0,0,1-7.63,4.06c-.25,0-.5,0-.75,0a10.18,10.18,0,0,1-10.11-8.87H13a8.11,8.11,0,0,0,8,6.56h.34a8.13,8.13,0,0,0,7.46-6.55h2.25A6.81,6.81,0,0,1,29.25,61.61ZM21,60.93h-.08c-2.49,0-5-2-5.28-4.13h10.6C26.08,58.86,23.54,60.89,21,60.93ZM24.68,38.3h-1.5a1.42,1.42,0,0,0-1.14.46,1.13,1.13,0,0,0-.23,1c.12.68.58,1,1.4,1,2.18,0,4.44,0,6.67,0a6.24,6.24,0,0,1,6,3.6A6.7,6.7,0,0,1,36.57,47c.06,1.75,0,3.48,0,5.31,0,.68,0,1.36,0,2H9.32c-.68,0-1,0-1.17-.18S8,53.66,8.1,53a14,14,0,0,1,9.49-12l.47-.17c.86-.31,1.26-.9,1.07-1.56a1.21,1.21,0,0,0-.6-.77,1.26,1.26,0,0,0-.55-.12,1.84,1.84,0,0,0-.63.12c-1.06.39-2.15.86-3.23,1.37a.93.93,0,0,1-.87,0,2.36,2.36,0,0,1-1.66-2.88,4.15,4.15,0,0,0,0-.86,3.38,3.38,0,0,1,0-.45c0-1,.32-1.25,1.26-1.25H44.73L38.05,43l0,0a4.23,4.23,0,0,0-.25-.42,8.78,8.78,0,0,0-7.57-4.27C28.37,38.28,26.49,38.29,24.68,38.3ZM46,31.54v.13a1.05,1.05,0,0,1,0,.13s0,0,0,.07H16.25c-1.23,0-1.5-.28-1.5-1.54v-.79c0-.68,0-1.38,0-2.07s.37-1.17,1.15-1.17h5.95c2.59,0,5.22,0,7.81.08a6.79,6.79,0,0,1,3.1.94,11.63,11.63,0,0,0,5.8,1.57h.21c1.67,0,3.37,0,5,0h.93c1,0,1.29.3,1.3,1.29C46,30.62,46,31.08,46,31.54Z"/><path class="cls-1" d="M18.67,44.21A1.25,1.25,0,0,0,20,45.43c.49,0,1,0,1.49,0h2.8a1.18,1.18,0,0,0,1.24-1.26A1.14,1.14,0,0,0,24.27,43c-1.34,0-2.74,0-4.29,0A1.23,1.23,0,0,0,18.67,44.21Z"/></svg>
