
<svg id="Layer_1" data-name="Layer 1" xmlns="http://www.w3.org/2000/svg" viewBox="0 0 85.04 85.04"><defs><style>.cls-1{fill:#1d1d1b;}</style></defs><path class="cls-1" d="M74.19,41.23a3.72,3.72,0,0,0-2-2.2,7.23,7.23,0,0,0-9.34,3.13l-.17.33a12.09,12.09,0,0,1-.7,1.22l-.14.19a4.13,4.13,0,0,1-1,1.15c-1.18.72-2.44,1.38-3.66,2l-.76.4a.35.35,0,0,1-.15,0,5,5,0,0,0-3.39-1.17H50.33c-1,0-2.07,0-3.1,0a7.64,7.64,0,0,1-4.89-1.49,8.53,8.53,0,0,0-5.15-1.64l-1.16,0c-1.26,0-2.57,0-3.85,0a10.72,10.72,0,0,0-3.17.66,14.54,14.54,0,0,0-5,3.82c-.52.53-1.05,1.08-1.6,1.59a1.36,1.36,0,0,0,1,2.19,1.81,1.81,0,0,0,1.19-.53c.93-.85,1.85-1.72,2.76-2.59l.74-.71A5.09,5.09,0,0,1,31.47,46c2-.09,4-.11,6.23-.07a4.29,4.29,0,0,1,2.81,1.13,8,8,0,0,0,5.24,2.1c1.5,0,3,0,4.49,0h2.38a3.63,3.63,0,0,1,.93.09,1.58,1.58,0,0,1,1.28,1.22A1.72,1.72,0,0,1,54.52,52a1.87,1.87,0,0,1-1.45.67c-1.45,0-2.9,0-4.35,0H40.55A1.45,1.45,0,0,0,39,54a1.25,1.25,0,0,0,.36.91,1.63,1.63,0,0,0,1.14.45h3c3.14,0,6.4,0,9.6,0a4.44,4.44,0,0,0,3.38-1.56,4.62,4.62,0,0,0,1-3.66c0-.15,0-.15.14-.22l.81-.39c.33-.16.65-.32,1-.46a11,11,0,0,0,5.85-5.62,4.37,4.37,0,0,1,5.76-1.86,1,1,0,0,1,.58.59,1,1,0,0,1-.13.78,51.75,51.75,0,0,1-14,16.26,7.39,7.39,0,0,1-4.69,1.56H43.18c-1.84,0-3.68,0-5.51,0a7.51,7.51,0,0,0-2,.28,1.62,1.62,0,0,0-1,1,1.68,1.68,0,0,0,.29,1.34,1.22,1.22,0,0,0,.93.42.7.7,0,0,0,.3-.06,5.44,5.44,0,0,1,2.54-.39h1.84c4.1,0,8.19,0,12.29,0h.07a9.93,9.93,0,0,0,6.19-2A54.78,54.78,0,0,0,73.8,44.18,3.67,3.67,0,0,0,74.19,41.23Z"/><path class="cls-1" d="M25.15,34.4a3.31,3.31,0,0,0,3,3.37l.48.07c.78.12,1.59.24,2.36.42a1,1,0,0,1,.6.41l.09.17a4,4,0,0,1,.6,1.93A1.17,1.17,0,0,0,33.36,42a1.2,1.2,0,0,0,1.49-1,2.68,2.68,0,0,0,0-1.23,12.37,12.37,0,0,0-.51-1.41c-.07-.2-.15-.4-.23-.6a3.35,3.35,0,0,0-2.61-2.2c-.75-.15-1.5-.26-2.26-.37l-.74-.12c-.61-.09-.8-.31-.81-.91s0-1.09,0-1.63.2-.81.82-.9l2.58-.39a3.56,3.56,0,0,0,3.14-2.6,5.12,5.12,0,0,1,.25-.65l.16-.4a3.32,3.32,0,0,0-.41-3.32L32.54,22c-.52-.7-.52-.76.12-1.4l.23-.23.76-.76c.49-.48.7-.49,1.26-.09l1.17.86,1.18.86a3.25,3.25,0,0,0,3.2.41c.52-.19,1-.4,1.54-.63a3.42,3.42,0,0,0,2.08-2.83c.06-.47.14-.94.21-1.4s.17-1,.23-1.48.26-.61.73-.63,1.21,0,1.92,0a.68.68,0,0,1,.73.66c0,.25.08.49.12.74.09.5.18,1,.22,1.51A3.63,3.63,0,0,0,51,21.17a4.17,4.17,0,0,1,.44.19l.17.09a3.32,3.32,0,0,0,3.61-.34c.36-.25.71-.51,1.06-.77l1.25-.91c.52-.37.7-.36,1.17.06s.83.77,1.24,1.16.5.63.12,1.16-.72,1-1.09,1.47l-.71,1a3.22,3.22,0,0,0-.41,3.26l.21.47a4.78,4.78,0,0,1,.26.62,3.49,3.49,0,0,0,3,2.47l.69.11c.7.11,1.41.22,2.11.35.51.1.62.25.63.8s0,1.21,0,1.81-.17.66-.62.75c-.77.13-1.55.26-2.32.36-1.31.18-2.61.54-3.27,2a21.2,21.2,0,0,0-.83,2.11,3,3,0,0,0,.43,2.73c.21.31.44.6.72.94A1.4,1.4,0,0,0,60,43.6a1.22,1.22,0,0,0,.66-.21,1.41,1.41,0,0,0,.55-1.87,6,6,0,0,0-.52-.82.82.82,0,0,1-.11-1.05A4.54,4.54,0,0,0,61,38.56a.75.75,0,0,1,.74-.54l.43-.06c.64-.07,1.27-.15,1.91-.2a3.56,3.56,0,0,0,3.48-3.87c0-.35,0-.71,0-1.06s0-.71,0-1.06A3.2,3.2,0,0,0,65,28.82l-.51-.11a11.71,11.71,0,0,0-1.59-.23,2.05,2.05,0,0,1-2.22-1.73,1.1,1.1,0,0,1,.15-1.14c.54-.71,1.19-1.56,1.81-2.46a3.3,3.3,0,0,0-.32-4.23q-.8-.84-1.65-1.65A3.37,3.37,0,0,0,56.23,17l-.34.24a14.73,14.73,0,0,0-1.45,1.08c-.81.71-1.44.8-2.17.29a2.16,2.16,0,0,0-.6-.25.76.76,0,0,1-.56-.74c-.12-.81-.28-1.88-.48-2.95a3.34,3.34,0,0,0-2.91-2.72,15.89,15.89,0,0,0-2.84,0,3.22,3.22,0,0,0-3.11,2.85l-.08.4a7,7,0,0,0-.21,1.51,2,2,0,0,1-1.65,2.22,1.38,1.38,0,0,1-1.42-.16c-.75-.6-1.54-1.16-2.36-1.74a2.78,2.78,0,0,0-3.67.17c-.71.7-1.35,1.36-2,2a3.29,3.29,0,0,0-.21,4.34l.28.39a6.38,6.38,0,0,0,.84,1,2,2,0,0,1,.37,2.8,1.23,1.23,0,0,1-1,.75c-.86.11-1.72.24-2.58.38a3.49,3.49,0,0,0-2.93,2.72,5.15,5.15,0,0,0,0,1.24V33l0,.68Z"/><path class="cls-1" d="M46.23,22.85h0A10.67,10.67,0,0,0,38.63,26a10.24,10.24,0,0,0-3,7.26A10.5,10.5,0,0,0,46.21,43.6h0A10.5,10.5,0,0,0,56.79,33.22a10.2,10.2,0,0,0-3-7.26A10.64,10.64,0,0,0,46.23,22.85Zm0,2.64a7.78,7.78,0,0,1,5.53,2.31,7.72,7.72,0,0,1-5.52,13.13h0a7.72,7.72,0,1,1,0-15.44Z"/><path class="cls-1" d="M23.91,54.32l-2.62-2.58a3.82,3.82,0,0,0-2.8-1.06,3.62,3.62,0,0,0-2.61,1.16l-3,2.89-.7.67a1.87,1.87,0,0,0-.73,1.25,1.84,1.84,0,0,0,.7,1.22L24,69.47l3.51,3.47a1.54,1.54,0,0,0,1.07.52,1.34,1.34,0,0,0,.91-.41l.63-.6c1.14-1.09,2.31-2.21,3.42-3.36a3.71,3.71,0,0,0,.1-5.25Q28.76,59.07,23.91,54.32ZM32,66.37a1.3,1.3,0,0,1-.49.9L29.29,69.4l-.77.75L14.81,56.62l.25-.24c.39-.38.78-.74,1.15-1.11s.51-.5.76-.76l.75-.74a1.11,1.11,0,0,1,1.79,0c2,1.94,4,3.89,6,5.83l4.29,4.19,1.69,1.65A1.36,1.36,0,0,1,32,66.37Z"/></svg>
