
<svg id="Layer_1" data-name="Layer 1" xmlns="http://www.w3.org/2000/svg" viewBox="0 0 85.04 85.04"><defs><style>.cls-1{fill:#1d1d1b;}</style></defs><path class="cls-1" d="M73.11,67.82h0c-1.3,0-2.83,0-4.35,0a9.55,9.55,0,0,1-3.62-.88l.14-.2c.2-.27.38-.54.57-.81a45.6,45.6,0,0,0,6-13.5A69.27,69.27,0,0,0,74.46,37.1a2.66,2.66,0,0,1,.07-.39c0-.07,0-.13,0-.22v-6l-.13-.92c-.07-.49-.14-1-.2-1.48-.16-1.2-.33-2.45-.52-3.67a1.21,1.21,0,0,0-.5-.85,1,1,0,0,0-.84-.12,1.11,1.11,0,0,0-.74,1.43,39.21,39.21,0,0,1,.8,8.12,66.67,66.67,0,0,1-1.79,15.34c-.21.91-.45,1.82-.7,2.79-.1.36-.2.74-.3,1.13a.33.33,0,0,0,0-.06,21.47,21.47,0,0,1-4.1-17.58,12.41,12.41,0,0,0-2.89-10.81,20.88,20.88,0,0,0-2-2l-.88-.81A13.81,13.81,0,0,1,63,17.63a4,4,0,0,1,6.3,1.15,11.07,11.07,0,0,1,.73,1.3c.12.23.24.47.37.7a1.07,1.07,0,1,0,1.94-.88A10.56,10.56,0,0,0,69.7,16a5.53,5.53,0,0,0-6-1.14,11,11,0,0,0-4.56,3.44,31.57,31.57,0,0,0-4.82,8,4.18,4.18,0,0,1-.18.39,42.19,42.19,0,0,0-2.62-7.7,18,18,0,0,0-4.5-6.31,6.5,6.5,0,0,0-8.71-.11,13.44,13.44,0,0,0-2,2,26.48,26.48,0,0,0-4.28,8.59c-.27.84-.51,1.66-.76,2.54-.09.3-.17.6-.26.9-.17-.33-.33-.66-.49-1-.46-.94-.9-1.83-1.39-2.71a21,21,0,0,0-5.14-6.54,7.22,7.22,0,0,0-4.77-1.87A5.93,5.93,0,0,0,14.58,17a18,18,0,0,0-3.13,7.74,49.9,49.9,0,0,0-.52,14,69,69,0,0,0,2.52,13.65c1.81,6.21,3.87,10.65,6.7,14.41l0,.09a9.74,9.74,0,0,1-3.71.87c-.86,0-1.74,0-2.6,0h-2A1.11,1.11,0,0,0,11,69.69a1,1,0,0,0,.73.29H13a45.82,45.82,0,0,0,4.68-.15A12.63,12.63,0,0,0,25,66.28a13.49,13.49,0,0,1,2.5-1.76,9.38,9.38,0,0,1,4.16-1.19l1.39,4h0a2.13,2.13,0,0,0-.3.09l-1,.39c-.87.35-1.77.71-2.63,1.11a1,1,0,0,0-.57.63,1,1,0,0,0,.12.86,1,1,0,0,0,.88.51,1.34,1.34,0,0,0,.64-.17l.21-.12a1,1,0,0,1,.17-.1,9.18,9.18,0,0,1,5.65-1.19,2.28,2.28,0,0,0,1.3-.28,9.94,9.94,0,0,1,10.22,0,2.19,2.19,0,0,0,1.23.3,9.13,9.13,0,0,1,6,1.33,1.12,1.12,0,0,0,1.64-.25,1.06,1.06,0,0,0,.14-.82,1.25,1.25,0,0,0-.67-.75c-.88-.46-1.8-.85-2.66-1.2a5.38,5.38,0,0,0-.89-.27l-.28-.07,1.41-4.08.55.1c.47.08.92.16,1.36.27a11.43,11.43,0,0,1,5,2.85,11.81,11.81,0,0,0,6.83,3.29,36.13,36.13,0,0,0,3.74.17c.65,0,1.32,0,2,.05a1.65,1.65,0,0,0,1.45-.63l0,0v-.83l0,0A1.59,1.59,0,0,0,73.11,67.82ZM55.32,32.2l.57.61a15,15,0,0,1,1.32,1.55A10.92,10.92,0,0,1,59,43.22a22.4,22.4,0,0,0,.55,11c.22.76.73,1.1,1.37.93a1,1,0,0,0,.63-.47,1.34,1.34,0,0,0,.06-1A20.29,20.29,0,0,1,60.79,46c.06-.75.18-1.52.3-2.26.07-.43.14-.86.2-1.29a12.66,12.66,0,0,0-2.94-10.14,21.9,21.9,0,0,0-2-2.05c-.33-.3-.66-.61-1-.94l3.08-6.48a11.42,11.42,0,0,1,5.14,7.89,14.32,14.32,0,0,1-.26,4.51v.07a22.72,22.72,0,0,0,3.4,16.33c.36.55.74,1.1,1.11,1.63s.58.82.86,1.24a.66.66,0,0,1,.11.48c-.73,1.85-1.5,3.72-2.24,5.53l-.45,1.09H66l-.52-.76-1.71-2.54c-.08-.12-.15-.25-.22-.38s-.14-.24-.22-.36a1.09,1.09,0,0,0-2,.24,1.14,1.14,0,0,0,.18.86c.89,1.4,1.82,2.79,2.7,4.09l0,.05c.56.83.56.83,0,1.69-.22.31-.46.63-.7.95l-.28.38-.29-.21a8.42,8.42,0,0,1-.71-.57,13.6,13.6,0,0,0-8-3.89,80.1,80.1,0,0,0,1.13-29Zm-32,14.69.14.68.33,1.63,1,5.18c.49,2.62,1,5.23,1.48,7.85a.58.58,0,0,1-.3.73c-.71.47-1.41,1-2.08,1.52l-.41.33c-.31.24-.62.5-.95.78l-.37.31C17.94,60.37,16,54,14.6,48.42Zm7,8.2a1.18,1.18,0,0,0-.18.92c.19,1.13.42,2.29.65,3.4l.27,1.4.07.35-2.79.63L25.4,46.52l3.75-.67.06,1.08c0,.82.08,1.62.13,2.42,0,.62.08,1.33.14,2a1.28,1.28,0,0,0,.43.88.93.93,0,0,0,.75.23,1.1,1.1,0,0,0,1-1.3,81.82,81.82,0,0,1-.17-12.51,57.64,57.64,0,0,1,3.22-16.51c0-.14.1-.28.16-.43l.05-.11a17.91,17.91,0,0,0,15.56,0c.13.38.25.76.38,1.14.31.94.61,1.83.87,2.75a64,64,0,0,1,2.15,13.79,78.54,78.54,0,0,1-.14,11.22,54.89,54.89,0,0,1-3.48,15.95,1.22,1.22,0,0,1-.67.73,1.27,1.27,0,0,1-1-.15,12.2,12.2,0,0,0-5.89-1.5h-.24A13.12,13.12,0,0,0,36.9,67a3.08,3.08,0,0,1-1.24.19h-.24a1.06,1.06,0,0,1-.24-.36,46.14,46.14,0,0,1-2.62-9c-.08-.43-.16-.87-.23-1.31,0-.25-.09-.51-.14-.76a1.12,1.12,0,0,0-1.07-1H31A1.06,1.06,0,0,0,30.27,55.09Zm-14-12.41.41-.09a1.06,1.06,0,0,0,.8-1.28,1.09,1.09,0,0,0-1.29-.8l-2.14.38-.75.13a59,59,0,0,1-.46-9.49A31.83,31.83,0,0,1,14.2,22.7a19.81,19.81,0,0,1,1.88-4.05,3.8,3.8,0,0,1,3.8-2A6,6,0,0,1,23,18.23a20.91,20.91,0,0,1,4.68,6.38c.68,1.34,1.27,2.75,1.85,4.11L30.09,30a1.45,1.45,0,0,1,.11.77c-.23,1.91-.48,3.79-.74,5.77l-.22,1.7-8.48,1.5c-.73.13-1.16.6-1.1,1.19a1,1,0,0,0,.39.72,1.28,1.28,0,0,0,1,.2l4.28-.74,1.76-.31,2.06-.36v3.26l-15,2.64c-.19-1-.37-2.07-.57-3.15Zm19.43-23c1.17-2.35,2.41-4.56,4.63-6a4.18,4.18,0,0,1,5.15.38,15.08,15.08,0,0,1,4.07,5.58A16,16,0,0,1,35.71,19.68Z"/><path class="cls-1" d="M45.17,72.93a1,1,0,0,0-.34.72,1.14,1.14,0,0,0,.32.83l.17.18.12.12h.85l.12-.11.19-.17a1.16,1.16,0,0,0,.36-.81,1,1,0,0,0-.33-.73A1.08,1.08,0,0,0,45.17,72.93Z"/><path class="cls-1" d="M25.56,67.45a1.13,1.13,0,0,0-1,1.1,1.07,1.07,0,0,0,1.08,1h0a1.06,1.06,0,0,0-.06-2.12Z"/><path class="cls-1" d="M21.44,69.69a1.17,1.17,0,0,0-.75.29,1.11,1.11,0,0,0-.34.76,1.09,1.09,0,0,0,.29.76,1,1,0,0,0,.75.31h0a1.05,1.05,0,0,0,1.07-1A1.1,1.1,0,0,0,21.44,69.69Z"/><path class="cls-1" d="M59.41,70.77h0a1.09,1.09,0,0,0-.76.34,1,1,0,0,0-.29.75,1.12,1.12,0,0,0,1.08,1h0a1.1,1.1,0,0,0,.74-.35,1.08,1.08,0,0,0,.3-.76A1.06,1.06,0,0,0,59.41,70.77Z"/><path class="cls-1" d="M24.85,71.19h0a1.13,1.13,0,0,0-1.08,1.07,1,1,0,0,0,.31.73,1.11,1.11,0,0,0,.76.34h0a1.05,1.05,0,0,0,.74-1.81A1,1,0,0,0,24.85,71.19Z"/><path class="cls-1" d="M59.3,69.13h0a1.13,1.13,0,0,0,1.08-1A1.14,1.14,0,0,0,59.33,67a1,1,0,0,0-.74.3,1.09,1.09,0,0,0,0,1.53A1,1,0,0,0,59.3,69.13Z"/><path class="cls-1" d="M63.09,69.82A1.12,1.12,0,0,0,62,70.91a1.08,1.08,0,0,0,1.08,1h0a1.06,1.06,0,0,0,.75-.32,1.06,1.06,0,0,0,0-1.51A1.07,1.07,0,0,0,63.09,69.82Z"/><path class="cls-1" d="M42.16,70.76h0a1.08,1.08,0,0,0-1.07,1,1.11,1.11,0,0,0,1,1.11h0a1.13,1.13,0,0,0,1.08-1,1,1,0,0,0-.29-.75A1.08,1.08,0,0,0,42.16,70.76Z"/><path class="cls-1" d="M36.28,44.41c.52.51,1,1,1.59,1.53a.87.87,0,0,1,.3.91c-.08.42-.15.85-.22,1.27-.09.58-.19,1.19-.31,1.78a1.14,1.14,0,0,0,1.78,1.31l1.64-.86.48-.26v1.23c0,2.32,0,4.52,0,6.75a.53.53,0,0,1-.32.28,13,13,0,0,0-4.92,1.55,1.31,1.31,0,0,0-.71.77,1,1,0,0,0,.1.77,1,1,0,0,0,.89.55,1.68,1.68,0,0,0,.73-.2,11.11,11.11,0,0,1,10.7,0,1.09,1.09,0,0,0,1.61-.37c.31-.57.08-1.15-.62-1.53a12.3,12.3,0,0,0-4.87-1.51c-.36,0-.39-.15-.39-.51,0-1.7,0-3.39,0-5.09V50.41c0-.09,0-.17,0-.28v0l.62.32,1.6.84c.58.31,1,.29,1.3,0A1.73,1.73,0,0,0,47.62,50c-.11-1.08-.31-2.13-.54-3.31a.67.67,0,0,1,.24-.69l.09-.09c.79-.74,1.6-1.51,2.35-2.32a1.3,1.3,0,0,0,.31-1.1,1.41,1.41,0,0,0-.91-.77c-1.15-.24-2.35-.39-3.38-.51a.66.66,0,0,1-.61-.41l0,0C43.72,38,43.72,38,43.72,34.89V30.18a13.45,13.45,0,0,0,4.94-1.4c.61-.32.94-.62,1.05-1a1,1,0,0,0-.11-.76c-.44-.81-1.25-.54-1.9-.21A11,11,0,0,1,41,27.94a11.66,11.66,0,0,1-3.81-1.28,1,1,0,0,0-1.5.41,1,1,0,0,0,.51,1.46l.14.08a7.62,7.62,0,0,0,1.39.65c.9.27,1.79.51,2.73.76l1.1.3c0,2.44,0,4.88,0,7.31a1,1,0,0,1-.12.48c-.45.94-.89,1.86-1.37,2.77a.66.66,0,0,1-.39.32c-1,.18-2.15.35-3.37.5a1.22,1.22,0,0,0-1.12.75,1.13,1.13,0,0,0,.42,1.28Zm8.58,2c.11.49.19,1,.27,1.53,0,.15,0,.31.07.47l-.41-.21c-.47-.24-.9-.46-1.33-.71a1.52,1.52,0,0,0-1.64,0c-.42.25-.86.47-1.32.71l-.43.22c0-.17,0-.34.08-.5.09-.57.17-1.1.27-1.63A1.31,1.31,0,0,0,40,45c-.37-.36-.73-.74-1.11-1.14-.11-.11-.22-.22-.32-.34l.45-.06a14.92,14.92,0,0,0,1.67-.3,1.75,1.75,0,0,0,1-.71c.28-.46.52-.95.77-1.47.07-.15.14-.31.22-.46.07.14.15.27.22.4.22.43.43.83.6,1.25A1.63,1.63,0,0,0,45,43.3c.44,0,.89.11,1.36.18l.41.06-.33.34c-.35.37-.68.72-1,1.06A1.44,1.44,0,0,0,44.86,46.43Z"/><path class="cls-1" d="M21.19,34.28h0a4.31,4.31,0,0,0,0-8.62h0a4.31,4.31,0,1,0,0,8.62ZM19,30a2.18,2.18,0,0,1,2.16-2.16h0a2.17,2.17,0,0,1,1.55.64A2.13,2.13,0,0,1,23.37,30a2.1,2.1,0,0,1-.65,1.53,2.16,2.16,0,0,1-1.54.63h0A2.15,2.15,0,0,1,19,30Z"/></svg>
