
<svg id="Layer_1" data-name="Layer 1" xmlns="http://www.w3.org/2000/svg" viewBox="0 0 85.04 85.04"><defs><style>.cls-1{stroke:#1d1d1b;stroke-miterlimit:10;stroke-width:0.7px;}</style></defs><path class="cls-1" d="M25.16,70.22a12,12,0,0,1-2-.9,4.42,4.42,0,0,1-2-3.84q0-19.68,0-39.34c0-.77.48-1.24,1.07-1a1.28,1.28,0,0,1,.52.67,1.46,1.46,0,0,1,0,.63v38.7a3.14,3.14,0,0,0,2.12,3.26,4.13,4.13,0,0,0,1.21.19q16.14,0,32.29,0a3.13,3.13,0,0,0,3.32-3.3V20a3.13,3.13,0,0,0-3.31-3.31q-16.17,0-32.34,0A3.13,3.13,0,0,0,22.8,20c0,.86,0,1.73,0,2.59a.82.82,0,1,1-1.62,0,27.72,27.72,0,0,1,.12-3.65,4.57,4.57,0,0,1,4.59-3.82H58.66a4.69,4.69,0,0,1,4.7,4.68q0,22.88,0,45.74a4.7,4.7,0,0,1-3.73,4.59,1.3,1.3,0,0,0-.25.1Z"/><path class="cls-1" d="M58.52,22.56H26V51.81a2.44,2.44,0,0,1,0,.54.75.75,0,0,1-.83.66.73.73,0,0,1-.76-.69,3.13,3.13,0,0,1,0-.53V22.14c0-1,.18-1.22,1.21-1.22H59c1,0,1.18.2,1.18,1.14V33.52c0,.55-.32.88-.8.88a.79.79,0,0,1-.81-.87c0-1.54,0-3.08,0-4.63Z"/><path class="cls-1" d="M26,60.74h32.5V37.3c0-.16,0-.32,0-.48a.81.81,0,1,1,1.61,0c0,.12,0,.25,0,.38v24c0,1-.24,1.21-1.2,1.21H25.58c-.93,0-1.18-.25-1.18-1.18V55.67c0-.67.3-1.05.81-1.05S26,55,26,55.67v5.07Z"/><path class="cls-1" d="M44,65.55a1.73,1.73,0,0,1-3.46-.06,1.73,1.73,0,0,1,3.46.06Zm-1.73.55a.58.58,0,0,0,.58-.56.58.58,0,1,0-.58.56Z"/><path class="cls-1" d="M43.87,19.62H42.15a.8.8,0,0,1-.87-.81.77.77,0,0,1,.86-.81c1.18,0,2.37,0,3.55,0a.8.8,0,0,1,.88.8.82.82,0,0,1-.92.82Z"/><path class="cls-1" d="M39.8,18.79a.81.81,0,1,1-1.61,0A.8.8,0,0,1,39,18,.77.77,0,0,1,39.8,18.79Z"/></svg>
