
<svg id="Layer_1" data-name="Layer 1" xmlns="http://www.w3.org/2000/svg" viewBox="0 0 85.04 85.04"><defs><style>.cls-1{fill:#fff;}</style></defs><path d="M73.34,46.9A2.86,2.86,0,0,0,70.14,45c-.4,0-.8,0-1.2,0s-.75,0-1.13,0a14.13,14.13,0,0,0-1.42.18l-.56.08-.06-.15c-.25-.77-.49-1.55-.74-2.32-.46-1.47-.93-2.93-1.4-4.39A5.89,5.89,0,0,0,57.8,34.1H54.39L54,32.78c-.29-1-.58-2-.88-3a3.09,3.09,0,0,0-3.26-2.42H35.48c-2.09,0-3,.71-3.63,2.72-.26.89-.53,1.79-.8,2.69l-.38,1.31H29.54c-.91,0-1.77,0-2.66,0a5.25,5.25,0,0,0-4.69,2.75,19.62,19.62,0,0,0-1.26,3.21c-.11.33-.21.66-.33,1-.35,1-.68,2.1-1,3.12-.12.41-.25.8-.37,1.2l-.31-.11a3.06,3.06,0,0,0-.9-.23c-1.29,0-2.62,0-4,0a2.44,2.44,0,0,0-2.33,2.44c0,.39,0,.77,0,1.16V49a2.56,2.56,0,0,0,2.83,2.82h1.17a10.14,10.14,0,0,0-1.94,5.66c0,2.12,0,4.25,0,6.42a5.29,5.29,0,0,0,1.65,4A10.54,10.54,0,0,0,17,69.07l.75.49v1c0,.91,0,1.84,0,2.79a3.71,3.71,0,0,0,3.69,3.66c1.22,0,2.47,0,3.68,0h.33a3.55,3.55,0,0,0,.74-.08,3.71,3.71,0,0,0,2.94-3.65c0-.88,0-1.77,0-2.63,0-.34,0-.69,0-1H56v1.09c0,.91,0,1.77,0,2.65a3.67,3.67,0,0,0,3.69,3.65H63.5a3.72,3.72,0,0,0,3.85-3.86V71.91c0-.74,0-1.5,0-2.25a.64.64,0,0,1,.25-.47,6,6,0,0,0,3.68-5.88v-5.4a10.25,10.25,0,0,0-1.75-5.76c-.06-.09-.12-.18-.18-.29h.15a4.07,4.07,0,0,1,.61,0A2.9,2.9,0,0,0,73.34,50V46.9ZM32.85,34.06l.3-1c.28-1,.55-1.89.85-2.82.18-.59.52-.79,1.34-.79H49.6c1,0,1.3.19,1.59,1.18l1,3.43ZM65.29,70.85c0,.77,0,1.57,0,2.36A1.7,1.7,0,0,1,63.49,75c-1.36,0-2.58,0-3.71,0a1.61,1.61,0,0,1-1.73-1.6c0-.88,0-1.74,0-2.66,0-.36,0-.73,0-1.09h7.23v.06c0,.11,0,.22,0,.33ZM18.23,49c0,.51-.2.73-.69.74-1,0-1.94,0-2.88,0h-.29a.62.62,0,0,1-.46-.15.65.65,0,0,1-.15-.47V47.73a.66.66,0,0,1,.15-.48.69.69,0,0,1,.51-.16h3.23c.4,0,.58.18.58.57V49Zm-2.38,13c0-1.72,0-3.5.08-5.24a7,7,0,0,1,2.51-4.9l.11-.06h0l.38.67c.33.57.64,1.12.93,1.68a5.3,5.3,0,0,0,5,3.08c.83,0,1.68,0,2.52,0s1.22-.37,1.22-1-.44-1-1.21-1.05h-1c-.76,0-1.54,0-2.3-.09a2.77,2.77,0,0,1-2.26-1.57c-.34-.65-.7-1.29-1.08-2l-.45-.8.2-.05a7.29,7.29,0,0,1,.75-.17,2.33,2.33,0,0,1,.46,0H63.11a9.35,9.35,0,0,1,1.16.09l.48.06-.06.13a3.84,3.84,0,0,1-.17.35l-.4.72c-.27.46-.54.94-.78,1.43a3.28,3.28,0,0,1-3.19,1.89H31.92a1.05,1.05,0,0,0-1.14,1.06c0,.59.43,1,1.12,1h6.38c7.07,0,14.37,0,21.56,0A8.36,8.36,0,0,0,62.17,57,4.65,4.65,0,0,0,65,54.58c.35-.66.71-1.3,1.1-2,.14-.25.27-.5.42-.75a6.52,6.52,0,0,1,1.63,2,7.06,7.06,0,0,1,1,3.4c0,2.47,0,4.66,0,6.71a3.81,3.81,0,0,1-3.83,3.59H19.73A3.51,3.51,0,0,1,16,64.92a3.77,3.77,0,0,1-.13-1ZM64.64,48.56a1.55,1.55,0,0,0-.31,0h-.08c-.93.14-1.24-.32-1.5-1.2-.5-1.77-1.08-3.55-1.63-5.27-.21-.64-.42-1.28-.62-1.92a3.23,3.23,0,0,0-3.29-2.49c-1.57,0-3.18,0-4.92,0a1.69,1.69,0,0,0-1,.35.89.89,0,0,0-.29.85,1,1,0,0,0,.64.77,2.41,2.41,0,0,0,.81.12h4.87a1.1,1.1,0,0,1,1.14.81c.62,2,1.24,3.9,1.86,5.88l.63,2H24.15a2.14,2.14,0,0,1,.06-.27l2.31-7.29c.3-.92.54-1.1,1.54-1.1H47.43a1.24,1.24,0,0,0,.75-.14c.25-.18.65-.59.63-1s-.23-.56-.69-.9a1,1,0,0,0-.64-.11H28.1a3.27,3.27,0,0,0-3.56,2.61c-.23.71-.45,1.42-.68,2.12-.59,1.84-1.2,3.75-1.78,5.62-.11.38-.26.49-.61.49a8.09,8.09,0,0,0-.85.06l-.22,0,1.5-4.72c.15-.49.31-1,.47-1.48.34-1.1.7-2.24,1.07-3.35a3.85,3.85,0,0,1,3.92-2.85H57.7a3.83,3.83,0,0,1,3.87,2.67c.78,2.36,1.53,4.77,2.27,7.1.27.88.55,1.76.82,2.64Zm2.19.53c0-.26,0-.53,0-.78s0-.28,0-.43c0-.71.09-.79.78-.79h2c.35,0,.7,0,1,0a.56.56,0,0,1,.64.65v1.44c0,.4-.18.59-.57.6h-.29c-1,0-2,0-2.94,0a.72.72,0,0,1-.54-.19A.63.63,0,0,1,66.83,49.09ZM21.44,75a1.63,1.63,0,0,1-1.66-1.68c0-.86,0-1.7,0-2.59V69.65H27c0,.38,0,.75,0,1.12,0,1,0,1.89,0,2.83A1.5,1.5,0,0,1,25.38,75C24,75,22.68,75,21.44,75Z"/><path d="M33.11,65.9H51.93a2.33,2.33,0,0,0,2.48-3.14c-.17-.69-.36-1.38-.54-2.07l0-.19a2.48,2.48,0,0,0-2.78-2.13H33.85a2.45,2.45,0,0,0-2.56,2c-.18.67-.41,1.57-.62,2.49a2.32,2.32,0,0,0,2.44,3.07Zm19.12-3.31.21.82a.35.35,0,0,1,0,.29c0,.07-.14.11-.29.13a1.72,1.72,0,0,1-.33,0H33.34c-.29,0-.58,0-.65-.11s0-.36,0-.63.14-.52.2-.77c.13-.48.25-.95.37-1.43a.46.46,0,0,1,.54-.43H51.28a.7.7,0,0,1,.47.33C51.93,61.4,52.09,62,52.23,62.59Z"/><path d="M57.47,65.63h0l1.75-.19,4.66-.51a2,2,0,0,0,1.83-1.5l.16-.58c.23-.81.47-1.64.67-2.47a1.89,1.89,0,0,0-.4-1.73A2,2,0,0,0,64.43,58l-2.14.26-3.56.43a1.87,1.87,0,0,0-1.6,1L57,60.1c-.46,1-.94,2-1.33,3a1.8,1.8,0,0,0,.21,1.67A2,2,0,0,0,57.47,65.63Zm.25-2.16.2-.45c.3-.68.61-1.39.93-2.07a.39.39,0,0,1,.26-.19l5-.59.26,0h.13l-.13.46c-.2.73-.39,1.45-.6,2.17a.37.37,0,0,1-.16.1l-5.1.51Z"/><path d="M19.43,63.57a1.88,1.88,0,0,0,1.8,1.37l1.07.11.59.07,4.42.47.36,0h0A1.89,1.89,0,0,0,29.42,63c-.32-.8-.69-1.6-1-2.37L28,59.86a1.94,1.94,0,0,0-1.64-1.14c-1.86-.24-3.84-.48-5.82-.7a1.83,1.83,0,0,0-1.62.61,1.8,1.8,0,0,0-.42,1.65C18.76,61.24,19,62.29,19.43,63.57Zm1.19-3.44.67.08,1.84.2.33,0c.76.09,1.56.18,2.33.3a.73.73,0,0,1,.47.25c.31.63.59,1.28.89,2l.24.53-.91-.09-3-.32L22.92,63a9.81,9.81,0,0,0-1.09-.11c-.37,0-.49-.1-.57-.44-.13-.58-.3-1.14-.47-1.74C20.73,60.53,20.67,60.33,20.62,60.13Z"/><path d="M46.1,30.68a.42.42,0,0,0-.06-.55c-.22-.16-.48,0-.59.16a5.19,5.19,0,0,0-.59,1,8.5,8.5,0,0,0-.6-1,.44.44,0,0,0-.55-.14.35.35,0,0,0-.11.53,1.55,1.55,0,0,1,0,2.38.39.39,0,0,0,.06.55.49.49,0,0,0,.59-.17,5.76,5.76,0,0,0,.62-1c.12.2.22.35.31.51a2,2,0,0,0,.28.45c.17.14.23.3.59.19A.37.37,0,0,0,46.1,33,1.52,1.52,0,0,1,46.1,30.68Z"/><path d="M41.41,30.07a.67.67,0,0,0-.46.35c-.31.89-.58,1.78-.82,2.69a.46.46,0,0,0,.21.5.39.39,0,0,0,.49-.26.55.55,0,0,1,.63-.45c.37,0,.63.05.68.47s.29.23.44.23.35-.06.35-.28c-.34-1.06-.63-2.06-1-3C41.91,30.16,41.58,30.05,41.41,30.07Zm-.24,2.21c.09-.37.18-.69.26-1l.1,0,.27,1Z"/><path d="M39.47,30.07c-.63,0-1.27,0-1.91,0a.32.32,0,0,0-.28.34.34.34,0,0,0,.3.34l.54.05c0,.74,0,1.44,0,2.13,0,.3-.12.69.39.71s.41-.38.42-.68v-2.2a4.37,4.37,0,0,0,.56,0c.15,0,.29-.08.29-.35A.31.31,0,0,0,39.47,30.07Z"/><path d="M47.8,30.51c0-.16,0-.44-.33-.45s-.39.26-.4.39c0,.94,0,1.88,0,2.81,0,.13,0,.3.41.35.08,0,.31-.22.32-.36a12.49,12.49,0,0,0,0-1.37A12.49,12.49,0,0,0,47.8,30.51Z"/><path class="cls-1" d="M40.71,15.48a8.75,8.75,0,0,0-1.27,0A1.86,1.86,0,0,1,37,14.06a1.07,1.07,0,0,0-1.22-.75c-.61,0-1.22,0-1.83,0-.86,0-1.23.38-1.24,1.24,0,1.42,0,2.84,0,4.26A3.21,3.21,0,0,0,35.94,22H51.23a3.25,3.25,0,0,0,0-6.5c-1.06,0-2.12,0-3.18,0a1,1,0,0,1-.93-.49c-1.17-1.79-2.38-3.56-3.55-5.34A1.37,1.37,0,0,0,42.25,9c-1,0-2-.05-3,0a1.46,1.46,0,0,0-1,.62,1.36,1.36,0,0,0,.09,1.07C39.11,12.27,39.89,13.81,40.71,15.48Z"/><path d="M40.71,15.48c-.82-1.67-1.6-3.21-2.33-4.78a1.36,1.36,0,0,1-.09-1.07,1.46,1.46,0,0,1,1-.62c1-.09,2,0,3,0a1.37,1.37,0,0,1,1.29.69c1.17,1.78,2.38,3.55,3.55,5.34a1,1,0,0,0,.93.49c1.06,0,2.12,0,3.18,0a3.25,3.25,0,0,1,0,6.5H35.94a3.21,3.21,0,0,1-3.21-3.17c0-1.42,0-2.84,0-4.26,0-.86.38-1.23,1.24-1.24.61,0,1.22,0,1.83,0a1.07,1.07,0,0,1,1.22.75,1.86,1.86,0,0,0,2.42,1.43A8.75,8.75,0,0,1,40.71,15.48Zm-5.65-.06-.16.1c0,1,0,1.93,0,2.9s.4,1.39,1.4,1.39q7.28,0,14.55,0c.82,0,1.37-.43,1.38-1.07s-.52-1.09-1.36-1.09c-1.26,0-2.53,0-3.79,0a1.44,1.44,0,0,1-1.34-.73c-1.15-1.75-2.34-3.47-3.48-5.24a.91.91,0,0,0-1.2-.48c.1.2.18.4.28.6.68,1.37,1.38,2.73,2,4.11a1.1,1.1,0,0,1-1.09,1.72H38.45c-2.24,0-2,.27-3-1.76A2.27,2.27,0,0,0,35.06,15.42Z"/></svg>
