
<svg id="Layer_1" data-name="Layer 1" xmlns="http://www.w3.org/2000/svg" viewBox="0 0 85.04 85.04"><path d="M5.59,56.09l4.22-6.58c3.19-5,6.28-10.11,9.61-15A29.81,29.81,0,0,1,31.7,23.57c9.59-4.36,18.68-3.27,27.1,3a38,38,0,0,1,9.27,10.6q5.73,9.12,11.44,18.25c.62,1,.61,1.56,0,2s-1.14.15-1.77-.85c-.8-1.29-1.61-2.58-2.53-3.82.36,1.18.77,2.35,1.06,3.55.7,2.83,1.36,5.68,2,8.52.19.85-.23,1.33-1.11,1.39H8.66c-1.11,0-1.51-.51-1.28-1.65.33-1.6.65-3.22,1.06-4.8.63-2.4,1.33-4.78,2.05-7.36l-1.33,2.1c-.47.73-.93,1.47-1.4,2.21-.7,1.1-1.26,1.17-2.17.28Zm13,8H66.94c-.31-1.71-.58-3.37-.9-5a91.17,91.17,0,0,0-6.43-21.13,33.62,33.62,0,0,0-6.92-10.39c-6.12-5.93-13.86-5.87-19.91.13a32.36,32.36,0,0,0-6,8.61,78,78,0,0,0-6.11,17.6C19.93,57.19,19.31,60.59,18.61,64Zm12.3-37.77c-.66.44-1.33.85-2,1.3a38,38,0,0,0-10.7,12.54,80,80,0,0,0-7.85,20.48c-.28,1.13-.52,2.28-.79,3.45h6.8c1-4.63,1.85-9.21,3-13.7C21.76,41.63,24.79,33.23,30.91,26.27Zm23.72.07A38,38,0,0,1,60.53,35c4,7.87,6.2,16.3,7.81,24.91.26,1.38.47,2.76.71,4.14H76c0-.26,0-.48-.09-.69a89,89,0,0,0-5.63-17.54,49.41,49.41,0,0,0-9.86-15.09A24.24,24.24,0,0,0,54.63,26.34Z"/><path d="M42.79,62.75H29.5c-1.28,0-1.63-.44-1.42-1.7.7-4.26,1.37-8.53,2.09-12.79a8.15,8.15,0,0,1,2.13-3.9c4.45-5.08,12.84-7.08,18.92-1.64a11.8,11.8,0,0,1,3.63,6.75c.79,3.87,1.77,7.71,2.67,11.56.29,1.24-.09,1.72-1.38,1.72Zm1.06-2.17H55.27c-.91-3.85-1.89-7.64-2.68-11.46a9,9,0,0,0-3.65-5.54,9.43,9.43,0,0,0-5-1.92c-.11.67-.39,1.19-1.1,1.19s-1-.55-1.11-1.24a12.82,12.82,0,0,0-6.85,3.14,7.66,7.66,0,0,0-2.77,4.71c-.25,1.91-.61,3.81-.92,5.72s-.59,3.57-.89,5.4h11.5V46.11c0-1.14.34-1.65,1.06-1.64s1,.51,1,1.62V60.58Z"/></svg>
