
<svg id="Layer_1" data-name="Layer 1" xmlns="http://www.w3.org/2000/svg" viewBox="0 0 85.04 85.04"><path d="M76.9,68.66a25.41,25.41,0,0,0-7.34-3,29.4,29.4,0,0,0-4.27-.77.86.86,0,0,0-.39,0,26.27,26.27,0,0,0-9.86,1,68.84,68.84,0,0,0-8.26-3.4l-.19-.05c-1.37-.45-2.75-.84-4.14-1.18A33.38,33.38,0,0,1,49,55.73a24.71,24.71,0,0,1,10.52,2.56,32.28,32.28,0,0,1,5,2.79c1.1.79,2.15-1,1.06-1.81a31.58,31.58,0,0,0-5.27-2.93,30.45,30.45,0,0,0-7.9-2.46,31,31,0,0,1,7.06-2.34A34.68,34.68,0,0,1,63,51h.16l.16,0a3.4,3.4,0,0,1,.34.12h0l.23.11a12.58,12.58,0,0,1,1.74,1.08l.44.32.21.17.08,0,0,0,.85.68c.45.38.9.77,1.34,1.17.22.19.44.39.65.6a1.05,1.05,0,0,0,1.49-1.49c-.62-.59-1.26-1.15-1.91-1.69s-1.09-.9-1.66-1.33h.4c1.14,0,2.28.13,3.41.27l.23,0,.28,0,.74.11,1.21.22a22.57,22.57,0,0,1,2.69.69c1.28.43,1.83-1.6.56-2a32.14,32.14,0,0,0-8.32-1.4c-.87-.05-1.75-.06-2.62,0V46.71a3.28,3.28,0,0,0,1-.14,3.68,3.68,0,0,0,1.47-.84c1.74-.28,4.08-1,3.6-3.2a3.29,3.29,0,0,0-.56-1.2,4.62,4.62,0,0,0,2-3.74,4.16,4.16,0,0,0-2.22-3.67c.64-1.6.76-3.39-.66-4.66a4.84,4.84,0,0,0-1.79-1c.24-2-.28-4.33-2.2-5.21A4.82,4.82,0,0,0,62.14,23a4.09,4.09,0,0,0-1.85,2.38c0,.08,0,.17-.07.26a4.32,4.32,0,0,0-1.17-.22,3.7,3.7,0,0,0-3.3,2.41,4.07,4.07,0,0,0,.06,3.12,3.76,3.76,0,0,0-2,3,5.15,5.15,0,0,0,1.33,4.51A2.76,2.76,0,0,0,54.85,41a3.44,3.44,0,0,0,2.73,2.16c.51,1.76,1.65,3.29,3.66,3.34A5.28,5.28,0,0,0,63.56,46l0,0v2.86l-.6.06h-.12l-.11,0A33.35,33.35,0,0,0,40.07,60.65,40.42,40.42,0,0,0,35.3,60V53.56l.08,0c1.62.79,3.14,0,4.23-1.24,1.78.23,3.94.11,5.18-1.23a3,3,0,0,0,.14-3.94l-.13-.12A5,5,0,0,0,46.6,45a4.76,4.76,0,0,0-3.09-6.26,5.45,5.45,0,0,0,.16-5.2,4.51,4.51,0,0,0-3.88-2.31,4.93,4.93,0,0,0-1.17-4.6,6.93,6.93,0,0,0-5.44-1.75,5,5,0,0,0-3.62,2.28,1.59,1.59,0,0,0-.13.22,3.42,3.42,0,0,0-1.52-.87,4.93,4.93,0,0,0-3.85.9,5.89,5.89,0,0,0-2,3.2c-.08.26-.14.53-.2.8-2.19-1.14-4.51,0-6,1.72a4.79,4.79,0,0,0-5.2,1.72,5.22,5.22,0,0,0-1.24,4.51,4.7,4.7,0,0,0,.46,1.21A5.76,5.76,0,0,0,8,45.87,8.52,8.52,0,0,0,9,48.81c-.94,2.17-1.39,4.84.55,6.59A5.69,5.69,0,0,0,12,56.66,3.44,3.44,0,0,0,13.07,59a4.77,4.77,0,0,0,2.87,1,10.88,10.88,0,0,0,3-.28v3.44a28.11,28.11,0,0,0-8.52,6.6,19.69,19.69,0,0,0-2.12,2.85,1.05,1.05,0,0,0,1.82,1.06c.11-.2.24-.4.37-.59s.3-.44.46-.65l.15-.2,0,0,.38-.48a25.41,25.41,0,0,1,1.93-2.09c.42-.41.85-.8,1.29-1.18.24-.2.47-.4.72-.59a1.41,1.41,0,0,1,.23-.18l.42-.32a27.27,27.27,0,0,1,3.64-2.26,24.32,24.32,0,0,1,4.5-1.81c.64-.19,1.29-.35,1.94-.5A36.6,36.6,0,0,0,16.88,73c-.22.37-.44.73-.63,1.12-.59,1.2,1.22,2.27,1.82,1.06a22.61,22.61,0,0,1,1.88-3A36.12,36.12,0,0,1,25.9,65.7,34,34,0,0,1,31,62.1a34.31,34.31,0,0,1,5.26.11,39.23,39.23,0,0,1,3.89.58.79.79,0,0,0,.37.07c.5.1,1,.22,1.48.33a21.87,21.87,0,0,0-5.22,3.15,39.75,39.75,0,0,0-6.19,6.18c-.43.53-.86,1.07-1.26,1.63a1,1,0,0,0,.38,1.43,1.06,1.06,0,0,0,1.43-.37l.22-.29.18-.24.1-.14.22-.27c.72-.9,1.47-1.76,2.26-2.6a28.64,28.64,0,0,1,7.32-5.92,10.87,10.87,0,0,1,4.71-1.37,60.61,60.61,0,0,1,6.11,2.42,32,32,0,0,0-10.51,7.6c-.93,1,.55,2.47,1.48,1.48A29.61,29.61,0,0,1,54.9,68h0a1.05,1.05,0,0,0,1.43-.46,22.76,22.76,0,0,1,4.75-.78,25.14,25.14,0,0,1,3.69.08,18.9,18.9,0,0,1,5.57,3.69,33.36,33.36,0,0,1,2.75,2.7A1,1,0,0,0,74.6,71.8,31.31,31.31,0,0,0,71.69,69c-.3-.26-.6-.52-.91-.77l.63.2,1.23.47.17.07L73,69l.54.25a17.75,17.75,0,0,1,2.28,1.21C77,71.21,78,69.39,76.9,68.66ZM69,31Zm-7,13.31a3.58,3.58,0,0,1-.35.09c-.07,0-.09,0-.1,0a.44.44,0,0,0-.12,0h-.39c-.22,0,.06.05-.2,0a1.32,1.32,0,0,1-.49-.23,4,4,0,0,1-1-2.27,1,1,0,0,0-1-.78l-.21,0c-.1,0-.52,0-.36,0a1.26,1.26,0,0,1-1.12-1.35s.06-.08.1-.13,0,0,0,0l0,0,.19-.11h0a1.06,1.06,0,0,0,0-2c.43.18.05,0-.12-.08l-.2-.14-.3-.27a2.9,2.9,0,0,1-.7-2.3,3,3,0,0,1,.45-1.46s.31-.29.16-.18l.19-.11.09,0H57c.14.05.62.23.12,0,1,.45,2.16-.74,1.27-1.65-.07-.07-.13-.15-.19-.22l-.09-.12c-.07-.11-.15-.23-.21-.34a2.22,2.22,0,0,1-.34-1.65c.18-.69.84-1.45,1.6-1.34a3.16,3.16,0,0,1,1.3.57,1.06,1.06,0,0,0,1.58-.91,3.42,3.42,0,0,1,0-.45v0c0-.08,0-.17.05-.26s.09-.34.14-.51a2.5,2.5,0,0,1,.48-.83l.15-.13.21-.15a2.35,2.35,0,0,1,.45-.15,3.11,3.11,0,0,1,1.87.34,2.2,2.2,0,0,1,.89,1.5,4.82,4.82,0,0,1-.11,2.25,1.07,1.07,0,0,0,1,1.33l-.16,0,.11,0,.47.11.28.09.16.06a3.9,3.9,0,0,1,.62.37l.19.17.12.13a.21.21,0,0,0,0,.06l.11.19v0c0,.05.07.25.08.29A4,4,0,0,1,68.55,34a1.06,1.06,0,0,0,.62,1.54l.32.07.37.13,0,0,.22.11A1.85,1.85,0,0,1,71,37.59a2.3,2.3,0,0,1-.3,1.2,1.91,1.91,0,0,1-.28.4l-.3.29a4.38,4.38,0,0,1-.81.47l-.07,0-.11,0a1.06,1.06,0,0,0-.46,1.75L69,42l.28.28.19.23c.06.1.13.2.19.31l0,0h0a1.24,1.24,0,0,0,0,.16h0l0,.06h0l-.07,0-.07.05h0a1.82,1.82,0,0,1-.31.16,5.09,5.09,0,0,1-.88.25,2.89,2.89,0,0,0-1.57.55,1.49,1.49,0,0,1-.78.44,1.31,1.31,0,0,1-.28,0V42.52a1.07,1.07,0,0,0-.52-.91l-.11-.06a6.79,6.79,0,0,0,2.23-3.42,3.74,3.74,0,0,0,.12-.45,1,1,0,0,0-2-.56c0,.11-.06.22-.09.33a3.58,3.58,0,0,1-.11.35l-.08.21,0,.06c-.17.33-.31.66-.51,1l-.17.24-.06.08a4.78,4.78,0,0,1-.45.45l-.1.07L63.6,40c-.35-.42-.49-.61-.82-1.06a1.08,1.08,0,0,0-1.44-.38A1.07,1.07,0,0,0,61,40c.39.53.79,1.05,1.21,1.56a10.24,10.24,0,0,0,1.44,1.51v.6a1,1,0,0,0-.5.17,6.36,6.36,0,0,1-.58.3l-.1,0ZM37.82,29.43s0-.07,0,0ZM24.1,31.12a3.27,3.27,0,0,1,2.16-2.51,1.86,1.86,0,0,1,1.24-.07l.06,0,.13.06.18.12.11.1.23.25c-.15-.18.1.17.15.25s.15.33.16.34a2.47,2.47,0,0,1,.1.29c.24,1,1.85,1.05,2,0,0-.14.06-.27.1-.41s.08-.28.13-.42S30.92,29,31,29a1.22,1.22,0,0,1,.08-.17c.1-.19.2-.38.31-.56a1.55,1.55,0,0,1,.36-.45,2.58,2.58,0,0,1,1.06-.7,4.85,4.85,0,0,1,4.08.75,2.37,2.37,0,0,1,.84,1.09c0,.12.07.24.1.36a1.06,1.06,0,0,1,0,.19v0a4.17,4.17,0,0,1,0,.79s0,.09,0,.13v.05c0,.13,0,.26-.08.38a6.32,6.32,0,0,1-.18.62l-.1.24a1,1,0,0,1-.07.15,1.07,1.07,0,0,0,1.19,1.55l.35-.07.39,0H40l.34.07a2.32,2.32,0,0,1,.49.17,2.24,2.24,0,0,1,1,1,3.46,3.46,0,0,1-1.18,4.24,1.06,1.06,0,0,0,.74,1.79,4.35,4.35,0,0,1,.51,0c.16,0,.31,0,.47,0l.25,0,.3.07a2.47,2.47,0,0,1,1.1.62A2.88,2.88,0,0,1,44.81,43a2.36,2.36,0,0,1-1.12,2.32c-.19.12-.39.24-.59.34l-.28.14h-.06a4.56,4.56,0,0,1-.52.18,1.06,1.06,0,0,0,0,2l.44.14h0l0,0,.24.13a1,1,0,0,1,.28.2.56.56,0,0,1,.27.64,1.12,1.12,0,0,1-.45.72,3.85,3.85,0,0,1-2.29.48c-.36,0-.72,0-1.08-.07H39.6l-.13,0a1,1,0,0,0-1,.27A3.63,3.63,0,0,1,37,51.79a.82.82,0,0,1-.82-.15l-.1-.07h0a1.34,1.34,0,0,1-.21-.2c-.07-.06-.13-.13-.19-.19l0,0a2.87,2.87,0,0,1-.28-.43l-.06-.07v-2a1.07,1.07,0,0,0-.52-.91l-.22-.14,0,0-.09-.08a7.83,7.83,0,0,0,3.41-4.12,4,4,0,0,0,.21-.58,1,1,0,0,0-.73-1.29,1.07,1.07,0,0,0-1.29.73,3.52,3.52,0,0,1-.15.42l-.06.15,0,.08c-.09.19-.18.38-.28.56s-.23.41-.35.6a3.62,3.62,0,0,1-.22.32.44.44,0,0,1-.08.11l0,0a6.32,6.32,0,0,1-.56.6l-.16.14-.08.06,0,0,0,0,0,0-.2.13a3.11,3.11,0,0,1-.4.22l0,0-.19.07-.4.1-.2-.2C32,45.14,31.52,44.58,31,44c-.9-1-2.38.48-1.49,1.49.54.61,1.1,1.21,1.66,1.79a16.71,16.71,0,0,0,2,1.92v1.68a5.45,5.45,0,0,1-2.49.51c-.12,0-.25,0-.38,0A5.32,5.32,0,0,0,28.24,45a3.59,3.59,0,0,0-.34-.17c1-1.93,1.3-4.16-.36-5.91a6.53,6.53,0,0,0-2.46-1.57,6.74,6.74,0,0,0-1.37-4.37c0-.07,0-.21,0-.24A12.25,12.25,0,0,1,24.1,31.12Zm2.09,20.94Zm.11-5.58ZM15.22,35.12ZM14.13,56.93h0C14.1,56.86,14.11,56.87,14.13,56.93Zm2.31.94-.6,0-.18,0-.23,0a4.77,4.77,0,0,1-.54-.15h0l0,0-.24-.14,0,0,0,0a1.7,1.7,0,0,1-.19-.19c.11.12-.11-.18-.16-.28s0-.1-.05-.15-.06-.28-.06-.23a4.67,4.67,0,0,1,0-.75,1.06,1.06,0,0,0-1-1H13l-.59-.14-.36-.12-.12,0-.09,0-.4-.22-.19-.12c-.2-.12-.06,0-.08-.06a2.31,2.31,0,0,1-.36-.34l-.1-.12-.12-.18c-.05-.08-.09-.16-.13-.24l0,0s0,0,0-.06a5.07,5.07,0,0,1-.13-.56s0-.2,0-.2v-.35a3.4,3.4,0,0,1,.09-.65,8.65,8.65,0,0,1,.73-2,1.06,1.06,0,0,0,0-1.06,6,6,0,0,1-1-2.43,4,4,0,0,1,0-2.06,3.81,3.81,0,0,1,1.73-2.06A1.07,1.07,0,0,0,12.05,40L12,39.94a.76.76,0,0,1-.08-.11,3.19,3.19,0,0,1-.4-.81,3.06,3.06,0,0,1,.78-2.9A2.86,2.86,0,0,1,14.61,35a3.05,3.05,0,0,1,.43.1l.19.06,0,0a2.43,2.43,0,0,1,.35.2A1.07,1.07,0,0,0,17.05,35a.71.71,0,0,1,.1-.14l.14-.18a7.28,7.28,0,0,1,1-1,2.38,2.38,0,0,1,2.81-.31,3.13,3.13,0,0,1,.63.51.81.81,0,0,0,.18.19,4.42,4.42,0,0,1,1,2.24,6,6,0,0,1,0,1.16c0,.06,0,.29,0,.33h0a1.07,1.07,0,0,0,.73,1.29,6.14,6.14,0,0,1,.86.27h0l.19.08a3.75,3.75,0,0,1,.44.24,4.43,4.43,0,0,1,.46.29l0,0,0,0,.19.17a3.89,3.89,0,0,1,.34.36.44.44,0,0,0,.08.1c0,.08.09.16.14.24l.07.15.09.25a1.17,1.17,0,0,1,.07.48,3.63,3.63,0,0,1-.24,1.3,8.52,8.52,0,0,1-1.06,1.85,1.06,1.06,0,0,0,.91,1.58h.06l.18,0a2.06,2.06,0,0,1,.88.37,2.48,2.48,0,0,1,.78.87,3.92,3.92,0,0,1,.41,2,2.3,2.3,0,0,1-.44,1.39l-.16.16a2.29,2.29,0,0,1-.23.21c.14-.11-.16.11-.19.13l-.26.14-.14.07h0l-.24.08-.49.13-.18,0h-.05a1.07,1.07,0,0,0-.75,1.79c-.33-.41.06.09.14.22a4.25,4.25,0,0,1,.27.46l.18.38a5.76,5.76,0,0,1,.18.59.36.36,0,0,1,0,.1v.32a.84.84,0,0,1,0,.1s0,.08,0,.13h0a1,1,0,0,1-.08.14l0,0a.54.54,0,0,1-.13.13c-.61.45-1.35.35-2,.63a1.23,1.23,0,0,0-.5.43c.29-.36.13-.16.07-.09l-.38.4a2.63,2.63,0,0,1-1.14.73.89.89,0,0,1-.6,0,1.43,1.43,0,0,1-.27-.15V55.25a1.05,1.05,0,0,0-.52-.91,3.92,3.92,0,0,1-.72-.53,8.29,8.29,0,0,0,3.17-4c.06-.15.12-.32.17-.48A1,1,0,0,0,22.46,48a1.07,1.07,0,0,0-1.29.73l-.12.35-.05.12,0-.08a.36.36,0,0,1,0,.09v0c0,.07-.07.17,0,0l-.23.46a7.91,7.91,0,0,1-.69,1.11l-.08.1c-.09.1-.17.2-.27.3a4.11,4.11,0,0,1-.57.53v0l-.18.12-.4.25-.12.06L17.6,51c-.74-1.12-2.56-.07-1.81,1.06A14.06,14.06,0,0,0,19,55.82v1.69A8.93,8.93,0,0,1,16.44,57.87ZM30.74,60l-.21,0a31.45,31.45,0,0,0-5.41.82,28.76,28.76,0,0,0-4,1.32V60.58a3.15,3.15,0,0,0,2-.23A5.56,5.56,0,0,0,24.86,59a4.65,4.65,0,0,0,2.69-1.21,2.92,2.92,0,0,0,.76-2.33,5.18,5.18,0,0,0-.49-1.67,5.13,5.13,0,0,0,.81-.41,15.4,15.4,0,0,0,2.35.09,9.46,9.46,0,0,0,2.22-.33V60Q32,59.93,30.74,60Z"/><path d="M21,49.24v0h0l0,.06Z"/><path d="M34.05,45.31l.08-.06-.09.07Z"/><path d="M67.1,30.07Z"/><path d="M48.66,23.79a7.48,7.48,0,1,0-7.88-3.46A7.56,7.56,0,0,0,48.66,23.79ZM42.59,13.64a5.39,5.39,0,1,1,.4,6.2A5.42,5.42,0,0,1,42.59,13.64Z"/></svg>
