
<svg id="Layer_1" data-name="Layer 1" xmlns="http://www.w3.org/2000/svg" viewBox="0 0 85.04 85.04"><path d="M6.83,50c.32-.41.66-.81,1-1.25a1.14,1.14,0,0,0,.16-.63c0-1.35,0-2.7,0-4a4.43,4.43,0,0,1,4.64-4.65h6.77c.43-1.74.87-3.46,1.3-5.18s.81-3.29,1.25-4.93A4.34,4.34,0,0,1,26.21,26H72.76a4.39,4.39,0,0,1,4.44,4.49q0,8.73,0,17.45A1.23,1.23,0,0,0,77.64,49c1,.89,1,4.45,0,5.31a3,3,0,0,1-1.75.66c-3,.07-6.1,0-9.15,0H66c-.07.19-.14.38-.2.57a5.51,5.51,0,0,1-10.54,0c-.15-.46-.32-.61-.81-.61q-15.76,0-31.55,0c-.32,0-.57,0-.71.42a5.56,5.56,0,0,1-5.4,4,5.63,5.63,0,0,1-5.3-4.19c0-.07,0-.14-.06-.26-1.63-.14-3.57.5-4.56-1.55Zm68.28-6.1V31c0-2.09-.82-2.92-2.91-2.92H26.82a6.06,6.06,0,0,0-1,.07,2.18,2.18,0,0,0-1.87,2.27c1,0,1.95,0,2.92,0a2.2,2.2,0,0,1,2.24,2.12,1,1,0,0,1-2,.51l-.23-.48c-1,0-2,0-3,0-.44,0-.59.15-.69.57-.35,1.54-.76,3.06-1.14,4.59-.13.52-.25,1.05-.37,1.6H27c0-.76,0-1.48,0-2.2A1.09,1.09,0,0,1,28,36.06a1.08,1.08,0,0,1,1.06,1.08c0,.62,0,1.25,0,1.88a2.28,2.28,0,0,1-2.59,2.56h-8c-2.07,0-4.14,0-6.21,0a2.14,2.14,0,0,0-2.2,2.29c3.12-.18,4.66,1.29,4.41,4.49h2.12A5.49,5.49,0,0,1,22,52.13c.2.63.49.74,1.08.74q15.52,0,31.06,0a1.14,1.14,0,0,0,.49,0,.87.87,0,0,0,.46-.37,5.61,5.61,0,0,1,5.8-4.1h8a4,4,0,0,1,.69,0,1.05,1.05,0,0,1,0,2.08,4.48,4.48,0,0,1-1,0H65l1,2.29H76.18V50.53c-.76,0-1.48,0-2.2,0a1,1,0,0,1-1.1-1.09,1,1,0,0,1,1.07-1c.36,0,.73,0,1.11,0V46.05h-.94q-24.4,0-48.8,0a3.86,3.86,0,0,1-.9-.07,1,1,0,0,1-.81-1,1,1,0,0,1,.79-1,4.43,4.43,0,0,1,1-.08H75.11ZM60.53,50.53a3.4,3.4,0,0,0-.09,6.8,3.4,3.4,0,1,0,.09-6.8Zm-43.69,0a3.42,3.42,0,0,0-3.44,3.38,3.47,3.47,0,0,0,3.42,3.43,3.43,3.43,0,0,0,3.42-3.4A3.39,3.39,0,0,0,16.84,50.53Zm-5.53,2.29,1-2.24H9v2.24Zm1-4.48c.21-2-.31-2.51-2.28-2.21v2.21Z"/><path d="M37.56,30.46c1.24,0,2.47,0,3.7,0a2.23,2.23,0,0,1,2.39,2.34q0,3.21,0,6.41a2.23,2.23,0,0,1-2.37,2.36q-3.73,0-7.46,0a2.25,2.25,0,0,1-2.4-2.41V32.89a2.26,2.26,0,0,1,2.45-2.43C35.1,30.45,36.33,30.46,37.56,30.46Zm3.89,8.92V32.66H33.63v6.72Z"/><path d="M52.11,30.46c1.24,0,2.47,0,3.7,0a2.24,2.24,0,0,1,2.39,2.41c0,2.11,0,4.23,0,6.34a2.22,2.22,0,0,1-2.3,2.36c-2.53,0-5.06,0-7.6,0A2.22,2.22,0,0,1,46,39.23q0-3.19,0-6.41a2.25,2.25,0,0,1,2.44-2.36C49.65,30.45,50.88,30.46,52.11,30.46ZM56,32.65H48.18v6.71H56Z"/><path d="M66.67,30.46c1.23,0,2.46,0,3.69,0a2.21,2.21,0,0,1,2.37,2.41c0,2.11,0,4.23,0,6.34a2.19,2.19,0,0,1-2.28,2.36c-2.53,0-5.06,0-7.59,0a2.18,2.18,0,0,1-2.3-2.34q0-3.24,0-6.48a2.19,2.19,0,0,1,2.34-2.29C64.16,30.45,65.41,30.46,66.67,30.46Zm3.93,8.92V32.65H62.72v6.73Z"/><path d="M38.68,50.53H24.78a1.13,1.13,0,0,1-1.18-1c0-.61.45-1.06,1.18-1.11a5.23,5.23,0,0,1,.56,0H52a4.84,4.84,0,0,1,.76,0,1,1,0,0,1,.94,1,1,1,0,0,1-.94,1,3.16,3.16,0,0,1-.69,0Z"/><path d="M61.55,53.91a1.13,1.13,0,0,1-1,1.09,1.07,1.07,0,0,1-1.06-1,1,1,0,0,1,1-1.07A1.07,1.07,0,0,1,61.55,53.91Z"/><path d="M17.87,53.91a1.07,1.07,0,0,1-1,1.09,1.1,1.1,0,0,1-1.07-1.06,1.07,1.07,0,0,1,1-1.07A1,1,0,0,1,17.87,53.91Z"/></svg>
