
<svg id="Layer_1" data-name="Layer 1" xmlns="http://www.w3.org/2000/svg" viewBox="0 0 85.04 85.04"><path d="M78,46.54A14.77,14.77,0,0,0,62,36.28a1.28,1.28,0,0,0-1.2,1.29,1.25,1.25,0,0,0,1.38,1.09h0c.29,0,.57,0,.86,0a13.16,13.16,0,0,1,2.35,0A12.32,12.32,0,1,1,54.3,43.18a14.77,14.77,0,0,1,1.4-1.47c.19-.18.39-.37.58-.57l0,.23c.06.29.09.5.14.72s.07.4.1.6a7.47,7.47,0,0,0,1.58,4c1.52,1.64,3.1,3.21,5,5.06a1.16,1.16,0,0,0,1.23.25,1.06,1.06,0,0,0,.7-.91,1.8,1.8,0,0,0-.51-1.24c-1.32-1.39-2.71-2.76-4-4a4.93,4.93,0,0,1-1.45-2.74c-.86-4.62-1.71-9.24-2.58-13.86v-.06c-.26-1.41-.26-1.41.93-2.17a1.63,1.63,0,0,0,.82-1.63,4.31,4.31,0,0,0-4.11-3.85c-1,0-2,0-2.93,0h-.87a1.61,1.61,0,0,0-1.17.4,1.11,1.11,0,0,0-.31.81c0,.74.55,1.17,1.5,1.17.63,0,1.25,0,1.88,0h1.5a2.08,2.08,0,0,1,1.72.71c.2.24.28.42.25.56s-.15.24-.37.35a4.38,4.38,0,0,0-.58.37l-.37.25a1.27,1.27,0,0,0-.63,1.44c.08.38.14.77.21,1.16l.15.84c.2,1.08.41,2.16.61,3.23l.26,1.4-.06,0-.16.09A13.87,13.87,0,0,0,47.87,40c-.94,1.52-1.8,3.11-2.63,4.66-.43.79-.87,1.6-1.31,2.39s-.74,1.26-1.07,1.82c-.13.2-.25.4-.36.59l-.8-.22c-.74-.21-1.45-.41-2.13-.63a.75.75,0,0,1-.45-.4c-.2-.86-.37-1.73-.53-2.58l-.15-.81.74-.41c.59-.33,1.15-.64,1.7-1a24,24,0,0,0,4.88-4.48,22.28,22.28,0,0,1,5.94-5,1.32,1.32,0,0,0,.7-.8,1.13,1.13,0,0,0-.15-.9,1.23,1.23,0,0,0-1.77-.36,22.09,22.09,0,0,0-5.6,4.51c-1.31,1.39-2.65,2.83-4.08,4.13a13.43,13.43,0,0,1-2,1.4l-.87.56-1.82-9.11.44-.06,1-.13a3,3,0,0,0,2.7-3.06,3,3,0,0,0-2.86-2.91c-1.87-.06-3.7-.06-5.42,0A3.3,3.3,0,0,0,30,33a3.41,3.41,0,0,0,2.51.77l.88-.07.33,0,.16.82c.21,1.07.41,2.09.59,3.12a.54.54,0,0,1-.08.42c-.75.66-1.5,1.29-2.29,2l-.63.53,0,0c-.08-.08-.16-.14-.23-.2a14.74,14.74,0,0,0-24.5,7.16l-.27,1.17-.14.59V52.6l.09.38.18.76c1.39,6.09,5,9.93,10.86,11.4a16.25,16.25,0,0,0,4,.53c4.17,0,7.86-1.84,11-5.49a16.3,16.3,0,0,0,1.37-2c.17-.26.33-.52.51-.77,1.25,1.45,1.32,1.5,3.51,2.44V61a1.19,1.19,0,0,0-1.06,1.3,1.13,1.13,0,0,0,1.15,1.09c1.1,0,2.26,0,3.45,0a1.23,1.23,0,0,0,1.17-1.16A1.21,1.21,0,0,0,41.38,61c-.26,0-.52,0-.77,0h-.22c-.18-1.08-.14-1.09.31-1.25a6,6,0,0,0,3.65-3.19,6,6,0,0,0-.16-4.88.66.66,0,0,1,0-.5l.34-.62c1.06-1.91,2.16-3.88,3.28-5.79l.17-.3a48.92,48.92,0,0,1,2.79-4.37,10.47,10.47,0,0,1,4.64-3.46c0,.11,0,.22.07.33.06.32.12.63.2.94A.87.87,0,0,1,55.28,39a14.18,14.18,0,0,0-6,13.72,14.36,14.36,0,0,0,5.74,10A15,15,0,0,0,66.6,65.37,14.74,14.74,0,0,0,78,46.54Zm-46.68-16a.83.83,0,0,1,.2-.68.88.88,0,0,1,.67-.29q.51,0,1,0h2.25c.55,0,1.1,0,1.64,0s.75.16.78.55-.18.62-.73.69l-4,.5-.48.06a3,3,0,0,1-.41,0A.85.85,0,0,1,31.31,30.53ZM22.1,50.87a1,1,0,0,1-.29.75,1,1,0,0,1-.76.31h0a1,1,0,0,1-1-1,1,1,0,0,1,1-1h0A1,1,0,0,1,22.1,50.87Zm6.55-8c-1.85,1.57-3.76,3.19-5.65,4.76a.67.67,0,0,1-.54.08A3.46,3.46,0,0,0,19.53,54a.88.88,0,0,1,.31.54,1.72,1.72,0,0,1,0,.51c0,.13,0,.25,0,.38a1.22,1.22,0,0,0,1.19,1.18h0a1.2,1.2,0,0,0,1.15-1.16v0a.88.88,0,0,0,0-.28c-.11-.76.11-1.17.74-1.39a1.22,1.22,0,0,0,.59-.51c.3-.52.66-.55,1.28-.43,1.83.37,3.69.71,5.5,1l2.29.42a1.21,1.21,0,0,1,.2.07l.05,0a12.33,12.33,0,1,1-17-14.65,12.24,12.24,0,0,1,5.21-1.14,11.72,11.72,0,0,1,8.57,3.51Zm-3.89,6.41c1.51-1.25,3-2.53,4.49-3.78l1.69-1.43.24-.19.09-.06.27.54,1.07,2.18c0,.09.07.19.11.3a2.67,2.67,0,0,0,.14.36,1.19,1.19,0,0,0,1.52.59,1.26,1.26,0,0,0,.68-.66,1.06,1.06,0,0,0,0-.82c-.42-1-.88-1.9-1.33-2.82l-.32-.66a2.72,2.72,0,0,0-.27-.42l-.08-.12,2.09-1.76L36.83,49a6.22,6.22,0,0,0-2.92,2.83.78.78,0,0,1-.57.12c-2.38-.43-4.81-.89-7.15-1.34l-1.68-.32C24.26,49.93,24.33,49.67,24.76,49.31Zm15.56,5.2a1.27,1.27,0,0,0-.82-1.34,1.35,1.35,0,0,0-.43-.08,1.1,1.1,0,0,0-.63.2,1.42,1.42,0,0,0-.55,1.14c0,.69,0,1.41,0,2.09,0,.26,0,.51,0,.77a3.15,3.15,0,0,1-2-3.47A3.27,3.27,0,0,1,39,51H39a3.28,3.28,0,0,1,3.33,2.74,3.17,3.17,0,0,1-2,3.56V54.51Z"/></svg>
