
<svg id="Layer_1" data-name="Layer 1" xmlns="http://www.w3.org/2000/svg" viewBox="0 0 85.04 85.04"><defs><style>.cls-1{stroke:#1d1d1b;stroke-miterlimit:10;stroke-width:0.5px;}</style></defs><path class="cls-1" d="M75.21,59.18c0,.65.18,1.19.9,1.34s1.3-.37,1.31-1.28c0-2.19,0-4.38,0-6.57v-.6l2.18-.86v-.86c-1.45-2.88-2.92-5.76-4.35-8.65a1.45,1.45,0,0,0-1.51-.94c-1,.05-2,0-3,0V26.29c.07,0,.11-.07.15-.07l2.64,0c1.51,0,1.94-.71,1.27-2.05-1.32-2.65-2.67-5.29-4-8a1.7,1.7,0,0,0-1.73-1.08c-4.81,0-9.61,0-14.42,0a3.35,3.35,0,0,0-.71.07,1,1,0,0,0-.83,1A1,1,0,0,0,54,17.27a3.38,3.38,0,0,0,.78.06c4.52,0,9,0,13.56,0a.88.88,0,0,1,.93.56c.89,1.84,1.82,3.66,2.73,5.49.08.18.15.37.24.6l-.49,0Q58.38,24,45,24a1.49,1.49,0,0,1-.91-.41c-1.94-1.9-3.85-3.83-5.76-5.75a5.62,5.62,0,0,1-.42-.5h.9c3.52,0,7,0,10.56,0,.82,0,1.3-.44,1.29-1.12s-.46-1-1.24-1.09h-.58c-4.14,0-8.28,0-12.42,0A1.75,1.75,0,0,1,35,14.52c-.9-.95-1.81-1.89-2.78-2.76a4.5,4.5,0,0,0-1.64-.94,3.24,3.24,0,0,0-3.29,1L12,27a4.68,4.68,0,0,0-.73.87,3.29,3.29,0,0,0,0,3.7,3,3,0,0,0,3.21,1.37c.26,0,.52-.12.78-.18v9.07l-.36-.2a5.26,5.26,0,0,0-5.68-.08,5.22,5.22,0,0,0-2.77,4.88c0,4.38,0,7.76,0,12.14a5.43,5.43,0,0,0,3.88,5.3c.48.15.56.36.56.8,0,3.33,0,4.66,0,8,0,.18,0,.37-.05.59-1.12,0-2.19,0-3.25,0a1.08,1.08,0,0,0-1.13,1.13A1.1,1.1,0,0,0,7.6,75.44c.11,0,.23,0,.35,0H78.13a1.64,1.64,0,0,0,1.47-.68v-.86c-.49-.82-1.34-.66-2.18-.71v-.8c0-3.57,0-5.14,0-8.71a3.33,3.33,0,0,0-.08-.84c-.15-.53-.55-.88-1-.75a2.05,2.05,0,0,0-1,.76c-.15.19-.1.55-.1.83v9.48h-31V51.82h31v7.36ZM68.55,26.25v2.16c-.26,0-.53,0-.81,0H52.54c-1.46,0-1.72.26-1.72,1.7v6.78c0,1.25.32,1.56,1.56,1.56H68.57v2.23H44.2v-8c1.89.31,3.17-.17,4-1.54,1.17-2,.18-3.52-1.46-4.91Zm0,4.42v5.61H53.06V30.67ZM15.29,73.19H13.1c0-.24,0-.45,0-.65,0-3.29,0-4.57,0-7.85,0-.46.07-.72.59-.85a10.69,10.69,0,0,0,1.65-.73Zm.05-14.75a3.36,3.36,0,1,1-6.71.05c0-4.35,0-7.7,0-12.06a3.36,3.36,0,1,1,6.71.09V58.44ZM41.93,72.37v.81H37.47V55.56c0-1.16-.33-1.49-1.48-1.49H32.28c-.83,0-1.28.41-1.27,1.1s.42,1,1.24,1h3v17H24.22v-17h2.31c.31,0,.62,0,.93,0a1,1,0,0,0,1-1,1,1,0,0,0-.94-1.13c-1.52,0-3.05,0-4.57,0A1,1,0,0,0,22,55a8,8,0,0,0,0,.85V73.18H17.5v-.76c0-15,0-25.89,0-40.84a1.54,1.54,0,0,1,.34-1q5.8-5.8,11.66-11.57c.08-.08.17-.15.29-.25l.53.5q5.52,5.52,11.06,11.05A1.68,1.68,0,0,1,42,31.6C41.93,46.52,41.93,57.44,41.93,72.37ZM44.14,30Q37.51,23.35,30.9,16.75a8.9,8.9,0,0,0-1.11-.83,11.43,11.43,0,0,0-1,.78q-6.68,6.59-13.35,13.2c-.13.13-.26.27-.4.4a1.17,1.17,0,0,1-1.72,0,1.06,1.06,0,0,1,.14-1.63l10.51-10.4,4.81-4.77c.8-.78,1.34-.78,2.13,0l15,15.05c.23.23.53.54.53.81a1.74,1.74,0,0,1-.4,1.23c-.24.21-.83.11-1.22,0S44.35,30.18,44.14,30ZM44.2,49.6V43l.71,0q13.92,0,27.84,0a.92.92,0,0,1,1,.58c1,2,2,4,3,6.11Z"/><path class="cls-1" d="M69.3,54.07H47.89c-1,0-1.41.38-1.41,1.35V67.2c0,.94.39,1.35,1.35,1.35q10.77,0,21.55,0c1,0,1.36-.38,1.36-1.4V55.52C70.74,54.42,70.4,54.07,69.3,54.07ZM57.46,66.3H48.71v-10h8.75Zm11.09,0H59.77v-10h8.78Z"/><path class="cls-1" d="M36.11,36.34q-6.39,0-12.78,0c-1,0-1.33.35-1.33,1.33q0,6.39,0,12.78c0,1,.35,1.33,1.4,1.34H36.1c1,0,1.37-.34,1.37-1.36V37.72C37.47,36.7,37.12,36.34,36.11,36.34ZM28.69,49.59H24.24V45.21h4.45Zm0-6.69H24.23V38.55h4.48Zm2.23-4.37h4.34v4.39H30.94Zm4.35,11.06H30.94V45.22h4.35Z"/><path class="cls-1" d="M29.79,34.06c3,0,5.51-1.44,5.53-4.38a5.36,5.36,0,0,0-5.45-5.61,5.35,5.35,0,0,0-5.56,5.5C24.29,32.57,26.77,34.05,29.79,34.06Zm0-7.85a3.34,3.34,0,0,1,3.35,3.28,3.35,3.35,0,1,1-3.35-3.28Z"/><path class="cls-1" d="M28.66,65.15a1,1,0,0,0-1-1,1,1,0,0,0-1.11,1,12.74,12.74,0,0,0,0,2.14,1.07,1.07,0,0,0,2.13,0c0-.35,0-.71.05-1.07h0A9.55,9.55,0,0,0,28.66,65.15Z"/></svg>
