<svg id="Layer_1" data-name="Layer 1" xmlns="http://www.w3.org/2000/svg" viewBox="0 0 85.04 85.04"><path d="M8,28.34a16.13,16.13,0,0,1,1.44-1.93C12.6,23.2,15.8,20,19,16.85c1.53-1.53,3.05-1.53,4.6,0,1.05,1.06,2.1,2.13,3.18,3.16a1.21,1.21,0,0,0,.79.3,2.51,2.51,0,0,1,2.09.77c.74.76,1.5,1.5,2.25,2.26a2.28,2.28,0,0,1,0,3.57l-.24.29c1,1,1.83,2.24,3.4,2.29a16.28,16.28,0,0,0,2.69-.23,7.62,7.62,0,0,1,5.61,1.52l.35.24,2.13-1.94,2.07-1.89A11,11,0,0,1,47,25a7.47,7.47,0,0,1,0-2.54c.34-2-.21-3.41-2-4.26a18.54,18.54,0,0,0-3.6-1.11c-.73-.18-1.36-.37-1.58-1.16a1.58,1.58,0,0,1,.78-1.73A9.75,9.75,0,0,1,52,13.11a19.06,19.06,0,0,1,4,2.95c2.62,2.46,5.12,5.06,7.66,7.61,1.28,1.28,1.43,2.13.57,3.94.28.23.63.48.94.77s.55.59.8.86c1.9-.82,2.58-.68,4,.74.45.44.91.88,1.34,1.34a2.52,2.52,0,0,1,0,3.65c-2,2-3.93,4-5.91,5.91a2.51,2.51,0,0,1-3.7,0c-.52-.5-1-1-1.53-1.53C59,38.06,58.85,37,59.84,35.52L58,33.74a2.55,2.55,0,0,1-2.91.37.52.52,0,0,0-.44.14c-2.14,2.19-4.26,4.39-6.56,6.77a22.36,22.36,0,0,1,1.69,1.48,3.5,3.5,0,0,1-1.69,5.85,9,9,0,0,1-2,0,3.61,3.61,0,0,1-4.37,2.46c-1,2.32-2.42,3.09-4.76,2.53l-.22.46a3.22,3.22,0,0,1-2.35,2,2.48,2.48,0,0,0-1.45.87c-.83.89-1.68,1.78-2.55,2.64a4.58,4.58,0,0,1-6.38.24c-.76-.67-1.51-1.37-2.21-2.11A4.53,4.53,0,0,1,22,51c1-1,2.06-1.91,3.06-2.83-.79-1.78-1.53-3.55-2.37-5.26a7.5,7.5,0,0,0-1.33-1.61c-.58-.63-1.19-1.24-1.82-1.89l-.49.43a2.28,2.28,0,0,1-3.29,0c-.85-.82-1.67-1.66-2.5-2.5a2.47,2.47,0,0,1-.69-2,1.29,1.29,0,0,0-.32-.87c-.88-.94-1.84-1.8-2.71-2.75-.57-.62-1-1.34-1.55-2ZM21,38c.42.41.82.84,1.27,1.22a11.31,11.31,0,0,1,3.27,4.89,15.45,15.45,0,0,0,3.19,5.32c1.18,1.28,2.42,2.5,3.63,3.76a1.51,1.51,0,0,0,1.74.56,1.45,1.45,0,0,0,.95-1.55,1.32,1.32,0,0,1,1.29-1.39,3,3,0,0,1,1.17.44,1.45,1.45,0,0,0,1.6,0,1.35,1.35,0,0,0,.62-1.52,1.2,1.2,0,0,1,.5-1.48,1.12,1.12,0,0,1,1.48.19,1.43,1.43,0,0,0,1.7.25,1.37,1.37,0,0,0,.74-1.54,1.79,1.79,0,0,1,0-.4,1.26,1.26,0,0,1,1.87-1c.19.11.35.28.54.4a1.35,1.35,0,0,0,1.74-.2,1.36,1.36,0,0,0,.24-1.79,4.5,4.5,0,0,0-.58-.66c-2.16-2.16-4.32-4.31-6.47-6.49a2.65,2.65,0,0,1,.06-4c.19-.19.39-.37.65-.61-.37-.22-.67-.41-1-.58-1.54-.83-3.17-.6-4.78-.36A5.42,5.42,0,0,1,31.53,30c-.43-.43-.8-.91-1.17-1.33Zm4.58-16.23-3.49-3.46c-.69-.69-1-.69-1.67,0l-9.75,9.75a4.37,4.37,0,0,0-.42.44.66.66,0,0,0,0,1C11.5,30.74,12.76,32,14,33.24l6.49-6.5a4.34,4.34,0,0,1,.49-.47,1,1,0,0,1,1.35.12.93.93,0,0,1,.09,1.29,3.64,3.64,0,0,1-.46.5q-3.49,3.51-7,7c-.36.36-.39.58,0,.93A25.38,25.38,0,0,1,16.85,38c.42.46.67.46,1.13,0,4.07-4.12,8.18-8.21,12.27-12.3.16-.16.3-.33.53-.58l-2.83-3c-.82.85-1.47,1.55-2.14,2.22a1,1,0,0,1-1.56.06,1,1,0,0,1,.1-1.51C24.73,22.53,25.14,22.18,25.58,21.77Zm17.33-6.66c1,.39,2,.68,2.85,1.11a5.58,5.58,0,0,1,3.29,6.68A3.36,3.36,0,0,0,50,26.14Q52.87,29,55.77,32a.66.66,0,0,0,1.12,0q2.74-2.79,5.52-5.52c.46-.45.39-.77,0-1.19-2.52-2.5-5-5-7.55-7.53a14,14,0,0,0-4.46-3.14A7.87,7.87,0,0,0,42.91,15.11Zm6.5,13.55L43,34.58a.64.64,0,0,0,0,1c1.26,1.27,2.53,2.52,3.84,3.82l6.56-6.79ZM26.25,49.86c-.94.86-1.91,1.71-2.82,2.61a2.46,2.46,0,0,0,0,3.54c.7.71,1.42,1.4,2.18,2a2.39,2.39,0,0,0,3.12.05c1-.87,1.93-1.83,2.88-2.74ZM70.1,33.19a1.19,1.19,0,0,0-.15-.32c-.65-.66-1.29-1.33-2-1.95a.77.77,0,0,0-.68.13c-1.93,1.9-3.84,3.83-5.77,5.74a.56.56,0,0,0,0,.92c.54.52,1.07,1,1.59,1.58.36.39.65.37,1,0,1.87-1.89,3.77-3.78,5.65-5.67A3.7,3.7,0,0,0,70.1,33.19Zm-7.17-4.13L59.81,32.2l1.57,1.67,3.14-3.15Z"/><path d="M8,68.51a1.26,1.26,0,0,0,.13-.23,3.9,3.9,0,0,1,3.95-2.88H66.25v-9h-1.4a3,3,0,0,1-.16-6c1.79,0,3.58,0,5.36,0a3,3,0,0,1-.14,5.94H68.46v9c1.74,0,3.46,0,5.17,0a3.92,3.92,0,0,1,.13,7.84c-4.37.05-8.74,0-13.1,0a1,1,0,0,1-1.18-1c0-.66.42-1,1.23-1H72.94a6.77,6.77,0,0,0,1-.06A1.82,1.82,0,0,0,74,67.54a5,5,0,0,0-.94-.08H12.44c-1.34,0-2,.4-2.3,1.35a1.79,1.79,0,0,0,1.4,2.3,7.4,7.4,0,0,0,1.15.07H55a7.42,7.42,0,0,1,.82,0,.94.94,0,0,1,.93,1,1,1,0,0,1-.85,1.06,3.73,3.73,0,0,1-.82,0c-14,0-28.11,0-42.17,0-2.42,0-4.11-.78-4.91-3.14Zm59.4-16H65c-.69,0-1,.33-1,.9s.37.9,1,.91c1.6,0,3.21,0,4.81,0,.68,0,1-.35,1-.91s-.34-.88-1-.9Z"/></svg>