<svg id="Layer_1" data-name="Layer 1" xmlns="http://www.w3.org/2000/svg" viewBox="0 0 85.04 85.04"><path d="M42.25,71h-.2a33,33,0,0,1-5.15-.47A27.38,27.38,0,0,1,20,60.13,27.38,27.38,0,0,1,14.59,37.6a27.2,27.2,0,0,1,8.52-15.33,27.52,27.52,0,0,1,14.11-7c.69-.12,1.38-.21,2.08-.3l1.05-.14,4.2.07.14,0,1,.11a20.11,20.11,0,0,1,2,.26A28.85,28.85,0,0,1,62.83,22.9a23.64,23.64,0,0,1,7,12.6c.11.59.2,1.18.29,1.78l.14.93-.06,3.34a2.84,2.84,0,0,0-.06.31,15.08,15.08,0,0,1-1.88,5.73,15.83,15.83,0,0,1-14.16,8.26c-.94,0-1.88,0-2.82,0H49a3.66,3.66,0,0,0-3.66,4.23,4.49,4.49,0,0,0,1,2.13A5.13,5.13,0,0,1,47,67.83,5,5,0,0,1,42.25,71ZM40.41,16.51l-.89.12c-.67.09-1.34.18-2,.3a25.77,25.77,0,0,0-13.25,6.59,25.49,25.49,0,0,0-8,14.38,25.76,25.76,0,0,0,5.1,21.19A25.61,25.61,0,0,0,37.23,68.8a31.4,31.4,0,0,0,4.87.45,3.31,3.31,0,0,0,3.4-2.13A3.46,3.46,0,0,0,45,63.27a6.11,6.11,0,0,1-1.4-3A5.36,5.36,0,0,1,49,54.16h2.32c.92,0,1.85,0,2.78,0a14.25,14.25,0,0,0,12.73-7.42,13.22,13.22,0,0,0,1.65-5.09c0-.16.06-.31.09-.46l0-.08V38.28l-.12-.75c-.08-.57-.17-1.14-.28-1.71a22,22,0,0,0-6.49-11.7A27.15,27.15,0,0,0,47.37,17c-.6-.11-1.22-.18-1.87-.24l-1-.11-.4-.09H40.41Zm-15,27.21a5.19,5.19,0,0,1-3.66-1.51,5.45,5.45,0,0,1-1.64-3.83A5.24,5.24,0,0,1,21.7,34.6,5.31,5.31,0,0,1,25.51,33h0a5.38,5.38,0,0,1,5.37,5.37v0a5.32,5.32,0,0,1-5.37,5.34Zm.07-9h0a3.64,3.64,0,0,0-2.6,1.1,3.59,3.59,0,0,0-1.06,2.58A3.7,3.7,0,0,0,23,41a3.56,3.56,0,0,0,2.51,1,3.67,3.67,0,1,0,0-7.33Zm33.21,9a5.23,5.23,0,0,1-3.68-1.52,5.48,5.48,0,0,1-1.62-3.83A5.39,5.39,0,0,1,58.8,33h0a5.47,5.47,0,0,1,3.86,1.63,5.21,5.21,0,0,1,1.51,3.76,5.3,5.3,0,0,1-5.38,5.34Zm.07-9a3.69,3.69,0,0,0-3.67,3.68A3.76,3.76,0,0,0,56.24,41a3.54,3.54,0,0,0,2.53,1,3.61,3.61,0,0,0,3.7-3.68,3.55,3.55,0,0,0-1-2.53,3.76,3.76,0,0,0-2.65-1.12ZM34.61,31.62h-.07a5.36,5.36,0,0,1-3.69-9.2,5.2,5.2,0,0,1,3.78-1.54,5.37,5.37,0,0,1,3.7,9.22A5.28,5.28,0,0,1,34.61,31.62Zm0-9a3.59,3.59,0,0,0-2.52,1.05,3.66,3.66,0,0,0,2.51,6.29h0a3.62,3.62,0,0,0,2.53-1,3.66,3.66,0,0,0,1.11-2.61h0a3.67,3.67,0,0,0-3.64-3.7Zm15.15,9a5.36,5.36,0,0,1-5.35-5.36h0A5.35,5.35,0,0,1,46,22.45a5.26,5.26,0,0,1,3.77-1.57h0a5.33,5.33,0,0,1,3.81,1.61,5.26,5.26,0,0,1,1.55,3.79,5.4,5.4,0,0,1-5.34,5.34Zm0-9a3.63,3.63,0,0,0-2.57,1.07,3.67,3.67,0,0,0-1.08,2.61h0a3.62,3.62,0,0,0,1.09,2.6,3.66,3.66,0,0,0,6.23-2.6,3.53,3.53,0,0,0-1.06-2.57,3.61,3.61,0,0,0-2.6-1.11Z"/></svg>