<svg id="Layer_1" data-name="Layer 1" xmlns="http://www.w3.org/2000/svg" viewBox="0 0 85.04 85.04"><path d="M42.92,37c.23-.21.36-.32.48-.44l4.46-4.46a2.25,2.25,0,0,1,.43-.38.83.83,0,0,1,1.1.14.82.82,0,0,1,.1,1.06,2.16,2.16,0,0,1-.37.43l-4.46,4.46-.46.49H65.45c.66,0,1,.33,1,1,0,2.19,0,4.38,0,6.57a.88.88,0,0,1-1,1H44.22c.19.21.29.33.41.45l4.45,4.46a2.58,2.58,0,0,1,.36.38.88.88,0,0,1-.06,1.15.86.86,0,0,1-1.18.07,4.35,4.35,0,0,1-.38-.36l-4.43-4.43-.47-.43V65.61a3,3,0,0,1-.06.73A.77.77,0,0,1,42,67a.79.79,0,0,1-.83-.65,3.49,3.49,0,0,1,0-.73q0-8.35,0-16.71v-.77l-.48.45L36.23,53a3.88,3.88,0,0,1-.42.39.88.88,0,0,1-1.15-.12.85.85,0,0,1-.07-1.11,2.14,2.14,0,0,1,.36-.38l4.45-4.46.45-.48H18.6c-.65,0-1-.33-1-1q0-3.29,0-6.57a.87.87,0,0,1,.94-1H39.86l-.46-.49c-1.49-1.48-3-3-4.46-4.46a2.5,2.5,0,0,1-.35-.38.84.84,0,0,1,.08-1.11.86.86,0,0,1,1.14-.11,3.16,3.16,0,0,1,.43.39l4.42,4.42.47.44V36.3q0-8.38,0-16.77a3,3,0,0,1,0-.73.87.87,0,0,1,1.68,0,3.49,3.49,0,0,1,.05.73V37Zm21.73,3.13H19.41V45H64.65Z"/></svg>