<svg id="Layer_1" data-name="Layer 1" xmlns="http://www.w3.org/2000/svg" viewBox="0 0 85.04 85.04"><path d="M64.93,53.17a3.93,3.93,0,0,1-1.23,2,3.19,3.19,0,0,1-4,0,4.73,4.73,0,0,0-3.46-1.15c-1.32,0-2.63.13-4,.21-.07.73-.17,1.39-.19,2.05,0,1-.06,2.09,0,3.13a3.46,3.46,0,0,0,1,2.18,3.27,3.27,0,0,1-4.45,4.75,4.77,4.77,0,0,0-3.45-1.15c-1.84.08-3.68.29-5.52.36s-3.57.07-5.36,0-3.73-.28-5.6-.38a4.07,4.07,0,0,0-2.92,1,3.27,3.27,0,0,1-4.62-4.62,4.18,4.18,0,0,0,1-2.76A22.66,22.66,0,0,0,22,55.78a43.55,43.55,0,0,1-.16-9.48c.18-1.46.23-2.93.29-4.39a4.23,4.23,0,0,0-1-3,3.25,3.25,0,0,1,1.82-5.35,2.64,2.64,0,0,1,2.48.5c1.42,1.33,3.12,1.33,4.86,1.24.91,0,1.82-.15,2.76-.24.09-2,.58-3.85.09-5.75a4.31,4.31,0,0,0-.86-1.53,3.31,3.31,0,0,1,1.16-5.17c.24-.12.51-.19.76-.29h1.22a7.84,7.84,0,0,1,2.07,1.22,5.43,5.43,0,0,0,1.41.54.87.87,0,0,1,.55,1.31.9.9,0,0,1-1,.39,5.23,5.23,0,0,1-2.62-1.29,1.4,1.4,0,0,0-1.24-.39,1.51,1.51,0,0,0-.92,2.53,4.74,4.74,0,0,1,1.3,2.6A24,24,0,0,1,35,32.44c0,.81-.13,1.62-.21,2.48.23,0,.46,0,.68,0,1.85,0,3.69.08,5.53.16,1.49.07,3,.22,4.48.28a4.09,4.09,0,0,0,2.88-1,3.26,3.26,0,0,1,5.37,1.77,2.66,2.66,0,0,1-.47,2.48,5.54,5.54,0,0,0-1.28,4.46c.13,2.14.33,4.26.5,6.35h1.82A.78.78,0,0,1,55,50a.76.76,0,0,1-.24.9,1.47,1.47,0,0,1-.68.25,11.36,11.36,0,0,1-1.3.09c-.3,0-.41.13-.41.42s0,.51-.06.84c.69,0,1.34-.12,2-.16a12.59,12.59,0,0,1,4.41.28,4.94,4.94,0,0,1,1.83,1.06,1.47,1.47,0,0,0,1.49.38,1.49,1.49,0,0,0,.77-2.4,6.18,6.18,0,0,1-1.49-4.85c.12-2.11.33-4.23.45-6.34A43.82,43.82,0,0,0,61.48,34a16.49,16.49,0,0,1,0-4.86,5.07,5.07,0,0,1,1.22-2.42,1.52,1.52,0,0,0-2.15-2.16A5.84,5.84,0,0,1,56.06,26c-1.68-.08-3.36-.3-5-.36-1.91-.06-3.83,0-5.75,0a1.66,1.66,0,0,1-.63-.09.79.79,0,0,1-.47-.93.9.9,0,0,1,.86-.73,36.49,36.49,0,0,1,7,0c1.55.15,3.1.23,4.65.29a4,4,0,0,0,2.77-1,8.7,8.7,0,0,1,1.63-.86h1.14a11.91,11.91,0,0,1,1.39.68,3.45,3.45,0,0,1,1.31,2V26.2a5.57,5.57,0,0,1-.69,1.43A4.52,4.52,0,0,0,63.11,31c.08,1.82.2,3.65.37,5.47a36.46,36.46,0,0,1-.07,6.44c-.14,1.6-.24,3.21-.3,4.82a3.22,3.22,0,0,0,.54,2.07A7.29,7.29,0,0,1,64.93,52ZM52.08,36.82l-.06,0,0-.25a1.52,1.52,0,0,0-2.58-.81A5,5,0,0,1,46,37.09c-1.86,0-3.71-.22-5.57-.28s-3.66-.14-5.49-.09-3.73.32-5.61.4a6.45,6.45,0,0,1-4.94-1.52,1.52,1.52,0,0,0-1.17-.26,1.49,1.49,0,0,0-.81,2.52,4.92,4.92,0,0,1,1.37,3.31c0,1.59-.13,3.19-.2,4.78s-.26,3.14-.21,4.7c.07,2.35.33,4.7.44,7.05a6.62,6.62,0,0,1-1.5,5.16A1.52,1.52,0,0,0,22,64a1.49,1.49,0,0,0,2.53.88,5.07,5.07,0,0,1,3.6-1.39c1.82,0,3.62.22,5.44.28s3.66.13,5.49.08,3.64-.32,5.47-.39a6.51,6.51,0,0,1,5,1.5,1.48,1.48,0,0,0,2.38-.76,1.58,1.58,0,0,0-.46-1.63,4.64,4.64,0,0,1-1.27-3.29c0-1.86.21-3.71.28-5.57s.13-3.69.08-5.53-.31-3.62-.39-5.43a6.4,6.4,0,0,1,1.51-5A2.54,2.54,0,0,0,52.08,36.82Z"/><path d="M41.31,25.94a.88.88,0,0,1-.89-.86.9.9,0,0,1,1.79,0A.88.88,0,0,1,41.31,25.94Z"/><path d="M56.73,49.4a.85.85,0,0,1,.88.87.88.88,0,0,1-1.75,0A.86.86,0,0,1,56.73,49.4Z"/><path d="M32.34,55c1.06.17,1.37.4,1.34,1s-.34.76-1.38.85c0,.66,0,1.33-.91,1.36-.54,0-.74-.33-.89-1.34-1-.15-1.36-.37-1.35-.93s.35-.79,1.24-.88a9.29,9.29,0,0,1,.51-1.18c.08-.13.36-.18.55-.18C32,53.61,32.18,53.89,32.34,55Z"/><path d="M43.49,56.77c-.09,1-.35,1.39-.93,1.37s-.81-.4-.86-1.37c-.65,0-1.36,0-1.37-1,0-.54.34-.74,1.23-.83a7.61,7.61,0,0,1,.52-1.18c.09-.14.39-.19.59-.18.56,0,.75.35.81,1.35.67,0,1.4,0,1.37,1C44.83,56.5,44.49,56.69,43.49,56.77Z"/><path d="M30.51,45.59c-1-.05-1.36-.31-1.36-.89s.36-.82,1.23-.89a10.29,10.29,0,0,1,.55-1.2c.08-.12.37-.17.56-.16.54,0,.71.3.83,1.24a7.08,7.08,0,0,1,1.15.47c.14.08.2.38.2.58,0,.57-.35.79-1.36.86,0,.66,0,1.36-1,1.36C30.82,47,30.63,46.62,30.51,45.59Z"/><path d="M41.69,45.6c-1-.09-1.39-.35-1.37-.93s.39-.81,1.37-.86c0-.67,0-1.39,1-1.36.53,0,.71.33.81,1.37.64,0,1.33,0,1.35.91,0,.55-.3.75-1.25.87a8.25,8.25,0,0,1-.47,1.16c-.08.13-.36.19-.55.2C42,47,41.78,46.61,41.69,45.6Z"/></svg>