<svg id="Layer_1" data-name="Layer 1" xmlns="http://www.w3.org/2000/svg" viewBox="0 0 85.04 85.04"><path d="M42.09,22.67c0-.76,0-1.46,0-2.17,0-.53.27-.84.72-.85s.78.31.78.86v2.16H60.54c1,0,1.16.16,1.16,1.13v17h2.13c.56,0,.88.28.88.76s-.32.75-.88.75H61.7v17c0,.89-.2,1.09-1.07,1.09h-17v2.21a.75.75,0,1,1-1.5,0c0-.73,0-1.47,0-2.25h-17c-.86,0-1.06-.2-1.06-1V42.27H21.86c-.56,0-.88-.28-.88-.75s.32-.75.88-.76H24v-17c0-.89.19-1.08,1.06-1.08h17ZM60.17,24.2H43.64V40.74H60.17Zm-23.67,0H34.27a.62.62,0,0,0-.35.21l-8.2,8.19c-.08.08-.2.19-.2.3,0,.72,0,1.45,0,2.17l.12.05c.2-.22.39-.45.6-.66L28.69,32a.75.75,0,0,1,.94-.17.7.7,0,0,1,.38.84,1.43,1.43,0,0,1-.36.53c-1.28,1.3-2.57,2.58-3.86,3.87-.11.12-.27.27-.27.41,0,1.09,0,2.19,0,3.31,1.06,0,2.06,0,3.06,0a1,1,0,0,0,.64-.27c1.34-1.3,2.65-2.63,4-3.95a.77.77,0,1,1,1.08,1.07c-.74.75-1.48,1.49-2.23,2.23l-.86.83a13.12,13.12,0,0,0,2.15.09.6.6,0,0,0,.35-.2l8.2-8.19c.08-.09.2-.2.2-.3,0-.72,0-1.45,0-2.17L42,29.83c-.1.12-.18.26-.29.37L39,32.9a.79.79,0,0,1-1,.25c-.53-.24-.58-.85-.11-1.32,1.3-1.32,2.62-2.62,3.92-3.94.11-.1.27-.24.27-.36,0-1.11,0-2.22,0-3.36-1,0-2,0-3,0a.88.88,0,0,0-.73.31c-1.29,1.31-2.59,2.6-3.89,3.9a.81.81,0,0,1-1.1.18.79.79,0,0,1,0-1.26C34.37,26.29,35.39,25.29,36.5,24.17Zm5.57,32.44A15.21,15.21,0,0,1,27.74,42.29H25.51c0,1.31,0,2.59,0,3.87a3.45,3.45,0,0,0,.17,1A18,18,0,0,0,35,57.79a8.22,8.22,0,0,0,4.64,1.08,20.4,20.4,0,0,1,2.07,0l.4,0ZM29.34,42.29C29.74,50.07,36.5,55,42.06,55V52.09a10.73,10.73,0,0,1-9.79-9.8Zm4.56,0a8.84,8.84,0,0,0,8.19,8.16c0-.91,0-1.82,0-2.72,0-.1-.21-.25-.33-.28a5.81,5.81,0,0,1-4.07-2.85,20,20,0,0,1-1-2.31ZM25.53,58.83h8.09a20.13,20.13,0,0,1-8.09-8.09Zm6.26-34.62H25.53v6.25Zm4,16.52h6.25V34.48Zm19,14-3-3L49,54.7l3,3Zm1.23-7.12-2.92,2.92,2.9,2.9L59,50.53Zm-8.31,5.9,2.95-3-2.93-2.93-2.95,3Zm1.18-7.17,3,3,2.89-2.88-3-3ZM38.43,42.29c.28,1.86,2,3.58,3.63,3.61V42.29ZM56.05,55.94l-2.89,2.9H59Zm-8.34-10.7,2.92-2.93H44.79ZM58.93,42.3H53.17l2.88,2.88ZM43.62,43.53v5.76l2.9-2.87Zm16.55,0-2.86,2.86,2.86,2.88ZM43.62,57.63l2.87-2.87-2.87-2.87Zm16.55,0V51.83l-2.89,2.89Zm-15.3,1.22h5.74l-2.87-2.88Z"/><path d="M49.63,27.94a2.26,2.26,0,1,1-2.26-2.26A2.25,2.25,0,0,1,49.63,27.94Zm-2.24-.74a.78.78,0,0,0-.77.73.8.8,0,0,0,.71.76.78.78,0,0,0,.79-.71A.79.79,0,0,0,47.39,27.2Z"/><path d="M58.68,27.94a2.26,2.26,0,1,1-2.26-2.26A2.25,2.25,0,0,1,58.68,27.94Zm-2.25-.74a.78.78,0,0,0-.76.74.75.75,0,0,0,1.5,0A.79.79,0,0,0,56.43,27.2Z"/><path d="M54.16,32.45a2.27,2.27,0,1,1-2.28-2.24A2.24,2.24,0,0,1,54.16,32.45Zm-2.25-.73a.78.78,0,0,0-.76.74.75.75,0,0,0,1.49,0A.79.79,0,0,0,51.91,31.72Z"/><path d="M45.11,37a2.26,2.26,0,1,1,4.52.05A2.26,2.26,0,0,1,45.11,37Zm2.28-.73a.75.75,0,0,0-.06,1.5.78.78,0,0,0,.79-.71A.81.81,0,0,0,47.39,36.24Z"/><path d="M54.16,37a2.26,2.26,0,1,1,2.23,2.29A2.23,2.23,0,0,1,54.16,37Zm3,0a.8.8,0,0,0-.76-.76.75.75,0,1,0,.76.76Z"/><path d="M38.44,28.66a4.25,4.25,0,0,1-.42.66c-2.45,2.47-4.92,4.93-7.38,7.39a.77.77,0,1,1-1.08-1.08L37,28.21a.68.68,0,0,1,.88-.19A3,3,0,0,1,38.44,28.66Z"/><path d="M27.79,39.25a.75.75,0,1,1,.73-.74A.73.73,0,0,1,27.79,39.25Z"/><path d="M36.81,34.73a.75.75,0,1,1-.73-.75A.73.73,0,0,1,36.81,34.73Z"/><path d="M32.29,30.21a.74.74,0,0,1-.78.75.72.72,0,0,1-.72-.76.73.73,0,0,1,.77-.75A.75.75,0,0,1,32.29,30.21Z"/><path d="M39.82,27.19a.76.76,0,1,1,.76-.72A.74.74,0,0,1,39.82,27.19Z"/></svg>