<svg id="Layer_1" data-name="Layer 1" xmlns="http://www.w3.org/2000/svg" viewBox="0 0 85.04 85.04"><path d="M16.36,45a2.63,2.63,0,0,1,2.8-1.6c6.62,0,13.23,0,19.85,0a2.23,2.23,0,0,1,2.51,2.52c0,6.72,0,13.45,0,20.17A2.34,2.34,0,0,1,39,68.54q-10-.08-20,0a2.52,2.52,0,0,1-2.67-1.61ZM18,66.89H39.83V45.07H18Z"/><path d="M44.08,14.15a3.42,3.42,0,0,1,1.64,1.57q6,10.05,12.05,20.09A2.23,2.23,0,0,1,58,38a2.16,2.16,0,0,1-2.13,1.29H31.2A2.12,2.12,0,0,1,28.91,37a2.58,2.58,0,0,1,.35-1q6.18-10.34,12.37-20.64A3,3,0,0,1,43,14.15Zm-.48,1.53L30.47,37.57H56.74C52.36,30.26,48,23,43.6,15.68Z"/><path d="M58.13,68.52A12.58,12.58,0,1,1,70.73,56,12.59,12.59,0,0,1,58.13,68.52Zm.08-23.43a10.88,10.88,0,0,0-.13,21.75,10.88,10.88,0,1,0,.13-21.75Z"/></svg>