<svg id="Layer_1" data-name="Layer 1" xmlns="http://www.w3.org/2000/svg" viewBox="0 0 85.04 85.04"><path d="M52.85,64.16v2.29c0,.63-.29.91-.93.92s-1.45,0-2.17,0a.91.91,0,0,1-.92-.56c-.38-.78-.79-1.55-1.16-2.34a.51.51,0,0,0-.54-.34q-7.18,0-14.37,0a.53.53,0,0,0-.56.37c-.37.76-.76,1.5-1.12,2.26a.94.94,0,0,1-1,.61c-.72,0-1.44,0-2.16,0a.8.8,0,0,1-.9-.91V64.17a3.35,3.35,0,0,1-2.63-1.38A3.11,3.11,0,0,1,23.8,61c0-1,0-2,0-2.92,0-.27,0-.4-.36-.47A5.64,5.64,0,0,1,19,51.64a5.65,5.65,0,0,1,11.29.24c0,1,0,1.91,0,2.9a41.4,41.4,0,0,1,19.36,0c0-.35,0-.67,0-1a18.33,18.33,0,0,1,.21-3.15,5.59,5.59,0,0,1,5.95-4.23,5.65,5.65,0,0,1,.66,11.16c-.3.07-.38.17-.38.45,0,.91,0,1.82,0,2.73A3.26,3.26,0,0,1,52.85,64.16Zm-26.25-8c.63-.26,1.19-.47,1.73-.72a.58.58,0,0,0,.3-.42c0-1,.05-2,0-3.07a4,4,0,1,0-8,.37,4,4,0,0,0,3.86,3.76c.75.06,1,.29,1,1,0,1.21,0,2.42,0,3.63a1.66,1.66,0,0,0,1.79,1.8H52.67a1.67,1.67,0,0,0,1.79-1.8c0-1,0-2.08,0-3.12,0-1.37,0-1.37,1.32-1.59l.15,0A4,4,0,0,0,59.3,51.9,4.07,4.07,0,0,0,55.41,48a4,4,0,0,0-4.06,3.39,32,32,0,0,0-.1,3.67c0,.12.18.29.31.36.56.25,1.13.47,1.71.72l-.74,1.32a36.61,36.61,0,0,0-25.17,0Zm2.08,8v1.59a5.6,5.6,0,0,0,.58,0c.18,0,.46,0,.53-.13.28-.45.49-.94.75-1.46ZM51.2,65.73V64.18H49.4C50,65.77,50,65.8,51.2,65.73Z"/><path d="M52.06,19H42c-1.46,0-2,.58-2.05,2v.34H38.39a3.24,3.24,0,0,1,3.17-4H64.1a3.19,3.19,0,0,1,3.27,3.29c0,13.31,0,26.62,0,39.94a3.42,3.42,0,0,1-3.25,3.61c0,.73,0,1.46,0,2.2s-.27,1-1,1-1.44,0-2.16,0a.89.89,0,0,1-.89-.54c-.39-.8-.78-1.6-1.2-2.38a.71.71,0,0,0-.48-.3c-.5,0-1,0-1.54,0V62.53h7a1.68,1.68,0,0,0,1.88-1.86V20.83A1.68,1.68,0,0,0,63.9,19H53.66V35.87h-1.6Zm8.63,45.21c.55,1.57.71,1.71,1.81,1.54V64.16Z"/><path d="M31.9,34.28H24.76c-.69,0-1-.29-1-1,.09-1.32.2-2.64.31-4,.16-1.83.32-3.65.49-5.47.05-.65.31-.87,1-.87h6.28V21.41h1.62V23h6.24c.73,0,1,.2,1,.91.24,2.78.46,5.56.7,8.33,0,.37.08.74.09,1.11,0,.65-.28.94-.94.94H33.5v1.59H31.9Zm7.29-9.64h-13l-.67,8H39.85Z"/><path d="M25.39,44.75H23.84c0-.13,0-.26,0-.39,0-1.22,0-2.45,0-3.68A3.18,3.18,0,0,1,27,37.52q12.94,0,25.9,0a3.18,3.18,0,0,1,3.18,3.16c0,1.31,0,2.62,0,3.93,0,0,0,.06,0,.13H54.46V41.17c0-1.46-.58-2-2-2h-25c-1.39,0-2,.6-2,2,0,1.16,0,2.32,0,3.48A.6.6,0,0,1,25.39,44.75Z"/><path d="M35.14,42.38h1.55v1.55H35.14Z"/><path d="M44.74,44H43.21V42.39h1.53Z"/><path d="M31.1,46.41h1.55V48H31.1Z"/><path d="M40.72,48H39.17V46.42h1.55Z"/><path d="M47.24,46.4h1.54V48H47.24Z"/><path d="M35.11,52V50.46h1.57V52Z"/><path d="M43.2,50.45h1.55V52H43.2Z"/><path d="M27,52.05a2.42,2.42,0,1,1-2.35-2.43A2.38,2.38,0,0,1,27,52.05Zm-2.4.79a.86.86,0,0,0,.78-.84.8.8,0,0,0-1.6,0A.86.86,0,0,0,24.63,52.84Z"/><path d="M57.69,52a2.42,2.42,0,1,1-2.4-2.39A2.41,2.41,0,0,1,57.69,52Zm-2.42.83a.81.81,0,1,0-.8-.81A.85.85,0,0,0,55.27,52.84Z"/></svg>