<svg id="Layer_1" data-name="Layer 1" xmlns="http://www.w3.org/2000/svg" viewBox="0 0 85.04 85.04"><defs><style>.cls-1{fill:#1d1d1b;}</style></defs><path class="cls-1" d="M51,39.61a3.88,3.88,0,0,1-3.88-3.91,1,1,0,0,0-1.93,0,3.89,3.89,0,0,1-3.91,3.88.94.94,0,0,0-.93,1c0,.56.37.91,1,1a3.85,3.85,0,0,1,3.61,2.72,6.08,6.08,0,0,1,.2,1.13,1,1,0,0,0,1,1,1,1,0,0,0,.95-1A3.88,3.88,0,0,1,51,41.55a1,1,0,0,0,0-1.94Zm-3.35,1c-.41.42-1.1,1.1-1.5,1.5l-1.47-1.5,1.47-1.51C46.54,39.49,47.23,40.21,47.61,40.58Z"/><path class="cls-1" d="M56.76,29.11a.61.61,0,0,0-.61-.61A2.47,2.47,0,0,1,53.68,26a.59.59,0,0,0-.62-.59.61.61,0,0,0-.61.61A2.46,2.46,0,0,1,50,28.5a.61.61,0,0,0-.59.63c0,.35.24.57.65.6a2.43,2.43,0,0,1,2.29,1.73,3.42,3.42,0,0,1,.13.71c0,.41.27.64.63.63a.59.59,0,0,0,.6-.61,2.47,2.47,0,0,1,2.49-2.46A.61.61,0,0,0,56.76,29.11Zm-2.86,0-.82.84-.83-.84.81-.82Z"/><path d="M51.69,67.27h-28c-1.78,0-3.62.13-5.39,0a5.63,5.63,0,0,1-5-5,6.93,6.93,0,0,1,.18-2,28,28,0,0,0,3.71-.94A11.2,11.2,0,0,0,22,56.63,45.29,45.29,0,0,0,27.93,48l.75-1.34L30,48.21l1.07,1.28a1.06,1.06,0,0,0,1.49,0,1.07,1.07,0,0,0,0-1.48l-7.67-9.12L23.83,37.6a1,1,0,0,0-1.48,1.48l2.16,2.57a21.13,21.13,0,0,0-7.28,1.69l2.89-13.08c.16-.7.31-1.41.47-2.11A12.36,12.36,0,0,1,30,18.59a25.14,25.14,0,0,1,5.75-.28h1.79a1,1,0,0,0,0-2.09c-1.53,0-3.05,0-4.58,0a14.68,14.68,0,0,0-7.7,2.06,15,15,0,0,0-6.81,9.91L14,48.27Q12.92,53.11,11.86,58c-.15.65-.3,1.3-.44,2a7.84,7.84,0,0,0,1.67,6.79A7.75,7.75,0,0,0,19,69.37h32.7A1.05,1.05,0,0,0,51.69,67.27ZM15.41,51.58l1.26-5.7s0,0,0,0l.88-.4h0l.28-.12.51-.2c.44-.17.89-.32,1.34-.46a17.41,17.41,0,0,1,6.56-.9l.94,1.13c-1,1.9-2.15,3.78-3.32,5.61A37.62,37.62,0,0,1,21,54.59c-.21.24-.43.48-.65.71l-.33.31-.18.15,0,0h0a10.71,10.71,0,0,1-2.64,1.27A26.66,26.66,0,0,1,14,58Z"/><path d="M72.3,24.32a2.64,2.64,0,0,0-.64-.38l-.25-.13-1.21,0-.15.05,0,0a6.51,6.51,0,0,0-4.18,2.25,5,5,0,0,0-1.39,4.24c0,.32.13.63.21,1a1.6,1.6,0,0,0,0,.21l-.2.12a5.37,5.37,0,0,0-2.23,2.65,38.14,38.14,0,0,0-2.72,9.21c-.25,1.78-.44,3.59-.62,5.34-.08.79-.16,1.58-.25,2.37l-.15,1.41-13-1.7-3.73-.48a5.88,5.88,0,0,0-5,1.58,6.8,6.8,0,0,0-2.13,4.38,3.57,3.57,0,0,0,.52,2.57,3.09,3.09,0,0,0,2.86,1.33l.22,0a1.2,1.2,0,0,1,.32,0,1.25,1.25,0,0,1,.09.29,1.55,1.55,0,0,0,0,.23A3.26,3.26,0,0,0,42,63.17H63.67a1.87,1.87,0,0,0,2-1.56c.46-1.88.92-3.76,1.36-5.65a3.38,3.38,0,0,0-.2-2.2A3.51,3.51,0,0,0,61,52.82s-.09.08-.07.08c-.2,0-.4,0-.61-.08v0l.09-.85c.08-.81.17-1.61.26-2.41.07-.61.14-1.21.2-1.82.17-1.5.34-3.06.58-4.58a34,34,0,0,1,2.67-8.54,2.91,2.91,0,0,1,2.17-1.77,12.39,12.39,0,0,1,2.2-.16h.26a.93.93,0,0,1,.67.29.88.88,0,0,1,.15.76L66.13,49.07q-.24,1-.45,2a.91.91,0,0,0,.64,1.1.86.86,0,0,0,1.07-.63,1.29,1.29,0,0,0,.08-.28L73.1,26.73A2.3,2.3,0,0,0,72.3,24.32Zm-1,1.43a.57.57,0,0,1,.12.5c-.33,1.39-.67,2.78-1,4.16l-.21.84a3.5,3.5,0,0,0-1.81-.43c-.3,0-.59,0-.89,0a9,9,0,0,1-1,0,3,3,0,0,1,0-2.37,4.85,4.85,0,0,1,4.37-3A.58.58,0,0,1,71.25,25.75ZM42.58,60.27h1.33a1,1,0,0,0,.94-.52.9.9,0,0,0,0-.83,1,1,0,0,0-.82-.45c-.3,0-.6,0-.9,0H41.3c-1.13,0-2.29,0-3.44,0a1.48,1.48,0,0,1-1-.36,1.39,1.39,0,0,1-.4-1,5,5,0,0,1,3.1-4.78,4.69,4.69,0,0,1,2.39-.15l3.87.52,14.3,1.87-.16.7c-.2.9-.41,1.78-.61,2.66a2.55,2.55,0,0,1-.14.47,2.1,2.1,0,0,1-.52,0H47a1,1,0,0,0-.61.13,1.34,1.34,0,0,0-.52.73.79.79,0,0,0,.68.9,3.51,3.51,0,0,0,.59.05H58.79c-.09.39-.17.76-.26,1.13H42.08a1.51,1.51,0,0,1-1.6-1.13h2.1ZM60.37,61.4,61.63,56c.09-.41.18-.82.3-1.22a1.73,1.73,0,1,1,3.36.86l-.9,3.76L64,61.16c-.06.23-.11.23-.15.23H60.37Z"/></svg>