<svg id="Layer_1" data-name="Layer 1" xmlns="http://www.w3.org/2000/svg" viewBox="0 0 85.04 85.04"><path d="M51.84,67.65H23.44c-1.81,0-3.67.13-5.47,0a5.73,5.73,0,0,1-5.09-5.09,6.81,6.81,0,0,1,.19-2.07,28.89,28.89,0,0,0,3.77-.95,11.44,11.44,0,0,0,4.84-2.68,45.88,45.88,0,0,0,6-8.8c.26-.45.51-.9.76-1.36l1.36,1.61,1.09,1.31a1.08,1.08,0,0,0,1.51,0,1.1,1.1,0,0,0,0-1.51q-3.9-4.64-7.79-9.26l-1.09-1.31a1.08,1.08,0,0,0-1.51,0A1.1,1.1,0,0,0,22,39l2.2,2.61a21.46,21.46,0,0,0-7.39,1.7l2.93-13.27.48-2.14a12.53,12.53,0,0,1,9.55-9.71,24.7,24.7,0,0,1,5.83-.28h1.82a1.07,1.07,0,0,0,0-2.13l-4.65,0A14.92,14.92,0,0,0,25,17.88a15.29,15.29,0,0,0-6.92,10.06q-2.25,10.22-4.51,20.42c-.72,3.28-1.45,6.56-2.17,9.84-.15.66-.3,1.32-.44,2a7.8,7.8,0,0,0,7.68,9.6H51.84A1.07,1.07,0,0,0,51.84,67.65ZM15,51.72l1.28-5.79h0c.29-.15.59-.28.89-.41h0l.28-.12.52-.2c.45-.17.91-.33,1.37-.47a17.48,17.48,0,0,1,6.65-.91l1,1.14q-1.59,2.91-3.37,5.7a36.51,36.51,0,0,1-3,4.13q-.32.38-.66.72l-.33.32-.18.15,0,0h0a10.87,10.87,0,0,1-2.68,1.29,27.36,27.36,0,0,1-3.24.94Z"/><path d="M72.76,24a3,3,0,0,0-.64-.38,2.1,2.1,0,0,1-.26-.13l-1.23,0-.15.05,0,0a6.57,6.57,0,0,0-4.25,2.29,5.13,5.13,0,0,0-1.41,4.3c0,.32.13.64.21,1l.06.22-.21.12a5.48,5.48,0,0,0-2.26,2.69,38.51,38.51,0,0,0-2.76,9.35c-.26,1.8-.45,3.64-.63,5.42-.08.8-.17,1.61-.25,2.41l-.16,1.43L45.63,51l-3.78-.5a6,6,0,0,0-5.1,1.61,6.93,6.93,0,0,0-2.17,4.45,3.63,3.63,0,0,0,.54,2.61A3.12,3.12,0,0,0,38,60.54l.23,0a1.2,1.2,0,0,1,.32,0,1.2,1.2,0,0,1,.09.3l.06.22A3.29,3.29,0,0,0,42,63.48H64a1.88,1.88,0,0,0,2-1.58q.7-2.86,1.38-5.74a3.47,3.47,0,0,0-.2-2.23,3.58,3.58,0,0,0-6-1c0,.05-.08.08-.06.09-.21,0-.41-.05-.62-.09v0l.09-.87c.08-.82.17-1.63.26-2.45l.21-1.84c.17-1.53.34-3.11.58-4.65a35.13,35.13,0,0,1,2.71-8.68,3,3,0,0,1,2.21-1.8,13.82,13.82,0,0,1,2.24-.16h.26a1,1,0,0,1,.68.28.94.94,0,0,1,.15.78L66.5,49.17c-.16.69-.31,1.38-.46,2.06a.93.93,0,0,0,.65,1.13.89.89,0,0,0,1.09-.64,2.45,2.45,0,0,0,.08-.29l5.71-24.94A2.36,2.36,0,0,0,72.76,24ZM71.7,25.49a.57.57,0,0,1,.12.5c-.34,1.42-.68,2.82-1,4.23l-.22.85a3.5,3.5,0,0,0-1.83-.43c-.31,0-.61,0-.91,0s-.71.05-1,0a3,3,0,0,1,0-2.41,4.91,4.91,0,0,1,4.44-3A.62.62,0,0,1,71.7,25.49ZM42.58,60.54h1.35a1,1,0,0,0,1-.53.86.86,0,0,0,0-.84,1,1,0,0,0-.83-.46c-.3,0-.61,0-.91,0H41.29c-1.15,0-2.33,0-3.5,0a1.51,1.51,0,0,1-1-.36,1.4,1.4,0,0,1-.41-1,5,5,0,0,1,3.15-4.86,4.8,4.8,0,0,1,2.42-.16c1.31.19,2.63.36,3.94.53l14.52,1.91-.16.71c-.21.91-.42,1.8-.63,2.7a2.45,2.45,0,0,1-.14.48,3.21,3.21,0,0,1-.53,0H47.05a1,1,0,0,0-.62.12,1.28,1.28,0,0,0-.53.75.8.8,0,0,0,.69.91,3.51,3.51,0,0,0,.59,0H59.05c-.09.4-.18.77-.27,1.14H42.08a1.54,1.54,0,0,1-1.63-1.15h2.13Zm18.07,1.14,1.28-5.5c.09-.41.19-.83.3-1.24a1.76,1.76,0,1,1,3.41.88c-.3,1.27-.6,2.55-.91,3.82l-.43,1.8c0,.24-.1.24-.15.24h-3.5Z"/></svg>