<svg id="Layer_1" data-name="Layer 1" xmlns="http://www.w3.org/2000/svg" viewBox="0 0 85.04 85.04"><path d="M60.16,50.68A2.86,2.86,0,0,0,59,48.08a27,27,0,0,0-3.49-1.88c-.47-.23-.68-.42-.67-.93,0-1.64,0-3.36,0-5.12a.8.8,0,0,1,.61-.88,22.44,22.44,0,0,0,2.22-1,4.12,4.12,0,0,0,2.54-4.19c-.13-2.83-.08-5.63,0-8.49a3.47,3.47,0,0,0-1.76-3.31,17.22,17.22,0,0,0-3.2-1.51,38.51,38.51,0,0,0-13.53-1.74h0c-1.82,0-3.52.15-5.07.32a43.22,43.22,0,0,0-4.82.84,14.49,14.49,0,0,0-5.32,2.13A3.35,3.35,0,0,0,24.8,25.2V28c0,2.29,0,4.59,0,6.88a3,3,0,0,0,1.34,2.68,29.38,29.38,0,0,0,3.33,1.74.86.86,0,0,1,.65.93c0,1.67,0,3.39,0,5.12,0,.52-.2.7-.68.9a21.79,21.79,0,0,0-3,1.51,3.33,3.33,0,0,0-1.62,3.08c0,2.67,0,5.52,0,9.26A3.2,3.2,0,0,0,26,62.71,10.49,10.49,0,0,0,28,63.92a24.73,24.73,0,0,0,7.93,2,58.71,58.71,0,0,0,6.87.42,45.49,45.49,0,0,0,10.81-1.25,14.1,14.1,0,0,0,4.94-2.05,3.6,3.6,0,0,0,1.66-3.22C60.1,56.82,60.13,53.78,60.16,50.68ZM51.87,63.53c-.09-.07-.1-.25-.1-.42V60.25c0-.5-.08-1.18-.87-1.21a.87.87,0,0,0-.66.2,1.41,1.41,0,0,0-.31,1c0,.92,0,1.93,0,3.16,0,.46-.14.64-.55.66L44,64.49a.63.63,0,0,1-.51-.11.69.69,0,0,1-.13-.54c0-.61,0-1.23,0-1.84V60.9c0-.75-.32-1.18-.91-1.2h0a.81.81,0,0,0-.6.22,1.27,1.27,0,0,0-.3.95v1c0,.65,0,1.31,0,2a.67.67,0,0,1-.14.5.62.62,0,0,1-.49.11c-1.72-.14-3.55-.29-5.4-.41-.38,0-.52-.19-.51-.62,0-.63,0-1.26,0-1.89V60.23c0-.77-.3-1.17-.91-1.19a.92.92,0,0,0-.64.21,1.28,1.28,0,0,0-.31.94c0,.91,0,1.89,0,2.86,0,.26,0,.4-.11.47a.57.57,0,0,1-.44,0,16.23,16.23,0,0,1-4.88-1.8,2.08,2.08,0,0,1-1.11-2c.05-3.16,0-6.26,0-8.88a1.79,1.79,0,0,1,.89-1.72c.57-.32,1.16-.63,1.73-.92l.7-.36.17.1v.52c0,.43,0,.88,0,1.31a2,2,0,0,0,1.49,2.26l.09,0a23.53,23.53,0,0,0,4.14,1.07,46.82,46.82,0,0,0,14.63-.24,18.09,18.09,0,0,0,3-.92,2,2,0,0,0,1.34-2.13,11,11,0,0,1,0-1.15v-.34c0-.19,0-.32.13-.37s.21,0,.31.05l.57.28a10.25,10.25,0,0,1,1.83,1,1.92,1.92,0,0,1,.62,1.31c0,1.86,0,3.76,0,5.59,0,1.24,0,2.49,0,3.73a1.77,1.77,0,0,1-.9,1.58,14.58,14.58,0,0,1-5.26,2C52,63.59,51.92,63.58,51.87,63.53ZM50.72,40.38l1.55-.25c.34-.05.59-.08.67,0s.09.33.09.66V43.3c0,2,0,4,0,6a1.15,1.15,0,0,1-1,1.36l-1.22.25c-1.33.27-2.71.55-4.08.69A40.75,40.75,0,0,1,34.05,51c-2.11-.45-2.11-.45-2.11-2.57v-4q0-1.78,0-3.57c0-.35,0-.65.11-.72a.22.22,0,0,1,.16,0,3.58,3.58,0,0,1,.52.07,49.73,49.73,0,0,0,14.18.76C48.18,40.79,49.47,40.58,50.72,40.38Zm7.1-14.52a8.68,8.68,0,0,1-3.69,1.81,46.59,46.59,0,0,1-19.68.84,18.52,18.52,0,0,1-6.38-2L28,26.48c-.61-.35-1.24-.71-1.26-1.44s.66-1.14,1.3-1.49l.1-.06a16.6,16.6,0,0,1,5.8-1.83,58,58,0,0,1,8.47-.72v0l.12,0h.07a40.8,40.8,0,0,1,10.9,1.25,23.86,23.86,0,0,1,2.95,1.12l.46.2a3.69,3.69,0,0,1,1,.73,1.16,1.16,0,0,1,.44.81A1.22,1.22,0,0,1,57.82,25.86Zm-31.2,8a34,34,0,0,0,.05-3.49c0-.55,0-1.09,0-1.63,0-.19,0-.38,0-.6,0-.06,0-.12,0-.17l.75.32c.65.29,1.26.57,1.9.79a29.24,29.24,0,0,0,3,.86c.56.13.82.29.79.91s0,1.43,0,2.12c0,.25,0,.5,0,.74a1.57,1.57,0,0,0,.33,1.17.84.84,0,0,0,.63.2c.91-.06.91-.8.91-1.33,0-.33,0-.65,0-1,0-.57,0-1.16,0-1.73a.6.6,0,0,1,.1-.44.59.59,0,0,1,.48-.08c1.82.15,3.63.29,5.4.39.42,0,.56.19.56.65,0,.76,0,1.53,0,2.3v.71a1.31,1.31,0,0,0,.29,1,.85.85,0,0,0,.62.23h0a.85.85,0,0,0,.75-.38,1.4,1.4,0,0,0,.17-.8c0-.36,0-.73,0-1.09,0-.63,0-1.28,0-1.92,0-.47.13-.62.61-.65,1.68-.1,3.47-.21,5.25-.39a.77.77,0,0,1,.56.09.79.79,0,0,1,.12.57c0,.94,0,1.89,0,2.79,0,.3,0,1.1.88,1.1h0c.94,0,.94-.87.93-1.15V32.61c0-.63,0-1.28,0-1.92a.57.57,0,0,1,.56-.69A17.51,17.51,0,0,0,58,28a.59.59,0,0,1,.17-.05l.07,0a1.49,1.49,0,0,1,0,.21c0,.22,0,.42,0,.61,0,.59,0,1.19,0,1.78,0,1.24,0,2.53,0,3.79A2.14,2.14,0,0,1,57,36.6l-.33.14a19.45,19.45,0,0,1-3.57,1.33,47.71,47.71,0,0,1-17.35.72,26,26,0,0,1-6.45-1.56l-.69-.3A2.76,2.76,0,0,1,26.62,33.87Z"/><path d="M51.86,24.35A7.48,7.48,0,0,1,50,25a40.92,40.92,0,0,1-13.72.24,14.33,14.33,0,0,1-3.2-.9c-.45-.16-1-.37-1.38.25a.92.92,0,0,0-.12.71,1.13,1.13,0,0,0,.61.65,9.1,9.1,0,0,0,1.75.68,30,30,0,0,0,8.15.93h0a42.09,42.09,0,0,0,7.43-.61,13.61,13.61,0,0,0,3-.89l.27-.1a1,1,0,0,0,.6-.57.94.94,0,0,0-.1-.79C52.89,24,52.35,24.12,51.86,24.35Z"/></svg>