<svg id="Layer_1" data-name="Layer 1" xmlns="http://www.w3.org/2000/svg" viewBox="0 0 85.04 85.04"><path d="M59.08,68.89c0-.17-.17-.7-1.1-.7H49.43V63.55h1.2a3.54,3.54,0,0,0,.87,0,1.87,1.87,0,0,0,.89-.31c1.07-1,2.14-2,3.16-3.16a1.28,1.28,0,0,0,.29-.74c0-1.79,0-3.61,0-5.37V52.77a.88.88,0,0,0-1-1H29.1a.88.88,0,0,0-1,1v1.29c0,1.73,0,3.52,0,5.27a1.42,1.42,0,0,0,.32.78c.73.79,1.51,1.56,2.27,2.31l.82.81a1.06,1.06,0,0,0,.83.33c.35,0,.69,0,1,0h1.13v4.64H25.87a1,1,0,0,0-.76.33.87.87,0,0,0-.19.74c0,.24.14.49.65.76h32.8C59,69.73,59.2,69.35,59.08,68.89Zm-11.55-.73h-11V63.59h11Zm.71-6.44H33.52a1.83,1.83,0,0,1-1.4-.58c-.31-.33-.63-.65-.95-1l-.75-.75a1.47,1.47,0,0,1-.43-.92c0-1.06,0-2.11,0-3.18V53.67H54v1.58c0,1.09,0,2.17,0,3.24a1.27,1.27,0,0,1-.2.64,1,1,0,0,1-.3.37c-.2.2-.38.41-.56.62a4.7,4.7,0,0,1-1.69,1.44,3.37,3.37,0,0,1-1.36.24,8.69,8.69,0,0,1-.89,0Z"/><path d="M58.09,18.05h0A.89.89,0,0,0,59,17.6a.91.91,0,0,0,0-.9,1,1,0,0,0-.91-.48H26a.92.92,0,0,0-.89.41.83.83,0,0,0-.05.95.86.86,0,0,0,.84.48h8.76V19.4c0,1,0,2,0,2.92,0,2.4,0,4.89,0,7.33A1.43,1.43,0,0,0,35,30.76a1.24,1.24,0,0,0,1,.24,8,8,0,0,1,.85,0h1v7.87H32.37a.91.91,0,0,0-.92.54l-.13.25c-1,2-2.05,4.08-3.05,6.14a1,1,0,0,0,0,.94,1,1,0,0,0,.9.43q12.85,0,25.71,0a1,1,0,0,0,.88-.43.92.92,0,0,0,0-.91c-1-2-2-4-3-6l-.19-.38a.94.94,0,0,0-.9-.53H46.18V31h1.23c.35,0,.7,0,1,0a.89.89,0,0,0,.94-.95V27.79H54V29c0,.35,0,.7,0,1.05a.88.88,0,0,0,.9.92.87.87,0,0,0,.66-.25,1,1,0,0,0,.27-.68V23.65a.89.89,0,0,0-.91-1h0a.88.88,0,0,0-.91.95c0,.35,0,.69,0,1.05v1.2h-4.6V18.05h8.66ZM50.17,40.68h0a1.4,1.4,0,0,1,1.4.89c.29.63.6,1.26.93,1.91l.92,1.84H30.61l.68-1.43.42-.85c.09-.18.17-.37.25-.56A3.1,3.1,0,0,1,33,40.89a3,3,0,0,1,1.88-.23c.2,0,.41,0,.6,0h4C43.06,40.7,46.61,40.7,50.17,40.68ZM39.72,38.84V31h4.56v7.81Zm7.81-9.71h-11v-11h11Z"/></svg>