<svg id="Layer_1" data-name="Layer 1" xmlns="http://www.w3.org/2000/svg" viewBox="0 0 85.04 85.04"><defs><style>.cls-1{fill:#1d1d1b;}</style></defs><path class="cls-1" d="M69.38,47.48c1.08,0,1.43-.34,1.43-1.4v-7c0-1-.35-1.39-1.38-1.39H64.59a23.43,23.43,0,0,0-3.15-7.56l0,0a1.88,1.88,0,0,0,.36-.27C63,28.7,64,27.67,65,26.68A1.08,1.08,0,0,0,65.07,25c-1.68-1.7-3.46-3.48-5.29-5.29a1.08,1.08,0,0,0-1.71.06l-2.82,2.81c-.18.19-.35.39-.51.59l-.12.15-.15-.09L54,22.94a22.55,22.55,0,0,0-6.54-2.68c-.38-.09-.46-.18-.45-.53,0-1.13,0-2.27,0-3.38V15.27c0-1-.37-1.33-1.31-1.34H38.56c-.91,0-1.29.39-1.3,1.3v.93c0,1.18,0,2.39,0,3.58,0,.35-.06.44-.4.52a22.33,22.33,0,0,0-6.24,2.47l-.89.52-1-1-2.38-2.39a1.47,1.47,0,0,0-1-.56h0a1.45,1.45,0,0,0-1,.57L21,23.24,19.61,24.6c-.46.47-.74.81-.73,1.19s.26.7.72,1.16l2.33,2.3.92.92a23.35,23.35,0,0,0-3.12,7.51H14.88c-1,0-1.36.37-1.36,1.34,0,2.36,0,4.71,0,7.07,0,1,.36,1.39,1.38,1.39h4.84A23.14,23.14,0,0,0,22.85,55l-1,1-2.51,2.48a1.14,1.14,0,0,0,0,1.89q2.51,2.52,5,5a1.15,1.15,0,0,0,1.93,0c.94-.93,1.88-1.86,2.81-2.81a3.71,3.71,0,0,0,.44-.54,1.13,1.13,0,0,0,.1-.13l.19.12a22.49,22.49,0,0,0,7.12,3c.22,0,.27.12.27.39,0,1.54,0,3.09,0,4.63,0,.88.39,1.27,1.26,1.27h7.24c.91,0,1.3-.38,1.3-1.29v-.67c0-1.28,0-2.6,0-3.9,0-.28.06-.36.36-.46l.36-.11c1.27-.4,2.59-.81,3.84-1.32a20.58,20.58,0,0,0,2.15-1.08l.87-.47,0,0a3.27,3.27,0,0,0,.3.35q3.56,3.58,7.13,7.14a4.91,4.91,0,1,0,6.95-6.93l-3.44-3.45L64.23,57.7,62.48,56l-1-1a23.3,23.3,0,0,0,3.11-7.48Zm-27.24-16a9.65,9.65,0,0,0-5.3.63c-.6.25-.94.58-1,1a1.44,1.44,0,0,0,.56,1.26l1.27,1.27c1,1,2.07,2.06,3.09,3.11a1.24,1.24,0,0,1,.3.71c0,.5,0,1,0,1.52,0,.17,0,.34,0,.52h-.53c-.63,0-1.22,0-1.83,0-.11,0-.28-.18-.37-.26l-2.68-2.67L33.92,36.8a1.4,1.4,0,0,0-1.23-.55c-.39.07-.71.4-1,1a9.63,9.63,0,0,0,7.56,13.35,11.71,11.71,0,0,0,2.39,0,2.76,2.76,0,0,1,2.24.69c1.21,1.19,2.42,2.41,3.6,3.59l1.16,1.17a14.9,14.9,0,0,1-18-3.72,15,15,0,1,1,24.93-3.2l-4-4L51,44.5a2.83,2.83,0,0,1-.81-2.42A9.6,9.6,0,0,0,42.14,31.5Zm-.4,16.89-.68,0a5.72,5.72,0,0,1-.59,0,7.3,7.3,0,0,1-7.17-6.2,11.8,11.8,0,0,1,0-2.06q0-.42,0-.84h0l1.05,1.05c.89.88,1.81,1.8,2.7,2.71a1.85,1.85,0,0,0,1.47.61c.71,0,1.44,0,2.13,0H42a1.09,1.09,0,0,0,1.24-1.23v-.83c0-.94,0-1.91,0-2.86a2,2,0,0,0-.5-1.18c-.94-1-1.9-1.93-2.91-2.92L39,33.8a6.81,6.81,0,0,1,3.86.14A7.35,7.35,0,0,1,48,41.72a5.26,5.26,0,0,0,1.62,4.52q8.06,8,16.08,16.07L67.4,64a2.68,2.68,0,1,1-3.5,4.07l-.41-.4-4.56-4.56c-4.26-4.25-8.66-8.65-13-13A5.62,5.62,0,0,0,41.74,48.39Zm20.81-2A21,21,0,0,1,60.09,53a2.14,2.14,0,0,1-.13.22l-2.45-2.45L58,49.51a28.27,28.27,0,0,0,1-3.07,17,17,0,0,0-2.2-13.07,17.28,17.28,0,0,0-31.57,5.77A16.92,16.92,0,0,0,27.69,52,17.27,17.27,0,0,0,50,57.92c.29-.15.42-.13.63.09.55.57,1.11,1.11,1.7,1.69l.59.57A21,21,0,0,1,46,63c-.87.18-1.12.48-1.12,1.35V69h-5.4V64.2a1.07,1.07,0,0,0-1-1.22,21.46,21.46,0,0,1-8.09-3.35,1.15,1.15,0,0,0-1.67.2c-.82.82-1.63,1.65-2.43,2.46l-.8.81-3.82-3.83.78-.78c.77-.76,1.57-1.55,2.36-2.35a1.26,1.26,0,0,0,.21-2,20.23,20.23,0,0,1-3.16-7.6c-.21-1.09-.48-1.31-1.62-1.31H15.76v-5.4h4.68c.85,0,1.18-.26,1.33-1.07a21.35,21.35,0,0,1,3.32-8,1.18,1.18,0,0,0-.2-1.72c-.83-.84-1.67-1.67-2.5-2.49l-.77-.76L25.44,22l.72.73,2.29,2.3c.9.91,1.21.94,2.27.24a20.07,20.07,0,0,1,7.39-3c1.11-.2,1.35-.5,1.35-1.66V16.17h5.4v4.42c0,1.21.2,1.45,1.38,1.68a20.57,20.57,0,0,1,7.54,3.15c.81.55,1.24.5,1.95-.21L57.94,23l1-1,3.82,3.82-.91.89L59.53,29c-.72.72-.77,1.14-.22,1.95a21.09,21.09,0,0,1,3.23,7.83c.17.84.49,1.1,1.37,1.1h4.67v5.4H63.83A1.1,1.1,0,0,0,62.55,46.34Z"/><path class="cls-1" d="M55.1,57.09l6.3,6.3a1.34,1.34,0,0,0,.93.45,1.17,1.17,0,0,0,1.09-1.09,1.35,1.35,0,0,0-.43-.92L51.79,50.64a2.73,2.73,0,0,0-.53-.36c-.1-.06-.21-.12-.32-.2l-.1-.06-.08.08-.28.21a2.1,2.1,0,0,0-.57.54c-.18.29-.28.77.29,1.35Z"/><path class="cls-1" d="M65.14,67a1,1,0,0,0,.54.16,1.12,1.12,0,0,0,.47-.11,1.13,1.13,0,0,0,.61-1,2.3,2.3,0,0,0-1.4-1.71,1.59,1.59,0,0,0-1.12.25.87.87,0,0,0-.38.59.88.88,0,0,0,.17.68A4.65,4.65,0,0,0,65.14,67Z"/><path class="cls-1" d="M47.63,49.55a1,1,0,0,0,.57.18,1.14,1.14,0,0,0,1.11-1.11,1.89,1.89,0,0,0-.65-1.16,1.93,1.93,0,0,0-1.16-.63,1.11,1.11,0,0,0-1,.62,1,1,0,0,0,.06,1.06A4.28,4.28,0,0,0,47.63,49.55Z"/></svg>