<svg id="Layer_1" data-name="Layer 1" xmlns="http://www.w3.org/2000/svg" viewBox="0 0 85.04 85.04"><defs><style>.cls-1{fill:#1d1d1b;}</style></defs><path class="cls-1" d="M71.31,59.27a9.33,9.33,0,0,0-9.7-5.92c-1.57.2-3.13.42-4.69.63l-3.68.49-15.53,2-.34,0L36,56.72l-.34,0c-.1-1-.2-1.94-.31-2.91-.26-2.37-.51-4.71-.73-7.06a55.88,55.88,0,0,0-2.76-13c-.52-1.52-1.11-3-1.69-4.5l-.27-.69a7.87,7.87,0,0,0-3.75-4.19l.13-.36a7.12,7.12,0,0,0-.2-5.42,9.86,9.86,0,0,0-7.29-5.74,4.8,4.8,0,0,0-3.27.16c-1.6.8-2.22,2.36-1.75,4.4L19.31,41.6l3,13.1c.2.87.78,1.32,1.48,1.17s1.07-.81.88-1.71L18.79,27.75A1.54,1.54,0,0,1,19,26.43a1.57,1.57,0,0,1,1.24-.53h.08c.8,0,1.63,0,2.44,0a5,5,0,0,1,4,2.12,15,15,0,0,1,1.35,2.72,55.94,55.94,0,0,1,4.08,16.66c.13,1.61.32,3.24.49,4.82.1.83.19,1.66.28,2.49.06.59.11,1.18.16,1.78l.05.54h-.07a5.27,5.27,0,0,0-.81.12c-.18,0-.26,0-.43-.15a5.22,5.22,0,0,0-9,4.72c.25,1.09.52,2.18.78,3.26.39,1.6.79,3.24,1.15,4.87A3.34,3.34,0,0,0,27,72.59l35,0,.23-.09.34-.13a4.78,4.78,0,0,0,3.34-3.49,5,5,0,0,0,.12-.69v0h.24c.37,0,.72,0,1.06,0h.16A5.8,5.8,0,0,0,68.75,68a4.58,4.58,0,0,0,3.37-4.22A10.64,10.64,0,0,0,71.31,59.27ZM57.57,65.83a1.17,1.17,0,0,0,.06,2.25,3.6,3.6,0,0,0,.76.09h5.17a2.25,2.25,0,0,1-1.79,2,4.37,4.37,0,0,1-1,.1H36c-.36,0-.39,0-.43-.32-.07-.48-.19-1-.31-1.44,0-.1-.05-.2-.07-.3H53.46a1.45,1.45,0,0,0,.82-.15c.17-.12.74-.54.75-1s-.57-1-.69-1.08a1.36,1.36,0,0,0-.84-.17h-.14c-6.11,0-12.23,0-18.35,0-.37,0-.42,0-.49-.37-.32-1.49-.67-3-1-4.5l-.31-1.34L52.72,57l2.58-.31c1.91-.23,3.88-.46,5.8-.81A6.91,6.91,0,0,1,66.64,57a7.73,7.73,0,0,1,3,5.32,6.36,6.36,0,0,1,0,1.69,1.94,1.94,0,0,1-2,1.68H58.39A2.83,2.83,0,0,0,57.57,65.83ZM33.18,70.22H27.85c-.29,0-.42-.1-.48-.36-.24-1-.49-2-.74-3-.46-1.9-.94-3.87-1.38-5.81a2.79,2.79,0,0,1,2.05-3.22,3.18,3.18,0,0,1,.74-.09,2.67,2.67,0,0,1,2.63,1.92c.43,1.56.8,3.17,1.15,4.72.14.59.27,1.18.41,1.78.25,1,.48,2.07.73,3.13ZM16,16.47a1.1,1.1,0,0,1,.18-1,1.22,1.22,0,0,1,1-.37h.19a7.77,7.77,0,0,1,5.41,2.72,5.31,5.31,0,0,1,1.05,5.77l-.95,0-2.51-.08a3.89,3.89,0,0,0-2.46.74l-.24-1C17.12,21,16.57,18.72,16,16.47Z"/><path class="cls-1" d="M56.88,41.59c0,.75-.5,1.21-1.36,1.28a5.12,5.12,0,0,0-4.81,3.62,7.6,7.6,0,0,0-.26,1.5c-.1.84-.56,1.33-1.32,1.32A1.26,1.26,0,0,1,47.86,48c-.29-3.15-2-4.85-5.21-5.17a1.29,1.29,0,0,1,0-2.58c3.15-.28,4.85-2,5.17-5.2a1.29,1.29,0,0,1,2.58,0c.28,3.15,2,4.85,5.2,5.17A1.27,1.27,0,0,1,56.88,41.59Zm-7.73,2,2-2c-.55-.55-1.47-1.51-2-2-.57.55-1.49,1.51-2,2Z"/><path class="cls-1" d="M44.79,26.32c0,.47-.31.76-.86.81a3.25,3.25,0,0,0-3,2.3,4.3,4.3,0,0,0-.17.95.83.83,0,0,1-.84.84.79.79,0,0,1-.8-.81,3.3,3.3,0,0,0-3.31-3.29.82.82,0,0,1,0-1.63,3.3,3.3,0,0,0,3.29-3.31.82.82,0,0,1,1.63,0A3.29,3.29,0,0,0,44,25.49.79.79,0,0,1,44.79,26.32Zm-4.91,1.1L41,26.3,39.9,25.21,38.78,26.3Z"/></svg>