<svg id="Layer_1" data-name="Layer 1" xmlns="http://www.w3.org/2000/svg" viewBox="0 0 85.04 85.04"><path d="M21.89,57.67v-1.8h-2.5a2.66,2.66,0,0,1-2.82-2.82c0-2,0-4,0-6.07a2.64,2.64,0,0,1,2.71-2.7H31c.5-2,1-4,1.5-5.92a8.71,8.71,0,0,1,.71-1.86,2,2,0,0,1,1.87-1.11.57.57,0,0,0,.62-.48c.44-1.27.87-2.55,1.37-3.81a8.17,8.17,0,0,1,4.78-4.88c5.16-2,10.28-4.2,15.42-6.29a1.36,1.36,0,0,0,.86-.83,4.08,4.08,0,0,1,4.38-2.43,3.82,3.82,0,0,1,3.28,3.23L70,42.11c.15.84-.21,1.27-1.06,1.28a5.29,5.29,0,0,0-2,.12c-.54.27-.85,1-1.25,1.54l-5,6.73c-.11.14-.21.29-.42.59a39.66,39.66,0,0,0,4.61-.24,4.27,4.27,0,0,0,3.4-4.25c0-.6,0-1.19,0-1.78a.83.83,0,0,1,.88-.92.82.82,0,0,1,.89.9,10.48,10.48,0,0,1-.4,4,6.22,6.22,0,0,1-5.76,4H58.61a.94.94,0,0,1-1-.5,1,1,0,0,1,.18-1.08c2.43-3.23,4.84-6.47,7.28-9.69a.92.92,0,0,0,.16-1Q61.66,32,58.11,22.1c0-.14-.11-.28-.18-.48l-2.77,1.13c-4.19,1.71-8.37,3.47-12.59,5.13A6.27,6.27,0,0,0,39,31.3c-.57,1.29-1,2.65-1.54,4.07h1c1.86,0,3.71,0,5.57,0a.53.53,0,0,0,.62-.45c.17-.63.4-1.23.62-1.84A5.87,5.87,0,0,1,47.63,30q4.11-2.62,8.24-5.19a1.21,1.21,0,0,1,.91-.16,1.12,1.12,0,0,1,.59.77,1.13,1.13,0,0,1-.48.84c-1.54,1-3.12,2-4.69,3-1.08.68-2.14,1.4-3.25,2a4.48,4.48,0,0,0-2.22,2.85c-.1.39-.25.77-.38,1.2a3.38,3.38,0,0,1,2.27,2.41c1.13,2.84,2.27,5.67,3.38,8.51a2.78,2.78,0,0,1,.2,1c0,1.87-.05,3.75,0,5.62a2.77,2.77,0,0,1-2.66,3v1.69c.66.06,1.34.06,2,.17a6.23,6.23,0,0,1,0,12.25,7.07,7.07,0,0,1-1.21.11H22.93a6.23,6.23,0,0,1-1.18-12.38S21.81,57.71,21.89,57.67Zm25.83-1.76h-24v1.74H39.48a1.63,1.63,0,0,1,.66.09.82.82,0,0,1,.46,1,.84.84,0,0,1-1,.67H32.47c-3.19,0-6.38,0-9.57,0A4.45,4.45,0,1,0,23,68.33H40.39c3.32,0,6.65,0,10,0a4.44,4.44,0,0,0,3.51-7.23,4.33,4.33,0,0,0-3.6-1.67h-6.9a.89.89,0,1,1,0-1.78h4.35ZM34.36,54.09H49.22c.9,0,1.2-.3,1.2-1.2s-.06-1.82,0-2.72a11.45,11.45,0,0,0-1.1-5.81c-.95-2.08-1.74-4.24-2.59-6.37a1.21,1.21,0,0,0-1.31-.85c-3.21,0-6.42,0-9.62,0-1,0-1.18.12-1.44,1.15-.56,2.22-1.11,4.45-1.66,6.67-.24,1-.41,1.09-1.42,1.09H19.54c-.89,0-1.19.3-1.19,1.2v5.51c0,1,.26,1.3,1.32,1.31ZM68,41.55a.86.86,0,0,0,0-.16c-1.32-7-2.67-14-3.94-21a2.22,2.22,0,0,0-2.84-1.79,2.18,2.18,0,0,0-1.41,3c2.37,6.45,4.69,12.93,7,19.4C67.13,41.7,67.13,41.7,68,41.55Z"/><path d="M35.27,63.87a2.67,2.67,0,1,1-2.7-2.66A2.65,2.65,0,0,1,35.27,63.87Zm-2.66.9a.89.89,0,1,0-.89-.87A.91.91,0,0,0,32.61,64.77Z"/><path d="M51.31,63.89a2.67,2.67,0,1,1-2.69-2.68A2.65,2.65,0,0,1,51.31,63.89Zm-1.79,0a.92.92,0,0,0-.9-.87.89.89,0,0,0,0,1.77A.92.92,0,0,0,49.52,63.87Z"/><path d="M27.26,63.88a2.68,2.68,0,1,1-2.7-2.67A2.66,2.66,0,0,1,27.26,63.88Zm-1.79,0a.89.89,0,1,0-.87.9A.92.92,0,0,0,25.47,63.87Z"/><path d="M43.29,63.87a2.67,2.67,0,1,1-2.7-2.66A2.65,2.65,0,0,1,43.29,63.87ZM40.63,63a.89.89,0,1,0,0,1.77.91.91,0,0,0,.86-.86A.92.92,0,0,0,40.63,63Z"/><path d="M39.88,46.06h-4c-1,0-1.32-.43-1.07-1.36.43-1.64.87-3.29,1.32-4.93.19-.67.41-.83,1.11-.83,2.32,0,4.64,0,7,0a1,1,0,0,1,1.06.7c1.07,2.56,2.16,5.12,3.22,7.68a2.13,2.13,0,0,1,.14.7c0,1.08,0,2.15,0,3.23,0,.75-.3,1.06-1,1.06-1.69,0-3.38,0-5.07,0a1,1,0,0,1-1-.52l-.06-.1C40.25,50.06,39.18,48.37,39.88,46.06Zm7,4.46a9.51,9.51,0,0,0-.17-2.66c-.85-2.3-1.87-4.55-2.83-6.81,0-.13-.2-.31-.32-.32-.67,0-1.35,0-2.07,0,0,2.56,0,5,0,7.52a.78.78,0,0,0,.14.41q.53.83,1.08,1.62a.58.58,0,0,0,.38.24C44.34,50.53,45.57,50.52,46.9,50.52Zm-9.15-9.78-.93,3.5h2.87v-3.5Z"/><path d="M20.13,50.08c0-.45,0-.89,0-1.34a.89.89,0,1,1,1.78,0q0,1.37,0,2.73a.89.89,0,0,1-1.78,0C20.12,51,20.13,50.54,20.13,50.08Z"/><path d="M25.47,50.09c0,.47,0,.93,0,1.4a.83.83,0,0,1-.91.83.81.81,0,0,1-.86-.83c0-.92,0-1.85,0-2.78a.89.89,0,0,1,1.77,0C25.49,49.17,25.47,49.63,25.47,50.09Z"/><path d="M29,50.13c0,.43,0,.85,0,1.28a.89.89,0,1,1-1.77,0c0-.88,0-1.77,0-2.66a.85.85,0,0,1,.87-.89.86.86,0,0,1,.91.9v1.39Z"/><path d="M62.89,21.14a.89.89,0,0,1-1.78-.05.88.88,0,0,1,1-.87A.87.87,0,0,1,62.89,21.14Z"/></svg>