<svg id="Layer_1" data-name="Layer 1" xmlns="http://www.w3.org/2000/svg" viewBox="0 0 85.04 85.04"><defs><style>.cls-1{fill:#1d1d1b;}</style></defs><path class="cls-1" d="M71.34,61.25a3.6,3.6,0,0,0,.6-4,3.51,3.51,0,0,0-3.38-2.16H67.33c-.67,0-1.34,0-2,0a3.92,3.92,0,0,0-3,1.26c-1.54,1.56-3,3-4.41,4.4a.85.85,0,0,1-.51.23q-14.88,0-29.77,0H25.87a1.23,1.23,0,0,1-.71-.46,1.2,1.2,0,0,1-.34-.73l.33-2.25q.5-3.41,1-6.81a4.93,4.93,0,0,0-.43-3.4.58.58,0,0,1,0-.34c.13-.95.27-1.91.41-2.87l.36-2.46c.38-2.61.75-5.22,1.14-7.83.48-3.33,1-6.65,1.46-10q.15-1.08.33-2.19l.08-.57h1.19c1.38,0,2.73,0,4.08,0a1.56,1.56,0,0,1,.73.21,4.68,4.68,0,0,0,7.12-3,4.4,4.4,0,0,0-1.82-4.72,4.42,4.42,0,0,0-5.1-.25,2.16,2.16,0,0,1-1.15.31H24.42A3.71,3.71,0,0,0,23,20.83l.06,0-.26,1.74c-.21,1.36-.41,2.71-.61,4.06L21,34.3q-.78,5.48-1.58,10.94a3.11,3.11,0,0,0,0,.32,1.51,1.51,0,0,1-.18.74,5.82,5.82,0,0,0-1.49,3.76l0,.12c-.37,2.64-.77,5.37-1.24,8.37a.82.82,0,0,1-.33.46,7.21,7.21,0,0,0-3.21,4.08c-.07.24-.14.48-.2.72l-.09.34v2l0,.07c.05.19.11.38.17.57a9.53,9.53,0,0,0,.42,1.24,7,7,0,0,0,5.23,4.14l.11,0,.09,0,2.07,0h.07l.43-.12c.31-.08.64-.17,1-.28A7,7,0,0,0,26,68.65a.4.4,0,0,1,.44-.27h32a.61.61,0,0,1,.37.15A7.15,7.15,0,0,0,64,72.22l.13.1h2l.18-.06.26-.07a7.14,7.14,0,0,0,5.79-6.84,7.4,7.4,0,0,0-1.07-4Zm-6.73,3.42a.72.72,0,0,1,.51-.21h0a.73.73,0,0,1,.72.72.74.74,0,0,1-.71.71h0a.73.73,0,0,1-.52-1.22Zm-2.26,2.14a3.15,3.15,0,0,0,3.41,1.51,3,3,0,0,0,2.53-2.54A3.29,3.29,0,0,0,67,62.49h.36a4,4,0,0,0,.85,0c.53-.09.8.09,1.09.7a4.65,4.65,0,0,1-8,4.69.35.35,0,0,1-.05-.08Zm6.27-6.87a6.28,6.28,0,0,1-1.43,0A2.89,2.89,0,0,0,64.55,61c-.87.93-1.79,1.84-2.69,2.73-.53.52-1,1-1.57,1.57a1.81,1.81,0,0,1-1.37.57H27l-.17-2.45H57.66a2.37,2.37,0,0,0,1.84-.77c.87-.9,1.75-1.77,2.64-2.65l1.92-1.93a1.77,1.77,0,0,1,1.41-.58h3.06a1.22,1.22,0,0,1,1.19.82,1.11,1.11,0,0,1-.33,1.28A1.58,1.58,0,0,1,68.62,59.94ZM27,21.1,23.4,45.39,22,45.18,25.49,21.1ZM20.23,50.32l.18-1.19a1.71,1.71,0,0,1,1.95-1.42,1.67,1.67,0,0,1,1.08.64,1.62,1.62,0,0,1,.33,1.23c-.3,2.22-.63,4.44-.94,6.6l-.32,2.24-3.38-.5Zm4.21,14.84a4.66,4.66,0,0,1-4.64,4.68h0a4.73,4.73,0,0,1-4.67-4.67,4.58,4.58,0,0,1,1.35-3.27,4.65,4.65,0,0,1,3.31-1.38h0a4.61,4.61,0,0,1,4.65,4.64ZM23,17.24a1.09,1.09,0,0,1,1.06-1.06h9.33v2.4h-9.1a1.33,1.33,0,0,1-1-.38A1.22,1.22,0,0,1,23,17.24Zm12.79.18a2.16,2.16,0,0,1,.59-1.55A2.19,2.19,0,0,1,38,15.16h.07a2.27,2.27,0,0,1,2.18,2.13,2.07,2.07,0,0,1-.54,1.52,2.33,2.33,0,0,1-1.59.76A2.1,2.1,0,0,1,36.55,19,2.23,2.23,0,0,1,35.83,17.42Z"/><path class="cls-1" d="M29.4,32.58q0,8.43,0,16.86a3.11,3.11,0,0,0,2.16,3,4.74,4.74,0,0,0,1.38.19H63.77a6.24,6.24,0,0,0,.78,0,3.06,3.06,0,0,0,2.62-2.12,5.23,5.23,0,0,0,.19-1.5c0-.58,0-1.15,0-1.75v-.52h.43c.47,0,.91,0,1.36,0a3.14,3.14,0,0,0,3.12-3.22V38.61A3.2,3.2,0,0,0,69,35.33H67.37V34.06c0-.59,0-1.19-.05-1.79a3.12,3.12,0,0,0-3.13-2.84H32.55A3.15,3.15,0,0,0,29.4,32.58ZM31.87,49V33c0-.92.21-1.13,1.13-1.13H63.77c.9,0,1.09.19,1.09,1.09V49.06c0,.86-.19,1-1,1H33C32.06,50.11,31.87,49.92,31.87,49ZM67.4,44.21V37.86h.4c.48,0,.93,0,1.38,0a.64.64,0,0,1,.62.74c0,1.57,0,3.2,0,4.83a.71.71,0,0,1-.68.76c-.44,0-.88,0-1.35,0Z"/><path class="cls-1" d="M19.83,62a3.18,3.18,0,0,0-2.29.92,3.12,3.12,0,0,0-1,2.26,3.22,3.22,0,0,0,3.18,3.25h0a3.22,3.22,0,0,0,0-6.43Zm.67,3.21a.72.72,0,1,1-1.43,0,.73.73,0,0,1,.7-.71h0a.7.7,0,0,1,.5.2A.68.68,0,0,1,20.5,65.17Z"/><path class="cls-1" d="M35.83,47.7H52.52A1.47,1.47,0,0,0,54,46.77l3.51-7.62,1.33-2.86A1.62,1.62,0,0,0,59,36a1.21,1.21,0,0,0-.15-1.12,1.59,1.59,0,0,0-1.32-.53H35.83c-1.07,0-1.51.43-1.51,1.49V46.19C34.32,47.24,34.79,47.7,35.83,47.7ZM45.1,36.84c1,0,2,0,3,0h.84l0,.08-.44.94c-1.07,2.34-2.14,4.67-3.23,7a.72.72,0,0,1-.29.29c-1.09,0-2.17,0-3.32,0h-.67L41,45l.95-2c.88-1.91,1.77-3.82,2.64-5.74C44.75,36.9,44.81,36.84,45.1,36.84Zm-8.25,8.34v-8.3H42l-.06.16-1,2.05Q39.66,42,38.35,44.82c-.14.32-.27.39-.56.37a3.62,3.62,0,0,0-.46,0h-.48Zm11,0c0-.09.07-.17.1-.24l1-2.2q1.3-2.79,2.58-5.59c.12-.26.23-.31.44-.31,1,0,2,0,3,0h.81l-.73,1.58c-.79,1.73-1.57,3.42-2.35,5.11-.08.17-.15.35-.22.54a2.25,2.25,0,0,1-.6,1,2,2,0,0,1-1.12.09,5.63,5.63,0,0,0-.58,0H47.84Z"/><path class="cls-1" d="M58.36,46.18A1.24,1.24,0,0,0,57,47.4a1.17,1.17,0,0,0,.32.88,1.36,1.36,0,0,0,1,.38h3.75a1.21,1.21,0,0,0,1.34-1.35c0-1.23,0-2.47,0-3.7a1.47,1.47,0,0,0-.39-1,1.26,1.26,0,0,0-2.09,1.07c0,.62,0,1.23,0,1.87v.68H58.36Z"/></svg>