<svg id="Layer_1" data-name="Layer 1" xmlns="http://www.w3.org/2000/svg" viewBox="0 0 85.04 85.04"><defs><style>.cls-1{fill:#1d1d1b;}</style></defs><path class="cls-1" d="M76,61.79l0-1.62L75.91,60a1.42,1.42,0,0,1-.08-.18,4,4,0,0,0-3.92-2.92H70.5c-.7,0-1.43,0-2.13,0h-.15A4.28,4.28,0,0,0,65,58.31c-1.73,1.75-3.32,3.34-4.88,4.86a1.26,1.26,0,0,1-.78.32c-2,0-4.06,0-6,0h-29a1.51,1.51,0,0,1-1-.59A1.3,1.3,0,0,1,23,62l.42-2.9c.35-2.39.71-4.85,1.09-7.27A5.42,5.42,0,0,0,24,48.17a.89.89,0,0,1,0-.46c.25-1.7.49-3.4.74-5.11l.54-3.66q1.44-9.9,2.86-19.79c.05-.35.15-.43.52-.43h5.67a1.61,1.61,0,0,1,.74.24,4.93,4.93,0,0,0,3.8.74,5,5,0,0,0,4-4,5.1,5.1,0,0,0-7.65-5.36,2.29,2.29,0,0,1-1.11.32c-2.06,0-4.11,0-6.17,0h-5.3a4,4,0,0,0-1.51,7.79l.11.06-.44,3q-.6,4-1.19,8c-.37,2.53-.73,5-1.1,7.58-.41,2.9-.83,5.81-1.26,8.71,0,.1,0,.22,0,.33a1.81,1.81,0,0,1-.27,1,6.53,6.53,0,0,0-1.6,4.07v.07q-.31,2.29-.66,4.59c-.23,1.58-.46,3.17-.68,4.76a.9.9,0,0,1-.5.72,7.85,7.85,0,0,0,1.26,14.08,11.3,11.3,0,0,0,1.08.35l.51.14h2.27l.49-.14a10.6,10.6,0,0,0,1.06-.31,7.64,7.64,0,0,0,4.19-3.58.59.59,0,0,1,.62-.36H39.26l21.41,0a.75.75,0,0,1,.53.23,7.85,7.85,0,0,0,5.67,4l0,0,.06,0,0,0h2.15l.44-.12c.32-.08.66-.17,1-.28a7.76,7.76,0,0,0,5.25-5.94,1.43,1.43,0,0,1,.08-.22,1.17,1.17,0,0,0,0-.11V67l-1.09-3.18ZM67.2,68a.9.9,0,0,1,.92-.87h0a.89.89,0,0,1,.66.3.93.93,0,0,1,.25.67,1,1,0,0,1-.93.88h0a.9.9,0,0,1-.65-.3A.88.88,0,0,1,67.2,68Zm-2.15,1.69a3.42,3.42,0,0,0,3.7,1.76,3.25,3.25,0,0,0,2.74-2.63A3.44,3.44,0,0,0,69.7,65h1.5c1.43,0,1.45,0,1.94,1.38A5.31,5.31,0,0,1,63.67,71Zm7.81-7.63a2,2,0,0,1-.94.29c-.77.05-1.55,0-2.3,0a2,2,0,0,0-1.49.61c-.81.83-1.63,1.64-2.45,2.46s-1.89,1.89-2.82,2.84a2.27,2.27,0,0,1-1.72.72H25.42l-.21-3h6.91c9.06,0,18.43,0,27.65,0h0a2.51,2.51,0,0,0,2-.82c1-1,2-2,2.93-3q1.1-1.08,2.16-2.16a2.15,2.15,0,0,1,1.67-.69c.58,0,1.16,0,1.74,0s1.12,0,1.68,0a1.46,1.46,0,0,1,1.46,1.06A1.36,1.36,0,0,1,72.86,62.08ZM25.65,18.76l-4,27.38-1.86-.26,4-27.12ZM22.83,68.09a5.34,5.34,0,0,1-5.3,5.33h0a5.43,5.43,0,0,1-5.33-5.36,5.35,5.35,0,0,1,5.36-5.3h0a5.26,5.26,0,0,1,5.3,5.33ZM20.36,48.46a1.91,1.91,0,0,1,1.3.72,2,2,0,0,1,.42,1.48c-.19,1.57-.42,3.15-.65,4.69l-.2,1.42c-.14,1-.28,1.92-.42,2.84l-.16,1.07-4-.58.19-1.3c.16-1.17.33-2.38.5-3.6.25-1.69.5-3.38.76-5A2,2,0,0,1,20.36,48.46ZM22.58,16.2a1.62,1.62,0,0,1-1.22-.49,1.54,1.54,0,0,1-.34-1.2,1.32,1.32,0,0,1,1.24-1.23c1.73,0,3.47,0,5.2,0h5.41v2.93H22.58Zm12.71-1.49a2.61,2.61,0,0,1,2.54-2.59h.05a2.53,2.53,0,0,1,1.77.74,2.62,2.62,0,0,1,.81,1.84,2.52,2.52,0,0,1-.74,1.81,2.61,2.61,0,0,1-1.85.79h0A2.57,2.57,0,0,1,36,16.54,2.52,2.52,0,0,1,35.29,14.71Z"/><path class="cls-1" d="M45.6,39a13.73,13.73,0,0,0,8.71,8.68c.38.14.49.28.47.67,0,.65,0,1.32,0,2,0,.27,0,.53,0,.8v1.41H35.61a4.85,4.85,0,0,0-.66,0,1.24,1.24,0,0,0-.35,2.36,2.53,2.53,0,0,0,.86.13H54.67a2.36,2.36,0,0,0,2.61-2.62v-4h3V49c0,.57,0,1.15,0,1.73,0,.28,0,.57,0,.85a11.07,11.07,0,0,1-.1,2.08A5.19,5.19,0,0,1,54.91,58H44.22a1.63,1.63,0,0,0-1.22.42,1.16,1.16,0,0,0-.33.88c0,.79.58,1.26,1.52,1.26h10.7a7.79,7.79,0,0,0,7.66-6.15,12.31,12.31,0,0,0,.23-2.5v-.4c0-.89,0-1.79,0-2.65,0-.34,0-.67,0-1A14,14,0,0,0,72,38.72c1-2.92.75-6,.57-8.74A3.26,3.26,0,0,0,70,27.29l-.58-.11V13.79a4,4,0,0,0-4-4.17h0a4,4,0,0,0-4,4.18V27.14H56.2V24c0-3.28,0-6.57,0-9.85A9.29,9.29,0,0,0,56.12,13,4,4,0,0,0,51.3,9.71a4,4,0,0,0-3.15,4.22V27.18l-.07,0-.21.05a3.44,3.44,0,0,0-3,3.6v1.41c0,.75,0,1.51,0,2.26A13.19,13.19,0,0,0,45.6,39Zm8-14.73v2.92h-.45c-.78,0-1.53,0-2.29,0l-.12,0v-2.9Zm-2.89-3q0-3.69,0-7.4a1.52,1.52,0,0,1,1.46-1.71h0a1.36,1.36,0,0,1,1,.39,1.79,1.79,0,0,1,.48,1.3v7.47c0,.11,0,.22,0,.35v.05h-2.9v-.08C50.7,21.48,50.7,21.36,50.7,21.24Zm16.11,3v2.88h-2.9V24.27Zm0-10.33v7.39c0,.1,0,.19,0,.3v0h-3V13.9A1.52,1.52,0,0,1,65,12.21a1.44,1.44,0,0,1,1.84,1.12A3.15,3.15,0,0,1,66.86,13.94ZM47.61,30c.25-.26.83-.27,1.85-.27H68.91a1.31,1.31,0,0,1,1,.26,1.34,1.34,0,0,1,.25,1c0,.48,0,1,0,1.44A33.49,33.49,0,0,1,70,36.18a11.16,11.16,0,0,1-9.35,9.56,11.29,11.29,0,0,1-13-8.75,20.09,20.09,0,0,1-.3-4c0-.37,0-.75,0-1.12C47.36,30.78,47.37,30.26,47.61,30Z"/><path class="cls-1" d="M30,52.53H29.3a8.45,8.45,0,0,0-.87,0A1.24,1.24,0,0,0,28.38,55c.41,0,.83,0,1.24,0s.81,0,1.22,0a1.24,1.24,0,0,0,0-2.48A7.15,7.15,0,0,0,30,52.53Z"/><path class="cls-1" d="M17.54,64.61h0a3.46,3.46,0,0,0,0,6.92h0A3.48,3.48,0,0,0,21,68.1a3.41,3.41,0,0,0-1-2.45A3.47,3.47,0,0,0,17.54,64.61Zm.65,4.09a.9.9,0,0,1-.65.3h0a.94.94,0,0,1-.92-.88.89.89,0,0,1,.24-.67.93.93,0,0,1,.67-.3h0a.91.91,0,0,1,.92.87A1,1,0,0,1,18.19,68.7Z"/><path class="cls-1" d="M56.19,39.64l2.58,0,2.58,0a1.51,1.51,0,0,0,1.11-.43,1.18,1.18,0,0,0,.33-.86,1.33,1.33,0,0,0-1.47-1.26h-5.1a1.28,1.28,0,0,0-1.44,1.26,1.26,1.26,0,0,0,.32.9A1.51,1.51,0,0,0,56.19,39.64Z"/><path class="cls-1" d="M60.33,41.49q-.54,0-1.08,0h-.94c-.35,0-.72,0-1.08,0a1.28,1.28,0,1,0,0,2.56l1.58,0,1.52,0a1.25,1.25,0,0,0,1.33-1.31A1.27,1.27,0,0,0,60.33,41.49Z"/></svg>