<svg id="Layer_1" data-name="Layer 1" xmlns="http://www.w3.org/2000/svg" viewBox="0 0 85.04 85.04"><defs><style>.cls-1{fill:#1d1d1b;}</style></defs><path class="cls-1" d="M69.25,61.47a1,1,0,0,1-.6-.74Q67,54.54,65.24,48.36a2.84,2.84,0,0,0-.4-.82,2.26,2.26,0,0,1-.16-.26L64.49,47a1.16,1.16,0,0,1-.22-.38q-2.49-9-4.95-18l-2-7.47L56.6,18.7l3.62-.81a2.71,2.71,0,0,0,2.32-2.48,4.08,4.08,0,0,0-.12-1.05c0-.17-.07-.34-.09-.51A3.19,3.19,0,0,0,60.16,11l-1.33,0-.33.14-2.64.59-3.74.84a4.08,4.08,0,0,0-2.68,1.83,4,4,0,0,0-.34,3.22l3,10.93,5.46,20a1.56,1.56,0,0,1,0,.39,1.55,1.55,0,0,0,0,.22c0,.13,0,.26,0,.4a3.24,3.24,0,0,0,0,1c.17.7.36,1.4.55,2.09s.35,1.25.5,1.88a.75.75,0,0,1-.07.49c-2,2.25-4.24,4.69-7,7.68a.58.58,0,0,1-.36.17q-10.29,0-20.59,0a.45.45,0,0,1-.27-.18,10.5,10.5,0,0,0-8.75-6,10.21,10.21,0,0,0-8.79,3.42,2.87,2.87,0,0,0-.77,2.13,3.13,3.13,0,0,0,1,2.17,5.18,5.18,0,0,0,.93.71c.39.22.46.4.29.77a2.12,2.12,0,0,0-.16.76v.13A6.58,6.58,0,0,0,19,73.67a6.34,6.34,0,0,0,1.76.25,6.54,6.54,0,0,0,5.9-3.76c.15-.33.25-.4.61-.4h0c8.45,0,16.89,0,25.33,0h0a4,4,0,0,0,3.2-1.4c.69-.78,1.4-1.55,2.1-2.32l3-3.33A1.38,1.38,0,0,1,60.69,64a5.88,5.88,0,0,0-.83,4.51,6.58,6.58,0,1,0,9.39-7.06Zm-5.78-.1-3-11,2.29-.63,3,11Zm2.87,9.76h0A3.71,3.71,0,0,1,63.68,70a3.8,3.8,0,0,1-1.11-2.68,3.73,3.73,0,0,1,3.77-3.77h0A3.76,3.76,0,0,1,69,64.68a3.69,3.69,0,0,1,1.11,2.65A3.84,3.84,0,0,1,66.34,71.13Zm-6.91-57.3a.79.79,0,0,1,.09.28c.22,1,.22,1-.78,1.23l-1.4.32c-.66.14-1.31.29-2,.45a2.19,2.19,0,0,0-1.47,1,2.23,2.23,0,0,0-.16,1.76q2.48,9,4.94,18l2.67,9.73c0,.17.09.34.13.51l-1.28.37L51.85,17a1.58,1.58,0,0,1,0-1.21,1.54,1.54,0,0,1,1-.57l2.63-.58,3.69-.82ZM18,64.7a3.72,3.72,0,0,1,2.68-1.13h0a3.74,3.74,0,0,1,3.78,3.75,3.8,3.8,0,0,1-3.75,3.81h0a3.84,3.84,0,0,1-3.77-3.77A3.71,3.71,0,0,1,18,64.7Zm42-5.22a.45.45,0,0,1-.1.16l-.79.87c-1.81,2-3.69,4.07-5.56,6.08a1.35,1.35,0,0,1-.85.37C45.16,67,37.57,67,30,67H27.33a6.41,6.41,0,0,0-4.42-5.81,6.38,6.38,0,0,0-7.1,1.78l-.05,0c-.21-.15-.42-.3-.62-.46s-.27-.25-.27-.33.07-.21.22-.35a7.53,7.53,0,0,1,4.07-2.19,7.88,7.88,0,0,1,9,4.93,1.51,1.51,0,0,0,1.7,1.14H51.75a2,2,0,0,0,1.57-.72l4.12-4.53,2.13-2.35,0-.06C59.78,58.55,59.93,59,60,59.48Z"/><path class="cls-1" d="M23.13,37.63c.44,0,.89,0,1.34,0h3.16v8.1A2.23,2.23,0,0,0,29.83,48a2.13,2.13,0,0,0,1.84-1.16c2.91-5,5.82-10,8.7-15.07a3.09,3.09,0,0,0,.37-1.71,2.71,2.71,0,0,0-2.93-2.5H33.54V24.8c0-1.77,0-3.53,0-5.3a2.31,2.31,0,0,0-.73-1.74,2,2,0,0,0-1.59-.54,2.29,2.29,0,0,0-1.82,1.29q-1.93,3.38-3.89,6.73l-2.4,4.14c-.77,1.33-1.54,2.65-2.3,4a2.88,2.88,0,0,0-.11,2.82A2.84,2.84,0,0,0,23.13,37.63Zm9.41-7.23h5.39a.8.8,0,0,1-.08.17L30.68,43l-.27.46V36.5c0-1.15-.51-1.67-1.67-1.67H23.22a.78.78,0,0,1,.08-.16l6.9-11.94.52-.88v6.72C30.71,29.9,31.21,30.4,32.54,30.4Z"/></svg>