<svg id="Layer_1" data-name="Layer 1" xmlns="http://www.w3.org/2000/svg" viewBox="0 0 85.04 85.04"><defs><style>.cls-1{fill:#1d1d1b;}</style></defs><path class="cls-1" d="M78.52,52.26a2.59,2.59,0,0,0-.46-1.52,11.63,11.63,0,0,0-4.57-4.26,11.27,11.27,0,0,0-5-1.3h-.21a11.21,11.21,0,0,0-5.94,1.7,11.38,11.38,0,0,0-3.57,3.47.93.93,0,0,1-.9.49h0c-7.22,0-15,0-24.37,0h0a1.24,1.24,0,0,1-1-.4l-.34-.34c-3.15-3.16-6.4-6.43-9.63-9.62a1.1,1.1,0,0,1-.34-1.23c.21-.82.22-.82,1-.73l2.48.25,3.67.38,2.28.26c.82.09,1.63.19,2.45.27l2.5.25,2.27.23,2.43.27,1.36.15,1.21.14,3.78.41,2.57.27,2.25.23,5.75.62,2.27.25,2.55.29.31,0c1.53.16,3.12.34,4.69.47A1.28,1.28,0,0,0,69.59,42c.11-1.08.23-2.16.34-3.23.21-1.93.42-3.92.61-5.87,0-.18,0-.36,0-.53A6.09,6.09,0,0,0,70.3,29a4.49,4.49,0,0,0-2.71-2.52,3.42,3.42,0,0,1-1.76-1,10.71,10.71,0,0,0-1-1l-.12-.1A1.26,1.26,0,0,0,63,24.2,1.18,1.18,0,0,0,62.78,26a3.71,3.71,0,0,0,.57.62c.14.11.17.18.17.21s-.06.11-.16.18a4.78,4.78,0,0,0-1.81,2.53,4.07,4.07,0,0,0,.35,3.38A5.84,5.84,0,0,0,62.82,34c.19.2.39.41.56.62a.67.67,0,0,1,.13.46.61.61,0,0,1-.33.1c-1.55-.13-3.18-.29-5.31-.49l-4.3-.44L53,34.21,51,34l-3.26-.34-2.31-.21-2.78-.26-4.45-.47-4.38-.46c-1.4-.15-2.8-.28-4.2-.42l-6.33-.64a1.54,1.54,0,0,0-1.73,1.13c-.24.73-.46,1.48-.67,2.2l-.16.54c-.08.25-.19.28-.35.23l-.53-.14c-.67-.19-1.37-.38-2-.6a1.53,1.53,0,0,0-1.16.06,1.21,1.21,0,0,0-.6.78c-.21.76-.4,1.53-.58,2.28-.07.27-.13.54-.2.8-.13.55-.26,1.09-.4,1.64-.19.8-.39,1.6-.59,2.41s-.41,1.65-.65,2.46a.51.51,0,0,1-.3.23,13.23,13.23,0,0,0-3.74,1,1.49,1.49,0,0,0-.95,1,1.47,1.47,0,0,0,.49,1.3l.43.43.56.56a.54.54,0,0,1,.11.14s0,0-.09.09A7.74,7.74,0,0,0,6.7,54.44a.56.56,0,0,1-.13.18l-.1.12,0,0v3.67l0,0,.09.13a2.11,2.11,0,0,1,.18.27l.27.69a6.61,6.61,0,0,0,.62,1.32A7.82,7.82,0,0,0,14,64.6a7.74,7.74,0,0,0,5.57-1.8,8.12,8.12,0,0,0,2.74-4.44,7.56,7.56,0,0,0-.21-4.3,8.06,8.06,0,0,0-2.28-3.46.54.54,0,0,1-.15-.38c.16-.81.34-1.63.55-2.43.06-.22.11-.23.11-.23s.06,0,.24.16l.71.71L22.9,50.1l.53.55.16.17a1.35,1.35,0,0,0-.31,0H23.2a1.23,1.23,0,0,0-1,1.65,1.18,1.18,0,0,0,1.19.88h.05a1.12,1.12,0,0,1,.9.35c.9.91,1.8,1.82,2.71,2.72s2.06,2.06,3.08,3.1a1.94,1.94,0,0,0,1.47.62H60.71a.59.59,0,0,1,.6.36,4.66,4.66,0,0,0,.32.53l0,.06a7.52,7.52,0,0,0,4.68,3.3,8.76,8.76,0,0,0,2,.24,7.78,7.78,0,0,0,4.12-1.19A8.29,8.29,0,0,0,76,59a2.71,2.71,0,0,0,.09-.41c0-.21.07-.43.18-.52a1.3,1.3,0,0,1,.67-.12h.33a1.34,1.34,0,0,0,1.26-1.34V55.33C78.49,54.32,78.49,53.28,78.52,52.26Zm-14.14,7.9h3.9a3.69,3.69,0,0,0,2.88-1.48,3.63,3.63,0,0,0,.49-3.22,3.47,3.47,0,0,0-3.18-2.41c-.86,0-1.74,0-2.59,0H64.44a.53.53,0,0,1-.16,0,.4.4,0,0,1,.09-.16,5.34,5.34,0,0,1,4.44-1.64,5.28,5.28,0,0,1,4.08,2.54,5.34,5.34,0,0,1,.61,4.3,5,5,0,0,1-2.6,3.29,5.34,5.34,0,0,1-3.21.65,5.58,5.58,0,0,1-3.38-1.68s0-.06,0-.1A.24.24,0,0,1,64.38,60.16Zm1.87-11.33a7.62,7.62,0,0,0-5,3.85c-.2.36-.38.72-.55,1.08a1.28,1.28,0,0,0,0,1.22,1.41,1.41,0,0,0,1.15.68c.35,0,.71,0,1.05,0h1.66c1.11,0,2.26,0,3.39,0a1.67,1.67,0,0,1,.88.28.71.71,0,0,1,.27.86,1,1,0,0,1-.85.69,2.82,2.82,0,0,1-.41,0H32.5A1.47,1.47,0,0,1,31.26,57a.59.59,0,0,1-.07-.16.33.33,0,0,1,.15,0H45.52a1.5,1.5,0,0,0,1.42-.68,1.31,1.31,0,0,0-1.16-2c-1.26,0-2.55,0-3.8,0H37.65c-2.88,0-5.86,0-8.79,0h0a1.22,1.22,0,0,1-1-.55l-.19-.21h7.7c7.67,0,15.58,0,23.37,0h0a1.92,1.92,0,0,0,1.9-1.14A8.77,8.77,0,0,1,70.09,48a8.49,8.49,0,0,1,5.32,3.44A2.65,2.65,0,0,1,76,53.41a4.32,4.32,0,0,0,0,.5,1.28,1.28,0,0,1,0,.19l-.2-.44a7.87,7.87,0,0,0-4-4.29A7.6,7.6,0,0,0,66.25,48.83Zm-37.37,2c-.55,0-1,0-1.5,0,0,0-.11,0-.25-.17l-3.44-3.43-2.5-2.49c-.23-.23-.16-.5-.07-.81a5.9,5.9,0,0,1,.23-.67l.06-.14.1.08a4.84,4.84,0,0,1,.48.4c2.37,2.35,4.72,4.71,7.08,7.07a.9.9,0,0,1,.14.17ZM64,30.78a2,2,0,0,1,.62-1.49,1.9,1.9,0,0,1,1.41-.53,2,2,0,0,1,2,2.06,2,2,0,0,1-2.06,2h0a1.93,1.93,0,0,1-1.4-.57A2.07,2.07,0,0,1,64,30.78Zm2.23,5.77v-.32a3,3,0,0,1,0-.52.52.52,0,0,1,.13-.26c.31-.07.62-.11,1-.16l.25,0-.09,1c-.08.89-.16,1.75-.25,2.62a4.78,4.78,0,0,1-.06.53c0,.28-.06.57-.08.85a.39.39,0,0,1-.09.28.51.51,0,0,1-.32,0c-1.48-.17-3-.32-4.45-.47l-3.17-.32-3-.35-1.71-.19-.39,0-3.26-.36-2.25-.22L46,38.3l-3.75-.41-2.69-.3-2.7-.3-9.63-1-3.7-.39c-.19,0-.25-.06-.27-.09a.47.47,0,0,1,0-.28c0-.09.06-.18.1-.28s.18-.52.25-.79.22-.46.51-.46h.13l2.82.28,1.73.17,1.76.17,8.46.85,4.5.47,4.42.46,2.75.26,2.16.21,2.55.26,3,.3c2.06.2,4.2.41,6.35.58a1.3,1.3,0,0,0,1-.32A1.5,1.5,0,0,0,66.26,36.55Zm-53.49,12-.48-.47,0-.06.49,0,0,.53Zm-1,4c-.18.77-.36,1.5-.55,2.23l-.05.18a4.42,4.42,0,0,0-.16,2.7,3.48,3.48,0,0,0,1.74,2.07,3.44,3.44,0,0,0,2.84.23A3.72,3.72,0,0,0,17.73,58a6.46,6.46,0,0,0,.36-1.44c0-.24.08-.48.13-.71.13-.61.3-1.32.48-2.05a.51.51,0,0,1,.13-.18h0a.94.94,0,0,1,.17.18A5.24,5.24,0,0,1,19.65,58a5.09,5.09,0,0,1-2.51,3.33A5.23,5.23,0,0,1,14,62a5.33,5.33,0,0,1-4.42-3.08,5.18,5.18,0,0,1-.24-4.08,5,5,0,0,1,2.66-3h0C11.92,52.07,11.86,52.35,11.79,52.62Zm6.5-8.19c-.14.56-.27,1.12-.4,1.69l-.6,2.41-.47,1.89-.33,1.3-.2.84-.78,3.16c0,.24-.08.49-.11.74l0,.24a1,1,0,0,1-.94.83h0a.91.91,0,0,1-.87-1l.13-.55c.11-.48.23-1,.36-1.47.08-.33.17-.65.25-1l.3-1.11c.39-1.59.9-3.67,1.41-5.78.19-.8.38-1.59.56-2.39s.43-1.83.65-2.75.43-1.7.65-2.55c.11-.43.22-.87.34-1.31,0-.12.06-.18.11-.21s.13,0,.2,0l.57.19a6.4,6.4,0,0,1,.62.2.42.42,0,0,1,.16.2c-.21.88-.43,1.76-.65,2.64l-.45,1.78C18.58,43.14,18.44,43.79,18.29,44.43Z"/><path class="cls-1" d="M14,28.64c.65.21,1.1,0,1.67-.67a9.87,9.87,0,0,1,7-3.69,9.67,9.67,0,0,1,4.63.76,12.26,12.26,0,0,1,1.39.73l.55.31h0l-.16,0H29a1.33,1.33,0,0,0-1.2.91,1,1,0,0,0,.27,1.2,1.52,1.52,0,0,0,1,.47c.56,0,1.13,0,1.73,0l1.64,0a1.25,1.25,0,0,0,1.29-1.25c0-1.18,0-2.36,0-3.5a1.23,1.23,0,0,0-1.29-1.18h0a1.23,1.23,0,0,0-1.27,1.14,2.17,2.17,0,0,1,0,.3,1.79,1.79,0,0,1-.23-.15,12.24,12.24,0,0,0-4.91-2.2,12.64,12.64,0,0,0-7.77.91,13.06,13.06,0,0,0-4.77,3.85,1.22,1.22,0,0,0-.2,1.13A1.32,1.32,0,0,0,14,28.64Z"/><path class="cls-1" d="M54.37,32a.9.9,0,0,0,.43.12,1.37,1.37,0,0,0,.74-.28,1.47,1.47,0,0,0,.61-1.21,4.21,4.21,0,0,1,.6-2.1,4.47,4.47,0,0,1,3.69-2.08,1.28,1.28,0,0,0,.68-2.37,2.32,2.32,0,0,0-.74-.2l-.32,0h0a7,7,0,0,0-4.64,2.22,6.8,6.8,0,0,0-1.9,4.7A1.36,1.36,0,0,0,54.37,32Z"/><path class="cls-1" d="M50.33,54.16h0a1.34,1.34,0,0,0-1.26,1.33,1.36,1.36,0,0,0,.43,1,1.17,1.17,0,0,0,.81.35h.05a1.54,1.54,0,0,0,1-.51,1.06,1.06,0,0,0,.29-.81,1.36,1.36,0,0,0-.42-1A1.3,1.3,0,0,0,50.33,54.16Z"/><path class="cls-1" d="M66,32.13h0a1.34,1.34,0,0,0,.91-.43,1.3,1.3,0,0,0,.43-.91,1.42,1.42,0,0,0-1.32-1.29h0a1.43,1.43,0,0,0-1,.45,1.27,1.27,0,0,0-.38.88A1.5,1.5,0,0,0,66,32.13Z"/></svg>