<svg id="Layer_1" data-name="Layer 1" xmlns="http://www.w3.org/2000/svg" viewBox="0 0 85.04 85.04"><defs><style>.cls-1{fill:#1d1d1b;}</style></defs><path class="cls-1" d="M64.5,21.15a30.79,30.79,0,0,0-21.91-9.1h0a31,31,0,0,0,0,62.09h0a31,31,0,0,0,21.9-53Zm6.26,21.92A28.24,28.24,0,0,1,42.64,71.28h-.06a28.19,28.19,0,0,1,0-56.37h.05A28.24,28.24,0,0,1,70.76,43.07Z"/><path class="cls-1" d="M42.62,18.51h-.06a24.59,24.59,0,0,0,0,49.17h0a24.6,24.6,0,0,0,17.34-42A24.36,24.36,0,0,0,42.62,18.51Zm17,30.16a1.45,1.45,0,0,0,1.11,1.8l1.5.51.55.18a22,22,0,0,1-6.25,8.64l-.29-.4-.92-1.27c-.65-.86-1.46-1.07-2.17-.57A1.49,1.49,0,0,0,53,59.79L53.78,61l.37.51A21.28,21.28,0,0,1,44,64.75V62.87c0-1.19-.53-1.88-1.43-1.9h0a1.27,1.27,0,0,0-.93.36,2.08,2.08,0,0,0-.51,1.5c0,.45,0,.9,0,1.38v.53A21.41,21.41,0,0,1,31,61.47l.36-.5c.32-.44.62-.85.91-1.28a1.47,1.47,0,0,0-.2-2.11A1.44,1.44,0,0,0,30,58c-.31.39-.6.8-.92,1.24l-.4.55a21.57,21.57,0,0,1-6.25-8.61l.47-.16,1.55-.53a1.77,1.77,0,0,0,1.08-.87,1.22,1.22,0,0,0,0-1,1.45,1.45,0,0,0-2-.84l-1.43.45-.57.18a20,20,0,0,1,0-10.63l.56.18c.51.16,1,.32,1.49.46a1.43,1.43,0,1,0,.88-2.7l-1.43-.49-.62-.2a21.73,21.73,0,0,1,6.25-8.63l.3.43c.3.43.59.84.92,1.23s.64.73,1,.75a2,2,0,0,0,1.41-.47,1.26,1.26,0,0,0,.07-1.69c-.31-.46-.63-.91-1-1.39L31,24.73a21.43,21.43,0,0,1,10.11-3.29V22c0,.5,0,1,0,1.46,0,1.05.57,1.73,1.43,1.74h0c.85,0,1.43-.68,1.44-1.71,0-.48,0-1,0-1.48v-.58a21.35,21.35,0,0,1,10.11,3.27l-.36.51-.91,1.27a1.48,1.48,0,0,0,.2,2.12,1.44,1.44,0,0,0,2.08-.41c.32-.41.62-.83.94-1.27.13-.18.25-.35.39-.53A21.76,21.76,0,0,1,62.74,35l-.56.19-1.41.47c-1,.33-1.44,1-1.2,1.82a1.31,1.31,0,0,0,.65.84,1.86,1.86,0,0,0,1.46,0l1.26-.4.58-.18c1,1.7,1,8.12,0,10.59l-.51-.17-1.5-.46A1.46,1.46,0,0,0,59.58,48.67Z"/><path class="cls-1" d="M42.56,44.54a5.62,5.62,0,0,0,2.16-.43,5.34,5.34,0,0,0,3.22-4.75h0v0c0-.19-.08-.38-.12-.58a7,7,0,0,0-.32-1.25c-.73-1.9-1.49-3.83-2.23-5.69L44,28.69a1.55,1.55,0,0,0-1.45-1.17h0a1.54,1.54,0,0,0-1.41,1.16c-.4,1-.81,2-1.21,3.05-.75,1.88-1.53,3.83-2.26,5.76A5,5,0,0,0,38.85,43,5.18,5.18,0,0,0,42.56,44.54ZM40.23,38.9c.54-1.47,1.12-3,1.68-4.39l.66-1.68h0l.66,1.68c.57,1.44,1.16,2.94,1.7,4.43a2.15,2.15,0,0,1-1,2.33,2.78,2.78,0,0,1-2.85,0A2.12,2.12,0,0,1,40.23,38.9Z"/><path class="cls-1" d="M50,49.39H35.47a5.86,5.86,0,0,0-.59,0,1.45,1.45,0,0,0-1.45,1.47A1.47,1.47,0,0,0,35,52.26h9.1c2,0,3.94,0,5.91,0,1.06,0,1.73-.54,1.76-1.39a1.27,1.27,0,0,0-.34-1A1.93,1.93,0,0,0,50,49.39Z"/></svg>