<svg id="Layer_1" data-name="Layer 1" xmlns="http://www.w3.org/2000/svg" viewBox="0 0 85.04 85.04"><defs><style>.cls-1{fill:#1d1d1b;}</style></defs><path class="cls-1" d="M77.91,61.79a1.77,1.77,0,0,1-.06-.17,8.78,8.78,0,0,0-5.74-6.79.87.87,0,0,1-.39-.53q-.9-5-1.77-10.09l-.33-1.85a2.33,2.33,0,0,0-1.07-1.9.68.68,0,0,1-.14-.39Q67,32.5,65.72,24.91c-.09-.48-.17-.95-.26-1.43-.28-1.53-.56-3.11-.77-4.67-.13-1.06-.16-2.06,1-2.61a2.21,2.21,0,0,0,.93-2.76c-.18-.55-.38-1.1-.59-1.62a2.32,2.32,0,0,0-3-1.42c-3.81,1.35-6.9,2.48-9.73,3.55a3.11,3.11,0,0,0-1.73,1.65,3.27,3.27,0,0,0,0,2.53A3.2,3.2,0,0,0,55.71,20c.62-.21,1.24-.43,1.85-.66l.62-.23c.52,2.93,1,5.85,1.54,8.78l.3,1.71c.18,1.06.37,2.13.56,3.19a1.49,1.49,0,0,0,.6,1,1.25,1.25,0,0,0,1,.17,1.3,1.3,0,0,0,1-1.54l-.93-5.22L61.49,23l-.6-3.4-.25-1.43L62,17.68a66.23,66.23,0,0,0,1.16,7.69c.23,1.22.47,2.49.67,3.74.44,2.72.94,5.49,1.43,8.16l.6,3.34-.15,0a6.62,6.62,0,0,0-.73.16c-.22.06-.29,0-.31,0s-.09-.08-.12-.35c-.1-.78-.25-1.57-.4-2.33l-.09-.43a2,2,0,0,0-.69-1.38,1.19,1.19,0,0,0-.94-.14c-.56.12-1.17.56-.9,2,.19,1,.37,2.06.53,3.09a.53.53,0,0,1,0,.34,2.15,2.15,0,0,0-.38,2l0,.15c.1.59.2,1.21.35,1.81a1.63,1.63,0,0,1-.56,1.71c-3.25,3.21-7.1,7-11,11a2.58,2.58,0,0,1-2.13.88c-2.39,0-4.82,0-7.17,0H39.26a1.45,1.45,0,0,0-1.28.65A1.22,1.22,0,0,0,38,61a1.44,1.44,0,0,0,1.43.7H57l-.18.27c-.33.45-.67.9-1,1.34-.69.93-1.41,1.88-2.09,2.83a2,2,0,0,1-1.79.92h0c-4.85,0-9.7,0-14.55,0a6.77,6.77,0,0,1-1.74-.25c-1.41-.41-3.06-.89-4.66-1.45a14.31,14.31,0,0,0-5.24-.78c-1.45,0-2.93,0-4.36,0H19.66a5,5,0,0,1-.84-.06,1.43,1.43,0,0,1-1.24-1.39,1.48,1.48,0,0,1,1.31-1.41,3.65,3.65,0,0,1,.47,0H34.09c.93,0,1.51-.49,1.52-1.27a1.21,1.21,0,0,0-.33-.87,1.62,1.62,0,0,0-1.16-.42h-3c0-.09-.08-.17-.11-.25a12.41,12.41,0,0,0-10.53-8.35A12.67,12.67,0,0,0,7.81,57.13a2,2,0,0,0,.39,2.58l.71.72c.41.4.81.8,1.2,1.22a1,1,0,0,1,.19.54c0,.3,0,.6,0,.9a12.52,12.52,0,0,0,.07,1.36,8.76,8.76,0,0,0,7,7.28,8.52,8.52,0,0,0,9-3.8A1.46,1.46,0,0,1,28,67.15a3.32,3.32,0,0,1,.62.16l1.9.58c1.36.43,2.72.85,4.09,1.26l.1,0a7.9,7.9,0,0,0,2.09.41c3.21,0,6.42,0,9.63,0h5.82a4.06,4.06,0,0,0,3.41-1.71c.33-.44.65-.88,1-1.31.82-1.1,1.67-2.23,2.48-3.36a3.49,3.49,0,0,0,.61-1.54,2.34,2.34,0,0,0-1-2.16l5-4.93c.05.35.12.73.21,1.11s0,.5-.31.78a8.51,8.51,0,0,0-3,7.94,8.78,8.78,0,0,0,7,7.3,8.67,8.67,0,0,0,9-3.92,11.82,11.82,0,0,0,1-2.35c.13-.36.25-.72.39-1.07L78,62ZM64.18,14.13l-.65.23-2.31.84L59,16l-4,1.45a1,1,0,0,1-.79,0A.6.6,0,0,1,54,17c0-.33.05-.59.65-.81l4.28-1.56,2.62-.95,1.53-.55.67-.24Zm.34,30.62a9.31,9.31,0,0,1-.17-1,2.17,2.17,0,0,0,0-.25L67.1,43l2,11,1.56,8.78a1.46,1.46,0,0,1-1,1.7,1.52,1.52,0,0,1-1.19-.14,1.26,1.26,0,0,1-.58-.83c-.28-1.28-.51-2.6-.74-3.88L66.9,58.3q-.48-2.61-.93-5.22a2,2,0,0,0-1.45-1.72,1.89,1.89,0,0,0-.65-.11,2.12,2.12,0,0,0-1.52.71l-1.46,1.45c-1.68,1.68-3.42,3.41-5.1,5.13a1.65,1.65,0,0,1-1.46.61,9.05,9.05,0,0,0-1.06,0l.2-.2,2.68-2.69c2.29-2.31,4.66-4.69,7-7A4.25,4.25,0,0,0,64.52,44.75Zm.68,18.81a4.14,4.14,0,0,0,3.89,3.58,3.82,3.82,0,0,0,4-3.06,8.57,8.57,0,0,0-.14-2.67c0-.23-.07-.46-.1-.69-.1-.79-.25-1.57-.39-2.34l-.1-.56a6.16,6.16,0,0,1-2.14,11.41,6.22,6.22,0,0,1-6.49-3.33,6.12,6.12,0,0,1,.73-6.63l.21,1.22C64.84,61.53,65,62.54,65.2,63.56ZM19.07,54.38h-.56a8.41,8.41,0,0,0-7,4.21l-.13.23-.08.13-.07.13-1-1A9.78,9.78,0,0,1,18.89,53h.24c4.15.1,8,2.71,9.15,6.12h-.09c-.33,0-.67,0-1,0a.54.54,0,0,1-.57-.33A8.36,8.36,0,0,0,19.07,54.38Zm-1.3,2.69A5.66,5.66,0,0,1,18.94,57a5.94,5.94,0,0,1,4.74,2.19H18.92a4,4,0,0,0-3.18,6.29A4.1,4.1,0,0,0,19,67.14c1.15,0,2.29,0,3.49,0h1.15a6.17,6.17,0,1,1-5.89-10.08Z"/><path class="cls-1" d="M30.34,51.83q8.44,0,16.88,0H52.5A2.25,2.25,0,0,0,54.76,49L51.52,35.07a2.29,2.29,0,0,0-2.47-2H42.6V32a3.94,3.94,0,0,0,2.68-3.24,3.86,3.86,0,0,0-1.93-3.84,5.34,5.34,0,0,0-.93-.38l-.34-.11-1.17,0-.19.06a4,4,0,0,0-3.2,3.41,3.88,3.88,0,0,0,2.44,4l.25.09v1.12H33.64A2.24,2.24,0,0,0,31.34,35l-1.12,4.77c-.72,3.07-1.43,6.14-2.17,9.21a2.32,2.32,0,0,0,.42,2A2.39,2.39,0,0,0,30.34,51.83Zm11.05-22a1.54,1.54,0,0,1-1-2.66,1.49,1.49,0,0,1,1.09-.43,1.55,1.55,0,0,1,1,2.67,1.56,1.56,0,0,1-1,.42Zm-11,19.63,3.28-14v0H49.18v0l3.27,14H30.35Z"/><path class="cls-1" d="M42.76,46.9c.36,0,.73,0,1.1,0l1.09,0A2,2,0,0,0,46.69,45c0-.56,0-1.11,0-1.75a.9.9,0,0,0-.85-.92,10.26,10.26,0,0,0-1.24,0,.9.9,0,0,0-.85.94.92.92,0,0,0,.92.88h.17c0,.22,0,.43,0,.64s0,.24-.26.24H43.16c-.24,0-.27,0-.28-.27V40.13c0-.25,0-.27.28-.28h1.41c.25,0,.27,0,.27.29v.34c0,.22,0,.43,0,.64a1,1,0,0,0,.31.68.88.88,0,0,0,.66.22.91.91,0,0,0,.87-1V40a1.92,1.92,0,0,0-1.62-1.9,12.13,12.13,0,0,0-2.41,0A1.9,1.9,0,0,0,41,39.93c0,1.7,0,3.39,0,5.09A2,2,0,0,0,42.76,46.9Z"/><path class="cls-1" d="M37,46.93a.9.9,0,0,0,1-.73,2,2,0,0,0,0-.42V45.3L39,46.58a.91.91,0,0,0,.72.35l.25,0a.84.84,0,0,0,.67-.79,1.22,1.22,0,0,0-.27-.76c-.71-.89-1.44-1.76-2.2-2.66.75-1,1.5-2.08,2.23-3.13a1.23,1.23,0,0,0,.24-.74A.86.86,0,0,0,40,38a.91.91,0,0,0-1,.39l-1,1.43v-.76a1.42,1.42,0,0,0-.09-.54.9.9,0,0,0-1-.52.91.91,0,0,0-.73.94v7.13A.91.91,0,0,0,37,46.93Z"/></svg>