<svg id="Layer_1" data-name="Layer 1" xmlns="http://www.w3.org/2000/svg" viewBox="0 0 85.04 85.04"><path d="M10.4,49.14c.15-.73.28-1.46.45-2.18a15,15,0,0,1,1.92-4.37q2.57-4.2,5.11-8.41a3.17,3.17,0,0,1,.4-.56,1,1,0,0,1,1.3-.17A.93.93,0,0,1,20,34.73c-.45.88-1,1.74-1.48,2.64,7.61-2.94,13.86-1.16,18.84,5.36V32.62a7.27,7.27,0,0,0-7-7.52,7.08,7.08,0,0,0-6.71,3.65c-.57.91-1.1,1.86-1.66,2.77a1.07,1.07,0,0,1-1.68.39A.92.92,0,0,1,20,30.68c1.15-2,2.12-4.11,4-5.61A9.38,9.38,0,0,1,30.82,23a.94.94,0,0,0,.94-.41,4.29,4.29,0,0,1,4.65-1.42,4.17,4.17,0,0,1,3.06,3.82c.09,2.37.06,4.74.08,7.11v.84h5.61v-.73c0-2.41,0-4.83.08-7.23a4.17,4.17,0,0,1,3.08-3.82A4.31,4.31,0,0,1,53,22.55a.92.92,0,0,0,.88.41A9.39,9.39,0,0,1,63,27.84c3.15,5.21,6.3,10.42,9.4,15.66a13.13,13.13,0,0,1,1.66,9.36c-1.2,6.31-5,10.37-11.21,11.88a13.81,13.81,0,0,1-12.67-3.19,14.28,14.28,0,0,1-5-9.35c-.09-.74-.08-1.5-.1-2.24s0-1.42,0-2.17H39.49c0,1.19,0,2.35,0,3.51a14.56,14.56,0,0,1-28.8,2.21c-.1-.46-.19-.92-.28-1.38Zm49.33-11A12.41,12.41,0,1,0,72.15,50.56,12.43,12.43,0,0,0,59.73,38.15ZM47.34,42.73c5-6.5,11.22-8.3,18.81-5.36a.85.85,0,0,0-.06-.17c-1.72-2.88-3.4-5.8-5.18-8.65a7,7,0,0,0-6.43-3.47,7.31,7.31,0,0,0-7.14,7.46c0,2.82,0,5.65,0,8.48ZM25,38.15A12.41,12.41,0,1,0,37.37,50.58,12.46,12.46,0,0,0,25,38.15Zm14.61-3v6.22h5.54V35.17Zm0,10.32H45.1V43.67H39.58ZM37.35,26.12a2.5,2.5,0,0,0-1.16-2.76,2.06,2.06,0,0,0-2.33.18Zm10,0,3.5-2.58a2.09,2.09,0,0,0-2.41-.14A2.51,2.51,0,0,0,47.36,26.12Z"/><path d="M59.74,60.51A10,10,0,0,1,59,40.63a9.69,9.69,0,0,1,7.88,3,1.08,1.08,0,0,1,.14,1.6,1.09,1.09,0,0,1-1.65-.08,7.93,7.93,0,0,0-5.95-2.38,7.8,7.8,0,1,0,8,8.93,9.26,9.26,0,0,0-.32-3.63c-.24-.88.13-1.51.89-1.56s1,.32,1.17.89A10,10,0,0,1,65.11,59,9.73,9.73,0,0,1,59.74,60.51Z"/><path d="M25,60.51a10,10,0,0,1,0-19.95,10,10,0,1,1,0,19.95Zm7.78-9.92a7.81,7.81,0,1,0-15.61-.05,7.81,7.81,0,0,0,15.61.05Z"/></svg>