<svg id="Layer_1" data-name="Layer 1" xmlns="http://www.w3.org/2000/svg" viewBox="0 0 85.04 85.04"><defs><style>.cls-1{fill:#1d1d1b;}</style></defs><path class="cls-1" d="M70.33,49.71l.3-.82a33.36,33.36,0,0,0,1.16-3.5,20.11,20.11,0,0,0,0-9.24A25.52,25.52,0,0,0,69.15,29c-.1-.18-.08-.2.08-.33.78-.61,1.56-1.24,2.33-1.86A3.47,3.47,0,0,0,73,24.35a3.37,3.37,0,0,0-1.11-2.56q-4.16-4.18-8.33-8.34a3.15,3.15,0,0,0-4.92.25c-.56.68-1.22,1.48-1.87,2.33-.18.24-.25.26-.51.11A24.92,24.92,0,0,0,53.87,15c-6.25-2.62-12.32-2.65-18-.08a.55.55,0,0,1-.78-.15,6.62,6.62,0,0,0-4.78-1.93h-.05l-.33.05a6.44,6.44,0,0,0-1.19.22,6.27,6.27,0,0,0-4.56,4.7,6.34,6.34,0,0,0,2.12,6.57,1.39,1.39,0,0,1,.39.58c.33.88.63,1.77.94,2.66l1.27,3.7c1.27,3.69,2.54,7.37,3.84,11a.57.57,0,0,1-.18.71c-1,1-2,2-3,3l-1.62,1.63a5,5,0,0,0-1.29,5.7.4.4,0,0,1-.13.53c-.81.78-1.6,1.58-2.39,2.38l-.08.08-2,2a97.12,97.12,0,0,0-7,7.45,8.8,8.8,0,0,1-.8.82l-.49.48a3.11,3.11,0,0,0,.14,4.71,2.89,2.89,0,0,0,2,.8,3.3,3.3,0,0,0,2.33-1l.5-.5c.31-.32.63-.66,1-1s.68-.57,1-.84a18.77,18.77,0,0,0,1.53-1.3c2.69-2.64,5.4-5.36,8-8l1.13-1.14c.23-.23.35-.26.6-.16a4.94,4.94,0,0,0,5.58-1.21c1.59-1.55,3.18-3.16,4.72-4.72l.08-.08a.46.46,0,0,1,.58-.14q8,2.79,16.05,5.54a6.32,6.32,0,0,1,2.62,1.49,6.25,6.25,0,0,0,7.31,1.05,6.5,6.5,0,0,0,1.6-10.49C70.29,50,70.24,49.93,70.33,49.71Zm-10.88,6L44.51,50.61l.21-.23c.44-.45.9-.89,1.35-1.33,1-1,2-2,3-3,1.57-1.72,2-3.47,1.31-5.33A5.24,5.24,0,0,0,49,38.44c-.12-.11-.13-.16-.13-.16s.11-.15.18-.22l.07-.08c.14-.15.18-.16.2-.16s0,0,.16.11c.51.51,1,1,1.55,1.51s1.1,1,1.63,1.57l5.3,5.38,2.2,2.24.08.08a1.27,1.27,0,0,0,1.88.19,1.14,1.14,0,0,0,.36-.81A1.62,1.62,0,0,0,61.89,47l-1.21-1.22-2-2-2.44-2.44-1-1q-2-2-4.11-4.07c-.15-.15-.16-.21-.16-.22s0-.07.21-.26c.73-.7.73-.7,1.47,0l1.42,1.42,2.51,2.5c.39.39.8.77,1.2,1.14s1,.9,1.42,1.37c1.19,1.19,2.36,2.4,3.53,3.6l1.87,1.91c.17.18.35.35.56.54a6.82,6.82,0,0,0-4.34,2.49A6.94,6.94,0,0,0,59.45,55.76ZM34.53,24.47A6.59,6.59,0,0,0,37,20.1l.06.06,3.42,3.42q4.8,4.79,9.59,9.57c.17.17.18.22.18.23s0,.07-.2.25c-.74.71-.74.71-1.48,0L38.43,23.5l-.15-.14a1.24,1.24,0,0,0-1.84-.07,1.26,1.26,0,0,0,.12,1.79l1.65,1.66,2,2c2.38,2.38,4.75,4.76,7.14,7.13.07.07.21.21.21.26s0,.06-.14.18c-.3.27-.32.29-.56.06a5.11,5.11,0,0,0-7.57,0c-.93.91-1.84,1.83-2.76,2.75L35,40.62l-.23.21-5.16-15A6.55,6.55,0,0,0,34.53,24.47Zm27.24-9.3L64,17.34l6,6c.37.37.53.65.52.87s-.21.49-.62.82l-.63.51c-.41.32-.82.64-1.2,1-.2.17-.26.17-.27.17s-.06,0-.17-.21a9.07,9.07,0,0,0-.68-1l-.21-.27c-.38-.53-.73-.78-1.14-.78a1.82,1.82,0,0,0-1,.43,2.81,2.81,0,0,1-2.73.38l.17-.19,1.52-1.52,2.29-2.28a1.17,1.17,0,0,0,.28-1.62,1.23,1.23,0,0,0-.89-.6,1.37,1.37,0,0,0-1.1.48c-.84.83-1.67,1.66-2.5,2.5l-1.31,1.3-.17.16A2.71,2.71,0,0,1,60.44,21c.76-1.15.69-1.58-.41-2.4l-.11-.08c-.37-.27-.75-.55-1.14-.8-.13-.08-.15-.12-.15-.12s0-.05.1-.17c.32-.37.62-.76.93-1.14s.55-.7.83-1a1,1,0,0,1,.62-.37A.88.88,0,0,1,61.77,15.17ZM38.66,40.37c.84-.84,1.68-1.69,2.54-2.52a2.64,2.64,0,0,1,1.85-.74h.19a2.81,2.81,0,0,1,2,1.06c.09.11.09.11-.08.28l-.19.19c-.74.74-1.48,1.47-2.21,2.22-.29.29-.58.6-.86.9s-.76.8-1.15,1.19q-1.59,1.57-3.2,3.12l-.69.68-.07,0-.21-.62c-.26-.77-.51-1.49-.79-2.22A.72.72,0,0,1,36,43C36.9,42.15,37.78,41.26,38.66,40.37Zm29.87,7.42a2.38,2.38,0,0,1-.13.29l-.22-.21-7.3-7.29c-2.33-2.33-4.65-4.66-7-7-.15-.16-.17-.22-.17-.23s0-.07.16-.22c1.82-1.79,3.73-3.7,5.84-5.83.12-.12.2-.17.29-.17a.64.64,0,0,1,.27.09,5.17,5.17,0,0,0,4.69.18c.24-.1.26-.09.36.06A23,23,0,0,1,69.88,41.1,18.36,18.36,0,0,1,68.53,47.79ZM58,20.37a5.24,5.24,0,0,0,.19,4.8c.07.15.07.2-.11.38-2,2-4,3.93-5.91,5.91-.14.15-.19.15-.2.15s-.06,0-.2-.15q-3.66-3.67-7.33-7.33l-6.86-6.87c-.11-.1-.21-.22-.35-.36l.73-.25A22.29,22.29,0,0,1,40.12,16c5.51-1.3,10.91-.25,16.51,3.22l.62.41c.21.14.42.29.64.42S58.07,20.18,58,20.37Zm-24.29,25,.21.61c.33.92.65,1.82.94,2.71a.75.75,0,0,1-.17.28l-1.53,1.53-1.36,1.37a1.35,1.35,0,0,0-.46,1,1.27,1.27,0,0,0,.48.89,1.13,1.13,0,0,0,1.68-.13c.79-.77,1.84-1.8,2.86-2.85a.44.44,0,0,1,.6-.14c.61.23,1.23.44,1.83.64l.88.29.33.14-.1.11-1,1q-1.56,1.57-3.14,3.13a2.69,2.69,0,0,1-4,0c-.87-.84-1.64-1.62-2.37-2.37a2.63,2.63,0,0,1-.1-3.75c1-1.07,2.1-2.14,3.14-3.16l1.21-1.21Zm4.84,3.21a.65.65,0,0,1,.11-.12l1.7-1.7c1-1,2-2,3-3,.85-.86,1.69-1.74,2.53-2.62l.68-.71c.14-.14.33-.32.46-.33s.24.11.44.34c1.21,1.39,1.21,2.51,0,3.86s-2.58,2.64-3.89,3.88l-1.53,1.46a1.13,1.13,0,0,1-.17.12l-2.85-1ZM66,50.8h0A4,4,0,0,1,68.83,52,4.06,4.06,0,0,1,70,54.91,4,4,0,0,1,66,59h0A4.13,4.13,0,0,1,63,57.72a4,4,0,0,1-1.16-2.87A4.12,4.12,0,0,1,66,50.8ZM30.44,23.46a4.08,4.08,0,1,1,0-8.15h0a4,4,0,0,1,4.05,4.07,4,4,0,0,1-4.08,4.08ZM17.62,66.7l.16-.17h.07a.25.25,0,0,1,.13,0,4.77,4.77,0,0,1,.81.81.37.37,0,0,1,0,.21c-.77.82-1.55,1.61-2.32,2.33a2.06,2.06,0,0,1-.45.26l-.2.09-.17-.12c-.15-.09-.33-.2-.36-.28a1.1,1.1,0,0,1,.06-.84C16.05,68.2,16.85,67.43,17.62,66.7Zm3.23-.78a.64.64,0,0,1-.24-.2,8.13,8.13,0,0,0-1-1c-.15-.13-.17-.2-.17-.22s0-.11.19-.27q3.75-3.72,7.46-7.46c.22-.22.43-.46.67-.74l.19-.21,1.53,1.53,0,0a3.23,3.23,0,0,1-.23.27L27,59.89Q24,62.8,21.13,65.72A.85.85,0,0,1,20.85,65.92Z"/></svg>