<svg id="Layer_1" data-name="Layer 1" xmlns="http://www.w3.org/2000/svg" viewBox="0 0 85.04 85.04"><defs><style>.cls-1{fill:#1d1d1b;}</style></defs><path class="cls-1" d="M74.28,41.24H68.35A26,26,0,0,0,43.68,16.56V15.1c0-1.41,0-2.75,0-4.11A1.69,1.69,0,0,0,43,9.4l-.05,0H42l0,0a1.57,1.57,0,0,0-.74,1.52c0,.89,0,1.8,0,2.68v2.95A26,26,0,0,0,16.56,41.23H15.09c-1.43,0-2.78,0-4.16,0A1.64,1.64,0,0,0,9.4,42l0,0v.89l0,.05a1.59,1.59,0,0,0,1.45.75h.08c1,0,2,0,3,0h2.65C17.41,57.28,28,67.85,41.23,68.39v5.83a1.37,1.37,0,0,0,.34,1,1.14,1.14,0,0,0,.89.36h0a1.21,1.21,0,0,0,1.22-1.34c0-.89,0-1.78,0-2.67V68.35A26,26,0,0,0,68.35,43.68h5.91a1.19,1.19,0,0,0,1.28-1.22A1.18,1.18,0,0,0,74.28,41.24ZM58.7,42.42a1.19,1.19,0,0,0,.31.88,1.42,1.42,0,0,0,1.05.38h5.7c-.14,10.15-8.56,21.4-22.08,22.14V60.15A1.54,1.54,0,0,0,43.3,59a1.14,1.14,0,0,0-.84-.32h0c-.45,0-1.21.2-1.21,1.47v5.62c-11.71-.4-21.57-10.26-22.13-22.11h5.75a1.25,1.25,0,0,0,1-2.07,1.46,1.46,0,0,0-1-.38H19.1A23.4,23.4,0,0,1,41.23,19.09v5.66c0,.93.45,1.46,1.22,1.46h0a1.13,1.13,0,0,0,.84-.31,1.57,1.57,0,0,0,.38-1.14V19.13c11.71.34,21.57,10.19,22.12,22.1H60.06A1.22,1.22,0,0,0,58.7,42.42Z"/><path class="cls-1" d="M53,37.06a12.43,12.43,0,0,0,.73-1.88c.08-.24.16-.49.25-.73l.19,0a4.31,4.31,0,0,0,3.89-4.13,1.23,1.23,0,0,0-1.14-1.4c-.73-.06-1.22.41-1.32,1.24A1.83,1.83,0,0,1,54,31.92V28.27a1.5,1.5,0,0,0-.39-1.12,1.22,1.22,0,0,0-.87-.31c-.76,0-1.19.54-1.19,1.43,0,.58,0,1.15,0,1.73,0,1.05,0,2.1,0,3.15A5.74,5.74,0,0,1,46.31,39a47.46,47.46,0,0,1-5.33.11l-2.14,0a3.4,3.4,0,0,1-.75-.11L38,39a5.93,5.93,0,0,1-4.59-5.83c0-.95,0-1.9,0-2.85q0-1.11,0-2.22a1.18,1.18,0,0,0-1.22-1.24h0A1.22,1.22,0,0,0,31,28.07v3.85a1.82,1.82,0,0,1-1.65-1.78A1.22,1.22,0,0,0,28,28.9c-.72,0-1.15.56-1.15,1.4a4.3,4.3,0,0,0,3,3.93,6.83,6.83,0,0,0,.92.2l.3.06a8.49,8.49,0,0,0,2.35,4.66,3.17,3.17,0,0,1-2-.65,3.07,3.07,0,0,1-1.06-2.18c-.08-.82-.55-1.29-1.3-1.25a1.21,1.21,0,0,0-1.16,1.38A5.32,5.32,0,0,0,33,41.63h3.08v.62h-.39c-.66,0-1.58,0-1.6,1.2a1.3,1.3,0,0,0,.3.93,1.84,1.84,0,0,0,1.33.33h.4V47c0,1.53,0,3.05,0,4.58a1.44,1.44,0,0,0,.6,1.25l3,2.42,1.73,1.38a1.31,1.31,0,0,0,2,0l.85-.67c1.29-1,2.63-2.08,3.91-3.15a1.8,1.8,0,0,0,.59-1.23c0-1.58,0-3.18,0-4.74V44.71h.88a1.23,1.23,0,0,0,0-2.45h-.8v-.63H52A5.19,5.19,0,0,0,55.57,40,5,5,0,0,0,57,36.39a1.47,1.47,0,0,0-.51-1.07,1.27,1.27,0,0,0-1.21-.1,1.64,1.64,0,0,0-.69,1.09,3.36,3.36,0,0,1-1.35,2.4,2.46,2.46,0,0,1-1.68.45l.31-.42A12,12,0,0,0,53,37.06ZM44,53l-.09.07c-.45.37-.88.72-1.32,1a.39.39,0,0,1-.3,0c-.43-.31-.86-.66-1.31-1L40.91,53Zm-5.42-2.51v-8.8h7.72v8.8Z"/></svg>