<svg id="Layer_1" data-name="Layer 1" xmlns="http://www.w3.org/2000/svg" viewBox="0 0 85.04 85.04"><defs><style>.cls-1{fill:#1d1d1b;}</style></defs><path class="cls-1" d="M61.35,43.31q1,0,1.92,0h0A3.76,3.76,0,0,0,67,39.6c0-1.84,0-3.69,0-5.53a3.72,3.72,0,0,0-3.74-3.74H61.08a4.76,4.76,0,0,0-3.56-2.76,3.94,3.94,0,0,0-.75-.05h-28a4.52,4.52,0,0,0-4.19,2.59c-.1.19-.16.23-.36.23h-.61a9.79,9.79,0,0,0-2,.08,3.59,3.59,0,0,0-3,2.8.49.49,0,0,1,0,.11l0,.07,0,6.76,0,.11.24.52A5.1,5.1,0,0,0,19.4,42a3.45,3.45,0,0,0,2.84,1.36h2.53v11H23.42c-.94,0-1.92,0-2.88,0a1.94,1.94,0,0,0-2,1.14l0,13,.05.07c.1.14.19.29.28.44a3.65,3.65,0,0,0,.78,1,3.06,3.06,0,0,0,1.62.6,17.53,17.53,0,0,0,2.29,0h.41a5.07,5.07,0,0,0,.77-.1l.09,0v.68A4.68,4.68,0,0,0,28.62,76l.05,0,28.13,0,0,0,.44-.15a5.13,5.13,0,0,0,1-.39,4.57,4.57,0,0,0,2.5-4.14v-.87a10.82,10.82,0,0,0,2.71.14c.32,0,.65,0,1,0A2.7,2.7,0,0,0,67,68q0-6.06,0-12.1a1.61,1.61,0,0,0-1.8-1.58H60.78v-11Zm.15-1.93V32.21l.57,0a11.38,11.38,0,0,1,1.78.13,1.74,1.74,0,0,1,1.28,1.75c0,1.77,0,3.59,0,5.39a1.81,1.81,0,0,1-1.64,1.87,10.81,10.81,0,0,1-1.51,0ZM60.79,57.8V56.28h4.33V57.8Zm0,4V59.81h4.38v7.64c0,.93-.32,1.25-1.25,1.25H61.78a.93.93,0,0,1-1-1C60.75,65.74,60.76,63.75,60.76,61.75ZM51.11,42.3c0,.22,0,.27,0,.27s0,0-.24,0-.52,0-.78,0h-.91V29.45h2a2.09,2.09,0,0,1,0,.25v3.55Q51.1,37.77,51.11,42.3ZM26,32.37a2.86,2.86,0,0,1,2.93-2.95H32.5V33.8a.91.91,0,0,0,.16.64,1.36,1.36,0,0,0,.87.48h0c.38,0,.7-.45.8-.58a1.08,1.08,0,0,0,.11-.61v-.12c0-1.09,0-2.18,0-3.28v-.87H36.4v13.1H34.46a2.44,2.44,0,0,1,0-.27V37.61a2.17,2.17,0,0,0,0-.36.93.93,0,0,0-1-.91,1,1,0,0,0-.94,1c0,.5,0,1,0,1.49v3.8C31,42.89,31.07,44,31.09,45v.19a1.28,1.28,0,0,1-1-.33c-1.13-1-2.31-2-3.45-2.89l-.34-.27a.61.61,0,0,1-.25-.52V39.35C26,37.06,26.05,34.7,26,32.37ZM33.07,48V44.54h4.74V48Zm14.68,0v-3.4h4.73V48Zm-11.33,3.1a2.56,2.56,0,0,1-1,1,2.63,2.63,0,0,1-1-.92c0-.33,0-.65,0-1v-.18h2v.19C36.43,50.44,36.44,50.75,36.42,51.05Zm14.68-.19v.07a2,2,0,0,1-1,1.07l-.06,0-.19-.13a5,5,0,0,1-.57-.43.56.56,0,0,1-.19-.35,7.93,7.93,0,0,1,0-1v-.17H51l.09.08A6.3,6.3,0,0,1,51.1,50.86ZM47,42.65A1.41,1.41,0,0,0,45.81,44c0,.31,0,.61,0,.92v.17h-6v-.86a1.54,1.54,0,0,0-1.33-1.63l-.07,0a.76.76,0,0,1,0-.17v-13h8.84c0,.08,0,.15,0,.23V42.34C47.2,42.63,47.2,42.63,47,42.65ZM27.19,44.93c.53.43,1.09.88,1.61,1.35a2.59,2.59,0,0,0,2.14.78h.15v1a1.67,1.67,0,0,0,1.41,1.82v1a2.56,2.56,0,0,0,1.15,2.23l.38.27.51.36a1.54,1.54,0,0,0,1.73,0,12.68,12.68,0,0,0,1.24-.9,2.27,2.27,0,0,0,.83-1.74c0-.31,0-.62,0-.94v-.26l.2-.05a1.58,1.58,0,0,0,1.21-1.47c0-.19,0-.38,0-.57v-.75h6v.77c0,1.22.32,1.71,1.42,2a2,2,0,0,0,0,.25,4.9,4.9,0,0,0,0,1.08,2.72,2.72,0,0,0,.59,1.39,7.28,7.28,0,0,0,1.61,1.22,1.41,1.41,0,0,0,1.6-.11l0,0c.35-.24.72-.49,1.06-.77A2.44,2.44,0,0,0,53.05,51c0-.28,0-.56,0-.86v-.2c1.44-.32,1.43-1.44,1.41-2.34,0-.17,0-.33,0-.49a3.79,3.79,0,0,0,2.86-1.29c.4-.37.83-.72,1.28-1.08l.25-.21V71.11a2.85,2.85,0,0,1-3.05,3h-26a2.84,2.84,0,0,1-3.06-3.06V44.52Zm27.43.24H54.5c0-.12,0-.23,0-.34a6.45,6.45,0,0,0-.15-1.19,1.45,1.45,0,0,0-1.24-1V29.5h1.13a26.55,26.55,0,0,1,3.09,0,2.53,2.53,0,0,1,2.21,2.54c0,3.15,0,6.36,0,9.19a.46.46,0,0,1-.13.29l-.2.17c-1.29,1.09-2.63,2.23-4,3.29A1.26,1.26,0,0,1,54.62,45.17Zm-31.1-3.8a10.13,10.13,0,0,1-1.57,0,1.74,1.74,0,0,1-1.53-1.77c0-1.9,0-3.74,0-5.48a1.84,1.84,0,0,1,1.78-1.83l.76,0H24v9.11ZM20.43,57.8V56.28h4.33V57.8Zm4.36,2v7.65c0,.92-.32,1.24-1.22,1.24H21.42a.92.92,0,0,1-1-.94c0-2.1,0-4.21,0-6.31V59.81Z"/><path class="cls-1" d="M33.31,60.83a.87.87,0,0,1,.2.6c0,3,0,6,0,9a2.76,2.76,0,0,0,2.86,2.84h8.24c1.42,0,2.88,0,4.32,0h.11a3,3,0,0,0,2.12-.85,3.07,3.07,0,0,0,.89-2.27c-.06-2.34,0-4.73,0-7V61.37a.93.93,0,0,1,.12-.34,2,2,0,0,0,.1-.21c0-.12.11-.23.17-.35a2.43,2.43,0,0,0,.3-.87,21.16,21.16,0,0,0,0-2.51,1.91,1.91,0,0,0-2-1.9H48.94a1.12,1.12,0,0,0-.8.32,1,1,0,0,0,.79,1.59h1.7c.14,0,.16,0,.16,0s0,0,0,.16c0,.71,0,1.35,0,2,0,.24,0,.29-.3.33L47,60.17l-2.26.35-.6.11a4.33,4.33,0,0,1-1.4.14c-1.81-.23-3.64-.52-5.41-.8l-2.35-.37c-.17,0-.2-.05-.2-.25,0-.61,0-1.26,0-1.89,0-.21,0-.28,0-.3s0-.07.31-.06c1.5,0,3,0,4.49,0h5.92a1,1,0,0,0,1-.92.89.89,0,0,0-.25-.67,1.23,1.23,0,0,0-.88-.33H34.76a1.89,1.89,0,0,0-2,1.94,19.54,19.54,0,0,0,0,2.42A2.56,2.56,0,0,0,33.31,60.83Zm2.11,9.3V61.62L38,62l1.31.22c1,.18,2.06.36,3.1.44a8.49,8.49,0,0,0,2.13-.19l.66-.11c1.12-.16,2.23-.34,3.35-.51l1.58-.24v8.5c0,.87-.33,1.2-1.22,1.2H36.63C35.75,71.33,35.42,71,35.42,70.13Z"/><path class="cls-1" d="M39.7,69.57c.7,0,1.41,0,2.11,0h4.12A1.59,1.59,0,0,0,47.53,68c0-.62,0-1.23,0-1.84a1.57,1.57,0,0,0-1.59-1.58q-3.16,0-6.32,0A1.58,1.58,0,0,0,38,66.2v1.69A1.59,1.59,0,0,0,39.7,69.57ZM40,67.64V66.5h5.63v1.14Z"/><path class="cls-1" d="M21.38,17.69v1.69c0,1,.31,1.28,1.29,1.28H42.24v1.27A3.16,3.16,0,0,0,44.66,25a4.59,4.59,0,0,0,1.47.09,6.18,6.18,0,0,1,4,1,11.18,11.18,0,0,0,2.19,1,2.34,2.34,0,0,0,3-1.07l.22-.32c.18-.27.37-.54.53-.82s.15-.24.41-.12l5.41,2.47,1.52.69a1.81,1.81,0,0,0,.72.18.86.86,0,0,0,.48-.13,1.21,1.21,0,0,0,.45-1.1V17.05c0-1-.25-1.28-1.26-1.45l-.26,0c-2.29-.37-4.59-.75-6.88-1.15a5.88,5.88,0,0,0-3,.05.71.71,0,0,1-.22,0l.16-.26c.29-.49.57-1,.84-1.43a1.06,1.06,0,0,0,.13-1,1.1,1.1,0,0,0-.79-.61,4.86,4.86,0,0,0-4.68,1.13,1.41,1.41,0,0,1-1.17.35v-.11c0-1-.18-1.21-1.13-1.45l-5.4-1.34a1.19,1.19,0,0,0-1,.12,1.19,1.19,0,0,0-.38,1V12.7h-.6q-6,0-11.91,0a.52.52,0,0,1-.27-.18c-.57-.72-1.13-1.47-1.67-2.22a1.27,1.27,0,0,0-1.16-.57c-.41,0-.82,0-1.24,0h-.61c-.81,0-1.16.36-1.16,1.19v1.8H21.1c-.88,0-1.21.33-1.21,1.22v.7c0,.47,0,.95,0,1.43a1.72,1.72,0,0,0,.29,1.34A1.57,1.57,0,0,0,21.38,17.69Zm2-5v-1c.6-.1.85,0,1.43,1ZM62.11,18.5V17.38l1,.15v8h0c-.31-.14-.61-.27-.89-.41a.35.35,0,0,1-.06-.09C62.11,22.87,62.11,20.7,62.11,18.5Zm-25.86-.79v.93H23.4v-.93ZM21.91,15.66v-.93h20.3v.93Zm20.11-3V12l2.68.67ZM54.4,23.81l-.15.23c-.24.36-.47.7-.71,1a.37.37,0,0,1-.54.14l-2.11-1-.78-.37.19-.19c.4-.39.78-.77,1.16-1.12a.33.33,0,0,1,.14,0c.79.34,1.57.7,2.36,1.06ZM44.23,20.69h2.45c-.06.3-.35.54-1.49,1l-.19.09.31,1.26a1.13,1.13,0,0,1-.66-.28,1.28,1.28,0,0,1-.42-.91c0-.32,0-.65,0-1Zm5.33.93-.2.2-1.28,1.25-.1.06h-1a3.4,3.4,0,0,0,1.72-1.94Zm-5.33-6.93h2.32a6.29,6.29,0,0,0,.73,0,3.53,3.53,0,0,1,1.48.1,3.07,3.07,0,0,1,1.1,1H48.23v2h1.92v-1.6l.15.18a1.71,1.71,0,0,0,1.89.58,16,16,0,0,1,2.5-.51,9.41,9.41,0,0,1,1.9.14l.2,0q.91.14,1.83.3L60,17a.3.3,0,0,1,.12,0h0a.36.36,0,0,1,0,.1V24.2l-.09,0L57.37,23l-8.87-4a3,3,0,0,0-1.17-.24l-4.63,0H38.29v-1h4.78c.78,0,1.15-.36,1.15-1.13,0-.48,0-.95,0-1.44Zm6.45-1a2.75,2.75,0,0,1,1.25-.51l-.66,1.11Z"/><rect class="cls-1" x="45.25" y="15.71" width="1.94" height="1.93"/></svg>