<svg id="Layer_1" data-name="Layer 1" xmlns="http://www.w3.org/2000/svg" viewBox="0 0 85.04 85.04"><path d="M61.9,24.1s.07.07.12.08a2.82,2.82,0,0,1,2.17,3q0,4.2,0,8.42c0,.33,0,.55.4.72a1.71,1.71,0,0,1,1,1.55c0,.4,0,.79,0,1.22h1.86a3.64,3.64,0,0,1,1.62-2.83,3.54,3.54,0,0,1,2.41-.54,3.59,3.59,0,0,1,3.05,3.52,3.84,3.84,0,0,1,2.37,1.84,4.16,4.16,0,0,1,.48,2.1c0,3.78,0,7.56,0,11.34,0,5.44,0,10.89,0,16.34a3.87,3.87,0,0,1-3.15,3.92,5.83,5.83,0,0,1-.84,0c-5.19,0-10.39,0-15.59,0a4,4,0,0,1-4-4c.06-5.87,0-11.75,0-17.62,0-3.19.07-6.38,0-9.56a4.07,4.07,0,0,1,3.31-4.5V38a1.81,1.81,0,0,1,1.06-1.75.53.53,0,0,0,.33-.57c0-2.66.05-5.32,0-8-.06-1.79.55-3,2.29-3.63ZM55.82,56.94V70.8a1.73,1.73,0,0,0,2,2H73.46a1.68,1.68,0,0,0,1.75-1.18,3.17,3.17,0,0,0,.09-.88q0-13.72,0-27.47a4.87,4.87,0,0,0,0-.54A1.67,1.67,0,0,0,74,41.24a3.76,3.76,0,0,0-.88-.09c-5.07,0-10.14,0-15.2,0a1.93,1.93,0,0,0-2.15,2.14C55.85,47.83,55.82,52.39,55.82,56.94ZM62.1,36a1.36,1.36,0,0,0,0-.2c0-2.92,0-5.84,0-8.75a1,1,0,0,0,0-.3.76.76,0,0,0-.8-.59.78.78,0,0,0-.78.63,1.35,1.35,0,0,0,0,.35v8.5a2.33,2.33,0,0,0,0,.36Zm1.41,2.11H59.14v1h4.37Zm8.85,1A1.33,1.33,0,0,0,71,37.72a1.37,1.37,0,0,0-1.42,1.36Z"/><path d="M65.61,43.2h5.68a2.06,2.06,0,0,1,2.3,2.28c0,1.34,0,2.68,0,4a2,2,0,0,1-2.18,2.14H59.68a2,2,0,0,1-2.14-2.13c0-1.38,0-2.77,0-4.15a2,2,0,0,1,2.13-2.14C61.65,43.19,63.63,43.2,65.61,43.2Zm-6,6.34H71.49V45.29H59.62Z"/><path d="M65.57,58.78H58.64a1,1,0,0,1-1.1-1,.93.93,0,0,1,.73-.94,2.65,2.65,0,0,1,.69-.07h13.2a2.8,2.8,0,0,1,.5,0,1,1,0,0,1,.92,1.07,1,1,0,0,1-1,1h-7Z"/><path d="M65.59,53.31h6.92a1,1,0,0,1,1,.69.92.92,0,0,1-.36,1.13,1.42,1.42,0,0,1-.74.22H58.68a1,1,0,0,1-1.14-1.07c0-.61.44-1,1.17-1Z"/><path d="M71.48,64.9c.38,0,.76,0,1.14,0a1,1,0,0,1,1,.87.93.93,0,0,1-.8,1.11,19.09,19.09,0,0,1-2.62,0,1,1,0,0,1-.81-1.07,1,1,0,0,1,1-.92C70.72,64.89,71.1,64.9,71.48,64.9Z"/><path d="M59.66,64.9c.37,0,.75,0,1.13,0a1,1,0,0,1,1,.92A1,1,0,0,1,61,66.89a18.94,18.94,0,0,1-2.61,0,.94.94,0,0,1-.8-1.12,1,1,0,0,1,1-.87C58.9,64.89,59.28,64.9,59.66,64.9Z"/><path d="M71.5,69c.37,0,.73,0,1.09,0a1,1,0,0,1,1,1A1,1,0,0,1,72.66,71a23.62,23.62,0,0,1-2.38,0,1,1,0,0,1-.94-1,1.06,1.06,0,0,1,1-1H71.5Z"/><path d="M59.64,69c.37,0,.73,0,1.09,0a1,1,0,0,1,1.05,1,1,1,0,0,1-1,1c-.75,0-1.51,0-2.27,0a1,1,0,0,1-1-1,1,1,0,0,1,1-1C58.92,69,59.28,69,59.64,69Z"/><path d="M65.56,71c-.36,0-.73,0-1.09,0a1,1,0,1,1,0-2.06q1.06,0,2.13,0a1,1,0,0,1,1.05,1,1,1,0,0,1-1,1C66.29,71.05,65.92,71,65.56,71Z"/><path d="M65.55,66.94c-.38,0-.76,0-1.14,0a1,1,0,0,1-1-1.1,1,1,0,0,1,1.07-.93c.7,0,1.41,0,2.12,0a1,1,0,0,1,.09,2c-.39,0-.79,0-1.18,0Z"/><path d="M59.61,62.83c-.37,0-.73,0-1.09,0a1,1,0,0,1-1-1,.93.93,0,0,1,.9-1c.8,0,1.61,0,2.42,0a1,1,0,0,1,.92,1,1,1,0,0,1-1,1C60.4,62.85,60,62.83,59.61,62.83Z"/><path d="M71.47,62.83c-.38,0-.76,0-1.14,0a1,1,0,0,1-1-1,1,1,0,0,1,.93-1c.8,0,1.61,0,2.42,0a.94.94,0,0,1,.9,1,1,1,0,0,1-1,1C72.23,62.85,71.85,62.83,71.47,62.83Z"/><path d="M65.54,62.83c-.38,0-.76,0-1.13,0a1,1,0,0,1-1-.94,1,1,0,0,1,.88-1.06c.81,0,1.64,0,2.46,0a1,1,0,0,1,.88,1.05,1,1,0,0,1-1,.95c-.38,0-.76,0-1.14,0Z"/><path d="M8.6,59c0-.64-.13-1.27-.13-1.91A7.92,7.92,0,0,1,10.42,52Q13.69,48,17,44.06a3.7,3.7,0,0,0,.61-1.12q3.53-11,7-22a4.21,4.21,0,0,1,1.67-2.46,3.64,3.64,0,0,1,4.07.38c1.9,1.61,3.86,3.16,5.75,4.79a1,1,0,0,0,1.3.15c1-.5,2.11-.94,3.16-1.42a1.26,1.26,0,0,1,1.42.2l3.28,2.71a1.26,1.26,0,0,1,.46,1.41c-.28,1.19-.53,2.4-.84,3.59a.71.71,0,0,0,.31.84c1.81,1.48,3.64,3,5.41,4.48a3.41,3.41,0,0,1-.49,5.59l-2.86,1.72L32.37,52l-1.48.9,1.49,1.24.66.54a1.19,1.19,0,0,1,.15,1.84c-.66.83-1.34,1.64-2,2.49,1,.86,2.05,1.69,3.06,2.54.85.71,1.74,1.4,2.54,2.17a4.5,4.5,0,0,1,.24,6,4.45,4.45,0,0,1-5.93.9c-1.93-1.42-3.74-3-5.6-4.52-1.12-.91-2.22-1.82-3.32-2.75a.47.47,0,0,0-.72,0,7.93,7.93,0,0,1-11.9-2.22c0-.06-.11-.1-.16-.14ZM26,24.16c-.05.14-.08.21-.1.28q-3,9.35-6,18.7a.75.75,0,0,0,.28,1c2.75,2.25,5.49,4.5,8.21,6.79a.92.92,0,0,0,1.29.08c4.26-2.66,8.55-5.27,12.82-7.9l3.68-2.26ZM18.55,45.75l-1.14,1.39c-1.87,2.28-3.79,4.52-5.6,6.85a5.5,5.5,0,0,0-.12,6.34,5.64,5.64,0,0,0,8.94.66c1.39-1.57,2.69-3.22,4-4.84.87-1,1.73-2.09,2.63-3.19Zm8.18-24L27,22q10.48,8.64,20.94,17.29a.59.59,0,0,0,.75.1,1.23,1.23,0,0,0,.22-2.24C42.22,31.7,35.62,26.22,29,20.76a3,3,0,0,0-.46-.33,1.09,1.09,0,0,0-1.53.49A8.45,8.45,0,0,0,26.73,21.77ZM23.3,61.41l1.63,1.36c2.33,1.92,4.65,3.85,7,5.76a2.26,2.26,0,0,0,3.49-.46A2.3,2.3,0,0,0,34.74,65l-8.3-6.86L26.15,58ZM42.76,29.14c.19-.79.36-1.5.51-2.22a.53.53,0,0,0-.18-.41c-.62-.54-1.26-1.07-1.91-1.59-.1-.08-.29-.17-.39-.13-.69.28-1.37.59-2.16.93Zm-15.12,27,1.73,1.42,1.42-1.73-1.73-1.42Z"/><path d="M47.9,19a1.17,1.17,0,0,1-1.35-.27,1,1,0,0,1-.17-1.25A2.44,2.44,0,0,1,46.7,17c1.44-1.69,2.89-3.38,4.33-5.08a1.27,1.27,0,0,1,1.26-.57,1.1,1.1,0,0,1,.85,1.5,1.93,1.93,0,0,1-.37.57c-1.44,1.69-2.88,3.39-4.33,5.08A4.34,4.34,0,0,1,47.9,19Z"/><path d="M39.27,16.53c0-.36-.1-.88-.15-1.41-.1-1-.22-2.09-.29-3.15a1.15,1.15,0,0,1,1-1.31,1.17,1.17,0,0,1,1.24,1.13c.15,1.43.29,2.85.42,4.27a1.15,1.15,0,1,1-2.25.47Z"/><path d="M50.16,23.38l1.3-.13c1-.1,2.09-.22,3.14-.3a1.14,1.14,0,0,1,1.35,1,1.18,1.18,0,0,1-1.19,1.29c-1.4.14-2.81.29-4.21.41a1.19,1.19,0,0,1-1.37-.91C49.07,24.17,49.39,23.64,50.16,23.38Z"/><path d="M17.67,60.46a3.5,3.5,0,0,1-3.31-.52A1.13,1.13,0,0,1,14,58.39,1.08,1.08,0,0,1,15.54,58c1.07.52,1.31.46,2.07-.46.36-.43.71-.88,1.09-1.3a1.14,1.14,0,1,1,1.78,1.41c-.55.71-1.14,1.4-1.76,2.06A7.3,7.3,0,0,1,17.67,60.46Z"/><path d="M22.16,52.36a1.11,1.11,0,0,1,1.44.73,1.16,1.16,0,0,1-.73,1.41,1.15,1.15,0,0,1-1.44-.75A1.11,1.11,0,0,1,22.16,52.36Z"/></svg>