<svg id="Layer_1" data-name="Layer 1" xmlns="http://www.w3.org/2000/svg" viewBox="0 0 85.04 85.04"><path d="M64.6,20.13c-2.87-2.85-5.76-5.75-8.61-8.62a2,2,0,0,0-1.55-.65H24.23a4.11,4.11,0,0,0-4.4,4.37V50.42q0,9.8,0,19.59a4.09,4.09,0,0,0,4.28,4.28H60.93A4.09,4.09,0,0,0,65.19,70V57.36q0-17.89,0-35.8A1.84,1.84,0,0,0,64.6,20.13ZM22,15.28a2,2,0,0,1,2.17-2.22H53.81v5A4,4,0,0,0,58,22.28H63v.17c0,.18,0,.34,0,.5V69.8a2,2,0,0,1-2.3,2.3q-18.19,0-36.4,0A2,2,0,0,1,22,69.85Q22,42.57,22,15.28Zm38.28,4.78c-.9,0-1.83,0-2.78,0A1.76,1.76,0,0,1,56,18.29c0-.88,0-1.75,0-2.59V15l5,5.06Z"/><path d="M30.1,36.69c0,1.2.36,1.54,1.58,1.54,3,0,6,0,9.08,0h3.72v.86c0,.73,0,1.43,0,2.12s.39,1.26,1.14,1.26c1.35,0,2.74,0,4.16,0h4a1,1,0,0,0,1.15-1.18c0-1,0-2,0-3a4.87,4.87,0,0,0-1.52-3.36,2.11,2.11,0,0,0-.45-.31l-.1-.07a5.55,5.55,0,0,0,2.1-5c0-.33,0-.67,0-1,0-.19,0-.39,0-.58,0-1.14-.31-1.44-1.45-1.44H49.61V25.44c0-1,0-2,0-2.91A1.34,1.34,0,0,0,49,21.27c-2.64-1.73-5.46-3.59-8.23-5.45a1.38,1.38,0,0,0-1.73,0c-3.07,2.06-5.62,3.74-8,5.29a1.72,1.72,0,0,0-.89,1.63c0,3.24,0,6.54,0,9.72ZM50,35.61a3,3,0,0,1,2.69,2.84c0,.42,0,.84,0,1.28v.5h-6.1c0-.24,0-.48,0-.72a9.57,9.57,0,0,1,.17-1.73A3,3,0,0,1,50,35.61Zm2.6-4.48a3,3,0,0,1-3.18,2.27,3.06,3.06,0,0,1-2.75-2.8c0-.43,0-.86,0-1.32,0-.16,0-.33,0-.5h6c0,.23,0,.46,0,.69A7,7,0,0,1,52.62,31.13Zm-5.2-5.45v.85H45.74c-.87,0-1.24.41-1.25,1.28,0,.71,0,1.64,0,2.58a5.25,5.25,0,0,0,1.92,4l-.17.19a2.09,2.09,0,0,0-.43.57c-.4.86-1.09.86-2,.85-1.68,0-3.38,0-5.06,0H32.34v-.14c0-.18,0-.34,0-.51V32c0-2.85,0-5.71,0-8.56a.92.92,0,0,1,.47-.9c1.95-1.26,4.07-2.66,6.67-4.42a.64.64,0,0,1,.84,0c2.16,1.45,4.42,2.95,6.73,4.45a.78.78,0,0,1,.42.79C47.41,24.15,47.41,24.89,47.42,25.68Z"/><path d="M29.42,59.78H55.51a4.24,4.24,0,0,0,.85-.07,1.12,1.12,0,0,0,.7-.45.83.83,0,0,0,.12-.65,2,2,0,0,0-.78-1,1,1,0,0,0-.61-.11H29.41a1.84,1.84,0,0,0-1.33.4,1,1,0,0,0-.27.71C27.81,59.08,28,59.77,29.42,59.78Z"/><path d="M29.22,48.26c3.5,0,7.07,0,10.51,0H56.09a1.11,1.11,0,0,0,1.13-1.07,1.14,1.14,0,0,0-1.09-1.11H29.24a2.68,2.68,0,0,0-.49,0,1.19,1.19,0,0,0-.9.78,1,1,0,0,0,.24,1A1.85,1.85,0,0,0,29.22,48.26Z"/><path d="M55.77,51.81h-.1q-13.15,0-26.3,0a2.84,2.84,0,0,0-.72.06A1.08,1.08,0,0,0,28.82,54H55.49l.21,0h.24A.62.62,0,0,0,56.3,54c.37-.23.8-.54.85-.89s-.44-.94-.59-1.09A1.19,1.19,0,0,0,55.77,51.81Z"/><path d="M54.66,66.13l-.9,1-.29.32-.09-.23-.3-.78c0-.12-.09-.24-.13-.36a7.11,7.11,0,0,0-.34-.82,1.64,1.64,0,0,0-1.18-1,1.68,1.68,0,0,0-1.42.54,6,6,0,0,0-.75.93c-.27.39-.54.79-.79,1.18l-.27.41v-.18a3.22,3.22,0,0,0,0-.62c0-.21-.06-.42-.08-.62a12.19,12.19,0,0,0-.35-2A2,2,0,0,0,45,62.49a3.42,3.42,0,0,0-1.58.94c-1.25,1.51-2.43,3.11-3.58,4.65l-.19.26a.94.94,0,0,0,.24,1.35,1,1,0,0,0,.69.28,1.08,1.08,0,0,0,.73-.31,2.88,2.88,0,0,0,.39-.46l.07-.09L42.57,68c.61-.83,1.24-1.69,1.89-2.51a5.1,5.1,0,0,1,.83-.75l.34-.27,0,.11a.82.82,0,0,1,.07.21c.06.6.12,1.21.17,1.82l.1,1a2.26,2.26,0,0,0,1.37,2.16A2,2,0,0,0,49.67,69a7.56,7.56,0,0,0,.57-.72c.2-.28.39-.57.59-.87l.13-.21c.08.16.15.32.22.48A9.42,9.42,0,0,0,51.89,69a1.76,1.76,0,0,0,1.22.86,1.72,1.72,0,0,0,1.39-.49,21.35,21.35,0,0,0,1.78-1.78,1.32,1.32,0,0,0,.41-1,1,1,0,0,0-.39-.74A1.13,1.13,0,0,0,54.66,66.13Z"/><path d="M39.15,26.28h0a21.28,21.28,0,0,1,2.84.31c.82.15,1.34,0,1.55-.57a1,1,0,0,0,0-.83,1.35,1.35,0,0,0-.82-.67c-.41-.15-.83-.26-1.24-.37l-.35-.1,0-.05-.1-.09a3.58,3.58,0,0,1-.29-.27,2.31,2.31,0,0,0-.78-.58,1,1,0,0,0-.68.12c-.13.07-.31.18-.34.33-.13.49-.47.62-.86.77l-.33.13a2.45,2.45,0,0,0-1.68,2.25,2.34,2.34,0,0,0,1.7,2.23,7.15,7.15,0,0,0,1.37.31l.74.13c.36.08.73.18,1.09.28l.41.11v.12L41.2,30a1.24,1.24,0,0,1-.56.23h0a25.91,25.91,0,0,1-3-.34c-1-.17-1.34.23-1.48.59a1.07,1.07,0,0,0,0,.86,1.19,1.19,0,0,0,.73.63c.44.15.9.28,1.35.4l.53.14c.15.51.38,1,1,1h0A1.12,1.12,0,0,0,41,32.54s0-.1.31-.23l.4-.15a5.38,5.38,0,0,0,.51-.2,2.37,2.37,0,0,0,1.45-2.12,2.17,2.17,0,0,0-1.43-2.12,10.2,10.2,0,0,0-2.29-.56l-.25,0a2.14,2.14,0,0,1-1.33-.52l.21-.11A1.58,1.58,0,0,1,39.15,26.28Z"/></svg>