<svg id="Layer_1" data-name="Layer 1" xmlns="http://www.w3.org/2000/svg" viewBox="0 0 85.04 85.04"><defs><style>.cls-1{stroke:#000;stroke-miterlimit:10;stroke-width:0.5px;}</style></defs><path class="cls-1" d="M68.87,54.2a12.53,12.53,0,0,1-1,2,3.73,3.73,0,0,1-3.06,1.54c-2.59,0-5.18,0-7.77,0a1,1,0,0,1-1.07-1,1,1,0,0,1,1.1-1h7.16a2.33,2.33,0,0,0,2.63-2.61V32a2.33,2.33,0,0,0-2.63-2.62H35.94a2.1,2.1,0,0,1-.79-.1.94.94,0,0,1-.58-1.07,1,1,0,0,1,.89-.84,5.19,5.19,0,0,1,.56,0c9.4,0,18.81,0,28.21,0a4.45,4.45,0,0,1,4.56,3.45.42.42,0,0,0,.08.12Z"/><path class="cls-1" d="M34.81,57.75H21.41a4.26,4.26,0,0,1-4.52-4.5V31.78a4.26,4.26,0,0,1,4.49-4.48h6a1,1,0,0,1,1.07.81,1,1,0,0,1-.63,1.14,1.73,1.73,0,0,1-.6.07H21.47a2.3,2.3,0,0,0-2.55,2.54V53.19a2.29,2.29,0,0,0,2.55,2.53h27c.92,0,1.41.34,1.43,1s-.5,1-1.44,1Z"/><path class="cls-1" d="M40.1,46.6c.41-1.21.78-2.32,1.15-3.44l2.64-8a2.87,2.87,0,0,1,.21-.51,1,1,0,0,1,1.26-.45A1,1,0,0,1,46,35.38c-.4,1.29-.82,2.57-1.25,3.85-1.17,3.57-2.36,7.14-3.54,10.7-.22.68-.57,1-1.07,1s-.84-.31-1.06-1q-1.83-5.51-3.65-11c0-.13-.09-.25-.16-.45-.78,2.34-1.54,4.61-2.29,6.88-.51,1.53-1,3.07-1.52,4.6-.22.64-.55.95-1.05.95s-.85-.31-1.06-.93L24.59,35.72c-.15-.45-.23-.95.19-1.25a1.65,1.65,0,0,1,1-.24c.44.05.61.47.74.87l3.54,10.71c.08.22.16.44.26.75a4.7,4.7,0,0,0,.17-.45c1.22-3.64,2.42-7.29,3.65-10.93a1.86,1.86,0,0,1,.6-.89c.58-.39,1.24,0,1.51.75.45,1.34.88,2.68,1.33,4C38.42,41.54,39.24,44,40.1,46.6Z"/><path class="cls-1" d="M50,42.53a32.09,32.09,0,0,1,0-3.8,5.06,5.06,0,0,1,4.78-4.57,5.83,5.83,0,0,1,4.71,1.25,5,5,0,0,1,1.81,3.66c0,.76-.34,1.26-1,1.29s-1-.44-1.08-1.17A2.8,2.8,0,0,0,58,36.87a4.3,4.3,0,0,0-1.72-.62,6,6,0,0,0-2.11.12A2.87,2.87,0,0,0,52,39.08c0,2.3-.06,4.6,0,6.9A3,3,0,0,0,55,48.83a7.87,7.87,0,0,0,1.82-.06,3.07,3.07,0,0,0,2.46-2.91c.06-.72.5-1.19,1.08-1.16s1,.53,1,1.29a4.8,4.8,0,0,1-.09.75,5.17,5.17,0,0,1-4.55,4.13,6.35,6.35,0,0,1-4-.58,5.15,5.15,0,0,1-2.79-4.57c0-1.06,0-2.13,0-3.19Z"/><path class="cls-1" d="M51.89,56.72a1,1,0,0,1,1-1,1,1,0,1,1,0,2A1,1,0,0,1,51.89,56.72Z"/><path class="cls-1" d="M30.5,28.27a1,1,0,0,1,1.07-1,1,1,0,0,1,1,1.05,1,1,0,1,1-2-.08Z"/></svg>