<svg id="Layer_1" data-name="Layer 1" xmlns="http://www.w3.org/2000/svg" viewBox="0 0 85.04 85.04"><path d="M74.37,72.13l-.3-.32c-.75-.75-1.51-1.49-2.25-2.26a1.07,1.07,0,0,1-.08-1.47,1.11,1.11,0,0,1,1.44-.3,2,2,0,0,1,.39.32l4.26,4.26a1.15,1.15,0,0,1,0,1.89l-4.34,4.33a1.1,1.1,0,0,1-1.34.28,1.06,1.06,0,0,1-.63-1.17,1.55,1.55,0,0,1,.4-.73c.67-.71,1.38-1.39,2.07-2.09.11-.1.21-.22.39-.4l-.49,0h-55c-2.33,0-4.67,0-7,0-1.15,0-1.62-.47-1.61-1.63,0-7,0-14,0-21q0-12.56,0-25.1V10.33l-.56.54c-.67.66-1.33,1.34-2,2a1.11,1.11,0,0,1-1.32.23A1.05,1.05,0,0,1,5.76,12a1.37,1.37,0,0,1,.32-.7Q8.33,9,10.61,6.76a1.06,1.06,0,0,1,1.6,0c1.52,1.5,3,3,4.54,4.54a1.13,1.13,0,1,1-1.62,1.58c-.74-.72-1.47-1.47-2.21-2.2l-.34-.32c0,.2,0,.33,0,.45q0,10.69,0,21.4,0,11.4,0,22.8,0,8.36,0,16.73c0,.34.09.45.44.45,3.69,0,7.37,0,11.06,0l.39,0c0-.18,0-.35,0-.51v-27c0-5.78,0-11.56,0-17.34,0-.36-.06-.5-.47-.55A3.4,3.4,0,0,1,24.38,20h1.9a.51.51,0,0,0,.5-.25c1.16-1.65,2.33-3.28,3.48-4.92a3.47,3.47,0,0,1,3.12-1.63h.69c.65,0,.58.06.58-.57,0-1.66,0-3.33,0-5a1.61,1.61,0,0,1,.23-.77,1.11,1.11,0,0,1,1.23-.45,1.22,1.22,0,0,1,.8,1c0,.66,0,1.32,0,2q0,3.55,0,7.1a1.13,1.13,0,0,1-1.65,1.06,1.11,1.11,0,0,1-.62-1,8.77,8.77,0,0,0,0-.89.36.36,0,0,0-.24-.25,6.56,6.56,0,0,0-1.33,0,1.22,1.22,0,0,0-.75.41c-1,1.3-1.88,2.62-2.81,3.94,0,0,0,.05,0,.12H60.27c-.11-.17-.19-.32-.28-.45-.8-1.13-1.61-2.25-2.4-3.39a1.49,1.49,0,0,0-1.31-.67c-3.65,0-7.3,0-11,0-.48,0-.48,0-.48-.47V13.78c0-.56,0-.56.55-.56H56.34a3.49,3.49,0,0,1,3.06,1.56c1.17,1.66,2.35,3.31,3.52,5a.59.59,0,0,0,.54.27c.62,0,1.24,0,1.86,0a3.4,3.4,0,0,1,.24,6.79c-.27,0-.3.15-.3.37q0,5.85,0,11.7V57.37q0,7.22,0,14.43c0,.25,0,.37.33.37,2.83,0,5.65,0,8.47,0A2.91,2.91,0,0,0,74.37,72.13ZM63,72.16c0-1,0-2,0-3,0-.32-.09-.42-.4-.41H56.39c-1.76,0-3.52,0-5.28,0a1.13,1.13,0,0,1-1-1.71,1.16,1.16,0,0,1,1.12-.57H62.59c.22,0,.41,0,.41-.31,0-4,0-8,0-12V41.74q0-7.29,0-14.58c0-.27-.1-.35-.36-.35-.5,0-1,0-1.5,0h-34c-.33,0-.43.09-.42.42,0,1.16,0,2.32,0,3.48q0,8.46,0,16.91,0,9.25,0,18.52c0,.27.08.35.35.35q2.19,0,4.38,0c.31,0,.38-.1.37-.39q0-1.29,0-2.58A7.25,7.25,0,0,1,32.33,61,7.34,7.34,0,0,1,42.5,57.09a7,7,0,0,1,4,6.39c.09,2.74,0,5.49,0,8.23,0,.46,0,.45.48.45H63Zm-23.83,0h4.63c.5,0,.5,0,.5-.47,0-2.11,0-4.22,0-6.32a18.54,18.54,0,0,0-.16-2.89,4.49,4.49,0,0,0-2-3,5.09,5.09,0,0,0-8,3.79c-.1,2.86,0,5.72,0,8.58,0,.29.13.33.37.33Zm5.67-47.61H65.25a1.16,1.16,0,0,0,1.14-1,1.17,1.17,0,0,0-.86-1.22,2.59,2.59,0,0,0-.56,0H27.1c-.9,0-1.8,0-2.69,0a1.14,1.14,0,0,0-1.08,1.13,1.12,1.12,0,0,0,1.08,1.12c.27,0,.55,0,.82,0ZM26.73,72.12l.15,0h4.7c.19,0,.24-.09.24-.26,0-.38,0-.77,0-1.15v-2l-.4,0H27.05c-.15,0-.33,0-.33.21C26.73,70,26.73,71.06,26.73,72.12Z"/><path d="M42.59,13.22c0,1.15,0,2.3,0,3.45a1.14,1.14,0,0,1-2.27,0c0-.27,0-.55,0-.82s-.07-.36-.34-.36c-.79,0-.79,0-.79-.82,0-.38,0-.76,0-1.15,0-.21.08-.31.29-.29h0c.8,0,.8,0,.81-.86V9.92a1.14,1.14,0,1,1,2.27,0c0,1.1,0,2.2,0,3.3Z"/><path d="M51.66,59.12V55.28A1.13,1.13,0,0,1,52.9,54h6.64a1.13,1.13,0,0,1,1.19,1.2c0,2.63,0,5.27,0,7.9a1.14,1.14,0,0,1-1.2,1.11H53a2.33,2.33,0,0,1-.53,0,1.15,1.15,0,0,1-.82-1.13v-4Zm6.8,0c0-.81,0-1.63,0-2.44,0-.28-.06-.4-.37-.39-1.27,0-2.53,0-3.8,0-.28,0-.37.08-.37.36q0,2.48,0,5c0,.25.06.36.34.36,1.29,0,2.58,0,3.87,0,.25,0,.34-.08.33-.33C58.45,60.8,58.46,60,58.46,59.13Z"/><path d="M60.73,46.71v3.8a1.13,1.13,0,0,1-1.24,1.25c-2.2,0-4.4,0-6.61,0a1.14,1.14,0,0,1-1.22-1.24c0-2.52,0-5.05,0-7.57,0-1,.41-1.41,1.42-1.4h6.28a1.19,1.19,0,0,1,1.37,1.35C60.74,44.17,60.73,45.44,60.73,46.71Zm-2.27,0c0-.82,0-1.64,0-2.47,0-.28-.06-.4-.37-.39-1.27,0-2.53,0-3.8,0-.28,0-.37.08-.37.36q0,2.48,0,5c0,.25.06.36.34.36h3.87c.25,0,.33-.08.33-.33C58.45,48.34,58.46,47.52,58.46,46.69Z"/><path d="M38.06,46.77v3.77a1.16,1.16,0,0,1-1.24,1.23H30.33A1.17,1.17,0,0,1,29,50.43c0-2.49,0-5,0-7.46,0-.59.13-1.11.75-1.33a1.55,1.55,0,0,1,.53-.08h6.53A1.13,1.13,0,0,1,38,42.65c0,.21,0,.43,0,.64v3.48Zm-2.28-.1h0c0-.83,0-1.67,0-2.51,0-.2,0-.33-.29-.33-1.3,0-2.6,0-3.91,0-.24,0-.33.08-.33.33,0,1.67,0,3.35,0,5,0,.23.07.31.31.31,1.3,0,2.6,0,3.91,0,.23,0,.31-.07.3-.31C35.77,48.35,35.78,47.51,35.78,46.67Z"/><path d="M51.66,34.19V30.35a1.13,1.13,0,0,1,1.24-1.26h6.64a1.12,1.12,0,0,1,1.19,1.19v7.83a1.14,1.14,0,0,1-1.2,1.19H52.85a1.12,1.12,0,0,1-1.19-1.19C51.65,36.79,51.66,35.49,51.66,34.19Zm2.27,0c0,.81,0,1.61,0,2.41,0,.3.07.42.4.41,1.25,0,2.51,0,3.76,0,.3,0,.39-.09.38-.39,0-1.64,0-3.27,0-4.91,0-.27-.06-.38-.35-.38-1.28,0-2.56,0-3.84,0-.27,0-.35.08-.35.35C53.94,32.54,53.93,33.38,53.93,34.21Z"/><path d="M29,34.18c0-1.28,0-2.56,0-3.84a1.13,1.13,0,0,1,1.24-1.25H36.8a1.14,1.14,0,0,1,1.26,1.24v7.79a1.11,1.11,0,0,1-1.17,1.17H30.17A1.12,1.12,0,0,1,29,38.09C29,36.79,29,35.48,29,34.18Zm6.81,0c0-.83,0-1.67,0-2.51,0-.26-.08-.35-.35-.34-1.28,0-2.55,0-3.83,0-.26,0-.36.07-.36.35q0,2.49,0,5c0,.26.08.35.35.35,1.28,0,2.56,0,3.83,0,.3,0,.37-.11.36-.38C35.78,35.84,35.79,35,35.79,34.21Z"/><path d="M49.4,46.76c0,1.25,0,2.51,0,3.76a1.13,1.13,0,0,1-1.25,1.24h-6c-.24,0-.48,0-.72,0a1.12,1.12,0,0,1-1.14-1.13c0-2.59,0-5.17,0-7.76,0-.93.43-1.31,1.36-1.31H48c.94,0,1.34.39,1.35,1.36C49.4,44.2,49.4,45.48,49.4,46.76Zm-6.81,2.69.2,0h4.05c.3,0,.28-.17.28-.37,0-1.64,0-3.28,0-4.92,0-.29-.09-.39-.39-.38-1.26,0-2.53,0-3.8,0-.3,0-.36.11-.35.37,0,.79,0,1.58,0,2.37Z"/><path d="M40.32,34.19V30.35a1.14,1.14,0,0,1,1.27-1.26c2.18,0,4.35,0,6.53,0a1.17,1.17,0,0,1,1.28,1.3V38a1.17,1.17,0,0,1-1.28,1.3H42.67c-.38,0-.77,0-1.15,0a1.15,1.15,0,0,1-1.2-1.19Zm6.78-2.78-.16,0H42.88c-.29,0-.29.17-.29.37,0,1.65,0,3.3,0,5,0,.27.09.34.35.34h3.84l.32,0Z"/></svg>