<svg id="Layer_1" data-name="Layer 1" xmlns="http://www.w3.org/2000/svg" viewBox="0 0 85.04 85.04"><path d="M13.05,42.58A29.43,29.43,0,1,1,42.47,71.92,29.41,29.41,0,0,1,13.05,42.58Zm56.75-.07A27.26,27.26,0,0,0,42.64,15.2a26.26,26.26,0,0,0-18.86,7.45,26.62,26.62,0,0,0-8.61,19.81,27.32,27.32,0,1,0,54.63,0Z"/><path d="M63.87,65.32,65.33,64l6.4,6.45.14-.09a3.44,3.44,0,0,0,0-.45c0-.94,0-1.87,0-2.8,0-.27,0-.39.35-.37.48,0,1,0,1.46,0,.22,0,.31.06.31.29,0,2,0,3.94,0,5.9a1.08,1.08,0,0,1-1.14,1.13c-2,0-3.93,0-5.9,0-.23,0-.29-.1-.29-.32a14,14,0,0,0,0-1.45c0-.29.1-.34.34-.34h2.8c.17,0,.33,0,.59-.07Z"/><path d="M13.12,70.44c.21-.22.34-.38.49-.52l5.73-5.73c.34-.34.33-.33.66,0a11.91,11.91,0,0,0,.89.85c.2.19.23.32,0,.54l-6.14,6.11-.16.2a3.35,3.35,0,0,0,.45.07c.92,0,1.85,0,2.77,0,.35,0,.52.06.47.47a5.92,5.92,0,0,0,0,1.19c0,.39-.11.46-.46.46-1.22,0-2.44,0-3.66,0H12.31c-.94,0-1.35-.4-1.35-1.34,0-1.87,0-3.74,0-5.6,0-.3.07-.43.4-.4a12.71,12.71,0,0,0,1.38,0c.25,0,.33.08.33.32q0,1.38,0,2.76C13.06,70,13.09,70.16,13.12,70.44Z"/><path d="M18.28,11V13.1H14.61l6.54,6.58-1.5,1.41-6.42-6.48-.13.07c0,.12,0,.23,0,.35,0,1,0,1.94,0,2.91,0,.28-.07.4-.38.38s-.93,0-1.39,0c-.22,0-.34,0-.34-.3,0-2,0-3.94,0-5.91A1,1,0,0,1,12,11c2.06,0,4.11,0,6.16,0C18.22,11,18.24,11,18.28,11Z"/><path d="M70.37,13.13c-.21,0-.35,0-.5,0h-2.8c-.28,0-.4-.07-.37-.38s0-.92,0-1.38c0-.23,0-.35.31-.35,2,0,3.93,0,5.89,0A1.06,1.06,0,0,1,74,12.19v5.64c0,.48,0,.47-.5.47s-.83,0-1.23,0-.38-.1-.38-.38c0-.95,0-1.89,0-2.84a3.68,3.68,0,0,0-.06-.43l-1.16,1.1-5.07,5.07c-.35.35-.35.35-.69,0a9.51,9.51,0,0,0-.84-.84c-.28-.23-.17-.38,0-.57l4.23-4.22Z"/><path d="M44.58,39.38h-3a1,1,0,0,1-1.12-1.07c0-1.78,0-3.56,0-5.33,0-.22,0-.34-.26-.43-.44-.19-.86-.43-1.29-.65a1,1,0,0,1-.56-.9c0-1.64,0-3.29,0-4.93a3.68,3.68,0,0,1,2-3.1c.2-.13.23-.23.19-.41a4.19,4.19,0,1,1,8.23-.86c0,.29-.11.58-.12.88a.5.5,0,0,0,.19.36,3.89,3.89,0,0,1,2,2.66,3,3,0,0,1,0,.52c0,1.58,0,3.16,0,4.74A1.09,1.09,0,0,1,50.2,32c-.38.18-.75.39-1.14.56a.45.45,0,0,0-.3.48c0,1.75,0,3.49,0,5.23a1.08,1.08,0,0,1-1.16,1.16Zm2.12-2.11c0-.07,0-.12,0-.16V31.92a.78.78,0,0,1,.46-.77c.41-.2.79-.44,1.2-.6a.62.62,0,0,0,.44-.7c0-1.12,0-2.24,0-3.36A1.75,1.75,0,0,0,47,24.62,1.09,1.09,0,0,1,46,24a1.07,1.07,0,0,1,.24-1.17l0-.06A2,2,0,0,0,46.1,20a2.08,2.08,0,0,0-2.72-.25,2,2,0,0,0-.58,2.77c.12.19.25.38.36.57a.9.9,0,0,1,.07.92,1.08,1.08,0,0,1-1.08.58,1.74,1.74,0,0,0-1.78,1.76c0,1.22,0,2.44,0,3.66a.4.4,0,0,0,.27.42l1.26.63a.93.93,0,0,1,.57,1c0,1.12,0,2.23,0,3.35v1.87Z"/><path d="M26.14,49.86c-1.2,0-2.41,0-3.62,0-.71,0-1-.4-1-1.11,0-1.73,0-3.46,0-5.19a.46.46,0,0,0-.3-.52c-.36-.15-.69-.34-1-.51a1.16,1.16,0,0,1-.77-1.19c0-1.52,0-3,0-4.55a3.44,3.44,0,0,1,2-3.27c.28-.14.19-.34.16-.54a4.67,4.67,0,0,1,.11-2.32,4.18,4.18,0,0,1,3.51-2.78A4,4,0,0,1,29.37,30a3.54,3.54,0,0,1,.34,3c-.11.32.13.4.32.5A3.64,3.64,0,0,1,32,36.32a13.49,13.49,0,0,1,0,1.91c0,1.07,0,2.14,0,3.21a1,1,0,0,1-.58,1c-.45.22-.9.43-1.32.68a.56.56,0,0,0-.2.41q0,2.58,0,5.16c0,.32,0,.65-.28.85a1.6,1.6,0,0,1-.78.34c-.9,0-1.79,0-2.69,0Zm1.69-2.1v-.43c0-1.6,0-3.19,0-4.78a1,1,0,0,1,.63-1c.4-.17.77-.39,1.17-.57a.45.45,0,0,0,.31-.48c0-1.22,0-2.44,0-3.66a1.31,1.31,0,0,0-.07-.44A1.84,1.84,0,0,0,28,35.11a1,1,0,0,1-.85-1.48c.12-.21.26-.4.39-.6a2.1,2.1,0,1,0-3.87-.55,4.23,4.23,0,0,0,.46.93,1.78,1.78,0,0,1,.25.71c0,.63-.35,1-1,1A1.74,1.74,0,0,0,21.47,37c0,1.17,0,2.34,0,3.51a.46.46,0,0,0,.3.46c.37.16.74.34,1.1.54s.7.44.7.89c0,1.61,0,3.22,0,4.82v.52Z"/><path d="M40.37,66.67q-1.53,0-3.06,0a1,1,0,0,1-1.09-1c0-1.73,0-3.46,0-5.19a.63.63,0,0,0-.39-.64l-1.07-.54a1.08,1.08,0,0,1-.66-1.06c0-1.59,0-3.19,0-4.78a3.46,3.46,0,0,1,2-3.08c.21-.12.28-.21.23-.47a4.2,4.2,0,1,1,8.14,0,.38.38,0,0,0,.22.48,3.54,3.54,0,0,1,2,3.23c0,1.51,0,3,0,4.55a1.17,1.17,0,0,1-.76,1.19l-1.07.55a.45.45,0,0,0-.29.49c0,1.74,0,3.47,0,5.2,0,.31,0,.65-.3.83a1.58,1.58,0,0,1-.73.29C42.49,66.69,41.43,66.67,40.37,66.67Zm-2.11-2H42c.52,0,.51.11.51-.53,0-1.54,0-3.09,0-4.63a1.1,1.1,0,0,1,.71-1.14,11.47,11.47,0,0,0,1.16-.59.5.5,0,0,0,.23-.37c0-1.13,0-2.26,0-3.39a1.8,1.8,0,0,0-1.94-2,.83.83,0,0,1-.49-.14A1,1,0,0,1,42,50.19a2.08,2.08,0,0,0-.29-3,2.11,2.11,0,0,0-3,.39,2.08,2.08,0,0,0,.16,2.71,1,1,0,0,1-.27,1.52A1.34,1.34,0,0,1,38,52a1.74,1.74,0,0,0-1.86,2c0,1.13,0,2.27,0,3.4a.4.4,0,0,0,.27.43c.41.19.82.41,1.23.62a1,1,0,0,1,.62,1c0,.62,0,1.24,0,1.86Z"/><path d="M60.35,53H57.28a1,1,0,0,1-1.1-1.12c0-1.72,0-3.44,0-5.15a.54.54,0,0,0-.38-.59c-.41-.18-.8-.4-1.21-.59a.89.89,0,0,1-.51-.85c0-1.69,0-3.39,0-5.08a3.31,3.31,0,0,1,1.79-2.83c.31-.19.48-.3.36-.76a4.14,4.14,0,0,1,3.18-4.92,4,4,0,0,1,4.18,1.47,3.81,3.81,0,0,1,.75,3.7.38.38,0,0,0,.13.31,3.77,3.77,0,0,1,2,2.42,2.65,2.65,0,0,1,.12.73c0,1.65,0,3.29,0,4.93,0,.49-.32.71-.66.92s-.75.39-1.13.57a.5.5,0,0,0-.32.52c0,1.76,0,3.51,0,5.27A1,1,0,0,1,63.49,53Zm-2.09-4.83h0c0,.8,0,1.61,0,2.42,0,.27,0,.37.34.37,1.19,0,2.37,0,3.55,0,.29,0,.39-.06.38-.37,0-1.58,0-3.16,0-4.74a1.14,1.14,0,0,1,.76-1.19,12,12,0,0,0,1.12-.59.48.48,0,0,0,.22-.35c0-1.15,0-2.29,0-3.44a1.77,1.77,0,0,0-2-2,.94.94,0,0,1-.55-.17,1,1,0,0,1-.16-1.53,2.29,2.29,0,0,0,.57-1.43,2.15,2.15,0,0,0-3.17-1.83,2,2,0,0,0-1,1.51,1.89,1.89,0,0,0,.42,1.6A1.1,1.1,0,0,1,59,37.69a1.06,1.06,0,0,1-1.13.6,1.6,1.6,0,0,0-1.64,1.42c0,1.36,0,2.72,0,4.07a.43.43,0,0,0,.22.32c.39.21.8.39,1.21.59a1.11,1.11,0,0,1,.65,1C58.27,46.54,58.26,47.35,58.26,48.16Z"/><path d="M25.71,56.23h2.05v2.05H25.9a.29.29,0,0,1-.18-.22C25.7,57.46,25.71,56.87,25.71,56.23Z"/><path d="M33,22.58v2H31v-2Z"/><path d="M55.08,61.39H53v-2h1.87c.06,0,.16.13.16.2C55.08,60.15,55.08,60.76,55.08,61.39Z"/><path d="M55.15,24.68c.62,0,1.22,0,1.83,0a.26.26,0,0,1,.19.2c0,.59,0,1.19,0,1.81h-2Z"/><path d="M45.62,25.76v3h-2v-3Z"/><path d="M24.64,39.35V36.27h2v3.08Z"/><path d="M41.43,56.17h-2V53.06h2Z"/><path d="M61.33,42.49c-.6,0-1.2,0-1.79,0a.31.31,0,0,1-.21-.22c0-.87,0-1.74,0-2.61a.35.35,0,0,1,.26-.26c.52,0,1,0,1.57,0a.31.31,0,0,1,.22.21c0,.91,0,1.82,0,2.72A.77.77,0,0,1,61.33,42.49Z"/></svg>