<svg id="Layer_1" data-name="Layer 1" xmlns="http://www.w3.org/2000/svg" viewBox="0 0 85.04 85.04"><path d="M42.78,10.52H70.89c1.36,0,1.65.29,1.65,1.64v29c0,.78-.21,1.18-.75,1.37a1.55,1.55,0,0,1-.48.07H65.83a1.06,1.06,0,1,1,0-2.11c1.37,0,2.74,0,4.11,0,.35,0,.46-.12.46-.47q0-9.28,0-18.59c0-2.74,0-5.48,0-8.22,0-.56,0-.56-.56-.56H15.67c-.5,0-.51,0-.51.51,0,2.28,0,4.56,0,6.85s0,4.54,0,6.81,0,4.71,0,7.06c0,2,0,4,0,6,0,.58,0,.58.57.58h4.39a1,1,0,0,1,1,.82,1,1,0,0,1-.68,1.23,1.32,1.32,0,0,1-.49.07H14.24A1.09,1.09,0,0,1,13,41.41q0-3.39,0-6.78V11.79c0-.88.39-1.26,1.27-1.27h28.5Z"/><path d="M43,40.22c1.23,0,2.46,0,3.69,0a4.74,4.74,0,0,1,4,2.36c.76,1.23,1.4,2.54,2.07,3.83q5.49,10.39,11,20.81c1.09,2.06,2.16,4.13,3.25,6.19a1.27,1.27,0,0,1,.1,1.21,1.06,1.06,0,0,1-1.88,0c-.38-.63-.7-1.29-1-2L57.4,59.93,49.21,44.29a3.36,3.36,0,0,0-2.09-1.86,2.16,2.16,0,0,0-.62-.09H39a2.82,2.82,0,0,0-2.54,1.51c-.84,1.47-1.6,3-2.39,4.49q-4.73,9-9.44,18L20.29,74.5a1.13,1.13,0,0,1-1.11.71,1,1,0,0,1-.95-.85,1.52,1.52,0,0,1,.17-.86c1.94-3.73,3.89-7.44,5.85-11.16l10-19a5.38,5.38,0,0,1,3.2-2.88,7.28,7.28,0,0,1,1.86-.28c1.23,0,2.46,0,3.69,0Z"/><path d="M69.72,72.88c-.56,0-1.12,0-1.69,0a1.06,1.06,0,0,1-1.06-1,1.1,1.1,0,0,1,1.08-1.09c.89,0,1.78,0,2.67,0a2.62,2.62,0,0,0,2.66-2.06c.9-3.29,1.77-6.59,2.66-9.89a1.15,1.15,0,0,0-.31-1.21c-1-1-2-2-3-3.07-.4-.4-.82-.29-1,.25-.52,1.91-1,3.82-1.54,5.73a9.56,9.56,0,0,1-1.11,3,4.68,4.68,0,0,1-3.93,2.14H64.3a1.11,1.11,0,0,1-1.08-1.08,1.05,1.05,0,0,1,1.06-1.08c.27,0,.54,0,.81,0a2.55,2.55,0,0,0,2.53-1.9c.54-1.91,1-3.83,1.56-5.75.18-.66.35-1.31.57-2a2.59,2.59,0,0,1,4.17-1.16c.74.63,1.38,1.36,2.07,2l1.31,1.32a3.13,3.13,0,0,1,.81,3.23c-.59,2.19-1.16,4.39-1.75,6.58-.36,1.32-.65,2.66-1.13,3.94a4.44,4.44,0,0,1-3.48,3,11.44,11.44,0,0,1-2,0Z"/><path d="M15.79,72.94a15.45,15.45,0,0,1-2.27-.21,4.42,4.42,0,0,1-3.37-3.29c-.76-2.64-1.42-5.3-2.13-8-.21-.78-.44-1.55-.63-2.34a3,3,0,0,1,.77-2.92c1.05-1.07,2.11-2.13,3.15-3.21a2.52,2.52,0,0,1,2.67-.8,2.73,2.73,0,0,1,1.93,2.09c.5,1.89,1,3.77,1.51,5.66.15.55.29,1.11.45,1.66a2.59,2.59,0,0,0,2.57,1.9h.77a1,1,0,0,1,1.05,1,1.05,1.05,0,0,1-1,1.12A4.88,4.88,0,0,1,15.76,62c-.66-2.39-1.29-4.79-1.94-7.18-.17-.62-.57-.73-1-.28-1,1-2,2.07-3.06,3.1a1,1,0,0,0-.27,1.1c.58,2.19,1.18,4.38,1.76,6.57.3,1.12.59,2.24.89,3.36a2.66,2.66,0,0,0,2.65,2.08c.9,0,1.8,0,2.7,0a1.07,1.07,0,0,1,.44,2,1.29,1.29,0,0,1-.51.1c-.54,0-1.08,0-1.62,0Z"/><path d="M62.64,60.71h-1a1.08,1.08,0,0,1-1.12-1.1,1.09,1.09,0,0,1,1.13-1.07h1.72a1.81,1.81,0,0,0,1.9-1.4c.4-1.43.77-2.87,1.15-4.3.31-1.13.6-2.26.92-3.39a.88.88,0,0,0-.24-1c-.74-.71-1.45-1.46-2.18-2.19a2.21,2.21,0,0,0-.36-.23,2.12,2.12,0,0,0-.23.41c-.52,1.91-1,3.83-1.56,5.72A4,4,0,0,1,58.58,55a1.09,1.09,0,0,1-1.06-1.12,1,1,0,0,1,1.09-1c1.29.05,1.93-.63,2.28-2,.45-1.77.92-3.55,1.43-5.31a2.28,2.28,0,0,1,3.8-1c.94.89,1.84,1.83,2.74,2.77a2.46,2.46,0,0,1,.56,2.4q-1,3.95-2.07,7.87a4,4,0,0,1-4.07,3.16Z"/><path d="M22.78,60.7a5.08,5.08,0,0,1-2.2-.29,4.1,4.1,0,0,1-2.41-2.88c-.65-2.41-1.29-4.83-1.94-7.25a3.23,3.23,0,0,1-.05-2.23,3.63,3.63,0,0,1,.57-.87c.81-.87,1.65-1.7,2.47-2.55a2.26,2.26,0,0,1,2.27-.71,2.39,2.39,0,0,1,1.75,1.84c.49,1.85,1,3.71,1.5,5.55a1.83,1.83,0,0,0,2.07,1.55,1.08,1.08,0,0,1,1.07,1.42,1.13,1.13,0,0,1-1,.72,4,4,0,0,1-4.1-2.71c-.39-1.19-.68-2.41-1-3.62-.21-.77-.4-1.54-.62-2.3-.12-.44-.24-.46-.55-.15-.74.75-1.47,1.52-2.22,2.25a.8.8,0,0,0-.23.89c.69,2.58,1.37,5.15,2.07,7.73a1.8,1.8,0,0,0,1.88,1.47c.61,0,1.22,0,1.83,0a1.05,1.05,0,0,1,1,.87,1,1,0,0,1-.51,1.09,1.88,1.88,0,0,1-.67.16C23.48,60.72,23.15,60.7,22.78,60.7Z"/><path d="M58.11,39.93c-.19.72-.37,1.45-.59,2.16a16.35,16.35,0,0,1-.85,2.59A2.85,2.85,0,0,1,54,46.28a1,1,0,0,1-1.07-1,1.06,1.06,0,0,1,1-1.11,1.13,1.13,0,0,0,1.1-1c.37-1.35.73-2.71,1.1-4.06a2,2,0,0,1,2.2-1.6,1.91,1.91,0,0,1,1.2.61c.55.56,1.09,1.13,1.65,1.67a2.44,2.44,0,0,1,.7,2.6c-.51,1.87-1,3.75-1.51,5.62a3.21,3.21,0,0,1-3.21,2.43c-.3,0-.59,0-.88,0a1,1,0,0,1-1-1.1,1,1,0,0,1,1-1H57a1.13,1.13,0,0,0,1.28-.95c.45-1.62.83-3.27,1.33-4.87a1.37,1.37,0,0,0-.5-1.72,10.36,10.36,0,0,1-.92-.95Z"/><path d="M28.64,50.5A3.38,3.38,0,0,1,25,47.71c-.43-1.81-.94-3.59-1.42-5.39a2.25,2.25,0,0,1,.57-2.3l1.66-1.71a2,2,0,0,1,2.05-.69,2.13,2.13,0,0,1,1.52,1.69c.35,1.28.67,2.57,1,3.86a1.2,1.2,0,0,0,1.17,1,1,1,0,0,1,.91,1.14,1.06,1.06,0,0,1-1.06,1,3.19,3.19,0,0,1-3-2.41c-.34-1.21-.66-2.42-1-3.62-.1-.36-.16-.39-.42-.13-.42.42-.85.84-1.25,1.28a.6.6,0,0,0-.1.47c.48,1.85,1,3.7,1.48,5.55a1.11,1.11,0,0,0,1.21.94h.81a1.06,1.06,0,0,1,1,1.06,1.09,1.09,0,0,1-1,1.05A5.34,5.34,0,0,1,28.64,50.5Z"/></svg>