<svg id="Layer_1" data-name="Layer 1" xmlns="http://www.w3.org/2000/svg" viewBox="0 0 85.04 85.04"><path d="M47.64,68.85H67.33c1.31,0,1.69-.4,1.69-1.76q0-24.7,0-49.41C69,16.33,68.65,16,67.3,16H17.9c-1.57,0-1.89.32-1.89,1.9V67c0,1.48.34,1.82,1.8,1.82H36c.55,0,1.09,0,1.63,0A1.19,1.19,0,0,0,38.9,67.6a1.21,1.21,0,0,0-1.24-1.19H36.3V56.78a1.82,1.82,0,0,0-.44-1.27,1.12,1.12,0,0,0-.81-.31h0c-1,0-1.17.86-1.17,1.56q0,3.1,0,6.19v3.4H18.48V61.22c0-3.79,0-7.57,0-11.35a1.42,1.42,0,0,1,.32-1.09,1.4,1.4,0,0,1,1.1-.33q6.12,0,12.24,0h2.49c1.28,0,1.68-.41,1.69-1.69V45.11c0-3.8,0-7.61,0-11.42a2.38,2.38,0,0,0-.39-1.27,1,1,0,0,0-1.25-.3,1.22,1.22,0,0,0-.79,1.33v3.83c0,2.47,0,4.93,0,7.4a1.43,1.43,0,0,1-.3,1,1.37,1.37,0,0,1-1,.3c-4.08,0-8.38,0-12.77,0a1.39,1.39,0,0,1-1-.3,1.39,1.39,0,0,1-.31-1q0-9.23,0-18.44V19.78q0-.32,0-.63l0-.64H33.86v1.64c0,1,0,1.87,0,2.79a1.09,1.09,0,0,0,1,1.18,1.15,1.15,0,0,0,1.35-1,5.23,5.23,0,0,0,0-1V18.49H48.74v1.58c0,.9,0,1.78,0,2.66a1.27,1.27,0,0,0,2,1.16,1.25,1.25,0,0,0,.41-1c0-.94,0-1.89,0-2.83V18.51H66.49V37.05H51.36l-.11-.38a.71.71,0,0,1,0-.23l0-2.89c0-.67-.21-1.48-1.15-1.52a1.16,1.16,0,0,0-.84.31,1.61,1.61,0,0,0-.44,1.17q0,6.77,0,13.52a1.5,1.5,0,0,0,.38,1.09,1.23,1.23,0,0,0,.87.32h0c1,0,1.17-.79,1.17-1.46V46c0-1.63,0-3.33,0-5a1.43,1.43,0,0,1,.3-1.08,1.39,1.39,0,0,1,1.06-.32c4.45,0,8.57,0,12.59,0A1.22,1.22,0,0,1,66.58,41q0,9.24,0,18.47v6.85H51.18V62.51q0-3,0-6a1.18,1.18,0,0,0-1.11-1.3,1.27,1.27,0,0,0-1.31,1.21,3.09,3.09,0,0,0,0,.53v9.41l-.76,0a6.71,6.71,0,0,0-.67,0,1.3,1.3,0,0,0-1.05.68,1.11,1.11,0,0,0,0,1.06A1.36,1.36,0,0,0,47.64,68.85Z"/></svg>