<svg id="Layer_1" data-name="Layer 1" xmlns="http://www.w3.org/2000/svg" viewBox="0 0 85.04 85.04"><path d="M51.64,42.55H49.2c.09.87.15,1.71.28,2.55a10.84,10.84,0,0,1-1.16,6.61c-.32.62-.64,1.24-.94,1.87a1.42,1.42,0,0,1-1.46.87c-1.1,0-2.2,0-3.41,0,.1.29.17.52.26.73L48.18,68.7s0,.09,0,.13c.36.9.2,1.49-.46,1.78s-1.21,0-1.59-1L41.08,56.9a11.57,11.57,0,0,1-.61-1.57c-.19-.77-.62-.93-1.35-.9-1.86.06-1.86,0-2.54,1.73-1.81,4.51-3.6,9-5.43,13.52a1.9,1.9,0,0,1-.84,1,1.37,1.37,0,0,1-1.09-.27c-.43-.32-.38-.82-.19-1.3,1.25-3.09,2.48-6.18,3.72-9.27l2.14-5.35c-1.16,0-2.23,0-3.29,0a1.56,1.56,0,0,1-1.7-1A38.36,38.36,0,0,1,28,48.62c-.52-2-.09-4,.19-6h-9V67.82c0,1.5-.28,1.78-1.76,1.78-1.15,0-2.3,0-3.45,0a1.18,1.18,0,0,1-1.34-1.33v-31A1.13,1.13,0,0,1,13.91,36c.64,0,1.29,0,2,0V24.48c0-1.1.36-1.48,1.45-1.49h8c1.09,0,1.44.37,1.44,1.48q0,5.33,0,10.63V36c.92,0,1.77,0,2.62,0,.15,0,.37-.28.43-.47.43-1.31.83-2.62,1.22-3.93a1.24,1.24,0,0,1,1.34-1H45a1.25,1.25,0,0,1,1.33,1c.4,1.32.82,2.62,1.2,3.94.09.33.22.48.59.48h13a3,3,0,0,0,.3-.06V34.27c0-1.76.82-2.59,2.6-2.62l.64,0c0-.91,0-1.8,0-2.69a4,4,0,0,1,.46-1.5c.4-.72.91-1.39,1.34-2L58.1,17l-.66.72a7.18,7.18,0,0,1,1.42,3.61,5,5,0,0,1-1.28,4,1.1,1.1,0,0,1-1.81,0q-3.63-3.78-7.24-7.59a1.13,1.13,0,0,1,.13-1.9,5.59,5.59,0,0,1,6.17-.35c.34.18.66.39,1.08.64.45-.47.91-1,1.38-1.43a1.11,1.11,0,0,1,1.73,0q4.8,4.77,9.57,9.57a1.12,1.12,0,0,1,.13,1.64A7.29,7.29,0,0,1,68,27.06c-1.23,1.29-1.27,2.85-1.06,4.59h.89A2.21,2.21,0,0,1,70.1,34c0,.65,0,1.3,0,2h1.43c1.57,0,1.82.24,1.82,1.79q0,13.2,0,26.4c0,1.67,0,3.34,0,5,0,1.14-.36,1.5-1.49,1.5H53.11c-1.08,0-1.46-.38-1.46-1.47q0-12.88,0-25.78ZM33,32.78a3.57,3.57,0,0,0-.14.34,75.92,75.92,0,0,0-2.65,10.59,11.08,11.08,0,0,0,1.27,8,1,1,0,0,0,.67.5q6.49,0,13,0a.77.77,0,0,0,.58-.33,10.52,10.52,0,0,0,1.54-6.84,67.32,67.32,0,0,0-2.77-11.81.58.58,0,0,0-.67-.47H33ZM53.91,54.36H71.08V42.59H53.91Zm0,14.08H71.08V56.67H53.91Zm-39-25.87V67.34h2V42.57Zm33.33-4.35a11.8,11.8,0,0,1,.3,1.37c.06.6.36.74.93.74q10.44,0,20.88,0h.72V38.22Zm-19.16,0H14.93v2c.08,0,.12.07.16.07q6.59,0,13.17,0a.62.62,0,0,0,.44-.37C28.86,39.4,29,38.85,29.09,38.25Zm-10.91-13V35.94h2V25.23ZM22.5,35.9h2V25.23h-2ZM56.31,22.79c.08-.48.17-.79.19-1.12a4.77,4.77,0,0,0-4-4.58,6.39,6.39,0,0,0-1.49.17ZM67.85,33.93h-4.2v2h4.2Z"/><path d="M56,48.38c0-.5,0-1,0-1.49a1.13,1.13,0,0,1,1.07-1.16,1.05,1.05,0,0,1,1.12,1.09c0,1.08,0,2.16,0,3.24a1.1,1.1,0,0,1-1.12,1.11A1.16,1.16,0,0,1,56,50a.66.66,0,0,1,0-.14Z"/><path d="M56,62.5c0-.52,0-1,0-1.55a1.13,1.13,0,0,1,1.09-1.15,1.06,1.06,0,0,1,1.1,1.11q.06,1.62,0,3.24a1.09,1.09,0,0,1-1.06,1.1A1.16,1.16,0,0,1,56,64.12C56,63.58,56,63,56,62.5Z"/></svg>