<svg id="Layer_1" data-name="Layer 1" xmlns="http://www.w3.org/2000/svg" viewBox="0 0 85.04 85.04"><path d="M45.59,65.63c-.47-.16-.94-.3-1.4-.48a11,11,0,0,1-6.26-5.92,10.66,10.66,0,0,1-.87-6.09,10.87,10.87,0,0,1,6.68-8.82,18.73,18.73,0,0,1,3.08-.87c.29-.07.4-.15.4-.46,0-2.81,0-5.63,0-8.44a1.47,1.47,0,0,1,.25-.78,1,1,0,0,1,1.53-.1c.41.36.79.78,1.18,1.17.15.15.32.3.52.48.46-.46.91-.91,1.33-1.37,0-.05,0-.29-.11-.37-1-1-2-2-3.06-3.07l-5.74-5.74-8.49-8.46-1.1-1.1c-.31.31-.63.6-.93.91L22.22,26.52l-7,7c-.34.34-.35.36,0,.7s.6.58.88.88.34.24.56,0c.42-.45.87-.87,1.31-1.31a1,1,0,0,1,1.18-.32,1.07,1.07,0,0,1,.69,1.1c0,3.41,0,6.82,0,10.23a1.07,1.07,0,0,1-1.05,1.11,1,1,0,0,1-1-1.12q0-3.6,0-7.2a4.54,4.54,0,0,0,0-.47c-.16.09-.26.13-.35.19A1.78,1.78,0,0,1,15.11,37l-1.89-1.89a1.77,1.77,0,0,1,0-2.65l4.93-4.92,7.76-7.75,6.3-6.28a1.75,1.75,0,0,1,2.64,0L49.71,28.37q2,2,4.07,4.07a1.78,1.78,0,0,1,0,2.78l-1.62,1.62a1.78,1.78,0,0,1-2.58.33l-.23-.1c0,.17,0,.3,0,.44,0,1.84,0,3.69,0,5.53,0,.29.09.37.36.41a11.25,11.25,0,0,1,9.25,7.62,11.32,11.32,0,0,1,.46,5.23,13.23,13.23,0,0,1-.3,1.39.46.46,0,0,0,.2.59l10.92,7.6a3.36,3.36,0,0,1-1.5,6.2,4,4,0,0,1-2.71-1c-3.44-2.43-6.9-4.83-10.35-7.25a.67.67,0,0,0-.93,0,10.6,10.6,0,0,1-4.76,1.91c-.11,0-.21,0-.31.06-.25,0-.36.13-.33.4.12,1.15-.35,1.61-1.62,1.6-5.44,0-10.87,0-16.31,0-.92,0-1.31-.41-1.31-1.32,0-3,0-6.07,0-9.1a9.25,9.25,0,0,0-.16-2.11,2.62,2.62,0,0,0-3.08-1.76,2.89,2.89,0,0,0-2.14,2.76c0,3.41,0,6.82,0,10.23a1.12,1.12,0,0,1-1.26,1.29c-1.49,0-3,0-4.46,0a1.08,1.08,0,0,1-1.23-1.22q0-6.55,0-13.1a2.25,2.25,0,0,1,.13-.86,1,1,0,0,1,1.15-.49,1,1,0,0,1,.8,1v3.45c0,2.89,0,5.78,0,8.68,0,.36.12.46.47.45.63,0,1.26,0,1.9,0,.29,0,.37-.11.37-.39V57.2a7.75,7.75,0,0,1,.33-2.75,4.77,4.77,0,0,1,4.33-3.08A4.67,4.67,0,0,1,32,55.05a7.18,7.18,0,0,1,.16,1.6q0,4.32,0,8.64c0,.31.06.43.4.43H45.26l.32,0Zm-6.52-11a8.12,8.12,0,0,0,.61,3.35,8.94,8.94,0,0,0,7.54,5.8,8.84,8.84,0,0,0,7-2.14,1.15,1.15,0,0,1,1.75-.07q5.84,4.08,11.69,8.16a1.89,1.89,0,0,0,.79.29,1.22,1.22,0,0,0,1.21-.9,1.25,1.25,0,0,0-.53-1.38c-1.73-1.22-3.47-2.42-5.2-3.63l-6.68-4.68A1.06,1.06,0,0,1,56.77,58a10.05,10.05,0,0,0,.45-1.48,9.53,9.53,0,0,0-.38-5,9.15,9.15,0,0,0-17.77,3.07Z"/><path d="M36.75,41.65c-.7,0-1.4,0-2.1,0a6.38,6.38,0,0,1-.86-.13,2,2,0,0,0-.42,0c-.42,0-.83.15-1.25.16-1.31,0-2.61,0-3.91,0a2.24,2.24,0,0,1-2.3-2.32c0-.76,0-1.52,0-2.28a5.21,5.21,0,0,1,.13-.79c0-.1.07-.22,0-.3a6.39,6.39,0,0,1-.17-2.26c0-.41,0-.83,0-1.24a2.17,2.17,0,0,1,2.2-2.21c1.48,0,2.95-.05,4.42,0a18.87,18.87,0,0,0,2,0c1.48-.08,3,0,4.45,0a2.21,2.21,0,0,1,2.19,2.2,24.29,24.29,0,0,1,0,2.56,9.55,9.55,0,0,0,0,2.07,23.22,23.22,0,0,1,0,2.36A2.18,2.18,0,0,1,39,41.65ZM36.81,35h1.94c.26,0,.34-.09.33-.34,0-.63,0-1.26,0-1.89,0-.28-.1-.4-.39-.39H35c-.24,0-.34.08-.34.33,0,.66,0,1.32,0,2,0,.24.1.31.33.31Zm-6.57,0h1.9c.2,0,.31,0,.31-.28,0-.68,0-1.36,0-2,0-.21-.09-.3-.3-.3h-3.8c-.24,0-.34.09-.34.35,0,.64,0,1.29,0,1.93,0,.25.08.34.33.34Zm4.4,4.53.12.06h4.06c.25,0,.26-.16.26-.34,0-.58,0-1.16,0-1.74,0-.23-.08-.33-.31-.33H34.91c-.09,0-.25.12-.25.19C34.64,38.07,34.64,38.79,34.64,39.49Zm-4.42.07c.64,0,1.29,0,1.93,0,.21,0,.3-.07.3-.29,0-.6,0-1.21,0-1.82,0-.24-.11-.31-.33-.31h-3.8c-.23,0-.31.1-.31.33,0,.59,0,1.18,0,1.78,0,.23.07.32.31.31C29,39.55,29.58,39.56,30.22,39.56Z"/><path d="M36.92,24.64a3.38,3.38,0,0,1-3.69,3.26,3.4,3.4,0,0,1,.47-6.78A3.39,3.39,0,0,1,36.92,24.64Zm-4.65-.09a1.27,1.27,0,0,0,1.28,1.27,1.3,1.3,0,0,0,0-2.6A1.29,1.29,0,0,0,32.27,24.55Z"/><path d="M40.26,54.52A8,8,0,1,1,48,62.6,7.95,7.95,0,0,1,40.26,54.52Zm2.09.11a5.88,5.88,0,1,0,5.89-5.87A5.85,5.85,0,0,0,42.35,54.63Z"/></svg>