<svg id="Layer_1" data-name="Layer 1" xmlns="http://www.w3.org/2000/svg" viewBox="0 0 85.04 85.04"><path d="M27.11,51.07h0a22.05,22.05,0,0,1,3.13.34c.9.17,1.47,0,1.7-.63a1.15,1.15,0,0,0,0-.91,1.49,1.49,0,0,0-.9-.74c-.45-.16-.92-.29-1.37-.41l-.38-.1.05-.06-.11-.1c-.11-.09-.21-.19-.31-.29a2.68,2.68,0,0,0-.86-.65,1,1,0,0,0-.75.14.67.67,0,0,0-.38.36c-.14.54-.51.68-.94.84-.12,0-.25.09-.37.15a2.68,2.68,0,0,0-1.84,2.47,2.57,2.57,0,0,0,1.87,2.46,7.75,7.75,0,0,0,1.5.34c.27,0,.55.09.81.15.41.08.82.19,1.21.3l.45.12V55l-.26.14a1.55,1.55,0,0,1-.63.24h0A26.62,26.62,0,0,1,25.45,55c-1.07-.19-1.48.25-1.63.66a1.18,1.18,0,0,0,0,.94,1.31,1.31,0,0,0,.81.69c.48.17,1,.31,1.48.44l.58.15c.17.56.42,1.07,1.1,1.08h0a1.22,1.22,0,0,0,1.26-1s0-.11.35-.25a4.29,4.29,0,0,1,.43-.16,3.88,3.88,0,0,0,.56-.23A2.59,2.59,0,0,0,32,55a2.37,2.37,0,0,0-1.57-2.33A11.17,11.17,0,0,0,27.94,52l-.27,0a2.43,2.43,0,0,1-1.46-.57l.23-.12A1.72,1.72,0,0,1,27.11,51.07Z"/><path d="M64.7,34.84c-1-1-2-1.94-2.87-2.7-.32-.29-.61-.55-.86-.79l-.63-4.91,1-.94c.92-.89,2-1.9,3-2.95a3.65,3.65,0,1,0-5.13-5.19l-1.07,1.07A22.41,22.41,0,0,1,56.47,20,2.1,2.1,0,0,1,55,20.6c-.25,0-.56-.71-.68-1.27A16.3,16.3,0,0,1,54,17.65c-.06-.49-.13-1-.23-1.49a3,3,0,0,0-3.06-2.71h-.08a3.07,3.07,0,0,0-3,2.82c-.07.46-.13.93-.19,1.38-.09.64-.17,1.3-.3,1.94s-.38,1-.72,1.14-.77-.06-1.24-.49S44,19.13,43.46,18.57c-.33-.33-.65-.66-1-1-1.8-1.77-3.89-1.88-5.47-.31a3.51,3.51,0,0,0-1.08,2.48,4.25,4.25,0,0,0,1.4,3c1,1,2,1.91,3,2.89l1.26,1.22a3.25,3.25,0,0,0-.8,3.55,1.17,1.17,0,0,1-.32.95c-.6.57-1.23,1.12-1.83,1.65-2.16,1.91-4.39,3.88-5.84,6.8a23.46,23.46,0,0,1-4-2.18,1.36,1.36,0,0,0-1.92,0,14.45,14.45,0,0,1-7.82,3.1c-1.12.09-2.22.14-3.38.2L14.09,41H14v.12c0,1,0,2,0,2.94,0,2.15,0,4.17.05,6.24.37,9,4.68,15.67,12.81,19.72a2.5,2.5,0,0,0,2.12,0c1.9-1.19,3.74-2.45,5.69-3.79l2.06-1.4,0,0,.82.7a20,20,0,0,0,12.88,4.94A20.61,20.61,0,0,0,55,70c7.92-1.81,13.21-6.82,15.27-14.51C72.38,47.56,70.52,40.61,64.7,34.84Zm-23,9.29c0-1,0-2,0-3v-.12h-.12L40.08,41a34.47,34.47,0,0,1-5-.48c.39-.52.71-1,1-1.41a15.09,15.09,0,0,1,1.55-2c1.5-1.56,3.13-3,4.81-4.48a2.29,2.29,0,0,1,1.37-.45c4.2,0,8.61,0,13.9,0a2,2,0,0,1,1.26.31c.56.54,1.16,1.08,1.73,1.6A35.92,35.92,0,0,1,65.2,38.7,18.78,18.78,0,0,1,67.54,57,17.92,17.92,0,0,1,53.33,68.11c-5.86.94-11.13-.86-15.69-5.38C42,57.1,41.86,50.5,41.73,44.13ZM51,16a2.26,2.26,0,0,1,.7.89A10.56,10.56,0,0,1,52,18.79c0,.38.07.76.13,1.14a3.23,3.23,0,0,0,5.67,1.83c.72-.75,1.48-1.49,2.2-2.21l.59-.58a1.49,1.49,0,0,1,2.28-.19,1.43,1.43,0,0,1,.52,1,2,2,0,0,1-.68,1.34L61.4,22.47c-1.06,1.06-2.15,2.16-3.26,3.21a2.47,2.47,0,0,1-1.44.58c-1.45,0-2.92,0-4.35,0H49.09c-1.43,0-2.92,0-4.37,0a2.41,2.41,0,0,1-1.43-.59c-1-.92-1.95-1.89-2.88-2.84l-1.59-1.58c-.6-.6-1.14-1.5-.3-2.4a1.39,1.39,0,0,1,1-.53h0A2.13,2.13,0,0,1,41,19.1c.71.74,1.46,1.48,2.17,2.19l.62.61a3.13,3.13,0,0,0,3.49.78,3.22,3.22,0,0,0,2-2.79c0-.34.07-.69.09-1a12.05,12.05,0,0,1,.29-2,2,2,0,0,1,.66-.85c.11-.1.22-.2.31-.3Zm6.41,12.38h.1c.48,0,1.08,0,1.24.83-.14.54-.62.59-1.22.6h-.16c-1.64.06-3.32.05-4.93,0H48.89c-1.62,0-3.3,0-5,0H43.8c-.48,0-1,0-1.14-.69.14-.77.63-.75,1.11-.74H44C48.58,28.34,53.1,28.34,57.42,28.41ZM34.77,62.92a30.46,30.46,0,0,1-4.9,4l-1.21.86a2,2,0,0,1-1.69,0c-6.63-3.61-10.24-9.15-10.74-16.48-.12-1.87-.09-3.76-.06-5.59,0-.77,0-1.56,0-2.33a28.74,28.74,0,0,0,6.91-1.09,21.41,21.41,0,0,0,4-1.85L28,40a17.08,17.08,0,0,0,4.92,2.41,28.31,28.31,0,0,0,6.6,1C39.89,50.82,39.81,57.46,34.77,62.92Z"/><path d="M51.29,66.72A15.74,15.74,0,0,0,63.05,61.3c3-3.29,4.54-7.53,4.07-11.06l0-.11H65.33v.12c-.62,8.41-6.06,13.86-14.57,14.57h-.12v1.88h.65Z"/></svg>