<svg id="Layer_1" data-name="Layer 1" xmlns="http://www.w3.org/2000/svg" viewBox="0 0 85.04 85.04"><defs><style>.cls-1{fill:#fff;}</style></defs><path class="cls-1" d="M28.17,30.89a3.28,3.28,0,0,1-2.66,2.26c-1.06.22-2.12.43-3.18.62a6.5,6.5,0,0,0-2.95,1.07,5.16,5.16,0,0,0-2,5c.13,1.2.2,2.41.29,3.62,0,.09,0,.18,0,.31-.84,0-1.65,0-2.46,0a2.6,2.6,0,0,0-2.61,2.56q0,2.43,0,4.86A2.62,2.62,0,0,0,15,53.73l.5.05V72.65c0,1.12.36,1.47,1.46,1.47H68.57c1.19,0,1.52-.33,1.52-1.53V54.31c0-.18,0-.36,0-.52l.17,0A2.67,2.67,0,0,0,73,50.84V46.57a2.66,2.66,0,0,0-2.85-2.84h-6.7v-.56c0-2.47,0-5,0-7.43a1,1,0,0,1,.65-1.09,10.66,10.66,0,1,0-15.7-8.26,10.47,10.47,0,0,0,5.77,8.4.62.62,0,0,1,.39.64c0,2.6,0,5.21,0,7.81v.47H45.68c0-.17,0-.3,0-.44.1-1.38.22-2.75.29-4.13A4.9,4.9,0,0,0,42.21,34c-1.4-.34-2.83-.6-4.26-.85a3.37,3.37,0,0,1-2.73-2.27l.05-.07.14-.09a7.13,7.13,0,0,0,3-3.67,9.12,9.12,0,0,0,.42-3.28.75.75,0,0,1,.19-.51,2,2,0,0,0,.62-1.91c-.11-.6-.18-1.2-.29-1.79a.53.53,0,0,1,.21-.58c.38-.32.74-.66,1.1-1a2.32,2.32,0,0,0,.4-3l-.59-.93A2.2,2.2,0,0,0,38.53,13c-4.56,0-9.12,0-13.68,0a2.22,2.22,0,0,0-1.92,1c-.2.31-.39.62-.58.93a2.3,2.3,0,0,0,.38,3c.38.35.78.69,1.15,1.06a.62.62,0,0,1,.16.45c-.08.67-.21,1.34-.31,2A1.61,1.61,0,0,0,24.17,23a1.29,1.29,0,0,1,.41,1.11,7.16,7.16,0,0,0,3.59,6.74Z"/><path d="M28.17,30.89a7.16,7.16,0,0,1-3.59-6.74A1.29,1.29,0,0,0,24.17,23a1.61,1.61,0,0,1-.44-1.52c.1-.66.23-1.33.31-2a.62.62,0,0,0-.16-.45c-.37-.37-.77-.71-1.15-1.06a2.3,2.3,0,0,1-.38-3c.19-.31.38-.62.58-.93a2.22,2.22,0,0,1,1.92-1c4.56,0,9.12,0,13.68,0a2.2,2.2,0,0,1,1.91,1.05L41,15a2.32,2.32,0,0,1-.4,3c-.36.33-.72.67-1.1,1a.53.53,0,0,0-.21.58c.11.59.18,1.19.29,1.79A2,2,0,0,1,39,23.29a.75.75,0,0,0-.19.51,9.12,9.12,0,0,1-.42,3.28,7.13,7.13,0,0,1-3,3.67l-.14.09-.05.07A3.37,3.37,0,0,0,38,33.18c1.43.25,2.86.51,4.26.85A4.9,4.9,0,0,1,46,39.14c-.07,1.38-.19,2.75-.29,4.13,0,.14,0,.27,0,.44h8.85v-.47c0-2.6,0-5.21,0-7.81a.62.62,0,0,0-.39-.64,10.47,10.47,0,0,1-5.77-8.4,10.66,10.66,0,1,1,15.7,8.26,1,1,0,0,0-.65,1.09c0,2.48,0,5,0,7.43v.56h6.7A2.66,2.66,0,0,1,73,46.57v4.27a2.67,2.67,0,0,1-2.71,2.91l-.17,0c0,.16,0,.34,0,.52V72.59c0,1.2-.33,1.53-1.52,1.53H16.93c-1.1,0-1.46-.35-1.46-1.47V53.78l-.5-.05a2.62,2.62,0,0,1-2.39-2.57q0-2.43,0-4.86a2.6,2.6,0,0,1,2.61-2.56c.81,0,1.62,0,2.46,0,0-.13,0-.22,0-.31-.09-1.21-.16-2.42-.29-3.62a5.16,5.16,0,0,1,2-5,6.5,6.5,0,0,1,2.95-1.07c1.06-.19,2.12-.4,3.18-.62A3.28,3.28,0,0,0,28.17,30.89Zm-5.43,41v-.54q0-4.45,0-8.91a4.69,4.69,0,0,1,.06-.92,3.44,3.44,0,0,1,3.57-2.79q16.35,0,32.71,0a3.58,3.58,0,0,1,3.74,3.72c-.06,3,0,6,0,8.95v.48h5v-18H17.73V71.85Zm20-20.35H70c.7,0,.75,0,.75-.73,0-1.32,0-2.64,0-4,0-.8,0-.83-.83-.83H15.55c-.67,0-.73.06-.73.71,0,1.36,0,2.71,0,4.06,0,.72,0,.76.76.76ZM60.59,71.84V62.41c0-1-.43-1.46-1.46-1.46H26.41c-1,0-1.44.44-1.44,1.44v9c0,.14,0,.27,0,.42ZM59,33.73a8.43,8.43,0,1,0-8.44-8.43A8.45,8.45,0,0,0,59,33.73ZM36.34,43.58c0-.39.07-.73.1-1.08a6,6,0,0,1,2.35-4.23,1.49,1.49,0,0,1,.94-.24,1,1,0,0,1,.85.77,1.09,1.09,0,0,1-.4,1.2,4.16,4.16,0,0,0-1.55,3.57l.23,0c1.39,0,2.79,0,4.18,0,.35,0,.41-.12.43-.43q.12-1.94.3-3.87a2.83,2.83,0,0,0-2.37-3.18l-5.11-1.07a.63.63,0,0,0-.44.14c-.92.73-1.83,1.49-2.76,2.22a.72.72,0,0,0-.29.61c0,1.73,0,3.46,0,5.19,0,.12,0,.24,0,.37Zm-5.84,0a1.08,1.08,0,0,0,0-.19c0-1.85,0-3.69,0-5.53a.74.74,0,0,0-.27-.44c-.68-.58-1.42-1.1-2.08-1.71a1.77,1.77,0,0,0-1.93-.48c-1.41.41-2.89.6-4.33.89a2.79,2.79,0,0,0-2.34,2.95c.1,1.38.21,2.75.3,4.13,0,.32.13.4.43.39h4.06l.36,0A4.21,4.21,0,0,0,23.19,40a1.12,1.12,0,1,1,1.43-1.71A5.47,5.47,0,0,1,26.55,41c.22.73.29,1.51.45,2.26,0,.13.17.32.26.32C28.34,43.6,29.42,43.59,30.5,43.59ZM26.85,23.72a5,5,0,0,0,2.42,5.21,4.9,4.9,0,0,0,7.21-5.21Zm30,12.15v7.84h4.34V35.87ZM39.15,16.33a8,8,0,0,0-.47-.82.58.58,0,0,0-.39-.22l-13.16,0a.47.47,0,0,0-.34.11c-.21.27-.39.57-.59.87.5.48,1,.93,1.44,1.36a.64.64,0,0,0,.39.11H37.34a.65.65,0,0,0,.39-.1C38.2,17.21,38.66,16.77,39.15,16.33Zm-2,3.64H26.25L26,21.42H37.35ZM29.17,33.64c.77.63,1.55,1.27,2.34,1.89a.31.31,0,0,0,.32,0c.81-.63,1.6-1.28,2.37-1.9-.35-.59-.67-1.15-1-1.69a.54.54,0,0,0-.41-.21c-.72,0-1.43,0-2.14,0-.24,0-.36,0-.47.23C29.85,32.5,29.52,33,29.17,33.64Z"/><path d="M42.81,63.41H54.07a3.46,3.46,0,0,1,.46,0,1.13,1.13,0,0,1,1,1.08,1.1,1.1,0,0,1-.94,1.12,2.91,2.91,0,0,1-.51,0H31.21a1.12,1.12,0,1,1,0-2.24H42.81Z"/><path d="M42.76,69.59H31.36a1.21,1.21,0,0,1-1.11-.46A1,1,0,0,1,30.14,68a1.08,1.08,0,0,1,.92-.64H54.11a2.07,2.07,0,0,1,.92.21,1,1,0,0,1,.47,1.17,1.09,1.09,0,0,1-1,.83c-.37,0-.73,0-1.1,0Z"/><path d="M64.35,25.32a5.37,5.37,0,1,1-5.3-5.39A5.37,5.37,0,0,1,64.35,25.32ZM59,22.17a3.14,3.14,0,1,0,3.14,3.13A3.13,3.13,0,0,0,59,22.17Z"/></svg>