<svg id="Layer_1" data-name="Layer 1" xmlns="http://www.w3.org/2000/svg" viewBox="0 0 85.04 85.04"><path d="M16.48,41.13c.1-.68.19-1.36.3-2A26,26,0,0,1,38.11,17.44a26,26,0,0,1,9.22.09c.43.08.89.19,1,.67a1.66,1.66,0,0,1-.13,1,1,1,0,0,1-1.08.37c-1-.14-2.1-.31-3.16-.39a22.7,22.7,0,0,0-13,2.88,23.28,23.28,0,0,0-11.66,15,23.43,23.43,0,0,0,4.11,20.45,2.09,2.09,0,0,0,.16.18,4.4,4.4,0,0,1,3.89-.06,4.16,4.16,0,0,1,2,2,4.27,4.27,0,1,1-7.4-.49A26,26,0,0,1,18.45,53a25.44,25.44,0,0,1-1.88-7.73,2.62,2.62,0,0,0-.09-.38ZM27.84,61.52a2.23,2.23,0,1,0-2.24,2.21A2.26,2.26,0,0,0,27.84,61.52Z"/><path d="M40.62,69l-2.85-.41a3.12,3.12,0,0,1-.44-.09,1,1,0,0,1-.81-1.16,1,1,0,0,1,1.23-.85c1.06.14,2.11.32,3.16.4A23,23,0,0,0,55,63.41,23.13,23.13,0,0,0,65.58,49a23.47,23.47,0,0,0-4.06-20.41,2,2,0,0,0-.21-.25,4.36,4.36,0,0,1-3.62.18,4.2,4.2,0,0,1-2.16-1.91A4.28,4.28,0,0,1,62,21.27a4.33,4.33,0,0,1,.9,5.7c.29.41.6.82.9,1.25A25.93,25.93,0,0,1,48.06,68.4c-1.12.24-2.27.35-3.4.52-.13,0-.26.06-.39.09ZM59.28,26.83a2.23,2.23,0,1,0-2.23-2.22A2.26,2.26,0,0,0,59.28,26.83Z"/><path d="M34.31,57c-.31.34-.7.78-1.12,1.19a1,1,0,0,1-1.67,0L27.25,54a1,1,0,0,1,0-1.67c.33-.33.65-.68,1-1s.2-.35.09-.6c-.46-1-.89-2.07-1.3-3.12-.1-.25-.19-.36-.46-.35-.5,0-1,0-1.52,0A1,1,0,0,1,24,46.12c0-2,0-4.09,0-6.13a1,1,0,0,1,1.07-1.14c.47,0,1,0,1.42,0s.48-.09.6-.43c.37-1,.79-2,1.24-3a.5.5,0,0,0-.13-.72c-.35-.32-.68-.66-1-1a1,1,0,0,1,0-1.53q2.18-2.19,4.37-4.37a1,1,0,0,1,1.6,0c.34.33.69.65,1,1s.38.21.65.09c1-.46,2-.88,3.07-1.28.28-.1.38-.22.37-.5,0-.5,0-1,0-1.52a1,1,0,0,1,1.1-1c2,0,4.09,0,6.14,0a1,1,0,0,1,1.13,1.11c0,.48,0,.95,0,1.42,0,.3.09.42.39.54,1,.39,2.06.82,3.07,1.28a.46.46,0,0,0,.65-.12c.33-.36.68-.7,1-1a1,1,0,0,1,1.53,0q2.22,2.19,4.41,4.4a1,1,0,0,1,0,1.53c-.34.37-.7.73-1.07,1.07a.42.42,0,0,0-.09.57c.46,1,.9,2.07,1.3,3.12.11.28.23.37.5.36.49,0,1,0,1.47,0A1,1,0,0,1,60.9,40q0,3,0,6.09a1,1,0,0,1-1.1,1.14c-.51,0-1,0-1.52,0a.57.57,0,0,0-.41.3c-.47,1.07-.91,2.14-1.34,3.22a.63.63,0,0,0,.09.5c.35.39.74.74,1.1,1.12a1,1,0,0,1,0,1.49q-2.2,2.23-4.45,4.44a1,1,0,0,1-1.48,0c-.45-.43-.87-.9-1.23-1.27-1.3.5-2.51,1-3.7,1.43a.53.53,0,0,0-.22.39c0,.52,0,1.05,0,1.57a1,1,0,0,1-1.13,1.07H39.37a1,1,0,0,1-1.11-1.09c0-.51,0-1,0-1.52a.59.59,0,0,0-.23-.42C36.82,58,35.63,57.55,34.31,57Zm-1.88-.9c.34-.36.69-.75,1.07-1.12a1,1,0,0,1,1.41-.17,14.78,14.78,0,0,0,4.46,1.85c.69.16.93.51.94,1.24v1.51h4.27V58c0-.76.24-1.09,1-1.26a14.36,14.36,0,0,0,4.37-1.82,1,1,0,0,1,1.5.17c.37.37.71.76,1,1.12l3.06-3a0,0,0,0,0,0,0c-.37-.38-.74-.75-1.1-1.13a1,1,0,0,1-.17-1.37,15.13,15.13,0,0,0,1.89-4.55,1,1,0,0,1,1.14-.86h1.58V40.91H57.42c-.82,0-1.16-.24-1.34-1a14.22,14.22,0,0,0-1.79-4.32,1,1,0,0,1,.2-1.53c.35-.36.72-.7,1.06-1l-3.1-3.1c-.33.36-.66.75-1,1.1a1.06,1.06,0,0,1-1.54.17,14.5,14.5,0,0,0-4.32-1.8,1.08,1.08,0,0,1-1-1.25V26.66H40.31v1.41c0,.84-.24,1.16-1.06,1.35a14.22,14.22,0,0,0-4.19,1.73,1.11,1.11,0,0,1-1.69-.22c-.33-.33-.62-.7-.91-1L29.35,33c.34.32.72.66,1.08,1a1,1,0,0,1,.18,1.5,14.66,14.66,0,0,0-1.82,4.36c-.17.75-.51,1-1.3,1-.48,0-1,0-1.44,0v4.28h1.5a1,1,0,0,1,1.23.94,14.73,14.73,0,0,0,1.84,4.41A1,1,0,0,1,30.45,52c-.36.37-.76.71-1.12,1Z"/><path d="M51.77,18.91a1,1,0,0,1,1,1,1,1,0,0,1-1,1,1,1,0,0,1-1-1A1,1,0,0,1,51.77,18.91Z"/><path d="M33.17,65.18a1.05,1.05,0,0,1,1,1.07,1,1,0,0,1-1.07,1,1,1,0,0,1-1-1A1.08,1.08,0,0,1,33.17,65.18Z"/><path d="M50.85,43.06a8.41,8.41,0,1,1-8.37-8.41A8.46,8.46,0,0,1,50.85,43.06Zm-2.08,0a6.33,6.33,0,1,0-6.33,6.33A6.31,6.31,0,0,0,48.77,43.05Z"/></svg>