<svg id="Layer_1" data-name="Layer 1" xmlns="http://www.w3.org/2000/svg" viewBox="0 0 85.04 85.04"><path d="M71.16,14.76v56.4H14.77A1.54,1.54,0,0,1,14,69.64q0-27,0-54.1c0-1.19.37-1.56,1.56-1.56h54A1.63,1.63,0,0,1,71.16,14.76Zm-47,37.12L33.29,61l13-13L37.12,38.9ZM48,46.25,61,33.33l-9.14-9.15L38.9,37.11ZM20.55,33.51l9.1,9.1L42.58,29.68l-9.1-9.1Zm34.92,9L42.53,55.46l9.15,9.15L64.62,51.67Zm7.44-11L68.46,26a1.12,1.12,0,0,0,.37-.87c0-2.76,0-5.51,0-8.26v-.55c-2.8,0-5.51,0-8.23,0a2.24,2.24,0,0,0-1.83.77c-1.7,1.76-3.45,3.48-5.16,5.18ZM31.58,62.91l-9.3-9.31a1.77,1.77,0,0,0-.18.15c-1.84,1.84-3.69,3.68-5.51,5.54a1,1,0,0,0-.25.69q0,4.19,0,8.37c0,.14,0,.29,0,.41a.39.39,0,0,0,.14,0h8.87a.71.71,0,0,0,.44-.17Zm3.68-44.25L44.5,27.9,56,16.35s0,0-.08,0h-18a.74.74,0,0,0-.48.2C36.67,17.24,36,18,35.26,18.66ZM68.82,29.21,57.33,40.7l9.15,9.23c.66-.67,1.31-1.36,2-2a1.1,1.1,0,0,0,.36-.88q0-8.68,0-17.36Zm-50.13,6c-.69.69-1.39,1.36-2,2.07a1.23,1.23,0,0,0-.31.77q0,8.73,0,17.47V56L27.89,44.46ZM29.12,68.78l.11,0h18a.71.71,0,0,0,.48-.19c.75-.72,1.48-1.46,2.13-2.11L40.6,57.25ZM34,16.37H18.22l7.91,7.92Zm34.75,34.8L61,59l7.82,7.82Zm-52.43-33V34l7.9-7.9ZM66.92,68.81l-7.86-7.87-7.87,7.87Z"/></svg>