<svg id="Layer_1" data-name="Layer 1" xmlns="http://www.w3.org/2000/svg" viewBox="0 0 85.04 85.04"><path d="M60.31,59.54c-.6-.59-1.1-1.06-1.58-1.55a1.22,1.22,0,1,1,1.71-1.71q1.81,1.78,3.6,3.59a1.2,1.2,0,0,1,0,1.86q-1.8,1.83-3.62,3.63a1.22,1.22,0,1,1-1.71-1.72c.5-.5,1-1,1.51-1.47l0-.13H27.62a5,5,0,0,1-5-3.48,6.62,6.62,0,0,1-.26-1.88q0-15.94,0-31.89v-.58l-.14-.09c-.51.54-1,1.09-1.54,1.61a1.26,1.26,0,0,1-1.45.2,1.13,1.13,0,0,1-.59-1.22A1.48,1.48,0,0,1,19,24q1.79-1.83,3.62-3.63a1.23,1.23,0,0,1,1.9,0q1.79,1.77,3.56,3.56a1.23,1.23,0,0,1,.1,1.83,1.28,1.28,0,0,1-1.84-.13c-.48-.47-.95-1-1.52-1.54,0,.3,0,.46,0,.62V56.77a2.53,2.53,0,0,0,1.85,2.71,3.74,3.74,0,0,0,.95.1H59.72C59.87,59.58,60,59.56,60.31,59.54Z"/><path d="M46,19.91c4.46,0,8.92,0,13.38,0a4.94,4.94,0,0,1,5.1,5.1V52.06c0,1-.7,1.61-1.56,1.35a1.18,1.18,0,0,1-.85-1.12c0-.17,0-.33,0-.5V25.29a2.65,2.65,0,0,0-3-3H32.38a2.27,2.27,0,0,1-.78-.11,1.17,1.17,0,0,1-.68-1.28,1.2,1.2,0,0,1,1.14-1c.15,0,.3,0,.45,0Z"/><path d="M34.54,34.05c2.53-.83,3.66-.64,5.6,1a5.17,5.17,0,0,1,2.44-1.38A4.61,4.61,0,0,1,48.16,38c0,3.89,0,7.78,0,11.67A1.2,1.2,0,0,1,46.94,51c-.73,0-1.19-.53-1.19-1.38,0-3.79,0-7.58,0-11.37a2.21,2.21,0,1,0-4.4.15V49.28c0,.2,0,.4,0,.6A1.17,1.17,0,0,1,40.16,51a1.22,1.22,0,0,1-1.24-1.09,4.13,4.13,0,0,1,0-.5c0-3.76,0-7.51,0-11.27a2.18,2.18,0,0,0-4.25-.66,3.61,3.61,0,0,0-.12,1V49.3a4,4,0,0,1,0,.6A1.18,1.18,0,0,1,33.31,51a1.22,1.22,0,0,1-1.22-1.11c0-.12,0-.23,0-.35V34.42c0-1,.58-1.54,1.4-1.43A1.24,1.24,0,0,1,34.54,34.05Z"/><path d="M54.08,36.72h1.69a1.25,1.25,0,0,1,1.34,1.2,1.21,1.21,0,0,1-1.29,1.24c-1.26,0-2.51,0-3.77,0a1.48,1.48,0,0,1-1.5-1,1.55,1.55,0,0,1,.39-1.71c1.15-1.22,2.29-2.45,3.43-3.67a1.15,1.15,0,0,0,.22-1.38,1.2,1.2,0,0,0-1.2-.55A1.16,1.16,0,0,0,52.48,32c-.1.86-.61,1.32-1.38,1.24a1.22,1.22,0,0,1-1.05-1.49,3.58,3.58,0,0,1,7.14.26,3.49,3.49,0,0,1-1,2.5Z"/></svg>