<svg id="Layer_1" data-name="Layer 1" xmlns="http://www.w3.org/2000/svg" viewBox="0 0 85.04 85.04"><path d="M37.89,22.85a.74.74,0,0,0,.8.8h2a.77.77,0,0,0,.83-.73.73.73,0,0,0-.2-.51.91.91,0,0,0-.64-.26H39.38s0,0,0-.06a6.15,6.15,0,0,1,0-.86v-.06s0,0,.09,0h1a.77.77,0,0,0,.87-.73.7.7,0,0,0-.19-.52.92.92,0,0,0-.67-.25H39.38s0,0,0-.08c0-.28,0-.54,0-.79,0-.08,0-.11,0-.12h1.26a.76.76,0,0,0,.85-.75.69.69,0,0,0-.27-.56.92.92,0,0,0-.58-.19H38.73a.76.76,0,0,0-.84.85v4.87Z"/><path d="M36.11,18.7l.2-.31a.86.86,0,0,0,.15-.67.68.68,0,0,0-.31-.45.76.76,0,0,0-1.08.31l-.36.54c-.15.24-.31.48-.47.72a.3.3,0,0,1-.09.1l-.08-.09-.42-.65-.42-.64a.89.89,0,0,0-.55-.41.67.67,0,0,0-.54.12A.76.76,0,0,0,32,18.38l.2.33c.18.27.37.58.59.87a2.19,2.19,0,0,1,.63,1.9v1.4a.77.77,0,0,0,.75.77.76.76,0,0,0,.74-.69,1.93,1.93,0,0,0,0-.26v-.53c0-.49,0-1,0-1.41a.67.67,0,0,1,.12-.4C35.38,19.82,35.73,19.29,36.11,18.7Z"/><path d="M52.83,21a2,2,0,0,0-.64-3.79A10.2,10.2,0,0,0,51,17.14h-.37a.92.92,0,0,0-.64.22.86.86,0,0,0-.23.64v4.79a.91.91,0,0,0,.25.67.69.69,0,0,0,.51.2c.36,0,.73-.28.73-.88v-.29a4.6,4.6,0,0,1,0-.53s0,0,0-.05a.45.45,0,0,1,.12.06.6.6,0,0,1,.13.14l.11.13.27.32c.24.27.49.55.75.82a.81.81,0,0,0,.69.25.74.74,0,0,0,.57-.57,1,1,0,0,0-.2-.7c-.21-.26-.44-.51-.64-.74L53,21.53l-.29-.33a.22.22,0,0,1-.06-.09.42.42,0,0,1,.14-.09Zm-.94-1.24a4.7,4.7,0,0,1-.55,0h-.12v0c0-.12,0-.25,0-.37V19a1.4,1.4,0,0,1,0-.29v0h.63a.56.56,0,1,1,0,1.11Z"/><path d="M43.64,23.65a.59.59,0,0,0,.29-.07.83.83,0,0,0,.39-.43c.09-.22.18-.44.26-.65s.05-.09.14-.09h1.76c.1,0,.12,0,.15.1a6.74,6.74,0,0,0,.29.7.68.68,0,0,0,.83.41.71.71,0,0,0,.57-.75v-.12c0-.05,0-.12-.06-.19l-.33-.84c-.52-1.32-1.05-2.68-1.6-4a.93.93,0,0,0-.63-.51.69.69,0,0,0-.8.5L43,22.58a.73.73,0,0,0,.38,1A.7.7,0,0,0,43.64,23.65Zm1.69-3.06a1.92,1.92,0,0,0,.11-.27,1.46,1.46,0,0,1,.09-.21.35.35,0,0,1,.11-.1s0,0,0,0c.1.23.19.47.28.72a.31.31,0,0,1,0,.14.33.33,0,0,1-.14,0h-.27a.79.79,0,0,1-.33,0h0A.65.65,0,0,1,45.33,20.59Z"/><path d="M80.46,46.2a1.07,1.07,0,0,1-.14-.16l-6.24-9.51-1.71-2.61c-.43-.66-.85-1-1.25-1s-.8.33-1.22,1q-3.74,5.68-7.46,11.37c-.06.09-.12.19-.19.28-.36.52-.71,1-.34,1.67s1,.61,1.58.6h6.08V48c0,.07,0,.13,0,.19a1.87,1.87,0,0,1,0,.34A28.8,28.8,0,0,1,59.13,66.12a27.52,27.52,0,0,1-14.06,6,23.94,23.94,0,0,1-13.21-2.3,29.77,29.77,0,0,1-11.17-9,2.12,2.12,0,0,0-.89-.71,1.06,1.06,0,0,0-.34-.06,1,1,0,0,0-.85.54c-.33.53-.14,1,.24,1.48A31.58,31.58,0,0,0,32.56,72.59a26.11,26.11,0,0,0,18.28.55A31.37,31.37,0,0,0,63,65.71,30.62,30.62,0,0,0,70.8,52.83c.33-1.08.58-2.18.85-3.33.12-.52.24-1,.37-1.59l0-.1h2c1.59,0,3.23,0,4.85,0h0a1.62,1.62,0,0,0,1.55-.8v-.81ZM65,45.5l6.14-9.37,6.14,9.37Z"/><path d="M22.81,39.47c.36-.51.69-1,.33-1.63s-1-.62-1.6-.6H15.47v-.13a1,1,0,0,0,0-.18,2.53,2.53,0,0,1,0-.28,29,29,0,0,1,3.44-9.55A28.63,28.63,0,0,1,30.79,15.77a24.33,24.33,0,0,1,21-1.17,29.62,29.62,0,0,1,12.53,9.57,2.24,2.24,0,0,0,.9.72,1,1,0,0,0,1.18-.47c.34-.54.15-1-.23-1.49A31.81,31.81,0,0,0,52.64,12.52a26.23,26.23,0,0,0-12.52-1.89,28,28,0,0,0-9.39,2.67,31.4,31.4,0,0,0-11.29,9,30.73,30.73,0,0,0-6.2,14.2c-.1.62-.38.74-.89.73H6.13c-.69,0-1.14.11-1.44.63s-.07,1,.32,1.58Q7.4,43.08,9.77,46.7l2.94,4.49c.41.62.82.93,1.21.93s.81-.32,1.23-1q3.75-5.71,7.49-11.43C22.7,39.64,22.76,39.56,22.81,39.47Zm-8.89,9.45L7.76,39.53H20.08Z"/><path d="M31.57,61.09c-.77.06-1.16.24-1.16.92,0,1.06,0,2.11,0,3.17v.24a.87.87,0,0,0,.78.92,3.08,3.08,0,0,0,.53,0H54.34a.94.94,0,0,0,1-1V62.44c0-1-.11-1.2-1.06-1.37V31c0-1.06-.24-1.29-1.31-1.29h-3.3l0-.68V26.61c0-.83-.3-1.14-1.12-1.14H36.78c-1,0-1.27.27-1.27,1.31V29.7H32.84c-1,0-1.27.26-1.27,1.29Zm5.7-31.42V27.2H47.88v2.47Zm9.15,24.82v6.6H39.13v-6.6Zm1.73-.64c0-.88-.23-1.11-1.12-1.11H38.48c-.86,0-1.09.23-1.09,1.08v7.26h-4V31.45H52.49V61.09H48.15V53.85Zm-16,10.76V63.19c0-.1,0-.21,0-.32H53.59v1.75Z"/><path d="M45.13,41.27h3.65c.74,0,1-.32,1.06-1.06V34.82c0-.76-.33-1.08-1.09-1.08q-1.8,0-3.6,0c-.77,0-1.08.32-1.08,1.09v5.33C44.07,40.94,44.38,41.26,45.13,41.27Zm2.94-5.79v4.05H45.82V35.48Z"/><path d="M49.84,49.68V44.21a.89.89,0,0,0-1-1h-3.7c-.76,0-1.06.31-1.06,1.1v5.38a.91.91,0,0,0,1,1h3.7A.91.91,0,0,0,49.84,49.68Zm-4-.61V44.93h2.24v4.14Z"/><path d="M40.34,33.74c-1.23,0-2.46,0-3.7,0a.9.9,0,0,0-1,1c0,.63,0,1.27,0,1.9v1.65c0,.62,0,1.25,0,1.88s.31,1.06,1,1.07h3.65c.73,0,1.06-.34,1.06-1.06q0-2.72,0-5.43A.9.9,0,0,0,40.34,33.74Zm-3,5.79V35.48H39.7v4.05Z"/><path d="M40.38,43.2H36.63c-.71,0-1,.32-1,1s0,1.26,0,1.89V47.8c0,.62,0,1.24,0,1.87s.33,1,1.06,1h3.65a.91.91,0,0,0,1-1c0-1.82,0-3.65,0-5.47A.88.88,0,0,0,40.38,43.2Zm-3,5.86V44.93h2.34v4.13Z"/></svg>