<svg id="Layer_1" data-name="Layer 1" xmlns="http://www.w3.org/2000/svg" viewBox="0 0 85.04 85.04"><path d="M23.9,39.53H17.17c-.92,0-1.3.38-1.3,1.32,0,1.62,0,3.25,0,4.87,0,1,.36,1.34,1.33,1.34h6.73c.9,0,1.28-.39,1.28-1.29,0-1.64,0-3.28,0-4.93C25.21,39.91,24.83,39.53,23.9,39.53Zm-.83,2.15v3.25H18V41.68Z"/><path d="M37.48,39.53H30.75c-.92,0-1.3.38-1.31,1.32v4.87c0,1,.37,1.34,1.34,1.34h6.73c.89,0,1.27-.39,1.28-1.28V40.85C38.79,39.91,38.41,39.53,37.48,39.53Zm-.84,2.14v3.25H31.58V41.67Z"/><path d="M17.13,37.1h6.78c.92,0,1.3-.37,1.3-1.26,0-1.66,0-3.33,0-5,0-.89-.37-1.27-1.23-1.28-2.38,0-4.7,0-6.9,0-.83,0-1.21.38-1.21,1.24,0,1.64,0,3.33,0,5C15.87,36.72,16.25,37.1,17.13,37.1Zm5.93-5.39V35H18V31.71Z"/><path d="M37.59,29.58c-2.33,0-4.66,0-7,0-.82,0-1.19.39-1.2,1.26,0,1.93,0,3.53,0,5,0,.85.38,1.23,1.22,1.23h6.84c.9,0,1.27-.37,1.28-1.28,0-1.79,0-3.42,0-5C38.78,30,38.41,29.58,37.59,29.58Zm-1,2.14V35h-5V31.72Z"/><path d="M17.07,27.13H24c.85,0,1.23-.37,1.24-1.2,0-1.68,0-3.4,0-5.09,0-.83-.37-1.2-1.18-1.21-2.36,0-4.72,0-7,0a1,1,0,0,0-1.16,1.18c0,1.7,0,3.43,0,5.14A1,1,0,0,0,17.07,27.13Zm6-5.38V25H18V21.75Z"/><path d="M37.62,19.63c-2.33,0-4.68,0-7,0-.81,0-1.17.38-1.17,1.22,0,1.76,0,3.48,0,5.09a1,1,0,0,0,1.19,1.19h7a1,1,0,0,0,1.2-1.19c0-1.6,0-3.27,0-5.09C38.78,20,38.42,19.64,37.62,19.63Zm-1,2.13V25H31.58V21.76Z"/><path d="M78.22,26.45A2.48,2.48,0,0,0,75.73,24H73.52v-.2q0-.72,0-1.41a1.78,1.78,0,0,0-1.91-1.9H70.25a1.72,1.72,0,0,0-1.72,1.43,4.59,4.59,0,0,0-.06.82V24H57.79V16.53a1.51,1.51,0,0,0-.59-1.39l0,0H11.06l0,0a1.51,1.51,0,0,0-.59,1.39q0,21.06,0,42.13V64H9.83c-.58,0-1.14,0-1.7,0a1.29,1.29,0,0,0-1.27.62l0,0v4.42l0,0a1.41,1.41,0,0,0,1.32.6H60c1.07,0,1.36-.3,1.36-1.38V67.4c0-.75,0-1.49,0-2.24S61.06,64,60.25,64H57.79V58.85H70.11l.11-.07.29-.15a2.7,2.7,0,0,0,.77-.49c2.14-2.1,4.32-4.29,6.24-6.22a2.38,2.38,0,0,0,.7-1.73ZM8.91,67.57V66.1H59.3v1.47ZM71.2,55c0-.9,0-1.83,0-2.75a.38.38,0,0,1,.41-.42h2.84L71.2,55.09ZM33,55.25V64H28V55.25ZM71.39,25v2.45H70.6V22.55h.79V25ZM49.54,57.38a1,1,0,0,0,.09,1,2.13,2.13,0,0,0,.18.22l.21.25h5.66V64H42.4v-5.1h5.88l.12-.09a1.06,1.06,0,0,0,.54-1.31,1.13,1.13,0,0,0-1.15-.7H42.6c-.59,0-.69-.1-.69-.69v-23H68.07a1.72,1.72,0,0,0,.32,0,1,1,0,0,0,0-2.07,1.34,1.34,0,0,0-.35,0H41.91V26.49c0-.16.05-.36.28-.39a4.71,4.71,0,0,1,.85,0v.26c0,.44,0,.88,0,1.32A1.78,1.78,0,0,0,45,29.56h.42a8.92,8.92,0,0,0,1,0,2.55,2.55,0,0,0,1.11-.48,1.74,1.74,0,0,0,.58-1.46V26.05h1.71a1,1,0,0,0,1-.66,1,1,0,0,0-.09-1,1.09,1.09,0,0,0-.9-.47c-.53,0-1,0-1.59,0H48.1v-.18c0-.51,0-1,0-1.48a1.77,1.77,0,0,0-1.89-1.85H44.93a1.77,1.77,0,0,0-1.88,1.85c0,.25,0,.5,0,.75V24h-.87a2.55,2.55,0,0,0-2.34,1.94l0,23.67a2.36,2.36,0,0,0-.6-.08H29.05c-.93,0-1.41.35-1.41,1s.46,1,1.4,1.05H39.1a4,4,0,0,0,.71-.06h0V53.1H27.22c-1,0-1.39.35-1.39,1.39V64H12.56V17.21H55.68V24H52.32a1,1,0,0,0-.94,1,.94.94,0,0,0,.22.72,1.1,1.1,0,0,0,.74.39H68.47v1.6a1.78,1.78,0,0,0,1.91,1.91h1.39a1.76,1.76,0,0,0,1.69-1.38,3.64,3.64,0,0,0,.06-.71c0-.44,0-.89,0-1.34v-.08h2c.48,0,.61.14.61.63V31H71a1.36,1.36,0,0,0-.55.08,1,1,0,0,0-.61,1.2,1,1,0,0,0,1.08.82h5.21l0,16.68H71.64a2.47,2.47,0,0,0-2.53,2.52v4.49H50.33A1,1,0,0,0,49.54,57.38ZM46,27.46h-.79V24.29c0-.57,0-1.16,0-1.75a7.12,7.12,0,0,0,.8,0C46,24.17,46,25.8,46,27.46ZM40.28,58.85V64H35.22v-8.7h4.59v3.6Z"/><path d="M52.07,46.4a1,1,0,0,0,1.12,1.12h2.75a1.06,1.06,0,0,0,1.15-1,1,1,0,0,0-.27-.73,1.22,1.22,0,0,0-.89-.35H54.14a.62.62,0,0,0,0-.09,12,12,0,0,1,0-1.2.24.24,0,0,1,0-.09s0,0,.13,0h1.38a1.09,1.09,0,0,0,1.23-1,1,1,0,0,0-.28-.72,1.33,1.33,0,0,0-.94-.35H54.14a.68.68,0,0,1,0-.12c0-.38,0-.76,0-1.1a.92.92,0,0,1,0-.16s0,0,.16,0h1c.22,0,.44,0,.66,0a1.07,1.07,0,0,0,1.19-1,1,1,0,0,0-.37-.79,1.3,1.3,0,0,0-.82-.26H53.24a1.06,1.06,0,0,0-1.17,1.19V46.4Z"/><path d="M49.64,38.62a1.05,1.05,0,0,0-1.51.42l-.5.76-.66,1a.52.52,0,0,1-.12.13.39.39,0,0,1-.11-.13l-.6-.9-.58-.9a1.23,1.23,0,0,0-.77-.57,1,1,0,0,0-.75.16,1.07,1.07,0,0,0-.21,1.56l.29.46a14.27,14.27,0,0,0,.81,1.22,3.1,3.1,0,0,1,.89,2.65l0,.79c0,.44,0,.8,0,1.16a1,1,0,0,0,1,1.08,1.07,1.07,0,0,0,1-1c0-.1,0-.2,0-.35v-.74c0-.7,0-1.33,0-2a.89.89,0,0,1,.18-.56c.5-.75,1-1.49,1.51-2.32l.28-.44a1.22,1.22,0,0,0,.22-.93A1,1,0,0,0,49.64,38.62Z"/><path d="M68.93,47.24a1,1,0,0,0,.71.28,1.09,1.09,0,0,0,1-1.22v-.42a4.42,4.42,0,0,1,0-.73.25.25,0,0,1,0-.07.51.51,0,0,1,.17.08.93.93,0,0,1,.18.2l.15.18.38.44c.34.38.68.78,1,1.15a1.15,1.15,0,0,0,1,.34,1,1,0,0,0,.79-.79,1.35,1.35,0,0,0-.28-1c-.3-.37-.62-.72-.9-1l-.1-.11-.41-.46a.38.38,0,0,1-.09-.13.7.7,0,0,1,.2-.12l.11-.06A2.82,2.82,0,0,0,72,38.5a16.76,16.76,0,0,0-1.72-.08H69.8a1.29,1.29,0,0,0-.9.3,1.25,1.25,0,0,0-.31.9V46.3A1.27,1.27,0,0,0,68.93,47.24ZM70.68,41a2.8,2.8,0,0,1,0-.41.13.13,0,0,0,0,0h0c.27,0,.54,0,.82,0a.86.86,0,0,1,.83.75.87.87,0,0,1-.78.79,6.1,6.1,0,0,1-.76,0h-.16a.22.22,0,0,1,0-.06c0-.17,0-.34,0-.51V41Z"/><path d="M59.67,47.42a1,1,0,0,0,.83,0,1.15,1.15,0,0,0,.55-.61c.13-.3.24-.61.36-.9,0-.12.07-.14.19-.14h2.46c.15,0,.17,0,.21.14.13.37.26.69.4,1a1,1,0,0,0,1.17.57,1,1,0,0,0,.8-1l0-.16a1.8,1.8,0,0,0-.07-.27l-.46-1.17c-.73-1.84-1.47-3.75-2.25-5.66a1.34,1.34,0,0,0-.87-.72,1,1,0,0,0-1.11.71L59.13,46A1,1,0,0,0,59.67,47.42Zm2.79-4.17a3,3,0,0,0,.15-.38,1.41,1.41,0,0,1,.12-.29.75.75,0,0,1,.16-.15l0,.06.39,1a.6.6,0,0,1,0,.2.66.66,0,0,1-.21,0h-.37a1.17,1.17,0,0,1-.46,0h0A.94.94,0,0,1,62.46,43.25Z"/></svg>