<svg id="Layer_1" data-name="Layer 1" xmlns="http://www.w3.org/2000/svg" viewBox="0 0 85.04 85.04"><path d="M42.46,62.57c-.21,1.52-.4,2.93-.61,4.33s-.43,2.95-.69,4.42a2.09,2.09,0,0,1-2.25,1.89H14.53A2,2,0,0,1,12.36,71c.22-3.91.37-7.83.77-11.73a143.35,143.35,0,0,1,5.62-27.11,18.88,18.88,0,0,0,.89-6.23c-.07-2.54,0-5.07,0-7.61a2.28,2.28,0,0,1,1-2,10.45,10.45,0,0,1,4.66-1.86c2.79-.49,5.59-1,8.4-1.18,3.56-.28,7.14-.41,10.71-.38a69.4,69.4,0,0,1,15.34,1.55,21.9,21.9,0,0,1,4,1.41,2.77,2.77,0,0,1,1.75,2.88c-.09,3.36,0,6.72,0,10.08a2.44,2.44,0,0,0,.1.76A161.23,161.23,0,0,1,70.88,52a135.25,135.25,0,0,1,1.8,18.73,2.31,2.31,0,0,1-2.46,2.49q-11.92-.07-23.85,0A2.33,2.33,0,0,1,43.8,71c-.36-2.74-.79-5.48-1.19-8.21A1.61,1.61,0,0,0,42.46,62.57Zm-15-28.84c-3.68,12.16-6.53,24.53-7.22,37.35H39a1.74,1.74,0,0,0,.09-.28,183.42,183.42,0,0,0,2.36-22c0-.75.38-1.17,1-1.19s1,.37,1.09,1.16c.14,2.12.16,4.24.4,6.35.58,5.09,1.27,10.16,1.88,15.25.07.63.32.71.85.71,4,0,7.93,0,11.89,0h6.09c.78-4.55-4.62-32.49-7.17-37.33l-12,1s0,0,0,.05l.34.47a9.09,9.09,0,0,1,1.82,5.57,1,1,0,0,1-1.45,1,1.08,1.08,0,0,1-.64-1.1A7.32,7.32,0,0,0,43,35.25a.61.61,0,0,0-.93,0,7.32,7.32,0,0,0-2.65,5.57c0,.75-.43,1.19-1.08,1.17s-1-.46-1-1.19a9,9,0,0,1,1.81-5.5c.14-.18.26-.36.37-.51ZM21.71,20.57V28.5c0,1.25,0,1.41,1.23,1.76A44,44,0,0,0,29.1,31.7c3.37.42,6.76.69,10.15.84a81.8,81.8,0,0,0,18.94-1.22A38.07,38.07,0,0,0,62.58,30a1,1,0,0,0,.75-1.13c0-2.45,0-4.9,0-7.35v-1c-.77.27-1.45.55-2.15.75A51.33,51.33,0,0,1,50.29,23a99.21,99.21,0,0,1-14.93,0C30.75,22.68,26.14,22.31,21.71,20.57Zm41.52-2.35V18a6.17,6.17,0,0,0-.93-.53,22,22,0,0,0-2.46-.8A69.24,69.24,0,0,0,44.38,15a86.94,86.94,0,0,0-16.11,1,21,21,0,0,0-5.73,1.53,10,10,0,0,0-.87.56,6.55,6.55,0,0,0,.91.53,24.76,24.76,0,0,0,2.64.88,70.3,70.3,0,0,0,15.51,1.66,95.37,95.37,0,0,0,13.41-.63A34.59,34.59,0,0,0,61.61,19,17,17,0,0,0,63.23,18.22ZM59.66,33.28c3.73,12.35,6.57,24.88,7.27,37.79h3.62c.35-8.83-3.86-33.64-6.64-39.31ZM21.07,31.75c-3.28,8.67-7.49,33.83-6.55,39.37h3.56c.7-13,3.55-25.54,7.27-37.85Z"/><path d="M42.44,31.6H37.57c-1,0-1.3-.34-1.3-1.27,0-1.6,0-3.21,0-4.81,0-.82.36-1.2,1.17-1.2H47.57c.81,0,1.17.38,1.17,1.2,0,1.63,0,3.25,0,4.87,0,.85-.37,1.2-1.24,1.21Zm4.2-5.16H38.4v3h8.24Z"/></svg>