<svg id="Layer_1" data-name="Layer 1" xmlns="http://www.w3.org/2000/svg" viewBox="0 0 85.04 85.04"><path d="M73,21.72s0,0,0-.08,0-.06,0-.08A9,9,0,0,0,56.57,18c-.17.25-.28.3-.56.23l-2.85-.63c-1.24-.27-2.52-.55-3.77-.84a3.6,3.6,0,0,0-3.66,1.09c-8.26,8.28-16.67,16.69-24.8,24.82l-7.72,7.71a4.61,4.61,0,0,0-.37.4,3,3,0,0,0,0,3.93,23.15,23.15,0,0,0,1.63,1.65,1.14,1.14,0,0,0,.77.34h0a1,1,0,0,0,.72-.35,1,1,0,0,0-.05-1.47c-.24-.27-.5-.52-.76-.77l-.33-.33c-.87-.87-.87-1.17,0-2L47.19,19.42a1.85,1.85,0,0,0,.14-.14.85.85,0,0,1,.24-.23l.15-.06a1.55,1.55,0,0,1,.79-.19l5.06,1.1c2.28.5,4.62,1,6.94,1.49A1.53,1.53,0,0,1,62,22.91a1,1,0,0,0,0,.23l1.45,6.63h-.08a5.71,5.71,0,0,1-3.25-1.22l.12-.19a3.68,3.68,0,0,0-.91-4.86,3.76,3.76,0,0,0-4.89.5,3.59,3.59,0,0,0-.51,4.18A3.66,3.66,0,0,0,57.82,30c.18,0,.51-.1.61,0a9.59,9.59,0,0,0,5.26,2c.08,0,.26.17.3.29.21.81.39,1.64.57,2.46a1.2,1.2,0,0,1-.37,1.2C63.09,37,62,38.07,60.75,39.35a1.24,1.24,0,0,0-.39.86,1.06,1.06,0,0,0,1.86.65c1.14-1.13,2.43-2.41,3.67-3.7a2.76,2.76,0,0,0,.76-2.58c-.12-.61-.25-1.21-.37-1.82l-.21-1,.08,0,.38-.11a9,9,0,0,0,6.21-6.3c.08-.25.14-.52.21-.78l.08-.35v-2.4Zm-8.39,3.54c-.1-.45-.19-.89-.29-1.33-.14-.67-.28-1.35-.44-2a3,3,0,0,0-2.36-2.43L59.41,19l-.79-.17a6.85,6.85,0,0,1,12.31,4.6,6.76,6.76,0,0,1-5.33,6.21l-.27-1.2C65.1,27.38,64.86,26.32,64.63,25.26Zm-8,.61a1,1,0,0,0-.35,1.48c.07.14.15.27.23.41a1.65,1.65,0,0,1-.72-.71,1.43,1.43,0,0,1,0-1.15,1.61,1.61,0,0,1,.9-.91,1.5,1.5,0,0,1,.55-.11,1.56,1.56,0,0,1,.66.16,1.45,1.45,0,0,1,.79.91A1.56,1.56,0,0,1,58.52,27l-.09-.12-.39-.6A1.07,1.07,0,0,0,56.58,25.87Z"/><path d="M57.38,42.71,31.52,68.58c-.42.41-.7.59-1,.59h0c-.26,0-.54-.18-1-.59L26.42,65.4,19,58a1.37,1.37,0,0,0-.94-.47h0a1,1,0,0,0-.7.33,1.06,1.06,0,0,0,.11,1.57q5.48,5.49,11,11a2.87,2.87,0,0,0,2,.88h0A3.45,3.45,0,0,0,33,70.13L53.41,49.68l5.45-5.46A1.76,1.76,0,0,0,59.53,43a1,1,0,0,0-.32-.68C58.55,41.72,57.92,42.18,57.38,42.71Z"/><path d="M38.59,37.83a1,1,0,0,0,.27,1.34l2,2q1.66,1.68,3.35,3.34a1.18,1.18,0,0,0,.84.39h0a1,1,0,0,0,.72-.32,1.07,1.07,0,0,0-.06-1.53c-.42-.44-.85-.86-1.27-1.28l-.16-.15L43,40.33,42.6,40h.1l.69.13,5,.91a1.14,1.14,0,0,0,1.37-.59A1.18,1.18,0,0,0,49.44,39l-1.68-1.66q-1.82-1.79-3.64-3.56a1,1,0,1,0-1.43,1.52l.92.92.8.78,1.11,1.15.25.25-5.9-1.1A1.08,1.08,0,0,0,38.59,37.83Z"/><path d="M22.73,53.58l-.1.1c-.44.43-.89.88-1.32,1.33a1.06,1.06,0,0,0,0,1.58c1.81,1.82,3.65,3.67,5.48,5.48a1.12,1.12,0,0,0,.77.36,1.11,1.11,0,0,0,.75-.35l.1-.1a28.05,28.05,0,0,0,2-2.07,3.09,3.09,0,0,0-.15-4.09,3.23,3.23,0,0,0-2.48-1h-.1a1.42,1.42,0,0,1-.08-.18,2.85,2.85,0,0,0-4.87-1ZM25.41,56c-.14.17-.31.33-.47.49l-.14.13-.21.2-1.06-1.09.17-.17c.21-.2.44-.42.67-.62a.71.71,0,0,1,1,0A.73.73,0,0,1,25.41,56Zm3.3,1.25a1.09,1.09,0,0,1,0,1.42l-.15.16-1,1-1.42-1.49.27-.3a9.56,9.56,0,0,1,.95-1A1,1,0,0,1,28.71,57.25Z"/><path d="M32.33,47.53a3.15,3.15,0,0,0-4,.48q-.66.63-1.35,1.35a1.05,1.05,0,0,0,0,1.7c1.59,1.6,3.27,3.29,5.31,5.31a1.29,1.29,0,0,0,.9.43h0a1,1,0,0,0,.71-.32,1.07,1.07,0,0,0-.14-1.61c-.35-.35-.7-.7-1.06-1l-.26-.25.91.05,2.58.15a1.25,1.25,0,0,0,1-.28,1,1,0,0,0,.3-.73c0-.63-.4-1-1.14-1.06l-2.22-.17-.5,0,0-.07A3.09,3.09,0,0,0,32.33,47.53Zm-3,2.43a8.07,8.07,0,0,1,.59-.57,1,1,0,0,1,1.36,0,1,1,0,0,1,0,1.32,1.09,1.09,0,0,1-.13.17l-.53.56-.07.07-1.37-1.43Z"/><path d="M51.34,38.63a1.25,1.25,0,0,0,.84-.42c.54-.52,1-1.05,1.53-1.57a3.54,3.54,0,0,0,1-2.5,5.76,5.76,0,0,0-3.62-5.05,3.81,3.81,0,0,0-4.35.84c-.48.45-.94.92-1.39,1.38a1.09,1.09,0,0,0,0,1.75c1.64,1.65,3.33,3.33,5.16,5.14A1.23,1.23,0,0,0,51.34,38.63Zm-3.81-6.5c.08-.09.16-.17.23-.26a2.16,2.16,0,0,1,1.92-1,3.86,3.86,0,0,1,2.86,2.61c.32,1.15-.38,1.79-1.11,2.46l0,0Z"/><path d="M35.73,41.85a3,3,0,0,0-.39-.13l-.1,0h-.05a1.28,1.28,0,0,0-1.08.58A1.25,1.25,0,0,0,34,43.43c.28.68.59,1.35.89,2l.81,1.82,1.65,3.67a1.13,1.13,0,0,0,.61.59,1,1,0,0,0,.34.06,1.07,1.07,0,0,0,.48-.12,1,1,0,0,0,.49-1.38l0-.06a6.66,6.66,0,0,0-.37-.82c-.13-.22-.1-.34.1-.54l.16-.14a18.93,18.93,0,0,0,1.4-1.43c.41-.49.72-.55,1.18-.23a2.07,2.07,0,0,0,.82.32,1,1,0,0,0,.95-.29.83.83,0,0,0,.24-.78,1.44,1.44,0,0,0-.71-.93c-2-1-4.15-1.91-6.18-2.82ZM39,45.63,37.83,46.8l-1-2.13Z"/></svg>