<svg id="Layer_1" data-name="Layer 1" xmlns="http://www.w3.org/2000/svg" viewBox="0 0 85.04 85.04"><path d="M40.85,27.67,40,26.17c-.36-.67-.8-1.3-1.75-1.19V23.73a5.07,5.07,0,0,0,4-3.27,7.29,7.29,0,0,0,.36-2v-.09a12.89,12.89,0,0,0,0-1.39v-.49H51.9a2.32,2.32,0,0,0,1.72-3.94,2.35,2.35,0,0,0-1.69-.68H20a3.14,3.14,0,0,0-.66.08,2.31,2.31,0,0,0,.61,4.54h9.34v2.08a5.13,5.13,0,0,0,3.58,4.93c.19.07.39.12.58.17l.19.06V25h0a.47.47,0,0,1-.12,0,1.33,1.33,0,0,0-1.48.88c-.48.91-1,1.83-1.47,2.72s-.88,1.62-1.31,2.43l-.16.31a103.77,103.77,0,0,0-4.58,9.42A10.42,10.42,0,0,0,29.39,54.3,14.52,14.52,0,0,0,36,56a14.24,14.24,0,0,0,6.44-1.61,10.06,10.06,0,0,0,5.85-9.49A12.48,12.48,0,0,0,47,39.68C45.12,35.57,43,31.55,40.85,27.67ZM51.76,14.8H20.4c-.94,0-1.07-.31-1.07-.6a.45.45,0,0,1,.12-.37,1.42,1.42,0,0,1,1-.24H51.78a.87.87,0,0,1,.64.22.56.56,0,0,1,.15.39C52.56,14.58,52.26,14.8,51.76,14.8ZM32.5,29A58.9,58.9,0,0,0,30.19,39.2a28.57,28.57,0,0,0,1.49,12.89c.13.38.27.75.41,1.14,0,.12.1.24.14.37h0c-3.7-1.21-5.86-3.44-6.61-6.83a8.5,8.5,0,0,1,.61-5.52c1.43-3.08,2.91-6.08,4.18-8.62.58-1.15,1.21-2.3,1.82-3.42.21-.37.41-.74.61-1.11Zm5.76-7a2.26,2.26,0,0,0,0-.27c0-.62,0-1.05.59-1.37a1.83,1.83,0,0,0,.87-1.75v-2H41c0,.3,0,.59-.05.89a11.38,11.38,0,0,1-.23,2.19A3.18,3.18,0,0,1,38.26,22Zm2,30.13c.35-1.19.71-2.43,1-3.65a26.39,26.39,0,0,0,.47-8.72,57.5,57.5,0,0,0-2.65-11.66c.24.42.47.84.69,1.27L41,31.69c1.44,2.84,2.93,5.77,4.37,8.67a10.11,10.11,0,0,1,1.14,4.16,8.57,8.57,0,0,1-4,7.82,9.38,9.38,0,0,1-2.57,1.2C40,53.05,40.15,52.58,40.29,52.1ZM35.34,25V20.2c0-.46.24-.76.59-.77a.58.58,0,0,1,.4.16.78.78,0,0,1,.22.58V25Zm0,1.71h.09a6.76,6.76,0,0,0,1.11,0c.18,0,.25,0,.32.24a62.19,62.19,0,0,1,3,11.92c.12.87.19,1.76.24,2.46,0,.28,0,.53.06.74a29.45,29.45,0,0,1-2.38,11.65c-.1.25-.22.34-.45.34h-1c-.6,0-1.23,0-1.84,0a.49.49,0,0,1-.35-.24,30.57,30.57,0,0,1-2.25-8c-.67-4.57.24-9,1.33-13.19C33.6,31.4,34,30.2,34.35,29c.21-.67.42-1.33.62-2C35.05,26.79,35.14,26.7,35.36,26.7ZM33.88,16.51H38c0,.26,0,.53,0,.78a6.62,6.62,0,0,1-.09,1.53,2.56,2.56,0,0,0-1.8-1.1H36A3,3,0,0,0,34,18.81a5.55,5.55,0,0,1-.09-1.41A8.81,8.81,0,0,0,33.88,16.51Zm-2.9,0h1.2V17c0,.46,0,.93,0,1.4a2.36,2.36,0,0,0,1.25,2.2.48.48,0,0,1,.2.3c0,.26,0,.53,0,.81V22A3.44,3.44,0,0,1,31,18.72c0-.51,0-1,0-1.56C31,17,31,16.75,31,16.55Z"/><path d="M45.21,64c-1.54-.33-3.2-.71-4.85-1.19l-.94-.26a28.45,28.45,0,0,1-4.34-1.48c-2.43-1.15-4.85-2.4-7.2-3.61-1.35-.69-2.74-1.41-4.13-2.11a2.54,2.54,0,0,1-1.48-1.92c0-.13-.05-.26-.07-.39a3.51,3.51,0,0,1-.12-.71l-.18-3.79-.21-4.24c0-.32-.08-.63-.13-.94s-.07-.32-.09-.48a1.16,1.16,0,0,1,0-.32c0-.23.07-.47.1-.7.05-.39.11-.78.15-1.18.11-1.1-.36-1.63-1.64-1.83a3.26,3.26,0,0,0-.54,0h-.08a4.83,4.83,0,0,0-4.83,3.49.53.53,0,0,1-.42.44l-4,1.24-1.53.48a1.67,1.67,0,0,0-1.28,2.06c.13.69.28,1.37.45,2.12a.9.9,0,0,0,1,.75.89.89,0,0,0,.66-1.12c-.1-.5-.2-1-.31-1.5l-.13-.63L14,44.64v0c0,.14,0,.25,0,.37l.09,2.15L14.23,50c0,.36,0,.73,0,1.1,0,.93.07,1.89.15,2.83A6.22,6.22,0,0,0,16.64,58c.5.46,1,.88,1.57,1.32l.66.54L16.8,62.51q-2,2.59-4,5.18c-.09.12-.25.22-.29.2-.76-.14-1.52-.31-2.26-.47l-.6-.13A.72.72,0,0,1,9,66.65a11.9,11.9,0,0,1-.06-2.23,19.77,19.77,0,0,1,1.21-4.54l0-.08a10,10,0,0,0,.76-4.42,32.14,32.14,0,0,0-.6-3.28c-.07-.28-.13-.57-.19-.85a.74.74,0,0,0-.34-.5.94.94,0,0,0-.69-.11.85.85,0,0,0-.64,1v0a10.27,10.27,0,0,0,.31,1.44,9.47,9.47,0,0,1-.37,6.45,18.62,18.62,0,0,0-1.27,4.92A5.05,5.05,0,0,0,7.72,68a.52.52,0,0,1,0,.27c0,.64,0,1.29-.1,1.93-.09,1,.15,1.43,1.07,1.8a6.45,6.45,0,0,0,1.15.32.78.78,0,0,0,.94-.59.84.84,0,0,0-.52-1L10,70.59c-.23-.06-.46-.13-.53-.26a1,1,0,0,1,0-.63c0-.12,0-.24.05-.36l0-.29h0l.31.07a32.65,32.65,0,0,0,6.26.93c.9,0,1.82.09,2.71.12,1.2,0,2.44.1,3.66.18.82.06,1.66.2,2.46.33l.71.11-2,.26a27.69,27.69,0,0,1-6.1.35c-1-.09-2.09-.15-3.11-.22l-1.27-.08a.88.88,0,0,0-1,.75.84.84,0,0,0,.8,1c.32.05.63.06,1,.08l1.75.11c1,.07,2,.14,3,.14.34,0,.68,0,1,0,1.61-.09,3.24-.28,4.82-.47,1-.13,2.09-.25,3.13-.35s1.95-.11,2.9-.13c.4,0,.8,0,1.19,0h.41a5.09,5.09,0,0,0,.55,0,.84.84,0,0,0,0-1.68l-.55,0c-.31,0-.63,0-.93-.06l-.59-.06a7.41,7.41,0,0,1-2.78-.63A11.37,11.37,0,0,0,24,68.8l-.5-.06-.83-.09-.28,0,.79-1c.93-1.18,1.8-2.29,2.67-3.44.2-.26.31-.26.6-.14A32.81,32.81,0,0,0,45,65.93a.55.55,0,0,1,.46.08,2.31,2.31,0,0,1,.7,1.95.46.46,0,0,1-.35.44,28,28,0,0,1-10,2.06,1.12,1.12,0,0,0-.84.31.78.78,0,0,0-.21.57.82.82,0,0,0,.25.58,1.18,1.18,0,0,0,.85.24l.55,0c1-.06,2.07-.12,3.1-.25a27.43,27.43,0,0,0,7.32-2,1.64,1.64,0,0,0,1-1.27,4.57,4.57,0,0,0-.16-2.38A3.18,3.18,0,0,0,45.21,64ZM19.94,44.14c0,.6,0,1.2,0,1.81l0,1.13a1.93,1.93,0,0,1,0,.23v0l-.31,0a1.46,1.46,0,0,1-1.12-.4,1.18,1.18,0,0,0-1.58,0,1.21,1.21,0,0,0-.26,1.48,1.25,1.25,0,0,0,1.45.58,2.82,2.82,0,0,1,.66,0,3.05,3.05,0,0,1,.41,0l.25,0,.47,0H20l.19,2.65H18.81a.46.46,0,0,1-.21-.12l-.06,0a1.27,1.27,0,0,0-1.62.14,1.22,1.22,0,0,0-.08,1.61,1.26,1.26,0,0,0,1.57.33,1.58,1.58,0,0,1,.63-.15h1.43a1.17,1.17,0,0,1,.05.2c.07.24.14.52.24.8a8.55,8.55,0,0,0,.34.79l.15.31-.15.06a4.36,4.36,0,0,1-.58.19A1.24,1.24,0,0,0,19.39,57a1.26,1.26,0,0,0,.95,1.26,1.33,1.33,0,0,0,1.47-.82,2.08,2.08,0,0,1,.55-.56l.25-.2,0,0,3,1.57-.13,0a2.66,2.66,0,0,1-.56.16,1.32,1.32,0,0,0-1.15,1.09,1.26,1.26,0,0,0,.79,1.28,1.13,1.13,0,0,0,1.45-.5,1.87,1.87,0,0,1,.7-.77l.18-.14.32-.25.09-.06,3.18,1.61h0a2.07,2.07,0,0,1-.4.09A1.3,1.3,0,0,0,28.9,62a1.27,1.27,0,0,0,1,1.29,1.19,1.19,0,0,0,1.39-.75,1.21,1.21,0,0,1,.6-.62,3.81,3.81,0,0,0,.41-.29l.09,0,1.88.92.26.13-.23.15A.84.84,0,0,0,34,64a.81.81,0,0,0,1.09.38,6.72,6.72,0,0,0,.74-.42l.51-.31a.69.69,0,0,1,.39-.1c1.09.32,2.17.66,3.31,1l.54.16-.28,0-1.25,0a31.42,31.42,0,0,1-16.82-4.83,47,47,0,0,1-3.9-2.81l-.43-.33a4.61,4.61,0,0,1-1.78-3.56c-.1-2.11-.19-4.25-.27-6.33,0-.81-.07-1.62-.1-2.44a3,3,0,0,1,0-.3V44.1A8.18,8.18,0,0,1,19,43.45h.31C19.9,43.54,19.93,43.58,19.94,44.14Zm-1.27-3.5.16,0c.34,0,.62-.08.81-.08a.39.39,0,0,1,.28.07c.1.11,0,.5-.08,1.1l-3.12.18a3,3,0,0,1,1.87-1.24Zm2.95,21L18.13,66.1c-.51.65-1,1.33-1.54,2a.57.57,0,0,1-.61.26c-.36,0-.72-.09-1.11-.12l-.3,0,5.76-7.39Zm2.82,1.52-1.94,2.5c-.67.86-1.37,1.76-2.07,2.63a.58.58,0,0,1-.39.19H18.49l4.66-6Z"/><path d="M76.32,30.24l-.38,0L76,30c0-.39.08-.8.11-1.21,0-.22,0-.43,0-.65a9.16,9.16,0,0,0,0-2,6.7,6.7,0,0,0-4.19-5.47h0v0a3.37,3.37,0,0,0-2-2.7,5.37,5.37,0,0,0-.59-.21l-.25-.07-8.57,0-.1.09a.88.88,0,0,0-.35,1,.9.9,0,0,0,.94.52h7.44A1.83,1.83,0,0,1,70,20.2h-1.9c-3.57,0-7.16,0-10.65,0h-1.8a1.65,1.65,0,0,1,1.18-.83,9,9,0,0,1,1.28-.06h.43a.89.89,0,0,0,.93-.53.86.86,0,0,0-.35-1l-.1-.09H56.79l-.22.07a3.45,3.45,0,0,0-2.76,3h0a7,7,0,0,0-4.26,7c0,.52.09,1,.15,1.6l0,.23c0,.23,0,.46.07.68v0h-.1a2.08,2.08,0,0,0-1.5.66,2,2,0,0,0-.45,1.56l.42,4.32a1.94,1.94,0,0,0,2.14,1.93h.34a12.27,12.27,0,0,0,3.74,7.43,12,12,0,0,0,7.93,3.38h.62a11.78,11.78,0,0,0,6.74-2.07,12.26,12.26,0,0,0,5.4-8.75h.6a1.86,1.86,0,0,0,1.82-1.63c.09-.76.17-1.53.24-2.27l.11-1.12c.06-.51.11-1,.13-1.56A1.83,1.83,0,0,0,76.32,30.24ZM75.26,37h0l.52-5.15a2.17,2.17,0,0,1,.36,0,.21.21,0,0,1,.16.06.36.36,0,0,1,0,.24c-.15,1.52-.3,3-.46,4.56,0,.2-.07.25-.26.27ZM66.64,24.35H59.08a1.24,1.24,0,0,1-1.21-1.17c0-.36,0-.72,0-1.12v-.18h10v.17c0,.37,0,.76,0,1.14A1.23,1.23,0,0,1,66.64,24.35ZM56.19,22.6v.21a4.48,4.48,0,0,0,.08.94A2.88,2.88,0,0,0,59.1,26c3,0,5.31,0,7.5,0a2.91,2.91,0,0,0,2.94-2.91V21.86a4.89,4.89,0,0,1,3.24,1.36A5.23,5.23,0,0,1,74.49,28c-.11.93-.2,1.84-.3,2.93L74,32.5c-.06.59-.12,1.18-.19,1.77-.13,1.24-.24,2.28-.33,3.36a11.16,11.16,0,0,1-1.07,4.18,10.37,10.37,0,0,1-7.79,5.87,10.64,10.64,0,0,1-12.23-8.4c-.15-.75-.22-1.53-.3-2.31v-.14c0-.25,0-.51-.07-.76-.11-1-.22-2-.32-3.07l-.25-2.59c-.07-.76-.15-1.52-.23-2.28a6,6,0,0,1,.17-2.57,5.39,5.39,0,0,1,4.76-3.7v0C56.18,22.13,56.18,22.36,56.19,22.6Zm-6.8,9.57a.31.31,0,0,1,0-.21.26.26,0,0,1,.21-.08H50L50.48,37A2.22,2.22,0,0,1,50,37c-.09,0-.16,0-.17-.19C49.7,35.26,49.54,33.71,49.39,32.17Z"/><path d="M53.91,27.45h0a1.9,1.9,0,0,0-.7,1.55c0,.33,0,.66,0,1v.25c0,.73,0,1.65,0,2.52a3,3,0,0,0,1.54,2.82,10.82,10.82,0,0,0,1.18.59c.22.09.43.19.64.3l.43.21a12.53,12.53,0,0,1,1.3.69.58.58,0,0,1,.28.36.7.7,0,0,1-.19.52,4.4,4.4,0,0,1-.54.52c-.2.17-.41.33-.62.49l-.28.21a3.13,3.13,0,0,0-1.19,3.29A4.59,4.59,0,0,0,58,45.91a9.1,9.1,0,0,0,4.74,1.29A11.28,11.28,0,0,0,64.83,47a.83.83,0,1,0-.25-1.63l-.32,0h-.09l-.57.08a7.86,7.86,0,0,1-4.51-.89,3.07,3.07,0,0,1-1.49-1.49c-.56-1.36-.29-1.86.58-2.53l.14-.11a12.36,12.36,0,0,0,1.13-1,2.4,2.4,0,0,0,.77-1.93,2.35,2.35,0,0,0-1.14-1.72,10.56,10.56,0,0,0-1.24-.66L57.4,35l-.7-.33c-.39-.18-.8-.37-1.18-.59a1.34,1.34,0,0,1-.67-1.28c0-.84,0-1.69,0-2.53V29.11a.64.64,0,0,1,.06-.35s.07-.05.36,0a28.64,28.64,0,0,0,5.9.89,31,31,0,0,0,9.35-.91c.17,0,.25,0,.27,0a.39.39,0,0,1,.06.26c0,.78,0,1.57,0,2.36V33A1.18,1.18,0,0,1,70.28,34a6.4,6.4,0,0,1-.94.55c-.32.15-.65.29-1,.41l0,0c-.23.09-.47.19-.7.3a4.24,4.24,0,0,0-1.71,1.21,2,2,0,0,0-.42,1.55A3,3,0,0,0,66.71,40l.46.37a11.54,11.54,0,0,1,.89.78,1.31,1.31,0,0,1,.32.67,2.61,2.61,0,0,1-.59,1.91,4.5,4.5,0,0,1-1.31,1,.8.8,0,0,0-.42.52.83.83,0,0,0,.09.63.81.81,0,0,0,1.12.29,5,5,0,0,0,2.1-1.87c1.18-2,.88-3.82-.87-5a7.09,7.09,0,0,1-.57-.45l-.07-.06a3.56,3.56,0,0,1-.49-.46.75.75,0,0,1-.22-.53.64.64,0,0,1,.33-.42A11.66,11.66,0,0,1,69,36.54l.53-.23a7.33,7.33,0,0,0,1.78-1,3,3,0,0,0,1.2-2.47c0-.43,0-.86,0-1.3V29a1.82,1.82,0,0,0-2.43-1.86,27,27,0,0,1-6.08.88,29,29,0,0,1-8.43-.89A1.91,1.91,0,0,0,53.91,27.45Z"/></svg>