<svg id="Layer_1" data-name="Layer 1" xmlns="http://www.w3.org/2000/svg" viewBox="0 0 85.04 85.04"><path d="M63.16,30.1c-.72-3-2.84-4.42-5.82-3.85-.36.07-.7.17-1.07.28l-.38.12c0-.19,0-.37-.07-.55-.06-.48-.12-.94-.22-1.4a11.17,11.17,0,0,0-6.41-7.9,21.29,21.29,0,0,0-7.86-2,26.83,26.83,0,0,0-10.22,1A13.33,13.33,0,0,0,23,22.45a14.77,14.77,0,0,0-.6,11.22,2.38,2.38,0,0,1,.11.65A79.7,79.7,0,0,0,23.63,46,38.5,38.5,0,0,0,27,56.54a1.53,1.53,0,0,1,.12.68c0,2.16,0,4.33,0,6.49v3.71a4.5,4.5,0,0,0,.06.78,3.08,3.08,0,0,0,2.18,2.33h19c1.57-.59,2.29-1.77,2.25-3.73-.06-2.67,0-5.38,0-8V57.42a1,1,0,0,1,.3-.65c.51-.53,1-1.05,1.57-1.55.92-.9,1.88-1.82,2.74-2.81C60,47,62.54,41.78,63.32,36.07A16.07,16.07,0,0,0,63.16,30.1ZM35.72,64.68V61.33H48.38v3.35Zm.64-9.19a1,1,0,0,0-.89,1,1,1,0,0,0,.86,1,1.91,1.91,0,0,0,.53,0H48.37v1.58H36.05a5.45,5.45,0,0,0-.78,0,1.88,1.88,0,0,0-1.65,1.9c0,1.08,0,2.18,0,3.24v.29a2,2,0,0,0,2.19,2.19H48.39a2.45,2.45,0,0,0,0,.27,1.65,1.65,0,0,1,0,.71,1.71,1.71,0,0,1-.65.59l0,0a.6.6,0,0,1-.31,0H30.48c-1,0-1.27-.22-1.27-1.26V57.59h2.38a1.86,1.86,0,0,0,.87-.22.93.93,0,0,0,.41-1.12,1,1,0,0,0-1.09-.78c-.81,0-1.67,0-2.55,0h-.05c-.29,0-.43-.1-.58-.41a35,35,0,0,1-2.89-9.57c-.29-1.82-.5-3.69-.7-5.5-.09-.76-.17-1.51-.26-2.27A3.45,3.45,0,0,0,25,38c.34.32.68.64,1,1a20.39,20.39,0,0,0,10.81,5,17.68,17.68,0,0,0,9.84-1.12A14.33,14.33,0,0,0,55,33.11a24,24,0,0,0,.56-2.59q.1-.64.24-1.29a.65.65,0,0,1,.1-.28,6,6,0,0,1,3-.72,2.17,2.17,0,0,1,1.9,1.46,9.39,9.39,0,0,1,.6,4,24,24,0,0,1-4,12.15,41.58,41.58,0,0,1-8.08,9.4,1.17,1.17,0,0,1-.71.22H36.86A2.85,2.85,0,0,0,36.36,55.49ZM38,16.78h.22c3.66.12,6.46.41,9.15,1.51A9.4,9.4,0,0,1,53.24,24a11.7,11.7,0,0,1,.35,5.74,15.91,15.91,0,0,1-2.42,6.66,12.26,12.26,0,0,1-8.73,5.42,18.08,18.08,0,0,1-14.13-3.73,10.87,10.87,0,0,1-4.52-7.3c-.82-6.38,2-11,7.82-12.94A21.39,21.39,0,0,1,38,16.78Z"/><path d="M25.83,27.67a1,1,0,0,0,.73.31h.18a1.11,1.11,0,0,0,.92-1,7.21,7.21,0,0,1,4.24-5.17A18.78,18.78,0,0,1,34.72,21l1-.25a1.14,1.14,0,0,0,.95-1.13c0-.63-.55-1-1.36-.95h0a12.12,12.12,0,0,0-7.35,3.47,9.46,9.46,0,0,0-2.32,4.41A1.28,1.28,0,0,0,25.83,27.67Z"/><path d="M43.25,53.63a1.16,1.16,0,0,0,1.09.18,1,1,0,0,0,.62-.75,1.06,1.06,0,0,0-.54-1.17L42.1,50.26l-1-.68.78-.55c.83-.58,1.62-1.13,2.41-1.7a1.65,1.65,0,0,0,.56-.63,1,1,0,0,0-.34-1.2,1,1,0,0,0-1.29,0l-.79.55c-.88.61-1.79,1.24-2.67,1.89a.68.68,0,0,1-1,0c-.87-.65-1.79-1.28-2.67-1.88l-.7-.49a1.31,1.31,0,0,0-1-.27,1,1,0,0,0-.64.44,1.06,1.06,0,0,0,.42,1.54L36,48.54l1.17.83a2.19,2.19,0,0,1,.25.2l0,0-.7.49-2.5,1.77a1.61,1.61,0,0,0-.58.69A.93.93,0,0,0,34,53.68a1,1,0,0,0,.61.21,1.2,1.2,0,0,0,.68-.24l.89-.62c.87-.59,1.76-1.21,2.62-1.85a.69.69,0,0,1,1,0C40.89,52,42,52.78,43.25,53.63Z"/></svg>