<svg id="Layer_1" data-name="Layer 1" xmlns="http://www.w3.org/2000/svg" viewBox="0 0 85.04 85.04"><path d="M18.3,25.59l9.45-5.39C31.38,18.13,35,16,38.64,14a.78.78,0,0,0,.5-.85,9,9,0,0,1,0-1.16A2,2,0,0,1,41,10.05c.8,0,1.59,0,2.39,0A1.89,1.89,0,0,1,45.28,12c-.19,1.42.48,2,1.62,2.67,6.3,3.53,12.56,7.14,18.83,10.73l.38.2c1.18-1.68,2.92-1.06,4.48-1a1.86,1.86,0,0,1,1.52,2c0,7.52,0,15,0,22.55a1.39,1.39,0,0,1-.9,1.28L55.6,59.29c-4.1,2.34-8.2,4.67-12.27,7a2,2,0,0,1-2.19,0q-13.92-8-27.86-15.94a1.67,1.67,0,0,1-1-1.69c0-7.3,0-14.61,0-21.91a2.07,2.07,0,0,1,2.34-2.32c.43,0,.87,0,1.29,0A2.3,2.3,0,0,1,18.3,25.59ZM70.06,41.76c-.32.17-.53.27-.73.39q-13,7.45-26.06,14.91a1.82,1.82,0,0,1-2.07,0Q28.1,49.55,15,42.07l-.59-.32c0,2.25,0,4.37,0,6.5a.92.92,0,0,0,.44.6l26.89,15.4a.86.86,0,0,0,1,0l8.21-4.7L69.51,48.91c.23-.13.52-.41.52-.62C70.07,46.15,70.06,44,70.06,41.76ZM59.93,34.81c-.25-.17-.42-.29-.6-.39L46.21,26.93c-.57-.33-1.1-.84-1.84-.4-.06,0-.17,0-.26,0H40.32c-.19,0-.38-.06-.57-.06a1.75,1.75,0,0,0-.8.06c-4.65,2.64-9.3,5.31-14,8-.14.08-.27.17-.48.31L38.89,43a7.88,7.88,0,0,1,1-1.57c.76-.74,3.89-.73,4.63,0a8.49,8.49,0,0,1,1,1.58ZM18.51,30.63l3.48-2,16.62-9.5c.2-.12.48-.32.49-.5.06-.81,0-1.62,0-2.51l-.64.34L31,20.74q-6,3.44-12,6.89c-.19.11-.44.3-.45.46C18.48,28.89,18.51,29.7,18.51,30.63Zm26.8-14.48c0,.75,0,1.43,0,2.11a.84.84,0,0,0,.53.89L65.3,30.27l.63.32c0-.77,0-1.45,0-2.12a.83.83,0,0,0-.53-.89L45.83,16.39C45.68,16.31,45.53,16.25,45.31,16.15ZM18.51,39c0,.79,0,1.47,0,2.14A.8.8,0,0,0,19,42q9.82,5.59,19.65,11.22a5.18,5.18,0,0,0,.5.22c0-.71,0-1.35,0-2a1,1,0,0,0-.62-1L19.6,39.56Zm26.8,14.48c.31-.16.52-.26.72-.38l5.52-3.16L65.45,42c.19-.12.45-.34.46-.52,0-.78,0-1.57,0-2.48l-1.53.87L45.82,50.45a1,1,0,0,0-.48.63C45.27,51.83,45.31,52.58,45.31,53.44Zm-6.18-5.12c0-.91,0-1.7,0-2.49a.72.72,0,0,0-.35-.46q-8-4.59-16-9.15a.73.73,0,0,0-.58-.09c-.71.37-1.4.79-2.2,1.24ZM64.48,32.21,45.31,21.26c0,.89,0,1.64,0,2.39a.78.78,0,0,0,.32.54q8,4.61,16.07,9.17a.76.76,0,0,0,.64,0C63,33.06,63.7,32.66,64.48,32.21ZM45.31,48.32l19.17-11c-.78-.44-1.44-.84-2.12-1.19a.84.84,0,0,0-.64,0q-8,4.57-16.07,9.18a.76.76,0,0,0-.32.54C45.29,46.68,45.31,47.43,45.31,48.32Zm-6.18-27L20,32.22c.74.42,1.36.81,2,1.13a.93.93,0,0,0,.75,0q8-4.55,16-9.15a.74.74,0,0,0,.34-.46C39.15,23,39.13,22.17,39.13,21.27ZM68,40.49c.56-.32,1-.6,1.49-.83a.89.89,0,0,0,.57-.95c0-3.84,0-7.68,0-11.52,0-.2,0-.41,0-.6H68Zm-51.6-.07V26.58h-2V37.3c0,2.14,0,2.14,1.91,3.1Zm26.8-16V12.15h-2v12.3Zm-2,18.62v11a1,1,0,1,0,2.06,0V43.69c0-.21,0-.42,0-.62ZM20.26,34.78l-1.7-1v1.93Zm45.63,1V33.81l-1.69,1Z"/><path d="M39.71,69.55a1,1,0,1,0-1.93.53l.39,1.31-8.3-4.88L14.31,57.37l-1.67-1,1.12-.18a1,1,0,0,0,.7-1.23,1,1,0,0,0-1.23-.7l-3.52.58a1,1,0,0,0-.6.46,1.14,1.14,0,0,0-.1.77l.53,3.28.08.48a1,1,0,0,0,1.23.7,1,1,0,0,0,.7-1.23l-.23-1.38,8.21,4.82L35.08,71.9l2.19,1.28-1.13.34a1,1,0,1,0,.53,1.93l3.42-1a1,1,0,0,0,.7-1.23Z"/><path d="M75.31,54.94l-3.59-1.28a1,1,0,0,0-1.23.7,1,1,0,0,0,.7,1.23l1.35.48-8.17,4.86-15.5,9.24-2.19,1.3.24-1.12A1,1,0,1,0,45,69.82c-.25,1.16-.49,2.33-.74,3.49a1,1,0,0,0,.7,1.23l3.25.71.46.1a1,1,0,1,0,.53-1.93l-1.37-.3,8.27-4.92L71.59,59c.55-.34,1.11-.67,1.67-1l-.37,1a1,1,0,0,0,.7,1.23,1,1,0,0,0,1.23-.7L76,56.17A1,1,0,0,0,75.31,54.94Z"/></svg>