<svg id="Layer_1" data-name="Layer 1" xmlns="http://www.w3.org/2000/svg" viewBox="0 0 85.04 85.04"><path d="M72.88,23.65A10.77,10.77,0,0,0,63.6,12.83a.65.65,0,0,1-.15-.05l-.09,0H21.79l-.82.2a12.56,12.56,0,0,0-1.79.51,10.53,10.53,0,0,0-6.79,8.43c0,.08-.05.16-.08.25s0,.08,0,.12V72.38l0,.06a1.73,1.73,0,0,0,1.71.9H71.16c1.28,0,1.71-.43,1.71-1.7q0-7,0-14C72.86,46.52,72.85,35,72.88,23.65Zm-2.62,40v7.09H14.87V23.76a8.13,8.13,0,0,1,6.58-8.25,9.86,9.86,0,0,1,1.9-.17H61.78a8.13,8.13,0,0,1,8.3,6.59,8.44,8.44,0,0,1,.17,1.79Q70.27,43.66,70.26,63.62Z"/><path d="M68.09,42.73a33.44,33.44,0,0,0-.37-4.35,24.68,24.68,0,0,0-8.58-14.84A24.87,24.87,0,0,0,38.7,17.73,24.8,24.8,0,0,0,22.38,27.3a24.18,24.18,0,0,0-5.27,13.38C17,42.26,17,43.88,17,45.45c0,.63,0,1.26,0,1.89a1.84,1.84,0,0,0,.36,1.33,1.81,1.81,0,0,0,1.34.37H66.59c1.08,0,1.56-.47,1.56-1.55,0-.33,0-.66,0-1,0-.83,0-1.69,0-2.54C68.12,43.55,68.1,43.14,68.09,42.73ZM42.5,44.34h.1a3.39,3.39,0,0,1,3,2H39.5A3.34,3.34,0,0,1,42.5,44.34Zm3.87-2.23c.89-2,1.78-4,2.63-6,.32-.73.63-1.47,1-2.21l0-.06v0c.42-1,.22-1.72-.56-2.06a1.18,1.18,0,0,0-.92,0,1.91,1.91,0,0,0-.95,1.09l-2.23,5.14-1.57,3.65a2,2,0,0,1-.1.21l0,0a6.22,6.22,0,0,0-4.42,1,6.15,6.15,0,0,0-2.54,3.67h-17c0-.45,0-.9,0-1.34,0-1,0-2.13,0-3.18a22.71,22.71,0,0,1,2.54-9.41,23.29,23.29,0,0,1,7.9-8.71,22.93,22.93,0,0,1,10.09-3.59A22.31,22.31,0,0,1,51.71,22a22.66,22.66,0,0,1,9.73,8,20.73,20.73,0,0,1,3.74,9.41c.2,1.61.29,3.2.38,4.89l.12,2.13h-17a6,6,0,0,0-2-3.07A.83.83,0,0,1,46.37,42.11Z"/><path d="M27.14,57.76h0A5.42,5.42,0,0,0,23.26,67a5.37,5.37,0,0,0,3.83,1.62h0a5.43,5.43,0,0,0,5.43-5.4,5.43,5.43,0,0,0-5.41-5.45Zm2.8,5.43a2.84,2.84,0,0,1-.89,2,2.78,2.78,0,0,1-1.9.8h-.07a2.82,2.82,0,0,1,0-5.63h0A2.86,2.86,0,0,1,29.94,63.19Z"/><path d="M58,57.76h0a5.43,5.43,0,0,0,0,10.85h0a5.43,5.43,0,1,0,0-10.85Zm2.81,5.42a2.8,2.8,0,0,1-.87,2A2.84,2.84,0,0,1,58,66H58a2.82,2.82,0,0,1,0-5.63h0A2.86,2.86,0,0,1,60.82,63.18Z"/><path d="M39.15,52.49a1.3,1.3,0,0,0-1.24-1.33H22.25c-1.24,0-2.53,0-3.78,0a1.64,1.64,0,0,0-1.17.5A1.68,1.68,0,0,0,17.12,53a1.17,1.17,0,0,0,1.28.8H37.91A1.28,1.28,0,0,0,39.15,52.49Z"/><path d="M66.73,51.15H48.88c-.54,0-1.1,0-1.65,0A1.29,1.29,0,0,0,46,52.42a1.3,1.3,0,0,0,1.24,1.33H64.09l2.58,0a1.63,1.63,0,0,0,1.16-.5A1.68,1.68,0,0,0,68,52C67.88,51.43,67.42,51.15,66.73,51.15Z"/><path d="M43.8,58.17a1.51,1.51,0,0,0-2.76,0c-.45,1.48-.9,3-1.36,4.44l-1.22,4a1,1,0,0,0,0,.76,1.22,1.22,0,0,0,.77.51,2.26,2.26,0,0,0,.62.11c.43,0,.68-.23.83-.72s.23-.76.34-1.13l.11-.37H44L44,66c.06.21.12.39.17.58a1.68,1.68,0,0,1,.09.32c0,.16.09.32.14.47.2.63.55.8,1.24.59a1.14,1.14,0,0,0,.76-.49.82.82,0,0,0,0-.66C45.56,63.88,44.68,61,43.8,58.17ZM43.68,64h-2l1-3.64Z"/><path d="M42.56,53.76h0a1.3,1.3,0,1,0-1.3-1.34,1.26,1.26,0,0,0,.37.94A1.24,1.24,0,0,0,42.56,53.76Z"/><path d="M42.61,23.93a1.33,1.33,0,0,0-1,.36,1.31,1.31,0,0,0,.87,2.24h0a1.28,1.28,0,0,0,.9-.37,1.32,1.32,0,0,0,.4-.92A1.3,1.3,0,0,0,42.61,23.93Z"/><path d="M38,24.52a1.3,1.3,0,0,0-1.36,1.27,1.32,1.32,0,0,0,1.24,1.33H38a1.31,1.31,0,0,0,.89-.36,1.27,1.27,0,0,0,.41-.91A1.31,1.31,0,0,0,38,24.52Z"/><path d="M47.14,24.53a1.24,1.24,0,0,0-.9.39,1.34,1.34,0,0,0-.38,1,1.27,1.27,0,0,0,1.29,1.25h0a1.31,1.31,0,0,0,1.3-1.27,1.33,1.33,0,0,0-.39-.94A1.3,1.3,0,0,0,47.14,24.53Z"/><path d="M33.73,26.28h0a1.28,1.28,0,0,0-.93.39,1.3,1.3,0,0,0,.92,2.21h0a1.23,1.23,0,0,0,.92-.39,1.29,1.29,0,0,0-.92-2.21Z"/><path d="M51.43,28.9h0a1.26,1.26,0,0,0,1.29-1.26,1.4,1.4,0,0,0-.39-1,1.27,1.27,0,0,0-.9-.38h0a1.36,1.36,0,0,0-1.31,1.28,1.27,1.27,0,0,0,.36.92A1.31,1.31,0,0,0,51.43,28.9Z"/><path d="M30.16,29.12a1.3,1.3,0,0,0-1,.33,1.33,1.33,0,0,0-.43.91A1.31,1.31,0,0,0,30,31.71h.08a1.29,1.29,0,0,0,.88-.34,1.26,1.26,0,0,0,.42-.91A1.3,1.3,0,0,0,30.16,29.12Z"/><path d="M55.09,31.74h0a1.27,1.27,0,0,0,1.24-1.31,1.33,1.33,0,0,0-1.27-1.3h0a1.37,1.37,0,0,0-1.31,1.34,1.25,1.25,0,0,0,.4.9A1.31,1.31,0,0,0,55.09,31.74Z"/><path d="M27.25,32.77h0a1.28,1.28,0,0,0-.92.38,1.3,1.3,0,0,0,.91,2.22h0a1.31,1.31,0,0,0,.93-.39,1.29,1.29,0,0,0,.37-.93A1.3,1.3,0,0,0,27.25,32.77Z"/><path d="M57.88,35.44h0a1.31,1.31,0,0,0,.91-.39,1.29,1.29,0,0,0,.39-.95,1.32,1.32,0,0,0-1.29-1.28h0a1.26,1.26,0,0,0-.91.39,1.29,1.29,0,0,0-.39.94A1.33,1.33,0,0,0,57.88,35.44Z"/><path d="M25.47,37.13h0a1.3,1.3,0,0,0-1.28,1.28,1.27,1.27,0,0,0,.37.94,1.34,1.34,0,0,0,.93.38h0a1.3,1.3,0,1,0,0-2.6Z"/><path d="M24.92,41.73h0a1.3,1.3,0,0,0,0,2.6h0a1.31,1.31,0,0,0,1.3-1.24,1.3,1.3,0,0,0-1.26-1.36Z"/><path d="M60.24,41.7h0A1.29,1.29,0,0,0,59,43a1.33,1.33,0,0,0,1.3,1.34h0a1.31,1.31,0,0,0,.92-.4,1.34,1.34,0,0,0,.38-.95,1.29,1.29,0,0,0-1.3-1.26Z"/><path d="M58.36,38.4a1.34,1.34,0,0,0,.4,1,1.29,1.29,0,0,0,.89.37h0A1.35,1.35,0,0,0,61,38.41a1.28,1.28,0,0,0-.38-.92,1.3,1.3,0,0,0-.93-.37h0A1.26,1.26,0,0,0,58.36,38.4Z"/></svg>