<svg id="Layer_1" data-name="Layer 1" xmlns="http://www.w3.org/2000/svg" viewBox="0 0 85.04 85.04"><path d="M65.38,45.77a12.58,12.58,0,0,0-9.9-4.38H30.55a14,14,0,0,1-1.87-.12,10.31,10.31,0,0,1-5.82-17.49,10.29,10.29,0,0,1,7.31-3.06c4.32,0,8.61,0,11.86,0a.77.77,0,0,1,.47.2c1.51,1.53,2.86,2.92,4.14,4.26a1.75,1.75,0,0,0,1.35.57H60.94a1.37,1.37,0,0,0,1.54-1.55v-8.9c0-1.13-.48-1.61-1.62-1.61H48.05a1.91,1.91,0,0,0-1.44.6c-.64.64-1.29,1.27-1.94,1.89L43,17.78a.73.73,0,0,1-.59.23h-.72c-3.75,0-7.63,0-11.44,0a13.62,13.62,0,0,0-2.51.23,13,13,0,0,0,2.42,25.84H55.3a14.64,14.64,0,0,1,1.83.11,10.34,10.34,0,0,1,8.78,11.67,10.27,10.27,0,0,1-10.15,8.88c-3.75,0-7.56,0-11.25,0h-.3a.67.67,0,0,1-.41-.19c-1.25-1.2-2.56-2.47-4.13-4a1.52,1.52,0,0,0-1.12-.47H25.37a1.33,1.33,0,0,0-1.44,1.45q0,4.56,0,9.13a1.36,1.36,0,0,0,1.5,1.47H38.49a1.62,1.62,0,0,0,1.24-.54c.65-.68,1.3-1.35,2-2l1.83-1.9a.7.7,0,0,1,.55-.24h.31c3.65,0,7.42,0,11.13,0a13.48,13.48,0,0,0,2.62-.24A12.53,12.53,0,0,0,68,58.59,12.48,12.48,0,0,0,65.38,45.77ZM59.73,16.42v6.63h-11a.69.69,0,0,1-.55-.22c-.75-.79-1.52-1.58-2.31-2.39L45,19.58l.11-.09c.17-.15.34-.28.5-.43l1-1,1.51-1.45a.61.61,0,0,1,.34-.17c3.3,0,6.59,0,9.89,0h1.35ZM26.64,69.2V67.33c0-1.42,0-2.84,0-4.26,0-.15,0-.21,0-.23s.12,0,.24,0h10.9a.72.72,0,0,1,.45.18c.83.78,1.64,1.58,2.47,2.39l.67.64-.77.79c-.74.75-1.44,1.46-2.13,2.21a1.22,1.22,0,0,1-1,.44H26.65A1.93,1.93,0,0,1,26.64,69.2Z"/></svg>