<svg id="Layer_1" data-name="Layer 1" xmlns="http://www.w3.org/2000/svg" viewBox="0 0 85.04 85.04"><path d="M39.53,44,27.91,61.18l-.09.12a.67.67,0,0,0-.2.4v.12a1.76,1.76,0,0,0,.22,1,.79.79,0,0,0,.64.32,1.23,1.23,0,0,0,.67-.23c.16-.11.3-.23.44-.34l6.15-5.14,20.49-17.1a1.1,1.1,0,0,0,.44-1.18,1,1,0,0,0-.87-.76l-5.39-1.31-1.61-.4,4.36-6.41,1-1.46,2.06-3a1.17,1.17,0,0,0,.21-1.06,1.19,1.19,0,0,0-.87-.66l-.67-.14-2.74-.53-6-1.15a1.3,1.3,0,0,0-1.45.59q-4.29,6.24-8.62,12.46l-3.41,4.92a1.27,1.27,0,0,0-.29,1.18,1.31,1.31,0,0,0,1,.7l1.64.38,1,.23,2.35.55,1.43.34,0,0Zm6.58-6.22c.13.33.49.56,1.14.72l5.44,1.34.7.17.08,0L33.55,56.67l.08-.13,8.54-12.69c.38-.56.5-1,.36-1.31s-.5-.56-1.16-.71l-4.41-1-1.87-.41,11-16,7.49,1.46,0,.06c-.09.13-.16.26-.24.38l-4.74,7-2.16,3.19A1.4,1.4,0,0,0,46.11,37.81Z"/><path d="M67.47,58.73l-1.19.15-.27,0a.33.33,0,0,1,0-.06A28.84,28.84,0,0,0,70.55,38a28.46,28.46,0,0,0-7-14.52,1.38,1.38,0,0,0-.63-.4.89.89,0,0,0-1.09.43,1.2,1.2,0,0,0,.28,1.44,26.57,26.57,0,0,1,6.59,20.55,26.12,26.12,0,0,1-4.3,12l-.15.19a2.51,2.51,0,0,0,0-.27c0-.34-.1-.66-.14-1-.09-.78-.6-1.3-1.2-1.23A1.18,1.18,0,0,0,62,56.56c.14,1.16.3,2.39.48,3.66a1.11,1.11,0,0,0,1.17,1.08l.27,0,.75-.1.91-.12.6-.08c.53-.07,1.09-.14,1.63-.25a1.11,1.11,0,0,0,.72-.5,1.05,1.05,0,0,0,.15-.82C68.56,58.88,68.15,58.65,67.47,58.73Z"/><path d="M60.38,64.54a2.5,2.5,0,0,0-.43.23A30.84,30.84,0,0,1,34.17,68a26.63,26.63,0,0,1-5.49-2.36l.16,0,1-.16a1.08,1.08,0,0,0,1-1.11,1,1,0,0,0-.36-.66,1.18,1.18,0,0,0-.87-.21c-1.33.18-2.67.39-4,.6a.94.94,0,0,0-.89,1c.17,1.31.38,2.69.65,4.22a1,1,0,0,0,.45.69.86.86,0,0,0,.71.13,1.06,1.06,0,0,0,.78-1.24L27,67.1h0a.88.88,0,0,1,.19.1A32.29,32.29,0,0,0,43.4,71.51a35,35,0,0,0,4.19-.25,32.11,32.11,0,0,0,11.86-3.84c.61-.34,1.22-.72,1.88-1.15a.93.93,0,0,0,.31-1.33A1,1,0,0,0,60.38,64.54Z"/><path d="M20.86,26a1,1,0,0,0-1.29-.9c-1.32.24-2.63.49-3.85.73a1.12,1.12,0,0,0-1,1.28c.11.58.62.88,1.34.8l.32-.05.2,0,1-.16-.06.11a28.64,28.64,0,0,0,.93,31.42c.41.57.8.86,1.18.86a1,1,0,0,0,.54-.19.87.87,0,0,0,.41-.59A1.73,1.73,0,0,0,20.18,58,26.26,26.26,0,0,1,15.45,44.9a26.62,26.62,0,0,1,2.79-14.3c.24-.46.5-.93.77-1.42a4.79,4.79,0,0,0,.25-.45c0,.12,0,.23.07.34.08.43.15.81.24,1.19a1,1,0,0,0,1.27.88,1.06,1.06,0,0,0,.78-1.3C21.37,28.56,21.12,27.28,20.86,26Z"/><path d="M25.79,21.48a.71.71,0,0,0,.14-.1l.05,0a26.61,26.61,0,0,1,22.9-4.54,26.22,26.22,0,0,1,5.24,1.92l-.38.14-1.37.53a1,1,0,1,0,.7,2c1.49-.51,2.69-.95,3.8-1.37a1,1,0,0,0,.69-1.44c-.43-1.22-.89-2.5-1.37-3.79a1.2,1.2,0,0,0-.63-.69,1,1,0,0,0-.78,0,1.08,1.08,0,0,0-.55,1.42c.11.32.23.65.36,1l.09.26-.11,0A29.05,29.05,0,0,0,39.2,14a27.92,27.92,0,0,0-12,4c-.79.48-1.55,1-2.29,1.57l-.28.2a1.25,1.25,0,0,0-.52.81,1,1,0,0,0,.21.78.89.89,0,0,0,.73.38A1.35,1.35,0,0,0,25.79,21.48Z"/></svg>