<svg id="Layer_1" data-name="Layer 1" xmlns="http://www.w3.org/2000/svg" viewBox="0 0 85.04 85.04"><path d="M70.09,24.46a2.17,2.17,0,0,0-2.59-.12l-5.75,3.29-3,1.72-.49.28c-.41.23-.84.47-1.25.72a1,1,0,0,0-.41,1.46,1.09,1.09,0,0,0,1.46.43,2.57,2.57,0,0,0,.33-.18L60.31,31q4-2.26,7.93-4.52a1.85,1.85,0,0,1,.43-.18l.11,0,0,.06-23,14.79c0-.11.05-.22.08-.32.1-.44.19-.81.24-1.19a1,1,0,0,1,.62-.85L53.24,35l1.3-.74a1.55,1.55,0,0,0,.83-.91,1,1,0,0,0-.13-.76c-.21-.34-.71-.83-1.76-.23L52.31,33l-.78.45L46.9,36.1a2.16,2.16,0,0,1,0-.3c.29-1.34.58-2.67.88-4,.35-1.58.69-3.17,1-4.76,1-4.69,2.07-9.53,3.09-14.31a2.16,2.16,0,0,0-1.44-2.51,2.08,2.08,0,0,0-1.73.07,2.81,2.81,0,0,0-1.32,1.85l-1.09,4Q43.15,27.88,40,39.64a1.2,1.2,0,0,1-.63.81q-7.91,4.48-15.79,9L20.7,51.07C19,52,17.32,53,15.64,54a3.9,3.9,0,0,0-1.89,2.46,3.67,3.67,0,0,0,.47,2.88A3.73,3.73,0,0,0,16.58,61a4.1,4.1,0,0,0,3.12-.58l9.45-6.07,4.15-2.67L35.91,50l1.46-.93-.29,1c-.28,1.06-.56,2.08-.83,3.09-.44,1.6-.88,3.21-1.31,4.81-1,3.82-2.12,7.77-3.16,11.66a3.73,3.73,0,0,0,2.29,4.4l.35.16.19.09H36.2A4.21,4.21,0,0,0,39.29,71c1.94-9,3.92-18.07,5.77-26.54a.93.93,0,0,1,.36-.54l6-3.88,6.69-4.29,11.46-7.36a2.57,2.57,0,0,0,1.33-1.62A2.2,2.2,0,0,0,70.09,24.46ZM16.61,55.93c.52-.33,1.05-.63,1.61-.94l.65-.37,1.64,2.71-.67.43a19,19,0,0,1-1.76,1.05A1.58,1.58,0,0,1,16,58.06,1.6,1.6,0,0,1,16.61,55.93Zm16.74-6.86-11,7.07-1.58-2.59,11.36-6.5ZM49.74,12.33a1,1,0,0,1,0,.35q-1.9,8.85-3.83,17.71Q43.66,40.67,41.42,51a2.22,2.22,0,0,1-.1.31.14.14,0,0,1,0,.06l-2.14-.52L49.68,12.25h.06ZM33.9,70.09c.06-.29.15-.58.23-.85s.07-.27.11-.4l.32-1.19,3.07.72c-.05.25-.11.49-.16.73-.13.61-.25,1.19-.41,1.76a1.63,1.63,0,1,1-3.16-.77Zm7-16.63-1.75,8.08c-.1.46-.2.91-.31,1.37-.21,1-.43,2-.63,3a.47.47,0,0,1-.14.32.44.44,0,0,1-.32,0c-.61-.17-1.23-.32-1.88-.48l-.7-.16,3.44-12.61ZM38.13,46,35.7,47.55l-.52.33L34,46l5-2.84-.1.4c-.21.8-.41,1.54-.62,2.28A.36.36,0,0,1,38.13,46Z"/></svg>