<svg id="Layer_1" data-name="Layer 1" xmlns="http://www.w3.org/2000/svg" viewBox="0 0 85.04 85.04"><path d="M65.76,24.58,52.24,20.63,47.1,19.12l-3.19-.93a6.19,6.19,0,0,0-3.59,0q-10.91,3.2-21.82,6.37A2.38,2.38,0,0,0,16.9,26l0,34.29,0,.09a2.59,2.59,0,0,0,1.88,1.5l15.78,4.61,5.66,1.65.72.21.36.09H43l2.51-.73,4.62-1.34,15.69-4.59a2,2,0,0,0,1.62-2.19V26.77A2,2,0,0,0,65.76,24.58ZM19.08,57.79l.47.13,1.62.47L40.28,64A6.52,6.52,0,0,0,44,64l16.85-4.93,4.21-1.23.11,0v.29c0,.47,0,.92,0,1.37,0,.19,0,.23-.26.31l-6.25,1.82L53.78,63l-10.42,3a4,4,0,0,1-2.36,0L25.08,61.42l-6-1.76ZM41,61.9,26.9,57.79l-7.65-2.25-.19-.06V32.77l7.82,2.29,13.7,4a5.66,5.66,0,0,0,3.21,0L65,32.84l.17-.05V55.5l-9,2.62-13,3.81A4,4,0,0,1,41,61.9ZM65.24,30.38c0,.11,0,.12-.22.18l-4.09,1.2-5.75,1.68-4.7,1.37-7.22,2.1a4,4,0,0,1-2.35,0L19.25,30.54l-.18-.06V28.62l.62.18,1.75.5,3,.89,16,4.68a6.31,6.31,0,0,0,3.69-.09l16-4.68,5-1.47h0V29C65.23,29.44,65.23,29.92,65.24,30.38ZM41.05,32.76q-8.65-2.53-17.31-5.1l-4-1.16.2-.06,6.41-1.87,14.5-4.24a4.23,4.23,0,0,1,2.49,0l14.49,4.24,6.7,2L53.73,29.7l-10.37,3A4,4,0,0,1,41.05,32.76Z"/><path d="M43.22,41.36a1.13,1.13,0,0,0-1.08-.94h0a1.15,1.15,0,0,0-1.07,1,3,3,0,0,0,0,.43v16c0,.65,0,1.29,0,1.94a1.21,1.21,0,0,0,.35.9,1.07,1.07,0,0,0,.75.28h0c.49,0,1.07-.27,1.07-1.41V41.83A2.53,2.53,0,0,0,43.22,41.36Z"/><path d="M24.05,35.33c-.75-.22-1.5-.44-2.25-.64a1.12,1.12,0,0,0-1.59,1.19v3a1.11,1.11,0,0,0,1.07,1.25h0a1,1,0,0,0,.72-.28,1.3,1.3,0,0,0,.36-.94V37.14l.15,0,.92.26a1.28,1.28,0,0,0,1-.11,1,1,0,0,0,.46-.63A1.1,1.1,0,0,0,24.05,35.33Z"/><path d="M51.12,24A8.39,8.39,0,0,0,48.81,23a25.84,25.84,0,0,0-12.76-.17,7.14,7.14,0,0,0-3.34,1.58,2.4,2.4,0,0,0-.85,1.81,2.26,2.26,0,0,0,.89,1.66A7.27,7.27,0,0,0,34.83,29a24.24,24.24,0,0,0,8.05,1.12h0l.89-.09c.94-.1,2.23-.23,3.49-.42a9.28,9.28,0,0,0,3.83-1.42,2.62,2.62,0,0,0,1.29-2.14A2.52,2.52,0,0,0,51.12,24ZM35.69,27a6.58,6.58,0,0,1-1.34-.65c-.23-.14-.29-.25-.28-.29s0-.11.26-.21a12,12,0,0,1,2.6-1,24.7,24.7,0,0,1,5.29-.58,22.58,22.58,0,0,1,6,.81,7.57,7.57,0,0,1,1.7.77c.21.13.27.22.27.25s0,.09-.28.28a7.36,7.36,0,0,1-3.17,1.13c-1.07.15-2.16.27-3.22.38L42.15,28A23.55,23.55,0,0,1,35.69,27Z"/></svg>