<svg id="Layer_1" data-name="Layer 1" xmlns="http://www.w3.org/2000/svg" viewBox="0 0 85.04 85.04"><path d="M74.53,30.28c-.64-1.79-2-2.63-4.12-2.63h0c-7.3,0-14.72,0-21.9,0H14.87a3.36,3.36,0,0,0-3.43,2.69,6.24,6.24,0,0,0-.07,1.36v.4a3.4,3.4,0,0,0,2.3,3.21c.22.07.44.11.67.16l.14,0v1.23c0,1.12,0,2.24,0,3.35a2.64,2.64,0,0,0,1.18,2.4.74.74,0,0,1,.07.33c0,.3-.05.59-.08.89a8.79,8.79,0,0,0-.05,1.7,35.36,35.36,0,0,0,.78,4,11.65,11.65,0,0,1,.42,4.43l-.12.91c-.16,1.06.39,1.91,1.69,2.6l3.25,0,.06,0c1.51-.93,1.74-1.43,1.5-3.3a9.79,9.79,0,0,1,.33-4.31,14.69,14.69,0,0,0,.72-6.91H38.67c0,.29,0,.59,0,.88a26.08,26.08,0,0,0,0,2.65,15.83,15.83,0,0,0,.65,3,11.55,11.55,0,0,1,.35,5.2c-.21,1.25.3,2.08,1.69,2.78l3,0,.11,0c1.52-.75,1.84-1.38,1.63-3.18a10.86,10.86,0,0,1,.41-4.73,13.86,13.86,0,0,0,.62-6.62H61.68l0,.18c0,.33-.07.66-.09,1a14.16,14.16,0,0,0,.67,5.15,11.07,11.07,0,0,1,.44,5.31,2.55,2.55,0,0,0,1.59,2.9l3.24,0,0,0c1.53-.81,1.83-1.38,1.59-3.07a14.28,14.28,0,0,1,.63-5.73,12,12,0,0,0,.38-6,.23.23,0,0,1,.06-.12A2.68,2.68,0,0,0,71.45,40c0-1,0-1.89,0-2.83V35.51a3.67,3.67,0,0,0,3.09-2.6l0-2.54Zm-8.08,22a10.86,10.86,0,0,0,0,1.89c0,.2,0,.4,0,.6h-1c0-.25,0-.51,0-.77a14.11,14.11,0,0,0-.06-2.34c-.14-1.08-.39-2.17-.63-3.22l-.3-1.39a8.25,8.25,0,0,1-.06-4.25H65c.8,0,1.64,0,2.42,0a.62.62,0,0,1,.18.26,9,9,0,0,1-.18,4.23l-.11.55C67,49.35,66.66,50.84,66.45,52.33Zm-23,1.46c0,.29.06.57.09.87l0,.18H42.32A14.47,14.47,0,0,0,42,49.08a30.2,30.2,0,0,1-.77-3.72,7.75,7.75,0,0,1,.11-1.91l0-.41a.51.51,0,0,1,.25-.18c.48,0,1,0,1.46,0h1.22c.21,0,.24,0,.32.29a9,9,0,0,1-.24,4.34c-.08.38-.17.75-.26,1.12A16.4,16.4,0,0,0,43.45,53.79ZM20.56,51.64A14.21,14.21,0,0,0,20.5,54l0,.83H19.35l.1-1.16A16.81,16.81,0,0,0,18.7,48l-.16-.62a8.86,8.86,0,0,1-.22-4.17c.07-.29.11-.35.39-.33.71,0,1.43,0,2.15,0h.67a8.22,8.22,0,0,1-.05,4.24c-.1.47-.2.93-.31,1.39C20.94,49.51,20.7,50.58,20.56,51.64ZM71.91,30.9a1.56,1.56,0,0,1-.07,1.53,1.07,1.07,0,0,1-.55.41,1.57,1.57,0,0,1-.59,0H15.33a1.35,1.35,0,0,1-1.24-2.17c.1-.19.44-.33.7-.44a.81.81,0,0,1,.36,0h55.4A1.53,1.53,0,0,1,71.91,30.9Zm-3.13,4.65v4.59H17.16V35.55Z"/></svg>