<svg id="Layer_1" data-name="Layer 1" xmlns="http://www.w3.org/2000/svg" viewBox="0 0 85.04 85.04"><path d="M52.3,19.67a11.64,11.64,0,0,1,3.87,6.57,24.11,24.11,0,0,1,.66,6.39c0,.14,0,.34.09.42a2.55,2.55,0,0,1,.52,2.68,3.83,3.83,0,0,1-2.16,2.85.55.55,0,0,0-.28.35,10.61,10.61,0,0,1-2.85,5.24.59.59,0,0,0-.18.65c.21.73.37,1.47.55,2.2,0,0,.09,0,.11,0a1.49,1.49,0,0,1,2,.18c1.31,1.12,3,1.48,4.52,2.05a9,9,0,0,1,6,6.21,6.88,6.88,0,0,1,.27,1.8c0,4.11,0,8.21,0,12.32,0,.38-.11.73-.48.82a.7.7,0,0,1-.66-.11,1,1,0,0,1-.25-.75c0-3.87,0-8.05-.05-11.92a7.19,7.19,0,0,0-4.51-6.81,2.72,2.72,0,0,0-.49-.21c-.28,1-.76,2.3-1,3.34a32.49,32.49,0,0,0-.7,7.09c0,2.8,0,5.59,0,8.39,0,.55.06.83-.48,1.06-.54.06-.9-.3-.9-.91,0-2.09,0-4.17,0-6.26s.07-4.3.22-6.44a22.87,22.87,0,0,1,1.24-5.84c.06-.19.27-.62.35-.85-.43-.14-.83-.3-1.24-.4-.12,0-.47.31-.57.41-.6.57-1.19,1.15-1.76,1.75a1.67,1.67,0,0,0-.33.65A27.47,27.47,0,0,1,46.68,64.3a.94.94,0,0,0-.23.6c0,1.5,0,3,0,4.52,0,.74-.24,1.07-.78,1.08s-.8-.34-.8-1.06c0-1.52,0-3,0-4.57a.82.82,0,0,0-.22-.55,27.87,27.87,0,0,1-7.19-11.59,3.32,3.32,0,0,0-.63-1c-.43-.5-1.11-1.22-1.56-1.71a.57.57,0,0,0-.73-.18c-.32.14-.65.22-1,.33.29,1,.77,2.34,1,3.36a29.16,29.16,0,0,1,.78,6.58c0,3.14,0,6.29,0,9.43,0,.65-.26,1-.77,1-.56-.15-.6-.34-.6-1,0-2.8,0-5.59,0-8.39a31.77,31.77,0,0,0-1.55-9.76c-.06-.2-.14-.4-.24-.65a7.69,7.69,0,0,0-4.52,4.41,8.32,8.32,0,0,0-.41,2.53c0,3.82,0,7.86,0,11.69,0,.15,0,.3,0,.44a.7.7,0,1,1-1.39.06,3.38,3.38,0,0,1,0-.45V57.9c0-3.89,1.93-6.55,5.33-8.23a17,17,0,0,1,2.7-1,6.61,6.61,0,0,0,2-1c.34-.26.73-.46,1.06-.73a1.16,1.16,0,0,1,1.5-.09c.1.06.21.09.34.15.2-.81.41-1.59.59-2.37a.57.57,0,0,0-.16-.46,10.54,10.54,0,0,1-2.9-5.32.66.66,0,0,0-.33-.37A4.24,4.24,0,0,1,33.84,34a1.34,1.34,0,0,1,.33-.65,1.16,1.16,0,0,0,.37-1,16,16,0,0,1,.36-4.63,7,7,0,0,1,6-5.4,29.16,29.16,0,0,1,3.75-.22,18.31,18.31,0,0,0,4.42-.48,4.11,4.11,0,0,0,2.22-1.49,2.71,2.71,0,0,1,.42-.41ZM39.84,29.35A10.32,10.32,0,0,1,37.58,34a.47.47,0,0,0-.12.27,25.85,25.85,0,0,0,.18,4.23c.67,3.38,2.87,5.6,5.89,7.06A4.42,4.42,0,0,0,46.8,46a10.12,10.12,0,0,0,6.43-5.87,12.49,12.49,0,0,0,.64-4.62,7.06,7.06,0,0,0-1-3.64,1.79,1.79,0,0,0-1.39-1.08c-1.64-.21-3.27-.44-4.91-.59A40.77,40.77,0,0,1,39.84,29.35Zm12.41-7.86a5.55,5.55,0,0,1-3.2,1.65c-1.46.2-2.94.28-4.4.39-1.19.09-2.39,0-3.56.23a5.47,5.47,0,0,0-4.88,4.46,26.83,26.83,0,0,0-.33,4.4c0,.12.21.32.36.36a.53.53,0,0,0,.45-.17,7.58,7.58,0,0,0,1.61-4.26c0-.84.6-1.14,1.36-.76a3.4,3.4,0,0,0,.9.34c1.23.19,2.45.38,3.68.51,2.26.23,4.53.39,6.79.63a4,4,0,0,1,3.57,2.61,4.91,4.91,0,0,0,.33.74,1.6,1.6,0,0,0,.33.3c.06-.14.18-.27.19-.41a20.76,20.76,0,0,0-1-7.26A9.87,9.87,0,0,0,52.25,21.49ZM39.6,54.2a20.57,20.57,0,0,0,6.08,9.17,20.32,20.32,0,0,0,6.06-9.19c-.72.52-1.32,1.47-1.87.8L47.43,52a2.83,2.83,0,0,0-.92,2.58c0,1.6,0,3.2,0,4.8,0,.66-.29,1-.83,1s-.85-.34-.85-1c0-1.69-.06-3.38,0-5.06a3.14,3.14,0,0,0-1-2.33l-2.38,2.89C40.92,55.66,40.46,54.83,39.6,54.2Zm6.06-2.66c.16-.23.3-.4.4-.58a3.19,3.19,0,0,1,1.62-1.45c1.14-.52,2.25-1.11,3.39-1.68l-.58-2.24C47.23,48.1,44,48,40.8,45.56l-.56,2.27c1,.49,1.9,1,2.87,1.42a4.33,4.33,0,0,1,2.36,2A1.37,1.37,0,0,0,45.66,51.54ZM41,53.66l2.2-2.74-5.46-2.73a.5.5,0,0,0-.36,0c-.39.24-.76.5-1.1.73Zm9.31,0L55,49c-1.09-.92-1.09-.92-2.35-.28L52,49l-3.89,2ZM35.49,34.27a2.26,2.26,0,0,0,.57,2.31s0,0,0-.07c0-.53,0-1,0-1.58S36,34.24,35.49,34.27Zm19.69,2.3a2.15,2.15,0,0,0,.63-2.3c-.47,0-.68.16-.64.66S55.18,36,55.18,36.57Z"/><path d="M22.91,19.67a1.09,1.09,0,0,1,.51,1q0,23.9,0,47.79A2,2,0,0,1,19.5,69a2.32,2.32,0,0,1-.06-.59q0-23.89,0-47.79a1.1,1.1,0,0,1,.5-1ZM21.79,47.45v-23h-.74v23ZM21,49.07v.59q0,9.2,0,18.4c0,.34-.11.81.39.82s.4-.47.4-.8v-19Zm.75-26.24V21.28h-.73v1.55Z"/><path d="M29,29.2a4,4,0,1,1-4,3.95A3.95,3.95,0,0,1,29,29.2Zm0,1.59a2.38,2.38,0,1,0,2.37,2.37A2.42,2.42,0,0,0,29,30.79Z"/><path d="M29,46.67a4,4,0,1,1,4-4A3.95,3.95,0,0,1,29,46.67Zm-2.39-4A2.38,2.38,0,1,0,29,40.32,2.42,2.42,0,0,0,26.59,42.69Z"/><path d="M47.6,26.81c-.14,0-.27,0-.4,0a.79.79,0,0,1,0-1.58A15.55,15.55,0,0,0,48.86,25a2.75,2.75,0,0,0,1.69-1,.78.78,0,0,1,1.14-.19A.8.8,0,0,1,51.83,25a4.51,4.51,0,0,1-3.1,1.75c-.37.07-.75.09-1.13.14Z"/><path d="M27.38,32.93a1.55,1.55,0,0,1,1.54-1.35.76.76,0,0,1,.82.62.78.78,0,0,1-.48.93.87.87,0,0,0-.33.33A.8.8,0,0,1,28,34C27.58,33.85,27.38,33.56,27.38,32.93Z"/><path d="M28.79,41.11c.56,0,.86.2.95.62a.78.78,0,0,1-.47.93.83.83,0,0,0-.34.33.79.79,0,0,1-.92.49.75.75,0,0,1-.63-.82A1.57,1.57,0,0,1,28.79,41.11Z"/></svg>