<svg id="Layer_1" data-name="Layer 1" xmlns="http://www.w3.org/2000/svg" viewBox="0 0 85.04 85.04"><path d="M63,27.6c-3.71,0-7,0-10.11,0a1.39,1.39,0,0,0-1.06.59,1,1,0,0,0-.06,1.07,1.3,1.3,0,0,0,1.17.63H59.4l-.23.79H42.8l-.23-.79H49A1.51,1.51,0,0,0,50,29.53a1.08,1.08,0,0,0,.3-.8c0-.69-.55-1.13-1.36-1.13H44.8q-14.61,0-29.21,0A3.54,3.54,0,0,0,12,31.13V64.57a3.55,3.55,0,0,0,3.54,3.55H62.83a3.53,3.53,0,0,0,3.32-2.33l.21-.53,0-34.67-.22-.67A3.56,3.56,0,0,0,63,27.6ZM59.4,65.78H42.58L42.8,65H59.17Zm.47-3.38a.5.5,0,0,1-.57.27q-8.32,0-16.64,0c-.3,0-.39,0-.54-.25a3.53,3.53,0,0,0-2.88-1.51h0a3.52,3.52,0,0,0-2.88,1.48.59.59,0,0,1-.59.28H30a1.2,1.2,0,0,0-1.36,1.13,1,1,0,0,0,.3.8A1.43,1.43,0,0,0,30,65h5.62l.22.79H19l.23-.79H26a1.33,1.33,0,0,0,1-.37,1.11,1.11,0,0,0,.32-.8A1.19,1.19,0,0,0,26,62.66H19c-.23,0-.27,0-.36-.17a2.4,2.4,0,0,0-.81-.84c-.29-.15-.33-.31-.33-.78,0-3.14,0-6.27,0-9.41V45.65a1.24,1.24,0,0,0-.74-1.28,1.15,1.15,0,0,0-1.05.09,1.18,1.18,0,0,0-.52.95,8.42,8.42,0,0,0,0,.87V60.93l-.8.23V34.55l.8.23v6.83c0,.81.46,1.35,1.15,1.35a1,1,0,0,0,.79-.3,1.39,1.39,0,0,0,.38-1v-6c0-.15,0-.29,0-.44-.06-.68,0-1,.47-1.22a1.07,1.07,0,0,0,.51-.52c.15-.32.33-.35.89-.38q8.25,0,16.49,0h0a.4.4,0,0,1,.4.2,3.52,3.52,0,0,0,2.94,1.56h0a3.56,3.56,0,0,0,2.95-1.56c.12-.17.2-.21.36-.2q8.46,0,16.91,0c.22,0,.28,0,.36.16a2.41,2.41,0,0,0,.81.85c.29.15.33.31.33.78q0,13.08,0,26.16c0,.38,0,.49-.27.61A2.21,2.21,0,0,0,59.87,62.4Zm-44.21.87h0a1.27,1.27,0,0,1,1.26,1.25,1.31,1.31,0,0,1-1.26,1.28,1.2,1.2,0,0,1-.89-.39,1.24,1.24,0,0,1-.38-.9A1.27,1.27,0,0,1,15.66,63.27Zm0-30.82h0a1.29,1.29,0,0,1-1.26-1.26,1.31,1.31,0,0,1,1.27-1.27h0a1.26,1.26,0,0,1,.9.39,1.24,1.24,0,0,1,.37.91A1.26,1.26,0,0,1,15.66,32.45ZM19,30H35.84l-.21.76H19.25Zm20.18,2.5h0a1.3,1.3,0,0,1-.89-.39,1.22,1.22,0,0,1-.36-.87,1.31,1.31,0,0,1,1.27-1.27h0a1.23,1.23,0,0,1,.9.4,1.22,1.22,0,0,1,.37.9A1.28,1.28,0,0,1,39.21,32.45ZM64,34.56v26.6l-.75-.22V34.77Zm-1.27-2.11a1.28,1.28,0,0,1-1.26-1.26,1.3,1.3,0,0,1,1.26-1.27h0A1.32,1.32,0,0,1,64,31.21,1.22,1.22,0,0,1,62.75,32.45Zm0,30.82h0A1.27,1.27,0,0,1,64,64.53a1.33,1.33,0,0,1-1.26,1.27h0a1.27,1.27,0,0,1-.89-.4,1.24,1.24,0,0,1-.38-.9A1.28,1.28,0,0,1,62.76,63.27Zm-23.55,0h0a1.27,1.27,0,0,1,1.26,1.25,1.32,1.32,0,0,1-1.26,1.28h0a1.23,1.23,0,0,1-.88-.39,1.25,1.25,0,0,1-.39-.9A1.27,1.27,0,0,1,39.21,63.27Z"/><path d="M55.39,47.87a2.82,2.82,0,0,0,0-3.72,2.66,2.66,0,0,0-.53-4c-1.46-.89-3-.33-4,1.5a2.69,2.69,0,0,0-3.17,1.83,2.73,2.73,0,0,0-3.19,1.81c-2,0-3.24.95-3.28,2.58s1.15,2.59,3.07,2.66A8.14,8.14,0,0,0,45.77,52a8.17,8.17,0,0,0,2,.52c.6,1.28,1,1.52,3.13,1.7a2.66,2.66,0,1,0,4.47-2.64A2.73,2.73,0,0,0,55.39,47.87Zm-11.49,1a1,1,0,0,1-1-1.06,1,1,0,1,1,1,1.06ZM47.07,45a1,1,0,1,1-1,1A1,1,0,0,1,47.07,45Zm0,5.72a1,1,0,1,1,1-1A1,1,0,0,1,47.08,50.72Zm3.19-7.58a1,1,0,0,1,1,1,1,1,0,0,1-1,1,1,1,0,0,1-1-1.08A1,1,0,0,1,50.27,43.14Zm1,4.67a1,1,0,0,1-1,1.09,1,1,0,1,1,1-1.09Zm-1,4.76a1,1,0,0,1-1-1,1,1,0,0,1,1-1.06,1,1,0,0,1,1,1.06A1,1,0,0,1,50.25,52.57Zm3.22-11.28a1.08,1.08,0,0,1,1,1.05,1,1,0,0,1-1,1,1,1,0,0,1-1.05-1A1.09,1.09,0,0,1,53.47,41.29Zm0,3.7a1,1,0,0,1,1.06,1,1,1,0,0,1-1,1,1,1,0,1,1,0-2Zm0,9.44a1.09,1.09,0,0,1-1.08-1,1.06,1.06,0,0,1,1-1,1,1,0,0,1,1.05,1A1.07,1.07,0,0,1,53.48,54.43Zm0-3.71a1,1,0,1,1-.05-2,1,1,0,1,1,.05,2Z"/><path d="M25,45.24a2.62,2.62,0,1,0,2.59,2.64A2.6,2.6,0,0,0,25,45.24ZM25,48.9a1.07,1.07,0,0,1-1-1.06,1.09,1.09,0,0,1,1.1-1A1,1,0,0,1,25,48.9Z"/><path d="M63.57,16.48a1,1,0,1,0-1.41,1.41l1.37,1.38H18.89c-1.46,0-2.92,0-4.38,0l1.34-1.34a1,1,0,0,0-1.41-1.41l-3.08,3.08a1,1,0,0,0,0,1.41l3.08,3.09a1,1,0,0,0,1.41,0,1,1,0,0,0,0-1.42l-1.37-1.37H58.54c1.65,0,3.31.05,5,0l-1.34,1.34a1,1,0,1,0,1.41,1.42L66.65,21a1,1,0,0,0,0-1.41Z"/><path d="M76.15,65.06a1,1,0,0,0-1.42,0l-1.37,1.37V30.38l1.37,1.38a1,1,0,0,0,1.42-1.42l-3.08-3.08a1,1,0,0,0-1.42,0l-3.08,3.08A1,1,0,0,0,70,31.76l1.38-1.38V66.43L70,65.06a1,1,0,0,0-1.41,1.41l3.08,3.09a1,1,0,0,0,1.42,0l3.08-3.09A1,1,0,0,0,76.15,65.06Z"/></svg>