<svg id="Layer_1" data-name="Layer 1" xmlns="http://www.w3.org/2000/svg" viewBox="0 0 85.04 85.04"><path d="M62.58,54.85a.54.54,0,0,1-.14-.24l-.33-1.82c-.36-1.94-.73-3.95-1-5.93a49.63,49.63,0,0,1-.33-10.94c.24-3.22-1.18-7.3-6-8.19a24,24,0,0,0-4-.29c-.58,0-1.16,0-1.74-.05h-.58V26.28h.95a3.78,3.78,0,0,0,2.93-1.15,3.87,3.87,0,0,0,.85-3.07c-.25-2.33-.49-4.67-.72-7A3.4,3.4,0,0,0,49.18,12c-4,0-8,0-12,0a3.4,3.4,0,0,0-3.27,3.1c-.23,2.31-.46,4.62-.71,6.93A3.9,3.9,0,0,0,34,25.1a3.89,3.89,0,0,0,3,1.18h.92v1.11h-.41c-.52,0-1.05,0-1.57,0-1.17,0-2.39,0-3.58.15a7.14,7.14,0,0,0-6.58,6.16,13.32,13.32,0,0,0-.06,2.89c0,.27,0,.54,0,.81a68.37,68.37,0,0,1-1.78,17,.58.58,0,0,1-.4.48,6.27,6.27,0,0,0-3.5,4.17,10.5,10.5,0,0,0,.12,5.18,10.08,10.08,0,0,0,9.89,8.24c1.39,0,2.76,0,4.15,0H45.88c3.52,0,7.09,0,10.61-.06a9.46,9.46,0,0,0,8-4.33,12.25,12.25,0,0,0,2-6.6A6.59,6.59,0,0,0,62.58,54.85ZM43.18,23.76H36.89a1.37,1.37,0,0,1-1-.33,1.37,1.37,0,0,1-.21-1.07q.36-3.41.7-6.81c.08-.82.39-1.11,1.17-1.11h11.3c.75,0,1.07.3,1.15,1.07q.34,3.44.7,6.87a1.29,1.29,0,0,1-.22,1.05,1.24,1.24,0,0,1-.95.32H43.18Zm2.7,2.58v1H40.49v-1ZM53.69,59.7V70h-21V59.7ZM30.14,70a7.47,7.47,0,0,1-7.46-6.19,8.56,8.56,0,0,1-.15-4,3.84,3.84,0,0,1,2-2.55A3.35,3.35,0,0,1,26,56.94a4,4,0,0,1,1.67.37,11.61,11.61,0,0,1,1.86,1.14l.52.37a.4.4,0,0,1,.13.25c0,3.4,0,6.8,0,10.21ZM28.23,36.77v-.24a10.14,10.14,0,0,1,.08-2.65c.52-2.33,1.87-3.45,4.64-3.86a1.87,1.87,0,0,1,.34,0V57.12a2.52,2.52,0,0,1-2.08-.54,8.63,8.63,0,0,0-4.62-2.17l.13-.7c.17-.81.33-1.61.47-2.42A63.5,63.5,0,0,0,28.23,36.77ZM35.85,40V29.94H50.52V40Zm14.67,2.59V57.08H35.87V42.63Zm9.32,11.8a9.8,9.8,0,0,0-4.59,2.07,2.15,2.15,0,0,1-2.15.63V30a6.73,6.73,0,0,1,2.77.78,4.64,4.64,0,0,1,2.38,4.13,13,13,0,0,1,0,1.86c0,.31-.05.62-.06.93A65,65,0,0,0,59.84,54.43Zm-3.62,4.91c0-.39.12-.55.31-.66l.73-.47a11.33,11.33,0,0,1,1.6-.92,3.88,3.88,0,0,1,1.61-.37,3,3,0,0,1,1.32.29,3.91,3.91,0,0,1,2,2.43c.84,2.87-.43,8.07-4.33,9.7a8.57,8.57,0,0,1-3.24.72V67.25Q56.23,63.29,56.22,59.34Z"/></svg>