<svg id="Layer_1" data-name="Layer 1" xmlns="http://www.w3.org/2000/svg" viewBox="0 0 85.04 85.04"><defs><style>.cls-1{fill:#1d1d1b;}</style></defs><path class="cls-1" d="M68.82,49.73V48.28a2,2,0,0,0-.72-1.54.74.74,0,0,1-.21-.47,10,10,0,0,0-1.44-5.89C65.18,38,64,35.55,62.82,33.17c-.31-.64-.62-1.28-.94-1.92a1.12,1.12,0,0,1-.06-.74,6.68,6.68,0,0,0,.12-4.12c-.37-1.28-.74-2.56-1.1-3.85C60.41,21,60,19.48,59.52,18a6.41,6.41,0,0,0-6.36-4.74H31.3A6.42,6.42,0,0,0,24.94,18c-.86,3-1.72,6-2.46,8.6a6.15,6.15,0,0,0,.15,3.84,1,1,0,0,1-.05.91C22,32.55,21.34,33.79,20.73,35c-1,2.06-2.08,4.19-3.16,6.27a7.53,7.53,0,0,0-1,4.27c.06.62.06,1.09-.46,1.47a1.47,1.47,0,0,0-.44,1.06c0,1.65-.06,3.82,0,6a2.14,2.14,0,0,0,.6,1.27,1,1,0,0,1,.31.81v.43A10.22,10.22,0,0,0,17,60.42a8.68,8.68,0,0,0,7,5.89l.14,0,0,2.48a3,3,0,0,0,2.12,3.12l0,0,.05,0,0,0h5.13a3.26,3.26,0,0,0,2.37-3.62c0-.46,0-.92,0-1.41,0-.18,0-.37,0-.56H50.59c0,.18,0,.36,0,.54,0,.47,0,1,0,1.43A3.26,3.26,0,0,0,53,72h5.13a3.12,3.12,0,0,0,2.24-2.94c0-.53,0-1.07,0-1.6V66.33a8.71,8.71,0,0,0,5.57-3.09,8.37,8.37,0,0,0,2-5.38V56.61a1.44,1.44,0,0,1,.49-1.42A1.65,1.65,0,0,0,68.8,54C68.83,52.58,68.83,51.13,68.82,49.73Zm-8.3-16.28h0l.21.4c.41.82.82,1.65,1.22,2.47.95,1.92,1.92,3.91,3,5.83a6.77,6.77,0,0,1,.75,4.09H62.19a7.19,7.19,0,0,0-.81-3.85c-.69-1.49-1.4-3.09-2.23-5a1.08,1.08,0,0,1,0-.73c.33-.81.69-1.6,1.07-2.44Zm-26.79,13h0a4.2,4.2,0,0,1,2.85.89A3,3,0,0,1,37.33,50H30.12a3.15,3.15,0,0,1,.75-2.68A4.25,4.25,0,0,1,33.73,46.45ZM32,43.6a.79.79,0,0,1,.7-.82c.36,0,.71,0,1.06,0s.7,0,1,0a.81.81,0,0,1,.52.26.87.87,0,0,1,.18.6.79.79,0,0,1-.81.72H32.79A.79.79,0,0,1,32,43.6Zm.55,8.63h6c5.7,0,11.6,0,17.4,0h0a1.66,1.66,0,0,1,1.37.7,2.05,2.05,0,0,1,.2,2.14,4.4,4.4,0,0,1-3.44,3.4,5.48,5.48,0,0,1-1.09.08H39c-2.47,0-5,0-7.55,0h-.1a4.58,4.58,0,0,1-4.47-3.4,2.3,2.3,0,0,1,.41-2.43,1.24,1.24,0,0,1,1-.51h0C29.74,52.24,31.16,52.23,32.53,52.23Zm17.73-5.7h1.42a2.71,2.71,0,0,1,2.69,2.79v.74H47.14a3.3,3.3,0,0,1,.63-2.6A3.21,3.21,0,0,1,50.26,46.53ZM49,43.6a.78.78,0,0,1,.69-.82,14.58,14.58,0,0,1,2.09,0,.79.79,0,0,1-.1,1.58H49.81A.78.78,0,0,1,49,43.6Zm7.56,6.28a4.94,4.94,0,0,0-2.24-4.71l.12-.51a5.32,5.32,0,0,0,.19-1.22,2.87,2.87,0,0,0-2.71-2.82,10.34,10.34,0,0,0-2.36,0,3,3,0,0,0-2.36,1.5,3.07,3.07,0,0,0,0,2.86l.07.14A5,5,0,0,0,44.94,50H39.53a5,5,0,0,0-2.21-4.84l.12-.55a5.05,5.05,0,0,0,.18-1.32,2.81,2.81,0,0,0-2.49-2.65,11.16,11.16,0,0,0-2.7,0,2.94,2.94,0,0,0-2.24,1.47,3,3,0,0,0-.07,2.77l.09.21c-2,1.74-2.08,2-2.3,4.81L25.79,51l-.1-.33c-.11-.36-.22-.77-.34-1.17l-.27-.95c-.16-.58-.32-1.16-.49-1.74a3.57,3.57,0,0,1,0-2.44c.56-1.38,1.17-2.75,1.76-4.07L27,38.82l.7.06c.54,0,1.05.09,1.56.09H55.68a9.73,9.73,0,0,0,1.17-.1l.53-.06c.22.47.43.95.65,1.42.61,1.33,1.24,2.71,1.77,4.09a3.84,3.84,0,0,1,.14,2.11c-.24,1.14-.57,2.28-.89,3.37-.11.39-.23.78-.34,1.17Zm-10-34.45c0,.24-.07.47-.11.71-.1.63-.2,1.27-.32,1.9-.14.81-.14.81-1,.81H43.55c-1.54,0-3.14,0-4.71,0h0c-.32,0-.42-.09-.47-.43-.1-.73-.22-1.45-.34-2.21,0-.26-.09-.52-.14-.79Zm-22,11.47q.71-2.41,1.39-4.85c.33-1.14.65-2.29,1-3.43a4.24,4.24,0,0,1,4.26-3.24h1.6c.8,0,1.6,0,2.4,0,.35,0,.44.07.46.38a6.35,6.35,0,0,0,.14.93c0,.1,0,.2,0,.31H31.42a2.94,2.94,0,0,0-2.89,2.15l-.06.21C27.72,22,27,24.77,26.28,27.5a3.46,3.46,0,0,0,.19,2c.51,1.19,1.12,2.36,1.72,3.49l.31.6a2.77,2.77,0,0,0,2.56,1.58H44.78l3.11,0a1.08,1.08,0,0,0,0-2.15H44.17c-4.17,0-8.48,0-12.72,0h0a1.18,1.18,0,0,1-1.21-.76c-.24-.52-.51-1-.76-1.54s-.64-1.25-.93-1.89a1.71,1.71,0,0,1-.11-1.06c.48-1.84,1-3.71,1.49-5.52.22-.78.43-1.56.64-2.34.14-.53.37-.75.74-.76,1.2,0,2.38,0,3.62,0h1.35l.32,1.8H47.88l.33-1.8h1.28c1.23,0,2.45,0,3.66,0a.74.74,0,0,1,.73.64c.75,2.75,1.49,5.45,2.2,8.14a1.32,1.32,0,0,1-.09.78c-.4.84-.82,1.69-1.24,2.5-.2.42-.41.83-.62,1.25a1,1,0,0,1-.88.55H51.68a1.05,1.05,0,1,0,0,2.1l2.3,0a2.53,2.53,0,0,0,2-1.49c.74-1.44,1.45-2.87,2.06-4.08a3,3,0,0,0,.17-2.1c-.82-3-1.55-5.72-2.24-8.19A2.94,2.94,0,0,0,53,17H48.55l.06-.28a5,5,0,0,0,.13-.84c0-.39.11-.49.54-.48.8,0,1.61,0,2.39,0h1.61a4.23,4.23,0,0,1,4.16,3.14c.44,1.5.86,3,1.29,4.51.38,1.33.75,2.66,1.14,4a4.25,4.25,0,0,1-.2,3c-.48,1.1-1,2.19-1.45,3.29S57.37,35.2,57,36.15a1,1,0,0,1-1,.66H28.55a1,1,0,0,1-1-.67c-.69-1.58-1.41-3.18-2.1-4.72l-.57-1.27A4.68,4.68,0,0,1,24.63,26.9Zm-5.3,15.7c1.09-2,2.12-4.14,3.13-6.18.42-.86.85-1.72,1.28-2.58.06-.13.12-.25.2-.39h0l.28.63c.42,1,.82,1.84,1.2,2.75a.72.72,0,0,1-.08.48l-1.68,3.78-.75,1.68a6.65,6.65,0,0,0-.64,3.48h-3.5V46A6.49,6.49,0,0,1,19.33,42.6Zm-1.5,9.65h.74a1.09,1.09,0,0,0,0-2.17h-.73V48.45h2.83c.59,0,1.2,0,1.8,0a.42.42,0,0,1,.42.33c.08.31.16.63.26,1l.09.32h-.83a1.08,1.08,0,0,0-1.08,1.08h0a1.09,1.09,0,0,0,1.09,1.09h1.1c.31,0,.4.07.45.35s.16.64.26,1l.08.26H17.83ZM31.68,69.17a.68.68,0,0,1-.74.69c-1.56,0-2.76,0-3.88,0a.7.7,0,0,1-.73-.75c0-.64,0-1.26,0-1.93,0-.24,0-.49,0-.74h5.36c0,.24,0,.49,0,.73C31.71,67.86,31.71,68.51,31.68,69.17Zm26.4.17a.94.94,0,0,1-.64.5c-1.25.06-2.52,0-3.76,0h-.16a.72.72,0,0,1-.74-.76c0-.63,0-1.26,0-1.92v-.75h5.35c0,.23,0,.46,0,.69C58.13,67.85,58.14,68.61,58.08,69.34ZM64.9,60.9A6.47,6.47,0,0,1,59,64.23H25.47a6.46,6.46,0,0,1-6.62-5.5,9.84,9.84,0,0,1-.05-1.89q0-.41,0-.81a1.18,1.18,0,0,1,.27,0h5.51c.28,0,.37.09.46.35a6.44,6.44,0,0,0,6.13,4.36H53.28a6.42,6.42,0,0,0,6.13-4.36.69.69,0,0,1,.25-.32c1.67,0,3.32,0,5,0h1A8.43,8.43,0,0,1,64.9,60.9Zm1.74-7.11H60.16c0-.09.05-.17.07-.26.1-.36.2-.74.33-1.1a.49.49,0,0,1,.35-.18h1.15a1.08,1.08,0,1,0,0-2.15h-.83l.08-.3c.12-.43.23-.83.36-1.22a.36.36,0,0,1,.23-.11h4.73V50h-.73a1.07,1.07,0,0,0-1.08,1.07v0a1.08,1.08,0,0,0,1.08,1.08h.75Z"/><path class="cls-1" d="M46.1,22.73h0a1,1,0,0,0-1.39,0L38.4,29a1,1,0,0,0,0,1.38v0a1,1,0,0,0,1.38,0l6.3-6.3A1,1,0,0,0,46.1,22.73Z"/><path class="cls-1" d="M48.89,25.57a1,1,0,0,0-1.38,0L45,28.09a1,1,0,0,0,0,1.38h0a1,1,0,0,0,1.38,0L48.89,27A1,1,0,0,0,48.89,25.57Z"/><path class="cls-1" d="M39.51,23.67h0a1,1,0,0,0-1.38,0L35.56,26.2a1,1,0,1,0,1.37,1.38L39.5,25A1,1,0,0,0,39.51,23.67Z"/></svg>