<svg id="Layer_1" data-name="Layer 1" xmlns="http://www.w3.org/2000/svg" viewBox="0 0 85.04 85.04"><path d="M42.65,72.46s0-.09-.07-.14l-1-2.08q-2.1-4.44-4.17-8.88a3.22,3.22,0,0,1-.26-1.07c-.07-.72-.11-1.44-.16-2.15,0-.29,0-.58,0-.88A31.27,31.27,0,0,1,37.19,51l0-.26A59.38,59.38,0,0,0,37.89,43a1.21,1.21,0,0,0-.63-1.18,3.1,3.1,0,0,1-1.38-1.7,11.67,11.67,0,0,1-.79-4c-.08-1.66-.09-3.36-.09-5v-.06a1.35,1.35,0,0,0-.69-1.32l-3.11,0-.07,0A1.26,1.26,0,0,0,30.41,31a6.74,6.74,0,0,1-1.08,3.64,3.4,3.4,0,0,1-2.9,1.77h0a3.43,3.43,0,0,1-2.89-1.77A6.83,6.83,0,0,1,22.44,31a1.23,1.23,0,0,0-.72-1.16l-3.14,0,0,0a1.28,1.28,0,0,0-.68,1.33c0,.33,0,.67,0,1s0,.37,0,.55a26.39,26.39,0,0,1-.43,6,4.52,4.52,0,0,1-2,3.34,1.07,1.07,0,0,0-.44.87c.07,1.58.17,3.45.34,5.36,0,.65.14,1.3.23,1.93a25.38,25.38,0,0,1,.29,2.75c.07,2.13,0,4.31-.08,6.44a5.63,5.63,0,0,1-.39,2.09c-1.27,2.79-2.6,5.6-3.88,8.32-.44.92-.88,1.84-1.31,2.77a1.23,1.23,0,0,0-.07,1.18,1.16,1.16,0,0,0,1,.49l.73,0c2.13.11,4.34.22,6.51.25s4.67,0,7.18,0H29.7c2.63,0,5.29-.08,7.87-.15l1.76,0c.92,0,1.81-.08,2.56-.15a1,1,0,0,0,.83-.47,1.08,1.08,0,0,0,.05-1ZM32.36,32.28a1.08,1.08,0,0,1,.12-.45c.05,0,.21,0,.45,0v.36a32.68,32.68,0,0,0,.5,7h-14a35.06,35.06,0,0,0,.49-7.37h.48c0,.17.07.34.11.5a12.82,12.82,0,0,0,.33,1.36,6.73,6.73,0,0,0,3.33,4.18,5.11,5.11,0,0,0,6.25-1.34A8.29,8.29,0,0,0,32.36,32.28Zm-.07,33.08c.07.85.16,1.7.24,2.56l.14,1.45.18,2.08.09,1H29.31l-.25-.8c-.22-.7-.45-1.4-.67-2.12S28,68.3,27.86,67.7s-.27-1-.42-1.42a1,1,0,0,0-1-.86h0a1,1,0,0,0-1,.86c-.41,1.35-.82,2.71-1.24,4.06l-.57,1.89a1.18,1.18,0,0,1-.07.2H19.91l.05-.52c0-.54.09-1.07.14-1.59l.17-1.81c.1-1.05.2-2.1.29-3.15a1,1,0,0,0-2-.54L17.1,67.51l-1.21,2.2L14.6,72.08a.34.34,0,0,1-.39.23l-1.28-.08-.31,0,.09-.21,1.12-2.39q1.68-3.56,3.35-7.13c.1-.23.19-.29.41-.29h3.32a1.22,1.22,0,0,0,.89-.31,1,1,0,0,0,.27-.71c0-.63-.44-1-1.17-1h-3c.05-2.63.09-5.23.13-7.88H35l-.11,2h-3a2.73,2.73,0,0,0-.68.07,1,1,0,0,0,0,1.94,4.31,4.31,0,0,0,.67.07h3l0,.41c0,.49.05,1,.08,1.43l0,.4c.05.76.1,1.55.18,2.32a3.28,3.28,0,0,0,.29,1C36.62,64.5,37.81,67,39,69.55L40.12,72c0,.08.07.16.11.26l-.31,0c-.48,0-.93.06-1.39.05a.55.55,0,0,1-.29-.26l-3.14-5.7L34.39,65a3.37,3.37,0,0,0-.19-.32A1,1,0,0,0,33,64.25,1,1,0,0,0,32.29,65.36Zm-5.86,4.75.73,2.36H25.69Zm8.92-21c0,.25-.06.5-.1.77,0,.1,0,.2,0,.3H17.64c0-.24-.06-.48-.1-.71-.08-.62-.17-1.26-.23-1.89-.13-1.39-.21-2.76-.27-3.93a.68.68,0,0,1,.18-.41l.58-.72c.25-.31.52-.63.76-1s.22-.26.42-.26H33.86c.22,0,.29.08.44.28s.5.65.75,1l.54.67c.19.26.23.4.22.47C35.68,45.48,35.51,47.32,35.35,49.1ZM18.06,70l-.21,2.33H16.78Zm18,2.34H35L34.79,70Z"/><path d="M23.57,60.16h0a1,1,0,0,0-.72.3,1,1,0,0,0-.29.73,1,1,0,0,0,1,1h0a1.05,1.05,0,0,0,.73-.28,1,1,0,0,0,.29-.72,1,1,0,0,0-.29-.73A1,1,0,0,0,23.57,60.16Z"/><path d="M28.9,54.3a1,1,0,0,0-1,1,1,1,0,0,0,.31.73,1,1,0,0,0,.71.29h0a1,1,0,0,0,.72-.31,1,1,0,0,0-.77-1.73Z"/><path d="M74.94,25.93l-.27-.78c-.36-1.08-.73-2.19-1.14-3.27a24.45,24.45,0,0,0-3.06-6,6.23,6.23,0,0,0-3.55-2.58l-3.25-.81c-.75-.19-1.49-.4-2.24-.6l-1-.28h-11l-.07,0a.18.18,0,0,1-.09,0l-1.5.39L43,13.26a5.53,5.53,0,0,0-2.67,1.5A12.82,12.82,0,0,0,38,18.15a48,48,0,0,0-3,7.69c-.3.95-.08,1.4.86,1.72l1.39.46c1.39.47,2.83.95,4.25,1.4.33.11.41.23.41.59q0,10.64,0,21.26v4c0,1.19.31,1.5,1.52,1.5H66.84l.24,0a1,1,0,0,0,.87-.81,5,5,0,0,0,0-.72q0-12.65,0-25.28c0-.3.07-.39.33-.47,1.75-.57,3.53-1.17,5.24-1.74l.57-.19a1.32,1.32,0,0,0,.82-.6A1.28,1.28,0,0,0,74.94,25.93Zm-2.22-.12L68,27.37V16.19l.3.37c.32.4.65.81.93,1.24A35.18,35.18,0,0,1,72.72,25.81ZM65.88,46.1v8.58H64.39V46.1Zm-9.94,3.36a1,1,0,0,0-1-1.08h0a1,1,0,0,0-1,1.08v5.22H47.57V46.1H62.28v8.58H55.94V53.06Q56,51.26,55.94,49.46ZM45.45,46.09v8.58H44V46.09Zm12-32.21-2.6,2.42L52.3,13.88ZM43.93,21.55V19.82c0-1.44,0-2.88,0-4.31,0-.28,0-.35.3-.42,1.67-.4,3.34-.83,5-1.25a.41.41,0,0,1,.49.16c1.53,1.59,2.95,3.06,4.36,4.49a1.26,1.26,0,0,0,.88.48,1.3,1.3,0,0,0,.9-.49c1.48-1.5,2.94-3,4.33-4.46a.49.49,0,0,1,.58-.16c1.69.44,3.38.86,5,1.25.21.05.25.07.25.24,0,1.61,0,3.21,0,4.82v1.61a.09.09,0,0,1,0,0h-22A2.53,2.53,0,0,1,43.93,21.55ZM61.45,39.42a1.05,1.05,0,0,0,1.15,1h3.28V44H44v-7H65.89V38.4H62.6A1.07,1.07,0,0,0,61.45,39.42Zm4.44-4.63H44V27.48h3.11a3.39,3.39,0,0,0,.45,0,1.08,1.08,0,0,0,.88-1.05,1,1,0,0,0-1-1H44V23.94H65.89ZM41.82,16.18V27.37L37.1,25.81c.13-.38.26-.75.4-1.13C38.59,21.56,39.63,18.62,41.82,16.18Z"/><path d="M49.86,27.48h0a1,1,0,0,0,.72-.31,1,1,0,0,0,.33-.72,1,1,0,0,0-.31-.71,1,1,0,0,0-.74-.31h0a1.07,1.07,0,0,0-.75.32,1,1,0,0,0-.28.72A1.06,1.06,0,0,0,49.86,27.48Z"/><path d="M60,38.4h0a1.09,1.09,0,0,0-.75.34,1,1,0,0,0-.28.72,1.06,1.06,0,0,0,1,1h0a1,1,0,0,0,1-1,1,1,0,0,0-.31-.71A1,1,0,0,0,60,38.4Z"/></svg>