<svg id="Layer_1" data-name="Layer 1" xmlns="http://www.w3.org/2000/svg" viewBox="0 0 85.04 85.04"><path d="M20.1,73.54c-.61-.48-1.25-.92-1.82-1.44-.75-.69-1.45-1.43-2.16-2.16a2.4,2.4,0,0,1-.06-3.54c1.23-1.27,2.49-2.51,3.75-3.75a.87.87,0,0,1,1.32-.11A.91.91,0,0,1,21,63.91c-1.17,1.19-2.36,2.36-3.54,3.55-.54.55-.55.81,0,1.35l2.65,2.64c.48.48.74.48,1.21,0,2.58-2.56,5.14-5.13,7.71-7.7.43-.43.42-.74,0-1.18q-1.36-1.38-2.73-2.73a.72.72,0,0,0-1.19,0c-.36.35-.7.72-1.06,1.06a.87.87,0,0,1-1.28.06.88.88,0,0,1,0-1.29c.41-.43.83-.85,1.27-1.25a2.23,2.23,0,0,1,2.4-.51.57.57,0,0,0,.76-.23,16,16,0,0,0,3.5-8c.8-4.76,1.64-9.51,2.55-14.25a17.77,17.77,0,0,1,2.43-5.87L36,29a8.29,8.29,0,0,1-2.73-4.46,8.1,8.1,0,0,1,.75-5.69.89.89,0,0,1,1.23-.5.9.9,0,0,1,.34,1.29c-.23.55-.45,1.12-.68,1.71a8.34,8.34,0,0,1,7.68,7.57,6,6,0,0,0,4.88-4.87c-4.34-.69-6.86-3.19-7.58-7.65l-1.26.42c-.2.07-.38.19-.57.27a.86.86,0,0,1-1.16-.43.82.82,0,0,1,.39-1.12,7.23,7.23,0,0,1,3.38-1,8.11,8.11,0,0,1,8.13,5l.12.2c1-.13,2-.29,2.95-.39A15.83,15.83,0,0,1,69.08,31.21,18.44,18.44,0,0,1,69.54,37a.93.93,0,0,1-.91,1,.9.9,0,0,1-.83-1.09,15.24,15.24,0,0,0-1.25-7.69,13.68,13.68,0,0,0-10.83-8,16,16,0,0,0-6.24.29v2c.79-.12,1.52-.26,2.25-.35a12.54,12.54,0,0,1,9.76,2.7,11.81,11.81,0,0,1,4.26,8.2c.87,8.08-5.48,16.56-14.22,18.12C47,53,43,52,39.72,48.58a11.8,11.8,0,0,1-3.24-8,16,16,0,0,1,2.73-9.52c.07-.11.13-.23.21-.36L37.51,30a14.69,14.69,0,0,0-2.18,4.57c-.51,2.06-.9,4.15-1.28,6.24-.68,3.65-1.26,7.33-2,11a15.36,15.36,0,0,1-3.48,7c-.1.11-.21.23-.3.35s0,.07-.05.13l1.45,1.36c.13-.1.32-.25.5-.41a17.77,17.77,0,0,1,8.65-3.74c4.72-.79,9.45-1.56,14.13-2.57a18.64,18.64,0,0,0,10.89-7.16A18.91,18.91,0,0,0,66.94,41c.15-.46.42-.85.94-.73a1.68,1.68,0,0,1,.78.63c.09.12,0,.41,0,.6-2.81,7.6-8,12.55-16,14.27-4.87,1-9.8,1.78-14.7,2.69A14.25,14.25,0,0,0,30.82,62,2.74,2.74,0,0,1,30,65.35c-2.28,2.21-4.49,4.48-6.75,6.7a22.31,22.31,0,0,1-1.85,1.49Zm41.6-45-4.52,4.52,3.38,3.38c1-1,2.06-2.07,3.08-3.13a.7.7,0,0,0,.12-.57A10,10,0,0,0,61.7,28.54ZM42,48.28a10.14,10.14,0,0,0,4.21,2.07.64.64,0,0,0,.53-.09c1.07-1,2.12-2.1,3.14-3.13l-3.36-3.36ZM55.77,31.66l4.53-4.53a9.93,9.93,0,0,0-4.31-2,.51.51,0,0,0-.4.09c-1.06,1-2.12,2.1-3.14,3.12ZM40.58,46.9l4.54-4.5L41.73,39c-1,1-2.08,2.09-3.12,3.16a.56.56,0,0,0-.1.4A9.8,9.8,0,0,0,40.58,46.9ZM54.49,33l-3.32-3.31-3.3,3.33,3.31,3.3ZM43.13,37.75,46.4,41l3.32-3.3-3.28-3.29Zm16,0-3.29-3.3-3.3,3.3,3.3,3.3ZM47.87,42.35l3.29,3.32,3.3-3.31-3.31-3.3Zm12.24,3a15,15,0,0,0,2.56-3.87.42.42,0,0,0-.07-.39c-.68-.72-1.38-1.42-2-2.06l-3.4,3.4Zm-7.69,1.81c.67.65,1.35,1.33,2,2a.5.5,0,0,0,.47.09,14.85,14.85,0,0,0,3.81-2.52l-2.94-2.94Zm-11.62-18c0-3.3-3.28-6.05-5.91-5.85A6.37,6.37,0,0,0,40.8,29.11Zm1-12.79a6.16,6.16,0,0,0,5.85,5.86A6.31,6.31,0,0,0,41.81,16.32ZM41.7,36.45,45.18,33l-2-2a1.89,1.89,0,0,0-1.79.09c-.6.93-1.17,1.88-1.73,2.84a.55.55,0,0,0,.08.49C40.38,35.11,41.05,35.78,41.7,36.45Zm3.14-6.35,1.57,1.62,3.34-3.39-1.39-1.46A8.38,8.38,0,0,1,44.84,30.1Zm18.61,9.3A8.5,8.5,0,0,0,64,35.63l-2.09,2.09ZM53.32,24.82v-.13l-3.86.62L51.12,27ZM49,50.58v.15l3.89-.59-1.74-1.72ZM40.4,37.73l-1.69-1.68-.6,4Z"/><path d="M34.73,55.13c-.66,0-1-.41-.9-1.15.18-1.14.4-2.26.61-3.39.14-.79.29-1.58.43-2.37a1,1,0,0,1,.77-.89.91.91,0,0,1,1,.53,13.64,13.64,0,0,0,4.49,4.45c.38.24.67.57.5,1a1.25,1.25,0,0,1-.73.7c-2,.4-4,.74-5.92,1.1Zm1.52-4.62-.49,2.66,2.61-.49Z"/></svg>