<svg id="Layer_1" data-name="Layer 1" xmlns="http://www.w3.org/2000/svg" viewBox="0 0 85.04 85.04"><path d="M20.6,25.57l2-8.52c.27-1.16.43-1.3,1.61-1.3H60.9c1.19,0,1.36.14,1.62,1.29.66,2.84,1.32,5.67,2,8.57h2a1.08,1.08,0,0,1,1.23,1.17c.07,3.14.15,6.27.21,9.41a1.48,1.48,0,0,1-.26,1,.91.91,0,0,0-.21,1q3.59,15.3,7.16,30.6c.27,1.17-.1,1.64-1.35,1.64H11.65c-1.09,0-1.5-.53-1.26-1.59.35-1.51.73-3,1.09-4.52Q14.6,51.1,17.73,38a1.92,1.92,0,0,0-.14-.76,3.16,3.16,0,0,1-.2-.79c0-3.2.05-6.4.09-9.6,0-.87.36-1.19,1.24-1.2H20.4Zm0,32.6L18.72,68.35H66.29c-.6-3.17-1.21-6.28-1.75-9.4-.11-.63-.31-.79-.93-.79q-21.12,0-42.24,0Zm3.93-20.44L21,56.07H41.48V37.73Zm36,0H43.62V56.07H64.07C62.89,49.93,61.73,43.84,60.56,37.75Zm-38.17,0c-.76,0-1.38,0-2,0-.47,0-.61.16-.72.6q-2.88,12.43-5.79,24.87c-.4,1.71-.79,3.43-1.2,5.23,1.29,0,2.51,0,3.74,0,.11,0,.27-.24.3-.39.53-2.75,1.05-5.51,1.56-8.26l3.33-17.8C21.87,40.55,22.12,39.18,22.39,37.7Zm40.24,0c0,.28.07.49.11.69q1.59,8.36,3.17,16.71,1.22,6.42,2.46,12.83c0,.17.21.44.32.45,1.22,0,2.45,0,3.72,0,0-.19,0-.3-.07-.4Q70,57.91,67.58,47.81c-.76-3.21-1.52-6.42-2.3-9.62,0-.18-.24-.46-.38-.46C64.17,37.68,63.44,37.7,62.63,37.7Zm-5.8-19.83H29a1,1,0,0,0-.39,0c-.14.07-.35.18-.38.31-.2.94-.37,1.88-.54,2.84H57.42Zm-30,7.7h14.7V23.16H27.25Zm31.54,0-.47-2.41H43.63v2.41ZM24.54,17.9l-1.79,7.67h2l1.49-7.67Zm35.84,7.69h2l-1.79-7.67H58.89Zm-25,7.15h-4v2.87h4ZM60,35.61V32.75H56v2.86ZM56,30.6H60V27.8H56Zm-26.77,5V32.73h-4v2.89Zm12.27,0V32.74h-4v2.89Zm6.14-2.9h-4v2.89h4Zm2.23,2.89h4V32.73h-4ZM31.31,27.7v2.81h4.06V27.7Zm22.49,0H49.74v2.81H53.8Zm-28.61,0v2.81h4V27.68ZM37.48,30.5h4V27.7h-4Zm6.15-2.81v2.82h4V27.69ZM62,30.6h3.6V27.8H62ZM19.46,32.73V35.6h3.59V32.73Zm42.69,2.88h3.6V32.72h-3.6Zm-39.1-5.09V27.71H19.48v2.81Z"/></svg>