<svg id="Layer_1" data-name="Layer 1" xmlns="http://www.w3.org/2000/svg" viewBox="0 0 85.04 85.04"><defs><style>.cls-1{fill:#1d1d1b;}</style></defs><path class="cls-1" d="M70.48,33c-.63,0-1.32,0-2.17,0a1.12,1.12,0,0,0-1.24,1.23v.35c0,.63,0,1.29,0,1.93a.52.52,0,0,1-.1.44.85.85,0,0,1-.63.14h-.1c-.93,0-.93,0-1-.76l0-.32v-.75c0-1.24,0-2.48,0-3.72v-.18a4.46,4.46,0,0,0,0-.64c-.07-.74-.79-.78-1.15-.8l-7.72,0c-.72,0-1.12,0-1.27-.16S55,29.17,55,28.46v0c0-.3,0-.36.31-.36h0c1.28,0,2.53,0,3.48,0a1.16,1.16,0,0,0,1.3-1.32c0-1.12,0-2.24,0-3.36V23a.89.89,0,0,0-.26-.77,1.06,1.06,0,0,0-1-.5H41.63a1.15,1.15,0,0,0-1.22,1.22c0,.67,0,1.35,0,2,0,.29,0,.57,0,.85v.29c0,.22,0,.44,0,.66a1.37,1.37,0,0,0,.35,1,1.45,1.45,0,0,0,1.1.3h3.62a3.1,3.1,0,0,1,0,.81,4.26,4.26,0,0,0,0,.62.46.46,0,0,1-.05.32.43.43,0,0,1-.32.07c-.44,0-.88,0-1.31,0l-.55,0H38.74l-.26,0a3.15,3.15,0,0,0-1.33.07c-1.61.54-3.15,1.12-4.56,1.71h-.05a.42.42,0,0,0-.15,0A11.56,11.56,0,0,1,26.48,33H25c-1.29,0-2.58,0-3.87,0a1.16,1.16,0,0,0-1.27,1.29c0,1.23,0,2.48,0,3.69,0,.5,0,1,0,1.51v.73l0,1.71a.38.38,0,0,0,0,.1s0,.14,0,.17c-.61,0-1.23,0-1.75,0,0,0,0-.06,0-.08s0-.09,0-.13V37.31c0-.31,0-.62,0-.93,0-.72,0-1.46,0-2.19A1.12,1.12,0,0,0,16.88,33c-1.32,0-2.65,0-4,0A1.13,1.13,0,0,0,11.7,34.2c0,2.11,0,4.22,0,6.33V54.85c0,.28,0,.57,0,.85,0,.62,0,1.27,0,1.9s.4,1.14,1.2,1.2h1.18c.93,0,1.89,0,2.83,0a1.09,1.09,0,0,0,1.17-1.18V49.92a.41.41,0,0,1,.06-.27.32.32,0,0,1,.25,0c.37,0,.74,0,1.11,0H20v-.13h0l.15,8.4H20a1,1,0,0,0,1.11,1h7.09a1.74,1.74,0,0,1,1.31.48l7.36,5.48a.82.82,0,0,0,.65.2H58.93a1.4,1.4,0,0,0,.93-.36l4.82-3.85a1.42,1.42,0,0,0,.59-1.12c0-.76,0-1.54,0-2.3,0-.3,0-.61,0-.92a2.21,2.21,0,0,0,0-.77c0-.44-.06-.72.15-.85a2,2,0,0,1,1.19-.08l.49,0v.77c0,.68,0,1.36,0,2a1.11,1.11,0,0,0,1.22,1.25c.7,0,1.43,0,2.1,0a3.18,3.18,0,0,0,1.79-.64,3.54,3.54,0,0,0,1.11-1.53l.15-.3V35.63A2.85,2.85,0,0,0,70.48,33ZM19.91,45c0,.2,0,.4,0,.6,0,.46,0,.94,0,1.42,0,.13,0,.21-.05.25s-.1,0-.21,0l-1.16,0h-.39c0-.2,0-.4,0-.6,0-.61,0-1.24,0-1.85a.41.41,0,0,1,.06-.27s.12,0,.25,0a4.59,4.59,0,0,0,1,0c.24,0,.39,0,.47.07A.54.54,0,0,1,19.91,45ZM14,43.38V39.85c0-1.36,0-2.76,0-4.15,0-.21,0-.32.07-.37s.15-.07.32-.07h.09c1.32,0,1.32,0,1.32,1.4,0,.52,0,1.05,0,1.58V53.17c0,.29,0,.58,0,.87,0,.7,0,1.43,0,2.15,0,.18,0,.27-.06.31s-.13,0-.26,0a7.12,7.12,0,0,0-.8,0l-.35,0a.34.34,0,0,1-.27-.05.46.46,0,0,1-.07-.34c0-.69,0-1.38,0-2.05,0-.28,0-.56,0-.83V43.38ZM42.7,24.47c0-.15,0-.29,0-.37s0-.14.14-.14H54.35l3.47,0c0,.55,0,1.47,0,1.8l-15.07,0C42.73,25.43,42.71,24.89,42.7,24.47Zm10,4.42c-.09.92-.09.92-1,1l-3.84,0V29.5c0-.37,0-.75,0-1.13a.37.37,0,0,1,0-.24.6.6,0,0,1,.29-.06c.49,0,1,0,1.48,0h1.1l1.08,0C52.66,28.08,52.66,28.08,52.73,28.89Zm18.76,6.37Zm-.31,5.84v1.61l0,12.55a1.37,1.37,0,0,1-.44,1.12,1.41,1.41,0,0,1-1.22.16c-.14,0-.13-.08-.13-.22V53.85a1.21,1.21,0,0,0-.7-1.26,15.23,15.23,0,0,0-3.43-.15q-.61,0-1.23,0a1.07,1.07,0,0,0-1,1.19c0,1,0,1.94,0,2.91v1.31c.17.89-.17,1.53-1.16,2.22a31.32,31.32,0,0,0-2.54,2,2,2,0,0,1-1.46.59H38.25a1.38,1.38,0,0,1-.92-.38l-6.24-4.69-.31-.24a3.69,3.69,0,0,0-1.11-.73,1.42,1.42,0,0,0-.87-.14h-.24c-.8,0-1.59,0-2.38,0H24.54c-.69,0-1.38,0-2.05,0h0a.42.42,0,0,1-.28-.06.3.3,0,0,1,0-.19V38c0-.23,0-.45,0-.68,0-.54,0-1.1,0-1.64,0-.2,0-.32.07-.38s.19-.08.4-.07c.53,0,1.07,0,1.59,0h4.91a2.1,2.1,0,0,0,1.1-.33c2.08-.72,4.32-1.55,6.84-2.56a5.27,5.27,0,0,1,2.06-.19c.32,0,.65,0,1,0s.75,0,1.12,0h.49l20.87,0h0c.26,0,.34,0,.35.21v5a2.09,2.09,0,0,0,0,.25,4,4,0,0,0,0,.6,1.06,1.06,0,0,0,1.08,1.07c1.4,0,2.79,0,4.14,0a1.15,1.15,0,0,0,1.15-1.28c0-.73,0-1.59,0-2.47a.48.48,0,0,1,0-.28.61.61,0,0,1,.3-.06,1.49,1.49,0,0,1,1.34.45,3.07,3.07,0,0,1,.12.94C71.17,38.13,71.17,39.62,71.18,41.1Z"/><path class="cls-1" d="M53.62,42.2l-.42,0h-.78c-.46,0-.94,0-1.4,0-.23,0-.26,0-.26,0s0-.05.1-.25.25-.44.36-.65l.14-.28.73-1.25c.57-1,1.16-2,1.71-3a1.16,1.16,0,0,0,.05-1.11A1.11,1.11,0,0,0,53,35a1.93,1.93,0,0,0-.48,0H44.68a1.12,1.12,0,0,0-1.15.84c-.16.56-.34,1.11-.51,1.67-.37,1.17-.75,2.38-1,3.59l-.41,1.32c-.37,1.22-.75,2.43-1.11,3.64a.76.76,0,0,0,0,.67,1,1,0,0,0,1.13.8h2a.32.32,0,0,1,.17,0s0,0,0,.07c-1.05,2.17-2.09,4.46-3.1,6.81l-.19.39-.46,1-.15.33a9.92,9.92,0,0,0-.49,1.1A1.12,1.12,0,0,0,40,58.67a1.18,1.18,0,0,0,.58.16,1.26,1.26,0,0,0,.88-.41l.33-.35,10-10.73,1-1.08,1.81-1.95a1.26,1.26,0,0,0,.36-1.44A1.17,1.17,0,0,0,53.62,42.2Zm-8.5,8.11,1.57-3.42a1,1,0,0,0-.32-1.32A1.94,1.94,0,0,0,45,45.25h-.58a6,6,0,0,0-.85,0c-.3,0-.41,0-.44-.06s0-.2,0-.4c.61-1.81,1.19-3.74,1.77-5.89l.11-.33c.08-.25.17-.5.23-.77.1-.45.28-.58.67-.51a1.61,1.61,0,0,0,.49,0l.19,0h4.07a.4.4,0,0,1,.12,0,.49.49,0,0,1-.07.11.59.59,0,0,1,0,.08L49.86,39C49.3,40,48.72,41,48.18,42l-.18.29a1.53,1.53,0,0,0-.27,1.62,1.31,1.31,0,0,0,1.27.65h.85a12,12,0,0,1,1.34,0L50,45.79l-5.29,5.7c-.06.06-.13.14-.18.18l0-.06Z"/></svg>