<svg id="Layer_1" data-name="Layer 1" xmlns="http://www.w3.org/2000/svg" viewBox="0 0 85.04 85.04"><path d="M72.94,53.84c.12-2.31-1-3.88-3.45-4.65A4.48,4.48,0,0,0,67,42.44c.06-.22.13-.44.21-.65a6.72,6.72,0,0,0,.41-1.66,4.29,4.29,0,0,0-1.15-3.24,4.62,4.62,0,0,0-3.37-1.44q-6.57,0-13.13,0H44.12v-.61c0-.54,0-1.05,0-1.55v0a5.74,5.74,0,0,0-.1-1.09,4.49,4.49,0,0,0-4.69-3.53H25.93c-.24,0-.5,0-.74,0A1.48,1.48,0,0,1,25,25.68a4.42,4.42,0,0,1,.78-.06c5.25,0,10.5,0,15.74,0h3.74v.75a2.4,2.4,0,0,0,2.43,2.54c1.68,0,3.49,0,5.68,0a2.23,2.23,0,0,0,2.26-1.59c.14-.44.36-.54.82-.62l4.74-.86L68,24.59a1.06,1.06,0,0,0,1.3.76c.7-.18.78-.76.77-1.3,0-.23,0-.45,0-.68v-1.8c0-1.15,0-2.34,0-3.51a1.17,1.17,0,0,0-.57-1,.94.94,0,0,0-1,0,1.73,1.73,0,0,0-.43.46l-.14.18-1.12-.2-2.3-.41-1.31-.24c-2.29-.41-4.67-.84-7-1.29a.79.79,0,0,1-.51-.39,2.41,2.41,0,0,0-2.33-1.77c-2.25,0-4.08,0-5.74,0A2.39,2.39,0,0,0,45.24,16v.72H25.73a14.23,14.23,0,0,0-2.19.15,10.37,10.37,0,0,0-6.31,16.87,16.45,16.45,0,0,0,1.85,1.79c.26.22.52.44.77.67-2.19,1.65-2.54,3.36-1.28,6.22A4.49,4.49,0,0,0,16,49.19a4.39,4.39,0,0,0-3.45,4.49c0,2,1.17,3.42,3.43,4.24a5.47,5.47,0,0,0-.39,4.23,5.17,5.17,0,0,0,3,2.57,4.39,4.39,0,0,0,.35,5.41,4.74,4.74,0,0,0,3.82,1.56H62.89a4.55,4.55,0,0,0,3.73-1.62c1.29-1.56,1.38-3.26.29-5.35A4.55,4.55,0,0,0,70,62a4.43,4.43,0,0,0-.45-4A4.31,4.31,0,0,0,72.94,53.84ZM21.75,26.26a3.58,3.58,0,0,0,.63,3.07A3.35,3.35,0,0,0,25,30.69c3.22,0,6.48,0,9.65,0h4.75A2.33,2.33,0,0,1,42,32.81c0,.6,0,1.21,0,1.85,0,.25,0,.52,0,.78H36.65q-5.67,0-11.34,0a8.32,8.32,0,0,1-8.21-6.52,8.22,8.22,0,0,1,1.58-7,7.92,7.92,0,0,1,6.13-3.11c2.81-.05,5.65-.06,8.47-.06H44.72a3.7,3.7,0,0,1,.46,0h0V23.5H25.54A3.67,3.67,0,0,0,21.75,26.26ZM65.41,40.71a2.34,2.34,0,0,1-2.12,1.56,3.24,3.24,0,0,1-.44,0H22.73a2.54,2.54,0,0,1-2.65-1.51,2.34,2.34,0,0,1,2.15-3.22c.75,0,1.53,0,2.27,0H63.11a2.46,2.46,0,0,1,2,1A2.28,2.28,0,0,1,65.41,40.71ZM19.91,44.4H65.63a2.31,2.31,0,0,1,2.48,2.11A2.34,2.34,0,0,1,66.21,49a5.31,5.31,0,0,1-.72.05H20a2.36,2.36,0,0,1-2.62-2,2.32,2.32,0,0,1,2.09-2.64ZM70.81,54a2.27,2.27,0,0,1-2.33,1.93H17.12a2.53,2.53,0,0,1-2-.84,2.4,2.4,0,0,1-.47-2,2.28,2.28,0,0,1,1.91-1.83,7.19,7.19,0,0,1,.92,0H68a4.55,4.55,0,0,1,1.31.15A2.26,2.26,0,0,1,70.81,54ZM20.31,65.88a2.31,2.31,0,0,1,1.92-1h41a2.34,2.34,0,0,1,1.73,4,2.4,2.4,0,0,1-1.91.76H22.66a2.49,2.49,0,0,1-2.59-1.51A2.38,2.38,0,0,1,20.31,65.88Zm45-3.13H19.89A2.41,2.41,0,0,1,17.43,61a2.36,2.36,0,0,1,.34-2,2.51,2.51,0,0,1,1.86-1H65.24a4.44,4.44,0,0,1,1,.07,2.33,2.33,0,0,1,1.92,2.46,2.38,2.38,0,0,1-2.36,2.2ZM53.72,26.18a.73.73,0,0,1-.14.5.69.69,0,0,1-.53.14H48a.67.67,0,0,1-.48-.13.63.63,0,0,1-.13-.48c0-1.21,0-2.43,0-3.62,0-.47,0-.95,0-1.43s0-.94,0-1.42c0-1.17,0-2.37,0-3.56a.55.55,0,0,1,.68-.67c1.59,0,3.24,0,5.05,0a.77.77,0,0,1,.52.14.73.73,0,0,1,.14.5C53.7,19.48,53.7,22.85,53.72,26.18Zm2.12-1.51v-7l12.09,2.21v2.59Z"/></svg>