<svg id="Layer_1" data-name="Layer 1" xmlns="http://www.w3.org/2000/svg" viewBox="0 0 85.04 85.04"><path d="M74.14,27.86c-1.48,0-3,0-4.41,0-1.28,0-2.59,0-3.92.15a5.39,5.39,0,0,0-4.75,4.21,11.92,11.92,0,0,0-.28,2.51c0,2.78,0,5.55,0,8.32v.79a2.89,2.89,0,0,1-2.52,2.92,46,46,0,0,1-4.75.22l-1.17,0V45.22a2.72,2.72,0,1,0-5.44,0v9.53a2.74,2.74,0,1,0,5.48,0v-2h3.75a24.15,24.15,0,0,0,3.59-.16,7.5,7.5,0,0,0,6.64-5.85,11.69,11.69,0,0,0,.34-2.64c0-2.28,0-4.59,0-6.83v-.82A2.36,2.36,0,0,1,69,33.8a20.85,20.85,0,0,1,2.27-.1H73.5c.21,0,.44,0,.64,0a2.92,2.92,0,0,0,2.92-2.92A2.92,2.92,0,0,0,74.14,27.86Zm.65,3.56a.91.91,0,0,1-.65.27h0c-.81,0-1.63,0-2.45,0h-.47a21.56,21.56,0,0,0-2.52.12,4.35,4.35,0,0,0-4,4.68v.82c0,2.22,0,4.53,0,6.78a9.2,9.2,0,0,1-.27,2.17,5.57,5.57,0,0,1-5,4.37,22.12,22.12,0,0,1-3.3.14H50.39v4a.74.74,0,1,1-1.48,0V45.22a.72.72,0,1,1,1.44,0v3.85l1,0,2.16,0a48.69,48.69,0,0,0,5-.23,4.9,4.9,0,0,0,4.29-4.92v-.79c0-2.76,0-5.53,0-8.29A10.1,10.1,0,0,1,63,32.65,3.38,3.38,0,0,1,66,30c1.25-.12,2.52-.13,3.76-.14,1.46,0,2.91,0,4.39,0a.91.91,0,0,1,.65,1.56Z"/><path d="M35.37,42.61h-.15a2.72,2.72,0,0,0-2.72,2.72V47l-1,0a38.23,38.23,0,0,1-4-.05,3.76,3.76,0,0,1-3.38-3.8c0-3.41,0-6,0-8.48A6.66,6.66,0,0,0,17.2,28H10.47A2.67,2.67,0,0,0,7.8,30.61v.51a2.67,2.67,0,0,0,2.66,2.66H15.1a3.29,3.29,0,0,1,2.42.84A3.17,3.17,0,0,1,18.18,37c-.11,2.26-.11,4.7,0,7.7a7.85,7.85,0,0,0,3.44,6.66,9.73,9.73,0,0,0,5.6,1.53h.07l5.23,0v1.95a2.79,2.79,0,0,0,5.58,0v-9.5A2.72,2.72,0,0,0,35.37,42.61Zm.72,12.22a.77.77,0,0,1-.84.75.75.75,0,0,1-.74-.75V50.88H33.24l-6,0h-.06a7.74,7.74,0,0,1-4.49-1.19,5.88,5.88,0,0,1-2.55-5.07c-.1-2.94-.1-5.33,0-7.54A5.08,5.08,0,0,0,19,33.27a5.18,5.18,0,0,0-3.86-1.48H10.47a.67.67,0,0,1-.67-.66v-.51a.67.67,0,0,1,.67-.66h6.72a4.62,4.62,0,0,1,4.9,4.77c0,2.45,0,5.05,0,8.44A5.76,5.76,0,0,0,27.31,49a39.88,39.88,0,0,0,4.23.06c.65,0,1.3,0,2,0h1V45.33a.72.72,0,0,1,.72-.72h.15a.72.72,0,0,1,.72.72Z"/><path d="M43.5,46.78a1.66,1.66,0,0,0-2,0,6.28,6.28,0,0,0-2.35,3.64,3.53,3.53,0,0,0,.64,3,3.37,3.37,0,0,0,2.7,1.2h0a3.2,3.2,0,0,0,3.41-3A5.9,5.9,0,0,0,43.5,46.78Zm-1,5.86h0a1.43,1.43,0,0,1-1.15-.46,1.58,1.58,0,0,1-.23-1.33,4.1,4.1,0,0,1,1.38-2.25,3.57,3.57,0,0,1,1.41,2.89A1.25,1.25,0,0,1,42.53,52.64Z"/></svg>