<svg id="Layer_1" data-name="Layer 1" xmlns="http://www.w3.org/2000/svg" viewBox="0 0 85.04 85.04"><path d="M40.84,73.28c-1.23-.3-2.5-.49-3.69-.91a14.5,14.5,0,0,1-8.61-7.72,14.86,14.86,0,0,1,1-15,13.4,13.4,0,0,1,3.93-4A1.19,1.19,0,0,0,34,44.51q0-12.63,0-25.25a8.21,8.21,0,0,1,16.33-1.38c.06.61.1,1.22.1,1.83q0,12.43,0,24.88a1.11,1.11,0,0,0,.54,1,15.23,15.23,0,0,1-4.12,26.94c-.85.26-1.74.4-2.6.59-.13,0-.26.09-.39.13Zm7.32-40.81c0-2.79,0-5.57,0-8.36,0-1.93,0-3.86-.12-5.78a5.82,5.82,0,0,0-11.59.92q0,13.13,0,26.23a1.78,1.78,0,0,1-.86,1.62,15.28,15.28,0,0,0-2.48,2,12.51,12.51,0,0,0-3.37,11.83,12.77,12.77,0,0,0,12.58,10,12.33,12.33,0,0,0,8.51-3.26,12.49,12.49,0,0,0,4.09-12,12.36,12.36,0,0,0-6-8.65,1.63,1.63,0,0,1-.83-1.56C48.17,41.17,48.16,36.82,48.16,32.47Z"/><path d="M41.1,49.66V32.74c0-.17,0-.33,0-.49,0-.82.47-1.37,1.14-1.4s1.17.49,1.23,1.31c0,.19,0,.37,0,.55q0,8.15,0,16.29c0,.5.11.7.65.83a8,8,0,0,1,6.24,8,8.08,8.08,0,1,1-9.26-8.19Zm6.88,8A5.63,5.63,0,0,0,42.28,52a5.69,5.69,0,1,0,0,11.37A5.69,5.69,0,0,0,48,57.65Z"/></svg>