<svg id="Layer_1" data-name="Layer 1" xmlns="http://www.w3.org/2000/svg" viewBox="0 0 85.04 85.04"><path d="M67.67,60.78V55A1.51,1.51,0,0,0,66,53.38c-1.93,0-3.87,0-5.8,0A1.53,1.53,0,0,0,58.58,55c0,.27,0,.53,0,.79H51v-.64c0-.89,0-1.76,0-2.64a1.21,1.21,0,0,0-.33-.94,1.14,1.14,0,0,0-.92-.32h-.93v-3H55.1c1,0,1.33-.35,1.33-1.34V45.39c0-1,0-2.06,0-3.09a1.33,1.33,0,0,1,.26-.67,18.34,18.34,0,0,0,4.15-16.29,19.05,19.05,0,1,0-33,16.46.9.9,0,0,1,.18.51c0,1.37,0,2.87,0,4.72a1.17,1.17,0,0,0,1.32,1.32h6.35v3H34.59c-1,0-1.33.33-1.33,1.32v3.24H25.78v-.72A1.53,1.53,0,0,0,24,53.48H18.62c-1.25,0-1.81.56-1.81,1.8v4.35q0,6.79,0,13.6A1.88,1.88,0,0,0,17.65,75l.13.08h7.3l.15-.26c.05-.11.12-.21.18-.32a3.35,3.35,0,0,0,.45-.93,2.79,2.79,0,0,0,.06-1H58.7c0,.12,0,.24,0,.36a2,2,0,0,0,.87,2l.12.07h7l.14-.11a1.82,1.82,0,0,0,.82-1.51Q67.66,67.1,67.67,60.78ZM18.84,55.45h5v4.1h-5Zm5,17.56h-5V68.93h5Zm0-6.23h-5V61.62h5Zm6.25-20.6c0-.11,0-.23,0-.35a14.17,14.17,0,0,1,0-1.73,6.47,6.47,0,0,0-1.51-4.8,16.72,16.72,0,0,1-2.25-16.16,17,17,0,0,1,32.56,2.68,16.45,16.45,0,0,1-4,14.77A2.2,2.2,0,0,0,54.4,42c0,1.15,0,2.3,0,3.47v.76Zm16.59,2.1v3h-8.9v-3ZM35.4,53.39H49v2.43H35.4ZM29.24,70.62H26V58h3.29Zm23.68,0H31.3V58H52.92Zm5.62,0H55.08V58h3.46Zm2.1-15.15h5v4.11h-5Zm0,6.14h5v5.19h-5Zm5,11.4h-5V68.93h5Z"/><path d="M52.61,18.83a14.59,14.59,0,0,0-10.35-4.35h0a14.69,14.69,0,0,0,0,29.38h0a14.64,14.64,0,0,0,10.36-25ZM42.24,41.9h0A12.5,12.5,0,0,1,29.61,29.29a12.7,12.7,0,0,1,12.6-12.68h.08a12.45,12.45,0,0,1,8.84,3.66A12.65,12.65,0,0,1,42.24,41.9Z"/><path d="M48.15,23.31c-.71-.66-1-.38-3.22,1.85l-.36.36c-.28.29-.56.57-.85.83a.46.46,0,0,1-.13,0,3.07,3.07,0,0,0-3.33.62,2.84,2.84,0,0,0-.66,3.34l0,.1a.83.83,0,0,1-.13.14A20,20,0,0,0,38,32.13a1,1,0,0,0,0,1.44.87.87,0,0,0,.54.2,1.2,1.2,0,0,0,.79-.35c.26-.22.5-.47.74-.71a7.58,7.58,0,0,1,.65-.62.69.69,0,0,1,.36-.06c.2,0,.4,0,.61,0a3.88,3.88,0,0,0,1.27,0,2.77,2.77,0,0,0,1.87-1.42A3.36,3.36,0,0,0,45,28l.27-.26c.37-.37.75-.73,1.11-1.1,1.82-1.81,2.17-2.17,2.16-2.66A.89.89,0,0,0,48.15,23.31Zm-5.9,6.94a1.11,1.11,0,0,1-.69-.31,1,1,0,0,1-.31-.7,1,1,0,0,1,1-.94h0a1,1,0,0,1,1,1A1.06,1.06,0,0,1,42.25,30.25Z"/><path d="M45.06,35H39.45c-1,0-1.18.54-1.19,1a.93.93,0,0,0,.25.74,1.18,1.18,0,0,0,.92.3h5.69a1.28,1.28,0,0,0,1-.3,1,1,0,0,0,.25-.73C46.31,35.57,46.07,35,45.06,35Z"/><path d="M32.47,28a1.42,1.42,0,0,0,0,2.83,1.41,1.41,0,0,0,1.45-1.39A1.43,1.43,0,0,0,32.47,28Z"/><path d="M52,28a1.43,1.43,0,0,0-1.4,1.45,1.42,1.42,0,0,0,2.83,0A1.45,1.45,0,0,0,52,28Z"/><path d="M33.74,23.07a1.42,1.42,0,1,0,1.41,1.41A1.38,1.38,0,0,0,33.74,23.07Z"/><path d="M42.25,20.92a1.38,1.38,0,0,0,1.38-1.45,1.39,1.39,0,1,0-1.38,1.45Z"/><path d="M47.14,19.47a1.42,1.42,0,0,0-.07,2.84,1.41,1.41,0,0,0,1.46-1.38A1.42,1.42,0,0,0,47.14,19.47Z"/><path d="M38.75,20.88a1.39,1.39,0,0,0-1.43-1.41,1.43,1.43,0,0,0-1.38,1.41,1.41,1.41,0,0,0,1.41,1.43A1.39,1.39,0,0,0,38.75,20.88Z"/><path d="M52.11,24.51a1.39,1.39,0,1,0-1.44,1.39A1.38,1.38,0,0,0,52.11,24.51Z"/><path d="M44.15,38.32h-4a1.17,1.17,0,0,0-1,.38.9.9,0,0,0-.17.77,1.34,1.34,0,0,0,1.08.88c.31,0,.63,0,.94,0h3.14c1.07,0,1.19-.71,1.2-1a1,1,0,0,0-.27-.72A1.29,1.29,0,0,0,44.15,38.32Z"/></svg>