<svg id="Layer_1" data-name="Layer 1" xmlns="http://www.w3.org/2000/svg" viewBox="0 0 85.04 85.04"><path d="M72,36.9a5.16,5.16,0,0,0-2.8-4.73.68.68,0,0,1-.4-.69c0-2.62,0-5.23,0-7.84a6.87,6.87,0,0,0-6.95-6.95h-37a6.9,6.9,0,0,0-6.95,7c0,1.61,0,3.22,0,4.83v3.16l-.31.13a5.2,5.2,0,0,0-3.69,3.94.58.58,0,0,1-.11.18v7.5c.46.72,1.2.73,2,.69v.8q0,9.32,0,18.63a8.79,8.79,0,0,0,.12,1.7,6,6,0,0,0,6,4.87c5.24,0,10.49,0,15.73,0a2.64,2.64,0,0,0,.4,0,1.17,1.17,0,0,0,1-1.15A1.14,1.14,0,0,0,38,67.8c-.23,0-.46,0-.69,0-5.07,0-10.15,0-15.22,0a3.89,3.89,0,0,1-4-4c.07-6.36,0-12.72,0-19.08,0-.2,0-.4,0-.63h3v1a3.84,3.84,0,0,0,3.48,3.82,3.78,3.78,0,0,0,4.15-3.39c0-.45.06-.89.09-1.38.69,0,1.33,0,2,0a4.28,4.28,0,0,1,3.85,1.61A5.47,5.47,0,0,0,39,47.55c2.57,0,5.15,0,7.72,0a8.61,8.61,0,0,0,1.52-.15,5.73,5.73,0,0,0,3.17-2,3,3,0,0,1,1.87-1.2c1.21-.09,2.44,0,3.7,0a4.71,4.71,0,0,0,.82,3.17,3.73,3.73,0,0,0,3,1.49,3.65,3.65,0,0,0,2.55-.92,4.32,4.32,0,0,0,1.34-3.83h3a2.49,2.49,0,0,1,0,.36c0,6.59,0,13.18,0,19.77a3.62,3.62,0,0,1-3.2,3.49,8.6,8.6,0,0,1-1,.06H48.2c-.89,0-1.37.43-1.37,1.16s.51,1.14,1.39,1.14c5.21,0,10.42,0,15.63,0a6,6,0,0,0,5-2.55A6.4,6.4,0,0,0,70,63.62V44.81c0-.23,0-.47,0-.72h.4c1.24,0,1.55-.33,1.55-1.55ZM20.22,23.44A4.47,4.47,0,0,1,24.86,19c1,0,2,0,3,0H61.55a4.58,4.58,0,0,1,4.66,3.09,3.94,3.94,0,0,1,.24,1.21c0,2.73,0,5.45,0,8.24H64v-.61c0-2.37,0-4.74,0-7.1a2.27,2.27,0,0,0-2.4-2.39q-18.31,0-36.63,0a2.11,2.11,0,0,0-2.37,2.38v7.69H20.26a.94.94,0,0,1-.06-.24C20.2,28.66,20.15,26.05,20.22,23.44Zm41.47.33v7.75H24.93V23.77Zm-36,22.54a1.43,1.43,0,0,1-1.65,0c-.83-.54-.71-1.37-.68-2.22h3C26.43,44.94,26.55,45.77,25.73,46.31Zm2.48-5.11c0,.41-.17.6-.57.6h-5.5a.48.48,0,0,1-.54-.56q0-.8,0-1.59c0-.45.2-.6.62-.59H27.6c.44,0,.62.19.61.61S28.2,40.69,28.21,41.2Zm33.5,5.08a1.44,1.44,0,0,1-1.69,0c-.84-.54-.72-1.36-.67-2.25h3C62.38,44.92,62.47,45.72,61.71,46.28Zm2.42-5.06c0,.37-.15.57-.53.57H58.05c-.37,0-.54-.2-.53-.57q0-.8,0-1.59c0-.4.19-.57.59-.57h2.72c.88,0,1.77,0,2.66,0,.45,0,.66.16.64.63S64.12,40.71,64.13,41.22Zm5.55.37s0,.07,0,.16H66.45c0-.69,0-1.39,0-2.08a2.71,2.71,0,0,0-2.93-2.89H58.13a2.68,2.68,0,0,0-2.9,2.9v2.06c-.79.06-1.53.06-2.25.18a5,5,0,0,0-2.73,1.4c-.34.33-.66.68-1,1a3,3,0,0,1-2.14.89H38.64a3,3,0,0,1-2.34-1.08A6.14,6.14,0,0,0,33.05,42a24.69,24.69,0,0,0-2.55-.26c0-.61,0-1.29,0-2a2.79,2.79,0,0,0-3-3c-1.78.08-3.56,0-5.34,0a2.7,2.7,0,0,0-2.89,2.87c0,.7,0,1.39,0,2.11a1.84,1.84,0,0,1-.33,0H16v-2c0-1,0-1.93,0-2.9a3,3,0,0,1,3.12-3h47.2a3,3,0,0,1,3.31,3.32C69.69,38.64,69.68,40.11,69.68,41.59Z"/><path d="M43,67.8a1.14,1.14,0,0,0-1.18,1.11,1.21,1.21,0,0,0,1.16,1.17,1.19,1.19,0,0,0,1.15-1.17A1.15,1.15,0,0,0,43,67.8Z"/></svg>