<svg id="Layer_1" data-name="Layer 1" xmlns="http://www.w3.org/2000/svg" viewBox="0 0 85.04 85.04"><path d="M42,29.18H65.2A.75.75,0,0,1,66,30c0,1,0,2.06,0,3.08V52.8c0,.9-.21,1.11-1.11,1.11H19.18c-.88,0-1.09-.21-1.09-1.08V30.31c0-.94.19-1.13,1.13-1.13ZM64.5,30.74H19.62V52.35H64.5Z"/><path d="M42.05,34.79h17.1c.91,0,1.12.2,1.12,1.1,0,1.16,0,2.32,0,3.48a1.13,1.13,0,0,1-.42.9c-1,.93-1.94,1.9-2.89,2.87a.8.8,0,0,0-.17.53c0,1.23,0,2.45,0,3.68,0,.7-.26.95-1,.95H28.27c-.69,0-.94-.26-.94-1,0-1,0-2,0-3a1.39,1.39,0,0,0-.29-.79c-.95-1.13-1.94-2.22-2.9-3.34a1.2,1.2,0,0,1-.29-.7c0-1.23,0-2.46,0-3.68,0-.76.25-1,1-1Zm14.73,6.47,1.87-1.89a.3.3,0,0,0,.1-.21c0-.94,0-1.88,0-2.81H25.34c0,.69,0,1.33,0,2A1.87,1.87,0,0,0,25.94,40c.47.44.86,1,1.39,1.56,0-.3,0-.42,0-.55,0-1,.18-1.19,1.17-1.2h24c1.12,0,2.25,0,3.38,0,.61,0,.87.28.89.88Zm-21.46.09v2.28c0,.65-.26.9-.91.91H31.78c-.73,0-1-.24-1-1V41.36h-2v5.38H55.25V41.37h-2v2.22c0,.7-.25.95-1,.95H49.84c-.84,0-1.05-.21-1.05-1s0-1.42,0-2.13H47.31c0,.76,0,1.48,0,2.21s-.26,1-1,1H43.93c-1,0-1.15-.2-1.15-1.17,0-.67,0-1.34,0-2H41.33v2.15c0,.78-.25,1-1,1H37.79c-.76,0-1-.25-1-1V41.35ZM33.77,43V41.37H32.36V43Zm16.57-1.69V43h1.41V41.34ZM38.36,43h1.38V41.35H38.36Zm7.4-1.64H44.35V43h1.41Z"/><path d="M21.83,31.8c.26,0,.53,0,.79,0a.76.76,0,0,1,.73.74.73.73,0,0,1-.71.74,14.77,14.77,0,0,1-1.63,0,.68.68,0,0,1-.67-.72.73.73,0,0,1,.7-.76C21.3,31.79,21.56,31.8,21.83,31.8Z"/><path d="M61.49,33.3a6.94,6.94,0,0,1-.79,0,.74.74,0,0,1,0-1.48,14.77,14.77,0,0,1,1.63,0,.72.72,0,0,1,.68.78.69.69,0,0,1-.69.7A7.85,7.85,0,0,1,61.49,33.3Z"/><path d="M21.85,49.4c.25,0,.5,0,.75,0a.76.76,0,0,1,.75.76.73.73,0,0,1-.73.72c-.53,0-1.06,0-1.59,0a.71.71,0,0,1-.69-.75.73.73,0,0,1,.72-.73C21.32,49.39,21.59,49.4,21.85,49.4Z"/><path d="M61.52,50.9h-.79a.75.75,0,0,1,0-1.49c.53,0,1.06,0,1.58,0a.75.75,0,0,1,0,1.49Z"/></svg>