<svg id="Layer_1" data-name="Layer 1" xmlns="http://www.w3.org/2000/svg" viewBox="0 0 85.04 85.04"><path d="M70.12,56.55c-.34,0-.65,0-.75-.43s-.54-.79,0-1.32a2.41,2.41,0,0,0,0-3.66c-.83-.85-1.67-1.68-2.51-2.51a2.44,2.44,0,0,0-3.8,0c-.49.5-.81,0-1.21,0s-.5-.32-.48-.71a2.26,2.26,0,0,0-.84-2,1.2,1.2,0,0,1-.46-1.06c0-3.4,0-6.79,0-10.18,0-.59-.15-1-.76-1.21s-1.23.31-1.23,1.12V45.2H55.58V18.59a2.53,2.53,0,0,0-2.82-2.85H46.21V13.32c3.46,0,6.88,0,10.29,0A1.56,1.56,0,0,1,58,14.51a4.05,4.05,0,0,1,.12,1q0,6.76,0,13.52c0,.18,0,.36,0,.53,0,.71.37,1.15,1,1.18s1-.45,1-1.18q0-7.32,0-14.64a2.92,2.92,0,0,0-.09-.78,3.77,3.77,0,0,0-3.92-2.91c-3.18,0-6.35,0-9.53,0-.21,0-.6,0-.63-.17-.12-.77-.22-1.49-1.86-1.56H27.9A1.68,1.68,0,0,0,26,10.87c-.08.37-.09.39-.09.39-3.15,0-6.81,0-10,0a4,4,0,0,0-4.1,4.11q.06,26.49,0,53a4,4,0,0,0,4.1,4.1c9.59,0,19.18,0,28.77,0a2.73,2.73,0,0,1,2.27.93,2.44,2.44,0,0,0,3.89,0A.81.81,0,0,1,52,73.08c.39.19.58.38.53.83a2.58,2.58,0,0,0,2.87,2.86c1.18-.08,2.36,0,3.54,0a2.39,2.39,0,0,0,2.39-1.87,10.49,10.49,0,0,0,.15-1.45,1.24,1.24,0,0,1,1.9.18,2.32,2.32,0,0,0,3.36-.09c.93-.89,1.85-1.81,2.74-2.74a2.44,2.44,0,0,0,0-3.58c-.27-.28-.56-.49-.31-1s.37-.82,1-.79a2.42,2.42,0,0,0,2.52-2.52V59.17A2.47,2.47,0,0,0,70.12,56.55Zm-42.33-44c0-.79.28-1.06,1.07-1.06H43.1c.79,0,1.07.28,1.07,1.07q0,2.1,0,4.2c0,.75-.29,1-1,1H28.89c-.84,0-1.1-.25-1.1-1.09Q27.78,14.64,27.79,12.57ZM44,65.92q-12.35,0-24.69,0c-.89,0-.91,0-.91-.92V49.7a5.86,5.86,0,0,0,0-.59,1,1,0,0,0-1-.94,1,1,0,0,0-1,.88,3.49,3.49,0,0,0,0,.65q0,7.68,0,15.36c0,2,.95,2.89,2.9,2.89H43.69c.05.82.11,1.6.16,2.44a3.52,3.52,0,0,1-.46,0q-13.64,0-27.26,0c-1.64,0-2.27-.63-2.27-2.25V15.51c0-1.57.62-2.2,2.17-2.2h9.73v2.4l-.7,0H19.28c-2,0-2.9,1-2.9,2.9V44a4.51,4.51,0,0,0,0,.52,1,1,0,0,0,1.06,1,1,1,0,0,0,1-1,5.76,5.76,0,0,0,0-.59V18.74c0-1,0-1,.93-1h6.51a3.08,3.08,0,0,0,3.31,2.06c4.55,0,9.11,0,13.66,0a3,3,0,0,0,3.27-2H53c.4,0,.56.18.55.56,0,.15,0,.31,0,.46q0,13.07,0,26.13a1.41,1.41,0,0,1-.42,1.16A2.13,2.13,0,0,0,52.49,48c.08.66-.46.62-.8.83s-.57.11-.85-.16a2.48,2.48,0,0,0-3.9,0c-.73.73-1.43,1.48-2.19,2.18a2.86,2.86,0,0,0-1,2.8H36.87c-.72,0-1.14.3-1.22.84-.11.74.36,1.2,1.25,1.21h7.87c0,.63-.28.9-.91.84a2.5,2.5,0,0,0-2.06.8,1.19,1.19,0,0,1-.74.3c-1.46,0-2.93,0-4.4,0a.94.94,0,0,0-1,1,1,1,0,0,0,1.08,1h4.45c0,1.09,0,2.11,0,3.14a2.51,2.51,0,0,0,2.63,2.64c.31,0,.76-.23.94.42C44.48,65.9,44.26,65.92,44,65.92ZM70,63.4a2,2,0,0,0-2.61,1.83,4.8,4.8,0,0,1-.54,1.12A1,1,0,0,0,67,67.66l.88.88a.56.56,0,0,1,0,.91L65.39,72a.57.57,0,0,1-.91,0,10.18,10.18,0,0,0-.94-.92,3.61,3.61,0,0,0-.73-.42c-.27.09-.46.14-.64.21-.64.26-1.28.55-1.94.78a1.12,1.12,0,0,0-.87,1.15c0,.44,0,.88,0,1.31s-.17.67-.62.67H55.12a.54.54,0,0,1-.6-.61c0-.48,0-1,0-1.45a1.13,1.13,0,0,0-.83-1.12,15.46,15.46,0,0,1-1.93-.81,1.09,1.09,0,0,0-1.41.25c-.3.32-.62.62-.93.93a.57.57,0,0,1-.95,0L46,69.47a.59.59,0,0,1,0-1c.32-.3.62-.62.93-.92a1.1,1.1,0,0,0,.25-1.42,19.26,19.26,0,0,1-.82-1.93,1.12,1.12,0,0,0-1.12-.82c-.46,0-.92,0-1.38,0s-.67-.17-.67-.61V59.19a.56.56,0,0,1,.61-.62h1.31a1.14,1.14,0,0,0,1.21-.88,18,18,0,0,1,.76-1.88,1.19,1.19,0,0,0-.27-1.54c-.29-.26-.56-.55-.84-.83a.56.56,0,0,1,0-.91L48.44,50c.33-.33.68-.38,1,0,.91,1.31,1.88,1.25,3.29.62s2.11-1.18,1.85-2.7c-.09-.49.19-.73.68-.72h3.42c.49,0,.79.21.71.71a2,2,0,0,0,1.86,2.56,3.29,3.29,0,0,1,.77.34c1.07.52,1.19.5,2-.36l.28-.28c.58-.57.71-.57,1.28,0,.74.74,1.47,1.5,2.23,2.22.42.4.45.73,0,1.15-1.18,1.16-1.42,1.07-.53,2.84a8.58,8.58,0,0,1,.5,1.34,1.06,1.06,0,0,0,1.11.83h.19c1.76,0,1.61-.06,1.6,1.6,0,.83,0,1.66,0,2.49C70.72,63.18,70.51,63.49,70,63.4Z"/><path d="M32,49.26c-.48.56-.94,1.15-1.42,1.71a.77.77,0,0,1-.46.27c-1.16,0-2.31,0-3.47,0v-.1H23.91a2.45,2.45,0,0,0-2.64,2.55q-.06,2.82,0,5.64a2.38,2.38,0,0,0,2.55,2.49q2.79,0,5.58,0A2.44,2.44,0,0,0,32,59.21c0-1.26,0-2.53,0-3.8a8.92,8.92,0,0,1-.06-2.72,8.62,8.62,0,0,1,1.63-2.18A1,1,0,1,0,32,49.26ZM28.4,59.82c-1.44,0-2.89,0-4.33,0-.54,0-.8-.14-.79-.73,0-1.73,0-3.46,0-5.19,0-.39,0-.71.54-.71h4.89c-.77.93-1.41,1.72-2.08,2.54-.3-.27-.57-.53-.85-.77a1,1,0,0,0-1.47,0,1,1,0,0,0,.09,1.46c.49.5,1,1,1.52,1.45a1,1,0,0,0,1.69-.13,32,32,0,0,1,2.29-2.59v3.17C29.9,60.05,30.06,59.81,28.4,59.82Z"/><path d="M23.7,48.12h5.77a2.37,2.37,0,0,0,2.46-2.31c0-2.2-.06-4.41-.09-6.62a1,1,0,0,1,.21-.57c.47-.61,1-1.19,1.44-1.79a1,1,0,0,0-.07-1.51,1,1,0,0,0-1.49.25c-.47.55-.91,1.13-1.38,1.67a.84.84,0,0,1-.53.26c-1.07,0-2.14,0-3.22,0v0H23.65a2.24,2.24,0,0,0-2.32,2.06c-.08,2.16-.08,4.33,0,6.49A2.25,2.25,0,0,0,23.7,48.12Zm-.41-8c0-.41.17-.62.58-.62h4.87L26.63,42c-.3-.28-.58-.56-.87-.81a1,1,0,0,0-1.46.05,1,1,0,0,0,.09,1.42c.51.51,1,1,1.57,1.49a1,1,0,0,0,1.59-.09c.39-.44.75-.91,1.13-1.37a9.22,9.22,0,0,1,1.23-1.3v1.32c0,.92,0,1.84,0,2.76,0,.45-.2.63-.63.63H24c-.45,0-.68-.17-.67-.66C23.3,43.68,23.3,41.89,23.29,40.09Z"/><path d="M32.1,22.34c-.49.56-.94,1.15-1.42,1.71a.65.65,0,0,1-.41.25c-2.14,0-4.28-.06-6.42-.06a2.34,2.34,0,0,0-2.39,2.35c0,2,0,3.93,0,5.9a2.33,2.33,0,0,0,2.35,2.39c1,0,2,0,3,0h0c.94,0,1.88,0,2.82,0a2.4,2.4,0,0,0,2.51-2.58c0-1.27,0-2.54,0-3.8,0-.87-.09-1.74-.1-2.61a.93.93,0,0,1,.22-.51c.47-.61,1-1.18,1.45-1.79a1,1,0,0,0-.07-1.51A1,1,0,0,0,32.1,22.34ZM29.37,32.9c-1.73,0-3.46,0-5.19,0-.52,0-.75-.19-.75-.73q0-2.62,0-5.25c0-.38.11-.67.53-.67,1.59,0,3.18,0,4.93,0L26.8,28.81c-.31-.29-.58-.56-.88-.81a1,1,0,1,0-1.37,1.46c.5.51,1,1,1.57,1.48a1,1,0,0,0,1.64-.12c.74-.88,1.46-1.78,2.34-2.66v1.05c0,1,0,2,0,2.95C30.11,32.68,29.91,32.91,29.37,32.9Z"/><path d="M36.54,32.59h13c.7,0,1.14-.43,1.15-1a1.06,1.06,0,0,0-1.19-1c-2.15,0-4.29,0-6.43,0s-4.34,0-6.5,0c-.77,0-1.19.37-1.2,1S35.78,32.55,36.54,32.59Z"/><path d="M49.38,44.36c-2.82,0-5.64,0-8.46,0-1.29,0-2.58,0-3.87,0-.79,0-1.24.5-1.14,1.19s.5.85,1.28.85h7.74c1.53,0,3.06,0,4.59,0,.92,0,1.5-.83,1-1.48A1.65,1.65,0,0,0,49.38,44.36Z"/><path d="M36.6,28.58H49.46c.78,0,1.21-.36,1.23-1s-.45-1-1.25-1H36.58c-.78,0-1.2.34-1.21,1S35.77,28.57,36.6,28.58Z"/><path d="M49.43,40.38H37.1c-.77,0-1.19.35-1.19,1s.39,1,1.17,1H49.47c.77,0,1.21-.38,1.22-1S50.23,40.38,49.43,40.38Z"/><path d="M56.89,55.22A5.78,5.78,0,1,0,62.7,61,5.76,5.76,0,0,0,56.89,55.22Zm0,9.56A3.79,3.79,0,1,1,60.71,61,3.83,3.83,0,0,1,56.93,64.78Z"/></svg>