<svg id="Layer_1" data-name="Layer 1" xmlns="http://www.w3.org/2000/svg" viewBox="0 0 85.04 85.04"><defs><style>.cls-1{stroke:#000;stroke-miterlimit:10;stroke-width:0.25px;}</style></defs><path class="cls-1" d="M67.79,20.53a11.46,11.46,0,0,1-.2,1.18,1.65,1.65,0,0,1-1.84,1.14c-2.78-.44-5.56-.9-8.34-1.32-.5-.08-.87-.27-.81-.82s.51-.68,1-.6l7.66,1.19.84.1a2.07,2.07,0,0,0,.09-.43c0-1.39,0-2.77,0-4.16,0-.39-.06-.6-.55-.51-2.62.43-5.24.82-7.86,1.25-.53.09-1,0-1-.57s.31-.8.83-.88l7.65-1.22c1.64-.26,2.51.43,2.45,2.09a2.83,2.83,0,0,0,1,2.45A12.53,12.53,0,0,1,72.78,27a15.08,15.08,0,0,1-1.36,8.29,47.41,47.41,0,0,1-6.75,10.28A77.74,77.74,0,0,1,50.56,58.65c-1.65,1.26-3.38,2.41-5.08,3.62-.43.31-.9.51-1.26,0s0-.89.47-1.19A94.22,94.22,0,0,0,60.58,48a50.94,50.94,0,0,0,9.33-12.93,13.07,13.07,0,0,0,1.3-8.6A12.07,12.07,0,0,0,67.79,20.53Z"/><path class="cls-1" d="M29.05,43.92c.12-3.4.2-6.79.39-10.19a4.68,4.68,0,0,1,4.69-4.31c5.31,0,10.63,0,15.95,0a4.82,4.82,0,0,1,5,4.76c.22,5.5.4,11,.57,16.49a1.31,1.31,0,0,1-.35.95c-.45.38-1,0-1-.69-.09-1.73-.17-3.46-.24-5.2Q53.81,40,53.6,34.3a3.31,3.31,0,0,0-3.41-3.43q-8-.06-15.95,0a3.38,3.38,0,0,0-3.42,3.51q-.27,9.49-.59,19a1.43,1.43,0,0,1-.47,1c-.49.33-1-.13-1-.86,0-1.92.13-3.84.17-5.76,0-1.27,0-2.54,0-3.81Z"/><path class="cls-1" d="M55.65,18.81c0,2.47-.39,2.85-2.87,2.71L32.72,20.38l-2.36-.14c-.78,0-1-.29-1-1.07,0-.28,0-.55,0-.83a.79.79,0,0,1,.85-.87l11.48-.68,10.58-.63c.51,0,1-.06,1.53-.06a1.7,1.7,0,0,1,1.88,1.81C55.66,18.21,55.65,18.51,55.65,18.81Zm-1.48,1.35c0-.82,0-1.51,0-2.2a.62.62,0,0,0-.45-.41c-1.55.06-3.09.15-4.64.25l-10.93.65-5.64.34v.09Z"/><path class="cls-1" d="M42.85,46.21h7.69a1.71,1.71,0,0,1,1.9,1.88c0,.83,0,1.66,0,2.49a1.78,1.78,0,0,1-2,2H35.29a1.77,1.77,0,0,1-2-2q0-1.22,0-2.43c0-1.34.63-1.93,2-1.93Zm8.07,1.44H37.42c-.69,0-1.38,0-2.08,0-.46,0-.67.12-.64.63a14.83,14.83,0,0,1,0,2c-.05.64.15.82.8.82,4.9,0,9.8,0,14.69,0,.25,0,.49,0,.77,0V48.25C51,48.09,50.94,47.93,50.92,47.65Z"/><path class="cls-1" d="M61.87,63a30.82,30.82,0,0,1,0,3.19,4.25,4.25,0,0,1-4.28,3.9,4.14,4.14,0,0,1-4.42-3.8,41.36,41.36,0,0,1,0-6.77,4.12,4.12,0,0,1,4.66-3.65,4.29,4.29,0,0,1,4,4.22c0,1,0,1.94,0,2.91ZM60.4,63c0-1,0-1.94,0-2.91a2.93,2.93,0,0,0-5.85,0c0,1.92,0,3.84,0,5.75a2.93,2.93,0,0,0,5.85,0C60.42,64.94,60.4,64,60.4,63Z"/><path class="cls-1" d="M31.25,63c0,1,0,1.94,0,2.91a4.38,4.38,0,0,1-8.75,0q0-2.91,0-5.82a4.38,4.38,0,0,1,8.75,0C31.27,61.05,31.25,62,31.25,63Zm-1.41,0c0-.88,0-1.76,0-2.63a4.38,4.38,0,0,0-.23-1.29,2.95,2.95,0,0,0-5.68,1.13c0,1.81,0,3.61,0,5.41a3,3,0,1,0,5.92-.06C29.85,64.77,29.84,63.92,29.84,63.06Z"/><path class="cls-1" d="M42.28,69.1H33.2c-.2,0-.47.07-.6,0a1.25,1.25,0,0,1-.52-.7c0-.2.26-.5.48-.63a1.54,1.54,0,0,1,.75-.07h17.8c.94,0,1.37.23,1.31.75-.1.78-.71.71-1.27.71Z"/><path class="cls-1" d="M42.55,36.91H34.31c-.54,0-1-.08-1-.75s.48-.71,1-.71h16.5c.52,0,1,.07,1,.75s-.53.7-1.05.7Z"/><path class="cls-1" d="M42.54,24.14c1.09,0,2.18-.06,3.26,0a3.67,3.67,0,0,1,3.29,3.52c0,.48-.22.84-.71.86a.69.69,0,0,1-.75-.73A2.38,2.38,0,0,0,45,25.52c-1.66.05-3.33,0-5,0a2.29,2.29,0,0,0-2.57,2.21c-.07.47-.3.82-.79.79s-.72-.43-.7-.94a3.68,3.68,0,0,1,3.38-3.45c1.06-.06,2.12,0,3.18,0Z"/><path class="cls-1" d="M42.56,39.83c1.94,0,3.88,0,5.82,0,.53,0,1,.14,1,.71s-.45.74-1,.74H36.7c-.51,0-1-.13-1-.72s.48-.74,1-.73C38.69,39.84,40.62,39.83,42.56,39.83Z"/><path class="cls-1" d="M40.8,61.89a3,3,0,0,1,1.65-2.26c.43-.25.84-.31,1.14.16s0,.81-.37,1.08a1.75,1.75,0,0,0-.93,2,1.71,1.71,0,0,0,1.55,1.37A1.77,1.77,0,0,0,45.77,63c.19-.48.44-.86,1-.64s.51.7.35,1.17a3.32,3.32,0,0,1-3.54,2.17C41.9,65.44,40.81,64.16,40.8,61.89Z"/><path class="cls-1" d="M24.11,18.46l1.52.12c.45.05.71.35.6.75a1,1,0,0,1-.65.62,16.18,16.18,0,0,1-2.41,0c-.45,0-.82-.25-.79-.76s.41-.72.92-.7C23.62,18.48,23.94,18.46,24.11,18.46Z"/><path class="cls-1" d="M13.76,18.11l1.18.06c.47,0,.8.31.71.74a1,1,0,0,1-.72.64,15.39,15.39,0,0,1-2.35,0c-.46,0-.81-.25-.78-.78s.38-.7.85-.69h1.11Z"/><path class="cls-1" d="M19,19.7c-.41,0-.83,0-1.24,0a.71.71,0,0,1,0-1.41c.81,0,1.61,0,2.41.07.44,0,.76.24.76.72s-.33.73-.8.75-.78,0-1.17-.05Z"/><path class="cls-1" d="M23.7,23.2c-.18-.19-.52-.39-.58-.65a.92.92,0,0,1,.37-.77,9.15,9.15,0,0,1,2-.62,1,1,0,0,1,.74.53.87.87,0,0,1-.33.77A23.29,23.29,0,0,1,23.7,23.2Z"/><path class="cls-1" d="M19.17,13.94c.84.28,1.57.47,2.26.78a.8.8,0,0,1,.31.73c-.09.24-.48.55-.69.52a11.75,11.75,0,0,1-2.17-.64.83.83,0,0,1-.28-.75C18.66,14.33,19,14.15,19.17,13.94Z"/><path class="cls-1" d="M19.18,24.56c-.2-.21-.54-.39-.58-.63a.88.88,0,0,1,.34-.78,8.59,8.59,0,0,1,2-.62.9.9,0,0,1,.73.45.89.89,0,0,1-.26.81C20.76,24.1,20,24.28,19.18,24.56Z"/><path class="cls-1" d="M25.64,17.44c-.82-.27-1.54-.45-2.21-.75a.8.8,0,0,1-.31-.73c.08-.24.47-.56.67-.52a10.19,10.19,0,0,1,2.17.63.87.87,0,0,1,.28.79C26.19,17.1,25.84,17.26,25.64,17.44Z"/><path class="cls-1" d="M16.47,23.86c.49,0,.77.25.76.73a.77.77,0,0,1-1,.75,1,1,0,0,1-.67-.67C15.5,24.07,16,23.94,16.47,23.86Z"/><path class="cls-1" d="M16.07,13.12c.71.09,1.22.23,1.13.83a1,1,0,0,1-.67.68c-.44,0-1-.14-.94-.75C15.62,13.58,15.94,13.32,16.07,13.12Z"/><path class="cls-1" d="M56.77,63.05c0-.74,0-1.47,0-2.21,0-.49.21-.84.7-.85s.73.32.73.81c0,1.55,0,3.09,0,4.63,0,.45-.2.76-.69.77s-.72-.31-.72-.8Z"/><path class="cls-1" d="M27.62,63.15V65.3c0,.49-.17.88-.73.9s-.75-.38-.76-.87V60.9c0-.5.2-.91.73-.91s.76.42.76.95C27.61,61.67,27.62,62.41,27.62,63.15Z"/></svg>