<svg id="Layer_1" data-name="Layer 1" xmlns="http://www.w3.org/2000/svg" viewBox="0 0 85.04 85.04"><path d="M75.71,19.26l-.15-.62a10.36,10.36,0,0,0-10.44-8.19q-4.82,0-9.63,0H51.81a10.63,10.63,0,0,0-7.07,2.49,1.38,1.38,0,0,1-.58.29,10.66,10.66,0,0,0-5,3L36,19.4c-2,2-4.07,4.06-6.09,6.11a12.93,12.93,0,0,0-1,1.21c-.2.25-.39.5-.59.73s-.45.47-.68.69l-.16.15c-.28.27-.57.54-.87.8a15.64,15.64,0,0,0-1.82,1.82,10,10,0,0,0-2,6.45c0,3.07,0,6.07,0,8.91a1,1,0,0,1-.21.61Q20.42,49,18.29,51.1c-2,2-4.08,4-6.1,6.1A10,10,0,0,0,9.41,67a10.14,10.14,0,0,0,7,7.44,10.58,10.58,0,0,0,3.07.46,10,10,0,0,0,6.83-2.69c2.61-2.45,5.17-5,7.64-7.56l1.94-2c.53-.54,1-1.14,1.48-1.72.24-.3.48-.61.73-.9a2.62,2.62,0,0,1,.51-.48,10.38,10.38,0,0,0,4.82-9.09V47.22c0-1.89,0-3.78,0-5.67a.94.94,0,0,1,.15-.58c3.23-3.23,6.45-6.43,9.58-9.51a1.15,1.15,0,0,1,.72-.27c1.47,0,3,0,4.43,0,2.32,0,4.71,0,7.07,0a10.05,10.05,0,0,0,9.49-6.21,11.16,11.16,0,0,0,.62-2c.07-.3.15-.6.23-.9V19.56ZM27.92,44.37l-2.55.7V42.48c0-1.85,0-3.69,0-5.53a7.51,7.51,0,0,1,1.15-4.08c0,.11,0,.22,0,.33.07.72.14,1.47.27,2.22a5.4,5.4,0,0,0,.58,1.78,4.74,4.74,0,0,1,.51,2.6c0,1.11,0,2.23,0,3.34ZM41.84,24.63a10.49,10.49,0,0,0,2.9,4l-2.81,2.83A10.78,10.78,0,0,0,38.43,28ZM24.3,63.38c-1,1-2,2-2.95,2.94a2.53,2.53,0,0,1-2.76.67,2.48,2.48,0,0,1-1.69-2.14,2.19,2.19,0,0,1,.6-1.93q2.63-2.69,5.3-5.32l1.42-1.43a10.77,10.77,0,0,0,3.65,3.64ZM35.45,43.33a.58.58,0,0,1,.23.2c0,.84,0,1.69,0,2.59v.41a10.73,10.73,0,0,0-5.13-2.12v-3l.7.34c.84.41,1.72.84,2.6,1.22a4,4,0,0,0,1,.24A5.84,5.84,0,0,1,35.45,43.33Zm6.09-25.46a17.46,17.46,0,0,0-.38,2.72,2.36,2.36,0,0,1-.87,1.79c-2,2-4.1,4.07-6.85,6.85a5.21,5.21,0,0,0-1,6.48,5.42,5.42,0,0,0,3.24,2.44V40.7A7.69,7.69,0,0,1,29.39,35a7.49,7.49,0,0,1,2-7.26c2.46-2.51,5-5,7.45-7.48l2.54-2.52a2,2,0,0,1,.26-.24ZM35.6,51.55a2.4,2.4,0,0,1-1.32,1.55,5.1,5.1,0,0,0-3.61-3.4,4.92,4.92,0,0,0-4.37.81,5.61,5.61,0,0,0-.81.7l-.73.73q-4.4,4.38-8.78,8.77a5.2,5.2,0,0,0,2.56,9,5.44,5.44,0,0,0,4.74-1.6c2.37-2.34,4.7-4.68,6.86-6.86a.76.76,0,0,1,.79-.23c.78.12,1.57.18,2.33.24l.45,0-2.19,2.21c-2.15,2.15-4.38,4.39-6.58,6.56a7.38,7.38,0,0,1-7.72,2,7.28,7.28,0,0,1-5.33-5.83A7.41,7.41,0,0,1,14,59c3.6-3.65,6.64-6.71,9.77-9.78a8,8,0,0,1,5.58-2.33h.32a7.56,7.56,0,0,1,5.45,2.64A2.12,2.12,0,0,1,35.6,51.55ZM26.24,54.4a.76.76,0,0,1-.06-.18c.54-.53,1.09-1.06,1.69-1.62l.27-.26a5.22,5.22,0,0,0,2,2.77,5,5,0,0,0,5.19.45,4.85,4.85,0,0,0,3-4.46c.07-5.43.07-10.17,0-14.48A4.83,4.83,0,0,0,35,32.09l-.41-.16h0l1.81-2a7.64,7.64,0,0,1,3.33,3,8,8,0,0,1,1.16,4.35v.66c0,4.17,0,8.48,0,12.72A7.74,7.74,0,0,1,26.24,54.4Zm17.67-21c2.06-2,4.1-4.06,6.08-6.06l.28-.28a5.1,5.1,0,0,0,.91-6.54,7.69,7.69,0,0,0-1-1.25l-.36-.38c.7-.57,2.24-1,2.86-.63a2.83,2.83,0,0,1,.84,1.11,7.64,7.64,0,0,1-1.33,9.42Q50,31,47.88,33.09l-2.47,2.46-1.53,1.56-.41.42v-.06c0-.22,0-.45,0-.68a5.38,5.38,0,0,0-.16-1.55A1.58,1.58,0,0,1,43.91,33.4ZM68,20.55a2.53,2.53,0,0,1-1.79,2.7,4.31,4.31,0,0,1-1,.14H57.33l-.17,0a11.08,11.08,0,0,0-1.3-5.12h9.65A2.54,2.54,0,0,1,68,20.55ZM55.75,28.41c.18-.34.35-.67.5-1s.27-.69.41-1.06l.12-.34h1.74c1.5,0,3.06,0,4.59,0h.61a14.45,14.45,0,0,0,3.22-.27,5,5,0,0,0,3.64-5.51,5,5,0,0,0-4.68-4.5c-2.4-.08-4.84-.08-7.21-.08H56.9c-1.93,0-3.92,0-5.87.09a4.69,4.69,0,0,0-4.43,3.42A5,5,0,0,0,48,24.67c.14.13.3.26.44.37l-1.81,1.82a7.35,7.35,0,0,1-2.79-4.64,7.71,7.71,0,0,1,6.77-9.12,5.7,5.7,0,0,1,.73,0h14A7.68,7.68,0,0,1,73,19.23a7.57,7.57,0,0,1-1.43,6.31,7.29,7.29,0,0,1-5.49,2.94c-2.44.1-4.93.09-7.34.08H55.67Z"/></svg>