<svg id="Layer_1" data-name="Layer 1" xmlns="http://www.w3.org/2000/svg" viewBox="0 0 85.04 85.04"><path d="M66.82,41.54A24.79,24.79,0,0,0,54.15,22.82a1,1,0,0,0-1.51.4l-.12.18-.63-.28-1.74-.74a.69.69,0,0,1-.52-.53A2.2,2.2,0,0,0,48,20.26a3.56,3.56,0,0,0-.57-.09h-.15v-.05a3.4,3.4,0,0,1,.07-.34c.07-.3.16-.59.24-.89.16-.59.33-1.19.47-1.8a.92.92,0,0,0-.3-.94.83.83,0,0,0-.87-.08,1.27,1.27,0,0,0-.56.73c-.26.87-.51,1.75-.74,2.61l-.89,3.22-1.29,4.65A.87.87,0,0,0,44,28.46a.81.81,0,0,0,.65,0,1.05,1.05,0,0,0,.53-.67c.06-.2.11-.4.17-.6l.09-.35c.15-.52.29-1,.44-1.56l.24-.82.09,0,.38.17a2,2,0,0,0,2.16-.25c.53-.52,1-.38,1.5-.11.22.1.43.21.64.32l.6.3c.21.11.24.2.13.44-.52,1.13-.47,1.29.63,1.93A20.15,20.15,0,1,1,22.22,42a19.72,19.72,0,0,1,7.84-13.31c1.15-.88,1.19-1,.6-2.28l.36-.22c.35-.21.68-.41,1-.63s.41-.18.65.09a5.74,5.74,0,0,0,4.44,2h0a5.94,5.94,0,0,0,4.66-2.22,6,6,0,0,0-4.73-9.72H36.9a6,6,0,0,0-4.4,2.22,5.78,5.78,0,0,0-1.3,4.6,3.9,3.9,0,0,0,.12.46,1.31,1.31,0,0,1,.08.78,1.57,1.57,0,0,1-.71.54l-.4.23-.16.1-.24.16c-.16.12-.24.12-.39-.08-.3-.4-.55-.65-.85-.69a1.43,1.43,0,0,0-1,.43C19.19,31,15.9,39.45,17.9,49.69A24.08,24.08,0,0,0,28.82,65.56a25,25,0,0,0,13.35,3.85,24.58,24.58,0,0,0,6.13-.77,24.8,24.8,0,0,0,18.52-27.1ZM53.75,26.14c-.22-.14-.33-.25-.35-.36a.54.54,0,0,1,.12-.37,3,3,0,0,0,.28-.5l.09-.17A23,23,0,0,1,65.21,44.93a23.05,23.05,0,1,1-44.72-8.19,22.24,22.24,0,0,1,7.86-10.55l.63,1-.34.28-.8.68a21.66,21.66,0,0,0-7.35,13.34A21.92,21.92,0,1,0,53.75,26.14Zm-5.81-3.65a.54.54,0,0,1-.13.39.51.51,0,0,1-.39.15h0a.5.5,0,0,1-.53-.51c0-.36.2-.53.54-.53h0A.49.49,0,0,1,47.94,22.49Zm-15-.84a4.19,4.19,0,0,1,1.24-3,4.13,4.13,0,0,1,2.92-1.21h0a4.19,4.19,0,0,1,0,8.37h0a4.08,4.08,0,0,1-2.91-1.2A4.19,4.19,0,0,1,33,21.65Z"/></svg>