<svg id="Layer_1" data-name="Layer 1" xmlns="http://www.w3.org/2000/svg" viewBox="0 0 85.04 85.04"><path d="M74.31,31.64,71.64,28c-2.26-3.11-4.6-6.34-6.88-9.52a2.34,2.34,0,0,0-2.08-1.06h0c-5,0-10.07,0-15,0H23.08a2.13,2.13,0,0,0-1.89.94c-2.34,3.26-4.74,6.56-7,9.75l-2.6,3.58c-.73,1-.71,1.48.13,2.39l7.46,8.06L41.49,66.28c.55.59,1,1,1.44,1s.91-.38,1.47-1L74.22,34C75,33.14,75.06,32.67,74.31,31.64Zm-3.41-.19H55.77l7.46-10.28.1-.14ZM51.31,34.14,43,61.3h0L34.56,34.14Zm-26.1-14H40.28L32.75,30.51Zm6.55,14,8.17,26.51L15.42,34.14Zm3.62-2.7L42.94,21,50.5,31.44ZM45.6,20.15H60.66L53.14,30.51Zm24.87,14L45.94,60.66l8.18-26.52ZM15,31.44,22.55,21l7.56,10.41Z"/></svg>