<svg id="Layer_1" data-name="Layer 1" xmlns="http://www.w3.org/2000/svg" viewBox="0 0 85.04 85.04"><path d="M66.39,23.26a15.68,15.68,0,0,0-8.82-8.13,33.73,33.73,0,0,0-7.83-1.63A88.28,88.28,0,0,0,38.66,13a41.51,41.51,0,0,0-9.8,1.27,23.55,23.55,0,0,0-9,4.16,8.63,8.63,0,0,0-3.61,7.32c.07,3.14.05,6.33,0,9.42,0,1.56,0,3.12,0,4.68a7.72,7.72,0,0,0,.14,1.66A8.68,8.68,0,0,0,20,46.78a24.12,24.12,0,0,0,9.31,4.13c.71.17,1.41.31,2.16.46l.82.17,0,0-.49.36-2.91,2-4.71,3.31a2.07,2.07,0,0,0-.1,3.53l1.59,1.28c2.21,1.77,4.49,3.61,6.75,5.4,1.17.92,2.37,1.85,3.53,2.74l1.62,1.25,0,0h1.13L39,71.3a4.58,4.58,0,0,0,.7-.44l2.8-2.22c2.29-1.82,4.67-3.7,6.92-5.65A109.6,109.6,0,0,0,63.69,48.11c3.37-4.26,5-8.25,5.1-12.56A25.73,25.73,0,0,0,66.39,23.26Zm-4,16.41a1.13,1.13,0,0,0-.14,1.72c.2.28.4.57.61.85.32.45.65.91,1,1.37a.55.55,0,0,1,.06.4c-.72,1-1.44,2.06-2.21,3.14l-.58.83-.65-.75c-.63-.72-1.22-1.41-1.85-2.07a1.64,1.64,0,0,0-1.08-.53h0a1.17,1.17,0,0,0-.88.69,1.38,1.38,0,0,0,.23,1.14c.54.69,1.13,1.36,1.71,2l.66.75.25.29.13.15L56,53.58,55.28,53l-2.14-1.83-.38-.33-.65-.56a1.12,1.12,0,1,0-1.45,1.68l2.59,2.22,1.08.93-3.56,3.86-3.9-3.34-.51-.44a1.41,1.41,0,0,0-1-.38,1.05,1.05,0,0,0-.7.4,1.11,1.11,0,0,0,.27,1.66L47.47,59l1.28,1.1.27.23,0,0-3.93,3.4,0-.12L45,63.07a4.3,4.3,0,0,0-4.21-3.34l-.45,0c-1.7.16-2.47-.39-2.84-2.08a4.31,4.31,0,0,0-4.17-3.36H32.23l.68-.5c6-4.31,13-9.49,19.5-15.2a67.4,67.4,0,0,0,9-9.36,6.93,6.93,0,0,0-.23-9.15c-.28-.33-.56-.66-.84-1a13.49,13.49,0,0,1,2.38,2.45,18.6,18.6,0,0,1,3.4,8.14A22.4,22.4,0,0,1,66.1,39c-.16.65-.39,1.29-.63,2-.1.25-.19.52-.29.79l-.28-.41L64,40.11C63.55,39.44,62.92,39.27,62.36,39.67ZM38,69.12c-4-3.21-8.06-6.42-12.52-10l0,0,1.16-.8.6-.42c.47-.31.95-.64,1.4-1,.83-.64,1.45-1,2.4-.47a3.15,3.15,0,0,0,1.85.13,2.17,2.17,0,0,1,2.48,1.7,4.39,4.39,0,0,0,4,3.77,3.64,3.64,0,0,0,.81,0,2.2,2.2,0,0,1,2.73,1.89c.09.33.2.66.33,1l.15.43-.86.66c-1.37,1-2.78,2.11-4.19,3.16A.36.36,0,0,1,38,69.12ZM33.7,49.53l-.87-.18c-1.2-.24-2.33-.48-3.47-.74a.69.69,0,0,1-.2-.43c0-1,0-2.07,0-3.09V43.47a1.2,1.2,0,0,0-.86-1.31l-.27,0a1,1,0,0,0-.65.22,1.31,1.31,0,0,0-.46,1c0,.93,0,1.86,0,2.79V48l-.66-.3c-1-.43-1.86-.84-2.74-1.28-.08,0-.17-.25-.17-.44,0-1.28,0-2.57,0-3.83V40.53c0-.82-.49-1.33-1.14-1.32s-1.09.55-1.09,1.36v4.22c-1.57-1.3-2.54-2.47-2.58-4.14-.07-2.57-.06-5.18,0-7.7,0-1,0-2,0-3a19.83,19.83,0,0,0,8.81,4.92,44.21,44.21,0,0,0,15.54,1.64,40,40,0,0,0,10.92-2.23A180,180,0,0,1,35.92,48.88V46.16c0-.58,0-1.17,0-1.76a1.38,1.38,0,0,0-.39-1,1,1,0,0,0-.75-.27,1.15,1.15,0,0,0-1.07,1.3v5.13Zm25.65-21.2a14.59,14.59,0,0,1-5.54,3.46A37.52,37.52,0,0,1,42.92,34.2,40.11,40.11,0,0,1,28,32.71,19.23,19.23,0,0,1,20.75,29a6.22,6.22,0,0,1-2.18-3.29,4.45,4.45,0,0,1,.94-3.84,13.09,13.09,0,0,1,5.26-3.83,31.79,31.79,0,0,1,9.8-2.53c1.24-.12,2.47-.21,3.45-.27L39,15.2c6.47.11,11,.93,15.27,2.74a14.5,14.5,0,0,1,4.89,3.15,5.2,5.2,0,0,1,1.74,3.66A5,5,0,0,1,59.35,28.33Z"/><path d="M49.7,19.93a18.77,18.77,0,0,0-7.94-3.57,2.7,2.7,0,0,0-2.93,1.24.94.94,0,0,1-.53.31c-.6.1-1.22.18-1.81.27-1.1.15-2.24.31-3.33.57a9.68,9.68,0,0,0-5,2.69A4,4,0,0,0,27.92,27a7.33,7.33,0,0,0,2.68,2,23.58,23.58,0,0,0,9.46,1.86h0l.83-.07c.79-.07,1.78-.16,2.76-.3a18.81,18.81,0,0,0,2.67-.59,10.31,10.31,0,0,0,4.91-2.71,3.73,3.73,0,0,0,.58-4.73A9.48,9.48,0,0,0,49.7,19.93Zm-.15,5.8a7,7,0,0,1-2.64,1.56l.33-6.41A6.59,6.59,0,0,1,50,23.59,1.8,1.8,0,0,1,49.55,25.73ZM38.33,20.11l-.59,8.34a15,15,0,0,1-7.13-2.1,2.69,2.69,0,0,1-1.47-2,2.69,2.69,0,0,1,1.46-2,13.86,13.86,0,0,1,5.75-2l1.44-.16ZM40,27.32c.06-.89.11-1.72.17-2.55.11-1.48.22-3,.34-4.44l.09-1.1a.79.79,0,0,1,.25-.63.45.45,0,0,1,.27-.07,1.34,1.34,0,0,1,.36.06l2,.63,1.3.42a.33.33,0,0,1,.27.41c-.16,2.92-.29,5.31-.39,7.53,0,.36-.13.48-.48.52l-3.1.38L40,28.63Z"/><path d="M37.33,63.63c-1.41-1.14-2.94-2.36-4.66-3.72a1.91,1.91,0,0,0-.47-.26l-.32-.14-.07,0-.06.05a2.48,2.48,0,0,1-.26.19,1.89,1.89,0,0,0-.56.53,1,1,0,0,0,.24,1.29c1.5,1.21,3.11,2.5,4.93,3.93a1,1,0,0,0,.65.25,1.14,1.14,0,0,0,.75-.32,1,1,0,0,0,.36-.79A1.33,1.33,0,0,0,37.33,63.63Z"/><path d="M42.57,25.9h0a1.15,1.15,0,0,0,1.11-1.22v-.81a1.17,1.17,0,0,0-1.11-1.16h0a1.15,1.15,0,0,0-1.11,1.14,7.33,7.33,0,0,0,0,.81A1.14,1.14,0,0,0,42.57,25.9Z"/></svg>