<svg id="Layer_1" data-name="Layer 1" xmlns="http://www.w3.org/2000/svg" viewBox="0 0 85.04 85.04"><path d="M21.56,60.37a1.31,1.31,0,0,1,.42.69c.24,1.56.46,3,.61,4.41a4.72,4.72,0,0,0,1.26,2.9c1.13,1.22,2.22,2.52,3.27,3.77l1.21,1.44c.61.71.75.75,1.65.48l1.81-.54,6.76-2a1.57,1.57,0,0,0,1-.87C41,67.71,42.54,64.74,44,61.87L45,59.8c.07-.14.14-.27.22-.4l.11-.2.07-.12.11.08a15.94,15.94,0,0,0,11.51,2.67,15.61,15.61,0,0,0,9.44-5.16A15.86,15.86,0,0,0,45.86,32.92l-.12.07-.06-.13c-.08-.19-.17-.37-.26-.55a6.9,6.9,0,0,1-.5-1.23c-.42-1.59-.83-3.35-1.32-5.53a1.16,1.16,0,0,0-1-1l-3.74-.95c-1.82-.47-3.71-.95-5.56-1.4a4.76,4.76,0,0,1-2.19-1.15c-.53-.5-1.09-1-1.63-1.44s-.9-.75-1.33-1.15a1.18,1.18,0,0,0-.79-.35,1.39,1.39,0,0,0-.66.19c-2.22,1.13-4.51,2.28-6.81,3.4a1.91,1.91,0,0,0-1,1c-1.57,3.5-3,6.62-4.34,9.54a1.87,1.87,0,0,0-.09,1.43c.89,2.79,1.75,5.55,2.56,8.21a2.08,2.08,0,0,1,0,1.08c-.7,2.78-1.64,6.44-2.62,10.08A1.35,1.35,0,0,0,15,54.61C17.19,56.5,19.41,58.47,21.56,60.37Zm7.53,11.55L29,71.77l-1.14-1.33c-1.11-1.28-2.16-2.49-3.19-3.75a2,2,0,0,1-.31-1l0-.21c-.16-1-.31-2-.45-3.06l-.19-1.3H34.49l-.09.18Zm-5-12.49.1-.18,7.29-13.78L37,49c.68.44,1.38.89,2.05,1.35a1.23,1.23,0,0,1,.48.57,16.24,16.24,0,0,0,3.31,5.76,1.73,1.73,0,0,1,.15.2l.08.14.1.14L38.47,58.6l-.23.06c-.13,0-.26.07-.38.12a11.48,11.48,0,0,1-4.06.68h-.35c-2,0-4,0-6,0H24.07Zm6.81,12.62,4.74-9.49,2,7.46Zm8-3.77-2-7.47,6.82-2ZM54.63,32h0A14.25,14.25,0,0,1,68.85,46.16,14.29,14.29,0,0,1,54.61,60.38h0A14.29,14.29,0,0,1,40.42,46.15,14.24,14.24,0,0,1,54.63,32ZM44,33.45l.41.2,0,.12a1.11,1.11,0,0,0-.07.16.94.94,0,0,1-.22.39,15.83,15.83,0,0,0-5.2,13.75l0,.26L32.5,44.16l.12-.11Zm-1.64-5.78c.3,1.29.6,2.55.89,3.82a.67.67,0,0,1-.19.56l-9.84,9.16-1.58,1.46L29.28,30.76l.11,0L42.1,26.48ZM28.63,21.09l.57.47c.39.33.76.63,1.1,1a4.62,4.62,0,0,0,2.32,1.21c1.47.34,3,.72,4.39,1.1l1.68.43.31.11.22.08.35.12-.35.11L29.08,29.07l-.68-8.18Zm-.76,11,.05.25,2.19,11L19.72,41.8Zm-1.2-11.85.67,8-6-5.32ZM16.16,33.33a.76.76,0,0,1,.05-.53l3.05-6.75.91-2,7,6.22-.08.09L18.47,40.7l-.41-1.32C17.41,37.33,16.78,35.33,16.16,33.33ZM16.24,53c.67-2.64,1.37-5.32,2.05-7.92l.46-1.78L23.4,44l6.48.93-7.41,14-1.32-1.15L18.76,55.7l-.41-.35c-.62-.54-1.26-1.1-1.87-1.67A.76.76,0,0,1,16.24,53Z"/><path d="M50.09,20.81h0a.8.8,0,0,0,.8.79h3v5.74a.8.8,0,0,0,.8.8h0a.8.8,0,0,0,.8-.8V26.21c0-1.81,0-3.59,0-5.38a.76.76,0,0,0-.87-.84l-3.69,0A.8.8,0,0,0,50.09,20.81Z"/><path d="M50.09,71.53h0a.8.8,0,0,0,.81.8h3.44c.87,0,1.11-.23,1.11-1.08V65a.81.81,0,0,0-.81-.81h0a.81.81,0,0,0-.81.81v5.74H50.9A.81.81,0,0,0,50.09,71.53Z"/><rect x="42.57" y="20.02" width="1.57" height="1.56" rx="0.77"/><rect x="46.35" y="20.01" width="1.54" height="1.58" rx="0.77"/><rect x="42.59" y="70.73" width="1.56" height="1.55" rx="0.77"/><rect x="46.34" y="70.75" width="1.56" height="1.55" rx="0.77"/><path d="M66.53,42.72c-.82-1.65-1.64-3.37-2.46-5.12a1.07,1.07,0,0,0-1.1-.72h0c-5.36,0-10.81,0-16.67,0h0a1,1,0,0,0-1.06.67c-.72,1.54-1.53,3.28-2.39,5A1.43,1.43,0,0,0,43,44.25c2.72,3.59,5.47,7.26,8.13,10.8l2.65,3.54c.62.82,1.1.84,1.71,0l3.94-5.26.55-.75.18-.24-1.31-1L57,53.84l-.31-.18,0-.09L59,44.19H64.2l-1,1.39,1.31,1,.53-.71c.46-.62.9-1.22,1.37-1.81A1.11,1.11,0,0,0,66.53,42.72ZM56.25,42.5H53.07l1.57-1.62Zm-1.82-4L50.9,42.09l-.09-.1-2.92-3.44Zm-9.64,3.77,1.48-3.09,2.8,3.26H44.7Zm7.49,11.53-.06-.09L45,44.18h5.2l0,.1,2.34,9.39Zm2.53.41h-.34l0-.09L52,44.21h5.37Zm3.54-12.15-3.47-3.58h6.51Zm1.84.4L63,39.22l1.58,3.29Z"/><rect x="60.62" y="48.14" width="2.12" height="1.65" transform="translate(-14.43 69.21) rotate(-53.34)"/></svg>