<svg id="Layer_1" data-name="Layer 1" xmlns="http://www.w3.org/2000/svg" viewBox="0 0 85.04 85.04"><path d="M72.25,21.6a5.24,5.24,0,0,0-1.54-2.33,4.09,4.09,0,0,0-2.46-.89H66.11v-.92a3.66,3.66,0,0,0-3.67-3.64h0a3.66,3.66,0,0,0-3.67,3.64v.88H46.5v-.86a3.67,3.67,0,0,0-3.65-3.66h0a3.67,3.67,0,0,0-3.68,3.67v.86H26.89v-.79a3.65,3.65,0,0,0-3.68-3.74h0a3.68,3.68,0,0,0-3.65,3.71c0,.23,0,.45,0,.69v.16H17.74a4.13,4.13,0,0,0-4.35,4.36v45.5a4.18,4.18,0,0,0,3.12,4.38l.13.09H69l0,0,.4-.18a5.84,5.84,0,0,0,.94-.46A4,4,0,0,0,72,70a3.09,3.09,0,0,1,.14-.32l.1-.2V21.7Zm-28.53.72c0,.83,0,1.66,0,2.49a1.12,1.12,0,0,1-.44,1,.82.82,0,0,1-.78,0,.91.91,0,0,1-.55-.91c0-2.69,0-5.05,0-7.23a1.19,1.19,0,0,1,.32-.82.82.82,0,0,1,.56-.22h0a.94.94,0,0,1,.86,1c0,.85,0,1.69,0,2.53v2.15Zm-24.15,2.6A4.74,4.74,0,0,0,20,26.75a3.57,3.57,0,0,0,4,1.85,3.68,3.68,0,0,0,2.88-3.49c0-.91,0-1.82,0-2.74V21.18H39.16v1.45q0,1.22,0,2.43a3.64,3.64,0,0,0,3.68,3.62h0a3.63,3.63,0,0,0,3.64-3.6c0-.91,0-1.82,0-2.73V21.19H58.77V25a3.64,3.64,0,0,0,2.76,3.58,3.58,3.58,0,0,0,3.1-.61,3.52,3.52,0,0,0,1.47-2.73c0-1,0-1.93,0-2.94V21.17h.53c.57,0,1.1,0,1.64,0a1.22,1.22,0,0,1,1.18,1.22c0,2.5,0,5.05,0,7.52v2.56H16.17V22.87c0-1.22.5-1.72,1.74-1.72h1.64c0,.31,0,.62,0,.93C19.53,23,19.52,24,19.57,24.92Zm43.76-4.75v2.11q0,1.26,0,2.52a1.11,1.11,0,0,1-.45.95.8.8,0,0,1-.77.05.9.9,0,0,1-.55-.91c0-2.92,0-5.17,0-7.29a1.06,1.06,0,0,1,.3-.76.83.83,0,0,1,.57-.23h0a.94.94,0,0,1,.88,1C63.34,18.48,63.34,19.33,63.33,20.17Zm-39.22,0v2.2c0,.81,0,1.63,0,2.44a1.12,1.12,0,0,1-.45.93.83.83,0,0,1-.78,0,.92.92,0,0,1-.54-.93q0-3.62,0-7.23a.94.94,0,0,1,.88-1h0a.82.82,0,0,1,.56.22,1.15,1.15,0,0,1,.32.83C24.12,18.5,24.11,19.35,24.11,20.19Zm40.14,27a1.41,1.41,0,0,0,1.17,1.52A1.38,1.38,0,0,0,67,47.77,2.66,2.66,0,0,0,67,47V35.33h2.47V68.09c0,1.37-.46,1.83-1.81,1.83H18c-1.31,0-1.8-.48-1.8-1.77V35.32H64.24v3.24Q64.24,42.88,64.25,47.2Z"/><path d="M49.71,56.92l-.36-2.07a.59.59,0,0,1,.21-.63c.76-.72,1.51-1.46,2.25-2.19l.81-.8.33-.32c.26-.24.53-.5.78-.77A1.38,1.38,0,0,0,53,47.8l-.64-.11L51,47.5c-1.3-.2-2.61-.39-3.92-.57a.47.47,0,0,1-.43-.33c-.44-.9-.88-1.8-1.33-2.7s-.74-1.5-1.1-2.25a1.54,1.54,0,0,0-1.4-1h0a1.53,1.53,0,0,0-1.4,1c-.72,1.48-1.58,3.23-2.48,5a.56.56,0,0,1-.34.26c-1.37.22-2.76.42-4.14.62l-1.25.18a1.66,1.66,0,0,0-1.6,1,1.58,1.58,0,0,0,.66,1.74l1.12,1.1c.8.8,1.64,1.62,2.49,2.4a1.13,1.13,0,0,1,.38,1.24c-.26,1.32-.48,2.64-.7,3.93l-.24,1.44v0A1.42,1.42,0,0,0,36,62a1.46,1.46,0,0,0,1.51,0c1.65-.84,3.33-1.72,5-2.62a.66.66,0,0,1,.75,0c1,.53,2,1.06,3,1.58l2,1a1.8,1.8,0,0,0,.84.24,1.27,1.27,0,0,0,.81-.3,1.47,1.47,0,0,0,.51-1.56C50.1,59.2,49.9,58.06,49.71,56.92Zm-3.26-2.43c.17.89.32,1.81.47,2.69l.17,1-.58-.29c-.75-.38-1.46-.73-2.13-1.15a2.58,2.58,0,0,0-3.05,0c-.67.42-1.38.78-2.13,1.16l-.6.3c0-.22.06-.44.1-.66a22.94,22.94,0,0,1,.44-2.44,2.48,2.48,0,0,0-.86-2.75,24,24,0,0,1-1.73-1.76l-.45-.49.62-.09c.87-.14,1.76-.28,2.65-.37a2.14,2.14,0,0,0,1.94-1.37c.36-.82.77-1.63,1.19-2.47.12-.22.23-.45.34-.67l.35.68c.44.86.85,1.67,1.21,2.51a2.11,2.11,0,0,0,1.91,1.32c.84.09,1.7.22,2.52.34l.69.1-.5.54c-.64.69-1.3,1.41-2,2.1A1.81,1.81,0,0,0,46.45,54.49Z"/><path d="M48.82,45A1.47,1.47,0,0,0,50,44.45c.55-.72,1.11-1.49,1.7-2.35a2,2,0,0,0,.25-.54l0-.11,0-.05v0a1.41,1.41,0,0,0-.88-1.42,1.27,1.27,0,0,0-1.56.42c-.73.92-1.33,1.75-1.86,2.53a1.38,1.38,0,0,0,.38,1.91A1.32,1.32,0,0,0,48.82,45Z"/><path d="M35.78,44.56a1.17,1.17,0,0,0,1,.48,1.63,1.63,0,0,0,.63-.14,1.35,1.35,0,0,0,.81-1.37v-.07s0,0,0-.06A1,1,0,0,0,38,43l-.26-.37c-.54-.77-1.1-1.56-1.7-2.3a1.29,1.29,0,0,0-1.83-.17,1.37,1.37,0,0,0-.34,1.82C34.45,42.79,35.07,43.65,35.78,44.56Z"/><path d="M55.78,54.66c-.81-.28-1.66-.56-2.6-.84a1.4,1.4,0,0,0-1.8.86,1.38,1.38,0,0,0,.89,1.77c.92.34,1.86.64,2.78.9a1.32,1.32,0,0,0,.39.06,1.34,1.34,0,0,0,.79-.26A1.44,1.44,0,0,0,56.78,56h0A1.36,1.36,0,0,0,55.78,54.66Z"/><path d="M32.59,53.78c-.94.28-1.88.59-2.81.93a1.27,1.27,0,0,0-.91,1.19,1.61,1.61,0,0,0,.58,1.27,1.21,1.21,0,0,0,.72.25,1.87,1.87,0,0,0,.32,0,30.72,30.72,0,0,0,3-1,1.33,1.33,0,0,0,.73-1.75A1.39,1.39,0,0,0,32.59,53.78Z"/><path d="M44.21,63.4a9,9,0,0,0,0-1A1.37,1.37,0,0,0,42.81,61h-.05a1.33,1.33,0,0,0-1.33,1.39c0,1,0,1.9,0,2.8a1.37,1.37,0,0,0,1.38,1.34h0a1.37,1.37,0,0,0,1.36-1.37c0-.3,0-.6,0-.91V63.4Z"/><path d="M65.61,54.11h0a1.43,1.43,0,0,0,1-.4,1.42,1.42,0,0,0,.42-1,1.39,1.39,0,0,0-1.36-1.38,1.49,1.49,0,0,0-1,.4,1.37,1.37,0,0,0-.41,1A1.4,1.4,0,0,0,65.61,54.11Z"/></svg>