<svg id="Layer_1" data-name="Layer 1" xmlns="http://www.w3.org/2000/svg" viewBox="0 0 85.04 85.04"><path d="M47.66,17.29a3.94,3.94,0,0,1,.56.9c.26.85.4,1.72.66,2.57a9,9,0,0,0,.69,1.64c.27.54.25,1-.16,1.24s-.85.16-1.23-.36A9.8,9.8,0,0,1,47,19.92c-.09-.32-.16-.65-.25-1H38.37c-.18.74-.37,1.49-.56,2.25a5.79,5.79,0,0,1-5.45,4.64c-.52,0-1,.12-1.53.19A11.95,11.95,0,0,0,54.3,26l-1.41-.21-.79-.1a.82.82,0,0,1-.72-.89.76.76,0,0,1,.87-.71c.84.08,1.69.2,2.53.3,1.13.14,2.26.23,3.37.45a5.43,5.43,0,0,1,4.24,6.89,53.67,53.67,0,0,1-7.7,16.4,21.72,21.72,0,0,1-5.28,5.37,11.94,11.94,0,0,1-14,0,22.3,22.3,0,0,1-6-6.3,51.39,51.39,0,0,1-6.78-15.67,5.51,5.51,0,0,1,4.67-6.8c1.77-.24,3.54-.47,5.31-.68a4,4,0,0,0,3.51-3c.26-1,.46-1.95.74-2.91a4.64,4.64,0,0,1,.56-.95Zm-3.23,20c.56,1,1.16,1.89,1.66,2.89a4.15,4.15,0,0,1,.36,3,4,4,0,0,1-7.84-1.76A9.31,9.31,0,0,1,40.29,38l.47-.64-3.5-1c.1.28.23.56.32.86a3.15,3.15,0,0,1-1.26,3.6,3.22,3.22,0,0,1-3.79-.15,3.1,3.1,0,0,1-.85-4c.5-1,1.17-1.86,1.79-2.82a13.74,13.74,0,0,1-4.33-7.69c-.52.07-1,.14-1.47.19a3.9,3.9,0,0,0-3.43,4.94,54.34,54.34,0,0,0,5.1,12.78,24.24,24.24,0,0,0,6.27,7.61,10.53,10.53,0,0,0,13.09.35A21.85,21.85,0,0,0,54.28,46a55.81,55.81,0,0,0,6.55-14.64A3.36,3.36,0,0,0,61,30c-.37-3-2.67-3.77-5-3.71A13.79,13.79,0,0,1,51.55,34a5.3,5.3,0,0,1,.5.6,22.27,22.27,0,0,1,1.56,2.66,3,3,0,0,1-1,3.44,3.19,3.19,0,0,1-3.7.2,3.1,3.1,0,0,1-1.4-3.37c.09-.39.24-.77.35-1.14Zm-1.88.43a9.8,9.8,0,0,0-2.36,4.09,2.35,2.35,0,0,0,1,2.33,2.39,2.39,0,0,0,3.7-2.34A10,10,0,0,0,42.55,37.73Zm-7.89-2.36h-.27c-.45.75-1,1.48-1.33,2.26a1.45,1.45,0,0,0,.5,1.78,1.53,1.53,0,0,0,1.9,0A1.45,1.45,0,0,0,36,37.63C35.6,36.84,35.11,36.12,34.66,35.37Zm16.08,0-.22,0A6.93,6.93,0,0,0,49,37.85a1.5,1.5,0,0,0,.63,1.61,1.55,1.55,0,0,0,1.82,0,1.39,1.39,0,0,0,.6-1.61C51.7,37,51.2,36.19,50.74,35.36Z"/><path d="M68.23,65.34a3,3,0,0,0-.12.32,4,4,0,0,1-6.35,2.12,1.18,1.18,0,0,1-.4-.84.86.86,0,0,1,.54-.62,1.16,1.16,0,0,1,.85.21A2.38,2.38,0,0,0,66.58,65a2,2,0,0,0-.15-1.06c-.66-1.4-1.37-2.77-2.06-4.16h-.19c-.3.49-.6,1-.89,1.47s-.38.71-.59,1.05a.81.81,0,1,1-1.41-.78c.59-1,1.19-2.05,1.81-3.06.46-.74.42-1-.35-1.36a3.21,3.21,0,1,1,4.67-3c0,.57-.27.91-.75.93s-.79-.26-.85-.83a1.65,1.65,0,0,0-1.54-1.57,1.63,1.63,0,0,0-1.64,1.34,1.52,1.52,0,0,0,.8,1.64A2.49,2.49,0,0,1,65,57.86c0,.15.14.29.22.44.84,1.5,1.68,3,2.5,4.49A11,11,0,0,1,68.23,64Z"/><path d="M56.16,68.67a4,4,0,0,1-3.78-5.13,22,22,0,0,1,2.72-5.16c.42-.67.37-.91-.34-1.28a3.24,3.24,0,0,1-1.68-3.71,3.22,3.22,0,0,1,6.28.24,3.39,3.39,0,0,1,0,.55.79.79,0,0,1-.76.83.78.78,0,0,1-.84-.75,1.62,1.62,0,0,0-1.11-1.56,1.57,1.57,0,0,0-1.94.82,1.59,1.59,0,0,0,.62,2,3.54,3.54,0,0,1,.94.64A6.46,6.46,0,0,1,57,57.52c.13.3.19.63.34.91.84,1.57,1.8,3.08,2.53,4.7a3.91,3.91,0,0,1-2.94,5.46C56.66,68.63,56.41,68.64,56.16,68.67Zm0-9a19.79,19.79,0,0,0-2.27,4.37,2.29,2.29,0,0,0,0,1.22,2.38,2.38,0,0,0,3,1.64,2.32,2.32,0,0,0,1.56-3A21.36,21.36,0,0,0,56.19,59.7Z"/><path d="M23.29,62.23H28.7c.76,0,1,.25,1,1,0,1,0,2,0,3a2.37,2.37,0,0,1-2.38,2.38q-4,0-8.07,0a2.35,2.35,0,0,1-2.38-2.37c0-1,0-2.08,0-3.11,0-.66.28-.93,1-.93Zm-4.81,1.62c0,.75,0,1.45,0,2.15s.3,1,1,1h7.56c.62,0,1-.24,1-.74,0-.81,0-1.62,0-2.45Z"/><path d="M23.31,49.39h4a2.37,2.37,0,0,1,2.44,2.43v7.82c0,.64-.29,1-.81,1s-.79-.34-.79-1V52.12c0-.85-.28-1.12-1.11-1.13H19.59c-.84,0-1.11.28-1.11,1.12v7.57c0,.6-.29.94-.79.94a.76.76,0,0,1-.81-.77c0-2.77,0-5.55,0-8.32a2.33,2.33,0,0,1,2.26-2.14Z"/><path d="M41.24,68.65c-3.09,0-6.18,0-9.27,0a1.22,1.22,0,0,1-.82-.42.84.84,0,0,1,0-.77,1.26,1.26,0,0,1,.84-.38c3.19,0,6.38,0,9.58,0h8.92c.38,0,.73.09.84.47a1,1,0,0,1-.08.78,1.18,1.18,0,0,1-.81.34C47.39,68.66,44.32,68.65,41.24,68.65Z"/><path d="M25.27,57.27a3.24,3.24,0,0,1,1.23,2.51.8.8,0,1,1-1.6.06,1.61,1.61,0,1,0-3.21,0,.79.79,0,0,1-.87.77.77.77,0,0,1-.73-.84,3.19,3.19,0,0,1,1.23-2.51c-.67-1.47-.51-2.58.47-3.35a2.42,2.42,0,0,1,3,0C25.77,54.7,25.93,55.79,25.27,57.27Zm-2-.66a.85.85,0,0,0,.8-.81.86.86,0,0,0-.77-.79.8.8,0,1,0,0,1.6Z"/><path d="M36.89,56.78c-.4,1.32-.74,2.66-1.22,3.95a15.06,15.06,0,0,1-2.78,4.6c-.4.47-.88.55-1.25.23s-.4-.78,0-1.28a15.3,15.3,0,0,0,3.48-7.68.86.86,0,0,1,.89-.78.82.82,0,0,1,.72.92Z"/><path d="M51.52,61.54c-.22.23-.41.55-.69.66a.69.69,0,0,1-.95-.41c-.42-1.08-.83-2.16-1.19-3.27a12.08,12.08,0,0,1-.36-1.81.82.82,0,0,1,.63-1,.78.78,0,0,1,.94.62,18.37,18.37,0,0,0,1.47,4.85.94.94,0,0,1,.06.24Z"/></svg>