<svg id="Layer_1" data-name="Layer 1" xmlns="http://www.w3.org/2000/svg" viewBox="0 0 85.04 85.04"><path d="M71.53,56.18,71,52.52c-.17-1.18-.35-2.35-.52-3.52-.4-2.78-.82-5.64-1.25-8.46l-.12-.83a20.85,20.85,0,0,0-.66-3.31,7.75,7.75,0,0,0-7.72-5.29H47.87V26.38H54q6.18,0,12.37,0A7.22,7.22,0,0,0,73.9,19c0-1.41,0-2.83,0-4.22a3.45,3.45,0,0,0-3.72-3.63H15a3.44,3.44,0,0,0-3.71,3.64c0,.31,0,.61,0,.91,0,1.11,0,2.26,0,3.38A8.92,8.92,0,0,0,12,22.16a7,7,0,0,0,6.86,4.22c4,0,8.08,0,12,0h5.81V31.1H24A7.89,7.89,0,0,0,16,37a22.45,22.45,0,0,0-.44,2.56c0,.3-.08.6-.13.9l-1.08,7.36-.69,4.69c-.16,1.06-.32,2.13-.47,3.2-.42,2.85-.85,5.81-1.3,8.7a3.59,3.59,0,0,0,2.8,4.42l.19.08,0,0v.54c0,.46,0,.91,0,1.37a3.49,3.49,0,0,0,3.45,3.41H66.19a3.46,3.46,0,0,0,3.46-3.47c0-.44,0-.87,0-1.33v-.54l.17,0,.47-.11a3.52,3.52,0,0,0,2.54-3.65C72.41,62.14,72,59.11,71.53,56.18ZM45.23,26.44v4.63h-6V26.44ZM70.08,66.06c-.21.24-.6.34-1.28.34H15.91c-.71,0-1.1-.1-1.3-.33s-.25-.65-.14-1.36q.6-4.14,1.21-8.27.81-5.64,1.64-11.27L17.5,44c.29-2,.58-4,.93-6a5.13,5.13,0,0,1,4.95-4.22c3,0,6,0,8.91,0h8.36l5.72,0c4.58,0,9.32,0,14,0h.15a5.69,5.69,0,0,1,6,5.39c.48,3.76,1.06,7.57,1.62,11.25l.72,4.82.38,2.59q.52,3.56,1,7.11A1.59,1.59,0,0,1,70.08,66.06ZM66.16,23.82H19a4.91,4.91,0,0,1-4.34-2,4.47,4.47,0,0,1-.87-2.68c0-.77,0-1.53,0-2.3V15c0-1.11.31-1.41,1.43-1.41H69.81c1.32,0,1.57.25,1.57,1.55V19a4.65,4.65,0,0,1-4.59,4.77Zm1,45.61c0,.43,0,.83,0,1.22A1.06,1.06,0,0,1,66,71.77H19.1c-1.38,0-1.62-.25-1.63-1.66V69H67.15Z"/><path d="M42.42,36.13h0a14.17,14.17,0,0,0-10,4.19,13.19,13.19,0,0,0-3.9,9.5c.1,8.17,5.78,13.94,13.82,14h.16A13.64,13.64,0,0,0,52.13,60a14,14,0,0,0,4.08-10A13.88,13.88,0,0,0,42.42,36.13Zm6.87,13.06A1.17,1.17,0,0,0,49,50c0,.74.59,1.23,1.47,1.24h3.09c-.08,5.27-5.43,9.7-9.93,9.94v-3A1.76,1.76,0,0,0,43.15,57a1.1,1.1,0,0,0-.8-.31h0c-.77,0-1.25.63-1.25,1.61v3c-2.06.12-4.67-1.16-6.85-3.38s-3.26-4.62-3.1-6.56h3c1,0,1.52-.45,1.53-1.23a1.12,1.12,0,0,0-.32-.85,1.68,1.68,0,0,0-1.24-.43h-3a11.16,11.16,0,0,1,10-10c0,.29,0,.59,0,.88,0,.77,0,1.56,0,2.34a1.44,1.44,0,0,0,.74,1.28,1,1,0,0,0,1.11-.1A1.82,1.82,0,0,0,43.56,42c.06-.77,0-1.56,0-2.32,0-.26,0-.52,0-.78,4.37,0,9.6,4.32,10,9.91H50.48A1.64,1.64,0,0,0,49.29,49.19Z"/><path d="M46.47,43.64c-.78.81-1.6,1.68-2.39,2.57a.78.78,0,0,1-.93.31,3.31,3.31,0,0,0-3.63,1.22,3.38,3.38,0,0,0-.46,3.86,3.42,3.42,0,0,0,2.88,2h0A4,4,0,0,0,45.3,52a3.49,3.49,0,0,0,.39-3.23.61.61,0,0,1,.16-.77c.75-.78,1.49-1.58,2.2-2.36l.24-.26a1.66,1.66,0,0,0,.49-1.14,1.2,1.2,0,0,0-.41-.82A1.29,1.29,0,0,0,46.47,43.64Zm-4.16,7.48a1.09,1.09,0,0,1-1-1.12,1.12,1.12,0,0,1,.31-.76,1.06,1.06,0,0,1,.74-.28h0a1.09,1.09,0,0,1,.75.34,1,1,0,0,1,.29.75A1.15,1.15,0,0,1,42.31,51.12Z"/></svg>