<svg id="Layer_1" data-name="Layer 1" xmlns="http://www.w3.org/2000/svg" viewBox="0 0 85.04 85.04"><path d="M76,69.05a2.26,2.26,0,0,0-.13.2,3.33,3.33,0,0,1-3.39,2.38q-11.62,0-23.24,0a1,1,0,0,0-1,.51,6.59,6.59,0,0,1-10.84,0,1,1,0,0,0-.94-.46q-11.7,0-23.38,0a3.31,3.31,0,0,1-3.25-4.38A3.14,3.14,0,0,1,12.56,65a7.11,7.11,0,0,1,1,0c7.6,0,15.2,0,22.8,0a1.12,1.12,0,0,0,1-.55,6.59,6.59,0,0,1,10.76,0,1.12,1.12,0,0,0,1.06.53c7.54,0,15.07,0,22.6,0,2,0,3.47.67,4.12,2.67ZM42.8,72.69a4.38,4.38,0,0,0,4.42-4.38,4.41,4.41,0,1,0-8.81,0A4.37,4.37,0,0,0,42.8,72.69Zm-6.61-5.44-.31,0q-11.4,0-22.78,0A1.09,1.09,0,1,0,13,69.4h23.2Zm13.26,0v2.14l.66,0H72.18a1.72,1.72,0,0,0,.76-.08,1.61,1.61,0,0,0,.7-.61c.39-.76-.19-1.48-1.17-1.48H49.88Z"/><path d="M42.78,49.51A14.39,14.39,0,1,1,57.19,35.4,14.34,14.34,0,0,1,42.78,49.51ZM42.84,23A12.14,12.14,0,1,0,55,35.14,12.13,12.13,0,0,0,42.84,23Z"/><path d="M41.68,14.13c0-.67,0-1.34,0-2A1.18,1.18,0,0,1,42.8,10.8,1.17,1.17,0,0,1,44,12.09q0,2,0,4.08a1.18,1.18,0,0,1-1.15,1.3c-.66,0-1.11-.53-1.12-1.33S41.68,14.8,41.68,14.13Z"/><path d="M41.68,56.15c0-.69,0-1.38,0-2.07a1.14,1.14,0,1,1,2.27,0c0,1.35,0,2.71,0,4.07,0,.81-.46,1.29-1.14,1.29s-1.11-.49-1.13-1.3S41.68,56.82,41.68,56.15Z"/><path d="M22.73,47.86a1.1,1.1,0,0,1-1.08-.77,1,1,0,0,1,.37-1.2c1.36-.83,2.74-1.63,4.13-2.38a1,1,0,0,1,1.33.44.94.94,0,0,1-.16,1.35c-1.41.89-2.89,1.68-4.34,2.51A1,1,0,0,1,22.73,47.86Z"/><path d="M34.53,51.54a3.37,3.37,0,0,1-.21.54c-.68,1.2-1.36,2.39-2.06,3.57a1.11,1.11,0,0,1-1.62.55,1.13,1.13,0,0,1-.3-1.68c.69-1.22,1.38-2.43,2.09-3.63a1.05,1.05,0,0,1,1.25-.56A1.11,1.11,0,0,1,34.53,51.54Z"/><path d="M26.41,26.84a2.57,2.57,0,0,1-.45-.15c-1.27-.72-2.56-1.43-3.79-2.22a1.38,1.38,0,0,1-.53-1.06,1.47,1.47,0,0,1,.7-.89,1,1,0,0,1,.85,0c1.33.72,2.63,1.47,3.93,2.25a1,1,0,0,1,.48,1.28A1.09,1.09,0,0,1,26.41,26.84Z"/><path d="M34.65,19a4,4,0,0,1-.83.86.9.9,0,0,1-1.22-.27c-.85-1.38-1.67-2.77-2.42-4.19a1,1,0,0,1,.47-1.33,1,1,0,0,1,1.44.29c.81,1.34,1.57,2.71,2.35,4.08a1.5,1.5,0,0,1,.1.43Z"/><path d="M52.44,20c-1,0-1.63-.77-1.25-1.49.73-1.39,1.53-2.74,2.35-4.08a1.09,1.09,0,0,1,1.89,1.08q-1.12,2.07-2.36,4.08C52.93,19.77,52.56,19.88,52.44,20Z"/><path d="M58.94,27a4.32,4.32,0,0,1-.88-.88.92.92,0,0,1,.38-1.25q2-1.2,4-2.32A1.05,1.05,0,0,1,63.9,23a1.07,1.07,0,0,1-.46,1.5c-1.23.74-2.49,1.45-3.75,2.16a2.49,2.49,0,0,1-.6.2Z"/><path d="M55.52,55.17a1.07,1.07,0,0,1-.71,1.11,1,1,0,0,1-1.26-.37c-.82-1.35-1.61-2.7-2.35-4.09a1,1,0,0,1,.42-1.34,1,1,0,0,1,1.39.19c.86,1.39,1.66,2.82,2.47,4.24A.66.66,0,0,1,55.52,55.17Z"/><path d="M58.91,43.28c.42.18.69.26.93.39,1.15.66,2.31,1.32,3.45,2,.72.41.93,1,.6,1.6a1.16,1.16,0,0,1-1.73.33l-3.57-2.06a1,1,0,0,1-.56-1.3A4,4,0,0,1,58.91,43.28Z"/><path d="M63.83,36.26c-.72,0-1.43,0-2.14,0a1.16,1.16,0,0,1-1.21-1.1A1.13,1.13,0,0,1,61.65,34c1.44,0,2.89,0,4.33,0a1.12,1.12,0,0,1,1.18,1.12A1.16,1.16,0,0,1,66,36.26C65.25,36.27,64.54,36.26,63.83,36.26Z"/><path d="M21.8,36.26c-.69,0-1.38,0-2.07,0a1.17,1.17,0,0,1-1.26-1.11A1.13,1.13,0,0,1,19.71,34c1.4,0,2.81,0,4.21,0a1.13,1.13,0,0,1,1.22,1.13,1.16,1.16,0,0,1-1.27,1.1C23.18,36.27,22.49,36.26,21.8,36.26Z"/><path d="M32.82,35.2a9.94,9.94,0,0,1,4.81-8.55,1.85,1.85,0,0,1,1-.26,1,1,0,0,1,.88.9,1.13,1.13,0,0,1-.61,1.19,7.65,7.65,0,0,0-3.08,3.39,7.77,7.77,0,0,0-.12,6.45c.05.12.12.24.16.36a1.12,1.12,0,0,1-.6,1.5,1.08,1.08,0,0,1-1.44-.6A9.75,9.75,0,0,1,32.82,35.2Z"/><path d="M43.94,26.3a1.13,1.13,0,1,1-1.11-1.14A1.18,1.18,0,0,1,43.94,26.3Z"/></svg>