<svg id="Layer_1" data-name="Layer 1" xmlns="http://www.w3.org/2000/svg" viewBox="0 0 85.04 85.04"><path d="M6.34,60.37c.56-1,1.57-1,2.6-1a8.74,8.74,0,0,1,.58-6.25,4.13,4.13,0,0,1,2.23-2.3,2.92,2.92,0,0,1,3.4,1.46,8.38,8.38,0,0,1,1.22,6.48c0,.18-.07.36-.11.63h.88a1.54,1.54,0,0,1,1.69,1.87,4.17,4.17,0,0,1-4.35,4.09h-.7c-.62,3.48,1.06,6.34,4.46,6.53a4.55,4.55,0,0,0,4.83-4.26c.11-1.59,0-3.21.17-4.78A7.84,7.84,0,0,1,29,56a7.93,7.93,0,0,1,8.71,2.37,8.3,8.3,0,0,1,2,4.07h2.07a27.39,27.39,0,0,0,0-4.35c-.38-2.31-2.29-3.63-4.85-3.65-2.17,0-4.34,0-6.51,0a3.51,3.51,0,0,1-3.83-3.32c0-.09,0-.18-.05-.25a17,17,0,0,1-2.19-.35,4.11,4.11,0,0,1-2.93-4.24,1.46,1.46,0,0,1,1.46-1.46c.36,0,.71,0,1,0a28.82,28.82,0,0,1-.17-2.88,8,8,0,0,1,1.49-4.4,2.81,2.81,0,0,1,4.95.07,8.15,8.15,0,0,1,1.28,6.59c0,.18,0,.37-.08.62h1a1.55,1.55,0,0,1,1.61,1.88,4.22,4.22,0,0,1-4.38,4.07h-.7c0,1,.44,1.48,1.43,1.48,2,0,4,0,6,0A7.71,7.71,0,0,1,41.79,54V21.07c-.45,0-.95-.06-1.43-.14a4.49,4.49,0,0,1-3.86-3.77,1.16,1.16,0,0,0-.79-1,3.86,3.86,0,0,1-2.21-4.28,1.36,1.36,0,0,1,1.38-1.13c1.33,0,2.67,0,4,0a1.06,1.06,0,1,1,0,2.12c-1,0-2.09,0-3.14,0a1.53,1.53,0,0,0,1.36,1.44c1.31.2,1.46.37,1.48,1.7a2.55,2.55,0,0,0,2.84,2.82q1.58,0,3.15,0a2.52,2.52,0,0,0,2.81-2.77c0-1.4.16-1.53,1.5-1.75.74-.12,1.14-.52,1.39-1.44h-2c-1.64,0-3.29,0-4.93,0-.79,0-1.24-.41-1.24-1.07s.45-1.07,1.23-1.07h7.51a1.54,1.54,0,0,1,1.68,1.77A4,4,0,0,1,50,16.27c-.21.1-.49.34-.51.54a4.75,4.75,0,0,1-5,4.21l-.39,0V53.84a14.64,14.64,0,0,1,2.26-1.16,10.1,10.1,0,0,1,2.73-.43c2.19-.06,4.39,0,6.58,0,1,0,1.45-.46,1.43-1.43-.49,0-1-.08-1.47-.14A4.19,4.19,0,0,1,52,46.38a1.51,1.51,0,0,1,1.57-1.59c.32,0,.66,0,1.06,0a7.59,7.59,0,0,1-.07-4.35,12,12,0,0,1,1.2-2.8c1.33-2.11,3.69-2.1,5.06,0A8.28,8.28,0,0,1,62,44.38a2.22,2.22,0,0,0-.05.41c.36,0,.71,0,1.05,0a1.47,1.47,0,0,1,1.53,1.6,4.23,4.23,0,0,1-4.33,4.35h-.75c-.07.32-.12.62-.19.91a3.28,3.28,0,0,1-3.09,2.7c-2.36.08-4.72.06-7.08.06A4.79,4.79,0,0,0,45,56.21a4.06,4.06,0,0,0-.94,2.49c0,1.21,0,2.43,0,3.7h2a23.74,23.74,0,0,1,1.28-2.85,8.29,8.29,0,0,1,15.25,2.83,41.67,41.67,0,0,1,.21,5.13A4.67,4.67,0,0,0,66,71.67c3.15,1,6.07-1.15,6.24-4.6,0-.54,0-1.08,0-1.64-.63-.06-1.2-.06-1.76-.17A4.12,4.12,0,0,1,67.09,61a1.49,1.49,0,0,1,1.58-1.57c.32,0,.65,0,1,0a8.65,8.65,0,0,1,.59-6.26,5.68,5.68,0,0,1,.91-1.36c1.49-1.62,3.42-1.43,4.67.45a8.44,8.44,0,0,1,1.24,6.68c0,.12,0,.23-.07.35s0,0,0,.09c.43,0,.88,0,1.32.13a1.33,1.33,0,0,1,1.19,1.37,4.19,4.19,0,0,1-4.07,4.5c-.33,0-.66,0-1,0a30.35,30.35,0,0,1-.22,3.09,6.87,6.87,0,0,1-13.51.08,26.17,26.17,0,0,1-.17-4.35A6.29,6.29,0,0,0,58.13,59a6.21,6.21,0,0,0-9.57,3.13c0,.09,0,.18,0,.34a2.73,2.73,0,0,1,2.3,1.33,3.79,3.79,0,0,1,.43,1.83c-.06,1.56-1,2.31-3.06,2.63a17.1,17.1,0,0,1-.81,3,4.85,4.85,0,0,1-5.3,2.65c-.75-.12-1.19-.6-1.12-1.23s.63-1,1.43-.92a2.89,2.89,0,0,0,3.41-2.47c.12-.88-.07-1.11-.94-1.11-1.31,0-2.62,0-3.93,0-.72,0-.87.3-.83.88,0,.26.1.52.11.78A1.05,1.05,0,0,1,39.31,71a1,1,0,0,1-1.19-.77,20.19,20.19,0,0,1-.24-2,3,3,0,0,1-2.6-1.11,3.83,3.83,0,0,1-.64-1.77c-.11-1.47.85-2.43,2.78-3a5.58,5.58,0,0,0-2.68-3.69,6.12,6.12,0,0,0-9.39,5c-.06,1.4,0,2.81-.13,4.21a6.88,6.88,0,0,1-13.72-1V65.36c-.4,0-.73,0-1.05,0a4.22,4.22,0,0,1-3.93-2.91,2.42,2.42,0,0,0-.18-.36ZM27.6,44.79a3.42,3.42,0,0,0,.85,0c.23-.06.55-.22.62-.41a6,6,0,0,0-.8-5.62c-.46-.67-.86-.64-1.33.06a6,6,0,0,0-1,4.54C26.15,44.79,26.16,44.79,27.6,44.79Zm30.69,0c1.41,0,1.43,0,1.66-1a6.22,6.22,0,0,0-.85-4.86c-.55-.89-1-.89-1.6,0a6.52,6.52,0,0,0-1,4.23C56.67,44.6,56.86,44.79,58.29,44.79ZM12.59,59.41a2.06,2.06,0,0,1,.43,0c.76.15,1.06-.26,1.2-.93a6.42,6.42,0,0,0-.84-4.93c-.55-.88-1.05-.87-1.6,0A6.15,6.15,0,0,0,10.87,58C11.12,59.41,11.14,59.41,12.59,59.41Zm60.77,0c1.36,0,1.38,0,1.6-.87a6.26,6.26,0,0,0-.82-5c-.54-.87-1-.86-1.61,0a6.63,6.63,0,0,0-1,4.17C71.68,59.2,71.91,59.41,73.36,59.41ZM43,64.65H37.68c-.45,0-.84.09-.86.62s.41.71.91.71q5.21,0,10.42,0c.47,0,1,0,1-.66s-.46-.68-.95-.67ZM23.64,47c.33,1,.86,1.47,1.64,1.49q2.36.06,4.71,0A1.59,1.59,0,0,0,31.53,47Zm38.61,0H54.37A1.66,1.66,0,0,0,56,48.49c1.54,0,3.09,0,4.64,0A1.73,1.73,0,0,0,62.25,47ZM8.6,61.66c.25.83.72,1.39,1.49,1.42,1.68.07,3.36.06,5,0a1.45,1.45,0,0,0,1.33-1.42Zm60.85,0a1.49,1.49,0,0,0,1.32,1.4c1.73.07,3.46.08,5.19,0a1.6,1.6,0,0,0,1.36-1.39Z"/></svg>