<svg id="Layer_1" data-name="Layer 1" xmlns="http://www.w3.org/2000/svg" viewBox="0 0 85.04 85.04"><path d="M54.4,57H66.74a16,16,0,0,1,.81-1.49,4.48,4.48,0,0,1,8.07,3.2,4.51,4.51,0,0,1-3.71,3.85A4.37,4.37,0,0,1,67.13,60a1.07,1.07,0,0,0-1.23-.75c-3.56,0-7.12,0-10.68,0H54.4c0,.74,0,1.4,0,2.07,0,.88-.4,1.28-1.28,1.28H43.27v4.47h18.6c1.12,0,1.46.34,1.47,1.44v1.91c1.11,0,2.2,0,3.28,0,.13,0,.29-.3.37-.49a4.48,4.48,0,1,1,5.62,5.88,4.42,4.42,0,0,1-5.54-2.49.88.88,0,0,0-1-.65c-.88,0-1.76,0-2.72,0v2.06c0,.89-.39,1.29-1.26,1.29q-20,0-39.93,0c-.86,0-1.24-.4-1.25-1.3,0-.64,0-1.29,0-2-1.12,0-2.2,0-3.28,0-.15,0-.31.35-.4.56A4.53,4.53,0,0,1,12.64,76a4.48,4.48,0,0,1-1.08-8.68,4.41,4.41,0,0,1,5.6,2.46.86.86,0,0,0,1,.65c.88,0,1.76,0,2.73,0,0-.71,0-1.38,0-2,0-.92.39-1.3,1.32-1.3H41V62.6H31.18c-1,0-1.34-.37-1.35-1.34v-2H17.43a4.61,4.61,0,0,1-2.78,3,4.46,4.46,0,0,1-6-4.58,4.49,4.49,0,0,1,3.66-4c2.17-.42,3.94.69,5.19,3.29H29.83V55.2c0-1.22.31-1.53,1.51-1.53H41V49.24A20,20,0,0,1,25.6,40.59a19.38,19.38,0,0,1-3.52-13.25,20.12,20.12,0,1,1,21.2,21.89v4.44H44c3,0,6,0,9,0,1,0,1.37.36,1.37,1.39ZM23.16,73.72H61.05V69.34H23.16ZM35.21,38.27a20.92,20.92,0,0,1,13.74,0,33.94,33.94,0,0,0,1.15-8h-16A36.36,36.36,0,0,0,35.21,38.27ZM50.12,27.92a35.14,35.14,0,0,0-1.18-8,21.36,21.36,0,0,1-6.85,1.18,21.79,21.79,0,0,1-7-1.24L34,27.92Zm-18,28v4.39h20V55.93ZM60.4,30.28H52.61l-1.29,8.94,4,2.55A18.36,18.36,0,0,0,60.4,30.28ZM28.94,16.44a18.28,18.28,0,0,0-5.11,11.47h7.79L32.91,19ZM51.35,19l1.25,8.9h7.8a18.22,18.22,0,0,0-5.09-11.45ZM33,39.19l-1.27-8.91H23.9A18.25,18.25,0,0,0,29,41.74Zm3-21.52a18.43,18.43,0,0,0,12.39,0,14.19,14.19,0,0,0-3.4-5.59,3.74,3.74,0,0,0-5.59,0A14,14,0,0,0,35.93,17.67ZM48.31,40.53a18.64,18.64,0,0,0-12.38,0A14.45,14.45,0,0,0,39.17,46c1.9,1.83,4,1.84,5.86,0A14.36,14.36,0,0,0,48.31,40.53ZM10.85,58.14a2.23,2.23,0,0,0,4.46,0,2.3,2.3,0,0,0-2.24-2.23A2.3,2.3,0,0,0,10.85,58.14Zm60.31,2.22a2.23,2.23,0,1,0-2.23-2.22A2.28,2.28,0,0,0,71.16,60.36Zm-58,13.41A2.23,2.23,0,1,0,13,69.31a2.23,2.23,0,0,0,.07,4.46Zm58,0a2.23,2.23,0,1,0-2.21-2.24A2.28,2.28,0,0,0,71.14,73.76ZM53.58,14.84a17.85,17.85,0,0,0-5.64-3.07l2.66,5ZM30.66,43.35a18.07,18.07,0,0,0,5.63,3.06l-2.66-5Zm22.92,0-3-1.91-2.62,5A17.93,17.93,0,0,0,53.58,43.35Zm-17.3-31.6a17.34,17.34,0,0,0-5.6,3.11l3,1.87Z"/></svg>