<svg id="Layer_1" data-name="Layer 1" xmlns="http://www.w3.org/2000/svg" viewBox="0 0 85.04 85.04"><defs><style>.cls-1{fill:#1d1d1b;}</style></defs><path class="cls-1" d="M67.82,17.36a5.91,5.91,0,0,0-6-6H23.33a5.86,5.86,0,0,0-5.93,5.91q0,25.61,0,51.21a5.55,5.55,0,0,0,2.43,4.77,9.1,9.1,0,0,0,1.75.84l.8.32H53.14l0,0a1.5,1.5,0,0,0,.65-1.07.85.85,0,0,0-.33-.66,1.8,1.8,0,0,0-1.08-.32H23.71a3.91,3.91,0,0,1-4.22-4.19q0-25.26,0-50.53a3.9,3.9,0,0,1,4.17-4.17H61.57a3.88,3.88,0,0,1,4.14,4.13q0,25.3,0,50.6a3.92,3.92,0,0,1-4.18,4.16H60.1c-1.18,0-2.4,0-3.61,0a1.28,1.28,0,0,0-1,.64,1.23,1.23,0,0,0,.13.84c0,.1.07.19.09.28a.45.45,0,0,0,.17.21l.07.06,0,0h6.85l.11,0a.8.8,0,0,1,.2-.07,5.93,5.93,0,0,0,4.67-5.83Z"/><path class="cls-1" d="M62.3,63.82V18.37c0-1.14-.31-1.45-1.46-1.45H35.18a1.54,1.54,0,0,0-.37,0,1,1,0,0,0-.89,1A1,1,0,0,0,34.8,19a2.36,2.36,0,0,0,.46,0H60.15V63.14H25V19h6c.83,0,1.33-.39,1.34-1a1,1,0,0,0-.27-.7,1.41,1.41,0,0,0-1-.36H24.35c-1.13,0-1.43.3-1.43,1.41V63.84c0,1.12.3,1.42,1.41,1.42H60.89C62,65.26,62.3,64.94,62.3,63.82Z"/><path class="cls-1" d="M30.1,61.12H45a1.78,1.78,0,0,1,1.1.35,4.21,4.21,0,0,0,2.43.86,3.45,3.45,0,0,0,2-.61A4.22,4.22,0,0,1,53,61.12h.23c.47,0,.95,0,1.43,0H55a5.06,5.06,0,0,0,1.16-.1,3,3,0,0,0-.63-5.82c-.66,0-1.34,0-2,0h-1.7a1.33,1.33,0,0,1-.71-.22,4.12,4.12,0,0,0-5.19,0,1.35,1.35,0,0,1-.76.25H37.47l-.13,0H35.11c-1.8,0-3.66,0-5.49,0a2.8,2.8,0,0,0-2.21,1.16A3,3,0,0,0,27,59,3,3,0,0,0,30.1,61.12ZM44.44,59a.88.88,0,0,1-.24,0H30a1.14,1.14,0,0,1-1-.47.66.66,0,0,1,0-.68,1.16,1.16,0,0,1,.77-.55c2.33,0,4.68,0,7,0h7.61Zm4.08,1.15h0a2,2,0,0,1-2-2,1.94,1.94,0,0,1,.59-1.4,2,2,0,0,1,1.42-.59h0a2,2,0,0,1,2,2,2,2,0,0,1-.6,1.42A2,2,0,0,1,48.52,60.13ZM52.62,59V57.3h.76c.73,0,1.47,0,2.19,0a.64.64,0,0,1,.44.23,1,1,0,0,1,.24.65.86.86,0,0,1-.85.81H52.62Z"/><path class="cls-1" d="M33.69,37.4a8.95,8.95,0,0,0,8.91,9h0a8.94,8.94,0,0,0,0-17.88h0a8.93,8.93,0,0,0-8.91,8.93Zm2.11-.09a6.66,6.66,0,0,1,2-4.73,6.74,6.74,0,0,1,4.75-1.95h.08a6.79,6.79,0,1,1,0,13.57h0a6.8,6.8,0,0,1-6.78-6.89Z"/><path class="cls-1" d="M57.09,34.85a9.52,9.52,0,0,0-2.65-.09,2.66,2.66,0,0,0-.3,5.23,5.8,5.8,0,0,0,1,.12l.46,0,.13,0h.75a2.73,2.73,0,0,0,2.61-2.38A2.58,2.58,0,0,0,57.09,34.85Zm-2.81,2.6a.79.79,0,0,1,.44-.55,5.37,5.37,0,0,1,.9-.07,6.29,6.29,0,0,1,.88.06.79.79,0,0,1,.46.52c0,.15-.26.42-.51.54a1.06,1.06,0,0,1-.51,0h-.41v0h-.17a1.52,1.52,0,0,1-.62-.06C54.52,37.84,54.27,37.56,54.28,37.45Z"/><path class="cls-1" d="M45.26,49.4a2.64,2.64,0,0,0-2.57-2.46H42.6A2.6,2.6,0,0,0,40,49.24a12.63,12.63,0,0,0,0,2.46,2.65,2.65,0,0,0,2.6,2.24h0a2.7,2.7,0,0,0,2.61-2.13,5.89,5.89,0,0,0,.06-.93c0-.14,0-.29,0-.43l0-.13h0v-.2Q45.28,49.76,45.26,49.4Zm-3.2.19a.54.54,0,0,1,.19-.44.31.31,0,0,1,.21-.07h.1a1.09,1.09,0,0,1,.59.55,1.05,1.05,0,0,1,0,.51c0,.1,0,.19,0,.28a2,2,0,0,0,0,.25c0,.18,0,.36,0,.54,0,.38-.21.56-.56.56h0a.49.49,0,0,1-.53-.54C42,50.79,42,50.19,42.06,49.59Z"/><path class="cls-1" d="M45.26,23.42a2.66,2.66,0,0,0-5.3-.16,12.4,12.4,0,0,0,0,2.28,2.59,2.59,0,0,0,2.43,2.33h.21a2.63,2.63,0,0,0,2.59-2,6,6,0,0,0,.1-1c0-.16,0-.31,0-.46l0-.13h0v-.18C45.27,23.88,45.27,23.65,45.26,23.42Zm-3.21.38v-.25A.48.48,0,0,1,42.6,23h0a.51.51,0,0,1,.55.53c0,.19,0,.38,0,.57v.28c0,.09,0,.18,0,.28a1.12,1.12,0,0,1,0,.5,1,1,0,0,1-.6.51h0a.79.79,0,0,1-.46-.47A6.92,6.92,0,0,1,42.05,23.8Z"/><path class="cls-1" d="M49.1,47.63a10.55,10.55,0,0,0,1.7,1.71,2.56,2.56,0,0,0,1.58.54,2.71,2.71,0,0,0,1.93-.82,2.63,2.63,0,0,0,.13-3.56A12.27,12.27,0,0,0,52.91,44a2.51,2.51,0,0,0-2.82-.34,2.72,2.72,0,0,0-1.55,2.69v0l0,0,.08.25A3.63,3.63,0,0,0,49.1,47.63Zm3.17.09a.87.87,0,0,1-.29-.14c-.43-.4-.8-.78-1.16-1.16a.49.49,0,0,1,0-.75.55.55,0,0,1,.4-.2.6.6,0,0,1,.4.18,8.28,8.28,0,0,1,1.13,1.16.81.81,0,0,1,.08.65c0,.08-.16.17-.28.24l-.13.09Z"/><path class="cls-1" d="M30.49,34.72c-.59,0-1.18,0-1.73,0A2.71,2.71,0,0,0,26.12,37a2.64,2.64,0,0,0,2.06,3,5.32,5.32,0,0,0,1,.1c.15,0,.3,0,.45,0h.12v0h.75a2.69,2.69,0,0,0,0-5.38ZM29.54,38h-.28a1.06,1.06,0,0,1-.51,0c-.25-.12-.51-.39-.51-.54a.77.77,0,0,1,.45-.51,5.66,5.66,0,0,1,1.79,0,.76.76,0,0,1,.42.55c0,.11-.23.4-.44.48a1.54,1.54,0,0,1-.62.06h-.18v0Z"/><path class="cls-1" d="M52.6,25h-.14a4.83,4.83,0,0,0-3.78,3c0,.17-.08.35-.11.5s0,.1,0,.14v0h0a2.61,2.61,0,0,0,1.51,2.51,2.83,2.83,0,0,0,1.23.29,2.47,2.47,0,0,0,1.61-.61,11.65,11.65,0,0,0,1.57-1.57A2.64,2.64,0,0,0,52.6,25Zm-1.79,3.45A6.94,6.94,0,0,1,52,27.23a.57.57,0,0,1,.34-.08.58.58,0,0,1,.32.07.82.82,0,0,1,.19.58A12.6,12.6,0,0,1,51.7,29l-.28.27-.13,0-.16,0L51,29.29c-.11-.07-.24-.16-.27-.25A.76.76,0,0,1,50.81,28.44Z"/><path class="cls-1" d="M30.16,47v.19a2.55,2.55,0,0,0,1.5,2.41,2.93,2.93,0,0,0,1.21.29,2.51,2.51,0,0,0,1.62-.62,12.26,12.26,0,0,0,1.57-1.57,2.65,2.65,0,0,0-1.78-4.3,3.71,3.71,0,0,0-2.6,1.05A4,4,0,0,0,30.16,47Zm3.73-1.46a.86.86,0,0,1,.43.11.78.78,0,0,1,.18.49c-.39.47-.83.9-1.26,1.33l-.26.26h-.12a.63.63,0,0,1-.57-.33.41.41,0,0,1,0-.43,8.64,8.64,0,0,1,1.38-1.4A.39.39,0,0,1,33.89,45.54Z"/><path class="cls-1" d="M33.62,25.1a2.44,2.44,0,0,0-2.25.25,2.89,2.89,0,0,0-1.29,2.27v0c0,.12.05.24.08.37a1.63,1.63,0,0,0,.3.82l.19.22a11.8,11.8,0,0,0,2.16,2.08,2.09,2.09,0,0,0,1.17.36,2.6,2.6,0,0,0,1.7-.69,2.37,2.37,0,0,0,.83-2.77A5,5,0,0,0,33.62,25.1Zm.92,3.7a.53.53,0,0,1-.2.39.54.54,0,0,1-.81-.06l-.26-.25a7,7,0,0,1-.84-.88.72.72,0,0,1-.09-.59.88.88,0,0,1,.31-.29l.14-.09.16.07a1.35,1.35,0,0,1,.3.16c.35.33.71.69,1.07,1.07A.66.66,0,0,1,34.54,28.8Z"/><path class="cls-1" d="M42.57,66a2.84,2.84,0,0,0-2.84,2.91,2.87,2.87,0,0,0,2.87,2.83h0a2.87,2.87,0,1,0,0-5.74Zm.78,2.89a.8.8,0,0,1-.23.53.82.82,0,0,1-.57.19.77.77,0,0,1-.71-.76.72.72,0,0,1,.24-.52.78.78,0,0,1,.53-.2h0A.74.74,0,0,1,43.35,68.84Z"/><path class="cls-1" d="M42.62,16.18a1,1,0,0,0,.68-.3,1,1,0,0,0,.25-.72,1,1,0,0,0-1.61-.68,1,1,0,0,0-.31.73,1,1,0,0,0,1,1Z"/><path class="cls-1" d="M42.55,39h.14a2.35,2.35,0,0,0,1.73-.75,1,1,0,0,0,.07-1.49,1,1,0,0,0-1.43-.1.6.6,0,0,1-.91,0,1,1,0,0,0-.77-.25,1,1,0,0,0-.71.4,1.06,1.06,0,0,0,.11,1.44A2.4,2.4,0,0,0,42.55,39Z"/><path class="cls-1" d="M38.24,38.55a.91.91,0,0,0,.87-.88c0-.13,0-.26,0-.39v-.17s0-.1,0-.15,0-.23,0-.35a.94.94,0,0,0-.87-.92.88.88,0,0,0-1.11.64,3.34,3.34,0,0,0,0,1.61c.11.33.67.58,1,.61Z"/><path class="cls-1" d="M46.1,37.71a1,1,0,0,0,.56.77,1,1,0,0,0,.45.11,1,1,0,0,0,.47-.12,1.17,1.17,0,0,0,.61-1.19v-.16c0-.48,0-1-.58-1.34a1,1,0,0,0-.93,0,1,1,0,0,0-.58.75c0,.13,0,.27,0,.4v.36A3.37,3.37,0,0,0,46.1,37.71Z"/></svg>