<svg id="Layer_1" data-name="Layer 1" xmlns="http://www.w3.org/2000/svg" viewBox="0 0 85.04 85.04"><path d="M24.13,41.14V32.53H22.76c-1.74,0-1.89-.15-1.89-1.93V28.13H10.32c-1.27,0-1.55-.29-1.56-1.59s0-2.47,0-3.71c0-.92.37-1.3,1.28-1.3H75.37c1.33,0,1.6.27,1.6,1.6v3.72c0,.9-.39,1.28-1.31,1.28H64.87v3.05c0,1-.37,1.35-1.38,1.35H61.61v8.58l.62-.29a7.53,7.53,0,0,1,3.89-.56,1.35,1.35,0,0,1,.76.42q4.83,4.8,9.62,9.63A2,2,0,0,1,77,51.46a6.69,6.69,0,0,1-3.85,6.85,7.34,7.34,0,0,1-3.95.61,1.47,1.47,0,0,1-.81-.45q-4.83-4.8-9.62-9.63a1.6,1.6,0,0,1-.43-1,7,7,0,0,1,.94-4.42,1.06,1.06,0,0,0,.13-.52c0-3.44,0-6.87,0-10.42h-2c-1,0-1.32-.37-1.32-1.34v-3h-8.8v3c0,1-.37,1.36-1.37,1.36H44.19a.62.62,0,0,0-.18.05v9.95a9.61,9.61,0,0,1,4.87,2.23,1.53,1.53,0,0,1,.56,1.08q.06,7,0,14.1a1.32,1.32,0,0,1-.41.94,9.7,9.7,0,0,1-6.46,2.46,8.86,8.86,0,0,1-4.67-1.61c-1.92-1.29-1.63-.85-1.64-3.06,0-4.18,0-8.35,0-12.52a1.75,1.75,0,0,1,.89-1.63,10,10,0,0,1,4.58-2v-10H39.66a1.07,1.07,0,0,1-1.19-1.19c0-1,0-2.09,0-3.18h-8.8c0,1,0,1.95,0,2.92s-.33,1.45-1.41,1.45H26.36v.69q0,4.74,0,9.49a2,2,0,0,0,.23.9,7.48,7.48,0,0,1,.84,4.45,1.45,1.45,0,0,1-.44.81q-4.8,4.83-9.63,9.63a1.49,1.49,0,0,1-.75.42A6.89,6.89,0,0,1,9.35,55a7.52,7.52,0,0,1-.56-3.89,1.38,1.38,0,0,1,.42-.76q4.81-4.84,9.68-9.67a1.75,1.75,0,0,1,1-.41A7,7,0,0,1,24.13,41.14ZM74.74,23.78H11V25.9H74.74ZM47.27,58c0-3.83,0-7.54,0-11.25a.83.83,0,0,0-.33-.58A6.35,6.35,0,0,0,39,46a1,1,0,0,0-.51,1q0,5.11,0,10.24V58A8.69,8.69,0,0,1,47.27,58Zm21-2.65a6.94,6.94,0,0,1,4.94-5,.8.8,0,0,0-.1-.18c-2.47-2.48-5-5-7.44-7.43a1.07,1.07,0,0,0-.73-.24,4.52,4.52,0,0,0-4.5,4.5,1.29,1.29,0,0,0,.32.83c.67.72,1.38,1.4,2.08,2.1Zm-50.93-.09a.87.87,0,0,0,.22-.11c2.48-2.48,5-5,7.43-7.45a1,1,0,0,0,.22-.67,4.53,4.53,0,0,0-4.41-4.53,1.55,1.55,0,0,0-1,.39c-2.34,2.3-4.64,4.62-7,6.94-.14.14-.27.29-.46.51A6.87,6.87,0,0,1,17.39,55.22ZM11,52.4c.19,2.47,2.27,4.48,4.32,4.23A4.4,4.4,0,0,0,11,52.4Zm59.41,4.28a4.32,4.32,0,0,0,4.27-4.28A4.4,4.4,0,0,0,70.41,56.68ZM46.26,60c-2-1.4-5.23-1.37-6.74,0A5.9,5.9,0,0,0,46.26,60ZM23.1,28.16v2.13h4.32V28.16Zm21.94,0H40.7v2.11H45Zm13.28,0v2.12h4.31V28.16Z"/></svg>