<svg id="Layer_1" data-name="Layer 1" xmlns="http://www.w3.org/2000/svg" viewBox="0 0 85.04 85.04"><path d="M43.78,53.93a7.66,7.66,0,0,1-3,5.61,7.48,7.48,0,0,1-4.68,1.59,7.73,7.73,0,0,1-7.62-7.2H27.9c-3.26,0-6.52,0-9.78,0-1.24,0-1.59-.9-1.11-1.8,2.79-5.22,5.54-10.46,8.3-15.7a1.25,1.25,0,0,1,1.29-.79c.22,0,.43,0,.73,0V33.09c0-1.15.31-1.46,1.46-1.46h3.4c.12-.67.2-1.31.35-1.93a11.67,11.67,0,0,1,11.68-9c4.45,0,8.9,0,13.34,0h.78c0-.76,0-1.48,0-2.19a3.38,3.38,0,0,1,3.58-3.58c1.52.06,3,0,4.56,0,.89,0,1.25.35,1.25,1.24V32.56c0,.9-.34,1.22-1.25,1.22H61.61a3.25,3.25,0,0,1-3.27-3.21c0-.93,0-1.86,0-2.84-.21,0-.37,0-.54,0q-7,0-13.93,0a4.33,4.33,0,0,0-4.19,3.2,5.9,5.9,0,0,0-.13.74h3.86c1.32,0,1.58.26,1.58,1.57v2.36c.07,0,.11.09.13.09,1.2-.2,1.75.47,2.26,1.46,2.55,4.93,5.16,9.83,7.75,14.73l.25.47a1,1,0,0,1-1,1.61H43.78Zm9.08-2-.23-.45q-3.51-6.66-7-13.34a.73.73,0,0,0-.79-.42q-8.66,0-17.32,0a.79.79,0,0,0-.82.48q-3.46,6.63-7,13.24c-.08.15-.15.3-.24.49ZM65.7,17c-1.44,0-2.84,0-4.24,0a1.17,1.17,0,0,0-1.12,1.26q0,6.09,0,12.17a1.22,1.22,0,0,0,1.15,1.31c1.4.06,2.79,0,4.21,0Zm-7.39,5.79-.47,0c-4.7,0-9.4,0-14.1,0a9.52,9.52,0,0,0-9,6.53c-.24.73-.35,1.49-.54,2.31h3.25a2.68,2.68,0,0,1,.05-.3,6.32,6.32,0,0,1,6.19-5.6c4.64-.07,9.28,0,13.92,0h.68ZM30.58,54a5.4,5.4,0,0,0,2.66,4.31,5.34,5.34,0,0,0,5.9,0A5.41,5.41,0,0,0,41.74,54ZM29.43,33.68v2H42.9v-2Z"/><path d="M21.9,57.54H19c-.72,0-1.19-.41-1.19-1s.43-1,1.17-1c1.93,0,3.86,0,5.79,0,.74,0,1.2.41,1.2,1s-.49,1-1.24,1Z"/><path d="M50.38,57.54H47.52a1.09,1.09,0,0,1-1.21-1,1,1,0,0,1,1.18-1c1.95,0,3.9,0,5.85,0a1,1,0,0,1,1.14,1,1.06,1.06,0,0,1-1.17,1Z"/><path d="M30.53,62.8a4.24,4.24,0,0,1-.53.89c-1.29,1.25-2.59,2.47-3.91,3.69a1,1,0,0,1-1.45,0,1,1,0,0,1,.08-1.45c1.29-1.24,2.6-2.47,3.91-3.69A.88.88,0,0,1,29.74,62,5.09,5.09,0,0,1,30.53,62.8Z"/><path d="M42.86,61.76a5.88,5.88,0,0,1,.85.49c1.3,1.21,2.59,2.42,3.87,3.65a1,1,0,0,1,.11,1.45,1,1,0,0,1-1.49,0l-3.88-3.64A1,1,0,0,1,42,62.51,3.58,3.58,0,0,1,42.86,61.76Z"/><path d="M35.16,67.52c0-.8,0-1.59,0-2.39a1,1,0,0,1,1-1.13,1,1,0,0,1,1,1.1c0,1.66,0,3.31,0,5a1,1,0,1,1-2,0C35.15,69.23,35.16,68.38,35.16,67.52Z"/></svg>