<svg id="Layer_1" data-name="Layer 1" xmlns="http://www.w3.org/2000/svg" viewBox="0 0 85.04 85.04"><path d="M33.33,74.2l-.4-.17a2.89,2.89,0,0,1-1.83-3.17,2.85,2.85,0,0,1,2.5-2.39l.35-.06c-.16-2,.54-3.46,2.78-3.89-.4-.71-.75-1.39-1.16-2s-1-1.45-1.42-2.19a6.14,6.14,0,0,1,1.38-8.37,1.66,1.66,0,0,0,.78-1.65,5.88,5.88,0,0,1,0-1.11,2.3,2.3,0,0,1,2.25-2.27c.55,0,1.11,0,1.7,0V43.71a29.29,29.29,0,0,1-2.9-.73c-1.24-.43-2.45-1-3.65-1.51a.71.71,0,0,0-.87.08A9.17,9.17,0,0,1,27,43.74a7.65,7.65,0,0,1-4.39-1.48,2.4,2.4,0,0,1-.73-3.15q2.4-5.05,4.82-10.12c1.89-4,3.8-7.93,5.66-11.92A3.6,3.6,0,0,1,36,14.77c1,0,2.07,0,3.16,0a4.34,4.34,0,0,1,1.69-3.46,4,4,0,0,1,2.57-.73c2,.09,3.16,1.39,3.74,4.19,1,0,2,0,3.07,0a6.06,6.06,0,0,1,1.35.12,3.17,3.17,0,0,1,2.17,1.8q2.13,4.44,4.24,8.89A.94.94,0,0,1,57.58,27c-.52.24-1,0-1.29-.6-1.37-2.85-2.74-5.69-4.07-8.56a1.77,1.77,0,0,0-1.89-1.18c-.59.05-1.19,0-1.84,0a2.82,2.82,0,0,0,0,.44l5.4,22a1.23,1.23,0,0,0,.23.56c1.71,1.58,4.33,2.75,6.89,1.85A7.39,7.39,0,0,0,62.21,41c.68-.39.74-.59.4-1.3q-2-4.18-4-8.39c-.1-.22-.22-.44-.31-.67a1,1,0,1,1,1.71-.8c.81,1.69,1.61,3.39,2.42,5.09.67,1.4,1.34,2.79,2,4.2a2.42,2.42,0,0,1-1,3.32A8,8,0,0,1,54.06,42a1.72,1.72,0,0,0-2.2-.16A14.58,14.58,0,0,1,49,43c-1,.31-2,.49-3,.73v3.17c.57,0,1.1,0,1.63,0A2.23,2.23,0,0,1,50,49.2a3.61,3.61,0,0,0,1.37,3.27,5.93,5.93,0,0,1,.91,7.65c-.9,1.44-1.8,2.86-2.76,4.38,2.29.42,3,1.85,2.86,3.92a3,3,0,0,1,2.4,1.29A2.88,2.88,0,0,1,53.52,74L53,74.2H44.88c-.32-.38-.68-.75-.43-1.3s.79-.58,1.32-.57c1.28,0,2.56,0,3.85,0,.88,0,1.77,0,2.66,0,.53,0,1-.29,1-.82a1.71,1.71,0,0,0-.49-1c-.13-.15-.5-.14-.76-.14-5.93,0-11.87,0-17.8,0a2,2,0,0,0-.43,0,.93.93,0,0,0-.85.85.88.88,0,0,0,.57,1,2,2,0,0,0,.78.13c2.17,0,4.34,0,6.51,0,.74,0,1.22.48,1,1.11a3.27,3.27,0,0,1-.47.76ZM46.47,16.7H39.81L34.22,39.58a17.75,17.75,0,0,0,17.83,0Zm-3.27,36c-1.71,0-3.43,0-5.14,0a1.37,1.37,0,0,0-.65.12,4.55,4.55,0,0,0-1.51,6.73c1,1.47,1.84,3.08,2.76,4.62a.86.86,0,0,0,.54.37c2.63,0,5.25,0,7.88,0a.7.7,0,0,0,.51-.31c1-1.66,2-3.32,3-5a5.14,5.14,0,0,0,.65-1.72,4.27,4.27,0,0,0-1.68-4.21,2.42,2.42,0,0,0-1.73-.62C46.27,52.74,44.73,52.7,43.2,52.7Zm-5.33-36c-.71,0-1.31,0-1.9,0a1.79,1.79,0,0,0-1.92,1.22c-2.13,4.52-4.29,9-6.44,13.53q-2,4.14-3.94,8.27c-.34.71-.3,1,.41,1.29a8.16,8.16,0,0,0,2.25.79,7.12,7.12,0,0,0,5.72-2,1.08,1.08,0,0,0,.3-.58q2.17-8.82,4.34-17.66C37.07,19.93,37.46,18.36,37.87,16.67ZM50.46,68.4a9.35,9.35,0,0,0-.06-1.12.91.91,0,0,0-1-.8H36.86a.93.93,0,0,0-1,.84,7.71,7.71,0,0,0,0,1.08ZM38.2,50.77h9.91v-1.1c0-.82-.09-.91-.93-.91H40C38,48.77,38.1,48.43,38.2,50.77Zm2.95-36h4a1.85,1.85,0,0,0-.89-1.93,1.91,1.91,0,0,0-2.21,0A1.86,1.86,0,0,0,41.15,14.74Zm2.91,32.11v-3H42.23v3Z"/></svg>