<svg id="Layer_1" data-name="Layer 1" xmlns="http://www.w3.org/2000/svg" viewBox="0 0 85.04 85.04"><defs><style>.cls-1{fill:#1d1d1b;}</style></defs><path class="cls-1" d="M40.07,65.82c-1.11,0-2.24,0-3.34,0H35.19c-.35,0-.43,0-.44-.08s0-.09.06-.4a4.26,4.26,0,0,1,.77-1.45,96.06,96.06,0,0,0,8-10.42A.82.82,0,0,1,44.4,53c2.57,0,5.18,0,7.7,0a2.07,2.07,0,0,0,2.24-2.25v-.4c0-.46,0-.91,0-1.37a2,2,0,0,0-2-2H52a4.73,4.73,0,0,0-.92,0,3.41,3.41,0,0,1-2.3-.69L48.15,46l.06-.1c.09-.17.17-.31.24-.46l.86-1.81c.87-1.82,1.77-3.69,2.62-5.55a.67.67,0,0,1,.74-.46c.35,0,.47.1.6.44a83.86,83.86,0,0,0,5,10.53l.09.15c.29.51.58,1,.91,1.53a1,1,0,0,0,1.44.35,1.08,1.08,0,0,0,.43-1.43,3.67,3.67,0,0,0-.26-.48l-.09-.15a83.69,83.69,0,0,1-5.31-10.73l-.09-.19c-.2-.46-.31-.76,0-1.11a.73.73,0,0,0,.11-.5v-.63c0-.66,0-1.32,0-2a2.67,2.67,0,0,0-1.43-2.37c-.29-.16-.37-.31-.37-.7q0-6,0-12.09V15.1c0-.38,0-1.56-1.09-1.58a1.06,1.06,0,0,0-.75.26,1.82,1.82,0,0,0-.39,1.34V18q0,6.23,0,12.46a.55.55,0,0,1-.33.6,2.71,2.71,0,0,0-1.47,2.47c0,.73,0,1.59,0,2.42a2.11,2.11,0,0,0,.1.5,1.73,1.73,0,0,1,.07.31v.09a.79.79,0,0,1,0,.43c-.56,1.31-1.11,2.6-1.71,3.84-.44.93-.9,1.82-1.39,2.77l-.54,1-.71-.47c-.64-.41-1.25-.81-1.85-1.23a42.2,42.2,0,0,1-7.45-6.54c-.18-.2-.22-.3-.22-.34,0-.5,0-1,.05-1.48s0-1,0-1.56a2.68,2.68,0,0,0-1.4-2.46.74.74,0,0,1-.42-.79q0-7.59,0-15.16a1.58,1.58,0,0,0-.28-1,1,1,0,0,0-.82-.38h0c-.69,0-1.09.51-1.1,1.39v2.76q0,6.29,0,12.58a.71.71,0,0,1-.2.47,3,3,0,0,0-1.6,2.71c0,.19,0,.38,0,.57a5.47,5.47,0,0,0,0,1.4,2.09,2.09,0,0,1-.85,2,59.67,59.67,0,0,1-11.59,8.76,4.79,4.79,0,0,1-3.22.87,2.25,2.25,0,0,0-2.52,1.41v3.13l0,.1a2.56,2.56,0,0,0,2.58,1.39h0c2.56,0,5.16,0,7.67,0H27.9c.42,0,.56.06.69.48A4.88,4.88,0,0,0,36,56a5.06,5.06,0,0,0,2-2.85h3.22l0,0a89.34,89.34,0,0,1-7.3,9.3A5.09,5.09,0,0,0,32.61,65a2.74,2.74,0,0,0,.49,2.21,2,2,0,0,0,1.49.75c.83,0,1.67.05,2.5.05,1.09,0,2.17,0,3.21-.05a1.23,1.23,0,0,0,.92-.64,1.13,1.13,0,0,0-.14-1.08A1.48,1.48,0,0,0,40.07,65.82Zm-4.44-12.7a2.64,2.64,0,0,1-2.37,1.55h0a2.68,2.68,0,0,1-2.41-1.55Zm-9-4.75a1,1,0,0,0-.17-.91,1.2,1.2,0,0,0-1-.42h-4.8l.69-.46c.86-.57,1.67-1.11,2.47-1.67a47.67,47.67,0,0,0,8.37-7.23,1.47,1.47,0,0,1,1-.31h0a1.37,1.37,0,0,1,.92.28,46.74,46.74,0,0,0,11.2,9.29l.15.1H29.86c-1.11,0-1.29.65-1.31,1a1,1,0,0,0,1,1.11H52.1v1.59H14.33V49.2H25.41A1.06,1.06,0,0,0,26.61,48.37Zm5.91-15.19a.63.63,0,0,1,.74-.57.69.69,0,0,1,.7.72c0,.45,0,.9,0,1.38v.45H32.5c0-.15,0-.31,0-.47A12.56,12.56,0,0,1,32.52,33.18ZM51.89,35c0-.51,0-1,0-1.49a.67.67,0,0,1,.77-.61.69.69,0,0,1,.69.71c0,.45,0,.91,0,1.39v.45H51.89Z"/><path class="cls-1" d="M71.33,62.42c-2.35-2.71-4.24-4.94-6-7-.47-.56-.89-1.18-1.3-1.78-.25-.36-.49-.72-.75-1.07a1.1,1.1,0,0,0-1.56-.3,1.11,1.11,0,0,0-.24,1.53l.17.25.06.1a76.32,76.32,0,0,0,7.85,9.68,3.72,3.72,0,0,1,.79,1.25c.13.36.17.58.12.64s-.54.11-.69.11H44.71a1.28,1.28,0,0,0-.64.07,1.6,1.6,0,0,0-.77.73,1,1,0,0,0,.09.9,1.23,1.23,0,0,0,1,.49c.84,0,1.68,0,2.52,0h.91c.91,2.5,2.54,3.82,4.74,3.82h.17A5,5,0,0,0,57.42,68h12.9a2.23,2.23,0,0,0,2.35-2.39A4.78,4.78,0,0,0,71.33,62.42ZM50.19,68h4.86a2.64,2.64,0,0,1-2.61,1.59A2.68,2.68,0,0,1,50.19,68Z"/></svg>