<svg id="Layer_1" data-name="Layer 1" xmlns="http://www.w3.org/2000/svg" viewBox="0 0 85.04 85.04"><path d="M65.81,27.37a1.19,1.19,0,0,0-.92-.35H52.48a1.08,1.08,0,0,0-1.15,1c0,.33-.1.65-.14,1l-.37,2.7c-.39,2.89-.78,5.77-1.18,8.66-.1.76-.21,1.53-.32,2.3l-.15,1-.82-2.62-2.16-6.91L42.11,21.06l-3-9.48c-.32-1-.57-1.21-1.68-1.21H25.65c-.89,0-1.24.3-1.36,1.15-.48,3.39-.95,6.77-1.42,10.21-.24,1.76-.47,3.51-.71,5.27-.21,1.57-.43,3.13-.64,4.69Q21,35.6,20.45,39.53l-.31,2.25q-.67,5-1.37,10c-.07.53-.15,1.06-.22,1.59-.16,1.14-.33,2.32-.47,3.49A1.4,1.4,0,0,0,18.31,58a1.47,1.47,0,0,0,1.13.38H31.53a1.11,1.11,0,0,0,1.28-1.09c.09-.5.15-1,.22-1.5l.35-2.58c.42-3.05.83-6.1,1.25-9.15.08-.59.17-1.19.26-1.78l.06-.37a18.35,18.35,0,0,1,.66,1.88l9.38,30c.32,1,.57,1.22,1.67,1.22H58.49c.89,0,1.25-.3,1.36-1.15.48-3.34.94-6.74,1.42-10.21L62,58.38l.63-4.65c.29-2.11.57-4.22.86-6.32l1.89-13.79.21-1.53c.16-1.16.33-2.36.48-3.54A1.45,1.45,0,0,0,65.81,27.37Zm-2.19,1.95L57.7,72.74H47.56q3-21.73,5.91-43.42ZM45.74,68.44l-.32-1-.9-2.83c-2.92-9.37-5.79-18.54-8.65-27.75a2.26,2.26,0,0,1-.09-1c.74-5.59,1.51-11.28,2.25-16.77l.12-.9c.05-.36.11-.72.17-1.07l0-.28.84,2.67q.93,2.92,1.85,5.87c2.23,7.16,4.77,15.27,7.22,23.18a2.26,2.26,0,0,1,.09,1c-.74,5.61-1.51,11.31-2.26,16.82l-.11.85A7.46,7.46,0,0,1,45.74,68.44ZM20.52,56.1l5.92-43.43H36.59L30.67,56.1Z"/><path d="M32.93,15.47a3.12,3.12,0,0,0-2.2-.94h0a3.19,3.19,0,0,0-3.27,3.13A3.26,3.26,0,0,0,28.3,20a3.08,3.08,0,0,0,2.24,1h.05a3.19,3.19,0,0,0,3.26-3.13A3.27,3.27,0,0,0,32.93,15.47Zm-1.69,3a.94.94,0,0,1-.65.25,1,1,0,0,1-.65-.33.9.9,0,0,1-.24-.65,1,1,0,0,1,.93-.88h0a.91.91,0,0,1,.66.31.94.94,0,0,1,.27.65A1,1,0,0,1,31.24,18.43Z"/><path d="M29.61,22.85h0a3.22,3.22,0,0,0,0,6.44h0a3.2,3.2,0,0,0,2.28-.93A3.27,3.27,0,0,0,32.81,26,3.19,3.19,0,0,0,29.61,22.85Zm-.05,2.29h0a.91.91,0,0,1,.62.26,1,1,0,0,1,.32.65,1,1,0,0,1-.94.95h0a.92.92,0,0,1-.65-.29,1,1,0,0,1-.28-.65A1,1,0,0,1,29.56,25.14Z"/><path d="M28.58,31.17h0a3.28,3.28,0,0,0-2.32.94,3.22,3.22,0,0,0-.92,2.32,3.13,3.13,0,0,0,.95,2.26,3.27,3.27,0,0,0,2.29.92h0a3.22,3.22,0,0,0,0-6.44Zm-1,3.17a1,1,0,0,1,.93-.89h0a1,1,0,0,1,.66.31.94.94,0,0,1,.28.65,1,1,0,0,1-.32.65.92.92,0,0,1-.62.26h0a1,1,0,0,1-.65-.33A.92.92,0,0,1,27.62,34.34Z"/><path d="M27.55,39.49h0a3.22,3.22,0,0,0-.08,6.44h0a3.22,3.22,0,0,0,.06-6.44Zm.59,3.88a.94.94,0,0,1-.63.27h0a1,1,0,0,1-.91-.91,1,1,0,0,1,.93-.95h0a.92.92,0,0,1,.65.29,1,1,0,0,1,.29.65A1,1,0,0,1,28.14,43.37Z"/><path d="M26.48,47.81h0a3.23,3.23,0,0,0-2.29,5.5,3.25,3.25,0,0,0,2.29.94A3.19,3.19,0,0,0,29.69,51a3.24,3.24,0,0,0-.93-2.29A3.2,3.2,0,0,0,26.48,47.81Zm.92,3.28a1,1,0,0,1-.35.65.93.93,0,0,1-.65.22,1,1,0,0,1-.86-1,1,1,0,0,1,.33-.65.9.9,0,0,1,.6-.26h.05a1,1,0,0,1,.65.35A.87.87,0,0,1,27.4,51.09Z"/><path d="M57.66,37.61h0a3.22,3.22,0,0,0,0-6.44h0a3.22,3.22,0,1,0,0,6.44Zm-.93-3.2a1,1,0,0,1,.28-.65.92.92,0,0,1,.65-.3h0a.93.93,0,0,1,.64.28,1,1,0,0,1,.29.66.93.93,0,0,1-.31.65.87.87,0,0,1-.62.27h0A1,1,0,0,1,56.73,34.41Z"/><path d="M56.61,45.93h0a3.22,3.22,0,0,0,0-6.44h0a3.19,3.19,0,0,0-3.22,3.22A3.24,3.24,0,0,0,54.34,45,3.19,3.19,0,0,0,56.61,45.93Zm-.92-3.18A.9.9,0,0,1,56,42.1a1,1,0,0,1,.65-.32h0a.92.92,0,0,1,.62.26.88.88,0,0,1,0,1.31.94.94,0,0,1-.65.29h0A1,1,0,0,1,55.69,42.75Z"/><path d="M55.48,54.25h.05a3.3,3.3,0,0,0,2.33-.93,3.1,3.1,0,0,0,.94-2.25,3.18,3.18,0,0,0-3.17-3.26h0a3.22,3.22,0,0,0-.13,6.44Zm-.54-3.86a.92.92,0,0,1,.65-.29h0a1,1,0,0,1,.93.95.94.94,0,0,1-.32.65.93.93,0,0,1-.65.26,1,1,0,0,1-.9-.92A1,1,0,0,1,54.94,50.39Z"/><path d="M54.55,62.57h0a3.18,3.18,0,0,0,2.27-.94,3.25,3.25,0,0,0,.93-2.36,3.19,3.19,0,0,0-3.21-3.14h0a3.22,3.22,0,1,0,0,6.44Zm-.94-3.22a.94.94,0,0,1,.3-.65.93.93,0,0,1,.64-.29h0a1,1,0,0,1,.65.31.92.92,0,0,1,.27.65,1,1,0,0,1-.32.65.94.94,0,0,1-.62.26h0A1,1,0,0,1,53.61,59.35Z"/><path d="M51.24,70a3.23,3.23,0,0,0,2.28.93h0a3.24,3.24,0,0,0,2.25-5.51,3.22,3.22,0,0,0-2.29-.93h0a3.19,3.19,0,0,0-3.19,3.25A3.13,3.13,0,0,0,51.24,70Zm1.33-2.34a1,1,0,0,1,.94-.89.94.94,0,0,1,.65.3.86.86,0,0,1,0,1.3.92.92,0,0,1-.65.27.94.94,0,0,1-.65-.33A.89.89,0,0,1,52.57,67.62Z"/></svg>