<svg id="Layer_1" data-name="Layer 1" xmlns="http://www.w3.org/2000/svg" viewBox="0 0 85.04 85.04"><path d="M17.53,42.94H23c1,0,1.34.32,1.37,1.34a18,18,0,0,0,35.82,2.45c.13-.83.19-1.67.24-2.5s.37-1.29,1.29-1.29H73c.87,0,1.24.37,1.24,1.25a30.57,30.57,0,0,1-4.61,16.34A31.32,31.32,0,0,1,48.56,75.25a31.87,31.87,0,0,1-37-23.58,31.19,31.19,0,0,1-.92-7.26c0-1.16.29-1.47,1.43-1.47Zm26,21.23v9.48c6.84-.16,16.49-4.19,19-7.89l-6.67-6.69A20.23,20.23,0,0,1,43.53,64.17Zm20.68-.06c4.14-3.51,8.2-13.32,7.83-19H62.59a20.8,20.8,0,0,1-1.52,6.65,20.54,20.54,0,0,1-3.56,5.66ZM41.33,73.68V64.17a20.8,20.8,0,0,1-6.63-1.52,20.08,20.08,0,0,1-5.63-3.52l-6.74,6.74A29.52,29.52,0,0,0,41.33,73.68ZM12.8,45.1c-.19,6.1,3.86,15.85,7.82,19l6.69-6.71a20,20,0,0,1-3.55-5.68,21.23,21.23,0,0,1-1.51-6.58Z"/><path d="M45.61,55.72c0,1,0,2,0,2.93s-.36,1.26-1.22,1.27H40.47c-.86,0-1.22-.38-1.22-1.27s0-1.93,0-3H36.5c-1.21,0-1.5-.28-1.5-1.46,0-3,0-6,0-9a.89.89,0,0,0-.43-.86,13.37,13.37,0,0,1-1.34-21.24A13.81,13.81,0,0,1,55.9,30.32a13.14,13.14,0,0,1-5.5,13.94,1,1,0,0,0-.56,1c0,3,0,6,0,9,0,1.09-.32,1.4-1.43,1.4H45.84ZM39.2,45.05V38.66h-1a1,1,0,0,1-1-1h0a1,1,0,0,1,1-1h8.5a1,1,0,0,1,1,1v0a1,1,0,0,1-1,1h-1V45h2a1,1,0,0,0,0-.28,1.85,1.85,0,0,1,1.11-2,11,11,0,0,0,5.23-10.19,11.68,11.68,0,0,0-17-9.45c-7.69,4-8.44,14.78-1.32,19.43,1,.63,1.64,1.23,1.44,2.44,0,0,.05.07.09.11Zm8.51,2.18H37.18v2.05H47.71ZM37.15,53.51H47.68V51.43H37.15ZM41.38,45h2.06V38.75H41.38Zm0,10.65v2.08h2V55.67h-2Z"/><path d="M69,29.17a4.25,4.25,0,1,1-4.2-4.27A4.22,4.22,0,0,1,69,29.17Zm-2.13,0a2.12,2.12,0,1,0-2.17,2.06A2.18,2.18,0,0,0,66.83,29.2Z"/><path d="M21.24,30.21A3.18,3.18,0,1,1,18,33.36,3.16,3.16,0,0,1,21.24,30.21Zm0,4.24a1.12,1.12,0,0,0,1-1.1,1.06,1.06,0,0,0-2.11,0A1.13,1.13,0,0,0,21.23,34.45Z"/><rect x="47.46" y="15.35" width="4.76" height="2.15" rx="0.94" transform="translate(12.8 53.61) rotate(-63.34)"/><path d="M32.74,14.35l.24-.12a.94.94,0,0,1,1.26.42l1.3,2.58a1,1,0,0,1-.42,1.26l-.24.12a.93.93,0,0,1-1.26-.42l-1.3-2.58A.94.94,0,0,1,32.74,14.35Z"/><path d="M25.5,19.6h0a.93.93,0,0,1,1.32,0l1.77,1.78a1,1,0,0,1,0,1.37h0a.94.94,0,0,1-1.29,0l-1.78-1.77A.94.94,0,0,1,25.5,19.6Z"/><path d="M56.26,21.36,58,19.6a.94.94,0,0,1,1.34,0l0,0a.94.94,0,0,1,0,1.32l-1.76,1.76a.94.94,0,0,1-1.36,0l0,0A.93.93,0,0,1,56.26,21.36Z"/><rect x="41.4" y="12.22" width="2.05" height="4.15" rx="0.94"/><path d="M42.4,24.86v.25a1,1,0,0,1-.82.93c-3.73.59-6.13,2.54-6.53,6.5a.93.93,0,0,1-.94.81h-.23a.94.94,0,0,1-.94-1c.19-4.92,4.07-8,8.41-8.44A1,1,0,0,1,42.4,24.86Z"/><rect x="32.92" y="35.55" width="2.05" height="2.03" rx="1.02"/></svg>