<svg id="Layer_1" data-name="Layer 1" xmlns="http://www.w3.org/2000/svg" viewBox="0 0 85.04 85.04"><path d="M48.8,17.39v3.72c0,1.27-.31,1.58-1.56,1.59H43.61V29c.23,0,.48,0,.72,0h5.9a5.19,5.19,0,0,1,.56,0c.74,0,1.22.49,1.2,1.1a1.11,1.11,0,0,1-1.25,1H43.59c0,.26,0,.48,0,.71q0,8.91,0,17.84a.91.91,0,0,0,.53.92,3,3,0,0,1,1.57,2.93c-.1,1.17.31,1.64,1.41,2.13A11.28,11.28,0,0,1,54.1,66c.06,1.06-.35,1.44-1.41,1.44H48.14a6,6,0,0,1-2.69,3.85,5.85,5.85,0,0,1-3.49.81c-2.47-.16-4.36-1.81-5.23-4.66H32.28c-1.16,0-1.51-.34-1.48-1.51a11.12,11.12,0,0,1,1.08-4.46,1.09,1.09,0,0,1,1.46-.7c.59.25.76.87.49,1.61-.32.91-.6,1.84-.94,2.86H52a24,24,0,0,0-.69-2.4,9.51,9.51,0,0,0-14.09-4.37c-.15.11-.3.22-.46.32a1.07,1.07,0,0,1-1.48-.29A.93.93,0,0,1,35.47,57c1-.62,2-1.14,3.06-1.68a5.23,5.23,0,0,1,.71-.25c0-.51,0-1,0-1.53A3.25,3.25,0,0,1,41,50.52a.81.81,0,0,0,.35-.58q0-9.3,0-18.61a.62.62,0,0,0,0-.11,2,2,0,0,0-.37-.06c-3.89,0-7.78,0-11.66,0a8.38,8.38,0,0,0-7.88,7.55c1.74.77,2.18,2.27,2,4-.05.57.15.8.69,1a13.16,13.16,0,0,1,2.15,1c.73.4.92,1,.6,1.56s-1,.69-1.7.28A9.25,9.25,0,0,0,14.69,47a9.17,9.17,0,0,0-3.83,6.14,3.23,3.23,0,0,0,0,.44h19c-.4-1.13-.76-2.17-1.13-3.21-.08-.22-.23-.42-.3-.63a1,1,0,0,1,.52-1.31.92.92,0,0,1,1.3.3,10.63,10.63,0,0,1,1.64,6.06c0,.64-.53.95-1.19.94H25.94a6,6,0,0,1-2.58,3.78,5.54,5.54,0,0,1-3.26.91c-2.75-.1-4.66-1.7-5.57-4.69H10.07c-1.17,0-1.48-.33-1.47-1.51a11.71,11.71,0,0,1,7.82-10.55l.62-.21c0-.61,0-1.19,0-1.77a3.11,3.11,0,0,1,1.71-2.79.91.91,0,0,0,.54-.8,10.45,10.45,0,0,1,9.47-9c3.86-.15,7.73-.07,11.59-.09h.95V22.7H38.17c-.3,0-.61,0-.91,0a1.08,1.08,0,0,1-1.15-1.21c0-1.33,0-2.66,0-4.09H29.33c-.86,0-1.34-.39-1.34-1.08s.46-1,1.29-1.06H74.44c.3,0,.61,0,.91,0a1,1,0,0,1,1,1,1,1,0,0,1-1,1.08,4.56,4.56,0,0,1-.64,0H48.8Zm-2.15.05H38.28v3h8.37Zm-23,38.35H16.91A3.31,3.31,0,0,0,20,58.29,3.41,3.41,0,0,0,23.6,55.79ZM39.08,67.43a3.5,3.5,0,0,0,3.61,2.51,3.36,3.36,0,0,0,3.1-2.51ZM21.31,43.07c-.22-.78.34-1.68-.54-2.21a1.29,1.29,0,0,0-1.15.06c-.71.57-.35,1.39-.38,2.15ZM43.47,54.68c-.1-.77.35-1.64-.48-2.18a1.2,1.2,0,0,0-1.09,0c-.82.55-.36,1.41-.46,2.17Z"/><path d="M67.87,43.48a11.76,11.76,0,0,1,5.75,3.77,11.29,11.29,0,0,1,2.68,7.21c0,.89-.38,1.28-1.27,1.28H70.4c-.21.55-.38,1.08-.62,1.57a1.08,1.08,0,0,1-1.53.66,1.11,1.11,0,0,1-.4-1.57c.08-.18.15-.38.24-.62H61.32a3.34,3.34,0,0,0,3.16,2.49c.57,0,1.07.21,1.17.79a1.44,1.44,0,0,1-.29,1.06,1.34,1.34,0,0,1-1,.29,5.68,5.68,0,0,1-5.23-4l-.22-.7H54.4c-1,0-1.42-.4-1.39-1.46A11.69,11.69,0,0,1,60.87,43.7c.46-.15.63-.35.6-.83a8,8,0,0,1,0-1.47,3,3,0,0,1,1.63-2.46.57.57,0,0,0,.35-.72,8.45,8.45,0,0,0-8.08-7.06c-.87,0-1.33-.42-1.31-1.12s.52-1.08,1.44-1a10.54,10.54,0,0,1,10.11,9.27.77.77,0,0,0,.35.52,3.36,3.36,0,0,1,1.87,3.34C67.86,42.56,67.87,43,67.87,43.48ZM74,53.6a9.41,9.41,0,0,0-18.72,0ZM65.67,43.05c0-.53,0-1,0-1.51a.9.9,0,0,0-1-.85.92.92,0,0,0-1,.89c0,.48,0,1,0,1.47Z"/><path d="M17.06,17.39H9.83c-.58,0-1.08-.21-1.16-.77a1.87,1.87,0,0,1,.41-1.16c.12-.17.51-.21.77-.21H24.3c.77,0,1.24.43,1.25,1a1.12,1.12,0,0,1-1.27,1.1Z"/></svg>