<svg id="Layer_1" data-name="Layer 1" xmlns="http://www.w3.org/2000/svg" viewBox="0 0 85.04 85.04"><defs><style>.cls-1{fill:#1d1d1b;}</style></defs><path class="cls-1" d="M58.15,33.14c-.29-.93-.83-1.36-1.48-1.15a1,1,0,0,0-.6.46,1.9,1.9,0,0,0,.06,1.42,14,14,0,0,1-2.75,13.92l-.55.65a18.85,18.85,0,0,0-1.37,1.7,15.23,15.23,0,0,0-2.66,9.23,1.41,1.41,0,0,1-.27,1,1.26,1.26,0,0,1-.93.27H38c-.85,0-1.17-.31-1.2-1.19,0-.23,0-.45,0-.68,0-.71,0-1.44-.13-2.16a15,15,0,0,0-4.15-8.58A13.64,13.64,0,0,1,29,35.51,14.09,14.09,0,0,1,54,29.85a1.12,1.12,0,0,0,1.62.37,1,1,0,0,0,.43-.69,1.31,1.31,0,0,0-.37-1c-4.24-5.14-9.57-7.15-15.83-6A15.48,15.48,0,0,0,27.4,33.47c-1.92,5.83-.73,11.25,3.53,16.09a18.52,18.52,0,0,1,2.28,3.12,12.65,12.65,0,0,1,1.44,6.82,3.16,3.16,0,0,0,1.72,3,.81.81,0,0,1,.28.53c0,.88,0,1.78,0,2.65,0,.67,0,1.35,0,2a3.13,3.13,0,0,0,2.76,3.19l.22,0,.06,0a3.45,3.45,0,0,0,2.43,4h1.33a3.45,3.45,0,0,0,2.45-4,3.25,3.25,0,0,0,3-3.63V66.17c0-1,0-2.1,0-3.14a.71.71,0,0,1,.17-.47A3.4,3.4,0,0,0,51,59.12a13.51,13.51,0,0,1,3.77-9.69A15.85,15.85,0,0,0,58.15,33.14ZM38.84,66.87h.36a1.64,1.64,0,0,0,1.2-.31,1.13,1.13,0,0,0,.23-.84c0-1-.74-1-1.36-1h-.38V62.87h7.86v1.86H44.07A1.49,1.49,0,0,0,43,65.1a1,1,0,0,0-.26.71c0,.65.52,1,1.36,1h2.65c0,.1,0,.21,0,.31a4.54,4.54,0,0,1,0,.83.88.88,0,0,1-1,.77c-2.11,0-4,0-5.92,0-.66,0-1-.35-1-1,0-.2,0-.39,0-.62Zm4.66,5.68a.86.86,0,0,1-.69.24h0a.86.86,0,0,1-.69-.24c-.23-.25-.3-.76-.22-1.6h1.81A2.17,2.17,0,0,1,43.5,72.55Z"/><path class="cls-1" d="M46.59,41.92a1.08,1.08,0,0,0,1.2,1.2h.73l1.16,0a3.9,3.9,0,0,0,3.69-2.48,5.86,5.86,0,0,0,.08-4.56,3.85,3.85,0,0,0-3.79-2.6H47.9c-.94,0-1.32.4-1.33,1.33s0,1.66,0,2.49v1l0,.11v1C46.59,40.25,46.58,41.08,46.59,41.92Zm2.16-1V35.65H49c.86,0,1.67-.09,2.18.73a3.61,3.61,0,0,1,.09,3.68c-.5,1-1.37.93-2.4.88Z"/><path class="cls-1" d="M42.12,35.56H43.5a1.37,1.37,0,0,0,1-.38,1,1,0,0,0,.27-.73c0-.63-.48-1-1.22-1-1,0-2,0-2.91,0s-1.21.38-1.21,1.22c0,2.48,0,4.94,0,7.32,0,.83.38,1.21,1.22,1.23l1.37,0,1.47,0c.79,0,1.27-.4,1.28-1a1,1,0,0,0-.27-.72,1.48,1.48,0,0,0-1-.38H41.55V39.35h1.79a1.28,1.28,0,0,0,.92-.36,1,1,0,0,0,.26-.73,1.08,1.08,0,0,0-1.18-1H41.57V35.56Z"/><path class="cls-1" d="M35.29,34.62a1.34,1.34,0,0,0-.37-1,1,1,0,0,0-.72-.28,1.13,1.13,0,0,0-1.07,1.23c0,2.74,0,5.17,0,7.44a1.11,1.11,0,0,0,1.16,1.2l1.23,0,1.3,0a1.08,1.08,0,1,0,0-2.16c-.35,0-.69,0-1.06,0H35.3V38.81C35.3,37.44,35.3,36,35.29,34.62Z"/><path class="cls-1" d="M41.72,19c0,.85.39,1.32,1.09,1.32h0c.69,0,1.08-.47,1.09-1.31V14.69c0-1.11,0-2.21,0-3.32a1.35,1.35,0,0,0-.36-1,1,1,0,0,0-.79-.26c-.63,0-1,.51-1,1.25,0,.91,0,1.81,0,2.71V19Z"/><path class="cls-1" d="M24.64,38.49a1,1,0,0,0-.28-.75,1.36,1.36,0,0,0-1-.34H15.71c-.79,0-1.26.4-1.27,1.07a1,1,0,0,0,.28.75,1.33,1.33,0,0,0,1,.34h7.69C24.17,39.56,24.63,39.17,24.64,38.49Z"/><path class="cls-1" d="M69.94,37.4H62.18c-.74,0-1.19.4-1.2,1.06a1.13,1.13,0,0,0,.28.78,1.23,1.23,0,0,0,.89.32H70a1.25,1.25,0,0,0,.94-.35,1.1,1.1,0,0,0-1-1.81Z"/><path class="cls-1" d="M34.44,21.07a1.14,1.14,0,0,0,.63.66.8.8,0,0,0,.34.07,1.22,1.22,0,0,0,.45-.1,1.06,1.06,0,0,0,.55-1.46c-.44-1.11-.95-2.38-1.51-3.6a1.65,1.65,0,0,0-.54-.57L34.21,16l0,0h0a1.28,1.28,0,0,0-1.11.5,1.11,1.11,0,0,0-.07,1C33.4,18.58,33.88,19.76,34.44,21.07Z"/><path class="cls-1" d="M49.76,21.7a1.08,1.08,0,0,0,.45.1,1,1,0,0,0,.9-.62c.68-1.54,1.17-2.72,1.6-3.84a1,1,0,0,0-.1-.91,1.32,1.32,0,0,0-1.12-.51h0l0,0-.14.11a1.86,1.86,0,0,0-.53.52,4.48,4.48,0,0,0-.4.86c0,.12-.09.24-.14.36s-.19.46-.28.68c-.24.58-.49,1.17-.72,1.76A1.05,1.05,0,0,0,49.76,21.7Z"/><path class="cls-1" d="M20.88,30.53c1.1.48,2.42,1,3.77,1.58a1.31,1.31,0,0,0,.43.08,1,1,0,0,0,1-.68,1,1,0,0,0-.6-1.37c-1-.44-2.05-.87-3.05-1.28l-.61-.25a1.48,1.48,0,0,0-.31-.07h-.08a1,1,0,0,0-1.11.79A1,1,0,0,0,20.88,30.53Z"/><path class="cls-1" d="M59.56,31.38a.92.92,0,0,0,1,.79h0a.62.62,0,0,0,.25,0l1-.41c1-.41,2-.82,3-1.27a.92.92,0,0,0,.42-1.29,1,1,0,0,0-1.27-.6c-1.59.6-2.86,1.14-4,1.69A1.32,1.32,0,0,0,59.56,31.38Z"/><path class="cls-1" d="M26,46.25l.11-.15,0,0v0A1.29,1.29,0,0,0,25.61,45a1.1,1.1,0,0,0-1-.09c-1.13.44-2.31.94-3.72,1.55a1,1,0,0,0-.57,1.34,1,1,0,0,0,1,.7,1.14,1.14,0,0,0,.4-.08c1.13-.44,2.46-1,3.77-1.58A1.44,1.44,0,0,0,26,46.25Z"/><path class="cls-1" d="M64.8,46.46c-1.44-.65-2.71-1.17-3.9-1.62A1,1,0,0,0,60,45a1.28,1.28,0,0,0-.48,1.1v0l0,0a.73.73,0,0,1,.09.13,1.13,1.13,0,0,0,.47.5c1.14.53,2.41,1.06,3.88,1.64a1.21,1.21,0,0,0,.37.07,1,1,0,0,0,.39-.08,1.14,1.14,0,0,0,.57-.61A1,1,0,0,0,64.8,46.46Z"/><path class="cls-1" d="M28.59,25.7a.94.94,0,0,0,.62.19,1.26,1.26,0,0,0,.46-.08,1.33,1.33,0,0,0,.52-.53,2,2,0,0,1,.17-.23l0-.06,0-.06-.11-.28a1.2,1.2,0,0,0-.23-.42l0,0c-1-1-2-2-3-3a1,1,0,0,0-1.46,1.48C26.73,23.93,27.67,24.86,28.59,25.7Z"/><path class="cls-1" d="M56,25.86c.08.06.17.11.24.17l0,0,.06,0,.28-.12a1.2,1.2,0,0,0,.42-.23l.06-.06c1-1,2-1.95,3-3a1,1,0,0,0-1.49-1.45c-1.25,1.19-2.18,2.13-3,3a1.22,1.22,0,0,0-.1,1.09A1.37,1.37,0,0,0,56,25.86Z"/><path class="cls-1" d="M29.24,51a.88.88,0,0,0-.63.25c-1.11,1.05-2.16,2.1-3.11,3.14a1.11,1.11,0,0,0-.06,1,1.53,1.53,0,0,0,.54.5l.23.17.06,0,.06,0,.28-.12a1.39,1.39,0,0,0,.42-.23c.9-.88,2-1.93,3-3a1,1,0,0,0,0-1.4A1.11,1.11,0,0,0,29.24,51Z"/><path class="cls-1" d="M57.24,51.41a2.34,2.34,0,0,0-.52-.34l-.32-.19-.07-.05-.06.06-.28.23a2.57,2.57,0,0,0-.55.54.91.91,0,0,0,.26,1.21l.31.32,2.4,2.4a1.3,1.3,0,0,0,.88.41,1,1,0,0,0,.72-.32,1.06,1.06,0,0,0-.09-1.6C59,53.11,58.09,52.24,57.24,51.41Z"/></svg>