<svg id="Layer_1" data-name="Layer 1" xmlns="http://www.w3.org/2000/svg" viewBox="0 0 85.04 85.04"><defs><style>.cls-1{fill:#fff;}</style></defs><path d="M70.62,66.85a1.57,1.57,0,0,1-1.5.75H16.38c-1.15,0-1.49-.35-1.49-1.49,0-1.72,0-3.44,0-5.17a1.11,1.11,0,0,1,1.23-1.25h2V32.34H16.14c-.86,0-1.25-.4-1.25-1.27,0-1.76,0-3.52,0-5.28,0-.94.36-1.33,1.3-1.34h4.89V21c0-1.1.36-1.45,1.47-1.46H32.68c1,0,1.45.41,1.45,1.45v3.49h.69c1,0,2.07,0,3.1,0a1,1,0,0,1,1,1.07,1.13,1.13,0,0,1-1.06,1.11,4.87,4.87,0,0,1-.54,0H17.1v3.45H68.41V26.67H48.17a4.87,4.87,0,0,1-.54,0,1.14,1.14,0,0,1-1.06-1.11,1.1,1.1,0,0,1,1-1.08c.25,0,.51,0,.76,0h3V22.86c0-.67,0-1.34,0-2a1.18,1.18,0,0,1,1.35-1.32H63.12c.89,0,1.3.41,1.3,1.29,0,1.18,0,2.36,0,3.6.22,0,.41,0,.6,0,1.36,0,2.72,0,4.08,0a1.62,1.62,0,0,1,1.52.71v6.43a1.33,1.33,0,0,1-1.42.77c-.59,0-1.18,0-1.78,0V59.67c.6,0,1.16,0,1.71,0a1.43,1.43,0,0,1,1.49.76ZM20.37,32.37V59.63H65.16V32.37ZM68.43,61.92H17.1v3.4H68.43ZM31.87,21.79H23.28V24.4h8.59Zm30.34,2.62V21.78H53.65v2.63Z"/><path d="M43.85,25.59a1.09,1.09,0,0,1-1.12,1.07,1.14,1.14,0,0,1-1.06-1.1,1.09,1.09,0,0,1,1.11-1.09A1.06,1.06,0,0,1,43.85,25.59Z"/><path class="cls-1" d="M20.37,32.37H65.16V59.63H20.37ZM40.7,48.94v.67c0,2.19,0,4.39,0,6.58,0,.85.63,1.43,1.35,1.18a1.71,1.71,0,0,0,.82-.71C44.59,53.79,46.28,50.9,48,48c.62-1.06,1.25-2.12,1.86-3.19a1.09,1.09,0,0,0-.49-1.63,2.28,2.28,0,0,0-.7-.08H44.81V35.88c0-.87-.57-1.44-1.32-1.23a1.7,1.7,0,0,0-.86.73c-1.65,2.75-3.26,5.52-4.89,8.28-.68,1.18-1.38,2.34-2.05,3.52a1.09,1.09,0,0,0,1,1.75c.23,0,.47,0,.71,0ZM59,44.9c0-.4,0-.74,0-1.07a1.09,1.09,0,0,0-1.11-1.15,1.12,1.12,0,0,0-1.09,1.18c0,.34,0,.67,0,1.06-.44,0-.8,0-1.16,0a1.06,1.06,0,0,0-1,1.14,1.1,1.1,0,0,0,1.15,1.07H56.8c0,.38,0,.7,0,1a1.09,1.09,0,0,0,1.06,1.19A1.08,1.08,0,0,0,59,48.17c0-.34,0-.67,0-1h1A1.15,1.15,0,0,0,61.25,46c0-.66-.47-1.09-1.26-1.13ZM27.59,47.13h2.06c.79,0,1.27-.44,1.27-1.11a1.09,1.09,0,0,0-1.21-1.11c-1.41,0-2.82,0-4.24,0A1.11,1.11,0,0,0,24.25,46a1.15,1.15,0,0,0,1.28,1.12Z"/><path d="M40.7,48.94H37.36c-.24,0-.48,0-.71,0a1.09,1.09,0,0,1-1-1.75c.67-1.18,1.37-2.34,2.05-3.52,1.63-2.76,3.24-5.53,4.89-8.28a1.7,1.7,0,0,1,.86-.73c.75-.21,1.32.36,1.32,1.23v7.23h3.84a2.28,2.28,0,0,1,.7.08,1.09,1.09,0,0,1,.49,1.63C49.23,45.89,48.6,47,48,48c-1.7,2.89-3.39,5.78-5.11,8.65a1.71,1.71,0,0,1-.82.71c-.72.25-1.35-.33-1.35-1.18,0-2.19,0-4.39,0-6.58Zm1.89-9-.12,0-4,6.76h3.11A1.14,1.14,0,0,1,42.91,48c0,.94,0,1.88,0,2.83V52l.13,0,4-6.78H43.93c-.93,0-1.32-.38-1.33-1.31,0-.76,0-1.53,0-2.29Z"/><path d="M59,44.9h1c.79,0,1.27.47,1.26,1.13A1.15,1.15,0,0,1,60,47.13H59c0,.37,0,.7,0,1a1.08,1.08,0,0,1-1.14,1.17,1.09,1.09,0,0,1-1.06-1.19c0-.32,0-.64,0-1H55.74a1.1,1.1,0,0,1-1.15-1.07,1.06,1.06,0,0,1,1-1.14c.36,0,.72,0,1.16,0,0-.39,0-.72,0-1.06a1.12,1.12,0,0,1,1.09-1.18A1.09,1.09,0,0,1,59,43.83C59,44.16,59,44.5,59,44.9Z"/><path d="M27.59,47.13H25.53A1.15,1.15,0,0,1,24.25,46a1.11,1.11,0,0,1,1.22-1.1c1.42,0,2.83,0,4.24,0A1.09,1.09,0,0,1,30.92,46c0,.67-.48,1.1-1.27,1.11Z"/></svg>