<svg id="Layer_1" data-name="Layer 1" xmlns="http://www.w3.org/2000/svg" viewBox="0 0 85.04 85.04"><defs><style>.cls-1{fill:#fff;}</style></defs><path class="cls-1" d="M32.18,29a12,12,0,0,1-3.26-3.69A2.66,2.66,0,0,1,29,22.38a13,13,0,0,1,3.81-4c5.81-3.87,12.11-4.41,18.72-2.68A14,14,0,0,1,54.35,17c.51.27.54.72,0,1.06a7.67,7.67,0,0,1-1.61.88,23.89,23.89,0,0,1-12.32.93c-1.13-.22-2.22-.65-3.33-1a1.08,1.08,0,1,0-.77,2c.15.07.31.12.47.18,4.86,1.82,9.79,1.62,14.75.49A9.05,9.05,0,0,0,56,19.5a2.48,2.48,0,0,0,0-3.92,7.15,7.15,0,0,0-2.35-1.41A31.51,31.51,0,0,0,48.77,13a24.67,24.67,0,0,0-7.43-.13A23.87,23.87,0,0,0,32.65,16c-.33.19-.57.25-.86-.06a20.84,20.84,0,0,1-2.12-2.19,8,8,0,0,1-1.08-2.42c-.2-.72-.53-1.22-1.15-1.2s-1.06.54-1,1.34a6.66,6.66,0,0,0,1.91,4.11c.61.7,1.33,1.31,2,2a14.08,14.08,0,0,0-3.3,3.92,4.86,4.86,0,0,0-.14,4.69,8,8,0,0,0,1,1.69c.72.87,1.52,1.67,2.3,2.52a12,12,0,0,0-3.27,4,6.79,6.79,0,0,0-.56,2.51,6,6,0,0,0,1.73,4c.65.77,1.39,1.47,2,2.07-1,1.35-2.12,2.63-3,4a4.51,4.51,0,0,0-.21,4.61,7.52,7.52,0,0,0,1,1.7c.73.89,1.55,1.71,2.35,2.58-.1.1-.26.22-.38.36A44.59,44.59,0,0,0,27,59.79a4.28,4.28,0,0,0-.08,4.6,26.48,26.48,0,0,0,2.4,3.23,9.34,9.34,0,0,0,1,.92c-.74.74-1.47,1.39-2.1,2.12a6.6,6.6,0,0,0-1.81,4c0,.78.34,1.27,1,1.32s1.07-.43,1.19-1.16A3.37,3.37,0,0,1,29,73.35c.91-1.14,1.91-2.2,2.91-3.27.11-.11.48-.07.67,0,.92.43,1.8,1,2.72,1.37,5.35,2.45,10.87,2.39,16.47,1a9,9,0,0,0,4.18-2,2.5,2.5,0,0,0,0-4,7.69,7.69,0,0,0-2.41-1.44,25.76,25.76,0,0,0-14.13-.94,23.63,23.63,0,0,0-7.25,3,11.58,11.58,0,0,1-3.26-3.64,2.63,2.63,0,0,1-.18-2.39,11.06,11.06,0,0,1,3.43-4.06C38.66,60.93,44,61.38,51.1,60A10.58,10.58,0,0,0,55.71,58a2.64,2.64,0,0,0,0-4.45,9.08,9.08,0,0,0-2-1.13,20.16,20.16,0,0,0-5.92-1.37,24.57,24.57,0,0,0-7.51.16,25.18,25.18,0,0,0-7.71,3c-.19.1-.54.17-.67.07a10.82,10.82,0,0,1-3.06-3.5A2.57,2.57,0,0,1,29,47.91c.85-1.12,1.83-2.15,2.75-3.22.3-.34.57-.26.93,0,6.44,3.84,13.25,4.11,20.27,2A9,9,0,0,0,56,44.94a2.39,2.39,0,0,0,0-3.84,7,7,0,0,0-2.41-1.44,31.86,31.86,0,0,0-5-1.23,23.18,23.18,0,0,0-16,3,.76.76,0,0,1-.67,0,10.53,10.53,0,0,1-3-3.38,2.64,2.64,0,0,1,.07-3c.87-1.14,1.86-2.19,2.84-3.25a.81.81,0,0,1,.72,0c1,.48,2,1,3,1.49,5.13,2.3,10.43,2.26,15.79,1a10.28,10.28,0,0,0,4.45-1.94,2.63,2.63,0,0,0,0-4.32,5.28,5.28,0,0,0-1.63-1,39.45,39.45,0,0,0-5-1.36,24.8,24.8,0,0,0-8.2-.16A24.54,24.54,0,0,0,32.18,29Z"/><path d="M32.18,29A24.54,24.54,0,0,1,41,25.62a24.8,24.8,0,0,1,8.2.16,39.45,39.45,0,0,1,5,1.36,5.28,5.28,0,0,1,1.63,1,2.63,2.63,0,0,1,0,4.32,10.28,10.28,0,0,1-4.45,1.94c-5.36,1.21-10.66,1.25-15.79-1-1-.45-2-1-3-1.49a.81.81,0,0,0-.72,0c-1,1.06-2,2.11-2.84,3.25a2.64,2.64,0,0,0-.07,3,10.53,10.53,0,0,0,3,3.38.76.76,0,0,0,.67,0,23.18,23.18,0,0,1,16-3,31.86,31.86,0,0,1,5,1.23A7,7,0,0,1,56,41.1a2.39,2.39,0,0,1,0,3.84A9,9,0,0,1,53,46.66c-7,2.09-13.83,1.82-20.27-2-.36-.21-.63-.29-.93,0-.92,1.07-1.9,2.1-2.75,3.22a2.57,2.57,0,0,0-.11,2.84A10.82,10.82,0,0,0,32,54.25c.13.1.48,0,.67-.07a25.18,25.18,0,0,1,7.71-3,24.57,24.57,0,0,1,7.51-.16,20.16,20.16,0,0,1,5.92,1.37,9.08,9.08,0,0,1,2,1.13,2.64,2.64,0,0,1,0,4.45A10.58,10.58,0,0,1,51.1,60c-7.07,1.43-12.44,1-18.92-2.84a11.06,11.06,0,0,0-3.43,4.06,2.63,2.63,0,0,0,.18,2.39,11.58,11.58,0,0,0,3.26,3.64,23.63,23.63,0,0,1,7.25-3,25.76,25.76,0,0,1,14.13.94A7.69,7.69,0,0,1,56,66.56a2.5,2.5,0,0,1,0,4,9,9,0,0,1-4.18,2c-5.6,1.35-11.12,1.41-16.47-1-.92-.42-1.8-.94-2.72-1.37-.19-.1-.56-.14-.67,0-1,1.07-2,2.13-2.91,3.27a3.37,3.37,0,0,0-.44,1.47C28.46,75.55,28,76,27.39,76s-1-.54-1-1.32a6.6,6.6,0,0,1,1.81-4c.63-.73,1.36-1.38,2.1-2.12a9.34,9.34,0,0,1-1-.92A26.48,26.48,0,0,1,27,64.39a4.28,4.28,0,0,1,.08-4.6,44.59,44.59,0,0,1,2.84-3.61c.12-.14.28-.26.38-.36-.8-.87-1.62-1.69-2.35-2.58a7.52,7.52,0,0,1-1-1.7,4.51,4.51,0,0,1,.21-4.61c.91-1.39,2-2.67,3-4-.57-.6-1.31-1.3-2-2.07a6,6,0,0,1-1.73-4A6.79,6.79,0,0,1,27,34.38a12,12,0,0,1,3.27-4c-.78-.85-1.58-1.65-2.3-2.52a8,8,0,0,1-1-1.69,4.86,4.86,0,0,1,.14-4.69,14.08,14.08,0,0,1,3.3-3.92c-.7-.68-1.42-1.29-2-2a6.66,6.66,0,0,1-1.91-4.11c0-.8.35-1.32,1-1.34s.95.48,1.15,1.2a8,8,0,0,0,1.08,2.42,20.84,20.84,0,0,0,2.12,2.19c.29.31.53.25.86.06a23.87,23.87,0,0,1,8.69-3.12,24.67,24.67,0,0,1,7.43.13,31.51,31.51,0,0,1,4.87,1.21A7.15,7.15,0,0,1,56,15.58a2.48,2.48,0,0,1,0,3.92,9.05,9.05,0,0,1-4.44,2.09c-5,1.13-9.89,1.33-14.75-.49-.16-.06-.32-.11-.47-.18a1.08,1.08,0,1,1,.77-2c1.11.32,2.2.75,3.33,1a23.89,23.89,0,0,0,12.32-.93,7.67,7.67,0,0,0,1.61-.88c.51-.34.48-.79,0-1.06a14,14,0,0,0-2.82-1.27C44.92,14,38.62,14.54,32.81,18.41a13,13,0,0,0-3.81,4,2.66,2.66,0,0,0-.08,2.89A12,12,0,0,0,32.18,29Zm2.06,1.34A20.76,20.76,0,0,0,43,33a25,25,0,0,0,9.52-1.2,9.89,9.89,0,0,0,1.92-1c.42-.26.4-.65,0-.91a8.85,8.85,0,0,0-1.86-1A24.21,24.21,0,0,0,41.8,27.7,20,20,0,0,0,34.24,30.3Zm0,25.48.92.48c5.27,2.71,10.76,2.79,16.36,1.32a11.53,11.53,0,0,0,2.76-1.23c.66-.37.64-.74,0-1.17a8.12,8.12,0,0,0-1.76-.9,24.9,24.9,0,0,0-7.17-1.22A20.57,20.57,0,0,0,34.24,55.78Zm.07,12.57,0,.24.92.48c4.94,2.53,10.13,2.68,15.42,1.47a15.93,15.93,0,0,0,3.53-1.4c.73-.36.71-.75,0-1.21A7.12,7.12,0,0,0,52.45,67,23.25,23.25,0,0,0,39,66.54C37.42,67,35.88,67.74,34.31,68.35ZM34.4,43l0,.25c1.39.56,2.76,1.2,4.18,1.67a22.32,22.32,0,0,0,12,.2,17.1,17.1,0,0,0,3.71-1.48c.66-.32.64-.71,0-1.12a8.46,8.46,0,0,0-1.94-1,24.91,24.91,0,0,0-9.81-1.12A20,20,0,0,0,34.4,43Z"/></svg>