<svg id="Layer_1" data-name="Layer 1" xmlns="http://www.w3.org/2000/svg" viewBox="0 0 85.04 85.04"><path d="M43.2,10.07A1.67,1.67,0,0,1,44,11.68c0,1.17,0,2.35,0,3.53a2.87,2.87,0,0,1-.12.83.89.89,0,0,1-1.06.67,2,2,0,0,1-1-.69c-.16-.18-.13-.53-.13-.81,0-1.18,0-2.36,0-3.53a1.67,1.67,0,0,1,.77-1.61Z"/><path d="M45.9,72.56c-1.36,0-2.67,0-4,0a1.76,1.76,0,0,1-1.12-.5A1.14,1.14,0,0,1,40.73,71a1.48,1.48,0,0,1,1-.64c1.65-.07,3.31,0,5,0a3.3,3.3,0,0,0,.77-.07,1,1,0,0,0,.85-1.12,1,1,0,0,0-.95-1c-.37,0-.74,0-1.11,0A1.17,1.17,0,0,1,45,67a1.14,1.14,0,0,1,1.16-1.16c.39,0,.79,0,1.18,0a1,1,0,0,0,1-1.1,1,1,0,0,0-1.05-1c-.34,0-.69,0-1,0A1.17,1.17,0,0,1,45,62.52a1.15,1.15,0,0,1,1.18-1.15c.3,0,.61,0,.91,0a1.1,1.1,0,0,0,1.23-1.2c0-.28,0-.57,0-1-.28,0-.53,0-.78,0-.55,0-1.09,0-1.63-.08a1,1,0,0,1-.9-1A1,1,0,0,1,46,57a2.78,2.78,0,0,1,.64-.06h2.68c.92,0,1.3-.37,1.33-1.31s0-1.74,0-2.61a5.09,5.09,0,0,1,1.77-3.79,19.25,19.25,0,0,0,3.46-3.81,15,15,0,0,0,2.31-10.91,15.11,15.11,0,0,0-8.54-11.55,14.77,14.77,0,0,0-15.22.85A14.84,14.84,0,0,0,27.3,35.48,15.19,15.19,0,0,0,32,48.07c.31.31.64.59,1,.88a5.65,5.65,0,0,1,2,4.54c0,.68,0,1.35,0,2,0,1,.39,1.37,1.39,1.37,2.05,0,4.1,0,6.15,0,.85,0,1.39.48,1.37,1.16s-.52,1.08-1.34,1.13c-.16,0-.31,0-.46,0H37.32a7.9,7.9,0,0,0,0,1.38,1,1,0,0,0,1.13.78h4.12c.84,0,1.38.51,1.36,1.18s-.55,1.1-1.37,1.11H38.38a1,1,0,0,0-1.06.78,1,1,0,0,0,.51,1.22,2.48,2.48,0,0,0,.94.16c1.29,0,2.58,0,3.86,0,1,0,1.56.8,1.19,1.59a1.25,1.25,0,0,1-1.25.68c-1.39,0-2.78,0-4.18,0a1,1,0,0,0-1.07.79,1,1,0,0,0,.5,1.23,2.41,2.41,0,0,0,.61.19c.73.18,1.1.64,1,1.27a1.11,1.11,0,0,1-1.32,1,3.35,3.35,0,0,1-2.61-5.12c.09-.15.2-.29.31-.45a3.35,3.35,0,0,1-.71-3.06c.16-.5.61-1,.61-1.46s-.49-.91-.6-1.41.06-1.37-.2-1.92-1-.76-1.37-1.2a3.1,3.1,0,0,1-.8-2.16c0-.74,0-1.48,0-2.22a3.53,3.53,0,0,0-1.26-2.89,19.12,19.12,0,0,1-3.81-4.36,17.46,17.46,0,0,1-2.56-11.61,17.79,17.79,0,0,1,16-15.61,17.89,17.89,0,0,1,18,10.83,17.07,17.07,0,0,1-1.65,16.94,24.32,24.32,0,0,1-3.26,3.63,4,4,0,0,0-1.41,3.23c0,.67,0,1.35,0,2a3.44,3.44,0,0,1-1.8,3.05.92.92,0,0,0-.41.62,4.47,4.47,0,0,1-.73,2.91.51.51,0,0,0,0,.46,3.29,3.29,0,0,1,0,3.91.64.64,0,0,0,0,.6,3.32,3.32,0,0,1-1.35,5,1.07,1.07,0,0,0-.48.62,5.55,5.55,0,0,1-9.3,2.52c-.61-.59-.7-1.21-.25-1.72a1.13,1.13,0,0,1,1.73,0,3.32,3.32,0,0,0,3.66.81A3,3,0,0,0,45.9,72.56Z"/><path d="M43.89,41.35H41.73V53c0,1.15-.39,1.7-1.18,1.68s-1.12-.55-1.12-1.66V41.31H37.32a4.48,4.48,0,0,1-3.41-7.45,4.46,4.46,0,0,1,4.64-1.28,4.26,4.26,0,0,1,3.08,3.68c.11.9.1,1.82.15,2.77h2.11c0-.62,0-1.24,0-1.85a4.58,4.58,0,0,1,2.45-4.3,4.46,4.46,0,1,1,2.36,8.41c-.8,0-1.6,0-2.51,0v.8q0,5.48,0,11a3,3,0,0,1-.11.9,1,1,0,0,1-1.06.71,1,1,0,0,1-1-.77,3.41,3.41,0,0,1-.1-.9q0-5.41,0-10.85Zm-4.47-2.24c0-.89,0-1.65,0-2.41a2.19,2.19,0,0,0-4.35-.2A2.1,2.1,0,0,0,36.75,39,25.05,25.05,0,0,0,39.42,39.11Zm6.8,0A23.46,23.46,0,0,0,48.91,39a2.07,2.07,0,0,0,1.66-2.31,2.17,2.17,0,0,0-2-2,2.13,2.13,0,0,0-2.3,1.77A24.1,24.1,0,0,0,46.22,39.11Z"/><path d="M19.42,35.7c.68,0,1.35,0,2,0a1.15,1.15,0,0,1,1.27,1.12A1.13,1.13,0,0,1,21.49,38c-1.41,0-2.83,0-4.25,0A1.15,1.15,0,0,1,16,36.8a1.19,1.19,0,0,1,1.31-1.1C18,35.69,18.73,35.7,19.42,35.7Z"/><path d="M66.23,35.7c.69,0,1.39,0,2.09,0a1.18,1.18,0,0,1,1.28,1.12A1.14,1.14,0,0,1,68.41,38C67,38,65.49,38,64,38a1.09,1.09,0,0,1-1.14-1.17,1.16,1.16,0,0,1,1.24-1.09h2.09Z"/><path d="M33.34,18.39a1.15,1.15,0,0,1-.82,1.17,1,1,0,0,1-1.24-.47c-.39-.6-.73-1.23-1.1-1.85s-.75-1.27-1.1-1.92a1.17,1.17,0,0,1,.31-1.66A1.13,1.13,0,0,1,31,14.2c.71,1.2,1.4,2.4,2.08,3.61A4.06,4.06,0,0,1,33.34,18.39Z"/><path d="M53.62,19.61c-1,0-1.6-.85-1.21-1.59.73-1.38,1.53-2.72,2.35-4a1,1,0,0,1,1.43-.33,1.08,1.08,0,0,1,.45,1.46c-.74,1.35-1.51,2.69-2.32,4C54.15,19.37,53.76,19.51,53.62,19.61Z"/><path d="M24.29,27.34a3.5,3.5,0,0,1-.54-.2c-1.21-.68-2.41-1.38-3.61-2.08a1.07,1.07,0,0,1-.65-1.17,1.61,1.61,0,0,1,.73-.89,1.15,1.15,0,0,1,1,.08c1.28.69,2.53,1.43,3.78,2.17a1.08,1.08,0,0,1,.54,1.33C25.36,27.1,25,27.35,24.29,27.34Z"/><path d="M66.16,24.26a2.88,2.88,0,0,1-.68.78c-1.2.75-2.43,1.44-3.66,2.13a1.13,1.13,0,0,1-1.6-.34,1.11,1.11,0,0,1,.43-1.58c1.27-.76,2.54-1.51,3.84-2.21C65.28,22.62,66.17,23.17,66.16,24.26Z"/><path d="M25.69,47.52c-.26.32-.45.74-.78.94-1.19.75-2.42,1.44-3.66,2.13a1.14,1.14,0,0,1-1.64-.37,1.12,1.12,0,0,1,.49-1.56c1.23-.73,2.46-1.46,3.72-2.15A1.24,1.24,0,0,1,25.69,47.52Z"/><path d="M61,46.21a7.44,7.44,0,0,1,.93.37c1.15.65,2.3,1.31,3.44,2,.75.44,1,1.07.64,1.67s-1,.71-1.77.29l-3.55-2.05a1,1,0,0,1-.56-1.37C60.29,46.73,60.71,46.49,61,46.21Z"/></svg>