<svg id="Layer_1" data-name="Layer 1" xmlns="http://www.w3.org/2000/svg" viewBox="0 0 85.04 85.04"><path d="M47.93,41.54c-.48,0-.79.23-1,.82-1.26,4.69-2.51,9.4-3.79,14.09a1.19,1.19,0,0,0,.41,1.43h.69a4.91,4.91,0,0,0,.56-1c1.27-4.67,2.51-9.34,3.76-14a1.68,1.68,0,0,0,.08-.63A.78.78,0,0,0,47.93,41.54Z"/><path d="M55.57,30.56a.85.85,0,0,1,.27-.95c1.76-1.72,3.49-3.46,5.23-5.21.65-.65.5-1.31-.36-1.63l-.14-.05c-3.07-1-6.14-2.07-9.22-3.06a4.19,4.19,0,0,1-1.73-1.06c-2.82-2.86-5.67-5.69-8.51-8.52A2.57,2.57,0,0,0,37.22,10l-.36.33c0-.81,0-1.51,0-2.2s-.31-1-1-1h-3c-.82,0-1.1.27-1.1,1.09,0,2.21,0,4.42,0,6.64a1.21,1.21,0,0,1-.42,1c-1.11,1.08-2.2,2.19-3.3,3.29a2.61,2.61,0,0,0,0,4.17c2.92,2.93,5.86,5.86,8.78,8.8a2.17,2.17,0,0,1,.48.78c1.1,3.25,2.18,6.52,3.27,9.78.35,1,1,1.18,1.74.42,1.73-1.73,3.47-3.45,5.18-5.19a.75.75,0,0,1,.85-.24A5.83,5.83,0,0,0,55.57,30.56Zm-22-21.71h1.62V19.77H33.52Zm4.07,21.58-8.29-8.3c-.69-.7-.69-1.05,0-1.74l2.51-2.51v2.37c0,1,.24,1.27,1.29,1.27h2.72c.74,0,1-.32,1-1.06,0-2.41,0-4.82,0-7.23a1.19,1.19,0,0,1,.29-.68c.37-.43.8-.83,1.21-1.23.58-.57,1-.58,1.56,0l6.8,6.79c.64.64,1.29,1.27,1.92,1.91L37.93,30.73ZM41.89,41a2.31,2.31,0,0,1-.15-.36c-.9-2.67-1.78-5.34-2.68-8a.6.6,0,0,1,.17-.73q5.31-5.27,10.58-10.57a.54.54,0,0,1,.64-.2l8.28,2.77a.85.85,0,0,1,.19.09Zm7.57-4.83L54,31.63C54.5,33.41,52.64,36.47,49.46,36.17Z"/><path d="M58.36,39.27a4.54,4.54,0,0,0-.8-.48,3.64,3.64,0,0,0-.68.68c-.22.36,0,.7.25,1,.91.93,1.84,1.85,2.76,2.77l7.74,7.73c.47.48,1,.53,1.34.16a.83.83,0,0,0-.08-1.3Q63.64,44.52,58.36,39.27Z"/><path d="M75.75,26.67a.8.8,0,0,0-.9-.61,2.7,2.7,0,0,0-.48.09L62.65,29.28c-.86.23-1.72.45-2.57.7a.83.83,0,0,0-.63,1,.81.81,0,0,0,.88.65l.43-.09L74,28c.43-.12.86-.22,1.27-.38A.79.79,0,0,0,75.75,26.67Z"/><path d="M55.78,47.23l-1.59-5.95c-.18-.67-.65-1-1.18-.79s-.64.61-.46,1.29L55,51a2.15,2.15,0,0,0,.19.5.78.78,0,0,0,.92.41.87.87,0,0,0,.66-.88l-.08-.34C56.4,49.52,56.09,48.38,55.78,47.23Z"/><path d="M69.29,37.27a2.35,2.35,0,0,0-.51-.17l-7-1.88c-.73-.2-1.46-.41-2.19-.59s-1.3.21-1.23.89c0,.47.38.66.79.77l9.39,2.51c.13,0,.26.05.35.07a.79.79,0,0,0,.87-.63A.77.77,0,0,0,69.29,37.27Z"/><path d="M29.24,70.06a16.14,16.14,0,0,0-3-.27c-.6,0-1.21,0-1.83,0V65l1-.14a9.73,9.73,0,0,0,7.95-7.32,23.16,23.16,0,0,0,.27-5c0-.65-.32-1-.84-1s-.82.35-.83,1c0,.86,0,1.72,0,2.58a8.05,8.05,0,0,1-7.53,8.17V61.71a16.61,16.61,0,0,0,2.32-.79,6.09,6.09,0,0,0,3.48-5.7c0-6.22,0-12.45,0-18.68a11.12,11.12,0,0,0-.09-1.41,6.28,6.28,0,0,0-5.75-5.19c-2-.05-4-.06-5.94,0a6.17,6.17,0,0,0-5.85,4.64,9.28,9.28,0,0,0-.22,2.11.81.81,0,0,0,.84.83.85.85,0,0,0,.81-.82c0-.25,0-.51,0-.77a4.6,4.6,0,0,1,4.52-4.34H24a4.3,4.3,0,0,1,2.26.65,5.1,5.1,0,0,1,2.23,5.46H24.25c-.63,0-1,.31-1,.83s.37.84,1,.84h4.22v2.73l-.37,0H24.22c-.58,0-.94.32-.94.82s.34.82.92.83,1.1,0,1.65,0h2.64v2.76h-4a2.11,2.11,0,0,0-.62.07.81.81,0,0,0-.06,1.53,1.89,1.89,0,0,0,.62.08H28c.17,0,.34,0,.5,0V51H24.16a.83.83,0,1,0,0,1.65h4.33c0,1,.08,2,0,3a4.55,4.55,0,0,1-4.79,4.3c-1.75,0-3.51,0-5.26,0a4.43,4.43,0,0,1-4.27-3.41,30.8,30.8,0,0,1-.25-3.9h4.35c.59,0,.93-.31.94-.82s-.34-.82-.93-.83H14V48.21h.57c1.21,0,2.43,0,3.65,0,.67,0,1-.42.94-1s-.4-.67-1-.68c-1.14,0-2.27,0-3.41,0H14V43.76h4.21c.64,0,1-.3,1-.82s-.36-.83-1-.83H14c0-.66,0-1.25,0-1.83a.72.72,0,0,0-.74-.7.77.77,0,0,0-.86.62,2.12,2.12,0,0,0,0,.44c0,4.88,0,9.76,0,14.64a6,6,0,0,0,3.45,5.62,17.38,17.38,0,0,0,2.34.82v1.62l-.78-.11a8,8,0,0,1-6.59-6.52A34.81,34.81,0,0,1,10.6,53c0-.71-.29-1.08-.83-1.09s-.85.35-.86,1.06,0,1.49,0,2.24a9.71,9.71,0,0,0,6.83,9.33c.76.24,1.56.34,2.35.51v4.71c-1,0-2,0-3,0A6.31,6.31,0,0,0,8.64,76c0,.82.25,1.1,1,1.1,1.64,0,3.28,0,4.91,0,.61,0,1-.33,1-.84a.87.87,0,0,0-1-.81H10.36a4.66,4.66,0,0,1,4.73-4c4.1,0,8.2,0,12.31,0a5.84,5.84,0,0,1,1.85.31,4.36,4.36,0,0,1,2.83,3.69H18.61c-.6,0-1,.35-1,.85s.38.8,1,.8H32.85c.71,0,1-.32,1-1.06A6.24,6.24,0,0,0,29.24,70.06Zm-6.59-.63H19.82V61.64h2.83Z"/></svg>