<svg id="Layer_1" data-name="Layer 1" xmlns="http://www.w3.org/2000/svg" viewBox="0 0 85.04 85.04"><path d="M71,56.44a5.49,5.49,0,0,1-1.55,2.8,5.18,5.18,0,0,1-3.67,1.24H19.64A5.36,5.36,0,0,1,17,60a4.62,4.62,0,0,1-2.61-4.29c0-3.34,0-6.68,0-10V32.33a4.66,4.66,0,0,1,3.65-4.76,6.43,6.43,0,0,1,1.64-.16c15.34,0,30.67,0,46,0,2.86,0,4.81,1.59,5.28,4a.93.93,0,0,0,0,.1Zm-28.34,1.8H66.15a2.43,2.43,0,0,0,2.76-2.73V32.38a2.43,2.43,0,0,0-2.76-2.73H19.29a2.44,2.44,0,0,0-2.77,2.73q0,11.57,0,23.13a4,4,0,0,0,.11,1,2.41,2.41,0,0,0,2.59,1.69Z"/><path d="M42.66,53.4H25.46a3.83,3.83,0,0,1-3.15-1.29,3.35,3.35,0,0,1-.82-2.18c0-4,0-8,0-12a3.54,3.54,0,0,1,3.7-3.45c.11,0,.22,0,.33,0h34.4a4.07,4.07,0,0,1,2.47.63,3.5,3.5,0,0,1,1.56,3c0,3.78-.06,7.56,0,11.34a3.74,3.74,0,0,1-4,4c-4.88,0-9.77,0-14.65,0Zm.09-16.61H25.38c-1.32,0-1.71.38-1.71,1.68v11c0,1.3.39,1.67,1.71,1.67H60.06c1.32,0,1.7-.37,1.7-1.67v-11c0-1.3-.38-1.68-1.7-1.68Z"/><path d="M42.71,39.21H57.53c1.25,0,1.67.4,1.67,1.64v3.8c0,1.25-.4,1.65-1.64,1.66-.86,0-1.72,0-2.59,0-.3,0-.49.05-.59.4a1.06,1.06,0,0,1-1.1.76,1,1,0,0,1-1.05-.74c-.11-.39-.32-.42-.64-.42-1.21,0-2.43,0-3.64,0-.32,0-.52,0-.64.42a1,1,0,0,1-1.05.74,1.07,1.07,0,0,1-1.1-.76.47.47,0,0,0-.54-.4c-1.27,0-2.53,0-3.8,0a.47.47,0,0,0-.55.39,1.15,1.15,0,0,1-2.17,0c-.1-.33-.27-.38-.56-.38-1.26,0-2.53,0-3.8,0-.27,0-.43.06-.51.36a1.15,1.15,0,0,1-2.19,0,.45.45,0,0,0-.52-.36c-.92,0-1.84,0-2.75,0-1.1,0-1.53-.44-1.53-1.55q0-2,0-4c0-1.09.46-1.53,1.54-1.53ZM28.44,43.92H57V41.63H28.44Z"/></svg>