<svg id="Layer_1" data-name="Layer 1" xmlns="http://www.w3.org/2000/svg" viewBox="0 0 85.04 85.04"><path d="M15.57,20.06v-.84c.5-.82,1.36-.6,2.12-.65V17.18c0-.85.37-1.23,1.21-1.23h6.44A3.82,3.82,0,0,1,26,16a4.81,4.81,0,0,1,3.86,3.6c.9.16,1,.31,1.24,1.63H60.46a4.68,4.68,0,0,1,.84,0,3.7,3.7,0,0,1-.69,7.35H38.07c-.41,0-.81,0-1.22,0a1.47,1.47,0,0,0-1.52,1.21c-.08,1.06,0,2.13,0,3.22h33c1.06,0,1.39.32,1.39,1.38q0,17.1,0,34.2A1.34,1.34,0,0,1,68.91,70H15.57V33.68a1.67,1.67,0,0,1,1.5-.64c5.14,0,10.28,0,15.41,0h.63V30.39A3.7,3.7,0,0,1,37,26.51H60.16a5.56,5.56,0,0,0,.58,0,1.59,1.59,0,0,0,1.41-2.08,1.66,1.66,0,0,0-1.79-1.08H31.07c0,.86-.17,1.55-1.19,1.61-.06.17-.11.34-.16.5a4.74,4.74,0,0,1-4.22,3.16c-2.24,0-4.47,0-6.71,0a1,1,0,0,1-1.1-1.12c0-.49,0-1,0-1.46-1.7-.23-1.7-.23-2.12-.69V24.5c.5-.82,1.36-.6,2.09-.65V20.69a4.53,4.53,0,0,1-1.17,0A4,4,0,0,1,15.57,20.06Zm52,15.13H17.72V67.85h49.8ZM19.82,26.5c1.89,0,3.74.05,5.58,0a2.55,2.55,0,0,0,2.44-2.67c0-1,0-2,0-2.95a2.63,2.63,0,0,0-2.8-2.8H19.82Z"/><path d="M42.67,42.53c.85-.73,1.41-.83,1.89-.33s.38,1.07-.37,1.91a11.71,11.71,0,0,1,2.65,7.41A11.55,11.55,0,0,1,44.3,58.8a11,11,0,0,1,.52,1.48c0,.18-.16.46-.33.62-.47.47-1,.34-1.82-.37-5,3.53-9.89,3.53-14.77.09a10,10,0,0,1-1.44.51.91.91,0,0,1-.62-.33c-.46-.48-.34-1,.38-1.81q-5.29-7.44-.1-14.78a13,13,0,0,1-.51-1.43c0-.18.17-.46.33-.62.48-.47,1-.34,1.82.37Q35.21,37.24,42.67,42.53ZM38.8,46.27,41,44.05a9.28,9.28,0,0,0-11.63.06l2.19,2.19A6.39,6.39,0,0,1,38.8,46.27Zm-11,11.06L30,55.11a6.35,6.35,0,0,1,0-7.14l-2.23-2.22C25.05,49,25.06,54.35,27.75,57.33Zm14.93,0a9.29,9.29,0,0,0,0-11.64l-2.2,2.21a6.42,6.42,0,0,1,0,7.19Zm-3.87-.57a6.35,6.35,0,0,1-7.15,0L29.43,59A9.39,9.39,0,0,0,41,59Zm-3.64-6.94,2-2a4.09,4.09,0,0,0-4,0Zm-3.65,3.7,2-2-2-2A4.11,4.11,0,0,0,31.52,53.54Zm5.38-2.06,2,2a3.93,3.93,0,0,0,0-4Zm-1.67,1.68-2,2.05a4.12,4.12,0,0,0,4.09,0Z"/><path d="M56.85,60.5H51.73a1.06,1.06,0,0,1-1.2-1.19c0-1.16,0-2.32,0-3.48a1.09,1.09,0,0,1,.58-1c.84-.49,1.66-1,2.49-1.48a1.44,1.44,0,0,1,.7-.19c1.7,0,3.41,0,5.12,0a1.61,1.61,0,0,1,.74.2c.81.46,1.59,1,2.4,1.43a1.19,1.19,0,0,1,.65,1.16c0,1.13,0,2.26,0,3.38,0,.83-.38,1.21-1.23,1.21Zm-4.21-2.15h8.45c0-.6,0-1.16,0-1.72a.73.73,0,0,0-.28-.44,4.26,4.26,0,0,0-3.22-1,4.49,4.49,0,0,1-1.32,0,4.31,4.31,0,0,0-3.28.95s-.07,0-.09.06-.23.27-.24.41C52.63,57.19,52.64,57.75,52.64,58.35Z"/><path d="M50.53,46.24V43.7a1,1,0,0,1,1.14-1.14c1.7,0,3.41,0,5.12,0a1,1,0,0,1,1.13,1.14c0,1.71,0,3.41,0,5.12a1,1,0,0,1-1.11,1.12c-1.72,0-3.44,0-5.17,0a1,1,0,0,1-1.11-1.12Zm5.24,1.57v-3.1h-3.1v3.1Z"/><path d="M23,39.36a1.06,1.06,0,1,1-1.1-1A1,1,0,0,1,23,39.36Z"/><path d="M63.31,38.33a1.06,1.06,0,1,1-1.05,1.07A1,1,0,0,1,63.31,38.33Z"/><path d="M23,63.68a1.05,1.05,0,0,1-1.08,1.05A1.06,1.06,0,1,1,23,63.68Z"/><path d="M63.29,62.62a1,1,0,0,1,1.07,1.05,1.05,1.05,0,0,1-2.1,0A1,1,0,0,1,63.29,62.62Z"/></svg>