<svg id="Layer_1" data-name="Layer 1" xmlns="http://www.w3.org/2000/svg" viewBox="0 0 85.04 85.04"><defs><style>.cls-1{fill:#1d1d1b;}</style></defs><path class="cls-1" d="M73.8,40.4c0-1.54,0-3.08,0-4.62a4.69,4.69,0,0,0-4.91-4.89c-5.93,0-11.86,0-17.8,0H47.54a2.68,2.68,0,0,0-.63.05,1,1,0,0,0-.8,1,1,1,0,0,0,.76,1,3.41,3.41,0,0,0,.81.08H69a2.47,2.47,0,0,1,2.66,2.26,16.65,16.65,0,0,1,0,2c0,.28,0,.56,0,.85H62.36a2.7,2.7,0,0,0-.75.08.83.83,0,0,0-.69,1,1.73,1.73,0,0,0,.65.92.82.82,0,0,0,.55.13h9.59v1.5H62.2a1,1,0,0,0-.64.12c-.24.19-.64.55-.63.89a1.61,1.61,0,0,0,.6,1,1,1,0,0,0,.71.14H71.7v1.5H62.27a2.28,2.28,0,0,0-.52,0,1,1,0,0,0,0,2,2.57,2.57,0,0,0,.68.06h9.37v3.88c0,1.06-.19,1.24-1.26,1.24H45.57l-.37,0h0l.08-.09a13.78,13.78,0,0,0,4-9.2c.07-1.27-.58-1.51-1-1.54a.93.93,0,0,0-.69.22,1.68,1.68,0,0,0-.45,1.2v.15A11.11,11.11,0,0,1,47,45a11.52,11.52,0,0,1-13.14,9.33A11.65,11.65,0,0,1,24.1,40.7a11.63,11.63,0,0,1,22.44-1.65l.05.14a3.57,3.57,0,0,0,.14.38,1,1,0,0,0,1.22.61,1,1,0,0,0,.74-1.2,2.19,2.19,0,0,0-.16-.57l0-.08a13.71,13.71,0,0,0-15.49-9A13.74,13.74,0,0,0,24.59,51c.3.4.62.77,1,1.17l.35.4H14.77c-.71,0-.95-.27-.95-1.07V35.79A2.59,2.59,0,0,1,16.59,33h7.12a1.41,1.41,0,0,0,1-.36,1,1,0,0,0,.27-.73c0-.63-.49-1-1.25-1H22.27c-1.91,0-3.89,0-5.85,0a4.68,4.68,0,0,0-4.51,3.41,2.5,2.5,0,0,1-.09.25l-.05.11V52.5a3.17,3.17,0,0,0,3.61,2.23v.6a2.83,2.83,0,0,0,2.87,3c.58,0,1.17,0,1.77,0s1.2,0,1.79,0a2.84,2.84,0,0,0,2.87-3v-.6h.91c1.05,0,2,0,3,0a1.21,1.21,0,0,1,.51.18,13.72,13.72,0,0,0,12.78,0,2.18,2.18,0,0,1,.92-.22c4.77,0,9.55,0,14.31,0h3.74v.6a2.86,2.86,0,0,0,2.88,3c1.22,0,2.42,0,3.57,0a2.83,2.83,0,0,0,2.86-3v-.58h.08a1,1,0,0,1,.24,0,3.18,3.18,0,0,0,2.37-.81,3.33,3.33,0,0,0,1-2.52C73.78,47.74,73.79,44,73.8,40.4ZM68.12,54.92a2.88,2.88,0,0,1,0,.59.71.71,0,0,1-.75.71c-1.34,0-2.46,0-3.62,0a.76.76,0,0,1-.79-.8c0-.15,0-.31,0-.5s0-.1,0-.16h5.17Zm-45.49-.16v.1c0,.15,0,.3,0,.45,0,.64-.28.91-.91.92-1.06,0-2.14,0-3.32,0-.66,0-.93-.27-.95-.94v-.53Z"/><path class="cls-1" d="M35.6,32.7h-.08a10.14,10.14,0,0,0-10.09,10,10,10,0,0,0,2.92,7.13,10.15,10.15,0,0,0,7.13,3h.09A10.13,10.13,0,0,0,45.65,42.87a10,10,0,0,0-2.89-7.11A10.1,10.1,0,0,0,35.6,32.7Zm-.09,2.12h0a8,8,0,1,1,0,16h0a7.91,7.91,0,0,1-8-7.95,7.94,7.94,0,0,1,8-8Z"/><path class="cls-1" d="M34.49,26.51a1.1,1.1,0,0,0,1,1h0a1.09,1.09,0,0,0,1-1,1.08,1.08,0,0,0,0-.31V23.9c0-2.62,0-5.25,0-7.87v-.11a.89.89,0,0,0-.12-.61c-.28-.32-.6-.66-.93-.66h0c-.27,0-.58.22-.94.65a1,1,0,0,0-.13.65V26.14C34.48,26.26,34.48,26.38,34.49,26.51Z"/><path class="cls-1" d="M35.55,58.05h0a1.11,1.11,0,0,0-1,1.12,2.44,2.44,0,0,0,0,.27v2.41q0,3.84,0,7.69v.1a1.16,1.16,0,0,0,.15.73,1.4,1.4,0,0,0,.92.6h0a1.47,1.47,0,0,0,.91-.61,1,1,0,0,0,.14-.68v-.09c0-1.27,0-2.53,0-3.8v-5c0-.16,0-.31,0-.47,0-.38,0-.77,0-1.16A1.1,1.1,0,0,0,35.55,58.05Z"/><path class="cls-1" d="M26.47,29.14a1.5,1.5,0,0,0,.51.47l.14.1,0,0h.07a1.16,1.16,0,0,0,1.05-.53,1.07,1.07,0,0,0,0-1.08c-2-3.42-3.9-6.76-5.36-9.29a1,1,0,0,0-1.45-.45A1,1,0,0,0,21,19a1.1,1.1,0,0,0,.14.87C22.67,22.61,24.54,25.86,26.47,29.14Z"/><path class="cls-1" d="M50.1,66c-.1-.21-.18-.4-.28-.57l-4.53-7.87-.57-1a1.56,1.56,0,0,0-.23-.34A1,1,0,0,0,43.15,56a1,1,0,0,0-.43,1.24,1.11,1.11,0,0,0,.15.31l.05.09q2.58,4.45,5.15,8.91l.06.11a.73.73,0,0,0,.33.38,2.59,2.59,0,0,0,.82.2,1,1,0,0,0,.24,0,1.22,1.22,0,0,0,.52-.49l.19-.25.06-.06,0-.07C50.2,66.25,50.14,66.14,50.1,66Z"/><path class="cls-1" d="M43.16,29.59a1.12,1.12,0,0,0,.54.16.83.83,0,0,0,.22,0,1.28,1.28,0,0,0,.76-.65L49.92,20a4.4,4.4,0,0,0,.18-.42,1.17,1.17,0,0,1,0-.11v-.05a1,1,0,0,0-.76-1.11,1.07,1.07,0,0,0-1.28.62l-2.07,3.6L42.89,28A1.07,1.07,0,0,0,43.16,29.59Z"/><path class="cls-1" d="M27.68,55.92a1,1,0,0,0-1.27.62L25,59l-3.8,6.58c-.39.69-.3,1.25.26,1.59a1,1,0,0,0,.53.15.83.83,0,0,0,.22,0,1.4,1.4,0,0,0,.81-.69l5.2-9a3.61,3.61,0,0,0,.19-.41.58.58,0,0,1,.05-.14v0A1.07,1.07,0,0,0,27.68,55.92Z"/></svg>