<svg id="Layer_1" data-name="Layer 1" xmlns="http://www.w3.org/2000/svg" viewBox="0 0 85.04 85.04"><path d="M12.06,58.85H10.17V26.5h1.92a1.08,1.08,0,0,0,1-1.8c-1-1.56-1.94-3.12-2.92-4.68-.68-1.09-1.44-1.1-2.11,0q-1.62,2.56-3.22,5.15v.68a1.44,1.44,0,0,0,1.4.67c.6,0,1.2,0,1.84,0V58.85c-.62,0-1.24,0-1.85,0a1.43,1.43,0,0,0-1.39.68v.68c1,1.66,2.07,3.32,3.12,5a11.16,11.16,0,0,0,.75,1h.8a8.29,8.29,0,0,0,.61-.72c1-1.57,2-3.15,2.95-4.72a1.09,1.09,0,0,0-1-1.83ZM7.69,24.44l1.43-2.32,1.44,2.32ZM9.12,63.22c-.48-.78-.94-1.51-1.44-2.31h2.88C10.07,61.69,9.62,62.43,9.12,63.22Z"/><path d="M41.76,43.45a10.18,10.18,0,0,0-5.71-7.28,2.23,2.23,0,0,1-1.51-2.57c.11-1.15-.51-1.68-1.67-1.69-.78,0-1.55,0-2.37,0v-8.7c0-1.08,0-2.17,0-3.26a.93.93,0,1,0-1.85,0v12c-.93,0-1.77,0-2.6,0a1.4,1.4,0,0,0-1.45,1.49,9.14,9.14,0,0,0,0,1.17c.08.61-.14.91-.73,1.18a10.88,10.88,0,0,0-6.35,7.08c-.12.43-.22.86-.32,1.3v2.09c.22,0,.44,0,.67,0h8.27c.66,2.22,1.7,3.21,3.39,3.25s2.6-.85,3.51-3.26h9A24.35,24.35,0,0,0,41.76,43.45ZM26.48,33.82h6.17v1a15.82,15.82,0,0,0-6.17,0ZM29.66,47.6a1.38,1.38,0,0,1-1.5-1.22H31A1.33,1.33,0,0,1,29.66,47.6ZM19.14,44.36a7.77,7.77,0,0,1,2-4.36,10.69,10.69,0,0,1,7.51-3.54,11.28,11.28,0,0,1,8.15,2.4,8.38,8.38,0,0,1,3.13,5c0,.16,0,.32.06.51Z"/><path d="M52.5,54.72A2.17,2.17,0,0,1,51,52.23c.12-1.19-.57-1.78-1.8-1.79H47v-.81q0-14.73,0-29.45a3,3,0,0,0,0-.67.89.89,0,0,0-1-.78.85.85,0,0,0-.88.78,4.22,4.22,0,0,0,0,.62q0,8.1,0,16.2V50.43h-2.3a1.53,1.53,0,0,0-1.71,1.65,10.14,10.14,0,0,0,0,1.35.67.67,0,0,1-.5.78,11.67,11.67,0,0,0-5,3.89,10.26,10.26,0,0,0-1.94,6.77h9A3.41,3.41,0,0,0,46,68.11a3.22,3.22,0,0,0,3.34-2.54c.15-.62.37-.71.91-.71,2.51,0,5,0,7.52,0l.82,0c-.09-1-.09-1.83-.26-2.69A10.29,10.29,0,0,0,52.5,54.72ZM43,52.43h6.1v1a15.65,15.65,0,0,0-6.1,0Zm3.07,13.76A1.35,1.35,0,0,1,44.68,65h2.73A1.31,1.31,0,0,1,46.06,66.19ZM35.65,63a6.9,6.9,0,0,1,1.4-3.62A10.32,10.32,0,0,1,44,55.2,11.55,11.55,0,0,1,52.7,57,8.54,8.54,0,0,1,56.49,63Z"/><path d="M80.08,52.18A10.29,10.29,0,0,0,74.29,45c-1.15-.57-1.6-1.16-1.41-2.37s-.46-1.89-1.84-1.86h-2.2v-.8q0-9.85,0-19.71c0-.22,0-.6-.06-.64a2.64,2.64,0,0,0-1.19-.26c-.39,0-.62.3-.62.84,0,6.61,0,13.22,0,19.83v.8c-1,0-1.9,0-2.8,0a1.33,1.33,0,0,0-1.26,1.4,13.19,13.19,0,0,0,0,1.54c0,.43-.14.6-.51.76a11.63,11.63,0,0,0-4.71,3.55,9.66,9.66,0,0,0-2.14,7.13h8.9c.67,2.21,1.74,3.27,3.41,3.2a4.54,4.54,0,0,0,2-.65,3.38,3.38,0,0,0,1.46-2.57h9A27.56,27.56,0,0,0,80.08,52.18Zm-15.2-9.49H71v.83H64.88Zm3.18,13.77c-.81.06-1.3-.3-1.57-1.22h2.79A1.3,1.3,0,0,1,68.06,56.46ZM57.47,53.23a8.32,8.32,0,0,1,3-5.3,11.19,11.19,0,0,1,8.07-2.59A10.81,10.81,0,0,1,76,48.54a8.15,8.15,0,0,1,2.34,4.69Z"/></svg>