<svg id="Layer_1" data-name="Layer 1" xmlns="http://www.w3.org/2000/svg" viewBox="0 0 85.04 85.04"><defs><style>.cls-1{fill:#010101;}</style></defs><path class="cls-1" d="M72.89,14a2.15,2.15,0,0,0,.55,1.21c.52.47,1.11.22,1.7-.56V10.41a1.58,1.58,0,0,0-1.56-.78q-25,0-49.92,0a4.34,4.34,0,0,0-.51,0,1.1,1.1,0,0,0-1,1c0,.22,0,.43,0,.65V61a5.56,5.56,0,0,0,0,.71,1,1,0,0,0,1,1,6.66,6.66,0,0,0,.77,0H73.39A2,2,0,0,0,75.14,62V17.62c-.39-.5-.84-.88-1.52-.62s-.76.86-.76,1.49V37.25h-.72c-1.22,0-2.45,0-3.67,0a1.12,1.12,0,1,0,.07,2.23c.68,0,1.37,0,2.06,0h2.21V60.36H40.89a3.89,3.89,0,0,1,0-.44c0-1.56,0-3.13,0-4.7,0-.85-.48-1.33-1.17-1.32s-1.1.49-1.1,1.37c0,1.43,0,2.87,0,4.31v.79H24.42V12H38.58V46.31a3.8,3.8,0,0,0,0,.83,1.11,1.11,0,0,0,2.15.12,3.28,3.28,0,0,0,.09-.89c0-2,0-4.07,0-6.11,0-.23,0-.46,0-.74H60.17a6.54,6.54,0,0,0,.77,0,1.08,1.08,0,0,0,1-1A1.05,1.05,0,0,0,61,37.32a5.26,5.26,0,0,0-.89-.07H40.9V12h32A13.75,13.75,0,0,0,72.89,14Z"/><path class="cls-1" d="M69,66.25A1.32,1.32,0,0,0,67.55,66a1.36,1.36,0,0,0-.64,1.38c0,.71,0,1.43,0,2.14H30.33c0-.76,0-1.46,0-2.17a1.36,1.36,0,0,0-.6-1.33,1.3,1.3,0,0,0-1.44.19L23,69.52c-1.24.78-1.25,1.63,0,2.4l5.82,3.63h.78A1.61,1.61,0,0,0,30.33,74c0-.68,0-1.37,0-2.09H66.92c0,.7,0,1.4,0,2.09a1.58,1.58,0,0,0,.76,1.57h.77c1.88-1.17,3.76-2.33,5.62-3.52.38-.24.72-.57,1.08-.85v-.91a6.57,6.57,0,0,0-.82-.68C72.55,68.46,70.76,67.36,69,66.25Zm-41,6.1-2.62-1.62L28,69.1Zm41.25,0V69.1l2.62,1.62Z"/><path class="cls-1" d="M17.42,54.46H15.19V26.2a6.54,6.54,0,0,0,0-.77,1.08,1.08,0,0,0-1.12-1A1.09,1.09,0,0,0,13,25.46c0,.25,0,.51,0,.77V54.46H10.69a1.33,1.33,0,0,0-1.32.63,1.29,1.29,0,0,0,.18,1.38c1.14,1.82,2.26,3.64,3.4,5.45.68,1.08,1.56,1.07,2.25,0,1.13-1.8,2.24-3.6,3.37-5.4a1.31,1.31,0,0,0,.18-1.44A1.36,1.36,0,0,0,17.42,54.46Zm-3.35,4.95L12.44,56.8h3.25Z"/><path class="cls-1" d="M15.19,10.42c-.68-1.08-1.56-1.08-2.24,0-1.14,1.81-2.27,3.63-3.41,5.45a1.27,1.27,0,0,0-.16,1.38,1.31,1.31,0,0,0,1.32.62c.72,0,1.45,0,2.21,0,0,.27,0,.48,0,.69,0,1.35,0,2.71,0,4.06a1.09,1.09,0,0,0,1.09,1,1.13,1.13,0,0,0,1.11-1c0-.3,0-.6,0-.9,0-1.26,0-2.52,0-3.85.82,0,1.56,0,2.3,0a1.28,1.28,0,0,0,1.26-.61,1.23,1.23,0,0,0-.16-1.38Q16.9,13.15,15.19,10.42Zm-2.74,5.11,1.62-2.61,1.62,2.61Z"/><path class="cls-1" d="M58.5,33.69h.13a1,1,0,0,0,.88-1.1V22.9a5,5,0,0,0-.08-.66,3.84,3.84,0,0,0-4.55-2.93,4.27,4.27,0,0,0-2,1.15c-1.61-1.36-2.55-1.52-4.65-.83a1,1,0,0,0-.87-.88c-.68-.09-1.16.35-1.16,1.18V32.77a1,1,0,0,0,1,.92,1,1,0,0,0,1-.92,4,4,0,0,0,0-.49v-9a2.9,2.9,0,0,1,.1-.83,1.81,1.81,0,0,1,3.52.55v9.76a1,1,0,0,0,1,.91,1,1,0,0,0,1-.93V23.24a1.83,1.83,0,1,1,3.65-.13v9.43C57.51,33.25,57.89,33.69,58.5,33.69Z"/><path class="cls-1" d="M67,17.93a3,3,0,0,0-5.92-.21.52.52,0,0,0,0,.11A1,1,0,0,0,62,19c.64.07,1.06-.31,1.14-1a1,1,0,0,1,.76-1,1,1,0,0,1,1,.46.94.94,0,0,1-.18,1.14c-.94,1-1.89,2-2.84,3.05A1.28,1.28,0,0,0,61.49,23a1.25,1.25,0,0,0,1.25.83H66a1,1,0,0,0,1-1v0a1,1,0,0,0-1.11-1h-1.4L66.17,20A2.92,2.92,0,0,0,67,17.93Z"/></svg>