<svg id="Layer_1" data-name="Layer 1" xmlns="http://www.w3.org/2000/svg" viewBox="0 0 85.04 85.04"><path d="M48.24,37.59a2.53,2.53,0,0,0-.88-1.14,12.11,12.11,0,0,0-16.2.31C28,39.88,24.51,43.32,20.65,47.27a11.74,11.74,0,0,0-3.29,8.47c0,.11,0,.25,0,.4a13.93,13.93,0,0,0,.16,1.45A12,12,0,0,0,35,66a19.17,19.17,0,0,0,3.9-3.11l.93-.88a1.45,1.45,0,0,0,.1-2.08,1.47,1.47,0,0,0-2.14-.08c-.77.67-1.51,1.36-2.25,2.05a8.9,8.9,0,0,1-5.7,2.48,9,9,0,0,1-8.6-5.06,8.85,8.85,0,0,1,1.54-10C26.41,45.7,30.11,42,33.26,38.92a8.17,8.17,0,0,1,5.21-2.34,9.18,9.18,0,0,1,7.35,2.55,1.43,1.43,0,0,0,1.78.15A1.5,1.5,0,0,0,48.24,37.59Z"/><path d="M36.85,49.13a11.43,11.43,0,0,0,7.77,3.35h0a11.92,11.92,0,0,0,8.63-3.07c4-3.84,7.49-7.32,10.89-10.92a11.08,11.08,0,0,0,2.9-10,12,12,0,0,0-7.09-9,11.7,11.7,0,0,0-11.23,1.06,26.28,26.28,0,0,0-3.43,2.94l-.72.69c-.11.1-.43.41-.24,1.19a1.51,1.51,0,0,0,1,1.11,1.58,1.58,0,0,0,1.51-.37c.41-.36.81-.73,1.2-1.1s1-1,1.59-1.43A8.94,8.94,0,0,1,61.53,36.92q-3.68,3.72-7.39,7.41L51.86,46.6A9.12,9.12,0,0,1,38.92,47a1.74,1.74,0,0,0-1.14-.48,1.42,1.42,0,0,0-1,.46A1.53,1.53,0,0,0,36.85,49.13Z"/></svg>