<svg id="Layer_1" data-name="Layer 1" xmlns="http://www.w3.org/2000/svg" viewBox="0 0 85.04 85.04"><path d="M72.12,15.59A3.51,3.51,0,0,0,70,13.43H65l0,0a1.2,1.2,0,0,0-.44,1.37c.27.64.84.62,1.36.62h2.94c1,0,1.29.25,1.29,1.29V69.46c0,1-.25,1.3-1.29,1.3H54.16a.59.59,0,0,1,0-.13,3.68,3.68,0,0,0,.06-.57c0-2.59,0-5.19,0-7.78q0-.53-.21-.66a1.77,1.77,0,0,0-1-.39.9.9,0,0,0-.78,1v7.27c0,1-.28,1.23-1.24,1.23H39.1l0-.39c0-.35,0-.68,0-1q0-13.15,0-26.3a7.5,7.5,0,0,0,0-.82A2.8,2.8,0,0,0,37,39.71a3,3,0,0,0-.72-.1H26.16a1.21,1.21,0,0,0-1,.41,1,1,0,0,0-.16.84,1.06,1.06,0,0,0,1.19.79H36c.81,0,1.1.29,1.1,1.1q0,13.44,0,26.88c0,.85-.27,1.13-1.13,1.13H16c-.88,0-1.17-.29-1.17-1.18V42.81c0-.88.29-1.16,1.18-1.16H21.8c.71,0,1.16-.38,1.18-1a1,1,0,0,0-.26-.71,1.24,1.24,0,0,0-.92-.34H19.89V30.19c0-1.05.21-1.27,1.29-1.27h29.7c1.14,0,1.34.2,1.34,1.34V57.94c0,1.05.62,1.22,1,1.23h0a.94.94,0,0,0,.68-.25,1.34,1.34,0,0,0,.33-1q0-14.07,0-28.15a2.62,2.62,0,0,0-.07-.71A3,3,0,0,0,51,26.83H27.25v-10c0-1.16.21-1.36,1.38-1.36H61.1c.49,0,1,0,1.28-.68a1.1,1.1,0,0,0-.58-1.33l0,0H27.45l-.24.09-.39.19a2.79,2.79,0,0,0-1.6,2.59c0,2.33,0,4.65,0,7v3.54h-.09l-.41,0H21A3,3,0,0,0,17.84,30v9.62h-2a2.87,2.87,0,0,0-3.1,3.08v27a2.87,2.87,0,0,0,3.08,3.1H28.05c13.26,0,27,0,40.45,0h0c1.9,0,3-.68,3.6-2.19v-55Z"/><path d="M59.12,17.08a1,1,0,0,0-1,.69c-.19.46-.36.92-.54,1.39-.66,1.72-1.32,3.43-2,5.15a.9.9,0,0,0,.45,1.26.78.78,0,0,0,1.11-.5C57.43,24,58.13,23.84,59,24a2,2,0,0,0,.35,0c1.11,0,1.11,0,1.54,1,0,.12.1.3.19.34.3.12.65.32.92.25s.48-.43.72-.66l-.1-.12a1.69,1.69,0,0,0-.08-.39c-.82-2.21-1.66-4.41-2.49-6.62A1,1,0,0,0,59.12,17.08Zm-.78,5.12c.26-.67.5-1.3.77-2l.77,2Z"/><path d="M40.74,29.75a1,1,0,0,0-1,.69c-.81,2.13-1.62,4.25-2.42,6.39A.85.85,0,0,0,37.82,38,.81.81,0,0,0,39,37.48c.21-1,.87-1.18,1.75-1.06a2.67,2.67,0,0,0,.4,0c1,0,1,0,1.33.88.16.41.4.7.67.71.83,0,1.26-.55,1-1.19-.78-2.14-1.59-4.27-2.4-6.39A1,1,0,0,0,40.74,29.75Zm-.68,4.92c.22-.59.43-1.14.68-1.82.26.67.46,1.2.69,1.82Z"/><path d="M65.91,23.83c-.52.1-.8-.24-.87-.76s-.46-.92-1-.86-.79.45-.73,1.1A2.57,2.57,0,0,0,67.5,25a2.62,2.62,0,0,0,.33-3.69,2.59,2.59,0,1,0-4.45-2.42.9.9,0,0,0,.54,1.22A.87.87,0,0,0,65,19.53c0-.09,0-.22.11-.26.28-.15.6-.4.87-.37a.92.92,0,0,1,.61.62,1.49,1.49,0,0,1-.42.85c-.1.11-.36.08-.54.13a.88.88,0,0,0,0,1.71c.19,0,.45,0,.54.13.2.27.46.62.41.9S66.18,23.78,65.91,23.83Z"/><path d="M23.74,51.36A.81.81,0,0,0,24.83,51a2.18,2.18,0,0,0,.27-.63.47.47,0,0,1,.58-.41,3.32,3.32,0,0,0,.63,0c.82-.05,1.65-.12,1.78,1a.25.25,0,0,0,.13.18c.32.09.68.27,1,.19s.44-.45.61-.63a3,3,0,0,0-.08-.37c-.77-2.05-1.52-4.1-2.34-6.12a1.13,1.13,0,0,0-.9-.52,1.17,1.17,0,0,0-.88.56c-.82,2-1.57,4-2.33,6.06A.78.78,0,0,0,23.74,51.36Zm2.74-4.59L27,48.16H26Z"/><path d="M47.54,37.27a.8.8,0,0,0,.87.75.78.78,0,0,0,.84-.76,2.79,2.79,0,0,0,0-.58.6.6,0,0,1,.37-.67.82.82,0,0,0,0-1.48c-.37-.19-.37-.42-.38-.73,0-.92,0-1.84,0-2.76a1.21,1.21,0,0,0-.9-1.15,1.15,1.15,0,0,0-1.28.43,4.27,4.27,0,0,0-.49.71c-.69,1.2-1.38,2.39-2.06,3.6-.48.87-.1,1.51.9,1.52h2.09A8.08,8.08,0,0,0,47.54,37.27Zm0-3h-.79l.68-1.2.11,0Z"/><path d="M32.7,45.42h1a.87.87,0,1,0,0-1.73H31.58a.84.84,0,0,0-.95.74c-.17.88-.33,1.77-.42,2.66A.84.84,0,0,0,31.4,48a3.87,3.87,0,0,1,.67-.17c.48,0,.94.08,1,.59a1.29,1.29,0,0,1-.24,1c-.31.4-.76.33-1.19.07a.87.87,0,0,0-1.31.16c-.3.46-.16,1,.39,1.33a2.71,2.71,0,0,0,3.08,0A2.7,2.7,0,0,0,32.21,46C32.2,45.43,32.2,45.42,32.7,45.42Z"/></svg>