<svg id="Layer_1" data-name="Layer 1" xmlns="http://www.w3.org/2000/svg" viewBox="0 0 85.04 85.04"><path d="M58.62,47.79a.6.6,0,0,0,.32,0h3.43a4.5,4.5,0,0,1,1.31.18,4.16,4.16,0,0,1,2.94,4V64.45a4.15,4.15,0,0,1-3.27,4.07,4.43,4.43,0,0,1-.9.09H23l-.6,0a3.56,3.56,0,0,1-1.59-.42,4.09,4.09,0,0,1-2.22-2.93,2.91,2.91,0,0,1-.07-.78V52a4.12,4.12,0,0,1,3.25-4.1,4,4,0,0,1,1-.09h3.75a1.15,1.15,0,0,0,0-.16V23.1A4,4,0,0,1,27.94,20a4.91,4.91,0,0,1,2.4-1.16,6.74,6.74,0,0,1,1.11-.09h14.7a1.38,1.38,0,0,1,.93.35l6.55,5.65,4.7,4,.29.25v18.8ZM56.89,30.28H50.36A5.45,5.45,0,0,1,49,30.12a4.69,4.69,0,0,1-2.65-1.62,3.72,3.72,0,0,1-.85-1.92,4.74,4.74,0,0,1-.05-.65V20.71c0-.09,0-.19,0-.3h-14a4.05,4.05,0,0,0-.7,0,3.24,3.24,0,0,0-1.73.84,2.17,2.17,0,0,0-.69,1.24,2.73,2.73,0,0,0,0,.57V50.05c0,.09,0,.18,0,.29H56.74l.14,0C56.91,50.08,56.92,30.62,56.89,30.28ZM25.62,66.9v-.31c0-.66,0-1.32,0-2a1.51,1.51,0,0,1,1.12-1.45,2.75,2.75,0,0,1,.57,0H58.15a1.49,1.49,0,0,1,1.33,1.07,2,2,0,0,1,.07.54v1.9a.52.52,0,0,0,0,.27h2.85a2.29,2.29,0,0,0,.52,0,2.37,2.37,0,0,0,1.69-1.29,2.41,2.41,0,0,0,.27-1.15V52a2.43,2.43,0,0,0-1.65-2.29,2.93,2.93,0,0,0-.87-.14H58.88c-.08,0-.17,0-.26,0v2.19a.39.39,0,0,1,0,.26,1,1,0,0,1-.35,0H26.94a1.76,1.76,0,0,1-.23,0l-.16,0V49.77a2,2,0,0,0,0-.23l-.19,0H22.73a2.56,2.56,0,0,0-.55,0,2.42,2.42,0,0,0-1.84,1.72,2.74,2.74,0,0,0-.08.75V63.53c0,.33,0,.66,0,1a2.37,2.37,0,0,0,.86,1.82,2.42,2.42,0,0,0,1.58.57h2.92Zm32.18,0,0,0v-.18c0-.59,0-1.18,0-1.77v0l0,0H27.43l-.07,0a.17.17,0,0,0,0,0c0,.11,0,.21,0,.32,0,.54,0,1.09,0,1.63a0,0,0,0,0,0,0l0,0H57.76S57.79,66.88,57.8,66.87Zm-2.34-38.3a2,2,0,0,0-.15-.15l-1.87-1.61-4.78-4.12-1.34-1.15s-.06-.09-.13-.05,0,.07,0,.1v4.5a2.08,2.08,0,0,0,.36,1.14,2.89,2.89,0,0,0,1.13,1,3.62,3.62,0,0,0,1.58.36h5.21Z"/><path d="M31.64,41.4a11.49,11.49,0,0,1,0-1.66l.15,0H53.51a1.23,1.23,0,0,1,0,.42V41c0,.14,0,.27,0,.39l0,0H31.64Z"/><path d="M53.53,46.58l-.09,0H31.72l-.08,0a.3.3,0,0,1,0-.1V45s0,0,0-.07l.07,0H53.44l.07,0A12.35,12.35,0,0,1,53.53,46.58Z"/><path d="M53.51,34.53a11.49,11.49,0,0,1,0,1.66v0H31.7l-.06,0a1,1,0,0,1,0-.12c0-.39,0-1.31,0-1.52l.14,0H53.51Z"/><path d="M31.64,25.81a10.05,10.05,0,0,1,0-1.65l.14,0c1.31,0,11.16,0,11.44,0a5.62,5.62,0,0,1,0,.82,7.91,7.91,0,0,1,0,.84l-.16,0H32A1.06,1.06,0,0,1,31.64,25.81Z"/><path d="M43.25,29.34V31l-.15,0H32a.66.66,0,0,1-.31,0l0-.12c0-.39,0-1.32,0-1.52l.14,0H43.25Z"/><path d="M61.57,64.33a1.13,1.13,0,0,1-1.14-1.13,1.14,1.14,0,0,1,2.27,0A1.13,1.13,0,0,1,61.57,64.33Z"/><path d="M61.56,52.11a1.12,1.12,0,0,1,1.14,1.13,1.14,1.14,0,0,1-2.27,0A1.12,1.12,0,0,1,61.56,52.11Z"/><path d="M61.56,59.35a1.13,1.13,0,1,1,1.14-1.13A1.14,1.14,0,0,1,61.56,59.35Z"/></svg>