<svg id="Layer_1" data-name="Layer 1" xmlns="http://www.w3.org/2000/svg" viewBox="0 0 85.04 85.04"><path d="M68.63,57.53V34.88a3.55,3.55,0,0,0-3.71-3.69H58V21c0-1-.29-1.25-1.26-1.25H30.91c-1,0-1.27.29-1.27,1.25V31.18H22.86A3.58,3.58,0,0,0,19,35V57.41c0,1,.3,1.27,1.25,1.27H31v9.43c0,.85.33,1.18,1.18,1.18H55.51c.87,0,1.19-.32,1.19-1.17V50c0-.81-.34-1.14-1.16-1.14H32.13c-.82,0-1.16.33-1.16,1.14v6.78H26.25V45.46H61.42V56.7l-.3.06-.07-.37h0l0,.38a.5.5,0,0,1-.26,0,1,1,0,0,0-.8.25.92.92,0,0,0-.32.71c0,.8.77.92,1.22.92h6.57C68.3,58.68,68.63,58.35,68.63,57.53ZM32.89,50.77h21.9v8.61l-.91-.8L53.26,58l-2.79-2.52c-.72-.64-1.06-.64-1.77,0l-7.12,6.31L38.1,59c-.76-.6-1-.61-1.79,0l-3.42,2.66Zm0,13.62a.92.92,0,0,1,.44-.64c.42-.34.85-.66,1.27-1,.68-.53,1.36-1.06,2-1.6a.85.85,0,0,1,1.19,0c.94.78,1.91,1.55,2.87,2.31l.18.14c.65.52,1,.51,1.62,0l.6-.54C45,61.31,47,59.58,48.89,57.84a.86.86,0,0,1,1.35,0c.8.74,1.61,1.47,2.41,2.19l1.72,1.56a1.19,1.19,0,0,1,.44.8c0,1.17,0,2.35,0,3.55v1.47h-22v-1C32.84,65.72,32.84,65.05,32.86,64.39Zm-1.3-42.8H56.12v9.56H31.56Zm31.77,35.2v-12c0-.93-.31-1.22-1.24-1.22H25.59c-1,0-1.25.29-1.25,1.27V56.77H20.91V35.11a1.79,1.79,0,0,1,2.05-2H64.7a1.78,1.78,0,0,1,2,2V56.79Z"/><path d="M24.34,38.31a1,1,0,0,0,.9.93h1.23a4.56,4.56,0,0,0,.64,0,.93.93,0,0,0,0-1.85c-.61,0-1.24,0-1.9,0A.93.93,0,0,0,24.34,38.31Z"/><path d="M31.41,38.3a1,1,0,0,0,.93.94h1.78a.94.94,0,0,0,.93-.94.92.92,0,0,0-.9-.92c-.61,0-1.23,0-1.84,0A.92.92,0,0,0,31.41,38.3Z"/><path d="M41.86,53.28h0a1.82,1.82,0,0,0-1.3.54,1.8,1.8,0,0,0-.52,1.3,1.82,1.82,0,1,0,3.63,0A1.79,1.79,0,0,0,41.86,53.28Z"/></svg>