<svg id="Layer_1" data-name="Layer 1" xmlns="http://www.w3.org/2000/svg" viewBox="0 0 85.04 85.04"><path d="M46.05,55.58H33.41a1.71,1.71,0,0,0-.6.09,1,1,0,0,0-.63,1.23,1.1,1.1,0,0,0,1.21.86H46.08c.79,0,1.24-.43,1.23-1.11S46.83,55.58,46.05,55.58Z"/><path d="M46.37,59.93c-4.42,0-8.83,0-13.25,0a1.09,1.09,0,0,0-.59.24,1,1,0,0,0-.32,1.19,1,1,0,0,0,1.06.72h12.8a1.59,1.59,0,0,0,.68-.13,1,1,0,0,0,.55-1.15A1,1,0,0,0,46.37,59.93Z"/><path d="M33.37,53.43h4.06a1.11,1.11,0,1,0,0-2.2H33.38a1.11,1.11,0,1,0,0,2.21Z"/><path d="M70.74,45.86a11.75,11.75,0,0,0-3.93-7.44c0-1.16,0-2.33,0-3.5a5.39,5.39,0,0,0-5.33-5.34H56v-.64c0-2.49,0-5-.06-7.46a5.31,5.31,0,0,0-5.13-4.89q-10,0-20,0a5.31,5.31,0,0,0-5.11,4.86c-.09,2.46,0,4.94-.06,7.41v.72H20.28a5.41,5.41,0,0,0-5.37,4.35.62.62,0,0,1-.1.22V51c.08.25.15.5.23.76a5.43,5.43,0,0,0,5.14,3.81h5.45v.61c0,2.45,0,4.9.05,7.35A5.3,5.3,0,0,0,30,68.47a1.53,1.53,0,0,1,.27.11H51.38a13.05,13.05,0,0,0,1.78-.67,5.4,5.4,0,0,0,2.84-5c0-.88,0-2.51-.07-3.76a12.24,12.24,0,0,0,2.79.33,12.51,12.51,0,0,0,2.69-.29A12,12,0,0,0,70.74,45.86ZM27.82,23.28a12.29,12.29,0,0,1,.09-1.92,3.14,3.14,0,0,1,2.83-2.57l.6,0H50.28a3.22,3.22,0,0,1,3.37,2.29,2.69,2.69,0,0,1,.15.79c0,2.55,0,5.11,0,7.7h-26C27.81,27.44,27.81,25.36,27.82,23.28Zm26,39.56a3.27,3.27,0,0,1-3.53,3.55q-9.47,0-18.94,0a3.27,3.27,0,0,1-3.54-3.54V47h19a11.51,11.51,0,0,0,.38,3.48,11.94,11.94,0,0,0,6.6,7.93C53.76,59.73,53.82,61.76,53.82,62.84ZM68.36,50.15a9.92,9.92,0,0,1-11,7.09,9.57,9.57,0,0,1-6.29-3.56A9.75,9.75,0,0,1,49,45.91a8.55,8.55,0,0,1,.4-1.66c0,.18.09.37.14.55a1,1,0,0,0,1.27.75,1.06,1.06,0,0,0,.75-1.28c-.25-1.08-.5-2.15-.76-3.23a1.18,1.18,0,0,0-1.65-.87l-3,1.19a1.25,1.25,0,0,0-.69.62,1,1,0,0,0,0,.78,1.07,1.07,0,0,0,1.46.55l.71-.28a13.71,13.71,0,0,0-.53,1.69H26.93c-.87,0-1.29.42-1.29,1.33q0,3.31,0,6.65v.66l-.51,0H20.5a3.23,3.23,0,0,1-3.5-3.5q0-7.32,0-14.62a3.23,3.23,0,0,1,3.51-3.51H54.27c2.32,0,4.63,0,6.95,0a3.2,3.2,0,0,1,3.31,2.44,4.19,4.19,0,0,1,.1,1v1.68l-.14-.09a11.3,11.3,0,0,0-4.65-1.38,1,1,0,0,0-1.16.91,1,1,0,0,0,1,1.16l.32,0,.85.13a10,10,0,0,1,7.56,12.48Z"/><path d="M61.85,49l-1-1c-.36-.34-.72-.68-1.07-1a.23.23,0,0,1-.06-.15c0-.41,0-.84,0-1.26v-.94c0-.42,0-.84,0-1.26a1.57,1.57,0,0,0-.39-.85.92.92,0,0,0-1.11-.15,1.06,1.06,0,0,0-.6,1V44c0,1.07,0,2.15,0,3.22a1.25,1.25,0,0,0,.44,1l1.13,1.08.78.74c.21.2.42.41.65.6a1,1,0,0,0,.67.26,1.1,1.1,0,0,0,.54-.15,1,1,0,0,0,.47-1.18A1.67,1.67,0,0,0,61.85,49Z"/></svg>