<svg id="Layer_1" data-name="Layer 1" xmlns="http://www.w3.org/2000/svg" viewBox="0 0 85.04 85.04"><path d="M67.11,42.22V42c0-.79,0-1.6-.1-2.4a21.49,21.49,0,0,0-2.91-8.4,8.3,8.3,0,0,1-1-2.39,35.69,35.69,0,0,1-.68-5.1,9.52,9.52,0,0,0-4.64-8,24.18,24.18,0,0,0-7.21-3A2.53,2.53,0,0,1,49,11.62c-.09-.15-.19-.3-.28-.46a4.59,4.59,0,0,0-1.86-1.95H37.4a4.2,4.2,0,0,0-1.79,1.88,3.46,3.46,0,0,1-2.4,1.78,19.85,19.85,0,0,0-6.85,2.87c-1.77,1.27-3.66,2.93-4.21,5.62a30.15,30.15,0,0,0-.42,3.13l-.05.53a16.13,16.13,0,0,1-2.05,7.18,14.64,14.64,0,0,0-2.31,6.92c-.18,3.12-.18,6.29-.18,9.37,0,.58,0,1.17,0,1.76a2.36,2.36,0,0,0,2.4,2.3c.74,0,1.49,0,2.22,0h.63a2.39,2.39,0,0,0,2.36-1.61c.19-.45.36-.92.52-1.37l.21-.57a52.36,52.36,0,0,0,3.34-12.06,6,6,0,0,1,1.65-3.59v.39a64.76,64.76,0,0,1-1.72,12.88c-.1.43-.19.86-.28,1.28-.45,2.09-.91,4.25-1.19,6.39-.34,2.57-.58,5.35-.74,8.77-.15,3-.17,6-.18,9.38a3.26,3.26,0,0,0,3.38,3.27H34.4a3.19,3.19,0,0,0,3.18-2.11c.48-1.16,1-2.41,1.39-3.69A61.32,61.32,0,0,0,41.59,57c0-.48.11-.79.51-.81s.46.27.53.75l.27,1.91c.19,1.45.4,3,.67,4.42a47.5,47.5,0,0,0,3,10.27,3.28,3.28,0,0,0,3.23,2.15h1.34c1,0,2,0,3,0h.21a3.46,3.46,0,0,0,2.41-1,3.57,3.57,0,0,0,1-2.73c-.06-1.58-.1-3.18-.14-4.73-.07-2.63-.14-5.34-.28-8A57.15,57.15,0,0,0,56.62,52c-.29-1.6-.64-3.22-1-4.79A79.15,79.15,0,0,1,54,37.34c-.08-1-.12-1.92-.17-2.93q0-.54-.06-1.11a6.23,6.23,0,0,1,1.68,3.53C56,41.77,57.69,46.35,59.51,51a2.31,2.31,0,0,0,2.28,1.55c.88,0,1.76,0,2.65,0a2.44,2.44,0,0,0,2.68-2.63C67.14,47.4,67.12,44.94,67.11,42.22ZM41,17a11.35,11.35,0,0,1-4.45-3.44l.64-.84.48.3c.45.28.91.57,1.39.84l0,0a5.33,5.33,0,0,0,1.4.63c.48.12.55.34.52.78s0,.84,0,1.28Zm0,36.55a1,1,0,0,1-.46.95,2.82,2.82,0,0,0-1.14,2.2,56.2,56.2,0,0,1-3.73,15.72c-.37.9-.61,1.06-1.59,1.06h-.41c-1.22,0-2.45,0-3.67,0-1,0-1.4-.39-1.41-1.41s0-2.14,0-3.23a.81.81,0,0,1,.35-.56A10.61,10.61,0,0,0,33.14,64a1.13,1.13,0,0,0-.34-1.63,1.11,1.11,0,0,0-.55-.15,1.21,1.21,0,0,0-1,.68,8.94,8.94,0,0,1-2.58,3,79.53,79.53,0,0,1,1.84-16.72h0c.08.2.14.35.21.49.15.32.3.63.44,1a21.43,21.43,0,0,0,1.14,2.24A5.63,5.63,0,0,1,33,57.21c-.1.47-.19.94-.27,1.4l0,.13a1.13,1.13,0,0,0,.86,1.37,1.07,1.07,0,0,0,1.29-.87c.59-2.32,1-5.06-.83-7.79a17.64,17.64,0,0,1-2.48-6.82,3.8,3.8,0,0,1,.13-1.4c0-.15.07-.31.09-.46a47.75,47.75,0,0,0,.88-10.11c0-.48-.07-1-.12-1.42s-.07-.64-.1-1a6.94,6.94,0,0,1,0-1,19.12,19.12,0,0,0-1.92-11c-.18-.34-.38-.66-.53-.9s-.25-.39-.41-.63l-.17-.25,1.13-.39c1-.35,2-.68,3-1a1.31,1.31,0,0,1,1.75.49,11.9,11.9,0,0,0,5.37,3.79c.1,0,.2.22.28.36l.06.11a.32.32,0,0,1,0,.14S41,20,41,20v4.8Q41,39.21,41,53.59Zm4-42.18a3.45,3.45,0,0,1-2.24,1.13,5.07,5.07,0,0,1-3.51-1.13ZM53.64,24a1.1,1.1,0,0,0-.88-.29c-.45,0-1,.3-1,1.33,0,.83,0,1.67,0,2.49v1.95a14.49,14.49,0,0,1,0,1.74A41.25,41.25,0,0,0,52.15,41c.06.4.14.81.22,1.2a11.56,11.56,0,0,1,.3,2,7.42,7.42,0,0,1-.51,2.59l-.22.63a20.52,20.52,0,0,1-1.66,3.84,9.16,9.16,0,0,0-1.18,6.89c.65,3.12,1.45,5.62,3.24,7.71a12.56,12.56,0,0,0,1.86,1.63c.35.27.71.54,1,.83a1,1,0,0,1,.36.59c.06,1.15,0,2.31,0,3.29s-.42,1.33-1.35,1.34H50a1.36,1.36,0,0,1-1.38-1,48.75,48.75,0,0,1-3-10.49c-.23-1.3-.4-2.64-.57-3.93-.08-.56-.15-1.13-.23-1.69a3,3,0,0,0-1.24-2.08.9.9,0,0,1-.31-.6q0-12.3,0-24.6V19.82c0-.32,0-.45.32-.55a12.47,12.47,0,0,0,5.78-4.2c.16-.19.27-.28.43-.28a.8.8,0,0,1,.23.05c1.2.41,2.41.8,3.59,1.17l1.14.37c-.17.34-.35.67-.51,1-.43.81-.83,1.57-1.2,2.34a1.39,1.39,0,0,0-.12,1.09,1.05,1.05,0,0,0,.62.6c.6.25,1.14,0,1.52-.78s.75-1.45,1.15-2.21l.43-.8A7.23,7.23,0,0,1,60.13,23c.17,1.89.4,4.08.81,6.22a10,10,0,0,0,1.23,3.07,19.33,19.33,0,0,1,2.74,10.27c0,2.12,0,4.28,0,6.37v.75a.71.71,0,0,1-.14.55.64.64,0,0,1-.51.11c-.74,0-1.47,0-2.14,0h0a.55.55,0,0,1-.6-.44,63.06,63.06,0,0,1-3.79-12.68c-.07-.38-.11-.78-.16-1.16l0-.24a5.73,5.73,0,0,0-1.09-2.79c-.26-.36-.51-.75-.74-1.13s-.49-.81-.77-1.19c-1.2-1.62-1.13-3.46-.93-5.51A1.54,1.54,0,0,0,53.64,24Zm-.06,39.85a17.09,17.09,0,0,1-2.43-7,5.91,5.91,0,0,1,.91-4.15c.48-.8.87-1.65,1.29-2.54l.43-.9c1.37,5.49,1.59,10.93,1.81,16.68A7.64,7.64,0,0,1,53.58,63.83ZM43.24,17.05v-.46c0-.58,0-1.12,0-1.65a.35.35,0,0,1,.14-.24l3-1.47.76-.37.56.73A11.38,11.38,0,0,1,43.24,17.05ZM23.34,48.36c-.19.5-.38,1-.56,1.51a.6.6,0,0,1-.68.49l-1.08,0-1.19,0a.43.43,0,0,1-.52-.53c0-1,0-2.07,0-3.11,0-1.95,0-4,0-5.94a15.62,15.62,0,0,1,2.33-7.71,17.12,17.12,0,0,0,2.17-7.54l.09-.86c.06-.69.12-1.4.22-2.09a7,7,0,0,1,3.36-4.94,13.76,13.76,0,0,1,2.67,7A30.42,30.42,0,0,1,30.25,28c0,.27,0,.53,0,.8a1.4,1.4,0,0,1-.22.57l-.12.22a8.83,8.83,0,0,1-.48.89l-.4.66c-.38.64-.77,1.29-1.21,1.89a6.78,6.78,0,0,0-1.14,3.3,50.73,50.73,0,0,1-2.85,10.73C23.66,47.52,23.5,47.94,23.34,48.36Z"/></svg>