<svg id="Layer_1" data-name="Layer 1" xmlns="http://www.w3.org/2000/svg" viewBox="0 0 85.04 85.04"><path d="M45.76,36.05c3.15-2.31,6.29-4.68,9.31-7A21.07,21.07,0,0,0,59,25a1.28,1.28,0,0,0,.13-1.59c-1.33-2.21-2.64-4.45-3.88-6.56a2.27,2.27,0,0,0-2-1.09l-.46,0c-.24,0-.49,0-.74,0h0c-.25,0-.31-.07-.31-.37V15a10.29,10.29,0,0,0-.11-1.66A1.94,1.94,0,0,0,51,12.29,51.21,51.21,0,0,0,44.19,7.7,1,1,0,0,0,43,7.78l-1.08.84a19.57,19.57,0,0,0-2.47,2.08c-1.53,1.62-3,3.34-4.47,5l-1.79,2.05h0L33,18c0-.29,0-.57-.05-.86,0-.84-.1-1.63-.21-2.43-.16-1.11-.39-2.23-.62-3.31l-.18-.89a1.22,1.22,0,0,0-1.12-1,55.48,55.48,0,0,0-7.94-.78h0a2.13,2.13,0,0,0-1.61.82c-.27.31-.54.62-.81.95l-.31.36-.29-.21c-.3-.21-.58-.42-.85-.63a2.43,2.43,0,0,0-2.49-.47c-1.68.63-3.4,1.24-5.06,1.84l-2.13.77a1.15,1.15,0,0,0-.74,1.18,24.8,24.8,0,0,0,.34,5.14c.65,3.93,1.7,7.84,2.7,11.62.4,1.48.81,3,1.19,4.54.59,2.35,1.15,4.88,1.81,8.2.16.82.28,1.67.39,2.49s.26,2,.48,2.91a15.11,15.11,0,0,0,3.8,7.47,8.67,8.67,0,0,0,4.9,2.73,6.12,6.12,0,0,0,5.07-1.42A10.7,10.7,0,0,0,33,50.57a28.67,28.67,0,0,0,.42-3.43c0-.36.06-.72.1-1.08a1,1,0,0,1,.3-.69A66.86,66.86,0,0,1,43,38.05C43.88,37.4,44.83,36.73,45.76,36.05Zm4.12-20.22a1.73,1.73,0,0,0,1.34,1.61h0a2.7,2.7,0,0,0,1,.14,1.68,1.68,0,0,1,1.92,1.1l0,.07-14.6,9.43L38.53,27,48.79,13l.09.08a3.39,3.39,0,0,0,.39.27,1.12,1.12,0,0,1,.57,1.21A6.8,6.8,0,0,0,49.88,15.83ZM33,30.07l.9.95c.84.88,1.63,1.72,2.39,2.59a2.16,2.16,0,0,1-.22,3c-.3.28-.61.55-.92.81l-.54.47L33.3,39l-.32.28A91,91,0,0,1,33,30.07Zm.54,11.31,1.71-1.55L37,38.2A4.14,4.14,0,0,0,37.3,32l-.2-.21c-.83-.89-1.68-1.81-2.56-2.68a5.58,5.58,0,0,0-1.3-1A.43.43,0,0,1,33,27.6c0-1,0-2,0-3s0-2.25,0-3.37a1,1,0,0,1,.19-.55l1.13-1.35c1.61-1.93,3.28-3.92,5-5.84a22.79,22.79,0,0,1,4.32-3.91l0,0,.28.16.24.14-.13.18a74.5,74.5,0,0,0-6.57,8.86.76.76,0,0,1-.08.11.58.58,0,0,0-.17.35v.07a1.71,1.71,0,0,0,.17.9.75.75,0,0,0,.44.32.86.86,0,0,0,.62-.12A2,2,0,0,0,39,20l1.58-2.22c1-1.4,2-2.84,3-4.23.47-.65,1-1.25,1.52-1.88.23-.25.45-.51.66-.77l1.44,1,0,0-.22.31-10.21,14c-.61.84-.59,1.11.14,1.87l.79.84.85.9c.65.68.94.71,1.75.19l14.57-9.41.35-.22h0l.87,1.49-.76.58c-.63.48-1.22.94-1.86,1.35-1.69,1.09-3.43,2.17-5.1,3.22l-1.9,1.18a1,1,0,0,0-.46,1.34.82.82,0,0,0,.52.43,1.15,1.15,0,0,0,.85-.14,78,78,0,0,0,9-5.87l.45-.33.1-.08c.38.56.35.59-.08,1.08s-1,1.07-1.43,1.52a74,74,0,0,1-7.88,6.33l-.6.44c-1.25.91-2.54,1.81-3.78,2.68a86.52,86.52,0,0,0-9.81,7.6,1.37,1.37,0,0,1,0-.19,9.43,9.43,0,0,0-.14-1A.58.58,0,0,1,33.49,41.38Zm-14.6-3.94a2.76,2.76,0,0,1,.36-2.15,2.59,2.59,0,0,1,1.9-.92c1.25-.14,2.52-.31,3.7-.47l.4,0a2.43,2.43,0,0,1,1.54.52,2.14,2.14,0,0,1,.81,1.53c0,.45.08.9.12,1.36.06.73.12,1.48.2,2.21a26.86,26.86,0,0,0,1.14,5.68,17.75,17.75,0,0,1,1.16,6.73A3.2,3.2,0,0,1,29.5,54c-.09.1-.18.21-.28.31a9.86,9.86,0,0,1-1.16,1.17,4.29,4.29,0,0,1-3.7,1,6.92,6.92,0,0,1-3.44-1.86,2.34,2.34,0,0,1-.55-.8,14.84,14.84,0,0,1-.88-5.55c0-.24,0-.5.05-.77.05-.62.1-1.33.12-2A37.58,37.58,0,0,0,18.89,37.44ZM25.4,32H25c-1.6.14-3.15.32-4.6.54a4.06,4.06,0,0,0-2.68,1.62A4.16,4.16,0,0,0,17,37.33l.13.81a32.27,32.27,0,0,1,.62,8.22c-.07.71-.09,1.43-.12,2.18,0,.15,0,.29,0,.44a20.28,20.28,0,0,1-.92-4.39,46.68,46.68,0,0,0-1.19-6.93l-1.41-5.51c-.85-3.29-1.72-6.7-2.55-10.06a34,34,0,0,1-1.15-7.89c0-.64,0-.67.63-.78a.14.14,0,0,1,0,.07,77.4,77.4,0,0,0,3.29,10.76c.26.68.73,1,1.27.78.33-.12.83-.46.5-1.4-.15-.39-.29-.79-.44-1.18-.29-.79-.59-1.61-.84-2.42-.53-1.73-1-3.51-1.53-5.23l-.6-2.09,1.7-.62,0,.09.1.28,3.2,10.25.8,2.55c.4,1.3.81,2.61,1.22,3.91.22.7.57,1,1.21.88l2.14-.27.62-.08c.84-.11,1.09-.39,1.14-1.24.06-1.26.14-2.53.22-3.83.23-3.62.45-7.24.68-10.86,0-.74.1-1.48.16-2.24l.06-.84,1.81.21c0,.71-.06,1.42-.08,2.13-.08,1.87-.15,3.64-.26,5.44-.05.88-.15,1.76-.25,2.62-.05.47-.11.93-.15,1.39a.93.93,0,0,0,.77,1.05.9.9,0,0,0,1.06-.72,4.29,4.29,0,0,0,.07-.5,2.46,2.46,0,0,1,0-.26,69.76,69.76,0,0,0,.59-10.27c0-.17,0-.35,0-.53v-.11c.7.08.71.11.85.77s.23,1.12.31,1.65a52.11,52.11,0,0,1,.46,8.25c0,2.43,0,4.91-.07,7.3,0,2.61-.07,5.31-.07,8a37.45,37.45,0,0,0,.31,4.25l.06.54a28.51,28.51,0,0,1,.25,5.46c-.09-.28-.17-.56-.26-.83-.32-1.06-.65-2.15-.94-3.24a38.77,38.77,0,0,1-.92-6.57l-.07-.85A4,4,0,0,0,25.4,32ZM24,11.65l-.15,2.41-.27,4.37L23.32,23c-.1,1.59-.2,3.19-.31,4.78a.28.28,0,0,1-.13.17c-.39.06-.77.1-1.18.14l-.32,0L16.19,11.52l.12,0a3,3,0,0,0,.45-.16,1.1,1.1,0,0,1,1.28.25,6.67,6.67,0,0,0,1.12.78,1.79,1.79,0,0,0,2.22-.24,4.28,4.28,0,0,0,.82-.92c.45-.78,1.1-.76,1.89-.63Z"/><path d="M24.91,54.89h0a4.15,4.15,0,0,0,3-1.22,4.25,4.25,0,0,0-3-7.26h0a4.25,4.25,0,0,0-3,1.22,4.26,4.26,0,0,0,3,7.26Zm0-1.88h0a2.3,2.3,0,0,1-1.67-.69A2.38,2.38,0,0,1,25,48.26a2.34,2.34,0,0,1,1.65.7,2.36,2.36,0,0,1-1.68,4Z"/><path d="M75.48,44.37a2,2,0,0,0,1-1.73c0-.7,0-1.28,0-1.81a2.12,2.12,0,0,0-2.16-2.06c-1.28,0-2.56,0-3.83,0A2.18,2.18,0,0,0,68.28,41c0,.41,0,1,0,1.53a2.12,2.12,0,0,0,1.11,1.92c.08.05.09.06.09.17,0,.62,0,1.24,0,1.87V47l-.22-.19a13.91,13.91,0,0,0-1.5-1.24A10.13,10.13,0,0,0,61.89,44H48.79a16.65,16.65,0,0,0-2.29.16,9.13,9.13,0,0,0-5.94,3.32,11,11,0,0,0-.94,12A8.6,8.6,0,0,0,46.46,64a.44.44,0,0,1,.16.17,3.72,3.72,0,0,0,3.75,2.33h.25l1.23-.06c.64,0,1.3-.07,1.95-.07h.12c1.59,0,3.21.06,4.78.11l.9,0A4.88,4.88,0,0,0,62.15,66a.9.9,0,0,0,.41-1.22.88.88,0,0,0-.53-.47,1,1,0,0,0-.72.06,3.3,3.3,0,0,1-1.6.27h-.29c-1.88,0-4-.1-6.07-.12-.55,0-1.11,0-1.66,0h-.14c-.48,0-1.08.05-1.66.05A1.5,1.5,0,0,1,48.65,64h.09a10.18,10.18,0,0,0,4.59-1.5,3.22,3.22,0,0,1,3.71,0A10.52,10.52,0,0,0,64.24,64a8.64,8.64,0,0,0,7-5.58,10.93,10.93,0,0,0,.8-5.17h.47c.59,0,1.27,0,1.93,0,.18,0,.2.27.2.33,0,.27,0,.54,0,.81v.14c0,.36-.12.47-.49.47h-.94a.91.91,0,0,0,0,1.81h.23v1.46c0,1.37,0,2.78,0,4.18a15.24,15.24,0,0,1-.16,2,12.67,12.67,0,0,1-5,8.46,11.8,11.8,0,0,1-9,2.57,5.43,5.43,0,0,1-4.68-4.13l.39,0c.58,0,1.17-.05,1.75-.11h.11l0,.08A3.37,3.37,0,0,0,58.65,73a6.18,6.18,0,0,0,4.18.18,11.37,11.37,0,0,0,8.49-10.84,1.07,1.07,0,0,0-.28-.81.88.88,0,0,0-.64-.25c-.55,0-.9.39-.93,1v.27a8.19,8.19,0,0,1-.08,1.07,9.28,9.28,0,0,1-4.18,6.48,7.46,7.46,0,0,1-4.85,1.43,2,2,0,0,1-1.81-1.17l.06-.05a4.62,4.62,0,0,0,1.64-2.16.93.93,0,0,0-.51-1.31c-.34-.12-.83-.12-1.2.63a4.27,4.27,0,0,1-.61,1,3.43,3.43,0,0,1-3.16.92,3,3,0,0,1-2.3-1.91A1.05,1.05,0,0,0,52,66.9a.85.85,0,0,0-.68,0,.93.93,0,0,0-.53,1.27,4.18,4.18,0,0,0,1.53,2.08,1,1,0,0,1,.39.76,6.94,6.94,0,0,0,4.94,5.93,10.59,10.59,0,0,0,1.4.34l.09,0,.58.11h2.14l.06,0,.09,0,0,0a13.14,13.14,0,0,0,4.81-1.41,14.66,14.66,0,0,0,8.47-13.3c0-1.43,0-2.88,0-4.28V58c0-.42,0-.84,0-1.26,0-.15,0-.17.11-.22a1.68,1.68,0,0,0,1-1.29,8.84,8.84,0,0,0,0-2.35,2,2,0,0,0-2.14-1.52h-2.5c0-.12-.07-.24-.1-.35l0-.06a4.66,4.66,0,0,1-.26-1.17c0-1.19,0-2.39,0-3.55,0-.46,0-.92,0-1.38v-.09h2.15v4.83a1,1,0,0,0,.47.9.87.87,0,0,0,.88,0,1,1,0,0,0,.47-.9c0-1.33,0-3.09,0-4.87C75.3,44.5,75.34,44.45,75.48,44.37Zm-3.66-1.5H70.55c-.31,0-.41-.1-.42-.39,0-.49,0-1,0-1.5,0-.28.13-.39.42-.39,1.43,0,2.6,0,3.71,0,.28,0,.41.13.41.43q0,.72,0,1.44c0,.29-.11.4-.42.41H71.82Zm-16.62,3h2.32c1.51,0,3.39,0,5.18,0a7.68,7.68,0,0,1,7.29,6,9,9,0,0,1-1,7,6.88,6.88,0,0,1-6.26,3.36h-.27a9.6,9.6,0,0,1-4.81-1.47,4.57,4.57,0,0,0-5,.05,9.31,9.31,0,0,1-6,1.37,6.84,6.84,0,0,1-5.58-4,9,9,0,0,1,1.15-9.79A7.53,7.53,0,0,1,47,45.93,17.09,17.09,0,0,1,49,45.82h5.89v0Z"/><path d="M48.86,47.33h0a17.64,17.64,0,0,0-1.91.08,6.15,6.15,0,0,0-4.33,2.25,7.06,7.06,0,0,0-1.4,5.88,5.86,5.86,0,0,0,5.29,5.15l.65,0a4.93,4.93,0,0,0,4.6-2.6c.23-.41.42-.84.59-1.23l.24-.53c.11-.24.22-.47.32-.71l0,0A14.21,14.21,0,0,1,53.68,54a1.69,1.69,0,0,1,1.45-.85h0a1.82,1.82,0,0,1,1.52.82,6.58,6.58,0,0,1,.53,1l.45,1.07,0,.12c.17.42.35.85.53,1.27a5.11,5.11,0,0,0,4.46,3.25,5.58,5.58,0,0,0,5-2,7,7,0,0,0,1.53-5.38,6.38,6.38,0,0,0-2.65-4.76,7.1,7.1,0,0,0-4.23-1.23H48.86Zm6.32,1.87h2.38c1.67,0,3.56,0,5.42,0a4.57,4.57,0,0,1,4.42,4.08A5.27,5.27,0,0,1,66,57.84a3.91,3.91,0,0,1-3.32,1,3.32,3.32,0,0,1-2.52-1.77c-.3-.58-.56-1.2-.81-1.81-.15-.35-.29-.69-.44-1s-.33-.71-.55-1.11a3.6,3.6,0,0,0-3.19-1.79A3.5,3.5,0,0,0,52,53.13c-.36.68-.66,1.4-1,2.11l0,.09-.23.53a5.59,5.59,0,0,1-1.4,2.22,3.9,3.9,0,0,1-5.12-.31,5.38,5.38,0,0,1,.1-7.33,4.71,4.71,0,0,1,3-1.24l.62,0H54.9v0Z"/></svg>