<svg id="Layer_1" data-name="Layer 1" xmlns="http://www.w3.org/2000/svg" viewBox="0 0 85.04 85.04"><path d="M56.9,9.48c1.07,0,1,1.55,1,2.61H60c1.22,0,1.76.55,1.77,1.77,0,.49,0,1,0,1.47a1.43,1.43,0,0,1-1.53,1.46l-2.18,0s0,0-.14.08c0,.28,0,.62,0,.95s.14.54.51.64a12.55,12.55,0,0,1,8.67,7.6,12.81,12.81,0,0,1,.93,5q0,15.51,0,31a12.81,12.81,0,0,1-24.23,6c-.3-.6-.22-1,.24-1.25s.83,0,1.16.56a11.22,11.22,0,0,0,20.93-2.61,41.59,41.59,0,0,0,.42-5.1H56.34c-.06.13-.13.25-.18.38-1.4,3.61-4.13,5-7.9,4.14a13.88,13.88,0,0,1-2.07-.67.59.59,0,0,0-.79.21,8.45,8.45,0,0,1-4.95,3,7.34,7.34,0,0,1-6.2-1.93,7.42,7.42,0,0,1-1.08-1.09.52.52,0,0,0-.75-.16,10.41,10.41,0,0,1-3.84.89,5.76,5.76,0,0,1-5.87-3.71,12.42,12.42,0,0,1-.91-7.14,6.26,6.26,0,0,1,4.18-5,1.29,1.29,0,0,0,.67-.51,11.07,11.07,0,0,1,7.93-6,21.59,21.59,0,0,1,7.82-.29v-.73c0-3.44,0-6.89,0-10.33A12.81,12.81,0,0,1,52,18.48c.45-.12.63-.29.46-.74-2,.08-2.82-.75-2.82-2.73V14c0-1.91,1-2.79,2.89-2.64-.13-.83.24-1.86.93-1.86Zm0,48.69h9.46V35.05H44v7.11l.65.17a10.82,10.82,0,0,1,7.11,5.52,1.82,1.82,0,0,0,1,.91,6.2,6.2,0,0,1,4.19,5.87C57,55.8,56.92,57,56.92,58.17Zm9.49-24.73c0-.88,0-1.73,0-2.58a11.09,11.09,0,0,0-9-11c-.89-.19-1-.38-1-1.3,0-2.26,0-4.53,0-6.79,0-.23,0-.46,0-.7H54.1v7c.49.11.9.33.85.88s-.53.69-1,.78a16,16,0,0,0-2.3.51c-5.21,1.83-8.37,6.59-7.63,13.22ZM50,48c-.12-.21-.18-.34-.26-.45a8.61,8.61,0,0,0-4.31-3.28A19.14,19.14,0,0,0,35,43.71a9.39,9.39,0,0,0-7.17,5.58A1.6,1.6,0,0,1,27,50c-2,.7-3.38,1.92-3.63,4.06a11.33,11.33,0,0,0,.88,6.26,4.42,4.42,0,0,0,4.93,2.6,13.48,13.48,0,0,0,5.09-2c1-.58,1.94-1.16,2.93-1.71a4.14,4.14,0,0,1,4.27,0c1,.58,2.06,1.2,3.09,1.8a14.42,14.42,0,0,0,4.16,1.77c3.1.68,5.29-.53,6.12-3.59a17.67,17.67,0,0,0,.54-4.1,4.84,4.84,0,0,0-3.45-5,12.93,12.93,0,0,0-4.52-.72c-5.37,0-10.73,0-16.1,0l-.88,0a.64.64,0,0,1-.63-.65.67.67,0,0,1,.53-.82,3.06,3.06,0,0,1,.56,0H47.91C48.58,47.85,49.25,47.94,50,48Zm-5.73,14.7C43,62,41.86,61.21,40.62,60.6a2.57,2.57,0,0,0-1.83-.27c-1.55.65-3,1.52-4.54,2.32C37.46,66.32,41.49,66.05,44.28,62.69ZM51.23,14.5h0c0,.36,0,.76,0,1.07a.52.52,0,0,0,.52.56c.55,0,.65-.28.66-.48a20.35,20.35,0,0,0,0-2.21.57.57,0,0,0-.64-.5.56.56,0,0,0-.55.61C51.25,13.85,51.23,14.18,51.23,14.5ZM58,13.73v1.48h2.17V13.73Z"/><path d="M20.83,54.64c0,2.46,0,4.92,0,7.38A6.49,6.49,0,0,0,26,68.43a8.81,8.81,0,0,0,1.78.18q4.2,0,8.4,0a1.47,1.47,0,0,0,.89-.34,3.44,3.44,0,0,1,4.79,4.93,3.4,3.4,0,0,1-4.68.31A1.58,1.58,0,0,0,36,73.11c-2.88,0-5.77,0-8.65,0a11.1,11.1,0,0,1-11-9.51,13.08,13.08,0,0,1-.12-2q0-7.27,0-14.55c0-1.53.46-2,2-2,.32,0,.64,0,1,0a1.48,1.48,0,0,1,1.59,1.67C20.83,49.39,20.83,52,20.83,54.64Zm15,15.52H27.27a7.53,7.53,0,0,1-4-1.1,8.06,8.06,0,0,1-4.08-7.3c0-4.77,0-9.54,0-14.31v-.74H17.9c0,.2,0,.37,0,.53,0,4.94,0,9.88,0,14.82A11.08,11.08,0,0,0,18,63.78c.61,3.84,4.11,7.35,8,7.63,3.23.23,6.49.11,9.74.14,0,0,.07,0,.13-.07Zm5.3.67A1.82,1.82,0,0,0,39.27,69a1.88,1.88,0,0,0-1.85,1.89,1.93,1.93,0,0,0,1.91,1.84A1.86,1.86,0,0,0,41.15,70.83Z"/><path d="M39.39,50c2.8,0,5.6,0,8.4,0a10.57,10.57,0,0,1,4.12.76,4.07,4.07,0,0,1,2.82,4.08,19.18,19.18,0,0,1-.41,3.87c-.73,3-2.76,4.24-5.77,3.37a24.59,24.59,0,0,1-4-1.79c-1-.49-1.88-1.1-2.83-1.63a4.8,4.8,0,0,0-4.83,0c-1,.53-1.92,1.11-2.87,1.67a13.79,13.79,0,0,1-4.58,1.91,4,4,0,0,1-4.92-2.73A10.94,10.94,0,0,1,24,53.93a4,4,0,0,1,2.44-3A10.43,10.43,0,0,1,30.87,50C33.71,50,36.55,50,39.39,50Zm-.09,1.54v0c-2.8,0-5.6,0-8.4,0a8.89,8.89,0,0,0-3.74.7,2.53,2.53,0,0,0-1.65,1.91,9.29,9.29,0,0,0,.65,5.15A2.38,2.38,0,0,0,29,60.75a11,11,0,0,0,3.9-1.53c1.11-.65,2.2-1.32,3.32-1.93a6.21,6.21,0,0,1,6.24,0c1.11.59,2.16,1.3,3.28,1.87a18.54,18.54,0,0,0,3.2,1.41c2.16.65,3.36-.06,3.9-2.25a14,14,0,0,0,.37-3,2.74,2.74,0,0,0-2.26-3.17,18.26,18.26,0,0,0-4-.53C44.35,51.51,41.83,51.57,39.3,51.57Z"/></svg>