<svg id="Layer_1" data-name="Layer 1" xmlns="http://www.w3.org/2000/svg" viewBox="0 0 85.04 85.04"><path d="M13.12,44.21c-.23-.68.26-1.17.85-1.74a33.74,33.74,0,0,0,3.55-3.82c1.06-1.38.66-2.13-1.07-2.46-.34-.06-.68-.1-1-.14a1.1,1.1,0,0,1-1-1.63c.72-1.72,1.46-3.44,2.19-5.16a1.41,1.41,0,0,1,1.06-.83c1.71-.49,3.42-1,5.1-1.57A5.4,5.4,0,0,0,24.23,26a.66.66,0,0,0,.06-1.07A10.24,10.24,0,0,0,23,23.78c-1-.71-1.08-1.37-.12-2.14,1.24-1,2.53-1.95,3.73-3a1.91,1.91,0,0,1,2.13-.36,17,17,0,0,0,5.48,1.09h.32c1.19-.08,1.5-.51,1.13-1.64-.15-.46-.39-.9-.59-1.36a1,1,0,0,1,.9-1.53c1.82-.18,3.65-.32,5.47-.51a1.86,1.86,0,0,1,1.67.73,33.1,33.1,0,0,0,3.61,3.4c1.69,1.31,2.53.87,2.84-1.26,0-.25.07-.51.12-.76a1,1,0,0,1,1.43-.85c1.81.67,3.61,1.37,5.42,2.06a1.33,1.33,0,0,1,.78,1.09c.45,1.79.92,3.58,1.45,5.34a4.71,4.71,0,0,0,.82,1.37.59.59,0,0,0,1,.09A14.37,14.37,0,0,0,61.81,24c.7-1,1.4-1,2.14-.05,1,1.38,2,2.77,3.13,4.12a1.76,1.76,0,0,1,.25,2,14.74,14.74,0,0,0-1.25,5.43c0,1.31.41,1.65,1.67,1.34a11.15,11.15,0,0,0,1.33-.48c.94-.37,1.58,0,1.66,1,.13,1.71.24,3.43.42,5.15A1.77,1.77,0,0,1,70.58,44c-1.14,1.26-2.25,2.55-3.3,3.87a4.89,4.89,0,0,0-.69,1.52.74.74,0,0,0,.59,1,11.76,11.76,0,0,0,1.78.27c1.11.05,1.55.71,1.11,1.73-.72,1.64-1.47,3.26-2.16,4.9a1.73,1.73,0,0,1-1.29,1,40.69,40.69,0,0,0-5,1.55c-2,.83-2,1.63-.26,2.88.18.12.37.23.53.36A1,1,0,0,1,62,64.8c-1.48,1.22-3,2.42-4.52,3.56a1.76,1.76,0,0,1-1.27,0c-1.54-.37-3-.87-4.6-1.21a6.81,6.81,0,0,0-2.11,0,.92.92,0,0,0-.83,1.12A10.5,10.5,0,0,0,49,70.11c.32,1,0,1.58-1.06,1.7-1.69.18-3.38.31-5.08.49a1.69,1.69,0,0,1-1.46-.62,35.23,35.23,0,0,0-3.58-3.34c-1.75-1.32-2.63-.87-2.94,1.31,0,.22-.07.43-.12.64a1,1,0,0,1-1.38.76q-2.7-1-5.37-2c-.49-.19-.64-.62-.76-1.11-.4-1.69-.83-3.38-1.3-5a4.16,4.16,0,0,0-.67-1.24c-.51-.72-1-.8-1.67-.22a11.08,11.08,0,0,0-1.23,1.33c-.72.91-1.37.92-2.07,0-1-1.32-2-2.67-3-4A1.6,1.6,0,0,1,17.08,57a16.57,16.57,0,0,0,1.39-5.67c0-1.61-.42-1.94-2-1.45-.48.16-1,.39-1.43.58a1.06,1.06,0,0,1-1.53-.93C13.41,47.79,13.27,46.1,13.12,44.21ZM63,26.17a16.28,16.28,0,0,1-1.28,1.12,2.56,2.56,0,0,1-3.6-.38,5.91,5.91,0,0,1-1.15-1.71A22.5,22.5,0,0,1,55.59,21a2.3,2.3,0,0,0-2-2.19,14.54,14.54,0,0,1-2-.76,15.57,15.57,0,0,1-.75,1.75,2.7,2.7,0,0,1-3.23,1.39,4.93,4.93,0,0,1-1.87-.82c-1.37-1.1-2.64-2.33-4-3.5-.15-.14-.34-.35-.5-.34-1.23.07-2.47.19-3.73.29l.2.9a2.66,2.66,0,0,1-2.16,3.54,6.66,6.66,0,0,1-1.47.19,16.8,16.8,0,0,1-5.75-1c-.19-.06-.47-.12-.59,0-.94.7-1.85,1.45-2.8,2.2l.47.38a3,3,0,0,1-.15,4.8,8.61,8.61,0,0,1-1.18.78,20.12,20.12,0,0,1-5.23,1.8.9.9,0,0,0-.58.39c-.5,1.08-1,2.2-1.42,3.3.63.26,1.24.46,1.8.76A2.54,2.54,0,0,1,20,38a8.63,8.63,0,0,1-.86,1.94,15.88,15.88,0,0,1-3.56,4c-.15.13-.37.33-.36.48.07,1.15.19,2.3.29,3.49l.94-.2c2.28-.52,3.57.32,4,2.61a4.17,4.17,0,0,1,.06.71,16.51,16.51,0,0,1-1.23,6.16c-.07.19-.14.5,0,.64.67.94,1.38,1.86,2.07,2.78.46-.37.84-.75,1.29-1a2.86,2.86,0,0,1,4.13.59,8.29,8.29,0,0,1,.91,1.41,18.14,18.14,0,0,1,1.55,5.1c.05.25.16.62.34.7,1.1.47,2.22.87,3.32,1.28.27-.59.46-1.14.74-1.64a2.45,2.45,0,0,1,2.68-1.38,8.11,8.11,0,0,1,2.35.82,14.57,14.57,0,0,1,3.93,3.33c.13.15.32.38.48.37,1.21-.07,2.42-.18,3.66-.28-.05-.25-.09-.4-.11-.54-.4-2.12.41-3.57,2.31-4.05a6.65,6.65,0,0,1,1.34-.18,15.59,15.59,0,0,1,5.92,1.1c.19.07.47.17.59.08.94-.7,1.84-1.44,2.75-2.16a16.39,16.39,0,0,1-1.09-1.31,2.43,2.43,0,0,1,.31-3.34,6,6,0,0,1,1.75-1.3,30.09,30.09,0,0,1,4.41-1.58,2.08,2.08,0,0,0,1.72-1.43c.27-.82.67-1.6,1-2.37-.52-.17-1-.28-1.37-.45a2.62,2.62,0,0,1-1.7-3.22,5.22,5.22,0,0,1,.73-1.9,36.69,36.69,0,0,1,3-3.81,2.12,2.12,0,0,0,.72-2,21.38,21.38,0,0,1-.21-2.59l-.58.14c-2.61.53-4.12-.69-4.17-3.36a16.35,16.35,0,0,1,1.13-5.66,1.06,1.06,0,0,0,0-.76C64.46,28.11,63.7,27.15,63,26.17Z"/><path d="M42.16,63.11c-10.58,0-19.68-7.44-19.89-20-.19-10.82,9-19.77,19.88-19.77s20.06,9,19.86,19.79C61.78,55.74,52.65,63.07,42.16,63.11Zm0-2c9.74,0,18-8.05,17.79-17.72-.22-10.84-7.9-17.74-17.65-17.8s-17.71,6.9-17.89,17.83C24.21,53.12,32.35,61.09,42.12,61.13Z"/><path d="M42.13,50.23a6.85,6.85,0,0,1-7-7,7,7,0,0,1,14,0A6.84,6.84,0,0,1,42.13,50.23Zm-4.8-6.94a4.81,4.81,0,1,0,4.81-4.84A4.71,4.71,0,0,0,37.33,43.29Z"/><path d="M42.83,29.57A13.71,13.71,0,0,1,55.73,41.3a15.42,15.42,0,0,1,.15,1.8c0,.77-.35,1.22-1,1.25s-1.07-.44-1.1-1.23A11.49,11.49,0,0,0,47.59,33a11,11,0,0,0-5.12-1.35,2.33,2.33,0,0,1-.7-.11,1,1,0,0,1,.29-2C42.32,29.56,42.58,29.57,42.83,29.57Z"/></svg>