<svg id="Layer_1" data-name="Layer 1" xmlns="http://www.w3.org/2000/svg" viewBox="0 0 85.04 85.04"><path d="M27.6,15.45A1.6,1.6,0,0,1,28.32,17q0,17.47,0,34.94v.82H30.7c1.65,0,1.88.23,1.88,1.86V57H68.27a4.6,4.6,0,0,1,.74.05,1,1,0,0,1,.85,1c0,3.57,0,7.15,0,10.72a1,1,0,0,1-1,1c-.14,0-.29,0-.43,0H17a1.64,1.64,0,0,1-1.5-.65V15.45ZM26.09,52.71V49.56H24.57c-.76,0-1.2-.39-1.21-1a1.08,1.08,0,0,1,1.21-1.1h1.52V44.27l-.14,0c-.95,0-1.91,0-2.86,0a1.62,1.62,0,0,1-.62-.11A1,1,0,0,1,21.9,43,1.07,1.07,0,0,1,23,42.11H26.1v-3.2c-.53,0-1,0-1.51,0-.76,0-1.24-.42-1.23-1.08s.44-1,1.19-1c.51,0,1,0,1.54,0V33.59h-.41c-.89,0-1.77,0-2.66,0A1.08,1.08,0,1,1,23,31.43c.27,0,.53,0,.8,0H26.1V28.26H24.58c-.77,0-1.23-.44-1.22-1.1s.49-1.06,1.25-1.07c.49,0,1,0,1.48,0V22.91h-3c-.41,0-.83-.09-1-.48a1.7,1.7,0,0,1-.07-1,1,1,0,0,1,1-.62h3.06V17.61H17.66v35.1Zm27.81,6.5v1c0,.59,0,1.17,0,1.76a1.06,1.06,0,0,1-1.26,1,1.13,1.13,0,0,1-.89-1.21c0-.86,0-1.72,0-2.59H48.54v.6c0,1.17,0,2.34,0,3.51a1.06,1.06,0,0,1-1.08,1.17,1.09,1.09,0,0,1-1.05-1.21c0-1,0-2,0-3v-1H43.21v2.33c0,.15,0,.31,0,.47a1,1,0,0,1-1,1,1,1,0,0,1-1.07-1c0-.94,0-1.87,0-2.79H37.9v4a1.12,1.12,0,0,1-1.08,1.25c-.64,0-1.06-.47-1.07-1.25s0-1.73,0-2.6V59.22H32.61v8.45h35.1V59.23H64.55c0,.92,0,1.81,0,2.69A1.06,1.06,0,0,1,63.39,63a1,1,0,0,1-1-1.1c0-.9,0-1.8,0-2.7H59.23c0,1.35,0,2.68,0,4,0,.78-.46,1.3-1.11,1.28s-1-.49-1.06-1.27c0-1.15,0-2.3,0-3.45,0-.18,0-.37,0-.57ZM30.37,67.68V54.94H17.66V67.68Z"/><path d="M24,64.4a3.09,3.09,0,1,1,3.09-3.09A3.09,3.09,0,0,1,24,64.4Zm0-4.17a1.09,1.09,0,0,0,0,2.17,1.09,1.09,0,1,0,0-2.17Z"/></svg>