<svg id="Layer_1" data-name="Layer 1" xmlns="http://www.w3.org/2000/svg" viewBox="0 0 85.04 85.04"><path d="M52.94,71.67c-1.17-.55-2.33-1.12-3.51-1.65-2.08-1-4.16-1.89-6.26-2.8A2.26,2.26,0,0,0,42,67.08c-5.67.91-11.33,1.85-17,2.78-.74.12-1.1-.15-1.22-.89q-.54-3.24-1.05-6.48a.74.74,0,0,0-.72-.74c-1.63-.28-3.26-.64-4.88-1-.91-.18-1.13-.51-.95-1.43.23-1.19.45-2.37.71-3.55a.41.41,0,0,0-.28-.56l-2.28-1c-.83-.37-1-.73-.61-1.55,1.59-3.53,3.14-7.07,4.78-10.58a4.65,4.65,0,0,0,.37-3c-.77-4.38-1.48-8.78-2.21-13.17-.11-.63.2-1,.94-1.15,1.66-.28,3.31-.56,5-.8a.71.71,0,0,0,.72-.67c.41-2.17.84-4.34,1.27-6.5.15-.78.52-1,1.29-.87l3.6.73a.46.46,0,0,0,.61-.32c.3-.71.63-1.41,1-2.11s.73-.91,1.49-.57c4.2,1.89,8.42,3.74,12.58,5.69a5,5,0,0,0,3.2.37c4.09-.72,8.19-1.37,12.29-2a.86.86,0,0,1,1.13.78c.24,1.34.47,2.68.67,4a.81.81,0,0,0,.77.81c1.8.31,3.6.68,5.39,1,.76.16,1,.55.84,1.32-.25,1.22-.49,2.45-.75,3.66-.08.41,0,.65.42.81a16.16,16.16,0,0,1,1.85.84,5.6,5.6,0,0,1,.79.59v.69a1.66,1.66,0,0,0-.16.21c-1.77,3.94-3.55,7.88-5.3,11.82a1.53,1.53,0,0,0-.09.82c.38,2.37.78,4.73,1.18,7.09q.76,4.61,1.52,9.22c.15.92-.11,1.23-1,1.38-1.86.3-3.72.6-5.58.93a.66.66,0,0,0-.4.4c-.29,1.31-.54,2.62-.8,3.94-.2,1.06-.52,1.27-1.55,1.06-1.2-.24-2.4-.47-3.6-.73a.5.5,0,0,0-.68.37c-.26.65-.54,1.28-.86,1.9a9.86,9.86,0,0,1-.69,1ZM67.53,25.93,26.14,17.79c-.28,1.41-.54,2.75-.8,4.08-.37,1.87-.73,3.74-1.12,5.6a.84.84,0,0,1-1.16.73c-.46-.19-.63-.58-.52-1.18.07-.41.15-.82.24-1.3l-4,.64c-.35.06-.26.28-.22.51.29,1.75.57,3.5.87,5.25s.61,3.67.94,5.64c.07-.23.1-.32.12-.41l1.11-5.67c.14-.71.55-1.07,1.08-.95s.78.57.63,1.29c-.43,2.2-.85,4.41-1.29,6.61q-1.72,8.81-3.47,17.61c-.19,1-.37,1.94-.56,2.95l41.38,8.14ZM40.67,65.51v-.08l-16.23-3.2,1,5.81ZM67,61.15,65,48.67h-.11L62.23,61.94Zm-6.9-41.62-8.47,1.4V21l9,1.77ZM18.87,45.7l-.09,0-3.23,7.18,1.76.78ZM53.63,68l-7.38-1.44,0,.13,6.66,3Zm-22-50.88,6.83,1.34,0-.13-6.16-2.77ZM66.9,38.18l.11.06,2.66-5.91-1.49-.67Z"/><path d="M48.53,36.23a.87.87,0,0,1-.85.89.88.88,0,0,1-.86-.87.89.89,0,0,1,.85-.89A.87.87,0,0,1,48.53,36.23Z"/><path d="M56.78,65.42a.88.88,0,0,1-.86-.88.86.86,0,0,1,.9-.83.85.85,0,0,1,.85.87A.88.88,0,0,1,56.78,65.42Z"/><path d="M42.68,60.9a.88.88,0,0,1,0,1.75.85.85,0,0,1-.83-.89A.88.88,0,0,1,42.68,60.9Z"/><path d="M36.46,60.36a.87.87,0,0,1-.85.88.84.84,0,0,1-.89-.83.87.87,0,0,1,.84-.89A.9.9,0,0,1,36.46,60.36Z"/><path d="M32.07,58.84a.85.85,0,1,1,0,1.7.86.86,0,0,1-.86-.87A.88.88,0,0,1,32.07,58.84Z"/><path d="M27.92,25.65a.88.88,0,0,1,0-1.76.86.86,0,0,1,.87.86A.88.88,0,0,1,27.92,25.65Z"/><path d="M27.27,51a.86.86,0,1,1-.87-.87A.87.87,0,0,1,27.27,51Z"/><path d="M38.62,49.46a.91.91,0,0,1-.9.85.9.9,0,0,1-.86-.88.86.86,0,0,1,.89-.84A.88.88,0,0,1,38.62,49.46Z"/><path d="M35.79,45.12a.92.92,0,0,1-.89.86.88.88,0,0,1,0-1.76A.91.91,0,0,1,35.79,45.12Z"/><path d="M38.51,27.71a.85.85,0,1,1,0-1.7.85.85,0,1,1,0,1.7Z"/><path d="M46.24,44.4a.88.88,0,0,1-.87-.87.88.88,0,0,1,1.75,0A.89.89,0,0,1,46.24,44.4Z"/><path d="M40,42.13a.89.89,0,0,1-.84.89.88.88,0,0,1,0-1.75A.88.88,0,0,1,40,42.13Z"/><path d="M54.77,36.78a.85.85,0,0,1,.85.87.89.89,0,0,1-.89.85.9.9,0,0,1-.86-.88A.88.88,0,0,1,54.77,36.78Z"/><path d="M25.18,43a.85.85,0,0,1-.89.83.88.88,0,0,1-.86-.87.91.91,0,0,1,.9-.85A.89.89,0,0,1,25.18,43Z"/><path d="M56.2,29.46a.88.88,0,1,1-.87.86A.87.87,0,0,1,56.2,29.46Z"/><path d="M46.19,63.36a.88.88,0,1,1,.85-.88A.87.87,0,0,1,46.19,63.36Z"/><path d="M27.64,58.92a.88.88,0,0,1,1-.77.87.87,0,0,1,.73.93.86.86,0,0,1-.95.77A.87.87,0,0,1,27.64,58.92Z"/><path d="M54.68,55.69a.88.88,0,1,1-.83.9A.86.86,0,0,1,54.68,55.69Z"/><path d="M52.62,28.76a.88.88,0,0,1,.06,1.76.88.88,0,0,1-.06-1.76Z"/><path d="M51.14,55a.88.88,0,0,1,0,1.75.88.88,0,0,1,0-1.75Z"/><path d="M45,54.51a.88.88,0,0,1-1.76-.06.89.89,0,0,1,.91-.83A.9.9,0,0,1,45,54.51Z"/><path d="M41.43,53.81a.88.88,0,1,1-.85-.88A.86.86,0,0,1,41.43,53.81Z"/><path d="M52.61,49.43a.88.88,0,0,1-.89-.84.88.88,0,0,1,1.75,0A.87.87,0,0,1,52.61,49.43Z"/><path d="M27.15,46.48a.87.87,0,0,1,.83.89.86.86,0,0,1-.87.86.9.9,0,0,1-.85-.9A.89.89,0,0,1,27.15,46.48Z"/><path d="M30.88,32.76a.88.88,0,1,1-.88-.85A.86.86,0,0,1,30.88,32.76Z"/><path d="M36.49,41.44a.86.86,0,1,1-.86-.87A.88.88,0,0,1,36.49,41.44Z"/><path d="M59.16,38.31a.88.88,0,1,1-.89-.83A.86.86,0,0,1,59.16,38.31Z"/><path d="M33.52,34.31a.86.86,0,0,1-.86-.87.88.88,0,1,1,.86.87Z"/><path d="M44.15,36.42a.86.86,0,0,1-.86-.87.88.88,0,0,1,.85-.89.87.87,0,0,1,.85.88A.85.85,0,0,1,44.15,36.42Z"/><path d="M61.12,41.8a.89.89,0,0,1,.85.89.85.85,0,0,1-.89.84.88.88,0,0,1-.85-.88A.89.89,0,0,1,61.12,41.8Z"/><path d="M33,40.75a.85.85,0,1,1-1.7,0,.85.85,0,1,1,1.7,0Z"/><path d="M41.47,34.85a.88.88,0,0,1-.86.87.85.85,0,0,1-.85-.87.87.87,0,0,1,.85-.88A.88.88,0,0,1,41.47,34.85Z"/><path d="M30.68,47.18a.88.88,0,0,1,.85.88.91.91,0,0,1-.88.87.92.92,0,0,1-.86-.89A.91.91,0,0,1,30.68,47.18Z"/><path d="M61.24,46.32a.86.86,0,1,1-1.71,0,.86.86,0,1,1,1.71,0Z"/><path d="M38.48,44.93a.85.85,0,0,1,.83.89.86.86,0,1,1-1.71,0A.84.84,0,0,1,38.48,44.93Z"/><path d="M49.27,32.58a.88.88,0,1,1-1.75,0,.88.88,0,1,1,1.75,0Z"/><path d="M31.41,43.52a.93.93,0,0,1,.85.91.92.92,0,0,1-.9.85.88.88,0,0,1,.05-1.76Z"/><path d="M51.32,59.52a.88.88,0,0,1-1.75,0,.88.88,0,1,1,1.75,0Z"/><path d="M50.66,44.23a.88.88,0,0,1-.87.86.87.87,0,0,1-.88-.85.85.85,0,0,1,.86-.86A.88.88,0,0,1,50.66,44.23Z"/><path d="M22.29,57.62a.86.86,0,1,1-.83-.88A.84.84,0,0,1,22.29,57.62Z"/><path d="M61.32,27.39a.92.92,0,0,1-.89.87.94.94,0,0,1-.87-.89.88.88,0,0,1,1.76,0Z"/><path d="M22.86,49.43a.88.88,0,0,1,0,1.75.87.87,0,0,1-.88-.85A.88.88,0,0,1,22.86,49.43Z"/><path d="M30.8,51.72a.87.87,0,0,1-.87.86.89.89,0,0,1-.84-.9.86.86,0,1,1,1.71,0Z"/><path d="M42.92,27.54a.88.88,0,0,1-1.76,0,.88.88,0,0,1,1.76,0Z"/><path d="M56.27,53a.87.87,0,0,1-.88.85.88.88,0,0,1,0-1.76A.89.89,0,0,1,56.27,53Z"/><path d="M59.82,53.62a.92.92,0,0,1-.87.88.94.94,0,0,1-.88-.88.92.92,0,0,1,.88-.88A.9.9,0,0,1,59.82,53.62Z"/><path d="M23,53.94a.91.91,0,0,1-.86.89.88.88,0,1,1,0-1.75A.91.91,0,0,1,23,53.94Z"/><path d="M27.33,32.06a.88.88,0,0,1-.86.87.86.86,0,1,1,0-1.72A.84.84,0,0,1,27.33,32.06Z"/><path d="M25.9,39.36a.86.86,0,0,1-.87.85.83.83,0,0,1-.86-.85A.85.85,0,0,1,25,38.5.88.88,0,0,1,25.9,39.36Z"/><path d="M33,21.83a.91.91,0,0,1-.89.86.88.88,0,1,1,.89-.86Z"/><path d="M37.88,53.08A.85.85,0,0,1,37,54a.86.86,0,1,1,0-1.71A.84.84,0,0,1,37.88,53.08Z"/><path d="M49.11,28.07a.89.89,0,0,1,.87.87.88.88,0,0,1-.86.87.84.84,0,0,1-.86-.86A.88.88,0,0,1,49.11,28.07Z"/><path d="M47.63,54.3a.91.91,0,0,1,.87.87.89.89,0,0,1-.87.87.86.86,0,0,1-.87-.86A.9.9,0,0,1,47.63,54.3Z"/><path d="M64,27.22a.89.89,0,0,1,.86.87.88.88,0,0,1-1.75,0A.87.87,0,0,1,64,27.22Z"/><path d="M62.7,39a.87.87,0,0,1-.85.87.83.83,0,0,1-.89-.82.84.84,0,0,1,.84-.88A.88.88,0,0,1,62.7,39Z"/><path d="M39.9,39.37a.88.88,0,1,1,0-1.75.94.94,0,0,1,.89.87A.92.92,0,0,1,39.9,39.37Z"/><path d="M36.32,57.59a.82.82,0,0,1-.87-.83.84.84,0,0,1,.84-.88.86.86,0,0,1,0,1.71Z"/><path d="M58.24,56.4a.84.84,0,0,1,.84.88.85.85,0,1,1-.84-.88Z"/><path d="M42.15,50.15a.87.87,0,0,1-1.74,0,.83.83,0,0,1,.87-.84A.87.87,0,0,1,42.15,50.15Z"/><path d="M46.92,59.7a.91.91,0,0,1-.89-.86A.94.94,0,0,1,46.9,58a.9.9,0,0,1,.87.87A.88.88,0,0,1,46.92,59.7Z"/><path d="M36.57,22.52a.88.88,0,0,1-1.76,0,.88.88,0,0,1,.89-.85A.9.9,0,0,1,36.57,22.52Z"/><path d="M53.39,25.11a.88.88,0,0,1,.83.9.85.85,0,0,1-.87.85A.88.88,0,0,1,52.5,26,.9.9,0,0,1,53.39,25.11Z"/><path d="M57.77,26.69a.89.89,0,0,1-.87.87.88.88,0,1,1,.87-.87Z"/><path d="M28.06,28.43a.91.91,0,0,1-.89.86.89.89,0,0,1-.85-.88.85.85,0,0,1,.88-.85A.88.88,0,0,1,28.06,28.43Z"/><path d="M26.6,35.71a.86.86,0,1,1-.86-.85A.83.83,0,0,1,26.6,35.71Z"/><path d="M50.58,63.14a.88.88,0,0,1-.83.91.9.9,0,0,1-.89-.85.86.86,0,0,1,.84-.89A.84.84,0,0,1,50.58,63.14Z"/><path d="M62.54,36.23a.86.86,0,1,1,.85-.85A.83.83,0,0,1,62.54,36.23Z"/><path d="M49.92,47.89a.83.83,0,0,1-.87.84.85.85,0,0,1-.86-.86.87.87,0,0,1,.87-.85A.86.86,0,0,1,49.92,47.89Z"/><path d="M24.44,46.65a.83.83,0,0,1-.84.87.85.85,0,0,1-.86-.85.85.85,0,1,1,1.7,0Z"/><path d="M46.38,47.18a.84.84,0,0,1-.86.86.86.86,0,1,1,0-1.71A.83.83,0,0,1,46.38,47.18Z"/><path d="M28.64,20.24a.91.91,0,0,1,.84.91.9.9,0,0,1-.89.85.88.88,0,0,1,.05-1.76Z"/><path d="M57,49.26a.88.88,0,0,1-.87.87.87.87,0,0,1-.88-.85.88.88,0,0,1,1.75,0Z"/><path d="M35,25.31a.83.83,0,0,1,.86.85A.85.85,0,0,1,35,27a.88.88,0,0,1-.87-.86A.86.86,0,0,1,35,25.31Z"/><path d="M57.71,45.61a.85.85,0,0,1-.85.87.83.83,0,0,1-.86-.85.86.86,0,1,1,1.71,0Z"/><path d="M34.22,49.62a.92.92,0,0,1-.9-.85.88.88,0,0,1,1.76,0A.92.92,0,0,1,34.22,49.62Z"/><path d="M42.84,46.48a.85.85,0,0,1-.84.88.87.87,0,0,1-.87-.85.84.84,0,0,1,.85-.87A.82.82,0,0,1,42.84,46.48Z"/><path d="M54.18,45a.85.85,0,0,1-.88.83.83.83,0,0,1-.84-.87.84.84,0,0,1,.88-.84A.85.85,0,0,1,54.18,45Z"/><path d="M31.41,24.61a.83.83,0,0,1,.88.83.88.88,0,0,1-.83.9.89.89,0,0,1-.89-.84A.86.86,0,0,1,31.41,24.61Z"/><path d="M59.69,50.85a.88.88,0,0,1,0-1.76.88.88,0,0,1,0,1.76Z"/><path d="M27.85,42.83a.93.93,0,0,1,.88.87.88.88,0,0,1-1.76,0A.92.92,0,0,1,27.85,42.83Z"/><path d="M30.14,36.4a.83.83,0,0,1-.85.86.85.85,0,0,1-.87-.85.86.86,0,0,1,1.72,0Z"/><path d="M40.1,23.21a.88.88,0,0,1-.88.86.87.87,0,0,1-.86-.86.84.84,0,0,1,.87-.85A.87.87,0,0,1,40.1,23.21Z"/><path d="M49.82,24.43a.85.85,0,0,1,.86.85.82.82,0,0,1-.84.87.85.85,0,0,1-.87-.84A.87.87,0,0,1,49.82,24.43Z"/><path d="M59.74,31.9a.88.88,0,0,1-.88-.85.86.86,0,0,1,.84-.88.83.83,0,0,1,.87.85A.85.85,0,0,1,59.74,31.9Z"/><path d="M45.59,27.38a.89.89,0,0,1,.86.88.87.87,0,0,1-.88.84.86.86,0,0,1-.86-.87A.89.89,0,0,1,45.59,27.38Z"/><path d="M52.73,52.22a.84.84,0,0,1-.85.87.87.87,0,0,1-.86-.86.86.86,0,1,1,1.71,0Z"/><path d="M34.33,52.39a.85.85,0,0,1-.85.87.86.86,0,0,1,0-1.72A.83.83,0,0,1,34.33,52.39Z"/><path d="M57.58,41.12a.86.86,0,1,1,0,1.71.86.86,0,1,1,0-1.71Z"/><path d="M40.69,57.42a.86.86,0,1,1-1.71,0,.86.86,0,1,1,1.71,0Z"/><path d="M36.36,36.93a.91.91,0,0,1,.87.88.88.88,0,0,1-.89.85.89.89,0,0,1-.86-.87A.9.9,0,0,1,36.36,36.93Z"/><path d="M51.9,32.41a.88.88,0,1,1-.84.91A.91.91,0,0,1,51.9,32.41Z"/><path d="M47.83,39.91a.88.88,0,0,1-.88.85.87.87,0,0,1-.84-.89A.83.83,0,0,1,47,39,.87.87,0,0,1,47.83,39.91Z"/><path d="M32.77,56.9a.85.85,0,0,1-.86-.85.83.83,0,0,1,.86-.86.86.86,0,1,1,0,1.71Z"/><path d="M26.57,54.67a.88.88,0,0,1-1.75,0,.88.88,0,0,1,.89-.85A.9.9,0,0,1,26.57,54.67Z"/><path d="M44.3,39.17a.91.91,0,0,1-.84.9.88.88,0,0,1-.06-1.75A.91.91,0,0,1,44.3,39.17Z"/><path d="M30.1,55.33a.87.87,0,1,1-1.73,0,.83.83,0,0,1,.84-.87A.86.86,0,0,1,30.1,55.33Z"/><path d="M63.27,30.88a.83.83,0,0,1,.85.86.88.88,0,0,1-.88.85.89.89,0,0,1-.86-.87A.87.87,0,0,1,63.27,30.88Z"/><path d="M45.72,31.92a.86.86,0,0,1-.89.84.89.89,0,0,1-.84-.89.9.9,0,0,1,.9-.85A.89.89,0,0,1,45.72,31.92Z"/><path d="M42.18,31.24a.83.83,0,0,1-.9.81.85.85,0,0,1-.82-.89.86.86,0,1,1,1.72.08Z"/><path d="M29.43,40a.85.85,0,0,1-.85.87.83.83,0,0,1-.87-.84.86.86,0,1,1,1.72,0Z"/><path d="M50.48,41.45a.85.85,0,0,1-.83-.88.82.82,0,0,1,.87-.84.83.83,0,0,1,.83.88A.85.85,0,0,1,50.48,41.45Z"/><path d="M54.88,41.25a.83.83,0,0,1-.82.89.85.85,0,0,1-.89-.83.84.84,0,0,1,.83-.88A.82.82,0,0,1,54.88,41.25Z"/><path d="M43.58,42.84a.88.88,0,0,1-1.75,0A.9.9,0,0,1,42.7,42,.88.88,0,0,1,43.58,42.84Z"/><path d="M43.35,57.26a.87.87,0,0,1,.88.84.84.84,0,0,1-.84.89.87.87,0,1,1,0-1.73Z"/><path d="M25,59.17a.88.88,0,0,1-.85-.88.85.85,0,0,1,.87-.84.82.82,0,0,1,.85.86A.86.86,0,0,1,25,59.17Z"/><path d="M32.82,38a.88.88,0,0,1-.88-.86.9.9,0,0,1,.88-.86.87.87,0,0,1,.86.86A.84.84,0,0,1,32.82,38Z"/><path d="M51.21,37.81a.9.9,0,0,1-.87-.88.88.88,0,0,1,.88-.85.83.83,0,0,1,.85.86A.88.88,0,0,1,51.21,37.81Z"/><path d="M54,59.36a.9.9,0,0,1,.85.9.92.92,0,0,1-.91.83.9.9,0,0,1-.84-.9A.87.87,0,0,1,54,59.36Z"/><path d="M57.45,61.78a.86.86,0,0,1-.79-.93.82.82,0,0,1,.92-.78.85.85,0,0,1,.8.91A.88.88,0,0,1,57.45,61.78Z"/><path d="M40,61.08a.87.87,0,0,1-.87.86.84.84,0,0,1-.86-.86.88.88,0,0,1,.86-.87A.89.89,0,0,1,40,61.08Z"/><path d="M37.81,31.36a.85.85,0,0,1-.88-.84.86.86,0,0,1,1.71,0A.83.83,0,0,1,37.81,31.36Z"/><path d="M34.23,30.66a.85.85,0,1,1,.88-.83A.83.83,0,0,1,34.23,30.66Z"/><path d="M55.45,33.13a.87.87,0,0,1,.89.83.91.91,0,0,1-.85.9.89.89,0,0,1-.88-.85A.84.84,0,0,1,55.45,33.13Z"/><path d="M53.28,64.74a.89.89,0,0,1-.89-.85.87.87,0,0,1,.84-.88.84.84,0,0,1,.89.84A.88.88,0,0,1,53.28,64.74Z"/><path d="M37.94,34.15a.86.86,0,0,1-.86.86.84.84,0,0,1-.87-.86.88.88,0,0,1,.86-.87A.89.89,0,0,1,37.94,34.15Z"/><path d="M30.72,30a.87.87,0,0,1-.86-.86.83.83,0,0,1,.86-.86.86.86,0,0,1,.87.85A.88.88,0,0,1,30.72,30Z"/><path d="M59,33.83a.85.85,0,0,1,.88.84.86.86,0,0,1-1.72,0A.83.83,0,0,1,59,33.83Z"/><path d="M46.28,25.45a.86.86,0,0,1,0-1.71.86.86,0,1,1,0,1.71Z"/><path d="M42.78,23.05a.86.86,0,0,1,.85.87.87.87,0,0,1-.89.84.83.83,0,0,1-.83-.88A.83.83,0,0,1,42.78,23.05Z"/><path d="M45.67,50.83a.85.85,0,0,1-.85.86.86.86,0,0,1,0-1.71A.85.85,0,0,1,45.67,50.83Z"/><path d="M48.34,50.66a.86.86,0,0,1,.86.87.86.86,0,0,1-1.71,0A.85.85,0,0,1,48.34,50.66Z"/></svg>