<svg id="Layer_1" data-name="Layer 1" xmlns="http://www.w3.org/2000/svg" viewBox="0 0 85.04 85.04"><path d="M15.73,31.34l-1.72-3a1.9,1.9,0,0,1,.76-2.87q3.39-2,6.8-3.93a1.92,1.92,0,0,1,3,.82l1,1.66c1-1.64,2.69-.83,4.13-1.12,0-.19,0-.4,0-.6,0-1.36,0-2.73,0-4.09a1.77,1.77,0,0,1,1.81-1.83q4.22,0,8.43,0a1.86,1.86,0,0,1,1.87,2.06c0,2.13,0,4.26,0,6.39v.78c1.05,0,2,0,3,0,.16,0,.36-.25.45-.43a15.44,15.44,0,0,1,21.08-6.9l.59.32c.08-.14.12-.31.22-.38.32-.2.67-.51,1-.49a1.13,1.13,0,0,1,.84.61A19.16,19.16,0,0,1,69.79,21c.16.72-.31,1.22-1.07,1.26s-1.32,0-2,.09-1.21.06-1.53-.62.06-1,.51-1.42a13.31,13.31,0,0,0-18.19,18.1c.07.13.14.26.2.4a1,1,0,0,1-.45,1.36,1,1,0,0,1-1.34-.36,4.91,4.91,0,0,1-.54-1c-.18-.51-.51-.61-1-.61H15.18c.55,1.78,1.07,3.46,1.58,5.14,1.37,4.42,2.71,8.85,4.11,13.26a24,24,0,0,0,1.28,2.71c1.87-2.46,4.15-3.54,7-2.91s4.46,2.55,5.12,5.34H47.18C47.84,59,49.44,57,52.3,56.4s5.12.43,7,2.88c.44-.85.83-1.61,1.21-2.37a5.16,5.16,0,0,0,.23-.66c1-3.17,2-6.33,3-9.62a15.6,15.6,0,0,1-12.37-1.47c-.06.15-.09.33-.2.4-.29.21-.64.54-.94.52a1.31,1.31,0,0,1-.9-.65,20.75,20.75,0,0,1-.79-2.69,1,1,0,0,1,1-1.24,17.47,17.47,0,0,1,2.8,0,1.39,1.39,0,0,1,.86.7c.24.39,0,.76-.56,1.28A11.85,11.85,0,0,0,56.81,45,13.29,13.29,0,0,0,72,35.22a13,13,0,0,0-1-9.42c-.11-.21-.23-.41-.32-.62a1,1,0,1,1,1.81-1A15.15,15.15,0,0,1,74.28,29a15.44,15.44,0,0,1-7.72,16.37,1.44,1.44,0,0,0-.55.78Q64.32,51.59,62.66,57a10,10,0,0,1-2.28,4,.94.94,0,0,0-.22.66,6.55,6.55,0,0,1-12.8,2.75c-.13-.52-.32-.62-.8-.62q-5.85,0-11.7,0c-.46,0-.63.13-.74.6a6.55,6.55,0,0,1-12.84-.81c-.07-.62,0-1.27,0-1.9a1,1,0,0,0-.2-.66A10.39,10.39,0,0,1,18.79,57c-1.85-6.05-3.73-12.09-5.58-18.13-.14-.46-.3-.66-.81-.65-.92,0-1.25-.37-1.25-1.3,0-1.45,0-2.9,0-4.34,0-.85.35-1.2,1.2-1.2C13.44,31.33,14.52,31.34,15.73,31.34Zm-2.52,4.72H44.27l-.5-2.63H13.21Zm12.11-4.72c.06-1.87.27-3.66-1-5.24a23.16,23.16,0,0,1-1.65-2.8l-6.89,4c.75,1.3,1.43,2.52,2.15,3.73a.67.67,0,0,0,.48.31C20.7,31.34,23,31.34,25.32,31.34ZM35.4,25.1H27.51v6.2H35.4Zm-3.63-6.64V23h.87c1.06,0,2.13,0,3.19.06a1.77,1.77,0,0,1,1.64,1.79c0,.25,0,.5,0,.76h2.17V18.46ZM49.22,62.79a4.48,4.48,0,1,0,4.49-4.48A4.48,4.48,0,0,0,49.22,62.79ZM27.76,58.31a4.48,4.48,0,1,0,4.49,4.48A4.47,4.47,0,0,0,27.76,58.31ZM44.22,27.78h-6.7V31.3h6.15Z"/><path d="M68,26a8.49,8.49,0,0,0-.44,1.11,1.67,1.67,0,0,0,0,.83,2.16,2.16,0,0,0,1.6,1.76c.29.07.59.62.63,1a17.75,17.75,0,0,1,0,2.42,1.25,1.25,0,0,1-1,1.2A2,2,0,0,0,67.67,37a1.25,1.25,0,0,1-.31,1.65c-.5.47-1,1-1.44,1.45a1.15,1.15,0,0,1-1.55.27,1.74,1.74,0,0,0-1.71,0,1.69,1.69,0,0,0-1.16,1.19,1.12,1.12,0,0,1-1.28.9c-.68,0-1.36,0-2,0-.92,0-1.16-.09-1.4-1-.29-1.08-1.29-1-2-1.42-.16-.08-.54.19-.8.32a1.24,1.24,0,0,1-1.61-.28c-.47-.5-1-1-1.45-1.45A1.17,1.17,0,0,1,50.64,37c.63-.93-.11-1.65-.4-2.41-.09-.22-.58-.31-.9-.42A1.15,1.15,0,0,1,48.51,33c0-.7,0-1.41,0-2.11a1.2,1.2,0,0,1,1-1.37c1.11-.22,1.09-1.24,1.42-2,.1-.22-.18-.63-.32-.93a1.11,1.11,0,0,1,.27-1.44c.54-.52,1.07-1,1.58-1.58a1.07,1.07,0,0,1,1.49-.24c1,.67,1.68-.1,2.47-.35.14,0,.21-.34.28-.53.44-1.12.56-1.21,1.79-1.21h1.66c.88,0,1.17.13,1.4,1,.28,1.09,1.27,1.06,2,1.4.19.09.58-.19.86-.33a1.19,1.19,0,0,1,1.5.28c.52.54,1.07,1,1.57,1.59A4.86,4.86,0,0,1,68,26ZM65.57,37.49a1.4,1.4,0,0,0-.13-.34,1.67,1.67,0,0,1,0-2A4.37,4.37,0,0,0,66,33.9a1.49,1.49,0,0,1,1.15-1.23c.44-.1.53-.36.53-.78s-.11-.71-.57-.82a1.39,1.39,0,0,1-1.07-1.13,5.55,5.55,0,0,0-.6-1.47,1.48,1.48,0,0,1-.07-1.72c.26-.4.12-.63-.18-.92s-.53-.45-.92-.2a1.51,1.51,0,0,1-1.73-.06A4.82,4.82,0,0,0,61.2,25a1.51,1.51,0,0,1-1.27-1.18c-.1-.43-.37-.52-.79-.53s-.68.11-.78.54A1.47,1.47,0,0,1,57.14,25a4.59,4.59,0,0,0-1.41.59,1.5,1.5,0,0,1-1.73,0c-.4-.25-.64-.06-.92.22s-.44.48-.2.86a1.5,1.5,0,0,1-.05,1.78,5,5,0,0,0-.54,1.35,1.54,1.54,0,0,1-1.2,1.26c-.47.1-.48.42-.48.81s0,.65.47.75a1.52,1.52,0,0,1,1.2,1.25,5.44,5.44,0,0,0,.58,1.41A1.48,1.48,0,0,1,52.92,37a.64.64,0,0,0,.14.93c.32.3.58.45,1,.19a1.48,1.48,0,0,1,1.67.07,5.82,5.82,0,0,0,1.41.58,1.47,1.47,0,0,1,1.22,1.14c.1.42.33.56.77.55s.72-.1.83-.56a1.36,1.36,0,0,1,1-1.06c.64-.21,1.24-.55,1.88-.76A1.92,1.92,0,0,1,63.9,38C64.89,38.27,64.88,38.31,65.57,37.49Z"/><path d="M53.69,59.48a3.3,3.3,0,1,1-3.29,3.29A3.33,3.33,0,0,1,53.69,59.48Zm1.18,3.3a1.13,1.13,0,0,0-1.19-1.19,1.19,1.19,0,0,0,0,2.37A1.14,1.14,0,0,0,54.87,62.78Z"/><path d="M27.77,59.48a3.3,3.3,0,1,1-3.29,3.3A3.34,3.34,0,0,1,27.77,59.48Zm0,4.48a1.19,1.19,0,1,0-1.22-1.17A1.15,1.15,0,0,0,27.81,64Z"/><path d="M59.15,26.33a5.53,5.53,0,0,1,5.55,5.55,5.56,5.56,0,1,1-5.55-5.55Zm-.06,9a3.47,3.47,0,0,0,3.55-3.42,3.5,3.5,0,1,0-7-.05A3.47,3.47,0,0,0,59.09,35.34Z"/></svg>