<svg id="Layer_1" data-name="Layer 1" xmlns="http://www.w3.org/2000/svg" viewBox="0 0 85.04 85.04"><path d="M51.69,17.37a4.34,4.34,0,0,0,0-.51,1.12,1.12,0,0,0-.56-.84,1.08,1.08,0,0,0-1,0,4,4,0,0,0-.48.32l-4.23,3.17L33,28.85a7.43,7.43,0,0,1-4.64,1.57h-.05c-2.22,0-4.48,0-6.66,0h-1a4.91,4.91,0,0,0-5,5q0,7.68,0,15.36a4.94,4.94,0,0,0,5.07,5h.59c2.34,0,4.69,0,7,0h0a7.24,7.24,0,0,1,4.51,1.49c1.61,1.23,3.24,2.45,4.86,3.66l4,3,8,6a1.63,1.63,0,0,0,.94.38h.13a.78.78,0,0,0,.55-.34,2,2,0,0,0,.33-1.12c0-7.2,0-14.51,0-21.59V17.37ZM32.33,42.21V39.76c0-2.34,0-4.77,0-7.16a1.18,1.18,0,0,1,.61-1.14c2.94-2.06,5.83-4.2,8-5.82,1.91-1.42,3.83-2.87,5.69-4.28l2.66-2,.18-.12V67l-.25-.17-.77-.56-4.55-3.41q-4.48-3.37-9-6.73a26,26,0,0,0-2.2-1.5.71.71,0,0,1-.4-.7q0-4.62,0-9.22ZM30.11,32.6v21h-9c-2.16,0-3.25-1.1-3.25-3.27V35.8A2.86,2.86,0,0,1,21,32.6h9.1Z"/><path d="M55.06,28.67a1,1,0,0,0,.37.07,1.4,1.4,0,0,0,.94-.47l3-2.69,1-.87.15.25c.23.4.52.91.82,1.4a1.25,1.25,0,0,0,.9.68,1.23,1.23,0,0,0,1-.43c1.39-1.42,2.86-2.93,4.75-4.91a1.21,1.21,0,0,0,.37-.87,1,1,0,0,0-.35-.75,1.1,1.1,0,0,0-1.58.06l-.5.51c-.16.18-.33.36-.51.53l-2.16,2-.78.72-.2-.35c-.25-.44-.54-.95-.84-1.44a1.21,1.21,0,0,0-.86-.64,1.23,1.23,0,0,0-1,.41c-.3.29-.6.6-.89.9l-1.3,1.35c-.84.87-1.69,1.74-2.52,2.61a1.34,1.34,0,0,0-.4,1.2A1.05,1.05,0,0,0,55.06,28.67Z"/><path d="M63.27,59.77a1.42,1.42,0,0,0-1.13-.56,1.47,1.47,0,0,0-1,.83l-.82,1.43,0,.09-1-.89c-.94-.86-1.93-1.75-2.88-2.64-.64-.6-1.27-.66-1.75-.18a1.13,1.13,0,0,0,.15,1.71q2.26,2.36,4.54,4.69a1.35,1.35,0,0,0,1.11.53,1.42,1.42,0,0,0,1-.79l.74-1.28.36-.62,0,.06a2.65,2.65,0,0,0,.26.35q1.65,1.72,3.32,3.44a1.52,1.52,0,0,0,1,.54,1,1,0,0,0,.7-.3,1,1,0,0,0,.34-.72,1.5,1.5,0,0,0-.48-1Z"/><path d="M70,42.74a1.25,1.25,0,0,0-.85-.7c-2.11-.63-4.31-1.26-6.53-1.88a1.2,1.2,0,0,0-1.08.13,1.26,1.26,0,0,0-.44,1v2.27l-1.19-.34-4-1.11a1.43,1.43,0,0,0-1.11.06,1.07,1.07,0,0,0-.49.67c-.16.62.22,1.15,1,1.37l6.37,1.82a1.9,1.9,0,0,0,.54.09,1,1,0,0,0,.62-.19,1.34,1.34,0,0,0,.43-1.13V42.67l.19,0,.77.21,4.27,1.22a1.11,1.11,0,0,0,1.39-.49A1,1,0,0,0,70,42.74Z"/></svg>