<svg id="Layer_1" data-name="Layer 1" xmlns="http://www.w3.org/2000/svg" viewBox="0 0 85.04 85.04"><path d="M56.16,28.72h4.47A3.21,3.21,0,0,1,64,32c0,1.43,0,2.86,0,4.3a3.26,3.26,0,0,1-3.5,3.49l-.48,0v.81c0,4.89,0,9.78,0,14.67A18.27,18.27,0,0,1,24.1,59.53a19.63,19.63,0,0,1-.63-4.7c-.08-4.73,0-9.47,0-14.2v-.77A11,11,0,0,1,22,39.73a3.31,3.31,0,0,1-2.53-3.09q-.07-2.46,0-4.92a3.16,3.16,0,0,1,3.13-3c1.52,0,3,0,4.64,0v-.78c0-4,0-8,0-12a4,4,0,0,1,2.6-3.73,4.08,4.08,0,0,1,4.45,1,4.13,4.13,0,0,1,1.13,2.91V28.68H47.92v-.79c0-3.84,0-7.69,0-11.53a4.17,4.17,0,0,1,3-4.28,4.12,4.12,0,0,1,5.23,4.15c0,3.87,0,7.74,0,11.6ZM25.65,39.8v.59c0,4.75,0,9.5,0,14.26a18,18,0,0,0,.22,2.64,16.07,16.07,0,0,0,32-2.63c0-4.71,0-9.42,0-14.12V39.8ZM41.8,30.9H23.1c-1.06,0-1.44.37-1.44,1.42v3.55c0,1.43.28,1.71,1.71,1.71H60.55a1.13,1.13,0,0,0,1.24-1.29c0-1.27,0-2.54,0-3.82s-.33-1.57-1.57-1.57Zm-8.58-2.2c0-4.31,0-8.56,0-12.8A1.69,1.69,0,0,0,32,14.26a1.9,1.9,0,0,0-2.53,2V28.16a5.16,5.16,0,0,0,0,.54Zm20.67,0c0-4.33,0-8.6,0-12.87A1.64,1.64,0,0,0,52.8,14.3a1.85,1.85,0,0,0-2.63,1.78c0,4.06,0,8.13,0,12.19,0,.13,0,.26,0,.42Z"/><path d="M44.45,52.35H46.7a1.7,1.7,0,0,1,1.7,1,1.72,1.72,0,0,1-.25,1.91L40,65.57a1.67,1.67,0,0,1-2.17.57A1.74,1.74,0,0,1,37,64.06l1.38-6.18a4,4,0,0,0,.08-.53h-1.6A1.79,1.79,0,0,1,35,54.94q1.13-4.48,2.26-9a1.9,1.9,0,0,1,2.19-1.68h5.94a1.8,1.8,0,0,1,1.73,2.78C46.26,48.8,45.38,50.51,44.45,52.35Zm1.45,2.22c-1.11,0-2,0-3,0-1.25,0-1.7-.77-1.14-1.89.91-1.81,1.83-3.6,2.74-5.41.11-.21.19-.43.31-.7H39.41l-2.17,8.53c.9,0,1.69,0,2.48,0a1.14,1.14,0,0,1,1.21,1.53c-.41,1.88-.83,3.75-1.24,5.62l.11,0Z"/></svg>