<svg id="Layer_1" data-name="Layer 1" xmlns="http://www.w3.org/2000/svg" viewBox="0 0 85.04 85.04"><path d="M63,63.23c5.74-7.11,7.56-15.1,5.43-23.76A26.24,26.24,0,0,0,55.7,22.76a26.93,26.93,0,0,0-13.21-3.47,26.44,26.44,0,0,0-7.82,1.18A26.81,26.81,0,0,0,15.85,44.4a26.42,26.42,0,0,0,6.23,18.86,1.72,1.72,0,0,0,1,.72,1.65,1.65,0,0,0,1.13-.54c1.67-1.4,3.34-2.82,5-4.23.93-.79,1-1.22.16-2.2a16.68,16.68,0,0,1-3.67-14.14A17.13,17.13,0,0,1,53.19,32.61c.9.71,1.4.31,1.69,0,.56-.68.13-1.27-.33-1.65l.14-.37-.23.3a19.27,19.27,0,0,0-9.93-4c-.28,0-.85-.31-.86-.71,0-1.09,0-2.18,0-3.27V21.58l.38,0A24.58,24.58,0,0,1,65.29,36.83c3.82,9.33.93,19.05-3.37,24.14l-.24.28L57.77,58l.59-.85A19.23,19.23,0,0,0,61.1,40.74a1.36,1.36,0,0,0-.57-.9,1,1,0,0,0-.79,0c-.51.15-.94.44-.73,1.55l.13.62a21.55,21.55,0,0,1,.5,3.59,16.83,16.83,0,0,1-4.08,11.61,1.15,1.15,0,0,0,.16,1.92l5.15,4.34A1.64,1.64,0,0,0,62,64,1.62,1.62,0,0,0,63,63.23ZM27.11,57.67l.21.28-4,3.39L23.08,61a24.59,24.59,0,0,1-5-13.45l0-.4h5.22l0,.34A19.74,19.74,0,0,0,27.11,57.67Zm.72-24.14a19.42,19.42,0,0,0-4.55,11l0,.35H18l0-.41a24.47,24.47,0,0,1,6-14.56l.26-.3,3.74,3.65Zm13.57-7.4c0,.36-.45.67-.73.7A19.3,19.3,0,0,0,30,31.33l-.26.22-3.69-3.69.3-.26A24.61,24.61,0,0,1,41,21.55l.4,0v1.33C41.42,24,41.43,25,41.4,26.13Z"/><path d="M39.62,46.42a4.37,4.37,0,0,0-1.51,5,4.42,4.42,0,0,0,4.25,3h0a4.18,4.18,0,0,0,3.45-1.6c2.94-3.69,5.84-7.4,8.29-10.53,1.67-2.15,3.33-4.32,5-6.48l.28-.37a1.34,1.34,0,0,0,.26-1.3,1,1,0,0,0-.8-.58,1.73,1.73,0,0,0-1.06.34c-4.28,2.84-7.55,5-10.6,7.13C44.4,43,41.94,44.72,39.62,46.42ZM51.16,41l.26-.17.38-.23.48.55-1.11,1.44c-.69.89-1.37,1.78-2.07,2.66q-2.43,3.09-4.89,6.16a2.25,2.25,0,0,1-1.78.93,2.15,2.15,0,0,1-.55-.08,2.38,2.38,0,0,1-1.78-1.72,2.08,2.08,0,0,1,.8-2.35c1.11-.85,2.28-1.7,3.47-2.53,1.62-1.13,3.25-2.24,4.87-3.35Z"/><path d="M46.35,64.25H31.83l-1.63,0a.92.92,0,0,0-.94.89,1.08,1.08,0,0,0,.21.88,1.28,1.28,0,0,0,1,.38H54.59a2.55,2.55,0,0,0,.28,0,1,1,0,0,0,.93-.89,1.13,1.13,0,0,0-.18-.89,1.35,1.35,0,0,0-1.07-.38Z"/><path d="M36.48,59.78a1.14,1.14,0,0,0,.26.83,1.05,1.05,0,0,0,.77.28c1.18,0,2.38,0,3.56,0h3c1.19,0,2.39,0,3.59,0a.93.93,0,0,0,1-1.06,1,1,0,0,0-1-1.08H37.43A1,1,0,0,0,36.48,59.78Z"/></svg>