<svg id="Layer_1" data-name="Layer 1" xmlns="http://www.w3.org/2000/svg" viewBox="0 0 85.04 85.04"><path d="M69.65,27.59q0-3.27,0-6.54a2.2,2.2,0,0,0-2.31-2.35,55.54,55.54,0,0,1-12.86-2A25.71,25.71,0,0,1,44.1,11.57a2.12,2.12,0,0,0-3,.09,19.65,19.65,0,0,1-4.48,2.87c-5.14,2.43-11,3.75-18.36,4.15-1.81.1-2.58.89-2.58,2.65V33.4a2.83,2.83,0,0,0,0,.5,1,1,0,0,0,1,.87,1,1,0,0,0,.74-.26,1.38,1.38,0,0,0,.34-1V20.91h0l.21,0c.19,0,.37,0,.54-.05a57.62,57.62,0,0,0,11.36-1.63,32.68,32.68,0,0,0,11-4.71c.41-.29.81-.61,1.2-.92l.48-.38.45.36c.39.31.76.6,1.15.88A20.06,20.06,0,0,0,46,15.56c6.28,3.52,13.19,4.58,18.51,5.1.7.07,1.39.11,2.12.16l.85.06v.52c0,1.82,0,3.64,0,5.46,0,5.06,0,10.29,0,15.43a25,25,0,0,1-.4,4.53A28.19,28.19,0,0,1,53.52,66.59c-2,1.17-4,2.31-5.92,3.4-1.19.67-2.42,1.36-3.62,2.05a2.4,2.4,0,0,1-2.66,0c-1.28-.74-2.58-1.47-3.85-2.18-1.61-.91-3.27-1.84-4.89-2.79C23,61.43,18,52.93,17.79,41.8c0-.66,0-1.33,0-2s0-1.16,0-1.74a1,1,0,0,0-1-1.09,1,1,0,0,0-.76.29,1,1,0,0,0-.31.76v1.76A40,40,0,0,0,16,46.88,30.61,30.61,0,0,0,27.5,66.26a44.12,44.12,0,0,0,6.29,3.95l1.61.9c1.48.83,3,1.64,4.48,2.42l2,1,1.57,0h0l.51-.22a9.53,9.53,0,0,0,1.13-.51c1.86-1,3.71-2.09,5.57-3.15l3.23-1.83a30.68,30.68,0,0,0,9-7.65,29,29,0,0,0,6.64-17.48C69.71,38.36,69.68,32.88,69.65,27.59Z"/><path d="M20.79,45.9a24.72,24.72,0,0,0,11,17.5c2.27,1.53,4.71,2.88,7.07,4.19.93.52,1.91,1.06,2.85,1.6a1.92,1.92,0,0,0,1,.26,2.58,2.58,0,0,0,1.28-.39l2.75-1.55c1.6-.9,3.26-1.83,4.86-2.78,8.72-5.18,13.21-13,13.35-23.12,0-3.68,0-7.43,0-11,0-1.57,0-3.14,0-4.71a5.52,5.52,0,0,0-.06-.88,1.93,1.93,0,0,0-1.6-1.71c-.56-.11-1.14-.19-1.7-.27L61,22.91a45.24,45.24,0,0,1-17.17-5.63,2.09,2.09,0,0,0-2.28,0c-5,3-10.94,4.84-18.64,5.83-1.79.23-2.43.93-2.43,2.69V36c0,.85,0,1.73,0,2.6,0,.67,0,1.35,0,2A41.12,41.12,0,0,0,20.79,45.9ZM62.72,25.67c0,1.91,0,3.85,0,5.74,0,4,.1,8.13-.14,12.18-.48,8-4.29,14.37-11.35,18.79-2,1.23-4,2.38-6.05,3.49L43,67.12a.67.67,0,0,1-.53,0c-.92-.53-1.87-1-2.78-1.55-2.28-1.26-4.63-2.56-6.8-4a22.44,22.44,0,0,1-10-16.11A41.59,41.59,0,0,1,22.63,40c0-.75,0-1.53,0-2.3s0-1.41,0-2.11c0-.32,0-.65,0-1V32.42c0-2.18,0-4.43,0-6.64,0-.41.12-.5.51-.54,7.77-1,13.88-2.84,19.24-5.94a.63.63,0,0,1,.32-.07.57.57,0,0,1,.31.07,47.41,47.41,0,0,0,16.48,5.56c.77.13,1.56.22,2.32.32l.56.07C62.61,25.29,62.72,25.36,62.72,25.67Z"/><path d="M53.4,35.44a4.58,4.58,0,0,0-.55-.07l-.2,0a10.68,10.68,0,0,0-2.26-8.16,9.8,9.8,0,0,0-7.71-3.65h-.09A9.66,9.66,0,0,0,36.05,26c-2.63,2.31-3.74,5.36-3.39,9.33a3.53,3.53,0,0,0-3.55,3.86c.06,3.1.05,6.25,0,9.3,0,1.51,0,3,0,4.55a3.29,3.29,0,0,0,3.58,3.58H46.39a1.2,1.2,0,0,0,.93-.47,1,1,0,0,0,.13-.91,1.13,1.13,0,0,0-1.24-.74H32.85c-1.18,0-1.58-.4-1.58-1.59V39.21c0-1.36.34-1.69,1.72-1.7h19.6c1,0,1.45.43,1.45,1.47V53.08c0,1-.43,1.43-1.42,1.45H50.83a1,1,0,0,0-1.12,1.06,1.06,1.06,0,0,0,1.14,1h1.73a3.3,3.3,0,0,0,3.59-3.58V44.2c0-1.75,0-3.57,0-5.35A3.26,3.26,0,0,0,53.4,35.44ZM38.09,27.15a7.48,7.48,0,0,1,8.58-.35c2.94,1.73,4.2,4.53,3.86,8.55h-1.3l0-.8c0-.65-.05-1.32-.13-2a6.42,6.42,0,0,0-6.4-5.49h0a6.42,6.42,0,0,0-6.41,5.45c-.08.66-.11,1.31-.13,2,0,.27,0,.55,0,.83H34.78C34.44,31.63,35.52,28.94,38.09,27.15Zm1.87,3a4.36,4.36,0,0,1,7,3.19c0,.47,0,.94,0,1.44,0,.19,0,.39,0,.59H38.32C38.17,33.29,38.21,31.47,40,30.14Z"/><path d="M45.76,40.7a4.26,4.26,0,0,0-5.91-.29,4.19,4.19,0,0,0-.56,5.88,2.42,2.42,0,0,1,.66,2,1.6,1.6,0,0,0,0,.31v.55c0,.31,0,.63,0,.94a2.72,2.72,0,0,0,2.7,2.79h0a2.74,2.74,0,0,0,2.7-2.8c0-.73,0-1.55,0-2.36a1.4,1.4,0,0,1,.44-1.15A4.23,4.23,0,0,0,45.76,40.7ZM43.2,49.23V50a.82.82,0,0,1-.17.57.51.51,0,0,1-.37.12h0c-.37,0-.52-.2-.52-.68V48c0-.21,0-.43,0-.64a2.21,2.21,0,0,0-.92-2.18,1.76,1.76,0,0,1-.7-1.32,2.22,2.22,0,0,1,.61-1.74,2.16,2.16,0,0,1,1.55-.64h0a2.15,2.15,0,0,1,1.56.67,2.28,2.28,0,0,1,.57,1.72,1.85,1.85,0,0,1-.73,1.35,2.08,2.08,0,0,0-.89,2C43.22,47.91,43.21,48.58,43.2,49.23Z"/></svg>