<svg id="Layer_1" data-name="Layer 1" xmlns="http://www.w3.org/2000/svg" viewBox="0 0 85.04 85.04"><path d="M19.07,63.64c-.08-1.69,0-3.24,1.38-4.39s2.91-.85,4.51-.89c-.56-1.83-1.1-3.59-1.63-5.35-1-3.41-2.11-6.83-3.13-10.25a.73.73,0,0,0-.86-.64c-1.5,0-3,0-4.51,0a4.64,4.64,0,0,1-4.54-4.53q-.06-9,0-17.91a4.73,4.73,0,0,1,4.92-4.61H35.27c3.82,0,7.64,0,11.46,0a3.46,3.46,0,0,1,1.5.4c3.34,1.83,6.65,3.71,10,5.55a2.75,2.75,0,0,0,1.17.31c.88.06,1.76,0,2.63.08a4.18,4.18,0,0,1,3.79,3.79c.06.78,0,1.57,0,2.43h8a1,1,0,0,1,1.11,1,1,1,0,0,1-1.12,1c-.23,0-.46,0-.69,0H65.87c0,.62,0,1.21,0,1.8a4.26,4.26,0,0,1-3.48,4.38,26.81,26.81,0,0,1-3,.1,2.74,2.74,0,0,0-1.17.3c-3.36,1.85-6.69,3.74-10,5.59a3,3,0,0,1-1.31.34c-2.31,0-4.62,0-7,0,0,.94-.07,1.83,0,2.72a4.22,4.22,0,0,1-4.35,4.72,1.25,1.25,0,0,0-.26,0,4.17,4.17,0,0,0,.09.51c.77,2.56,1.56,5.12,2.32,7.68a.69.69,0,0,0,.83.58,8.86,8.86,0,0,1,1.86.1,3.73,3.73,0,0,1,3.1,3.72c0,.46,0,.92,0,1.44h2.62a2.37,2.37,0,0,1,2.51,2.53c0,1,0,2,0,3a2.36,2.36,0,0,1-2.35,2.49H16.51a4.5,4.5,0,0,1-.89-.1,2.25,2.25,0,0,1-1.74-2.15c0-1.13,0-2.27,0-3.4a2.29,2.29,0,0,1,2.31-2.35c.46,0,.92,0,1.39,0ZM46.22,17.12l-.56,0H15.2A2.67,2.67,0,0,0,12.3,20q0,8.61,0,17.21a2.74,2.74,0,0,0,3,3h5.14c.9,0,1.1.15,1.37,1q2.68,8.73,5.36,17.45c.37,1.22,0,1.72-1.32,1.73-1,0-2.08,0-3.12,0A1.69,1.69,0,0,0,21.1,62c0,.54,0,1.09,0,1.66H41.45a14.35,14.35,0,0,0,0-1.47,1.75,1.75,0,0,0-1.86-1.74c-.65,0-1.29,0-1.94,0-1.12,0-1.32-.15-1.64-1.19q-2.66-8.66-5.3-17.32c-.37-1.21,0-1.71,1.25-1.71H46.22Zm2.11.68V39.28c.07,0,.1,0,.11,0,2.93-1.63,5.86-3.25,8.77-4.89a.65.65,0,0,0,.26-.49q0-5.31,0-10.63a.75.75,0,0,0-.29-.54C54.27,21.12,51.34,19.49,48.33,17.8ZM31.19,69.64c4.83,0,9.67,0,14.5,0,.72,0,.93-.22.88-.91s0-1.38,0-2.08c0-1,0-1-1-1H16.86c-.13,0-.27,0-.41,0-.45,0-.62.18-.61.62,0,.81,0,1.62,0,2.43s0,.92.92.92ZM59.54,33.9c.77,0,1.46.05,2.15,0a2.28,2.28,0,0,0,2.16-2.21c0-2,0-4.07,0-6.11A2.22,2.22,0,0,0,62,23.4a21.81,21.81,0,0,0-2.43,0ZM32.89,42.19c.53,1.73,1,3.36,1.53,5a.6.6,0,0,0,.27.35c1.11.41,2.78-.25,3-1.35a30.6,30.6,0,0,0,.25-4Z"/><path d="M29.12,28c0-1.9,0-3.8,0-5.69A2.62,2.62,0,0,1,32,19.44q4.55,0,9.09,0A2.67,2.67,0,0,1,44,22.34q0,5.73,0,11.45A2.68,2.68,0,0,1,41,36.71H32a2.61,2.61,0,0,1-2.9-2.86C29.1,31.91,29.12,30,29.12,28ZM42,28.11c0-1.9,0-3.8,0-5.69,0-.88-.13-1-1-1H32.14c-.88,0-1.05.17-1.05,1.05q0,5.63,0,11.24c0,.85.2,1,1.06,1.06h8.74c.93,0,1.07-.15,1.08-1.1Z"/><path d="M20.82,25.06h3.74c.83,0,1.29.38,1.29,1s-.46,1-1.29,1H16.94c-.84,0-1.29-.37-1.29-1s.46-1,1.29-1Z"/><path d="M20.76,22h-4c-.74,0-1.16-.37-1.16-1s.38-1,1.09-1q4,0,8,0c.74,0,1.14.4,1.12,1s-.44.95-1.2.95Z"/><path d="M20.75,37.25H16.86c-.79,0-1.22-.37-1.21-1s.41-1,1.18-1c2.61,0,5.23,0,7.84,0,.77,0,1.17.36,1.18,1s-.43,1-1.22,1Z"/><path d="M20.75,30.17H24.7c.75,0,1.16.37,1.15,1s-.4,1-1.11,1h-8c-.74,0-1.13-.4-1.11-1s.43-.93,1.14-.93Z"/></svg>