<svg id="Layer_1" data-name="Layer 1" xmlns="http://www.w3.org/2000/svg" viewBox="0 0 85.04 85.04"><path d="M65.67,59.25c-1-1.85-2-3.65-3-5.45q-3-5.53-6-11.06a.83.83,0,0,0-.87-.5c-1.28,0-2.56,0-3.83,0-.68,0-1-.31-1-.87s.37-.83,1-.83c1.6,0,3.2,0,4.8,0a1,1,0,0,1,1,.62l10,18.38c.46.84.1,1.45-.85,1.45H16.22c-.92,0-1.3-.61-.86-1.41L25.42,41.11a1,1,0,0,1,1-.57h15c.64,0,1,.29,1,.82s-.35.88-1,.88H27.25a.65.65,0,0,0-.68.36q-4.44,8.17-8.89,16.33a3.15,3.15,0,0,0-.16.32Z"/><path d="M56.06,35.37a.91.91,0,0,1-.69.93c-1.4.56-2.79,1.14-4.19,1.67a3.17,3.17,0,0,0-1.93,1.91c-.54,1.41-1.12,2.79-1.67,4.19-.16.41-.38.72-.87.73s-.74-.31-.91-.74c-.54-1.38-1.12-2.75-1.65-4.14a3.14,3.14,0,0,0-2-2c-1.39-.53-2.75-1.11-4.13-1.65-.41-.17-.73-.38-.74-.87s.32-.74.75-.9c1.38-.55,2.75-1.12,4.14-1.65a3.18,3.18,0,0,0,1.95-2c.52-1.39,1.11-2.75,1.65-4.14.16-.4.38-.72.87-.73s.73.32.9.75c.55,1.4,1.13,2.79,1.67,4.19a3.11,3.11,0,0,0,1.89,1.88c1.42.55,2.83,1.13,4.24,1.69C55.78,34.73,56.05,35,56.06,35.37Zm-15.54.07c.9.36,1.64.67,2.4,1a4.71,4.71,0,0,1,2.82,2.85c.29.75.6,1.49.95,2.37.29-.71.56-1.28.75-1.88A5.2,5.2,0,0,1,51,36.18c.59-.19,1.15-.46,1.83-.74l-.73-.32c-.67-.27-1.34-.53-2-.82a4.51,4.51,0,0,1-2.45-2.65c-.29-.76-.61-1.52-1-2.39-.39,1-.71,1.78-1,2.59a4.46,4.46,0,0,1-2.51,2.53Z"/><path d="M32.23,23.51a.87.87,0,0,1,.83.63c.32.82.66,1.64,1,2.47a1.67,1.67,0,0,0,1.05,1c.81.31,1.61.65,2.41,1a.89.89,0,0,1,0,1.72c-.81.31-1.61.65-2.42,1A1.75,1.75,0,0,0,34,32.37c-.3.81-.64,1.61-1,2.42a.85.85,0,0,1-.87.64.84.84,0,0,1-.82-.63c-.32-.8-.66-1.6-1-2.42a1.75,1.75,0,0,0-1.12-1.11c-.8-.29-1.58-.63-2.37-.94a.89.89,0,0,1-.67-.85.87.87,0,0,1,.66-.86c.81-.32,1.6-.66,2.42-1a1.75,1.75,0,0,0,1.08-1.09c.3-.81.63-1.61,1-2.41C31.57,23.67,31.81,23.5,32.23,23.51Zm0,3.29a3.9,3.9,0,0,1-2.66,2.68,3.83,3.83,0,0,1,2.67,2.66,3.84,3.84,0,0,1,2.67-2.67A3.87,3.87,0,0,1,32.21,26.8Z"/><path d="M30.63,45.61a3.91,3.91,0,0,1-.42.71c-1.1,1.11-2.2,2.22-3.31,3.31a.86.86,0,1,1-1.22-1.21c1.11-1.13,2.23-2.24,3.35-3.35a.74.74,0,0,1,1-.18A3.49,3.49,0,0,1,30.63,45.61Z"/><path d="M29.77,52.39a3.1,3.1,0,0,1-.39.72c-.81.84-1.64,1.66-2.48,2.48a.85.85,0,0,1-1.27,0,.84.84,0,0,1,0-1.23c.82-.84,1.65-1.66,2.48-2.48a.78.78,0,0,1,1-.2A3.39,3.39,0,0,1,29.77,52.39Z"/><path d="M34,48.16a4.53,4.53,0,0,1-.38.67c-.54.57-1.09,1.12-1.65,1.66a.85.85,0,0,1-1.27,0,.83.83,0,0,1,.05-1.22,19.12,19.12,0,0,1,1.7-1.67,1.06,1.06,0,0,1,.9-.15C33.65,47.55,33.81,47.9,34,48.16Z"/></svg>