<svg id="Layer_1" data-name="Layer 1" xmlns="http://www.w3.org/2000/svg" viewBox="0 0 85.04 85.04"><path d="M76.38,41.48V39.16q0-7,0-13.95a9.27,9.27,0,0,0-.48-2.93A8.56,8.56,0,0,0,68,16.46c-1.61,0-3.25,0-4.84,0H41.72a1.63,1.63,0,0,0-1.8,1.75c0,.65,0,1.31,0,2,0,.09,0,.11,0,.11a.19.19,0,0,1-.1,0,9.91,9.91,0,0,0-1.09,0h-.09a.36.36,0,0,1,0-.1c0-.31,0-.63,0-.95,0-.54-.29-.8-.86-.82-.4,0-.81,0-1.21,0-.12,0-.13,0-.13,0s0,0,0-.13a.72.72,0,0,0-.79-.78H31.27a.81.81,0,0,0-.59.21.73.73,0,0,0-.19.54c0,.19,0,.22-.24.26a5.88,5.88,0,0,0-3.74,2.19,1.74,1.74,0,0,1-1.79.74c-.17,0-.23-.05-.3-.15A1.65,1.65,0,0,0,23,20.49H21.66a1.53,1.53,0,0,0-1.35.76.31.31,0,0,1-.33.17H13a1.16,1.16,0,0,1-.47-.14,5.87,5.87,0,0,0-2.89-.88.86.86,0,0,0-.68.21.89.89,0,0,0-.23.67q0,2.31,0,4.62a.9.9,0,0,0,.23.69.87.87,0,0,0,.69.2,5.87,5.87,0,0,0,2.87-.86.87.87,0,0,1,.43-.14H20a.26.26,0,0,1,.28.15,1.59,1.59,0,0,0,1.39.78h1.36a1.33,1.33,0,0,0,1.21-.6.73.73,0,0,1,.8-.33,2.78,2.78,0,0,0,.5,0,.51.51,0,0,1,.53.26,6.58,6.58,0,0,0,4.25,2.68c.12,0,.14,0,.15.2a.71.71,0,0,0,.78.79h4.36a.83.83,0,0,0,.57-.21.67.67,0,0,0,.18-.47c0-.17,0-.21,0-.22s.13,0,.28,0a1.06,1.06,0,0,0,.31,0c.13,0,.16,0,.17,0s0,0,0,.17a.38.38,0,0,0,0,.15v9.23a2.79,2.79,0,0,0,.08.8,2.52,2.52,0,0,0,4.95-.68V31a.49.49,0,0,1,0-.2.22.22,0,0,1,.13,0h5.84a1.43,1.43,0,0,0,.27,0,1,1,0,0,1,0,.29V44.49c0,.84,0,1.67,0,2.51,0,1.78,0,3.55,0,5.33a2.54,2.54,0,0,0,1,2.06,3.35,3.35,0,0,0,2.13.55h10.7v2a10.28,10.28,0,0,0,.77,3.88,14.94,14.94,0,0,0,5.6,6.53.88.88,0,0,0,.5.18h.12a.75.75,0,0,0,.45-.33c.13-.2.28-.61-.28-1l-.44-.33c-.46-.35-.94-.71-1.37-1.11s-.88-.88-1.33-1.36L66,62.89a1.14,1.14,0,0,1,.45-.29h0c.09,0,.24.19.42.41l.07.08.68.64c.62.59,1.24,1.18,1.87,1.76a.81.81,0,0,0,.6.22.72.72,0,0,0,.5-.31.74.74,0,0,0-.21-1l-.11-.09-.1-.08a12.7,12.7,0,0,1-2.59-2.64.47.47,0,0,1,0-.33,1,1,0,0,0-.09-.87,6.8,6.8,0,0,1-.75-2.46,13.8,13.8,0,0,1,0-3.52.67.67,0,0,1,.27-.52l3.13-2.56c1.47-1.2,2.94-2.41,4.42-3.6a4.88,4.88,0,0,0,1.89-4ZM65.05,61.12l.88-.47,0,0a2,2,0,0,1,.09.24,1.31,1.31,0,0,1-.86.71l0,0c-.08-.13-.15-.27-.23-.41h0Zm.15-6.34c0,.11,0,.2,0,.28a1.64,1.64,0,0,1,0,.22,2,2,0,0,1-.4.13l-.19.05-.53.12-.19,0s0-.08,0-.2V55a1.93,1.93,0,0,1,.32-.05c.28,0,.66-.08,1-.15h0Zm-.76,2.16.12,0,.44-.1.13,0a.38.38,0,0,1,0,.11,1,1,0,0,0,0,.18l0,.09h0a.55.55,0,0,1-.15.18c-.26.13-.55.24-.82.35l-.31.11h0v-.07C63.8,57.07,63.8,57.07,64.44,56.94Zm.15,2.15.09,0c.21-.08.42-.16.62-.26l.06,0s0,0,0,.07,0,.16,0,.25v.08l0,.07-1,.64a.32.32,0,0,1,0-.1,1.65,1.65,0,0,1-.15-.48A1.57,1.57,0,0,1,64.59,59.09Zm10.35-15.3a3.35,3.35,0,0,1-1.32,2.78c-.73.58-1.45,1.17-2.17,1.76l-1.18,1,0,0V47.08c0-.57,0-1.13,0-1.7a.44.44,0,0,1,.21-.42,6.43,6.43,0,0,0,2-2.32,5.21,5.21,0,0,0,.66-2.45c0-1.66,0-3.32,0-5v-7.6c0-.9,0-1.8,0-2.71a5.38,5.38,0,0,0-4.52-5.17c-.16,0-.16-.05-.16-.15,0-.52,0-1,0-1.57a.28.28,0,0,1,0-.08h.11a7.26,7.26,0,0,1,6.36,7.26q0,6,0,12v6.58ZM67,18.13v.17c0,.43,0,.87,0,1.3,0,.1,0,.13-.15.18a4.46,4.46,0,0,0-1,.52A2,2,0,0,0,65,21.74a2,2,0,0,0,.62,1.6c.14.16.3.3.45.45s.17.15.25.24a1.14,1.14,0,0,1,.38.89c0,2.6,0,4.74,0,6.74a.45.45,0,0,1-.28.49c-.32.15-.63.32-.93.49a1.7,1.7,0,0,0-1,1.6c0,.94,0,1.89,0,2.84v.44A1.77,1.77,0,0,0,65,38.84a1.71,1.71,0,0,1,.5,1.38c0,1.38,0,2.79,0,4.15v1.78a.75.75,0,0,0,.72.76h0a.73.73,0,0,0,.68-.78v-3l.2.12c.42.25.84.5,1.25.76a.83.83,0,0,1,.4.76v1.91c0,1.22,0,2.43,0,3.65a.47.47,0,0,1-.14.29c-.61.52-1.24,1-1.87,1.54l-.73.6a3.6,3.6,0,0,1-2.39.74c-.75,0-.75,0-.75-.77V23.18c0-1.7,0-3.39,0-5.09a.34.34,0,0,1,0-.18s0,0,.17,0H66.8c.07,0,.21,0,.21,0A1,1,0,0,1,67,18.13Zm-.09,23a5.21,5.21,0,0,0,0-.79v-.49a2.24,2.24,0,0,0-.65-1.68,1.25,1.25,0,0,1-.37-1c0-.8,0-1.68,0-2.77a.51.51,0,0,1,.32-.55c.31-.14.61-.3.91-.46a1.74,1.74,0,0,0,1-1.63c0-1.77,0-3.54,0-5.31V24.81a2.51,2.51,0,0,0-.88-1.88l-.15-.14c-.18-.17-.36-.33-.52-.51a.47.47,0,0,1,0-.71,1.67,1.67,0,0,1,1.24-.48l.28,0a4,4,0,0,1,3.63,4c0,1.38,0,2.77,0,4.16V32.8h0v1.89c0,1.65,0,3.29,0,4.93A4.83,4.83,0,0,1,70,43.47c-.09.07-.12.09-.11.1a.49.49,0,0,1-.09-.1,2.6,2.6,0,0,0-.73-.71c-.61-.39-1.24-.74-1.77-1C67,41.55,66.91,41.39,66.94,41.1ZM63.67,57.75ZM41.45,25.49c-.06,0-.09,0-.09,0a.87.87,0,0,1,0-.18v-7c0-.35,0-.39.38-.39h.58c.36,0,.72,0,1.08,0h.12a.26.26,0,0,1,0,.13c0,1.41,0,2.82,0,4.23,0,.15,0,.3,0,.45s0,.2,0,.3a.65.65,0,0,0,.62.64.73.73,0,0,0,.52-.15.62.62,0,0,0,.2-.43c0-.57.06-1.18.06-1.93q0-1.54,0-3.09c0-.12,0-.14,0-.14l.13,0h.65a1.25,1.25,0,0,1,0,.3v.35c0,1.48,0,2.95,0,4.42a.65.65,0,0,0,.63.7.65.65,0,0,0,.73-.59,3.15,3.15,0,0,0,0-.52v-.38c0-1.35,0-2.7,0-4,0-.17,0-.21,0-.21s0,0,.17,0h.3a1.35,1.35,0,0,0,.3,0,1.23,1.23,0,0,1,0,.28v.3c0,.84,0,1.69,0,2.53v1.47q0,.27,0,.6a.6.6,0,0,0,.66.57.91.91,0,0,0,.62-.4,1.35,1.35,0,0,0,.12-.71c0-1.47,0-2.95,0-4.42,0-.17,0-.2,0-.2s0,0,.19,0H50c.13,0,.26,0,.26,0a.87.87,0,0,1,0,.3v.31c0,.69,0,1.38,0,2.07s0,1.59,0,2.39a.72.72,0,0,0,.22.53.56.56,0,0,0,.46.17.65.65,0,0,0,.68-.64c0-.6.05-1.18.05-1.73,0-.94,0-2.05,0-3.2,0-.14,0-.17,0-.17s0,0,.15,0h.28a1.16,1.16,0,0,0,.34,0,3.15,3.15,0,0,1,0,.37v.27c0,1.47,0,2.93,0,4.4a.66.66,0,0,0,.67.73h0a.71.71,0,0,0,.7-.7,4.36,4.36,0,0,0,0-.51v-.51c0-1.28,0-2.57,0-3.85,0-.15,0-.17,0-.17s0,0,.16,0c.73,0,1.46,0,2.09,0a.2.2,0,0,1,.11,0s0,0,0,.13v5.85a1.59,1.59,0,0,1-.8,1.4q-3.15,2-6.31,3.93a.73.73,0,0,1-.38.11H44.72c-.78,0-1.57,0-2.35,0a.22.22,0,0,1-.13,0,.79.79,0,0,1,0-.16c0-.93,0-1.86,0-2.8C42.23,25.76,42,25.53,41.45,25.49ZM54,50.36c0-.15,0-.18,0-.18s0,0,.17,0h0c2.4,0,4.8,0,7.19,0h.1a.45.45,0,0,1,0,.1V53.4c0,.06,0,.09,0,.09a.38.38,0,0,0-.14,0H54.18l-.14,0a.35.35,0,0,1,0-.16C54,52.26,54,51.29,54,50.36Zm3.72-32.24a1.55,1.55,0,0,1,0-.23h1.14q1.21,0,2.43,0c.16,0,.18,0,.18,0s0,0,0,.16c0,1.53,0,3.07,0,4.6v9.39H50a1.48,1.48,0,0,1,0-.35v-.3c0-.26,0-.52,0-.78a.32.32,0,0,1,.19-.32l4.37-2.71,1.73-1.08a3,3,0,0,0,1.51-2.64c0-1.32,0-2.63,0-3.94ZM49.93,51.4H52.5c.11,0,.08,0,.08,0a.4.4,0,0,1,0,.11q0,.93,0,1.86a.36.36,0,0,1,0,.12H51.11a1.21,1.21,0,0,1-1.17-1.1c0-.18,0-.37,0-.55s0-.26,0-.38S49.94,51.4,49.93,51.4Zm2.65-3.49c0,.62,0,1.24,0,1.85,0,.15,0,.18,0,.18a.41.41,0,0,1-.16,0H50a.35.35,0,0,1,0-.16q0-1.7,0-3.39V33.77a1.58,1.58,0,0,0,0-.28H61.35a.12.12,0,0,1,.17.17q0,3.15,0,6.3v4.91h-.16a8,8,0,0,0-1,0H54.63a2,2,0,0,0-1.5.56,2.07,2.07,0,0,0-.55,1.51Zm8.93.77v0H54.14a.13.13,0,0,1-.11,0,.32.32,0,0,1,0-.11V46.75c0-.35.17-.52.51-.52,2.17,0,4.34,0,6.5,0a.41.41,0,0,1,.47.42c0,.51,0,1,0,1.53ZM38.62,23.56V21.87c0-.12,0-.15,0-.15h1.18c.07,0,.09,0,.09,0h0a.15.15,0,0,1,0,.06v3.7h-.2c-.31,0-.62,0-.93,0-.12,0-.15,0-.15,0s0,0,0-.15V23.56Zm2.18,10.9c0,1.33,0,2.65,0,4a1.15,1.15,0,0,1-.34.85,1.09,1.09,0,0,1-.83.28,1,1,0,0,1-.95-.83,4.57,4.57,0,0,1-.05-.84V27.2a1.57,1.57,0,0,0,0-.27,1.11,1.11,0,0,1,.3,0h1.73c.11,0,.14,0,.14,0a.35.35,0,0,1,0,.16v7.38Zm-4.4-9.87V22.76c0-.92,0-1.83,0-2.75,0-.13,0-.15,0-.15a.48.48,0,0,1,.18,0c.59,0,.59,0,.59.63q0,3.32,0,6.63c0,.11,0,.24,0,.24a1.13,1.13,0,0,1-.28,0h-.3c-.11,0-.23,0-.23,0a2.37,2.37,0,0,1,0-.31V24.59Zm-4.5,1.09V19.15a1.41,1.41,0,0,1,0-.22h1.15a.22.22,0,0,1,.13,0,.35.35,0,0,1,0,.16c0,.75,0,1.5,0,2.24v6.73c0,.17,0,.21,0,.21s0,0-.17,0l-.47,0-.5,0a.23.23,0,0,1-.12,0,.32.32,0,0,1,0-.15c0-.58,0-1.17,0-1.76ZM35,28.05c0,.2,0,.24-.06.25s-.05,0-.22,0a.29.29,0,0,1-.05-.14c0-1,0-2,0-2.94v-2q0-2,0-4.08c0-.14,0-.16,0-.16s0,0,.17,0h0c.11,0,.13,0,.13,0a.38.38,0,0,1,0,.17c0,.46,0,.91,0,1.36Zm-5.38-7.7c0-.19,0-.23.18-.26a6.06,6.06,0,0,0,.61-.16l.08,0s0,.06,0,.12v7.26s-.06,0-.16,0c-.72-.16-.72-.16-.72-.89v-6Zm-1.46.72v5.06A5.76,5.76,0,0,1,27,24.86a.54.54,0,0,1,0-.08V22.41a.12.12,0,0,1,0-.05A5.42,5.42,0,0,1,28.14,21.07ZM24.66,23a.28.28,0,0,1,0-.1s0,0,.08,0a5.9,5.9,0,0,0,.73,0h.08a.36.36,0,0,1,0,.1v.24c0,.36,0,.71,0,1.07v.07s0,0-.08,0h-.71l-.07-.06a2.53,2.53,0,0,1,0-.48h0Zm-3.19.25v-.93c0-.3.06-.36.35-.37s.73,0,1.1,0,.33.09.33.31q0,1.36,0,2.73c0,.25-.07.31-.33.32H21.79c-.25,0-.32-.08-.32-.33s0-.65,0-1v-.19h0Zm-1.43,1s0,.08,0,.08H14.22s0,0,0,0a1.59,1.59,0,0,0,.25-.72,1.43,1.43,0,0,0-.26-.7l0,0h5.7c.11,0,.13,0,.13,0s0,0,0,.14C20,23.37,20,23.76,20,24.26Zm-9.87-.66V21.9a.24.24,0,0,1,.11,0,4.3,4.3,0,0,1,2.61,1.6c.07.08.07.1,0,.18a4.23,4.23,0,0,1-2.64,1.6h-.08V23.6ZM67,62.93Z"/></svg>