<svg id="Layer_1" data-name="Layer 1" xmlns="http://www.w3.org/2000/svg" viewBox="0 0 85.04 85.04"><path d="M52.6,41.91l-3.16-1a1.07,1.07,0,0,1-.9-1.21V32.15c0-.51.12-.93.71-1.09,3.66-1,7.28-2.14,11-3a8,8,0,0,1,9.69,6.28,8.18,8.18,0,0,1-6.72,9.59,1.2,1.2,0,0,0-1.07.74c-1.68,3.38-3.41,6.75-5.12,10.12a5.59,5.59,0,0,1-6.51,2.92,5.74,5.74,0,0,1-4.05-5.9A5.41,5.41,0,0,1,47.52,49c1.59-2.2,3.17-4.41,4.75-6.61ZM58,37.15c-.14.18-.25.31-.35.45L48.83,49.79a4,4,0,1,0,6.76,4.09l6.73-13.4c.07-.14.13-.29.2-.46C60.06,39.94,58.75,39.13,58,37.15Zm5.44,5c.28-.08.46-.11.63-.17a6.47,6.47,0,0,0,4.23-7.43,6.34,6.34,0,0,0-7-5,79.76,79.76,0,0,0-11,2.91c0,.08-.06.11-.06.15,0,2.14,0,4.28,0,6.43,0,.13.2.34.35.39.85.3,1.72.53,2.56.83a.58.58,0,0,0,.79-.29c1.51-2.14,3-4.28,4.56-6.4a4.07,4.07,0,0,1,5.62-1.19A4.16,4.16,0,0,1,65.5,38C64.79,39.34,64.12,40.71,63.39,42.17Zm-1.46-8.7a2.42,2.42,0,0,0-2.41,2.47,2.44,2.44,0,1,0,2.41-2.47Z"/><path d="M16.1,34.31c0-.83,0-1.65,0-2.47,0-.62.29-1,.79-1s.88.36.89,1q0,2.49,0,5c0,.61-.34.93-.86.92s-.82-.34-.82-1C16.1,36,16.1,35.13,16.1,34.31Z"/><path d="M26.8,37.45c0-.81,0-1.61,0-2.42,0-.64.28-1,.8-1s.87.36.88,1V40c0,.6-.34,1-.84,1s-.83-.35-.84-1C26.79,39.13,26.8,38.29,26.8,37.45Z"/><path d="M35.6,37.53c0,.8,0,1.6,0,2.41,0,.64-.33,1-.86,1s-.82-.37-.82-1q0-2.43,0-4.86c0-.65.27-1,.77-1s.9.36.91,1C35.61,35.89,35.6,36.71,35.6,37.53Z"/><path d="M41,37.46c0-.82,0-1.64,0-2.47,0-.6.28-.91.77-.93a.84.84,0,0,1,.9.9c0,1.69,0,3.37,0,5.06a.82.82,0,0,1-.88.91A.84.84,0,0,1,41,40C41,39.15,41,38.31,41,37.46Z"/><path d="M23.22,34.27c0-.82,0-1.64,0-2.46,0-.59.29-.93.77-1a.84.84,0,0,1,.9.9q0,2.55,0,5.1a.79.79,0,0,1-.89.88c-.49,0-.77-.35-.78-.94C23.21,36,23.22,35.11,23.22,34.27Z"/><path d="M21.37,37.49c0,.82,0,1.64,0,2.47,0,.6-.31,1-.81,1s-.85-.32-.85-.94c0-1.66,0-3.33,0-5,0-.65.3-1,.83-.94s.82.37.83,1C21.38,35.84,21.37,36.67,21.37,37.49Z"/><path d="M30.34,34.31c0-.84,0-1.68,0-2.52,0-.58.29-.92.77-.94a.82.82,0,0,1,.87.86c0,1.74,0,3.47,0,5.21a.73.73,0,0,1-.83.81.77.77,0,0,1-.8-.84C30.33,36,30.34,35.17,30.34,34.31Z"/><path d="M37.46,34.25c0-.84,0-1.68,0-2.51,0-.56.28-.87.76-.89a.81.81,0,0,1,.86.86c0,1.74,0,3.47,0,5.21a.81.81,0,1,1-1.62,0C37.45,36,37.46,35.13,37.46,34.25Z"/><path d="M46.19,34.29c0,.86,0,1.71,0,2.57,0,.55-.28.85-.77.87a.75.75,0,0,1-.85-.84c0-1.74,0-3.48,0-5.21a.74.74,0,0,1,.81-.83.83.83,0,0,1,.81.86C46.2,32.57,46.19,33.43,46.19,34.29Z"/><path d="M52.24,54.73A2.78,2.78,0,0,1,49.47,52,2.78,2.78,0,1,1,55,52,2.8,2.8,0,0,1,52.24,54.73Zm1.09-2.79a1.06,1.06,0,0,0-1.1-1.12A1.08,1.08,0,0,0,51.13,52,1,1,0,0,0,52.28,53,1,1,0,0,0,53.33,51.94Z"/></svg>