<svg id="Layer_1" data-name="Layer 1" xmlns="http://www.w3.org/2000/svg" viewBox="0 0 85.04 85.04"><path d="M13.68,60,12.3,61.39V43.27c0-1.46,0-2.92,0-4.37l1.34,1.34a1,1,0,0,0,1.41-1.42c-1-1-2.05-2-3.08-3.08a1,1,0,0,0-1.41,0L7.51,38.82a1,1,0,1,0,1.42,1.42l1.37-1.38V56.4c0,1.65-.05,3.31,0,5L8.93,60a1,1,0,1,0-1.42,1.41l3.09,3.08a1,1,0,0,0,1.41,0l3.08-3.08A1,1,0,0,0,13.68,60Z"/><path d="M73.29,51.32c-2.87-1.56-5.79-3-8.68-4.54a1.71,1.71,0,0,0-1.71,0c-2,1-4.08,2-6.13,3a5.33,5.33,0,0,1-7.09-2l-1.75-2.69-5.58-8.5a1.17,1.17,0,0,0-1.71-.44A1.18,1.18,0,0,0,40.4,38c.3.45.63.89.92,1.35Q44.47,44.14,47.6,49A7.72,7.72,0,0,0,58,51.82c1.76-.86,3.52-1.74,5.29-2.58a1.14,1.14,0,0,1,.85,0c2.73,1.38,5.45,2.77,8.13,4.21a7.06,7.06,0,0,1,3.84,6A1.3,1.3,0,0,1,74.66,61C67.82,61,61,61,54.14,61a7.5,7.5,0,0,1-6.27-3.07,19.06,19.06,0,0,1-2-3.85A26.24,26.24,0,0,0,31.77,39.9C28.39,38.43,25,37,21.59,35.54a.77.77,0,0,1-.56-.7,17.06,17.06,0,0,1,1.62-9.36A15.6,15.6,0,0,1,25,21.94a72.64,72.64,0,0,1,8.08,7.16c.25.27.5.54.78.79a1.15,1.15,0,0,0,1.59,0,1.17,1.17,0,0,0,.12-1.58A6.31,6.31,0,0,0,35,27.7a75,75,0,0,0-9.38-8.24,1.19,1.19,0,0,0-1.77.07,20.22,20.22,0,0,0-4.67,8.58c-.25,1-.4,2.05-.6,3.08v3.39a.94.94,0,0,1,.1.28,20.53,20.53,0,0,0,2.37,7.57,37.45,37.45,0,0,1,2.92,8A44.23,44.23,0,0,1,25.1,61.87c0,1.13.37,1.51,1.5,1.52h6.2c1.17,0,1.55-.4,1.55-1.59,0-5.23,0-10.45,0-15.67a4.68,4.68,0,0,1,0-.65c.14-.79.82-1.1,1.4-.58,1.36,1.22,2.76,2.42,4,3.76a26.22,26.22,0,0,1,4.54,7.83c2,4.62,5.48,6.91,10.5,6.9H74.32c.31,0,.63,0,.94,0a3.51,3.51,0,0,0,3.18-3.44A9.23,9.23,0,0,0,73.29,51.32ZM32,46.36c0,4.61,0,9.23,0,13.84V61H27.44a43.55,43.55,0,0,0-5.75-22.62l.26-.11,11.19,4.84A4.14,4.14,0,0,0,32,46.36Z"/><path d="M38.08,34.15A1.16,1.16,0,0,0,39.28,33a1.17,1.17,0,1,0-2.34-.05A1.15,1.15,0,0,0,38.08,34.15Z"/></svg>