<svg id="Layer_1" data-name="Layer 1" xmlns="http://www.w3.org/2000/svg" viewBox="0 0 85.04 85.04"><path d="M52.62,37.65c-.25,1.27-.48,2.4-.68,3.53A1.77,1.77,0,0,0,52,42c.69,1.88,1.4,3.75,2.11,5.63.47,1.25.25,1.61-1.1,1.71.1.43.21.84.27,1.27a14.32,14.32,0,0,1,.2,2c0,5.09,0,10.17,0,15.25,0,.85-.26,1.12-1.1,1.12h-20c-.82,0-1.08-.27-1.08-1.08,0-5.14,0-10.27,0-15.41a27.56,27.56,0,0,1,.37-3.1c-1.31-.16-1.48-.45-1-1.78.63-1.67,1.22-3.36,1.9-5a3.26,3.26,0,0,0,.15-2.11c-.2-.88-.35-1.77-.55-2.8-.43,1.59-.83,3-1.23,4.48-.72,2.65-1.43,5.3-2.15,8-.23.82-.42,1-1.28,1H23.87c-.85,0-1.19-.43-1-1.27l6.48-25.15c.47-1.82.23-1.49,2-2,1.61-.48,3.24-.92,4.84-1.4a1.19,1.19,0,0,0,.59-.47c.47-.77.91-1.56,1.35-2.35a1.08,1.08,0,0,1,1-.61q3.24,0,6.5,0a1,1,0,0,1,1,.58c.45.8.9,1.61,1.38,2.39a1.14,1.14,0,0,0,.59.45q2.81.84,5.61,1.61a1.33,1.33,0,0,1,1,1.06Q58.64,36.76,62,49.7c.24.91-.08,1.31-1,1.32H57.27c-.85,0-1-.14-1.27-1L52.79,38.26C52.75,38.11,52.71,38,52.62,37.65Zm-.83,29.56c0-.15,0-.3,0-.45,0-4.67,0-9.35,0-14a19.4,19.4,0,0,0-.51-3.08c0-.27-.2-.36-.48-.36q-8.37,0-16.73,0c-.32,0-.46.13-.5.4a22.23,22.23,0,0,0-.5,3.19c0,4.59,0,9.17,0,13.75v.56H46.71V58c0-.63.32-1,.87-1s.83.36.83,1v9.26ZM35.41,23.34l-.18-.07c-1.1.32-2.19.66-3.3.94-.4.1-.41.3-.35.61,1,4.92,1.85,9.85,2.85,14.76a6.06,6.06,0,0,1-.34,4.11,28.76,28.76,0,0,0-1,2.72l-.43,1.17h8.94c0-.09,0-.16,0-.23q0-5.57,0-11.13a1.43,1.43,0,0,0-.24-.68c-1.94-3.18-3.88-6.36-5.86-9.52C34.93,25.14,34.34,24.32,35.41,23.34ZM52.26,47.59l-.08-.25c-.64-1.71-1.29-3.41-1.91-5.13a1.84,1.84,0,0,1-.11-.93c.67-3.6,1.37-7.2,2.06-10.8.36-1.89.73-3.79,1.07-5.69,0-.16-.06-.48-.16-.51-1.16-.36-2.33-.68-3.58-1a1.66,1.66,0,0,0,.17.37,1.53,1.53,0,0,1,0,2c-2.07,3.29-4.09,6.61-6.12,9.92a1.86,1.86,0,0,0-.25.89c0,3.55,0,7.1,0,10.66,0,.17,0,.34,0,.53Zm-25,1.7c0-.14.1-.27.14-.4q2-7.26,3.94-14.5a3.6,3.6,0,0,0,0-1.35c-.11-.86-.29-1.71-.46-2.56s-.34-1.73-.51-2.59h-.08L24.8,49.29Zm32.82,0L54.55,27.82a2.7,2.7,0,0,0-.13.3c-.33,1.78-.68,3.55-1,5.33a1.61,1.61,0,0,0,.07.72q1.62,6,3.25,12l.87,3.12ZM42.37,29.65h.14l2.26-10.17H40.11Zm-1.51,1.78.12,0L38.67,21c-.68,1.2-1.33,2.3-1.93,3.41-.07.12,0,.37.11.52.65,1.08,1.31,2.15,2,3.23Zm3-.05.11.06c.08-.13.17-.25.25-.39,1.18-1.91,2.33-3.84,3.55-5.73a1.22,1.22,0,0,0,0-1.56c-.57-.86-1-1.79-1.61-2.78Z"/></svg>