<svg id="Layer_1" data-name="Layer 1" xmlns="http://www.w3.org/2000/svg" viewBox="0 0 85.04 85.04"><defs><style>.cls-1{fill:#1d1d1b;}</style></defs><path class="cls-1" d="M67.69,38.73c-2.5-6.42-4.95-12.87-7.42-19.3a1.12,1.12,0,0,1,.07-1.08c.82-1.44,1.58-2.93,2.42-4.36a1.86,1.86,0,0,0,.17-1.87l-.85-.47a1.88,1.88,0,0,0-1.48,1.16c-.73,1.42-1.55,2.8-2.28,4.23a1.51,1.51,0,0,1-1.14.85c-6.77,1.37-13.54,2.79-20.31,4.17a3.26,3.26,0,0,0-2.39,1.75Q26,39.4,17.47,54.94c-.09.16-.19.32-.26.48a2.45,2.45,0,0,0,1.05,3.29L46.93,74.39a2.41,2.41,0,0,0,3.3-.83c.62-1,1.18-2.08,1.73-3.14a1.26,1.26,0,0,0-.5-1.7,1.27,1.27,0,0,0-1.65.48c-.18.26-.32.56-.48.84-.4.72-.79,1.45-1.19,2.18l-28.7-15.7c.16-.28.29-.53.43-.78Q28.21,40.5,36.53,25.26a1.57,1.57,0,0,1,1.2-.86c4.81-1,9.61-2,14.42-3l4.22-.87c-.58,1.06-1.1,2-1.59,2.93A.79.79,0,0,1,54,24a3.62,3.62,0,0,0-3.61,2.62,3.69,3.69,0,0,0,6.14,3.65A3.55,3.55,0,0,0,57,25.8a1.14,1.14,0,0,1,0-1.4c.51-.83.95-1.71,1.47-2.65.09.22.14.31.17.4Q62.06,31,65.45,39.81a1.11,1.11,0,0,1-.13,1q-5,9.08-9.93,18.15a3.8,3.8,0,0,0-.35.77,1.16,1.16,0,0,0,.59,1.39c.7.38,1.35.11,1.83-.76,3.34-6.1,6.66-12.21,10-18.3A3.64,3.64,0,0,0,67.69,38.73ZM54.94,28.25a1.22,1.22,0,0,1-2.12-1.2,1.22,1.22,0,0,1,2.12,1.2Z"/><path class="cls-1" d="M54.12,63.89a1.21,1.21,0,0,0-1.67.49A1.23,1.23,0,0,0,52.92,66a1.27,1.27,0,0,0,1.7-.46A1.23,1.23,0,0,0,54.12,63.89Z"/><path class="cls-1" d="M32.67,42a.83.83,0,0,0-.42-.5,1,1,0,0,0-.77-.09.93.93,0,0,0-.58.48,2.22,2.22,0,0,0-.25,1.26,3.09,3.09,0,0,0,.42,1.36A4.35,4.35,0,0,0,32.75,46a4.53,4.53,0,0,0,1.84.59h.27a2.85,2.85,0,0,0,1.34-.32,2.8,2.8,0,0,0,1.1-1.11A2.65,2.65,0,0,0,37.65,44a2.24,2.24,0,0,0-.23-1,4.3,4.3,0,0,0-.67-1,12.62,12.62,0,0,0-1-1l-.61-.58a2.28,2.28,0,0,1-.3-.38,1,1,0,0,1-.15-.37.43.43,0,0,1,.06-.31.61.61,0,0,1,.52-.3,1.52,1.52,0,0,1,.94.23,1.39,1.39,0,0,1,.68.62,2.05,2.05,0,0,1,.12.83,2,2,0,0,0,.07.66.81.81,0,0,0,.43.47.89.89,0,0,0,.78.06,1,1,0,0,0,.58-.49,1.76,1.76,0,0,0,.2-.78,2.42,2.42,0,0,0-.17-1,3.25,3.25,0,0,0-.63-1,4.31,4.31,0,0,0-1.15-.86,4.78,4.78,0,0,0-1.71-.59,2.73,2.73,0,0,0-1.5.23,2.31,2.31,0,0,0-1,1,2.24,2.24,0,0,0-.3,1.39,2.63,2.63,0,0,0,.53,1.26,7.63,7.63,0,0,0,1.13,1.21c.35.31.61.56.8.76a1.49,1.49,0,0,1,.33.58.68.68,0,0,1-.08.55.84.84,0,0,1-.67.44,1.87,1.87,0,0,1-1.12-.26,1.74,1.74,0,0,1-.62-.51,1.22,1.22,0,0,1-.21-.54,3.46,3.46,0,0,1,0-.71A1.6,1.6,0,0,0,32.67,42Z"/><path class="cls-1" d="M37.78,48.76a1.07,1.07,0,0,0,.53.15,1,1,0,0,0,.33-.06,1.34,1.34,0,0,0,.72-.68l3.2-5.85a1.33,1.33,0,0,0,.18-1,1,1,0,0,0-.53-.67,1,1,0,0,0-.85-.09,1.36,1.36,0,0,0-.71.68l-3.21,5.86a1.35,1.35,0,0,0-.18,1A1,1,0,0,0,37.78,48.76Z"/><path class="cls-1" d="M49.09,46.76a1.41,1.41,0,0,0,.55-.6,1.11,1.11,0,0,0,.13-.87,1.25,1.25,0,0,0-.62-.65l-4.23-2.32a1.06,1.06,0,0,0-.77-.14.85.85,0,0,0-.55.43.77.77,0,0,0-.06.69,1.08,1.08,0,0,0,.54.56l2.85,1.56-5.86,2.29-.35.14-.33.14a1.17,1.17,0,0,0-.28.17,1.24,1.24,0,0,0-.22.28,1.09,1.09,0,0,0-.08.91,1.4,1.4,0,0,0,.72.75l4.83,2.64a1.15,1.15,0,0,0,.58.18.58.58,0,0,0,.19,0,.8.8,0,0,0,.55-.44.77.77,0,0,0,.06-.69,1.1,1.1,0,0,0-.54-.55l-3.5-1.92,5.43-2.11A9,9,0,0,0,49.09,46.76Z"/><path class="cls-1" d="M54.28,51.32l-2.92-1.59.78-1.42,3.18,1.74a1.15,1.15,0,0,0,.79.16.86.86,0,0,0,.56-.45.84.84,0,0,0,.07-.69,1.17,1.17,0,0,0-.56-.59l-4-2.17a1.69,1.69,0,0,0-.67-.22.91.91,0,0,0-.62.18,1.59,1.59,0,0,0-.45.55l-3.06,5.59a1.12,1.12,0,0,0,.51,1.74L52,56.38a1.21,1.21,0,0,0,.6.18.63.63,0,0,0,.19,0,.83.83,0,0,0,.56-.44.84.84,0,0,0,.08-.72,1.15,1.15,0,0,0-.55-.59L49.58,53l.94-1.71,2.92,1.59a1,1,0,0,0,.77.15.9.9,0,0,0,.61-1.12A1.13,1.13,0,0,0,54.28,51.32Z"/></svg>