<svg id="Layer_1" data-name="Layer 1" xmlns="http://www.w3.org/2000/svg" viewBox="0 0 85.04 85.04"><path d="M16.39,29.4c.13-.51.23-1,.38-1.54a11.48,11.48,0,0,1,4.82-6.12,19.55,19.55,0,0,1,9.3-3.2,21.93,21.93,0,0,1,11.47,1.78A13.65,13.65,0,0,1,49,26.08a9.21,9.21,0,0,1,1.13,4.66c0,4.18,0,8.36,0,12.55V44a14.48,14.48,0,0,0,1.48,0,.94.94,0,0,0,.87-.94A4.82,4.82,0,0,1,57,38.81c2.56,0,5.13-.05,7.69,0a4.8,4.8,0,0,1,4.6,4.73c0,2.39,0,4.78,0,7.18,0,.59-.29,1-.76,1s-.78-.36-.78-1c0-2.24,0-4.48,0-6.72a3.37,3.37,0,0,0-3.64-3.63H57.28A3.33,3.33,0,0,0,54,43.06a3.84,3.84,0,0,0,0,.48h1.43c.34-.45.56-1,.95-1.21a2.9,2.9,0,0,1,1.47-.3c2.12,0,4.24,0,6.36,0a1.71,1.71,0,0,1,1.85,1.87V61.55a1.69,1.69,0,0,1-1.87,1.84H57.65a1.79,1.79,0,0,1-2.06-1.53H54a8.68,8.68,0,0,0,.19.94,3.3,3.3,0,0,0,3.14,2.25h7a3.34,3.34,0,0,0,3.48-3.48c0-2.23,0-4.47,0-6.71,0-.12,0-.24,0-.36a.77.77,0,0,1,.79-.78.75.75,0,0,1,.75.77c0,2.56.06,5.13,0,7.69a4.74,4.74,0,0,1-4.44,4.4c-2.64.07-5.3.07-7.95,0a4.77,4.77,0,0,1-4.43-4.23A1.88,1.88,0,0,0,51,61c-2.79-.21-5.59-.35-8.38-.65a65.56,65.56,0,0,1-17.11-3.7,16.21,16.21,0,0,1-6.89-4.75,9.48,9.48,0,0,1-2.14-4.73,1.15,1.15,0,0,0-.1-.23Zm1.55,6.14v.66c0,3.1,0,6.2,0,9.29a8.42,8.42,0,0,0,2.41,6,14.85,14.85,0,0,0,5.1,3.43c5,2.14,10.39,3,15.79,3.7,2,.25,4,.41,5.95.58,1.19.11,2.39.16,3.59.23V45.56l-.28,0a121.11,121.11,0,0,1-13.3-1.26,50.18,50.18,0,0,1-10.71-2.69C23.2,40.3,20.15,38.64,17.94,35.54ZM33.24,20a20.68,20.68,0,0,0-5.65.74A15,15,0,0,0,20,25.28a7.61,7.61,0,0,0-.25,10A12.19,12.19,0,0,0,24,38.72a20.62,20.62,0,0,0,14.64,1.46,14.9,14.9,0,0,0,7.4-4.07c2.65-2.75,3.21-6.17,1.55-9.26a10.73,10.73,0,0,0-3.91-4A19.33,19.33,0,0,0,33.24,20Zm24.09,23.6,0,.09a4.38,4.38,0,0,1,.43.24,2,2,0,0,1,1,1.8q0,7,0,14a2.1,2.1,0,0,1-1,1.77l-.47.28h7.14V43.59ZM52.41,52.7v6.61c0,.81.1.92.88.94,1.05,0,2.1,0,3.15,0,.55,0,.76-.22.76-.79q0-6.76,0-13.53c0-.59-.18-.78-.76-.8l-3.09-.07c-.78,0-.93.14-.94.93ZM48.49,44v-8.3c-3.15,4.2-7.55,5.94-12.49,6.66l0,.2Z"/><path d="M33.25,38.75a16.36,16.36,0,0,1-9.8-3,9.49,9.49,0,0,1-1.94-1.91A5.55,5.55,0,0,1,22,26.38a12.58,12.58,0,0,1,6.32-3.6,17.77,17.77,0,0,1,13.53,1.48,11.91,11.91,0,0,1,2.66,2.09,5.65,5.65,0,0,1,0,8.19,12.72,12.72,0,0,1-6.54,3.61c-1.52.36-3.11.5-4.66.74Zm0-15a15.58,15.58,0,0,0-5.12.76,10.49,10.49,0,0,0-5.26,3.28,4,4,0,0,0,.05,5.4,9.3,9.3,0,0,0,2.44,2,16.32,16.32,0,0,0,13.11,1.19,10.1,10.1,0,0,0,5.16-3.24,4,4,0,0,0,0-5.33,9.67,9.67,0,0,0-2.15-1.89A15,15,0,0,0,33.24,23.7Z"/><path d="M33.51,35.12A12.47,12.47,0,0,1,26,33a6.41,6.41,0,0,1-1.33-1.42,1.8,1.8,0,0,1,0-2.22A7,7,0,0,1,26,27.87a10.64,10.64,0,0,1,5.14-2c.63-.09,1,.15,1.06.61s-.22.83-.85.93a10,10,0,0,0-4.52,1.76c-1.25.94-1.25,1.53,0,2.46a9.58,9.58,0,0,0,4.42,1.72,11.83,11.83,0,0,0,7.42-1.1,7.65,7.65,0,0,0,1.6-1.19c.51-.47.48-.82,0-1.33a7.55,7.55,0,0,0-3.66-2c-.5-.14-1-.23-1.52-.32s-.86-.4-.82-.87a.77.77,0,0,1,1-.68,10.58,10.58,0,0,1,5.7,2.32c1.69,1.45,1.7,3,0,4.42A10.69,10.69,0,0,1,35.26,35C34.59,35.07,33.92,35.08,33.51,35.12Z"/></svg>