<svg id="Layer_1" data-name="Layer 1" xmlns="http://www.w3.org/2000/svg" viewBox="0 0 85.04 85.04"><path d="M58.76,18.63a21.35,21.35,0,0,1,1.39,1.89,20.28,20.28,0,0,1,2.77,8,20.92,20.92,0,0,1-2.26,12.66c-.44.82-1,1.59-1.45,2.38a.71.71,0,0,1-.92.36,1.16,1.16,0,0,1-.59-.68,1.24,1.24,0,0,1,.28-.8,20,20,0,0,0,2.49-5A19.56,19.56,0,0,0,58,20.16c-.47-.7-.41-1,.23-1.53Z"/><path d="M25.54,18.63c.65.52.71.82.22,1.52a19.63,19.63,0,0,0-.38,21.69c.17.26.35.51.51.78a.83.83,0,0,1-.2,1.19.81.81,0,0,1-1.17-.3c-.61-1-1.25-2-1.77-3a19.82,19.82,0,0,1-2-7.35A20.94,20.94,0,0,1,23,21.53c.4-.76.87-1.5,1.34-2.23a4.88,4.88,0,0,1,.62-.67Z"/><path d="M48.52,56.67l-4.21,2.21q-5.39,2.84-10.76,5.65a.86.86,0,0,0-.54.68,2.5,2.5,0,0,1-.13.54.83.83,0,1,1-1.59-.44c.39-1.55.78-3.1,1.18-4.64q3.31-12.95,6.65-25.89a.6.6,0,0,0-.16-.66,4.05,4.05,0,0,1-.23-5.47A4.07,4.07,0,1,1,44.89,34a.87.87,0,0,0-.24,1q3.87,15,7.71,30l.06.27c.14.6-.06,1-.54,1.16s-.9-.16-1.05-.74c-.72-2.79-1.43-5.58-2.15-8.38C48.64,57.1,48.58,56.92,48.52,56.67Zm-2-.84L36.61,51.2,33.69,62.6ZM48,54.7l-2.53-9.86L37.84,50ZM44.59,43.45,39.7,39.17l-2.34,9.1ZM41.86,28.87a2.4,2.4,0,0,0-2.42,2.43,2.43,2.43,0,1,0,4.86,0A2.41,2.41,0,0,0,41.86,28.87Zm1.2,6.48c-.77,0-1.47-.08-2.17-.1-.08,0-.21.15-.24.25-.14.49-.24,1-.4,1.48a.52.52,0,0,0,.18.64c1.28,1.09,2.53,2.2,3.79,3.3a3,3,0,0,0,.32.21Z"/><path d="M57.38,31.29a15.34,15.34,0,0,1-3.11,9.31c-.4.53-.85.66-1.27.36a.85.85,0,0,1-.08-1.31,13.83,13.83,0,0,0,.27-16.34c-.13-.18-.26-.35-.37-.53A.82.82,0,0,1,53,21.62a.78.78,0,0,1,1.15.21A19.3,19.3,0,0,1,55.56,24,14.93,14.93,0,0,1,57.38,31.29Z"/><path d="M26.35,31.3a15.39,15.39,0,0,1,3.17-9.39.83.83,0,1,1,1.33,1,13.83,13.83,0,0,0-.28,16.42c.1.14.21.27.3.41A.84.84,0,0,1,30.75,41a.82.82,0,0,1-1.21-.26,23.23,23.23,0,0,1-1.38-2.16A15.06,15.06,0,0,1,26.35,31.3Z"/><path d="M32.07,30.53a9.33,9.33,0,0,1,2.53-5.8c.37-.42.73-.52,1.1-.32s.56.83.17,1.39a12.26,12.26,0,0,0-1.47,2.3,7.94,7.94,0,0,0,1.26,8.47,1.67,1.67,0,0,1,.45.92,1,1,0,0,1-.5.69.72.72,0,0,1-1-.27,19.47,19.47,0,0,1-1.57-2.3A9.87,9.87,0,0,1,32.07,30.53Z"/><path d="M51.67,31.72a9.55,9.55,0,0,1-2.54,6.15.86.86,0,0,1-1.23.2.8.8,0,0,1,0-1.27,8.17,8.17,0,0,0,1.93-3.72,8,8,0,0,0-1.7-7c-.12-.15-.25-.28-.36-.44a.8.8,0,0,1,.15-1.12.76.76,0,0,1,1.09.08,13.56,13.56,0,0,1,1.2,1.54A10,10,0,0,1,51.67,31.72Z"/></svg>