<svg id="Layer_1" data-name="Layer 1" xmlns="http://www.w3.org/2000/svg" viewBox="0 0 85.04 85.04"><path d="M72.92,41.32a19.78,19.78,0,0,0-1.31-7.56c0-.16-.11-.32-.16-.49L71.36,33a3.22,3.22,0,0,0-3.42-2.5H30a1.15,1.15,0,0,0-1.14,1.15h0A1.14,1.14,0,0,0,30,32.79H61.23c2.2,0,4.48,0,6.72,0,.37,0,.91.2,1,.43a26,26,0,0,1,.92,2.53l.27.81H14.25l.24-.72.7-2.1a1.43,1.43,0,0,1,1.36-1h9.31a1.15,1.15,0,0,0,0-2.29H16.41a3.52,3.52,0,0,0-3.35,2.4l-.35,1C12.35,35,12,36.11,11.63,37.2a2.28,2.28,0,0,0-.12.73c0,4.78,0,9.46,0,14.14a3.18,3.18,0,0,0,3.18,3.14h.89v2.71A1.42,1.42,0,0,0,16,59a1.77,1.77,0,0,0,1.38.28,20.65,20.65,0,0,1,3.49-.08c1.55.13,2.38.19,2.81-.21A1.61,1.61,0,0,0,24,57.75V55.19H50.46V52.93H15.07a1.29,1.29,0,0,1-1.28-1.28V39H70.61V51.62a1.31,1.31,0,0,1-1.3,1.31H52.36v2.32h8.06V56c0,.65,0,1.28,0,1.91a1.36,1.36,0,0,0,1.36,1.36h5.67a1.36,1.36,0,0,0,1.36-1.36c0-.63,0-1.26,0-1.91v-.81h.56a3.51,3.51,0,0,0,3.51-3.51c0-1.05,0-2.1,0-3.16C72.86,46.17,72.84,43.72,72.92,41.32ZM17.92,57V55.25h3.74V57Zm48.61-1.71v1.5a1.68,1.68,0,0,1,0,.2v0H62.75V55.26Z"/><path d="M68.73,48.44V45a1.19,1.19,0,0,0-1.36-1.36h-7.7c-1,0-1.37.41-1.38,1.35v3.43c0,1.2.36,1.57,1.54,1.58h.5v.67c0,.94.43,1.36,1.36,1.36h3.69a1.16,1.16,0,0,0,1.31-1.28,5.81,5.81,0,0,0,0-.59V50h.49C68.37,50,68.73,49.63,68.73,48.44Zm-4.36.79c0,.16-.05.33-.09.49H62.67c-.27-1.86-.34-1.94-2.09-2V46H66.4V47.6l-.45.08a2,2,0,0,0-1.15.4A2.12,2.12,0,0,0,64.37,49.23Z"/><path d="M49.62,52c.31,0,.62,0,.93,0,.65,0,1.33,0,2,0h.31a1.71,1.71,0,0,0,1.31-.37,2,2,0,0,0,.31-1.54.41.41,0,0,1,0-.1v0h.62c1,0,1.39-.42,1.39-1.4v-.17c0-1.17,0-2.39,0-3.59a1.11,1.11,0,0,0-1.19-1.2h-8a1.12,1.12,0,0,0-1.22,1.18c0,1.37,0,2.72,0,4A1.13,1.13,0,0,0,47.24,50h.86v.51C48.11,51.66,48.48,52,49.62,52ZM48.4,47.58V46h5.79v1.63l-.47.08a2.12,2.12,0,0,0-1.15.42,2,2,0,0,0-.42,1.15c0,.16-.06.32-.1.48H50.49c0-.14-.05-.29-.07-.43a1.43,1.43,0,0,0-1.52-1.61Z"/><path d="M42.26,50H43a1.16,1.16,0,0,0,1.25-1.28c0-1.27,0-2.55,0-3.82a1.12,1.12,0,0,0-1.14-1.26c-2.55,0-5.22,0-8.15,0a1.09,1.09,0,0,0-1.13,1.13c0,1.35,0,2.73,0,4.08A1.12,1.12,0,0,0,35,50h.85v.52c0,1.15.37,1.52,1.52,1.52h.94c.65,0,1.32,0,2,0h.3a1.75,1.75,0,0,0,1.31-.38,1.77,1.77,0,0,0,.3-1.48.86.86,0,0,1,0-.15S42.26,50,42.26,50ZM42,46V47.6l-.44.07a2.23,2.23,0,0,0-1.16.39,2.18,2.18,0,0,0-.44,1.15c0,.18-.07.36-.11.54H38.29a4.21,4.21,0,0,1-.09-.49,2.11,2.11,0,0,0-.4-1.15,2.13,2.13,0,0,0-1.16-.43l-.52-.11V46Z"/><path d="M30,50h.7a1.18,1.18,0,0,0,1.32-1.35c0-1.12,0-2.44,0-3.75a1.12,1.12,0,0,0-1.15-1.26H22.75a1.09,1.09,0,0,0-1.13,1.13c0,1.36,0,2.73,0,4.08A1.12,1.12,0,0,0,22.8,50h.85v.52c0,1.15.38,1.52,1.53,1.52h.93c.68,0,1.37,0,2.06,0h.27a1.68,1.68,0,0,0,1.27-.38,1.73,1.73,0,0,0,.3-1.42,1.48,1.48,0,0,1,0-.2A.09.09,0,0,1,30,50Zm-.31-4v1.62l-.45.09a2,2,0,0,0-1.15.4,2.12,2.12,0,0,0-.43,1.15l-.09.48H26c-.26-1.85-.33-1.92-2.06-2V46Z"/><path d="M18.77,44.81h-2a1.1,1.1,0,1,0,0,2.2h2a1.1,1.1,0,1,0,0-2.2Z"/><path d="M18.75,48.88h-2a1.11,1.11,0,0,0,0,2.21h2a1.11,1.11,0,1,0,0-2.21Z"/><path d="M20.81,42.94a1.11,1.11,0,1,0-1.11-1.11A1.11,1.11,0,0,0,20.81,42.94Z"/><path d="M33,42.94a1.11,1.11,0,0,0,0-2.21h0a1.11,1.11,0,0,0,0,2.21Z"/><path d="M45.26,42.93a1.1,1.1,0,1,0,0-2.2h0a1.1,1.1,0,1,0,0,2.2Z"/><path d="M57.48,40.72h0a1.11,1.11,0,1,0,0,2.22,1.11,1.11,0,0,0,0-2.22Z"/></svg>