<svg id="Layer_1" data-name="Layer 1" xmlns="http://www.w3.org/2000/svg" viewBox="0 0 85.04 85.04"><path d="M61.66,60.73a3.63,3.63,0,0,0,2.67-1.09,3.81,3.81,0,0,0,1-2.66c-.05-1.71,0-3.44,0-5.12,0-1,0-1.91,0-2.86a3.44,3.44,0,0,0-3-3.37c-.75-.07-1.52-.06-2.27-.07H57.78l.29-.79c0-.11.07-.2.11-.29l5.06-11.82,1.92-4.47a.9.9,0,0,0-.32-1.2.77.77,0,0,0-.67-.11,1.22,1.22,0,0,0-.7.71l-.84,2q-3.29,7.65-6.55,15.31a1,1,0,0,1-1.07.7q-12,0-24.06,0h0a1,1,0,0,1-1-.68c-1.1-2.6-2.21-5.18-3.32-7.77L22.5,27.56a1,1,0,0,0-1-.7.89.89,0,0,0-.67.43,1,1,0,0,0,0,.92l7.41,17.35H24.31a3.56,3.56,0,0,0-3.61,2.86.67.67,0,0,1-.07.17V57.7a.77.77,0,0,1,.07.16,3.51,3.51,0,0,0,3.17,2.83,8.74,8.74,0,0,0,1.15,0h1.05v1.83a1,1,0,0,0,.29.72.86.86,0,0,0,.6.24.9.9,0,0,0,.87-.94V60.77H58.15v1.76a1,1,0,0,0,.29.72.84.84,0,0,0,.6.24.91.91,0,0,0,.87-1V60.73h1.75ZM24.47,58.92a1.84,1.84,0,0,1-2.07-2.08V49.4a1.81,1.81,0,0,1,2-2H61.49a1.83,1.83,0,0,1,2.1,2.1v7.39a1.83,1.83,0,0,1-2.06,2.06Z"/><path d="M29.85,28.75a3.06,3.06,0,0,0,1-.65,17.61,17.61,0,0,1,17.55-4,16.93,16.93,0,0,1,7.13,4.3,1.06,1.06,0,0,0,.78.34.79.79,0,0,0,.59-.28.9.9,0,0,0-.12-1.34A19.37,19.37,0,0,0,43.37,21.5,19.9,19.9,0,0,0,33,24.25a19.42,19.42,0,0,0-3.83,3A.87.87,0,0,0,29,28.31.8.8,0,0,0,29.85,28.75Z"/><path d="M45.68,28.94a12.14,12.14,0,0,1,6,3.27,1.13,1.13,0,0,0,.76.35h0a.88.88,0,0,0,.59-.29.92.92,0,0,0-.16-1.37,14,14,0,0,0-9.76-4.06A14.87,14.87,0,0,0,37.48,28,14.42,14.42,0,0,0,33,31a.89.89,0,0,0-.26,1,.83.83,0,0,0,.77.61c.28,0,.51-.08.89-.43a12.19,12.19,0,0,1,8.5-3.47A14.68,14.68,0,0,1,45.68,28.94Z"/><path d="M49.16,34.69a8.86,8.86,0,0,0-12.38,0,.88.88,0,0,0-.34.83.86.86,0,0,0,.62.73A.91.91,0,0,0,38,36a7.13,7.13,0,0,1,9.9,0,.9.9,0,1,0,1.23-1.29Z"/><path d="M41.66,39.92A2.36,2.36,0,0,1,43,39.33a2.29,2.29,0,0,1,1.33.59.87.87,0,0,0,1,.09,1,1,0,0,0,.55-.75l-.08-.18a1.71,1.71,0,0,0-.23-.47,3.24,3.24,0,0,0-2.47-1,3.47,3.47,0,0,0-2.58,1,.93.93,0,0,0,0,1.22A.92.92,0,0,0,41.66,39.92Z"/><path d="M47.46,54.5a.9.9,0,0,0,.87.88h0a.9.9,0,0,0,.88-.89c0-.9,0-1.8,0-2.71a.91.91,0,0,0-.88-.88h0a.91.91,0,0,0-.88.9c0,.3,0,.6,0,.9v.87C47.45,53.88,47.45,54.19,47.46,54.5Z"/><path d="M54.57,51.79a.92.92,0,0,0-.88-.89h0a.91.91,0,0,0-.88.9c0,.9,0,1.8,0,2.7a.89.89,0,0,0,.87.88h0a.9.9,0,0,0,.88-.89v-2.7Z"/><path d="M59.91,51.81A.9.9,0,0,0,59,50.9h0a.87.87,0,0,0-.6.25.93.93,0,0,0-.28.67c0,.89,0,1.77,0,2.66a.91.91,0,0,0,.88.9.87.87,0,0,0,.6-.24,1,1,0,0,0,.28-.68q0-.45,0-.9v-.85Q59.93,52.26,59.91,51.81Z"/></svg>