<svg id="Layer_1" data-name="Layer 1" xmlns="http://www.w3.org/2000/svg" viewBox="0 0 85.04 85.04"><defs><style>.cls-1{fill:#1d1d1b;}</style></defs><path class="cls-1" d="M71.25,38.6a25,25,0,0,0-3.18-9.91c-4.91-8.48-12.22-13.31-22-14.24a26.47,26.47,0,0,0-10.92,1.33,27.46,27.46,0,0,0-9.62,5.56A1.15,1.15,0,0,0,25.2,23c.43.53,1.05.53,1.7,0l.59-.48,1.3,2.27a21.26,21.26,0,0,0-6,6c-.44-.25-.83-.47-1.21-.7a.79.79,0,0,1-.14-.13L22,29a1.1,1.1,0,1,0-1.9-1.09,27.5,27.5,0,0,0-3.81,13.89A1.09,1.09,0,0,0,17.45,43h3a1.11,1.11,0,0,0,1.24-1.17A34.63,34.63,0,0,1,22,38.34,18.29,18.29,0,0,1,46.77,25a16.92,16.92,0,0,1,4,2.21,1,1,0,0,1-.11.16c-2.76,2.76-5.51,5.52-8.28,8.27a.76.76,0,0,1-.61.12,7.23,7.23,0,0,0-2.93-.12,6.52,6.52,0,0,0-5.3,6.85,6.6,6.6,0,0,0,5.87,6,6.46,6.46,0,0,0,6.84-8.1.81.81,0,0,1,.25-.88c2.65-2.62,5.27-5.26,7.9-7.89l.41-.37.27.37A18.63,18.63,0,0,1,58.3,41.82c0,.79.47,1.25,1.13,1.22s1-.5,1-1.26a19.4,19.4,0,0,0-1-6.19c-.32-1-.74-1.93-1.14-2.94l7.13-4.12a25.19,25.19,0,0,1,3.82,12.36H68.19c-1.73,0-2.24.25-2.23,1.09s.5,1.06,2.2,1.06c.61,0,1.22,0,1.83,0a1.38,1.38,0,0,0,1.47-.76V40C71.39,39.55,71.31,39.08,71.25,38.6ZM19.5,40.86l-.51,0h-.52a25,25,0,0,1,2-8.91l.92.52a2.58,2.58,0,0,1,.29.2A20.74,20.74,0,0,0,19.5,40.86ZM38.86,21.48a20.88,20.88,0,0,0-8.17,2.21l-1.46-2.52A25.07,25.07,0,0,1,38.86,17Zm10.4,2.21a21,21,0,0,0-8.18-2.2v-4.8a25.68,25.68,0,0,1,11.44,1.37Zm-7,21.91A4.27,4.27,0,0,1,37,45.09a4.39,4.39,0,0,1-1-4.85,4.3,4.3,0,0,1,4.22-2.52c-.72.71-1.42,1.35-2,2.05a4.54,4.54,0,0,0-.91,1.42,2.77,2.77,0,0,0,4.45,2.92c.7-.61,1.34-1.29,2-2l.44-.41A4.08,4.08,0,0,1,42.24,45.6ZM55.06,27.77,44.32,38.52,40.7,42.14a1.31,1.31,0,0,1-.51.38.77.77,0,0,1-.62-.12.9.9,0,0,1-.14-.67c0-.18.23-.35.38-.5L54.17,26.87a2,2,0,0,1,.45-.38c.41-.21.87.08.89.69A4.89,4.89,0,0,1,55.06,27.77Zm2.1,3-.83-1.18a3.26,3.26,0,0,0,1.34-2.84A2.74,2.74,0,0,0,56.83,25a2.78,2.78,0,0,0-2.38-.73,3.65,3.65,0,0,0-2.11,1.33l-1.18-.83,3.36-5.84a24.44,24.44,0,0,1,9.64,7.79Z"/><path class="cls-1" d="M63.79,57.37a3,3,0,0,0-3.12-3.14q-16.81,0-33.63,0a3.86,3.86,0,0,0-1,.09,2.78,2.78,0,0,0-2.14,2.86c0,3.15,0,6.29,0,9.44a3.43,3.43,0,0,0,.15,1,3,3,0,0,0,2.08,2H61.54C63.27,69,63.83,67.73,63.8,66,63.74,63.12,63.77,60.24,63.79,57.37Zm-2,9.16c0,.9-.17,1.07-1.06,1.07H27c-.92,0-1.08-.16-1.08-1.11V57.25c0-1,.12-1.15,1.09-1.15H60.78c.91,0,1,.14,1,1.08Z"/><path class="cls-1" d="M63.92,40.89a1.08,1.08,0,0,0,0,2.15,1.08,1.08,0,1,0,0-2.15Z"/><path class="cls-1" d="M22.8,26.86a1.08,1.08,0,0,0,1.12-1.11,1,1,0,0,0-1-1.07,1.09,1.09,0,0,0-.1,2.18Z"/><path class="cls-1" d="M36.79,58.6h-.41a1.74,1.74,0,0,0-.55.07.49.49,0,0,0-.25.24,3.41,3.41,0,0,0-.18.58l-1,3.63-1-3.63a3.24,3.24,0,0,0-.19-.58.45.45,0,0,0-.25-.24,1.67,1.67,0,0,0-.54-.07h-.42a1.1,1.1,0,0,0-.61.15.66.66,0,0,0-.22.59v5.24a.83.83,0,0,0,.17.57.55.55,0,0,0,.44.19.55.55,0,0,0,.45-.19.86.86,0,0,0,.17-.57V60l1.06,4.22c0,.14.07.27.11.4a1.35,1.35,0,0,0,.14.35.81.81,0,0,0,.26.26.82.82,0,0,0,.88-.06.74.74,0,0,0,.24-.35c.05-.13.1-.33.17-.6L36.39,60v4.57a.81.81,0,0,0,.18.57.54.54,0,0,0,.43.19.58.58,0,0,0,.46-.19.86.86,0,0,0,.17-.57V59.34a.67.67,0,0,0-.23-.59A1.08,1.08,0,0,0,36.79,58.6Z"/><path class="cls-1" d="M43.2,61.72a1.52,1.52,0,0,0,1-1.45,1.53,1.53,0,0,0-.37-1,1.57,1.57,0,0,0-.42-.35,1.77,1.77,0,0,0-.62-.23A4.91,4.91,0,0,0,42,58.6H39.81a.9.9,0,0,0-.62.19.88.88,0,0,0-.19.64v5a.86.86,0,0,0,.19.63.82.82,0,0,0,.62.2h2a8,8,0,0,0,.91,0,3.1,3.1,0,0,0,.7-.18,1.7,1.7,0,0,0,.77-.66,1.82,1.82,0,0,0,.28-1A1.62,1.62,0,0,0,43.2,61.72Zm-2.86-2.11h1.09a2.72,2.72,0,0,1,1.09.17.65.65,0,0,1,.35.66.79.79,0,0,1-.11.43.71.71,0,0,1-.42.36,2.57,2.57,0,0,1-.77.09H40.34Zm1.44,4.61H40.34V62.29h1.4a2,2,0,0,1,1,.22.82.82,0,0,1,.35.73C43.14,63.89,42.69,64.22,41.78,64.22Z"/><path class="cls-1" d="M50.11,59.09a1.88,1.88,0,0,0-.7-.37,4.44,4.44,0,0,0-1.18-.12H46.51a.94.94,0,0,0-.64.19.84.84,0,0,0-.21.64v5.1a.86.86,0,0,0,.19.61.68.68,0,0,0,1,0,.91.91,0,0,0,.18-.61V62.65h1.23a2.87,2.87,0,0,0,1.86-.52,1.88,1.88,0,0,0,.62-1.54,2.26,2.26,0,0,0-.15-.85A1.65,1.65,0,0,0,50.11,59.09Zm-.92,2.12a1,1,0,0,1-.49.33,2.92,2.92,0,0,1-.79.1H47v-2h.91a1.77,1.77,0,0,1,1.19.29,1,1,0,0,1,.25.72A1,1,0,0,1,49.19,61.21Z"/><path class="cls-1" d="M56.19,61.82a2.91,2.91,0,0,0-.77-.38,7.64,7.64,0,0,0-1-.29L53.77,61a2.2,2.2,0,0,1-.39-.17,1.05,1.05,0,0,1-.3-.25.55.55,0,0,1-.11-.34.68.68,0,0,1,.32-.55,1.46,1.46,0,0,1,.84-.23,1.28,1.28,0,0,1,.82.21,1.84,1.84,0,0,1,.43.59,1.64,1.64,0,0,0,.26.38.58.58,0,0,0,.77-.08.65.65,0,0,0,.17-.43,1.19,1.19,0,0,0-.13-.54A1.86,1.86,0,0,0,56,59a2.48,2.48,0,0,0-.74-.4,3.35,3.35,0,0,0-1.06-.15,3.59,3.59,0,0,0-1.33.23,1.91,1.91,0,0,0-.86.65,1.64,1.64,0,0,0-.3,1,1.61,1.61,0,0,0,.28,1,2,2,0,0,0,.77.61A6.15,6.15,0,0,0,54,62.3c.36.09.64.16.86.23a1.43,1.43,0,0,1,.52.32.74.74,0,0,1,.2.53.85.85,0,0,1-.38.7,1.62,1.62,0,0,1-1,.28,1.58,1.58,0,0,1-.7-.14,1.18,1.18,0,0,1-.41-.35,2.38,2.38,0,0,1-.27-.53,1.15,1.15,0,0,0-.25-.4.52.52,0,0,0-.36-.14.58.58,0,0,0-.43.17.57.57,0,0,0-.17.42,1.62,1.62,0,0,0,.28.87,2.15,2.15,0,0,0,.73.71,3.18,3.18,0,0,0,1.62.37,3.35,3.35,0,0,0,1.41-.27,2.07,2.07,0,0,0,.91-.75,1.92,1.92,0,0,0,.31-1.08,1.84,1.84,0,0,0-.18-.85A1.52,1.52,0,0,0,56.19,61.82Z"/></svg>