<svg id="Layer_1" data-name="Layer 1" xmlns="http://www.w3.org/2000/svg" viewBox="0 0 85.04 85.04"><path d="M51.25,41.44V28.54A1.43,1.43,0,0,1,54,28.07a1.88,1.88,0,0,1,.07.53V54.25a1.43,1.43,0,1,1-2.86,0Z"/><path d="M42.65,44.63V35a1.43,1.43,0,0,1,2.8-.46,1.54,1.54,0,0,1,.06.48q0,9.63,0,19.25a1.44,1.44,0,1,1-2.87,0Z"/><path d="M36.92,47.9v6.31a1.43,1.43,0,1,1-2.86,0q0-6.34,0-12.71A1.4,1.4,0,0,1,35.5,40a1.42,1.42,0,0,1,1.42,1.55Z"/><path d="M28.32,51.13v3.13a1.43,1.43,0,1,1-2.86,0c0-2.12,0-4.23,0-6.35a1.43,1.43,0,1,1,2.86,0Z"/></svg>