<svg id="Layer_1" data-name="Layer 1" xmlns="http://www.w3.org/2000/svg" viewBox="0 0 85.04 85.04"><path d="M27.62,63.58H14.81c-1.25,0-1.69-.45-1.69-1.71V55.25c0-1.48.42-1.91,1.88-1.91H48.44a2.4,2.4,0,0,0,.46,0,1,1,0,0,0,.92-1.11,1,1,0,0,0-.91-1,3.26,3.26,0,0,0-.53,0H25.61v-.53l-.27-8-.57-17c0-.47,0-.95,0-1.43v0c0-1.21-.06-2.46-.17-3.69a2.69,2.69,0,0,0-2.68-2.49h-.14a2.74,2.74,0,0,0-2.67,2.78c-.12,3.34-.24,6.75-.35,10l-.11,3.08a4.61,4.61,0,0,0,0,.91,1,1,0,0,0,1.06,1h0a1,1,0,0,0,1.08-.94c0-.13,0-.26,0-.39l.09-2.76c.12-3.4.24-7,.36-10.7,0-.53.16-.73.56-.76a.47.47,0,0,1,.38.1.88.88,0,0,1,.2.6c.09,2.89.19,5.79.29,8.68L23,38.72c.11,3.06.21,6.06.31,9.09,0,.82,0,1.69,0,2.39,0,.31,0,.61,0,.92h-3V51a3.38,3.38,0,0,1,0-.45L20.39,47q.13-4.23.26-8.46a1.32,1.32,0,0,0-.3-1,1,1,0,0,0-.74-.3h0c-.67,0-1.07.45-1.09,1.23q-.19,5.87-.38,11.71c0,.25,0,.51-.05.79l0,.23h-2.9a6.25,6.25,0,0,0-1.43.09A3.57,3.57,0,0,0,11,54v9.1c.66,1.9,2,2.78,4.3,2.78h.16c2.78,0,5.61,0,8.34,0h3.86c.93,0,1.47-.41,1.47-1.12S28.55,63.58,27.62,63.58Z"/><path d="M73.47,54.85a3.5,3.5,0,0,0-3.66-3.68H66.39l0-.27c0-.21,0-.41,0-.6l0-1.12c-.12-3.4-.23-6.92-.35-10.41,0-1.76-.11-3.51-.16-5.27l-.1-3.16q-.12-4.12-.26-8.26v-.29A9.23,9.23,0,0,0,65.25,20a2.73,2.73,0,0,0-2.59-2.06l-.28,0a2.79,2.79,0,0,0-2.58,2.87c-.13,3.73-.25,7.51-.36,11.17l-.16,4.91c-.13,4-.26,8.23-.4,12.37,0,.42,0,.85-.07,1.26v.28l0,.35H57c-1.44,0-2.93,0-4.4,0a1.48,1.48,0,0,0-1.05.48,1.24,1.24,0,0,0-.08,1.06c.19.54.7.62,1.17.62H69.42c1.44,0,1.88.44,1.88,1.85v6.56c0,1.42-.41,1.83-1.82,1.83H32.1a2.36,2.36,0,0,0-.59,0,1.06,1.06,0,0,0-1,1.08,1,1,0,0,0,.94,1.09,3.28,3.28,0,0,0,.62,0H69.84a3.53,3.53,0,0,0,3.63-3.74ZM61.12,47.78c.12-4,.26-7.92.4-12.29l0-1.29c0-1.4.09-2.79.14-4.19l.08-2.09L62,20.86c0-.48.17-.67.56-.68h0c.17,0,.53,0,.56.72l.25,7.79q.18,5.83.37,11.68L64,46.64l.14,4v.52h-3c0-.33,0-.65,0-1v0C61.11,49.33,61.1,48.57,61.12,47.78Z"/><path d="M31.3,33.16l.09-.08a15.51,15.51,0,0,1,21-.62c.15.12.29.26.43.39l0,0,.42.39a1.22,1.22,0,0,0,.8.32,1.09,1.09,0,0,0,.75-.32,1.07,1.07,0,0,0,0-1.59,3.5,3.5,0,0,0-.39-.38l-.06-.06a17.32,17.32,0,0,0-10.85-4.73,19.8,19.8,0,0,0-8.68,1.61,17.5,17.5,0,0,0-5,3.45,1.1,1.1,0,0,0-.15,1.68A1.13,1.13,0,0,0,31.3,33.16Z"/><path d="M50.07,36.93a1,1,0,0,0,1,0,1.27,1.27,0,0,0,.58-1.15V35.7l0-.05-.1-.14,0,0a3.18,3.18,0,0,0-.51-.64A12.71,12.71,0,0,0,36.7,32.67a16.46,16.46,0,0,0-2.81,1.89l-.73.57a1,1,0,0,0-.41.71,1.09,1.09,0,0,0,.28.84,1.05,1.05,0,0,0,.8.38,1.22,1.22,0,0,0,.79-.31,1.54,1.54,0,0,0,.19-.17l.08-.08a10.81,10.81,0,0,1,14.63,0l0,0,0,0,0,0A2.61,2.61,0,0,0,50.07,36.93Z"/><path d="M47.21,40.42h0a1.1,1.1,0,0,0,.93-.68,1.51,1.51,0,0,0-.31-1.23,8,8,0,0,0-5.59-2.33h0l-.51,0c-.35,0-.74.07-1.12.14a7.81,7.81,0,0,0-4.05,2.14,1.11,1.11,0,0,0-.1,1.6,1.06,1.06,0,0,0,.77.35,1.29,1.29,0,0,0,.82-.33.86.86,0,0,0,.14-.13h0a.46.46,0,0,1,.07-.07,5.78,5.78,0,0,1,3.92-1.51h0a5.87,5.87,0,0,1,4,1.52A1.85,1.85,0,0,0,47.21,40.42Z"/><path d="M42.2,40.4a4,4,0,0,0-2.65,1.06A1.09,1.09,0,0,0,39.39,43a1.13,1.13,0,0,0,1.59.09,1.71,1.71,0,0,1,2.42,0,1.43,1.43,0,0,0,.84.32A1,1,0,0,0,45,43a1.09,1.09,0,0,0-.23-1.62,4,4,0,0,0-2.61-1Z"/><path d="M25.05,59.32a1.13,1.13,0,0,0-.78.35,1.09,1.09,0,0,0-.3.78,1.08,1.08,0,0,0,1.07,1c.33,0,.67,0,1,0h2a1.07,1.07,0,0,0,1.07-1,1.1,1.1,0,0,0-.3-.79,1,1,0,0,0-.77-.34C27.09,59.3,26.09,59.3,25.05,59.32Z"/><path d="M32,59.32a1.09,1.09,0,0,0-1.17,1.07A1.07,1.07,0,0,0,32,61.5h2.86A1,1,0,0,0,36,60.44a1.06,1.06,0,0,0-1.13-1.12C34,59.3,33.05,59.3,32,59.32Z"/><path d="M63.91,61.51h2.36a1.1,1.1,0,0,0,1.1-1.1,1.13,1.13,0,0,0-1.13-1.08c-.89,0-1.82,0-2.85,0a1.1,1.1,0,0,0-1.15,1.11,1.08,1.08,0,0,0,1.11,1.07Z"/><path d="M18.13,59.33a1.06,1.06,0,0,0-1,1.1,1,1,0,0,0,1,1.06c.34,0,.69,0,1,0h1.95a1.09,1.09,0,0,0,1.09-1.1,1.07,1.07,0,0,0-1.05-1.07C20.12,59.3,19.1,59.3,18.13,59.33Z"/><path d="M38.82,59.32a1.06,1.06,0,0,0-1.06,1.12,1,1,0,0,0,1,1.06h3a1.08,1.08,0,0,0,.78-1.83,1.06,1.06,0,0,0-.77-.34C40.82,59.3,39.82,59.3,38.82,59.32Z"/><path d="M57.1,61.51h1.43c.32,0,.66,0,1,0a1.09,1.09,0,0,0,1.07-1.05,1.16,1.16,0,0,0-.3-.77,1.13,1.13,0,0,0-.79-.35c-1,0-2,0-3,0a1.08,1.08,0,0,0-1.06,1.06,1.06,1.06,0,0,0,1.07,1.11Z"/></svg>