<svg id="Layer_1" data-name="Layer 1" xmlns="http://www.w3.org/2000/svg" viewBox="0 0 85.04 85.04"><path d="M68.09,36.82A26.08,26.08,0,0,0,47.28,15.91c-.64-.13-1.3-.22-1.93-.31l-.9-.13H40.59l-.55.07-1.23.17a26,26,0,0,0-12.74,5.64c-.75.62-1.45,1.31-2.13,2l-.32.32a1,1,0,0,0-.31.68.89.89,0,0,0,.31.63.87.87,0,0,0,1.27,0l.21-.22c0-.06.11-.11.16-.16,6.24-6.05,13.61-8.34,21.9-6.8A23.3,23.3,0,0,1,62.5,27.88a23.62,23.62,0,0,1,4.15,15,50,50,0,0,1-1.67,10,77.88,77.88,0,0,1-3.62,10.77,1,1,0,0,1-1.39.62l0-.07c0-.11.07-.22.11-.33l.57-1.64c.92-2.66,1.84-5.31,2.77-8a3.78,3.78,0,0,0,0-2.71,1.09,1.09,0,0,1,0-.6,45.8,45.8,0,0,0,1.26-9.1,19.13,19.13,0,0,0-.88-6.47,18.44,18.44,0,0,0-5.27-8,23.41,23.41,0,0,0-18.29-5.95,22.53,22.53,0,0,0-11.7,4.29C22.74,30,20,35.65,20.39,42.6a50.1,50.1,0,0,0,1.23,8.3,1.18,1.18,0,0,1,0,.65,3.7,3.7,0,0,0,0,2.56c.37,1,.73,2.08,1.09,3.12l2.42,7a1.1,1.1,0,0,1-.8.07,1.22,1.22,0,0,1-.61-.72,69.38,69.38,0,0,1-5.12-18.88,25.31,25.31,0,0,1,.62-9.5,24.63,24.63,0,0,1,3.53-7.57.9.9,0,0,0-.14-1.35.82.82,0,0,0-.65-.17,1.05,1.05,0,0,0-.67.47A25.43,25.43,0,0,0,16.6,39.86a32.75,32.75,0,0,0,.4,7,74.5,74.5,0,0,0,5.06,17.55,2.7,2.7,0,0,0,1.45,1.5,2.77,2.77,0,0,0,2.17.07.36.36,0,0,0,0,.09c0,.11.09.22.12.33A3.57,3.57,0,0,0,28.56,69c1,.26,1.94.56,2.87.84l.23.07a3.9,3.9,0,0,0,2.46,0l3.3-1.16a4,4,0,0,0,2.15-1.82A4.75,4.75,0,0,0,40,62.77L38.7,59.08l-.78-2.27c-.27-.76-.53-1.53-.79-2.3-.71-2-1.43-4.14-2.18-6.2a4.59,4.59,0,0,0-5.49-3,23,23,0,0,0-2.22.72l-1.16.41A4,4,0,0,0,24,48l-.73,1-.18.25a1.15,1.15,0,0,1-.06-.21,31.77,31.77,0,0,1-.85-8.61,19.06,19.06,0,0,1,.8-4.61,16.85,16.85,0,0,1,6.76-8.74,22,22,0,0,1,16.39-3.66,20.92,20.92,0,0,1,10.94,5.12,16.07,16.07,0,0,1,5.73,12.76c0,1.59-.21,3.21-.38,4.77l-.07.67a18.36,18.36,0,0,1-.32,1.82l-.15.7L61.71,49c-.22-.3-.41-.56-.59-.83a4.2,4.2,0,0,0-2.32-1.77l-1.45-.49c-.4-.15-.8-.29-1.21-.42a4.65,4.65,0,0,0-6.1,3C48.38,53.14,46.7,58,45,62.83a4.66,4.66,0,0,0,3,6.07l1.62.57,1.23.42a4,4,0,0,0,1.34.24A3.91,3.91,0,0,0,53.26,70c1.06-.3,2.31-.67,3.56-1a3.39,3.39,0,0,0,2.27-2.18l.21-.58.06-.16a2.86,2.86,0,0,0,3.76-1.91,71.51,71.51,0,0,0,5.19-19.25A27,27,0,0,0,68.09,36.82ZM52.49,68.28a2.81,2.81,0,0,1,.08-.29L53,66.63c.22-.61.43-1.23.64-1.85a.9.9,0,0,0-.52-1.25,1,1,0,0,0-.33-.06.68.68,0,0,0-.32.07,1.08,1.08,0,0,0-.53.65c-.31.86-.61,1.72-.92,2.61L50.65,68l-.83-.32a13.23,13.23,0,0,1-2-.85,2.67,2.67,0,0,1-1.11-3.23c1.85-5.4,3.51-10.2,5.08-14.67a2.82,2.82,0,0,1,3.62-1.76l1.58.54.62.21c-1.47,4.26-2.93,8.45-4.37,12.64l0,.1a1.52,1.52,0,0,0-.13.54.85.85,0,0,0,.76.86.87.87,0,0,0,1-.63l1-3c.77-2.21,1.53-4.42,2.3-6.64l1-2.82c0-.06,0-.12.08-.19v0l.11.11.32.44c.63.89,1.29,1.81,1.92,2.72a1.48,1.48,0,0,1,.19,1.38c-.37,1.06-.74,2.12-1.1,3.17-1.1,3.16-2.23,6.43-3.37,9.63a1.75,1.75,0,0,1-.94,1c-.93.34-1.88.62-2.89.9l-1,.3ZM33.29,49c.68,1.93,1.35,3.87,2,5.8l1.5,4.31c.47,1.37.94,2.73,1.42,4.1a2.9,2.9,0,0,1-1.93,4L35,67.69l-.65.22-.6-1.75c-.39-1.11-.77-2.21-1.15-3.31l-4.17-12a.5.5,0,0,0-.05-.13l0-.07a.9.9,0,1,0-1.69.59c.35,1,.7,2.05,1.06,3.08l4.69,13.54c0,.11.07.22.11.36s0,.07,0,.12l-1-.32c-1.08-.32-2.1-.62-3.1-1a1.63,1.63,0,0,1-.77-.91c-1.12-3.15-2.23-6.36-3.3-9.47-.38-1.08-.75-2.16-1.12-3.23a1.52,1.52,0,0,1,.21-1.48l.5-.71c.53-.77,1.08-1.56,1.65-2.32a1.91,1.91,0,0,1,.76-.63l.14-.05a32.31,32.31,0,0,1,3.35-1.16,2.74,2.74,0,0,1,.74-.1A2.87,2.87,0,0,1,33.29,49Z"/></svg>