<svg id="Layer_1" data-name="Layer 1" xmlns="http://www.w3.org/2000/svg" viewBox="0 0 85.04 85.04"><path d="M72.71,59.89h-1.8V58h.51c.47,0,.92,0,1.37,0a1.28,1.28,0,0,0,1.08-2.11,1.51,1.51,0,0,0-1.09-.39H70.87v-.3a2.78,2.78,0,0,0-1.74-2.76,2.86,2.86,0,0,0-3.27.61,1,1,0,0,1-.63.23c-.38,0-.76,0-1.14,0a10.73,10.73,0,0,0-2,.1,5.54,5.54,0,0,0-4.6,4.28H53.11a12.88,12.88,0,0,0-11.71-11,12.48,12.48,0,0,0-8.7,2.52,12.8,12.8,0,0,0-5.05,8.44,14.11,14.11,0,0,1-10.41-3.19A13.56,13.56,0,0,1,12.45,45C12,39.55,15.59,32.72,22,31.1v1.79c0,2,0,4,0,6a4.55,4.55,0,0,0,4.8,4.8H61.66a4.55,4.55,0,0,0,4.8-4.81v-4h.88a2.59,2.59,0,0,0,2.7-2.7q0-3,0-6a2.58,2.58,0,0,0-2.64-2.63h-.94V19.25a4.51,4.51,0,0,0-4.6-4.59H26.63A4.49,4.49,0,0,0,22,19.25v1.58c0,2.24,0,4.56,0,6.84,0,.56-.13.75-.69.93A16.14,16.14,0,0,0,26,60.19h1.56A12.93,12.93,0,0,0,39.34,72.3c.37,0,.74,0,1.11,0a12.42,12.42,0,0,0,7.42-2.43,12.92,12.92,0,0,0,5.38-9.73h4.19c.83,2.54,2.34,4,4.62,4.33a10.42,10.42,0,0,0,1.85.08c.39,0,.8,0,1.19,0a1.57,1.57,0,0,1,.86.32,3,3,0,0,0,2.89.64,2.91,2.91,0,0,0,2-2.11,4.27,4.27,0,0,0,.09-.81c0-.09,0-.17,0-.26h1.81c.91,0,1.44-.45,1.46-1.22a1.2,1.2,0,0,0-.31-.89A1.55,1.55,0,0,0,72.71,59.89Zm-4.34,2.64a.82.82,0,0,1-.13.55.47.47,0,0,1-.55,0,.82.82,0,0,1-.13-.55q0-3.62,0-7.22a.75.75,0,0,1,.15-.54.31.31,0,0,1,.17-.05H68a.84.84,0,0,1,.37.58c0,.89,0,1.8,0,2.68v4.54ZM65,55.8v6.38l-.9-.07a11.11,11.11,0,0,1-2.28-.29,3,3,0,0,1-2-3.18,3.12,3.12,0,0,1,2.84-2.83,9.1,9.1,0,0,1,.91,0h.77ZM50.71,59.62a10.25,10.25,0,0,1-3.13,7.24,10.13,10.13,0,0,1-7.12,3h-.14A10.38,10.38,0,0,1,33,66.69a10.23,10.23,0,0,1-2.95-7.33,10.37,10.37,0,0,1,10.35-10.2h.11A10.38,10.38,0,0,1,50.71,59.62ZM64,24.58A1.24,1.24,0,0,0,65.37,26c.57,0,1.19,0,1.79,0h0a.39.39,0,0,1,.28.08.43.43,0,0,1,.08.31c0,2.11,0,3.87,0,5.52a.33.33,0,0,1-.41.42c-.58,0-1.13,0-1.8,0A1.23,1.23,0,0,0,64,33.68c0,1,0,1.9,0,2.85,0,.73,0,1.46,0,2.18a2.15,2.15,0,0,1-2.39,2.42H27a2.16,2.16,0,0,1-2.42-2.45V19.58A2.17,2.17,0,0,1,27,17.16H61.46c1.72,0,2.49.78,2.49,2.52v1.87C64,22.56,64,23.57,64,24.58Z"/><path d="M44.82,60.92l-.29-.21a12.39,12.39,0,0,0-1.5-1c-1.3-.67-1.73-1.39-1.4-2.35V55.74a1.47,1.47,0,0,0-.42-1,1.24,1.24,0,0,0-.86-.32,1.26,1.26,0,0,0-1.22,1.34v.7c0,1,0,2,0,3a1.78,1.78,0,0,0,.62,1.19c1.09.81,2.25,1.56,3.37,2.29l.28.18a1.54,1.54,0,0,0,.81.26,1.23,1.23,0,0,0,1-.57A1.26,1.26,0,0,0,44.82,60.92Z"/><path d="M60.44,19.07H28.05c-1.2,0-1.6.4-1.6,1.57v17c0,1.17.4,1.57,1.6,1.57h32.4c1.21,0,1.6-.4,1.6-1.64V20.7C62.05,19.47,61.66,19.07,60.44,19.07Zm-.95,2.56V36.69h-4V21.63Zm-6.6,0V36.67h-4V21.61Zm-6.62,0V36.67h-4V21.61Zm-6.62,0V36.66h-4V21.6Zm-6.63,0V36.69H29V21.61Z"/></svg>