<svg id="Layer_1" data-name="Layer 1" xmlns="http://www.w3.org/2000/svg" viewBox="0 0 85.04 85.04"><path d="M60.78,25h0a1.14,1.14,0,0,1,1.62,0c9.08,9.28,10,25.87.05,36.57a1.14,1.14,0,0,1-1.66,0h0a1.15,1.15,0,0,1,0-1.56,24.23,24.23,0,0,0,6.43-16.67,24.24,24.24,0,0,0-6.46-16.73A1.15,1.15,0,0,1,60.78,25Z"/><path d="M56.81,57.69a1.17,1.17,0,0,1,0-1.58,19.24,19.24,0,0,0,0-25.62,1.16,1.16,0,0,1,0-1.59h0a1.15,1.15,0,0,1,1.66,0A21.34,21.34,0,0,1,64,43.24a20.81,20.81,0,0,1-5.53,14.44,1.15,1.15,0,0,1-1.68,0Z"/><path d="M52.82,53.59h0a1.12,1.12,0,0,1-.08-1.51,13.7,13.7,0,0,0,0-17.55A1.13,1.13,0,0,1,52.84,33h0a1.16,1.16,0,0,1,1.67,0c5.16,5.58,4.91,14.9,0,20.5A1.15,1.15,0,0,1,52.82,53.59Z"/><path d="M43.91,47.81a4.7,4.7,0,1,1-1.47-9.15,4.62,4.62,0,0,1,4.76,4.75A4.81,4.81,0,0,1,43.91,47.81Zm.72-5.18A2.39,2.39,0,0,0,43,41a2.29,2.29,0,0,0-2.93,2.22,2.32,2.32,0,0,0,2.29,2.37A2.29,2.29,0,0,0,44.63,42.63Z"/><path d="M48.75,37l0,0c.84-.7,1.34-.49,1.82.08a10.31,10.31,0,0,1,0,12.54,1.15,1.15,0,0,1-1.71.09h0a1.13,1.13,0,0,1-.11-1.46,8.28,8.28,0,0,0-.15-10A1,1,0,0,1,48.75,37Z"/><path d="M24.25,61.7h0a1.13,1.13,0,0,1-1.62,0c-9.08-9.28-10-25.87-.05-36.57a1.15,1.15,0,0,1,1.66,0h0a1.15,1.15,0,0,1,0,1.56,24.25,24.25,0,0,0-6.43,16.67,24.19,24.19,0,0,0,6.46,16.73A1.16,1.16,0,0,1,24.25,61.7Z"/><path d="M28.21,29a1.16,1.16,0,0,1,0,1.58,19.21,19.21,0,0,0,0,25.62,1.17,1.17,0,0,1,0,1.6h0a1.14,1.14,0,0,1-1.65,0A21.32,21.32,0,0,1,21,43.45,20.82,20.82,0,0,1,26.54,29a1.14,1.14,0,0,1,1.67,0Z"/><path d="M32.21,33.1h0a1.12,1.12,0,0,1,.07,1.52,13.7,13.7,0,0,0,0,17.54,1.14,1.14,0,0,1-.08,1.54h0a1.17,1.17,0,0,1-1.67,0c-5.16-5.58-4.91-14.89,0-20.5A1.15,1.15,0,0,1,32.21,33.1Z"/><path d="M36.27,49.75h0c-.84.7-1.35.5-1.82-.08a10.31,10.31,0,0,1,0-12.54,1.15,1.15,0,0,1,1.71-.09h0a1.13,1.13,0,0,1,.11,1.46,8.28,8.28,0,0,0,.15,10A1,1,0,0,1,36.27,49.75Z"/></svg>