<svg id="Layer_1" data-name="Layer 1" xmlns="http://www.w3.org/2000/svg" viewBox="0 0 85.04 85.04"><path d="M78.84,51.54c0-1.78,0-3.63,0-5.45a27.54,27.54,0,0,0-.36-4.34,27.81,27.81,0,0,0-33.36-22.6,26.71,26.71,0,0,0-14.43,8.22A27.09,27.09,0,0,0,23.26,45.7c-.06,3,0,6.1,0,9.07,0,1.35,0,2.71,0,4.07A4.3,4.3,0,0,0,24.62,62a4.44,4.44,0,0,0,3,1.26c-.2,3.29,1.26,5.45,4.32,6.41a4.57,4.57,0,0,0,1.45,3.24,4.51,4.51,0,0,0,3.06,1.21h.28c.65,0,1.32,0,2,0h1.06a4.41,4.41,0,0,0,4.38-4.37c0-4.81,0-9.88,0-16.45A4.41,4.41,0,0,0,40.63,49a7.52,7.52,0,0,0-1.5-.11h-.08l-.83,0a18.83,18.83,0,0,0-2.49.07A4.4,4.4,0,0,0,31.9,53.3L30,54.14v-.07c0-.79,0-1.58,0-2.37,0-1.82,0-3.7,0-5.56a20.5,20.5,0,0,1,3.1-10.77c.48-.76,1-1.49,1.53-2.19.22-.3.44-.59.64-.88l.52.26a7.64,7.64,0,0,0,1.11.5,5.77,5.77,0,0,0,5.15-.8,16.38,16.38,0,0,1,12-2.35,16.18,16.18,0,0,1,6.14,2.45,5.31,5.31,0,0,0,4.06.91,10.54,10.54,0,0,0,1.78-.58l.74-.29.08.09a21,21,0,0,1,5.22,14c0,1.78,0,3.58,0,5.33v2.1c0,.09,0,.17,0,.24l-1.91-.83v0a4.42,4.42,0,0,0-4.56-4.37H62.36A4.43,4.43,0,0,0,58,53.29V69.74a4.42,4.42,0,0,0,4.38,4.38h.79c.86,0,1.76,0,2.64,0a5.12,5.12,0,0,0,1.81-.42,4.34,4.34,0,0,0,2.59-4c3-1,4.51-3.13,4.32-6.41a4.6,4.6,0,0,0,4.37-4.76C78.83,56.19,78.84,53.83,78.84,51.54ZM72.08,64.29a3,3,0,0,1-1.89,2.76V56a2.94,2.94,0,0,1,1.89,2.73C72.11,60.5,72.11,62.38,72.08,64.29ZM30,58.76A3,3,0,0,1,31.91,56V67.05A3,3,0,0,1,30,64.29C30,62.51,30,60.7,30,58.76ZM64.84,30.53a3,3,0,0,1-3.28-.22,18.41,18.41,0,0,0-5.7-2.52,20.72,20.72,0,0,0-4.93-.61,18.82,18.82,0,0,0-10.18,3,3.45,3.45,0,0,1-3,.57,3.35,3.35,0,0,1-.46-.18l-.06,0A20.1,20.1,0,0,1,50.81,25.3h.27A20.05,20.05,0,0,1,64.84,30.53ZM27.59,56v4.84a2,2,0,0,1-1.92-2c0-1.27,0-2.56,0-3.81,0-3.09-.09-6.29.09-9.42C26.31,35,31.49,27.43,41.12,23a22.61,22.61,0,0,1,9.54-2.11,24.24,24.24,0,0,1,4.05.34c10.11,1.74,17,7.59,20.51,17.4A22.36,22.36,0,0,1,76.42,46c0,3.44,0,6.94,0,10.32v2.27a2,2,0,0,1-1.92,2.17V46.44A23.46,23.46,0,0,0,28.8,38.82a22.57,22.57,0,0,0-1.21,7.38Zm6.76,7.81V53.71a2.12,2.12,0,0,1,2.38-2.39H39.5a2.07,2.07,0,0,1,2.19,2.19c0,5.19,0,10.57,0,16a2.08,2.08,0,0,1-2.2,2.2H36.63a2.1,2.1,0,0,1-2.28-2.27ZM63.79,51.32h1.65a2.1,2.1,0,0,1,2.31,2.29V69.34A2.11,2.11,0,0,1,65.4,71.7H62.58a2.08,2.08,0,0,1-2.18-2.16V53.49a2.08,2.08,0,0,1,2.16-2.17Z"/><path d="M28.34,25.39a12.79,12.79,0,0,0-.13-4A10.2,10.2,0,0,0,27,18l0-.05a11.42,11.42,0,0,0-8.59-5.68l-.06,0-.08,0H15.84l-.17.05-.07,0a11.37,11.37,0,0,0-6.9,3.45l-.09.1A13.26,13.26,0,0,0,7,18a.7.7,0,0,1-.13.16l0,.05a10.5,10.5,0,0,0-1.13,3.51,11.54,11.54,0,0,0,.19,5h0l0,.11a11.26,11.26,0,0,0,10.47,8.37c.31,0,.61,0,.91,0a10.56,10.56,0,0,0,6-1.91A11.56,11.56,0,0,0,28.34,25.39ZM12,24.49a14.92,14.92,0,0,1,0-1.64c0-.26.17-.39.47-.41h1.22v2.48h-.22c-.37,0-.71,0-1.05,0h0A.41.41,0,0,1,12,24.49ZM15.74,22a.57.57,0,0,1,.13-.24c.94-1,1.89-1.91,2.85-2.84a.4.4,0,0,1,.16-.08A1.11,1.11,0,0,1,19,19a2.09,2.09,0,0,1-.84,2.12c-.68.58-1.29,1.21-1.94,1.88l-.44.46v0C15.73,22.93,15.73,22.45,15.74,22Zm.48,3.9L19,23.11c0,1.74,0,3.49,0,5.23a1.15,1.15,0,0,1-.05.2.77.77,0,0,1-.2-.09c-.67-.64-1.32-1.3-2-2l-.57-.55Zm4.67-7.69a2.06,2.06,0,0,0-3.49-.84l-2.89,2.89a.59.59,0,0,1-.5.21c-.54,0-1.08,0-1.55,0A2.43,2.43,0,0,0,10,22.57a10.11,10.11,0,0,0,0,2.2A2.42,2.42,0,0,0,12.2,26.9L9.59,29.52A9.26,9.26,0,0,1,10,17.32a9.31,9.31,0,0,1,7-3.14,9.17,9.17,0,0,1,5.87,2.08Zm-6.08,9.23.62.62c.62.62,1.25,1.25,1.87,1.89a2.07,2.07,0,0,0,2.37.6A2.1,2.1,0,0,0,21,28.4v-7a.61.61,0,0,1,.2-.51c.74-.71,1.46-1.44,2.18-2.16l.84-.84.12-.11a9.43,9.43,0,0,1-13.2,13.31Z"/></svg>