<svg id="Layer_1" data-name="Layer 1" xmlns="http://www.w3.org/2000/svg" viewBox="0 0 85.04 85.04"><path d="M21.28,28.05c3.21.32,4.92,2,5.21,5.17a1.25,1.25,0,0,0,1.27,1.28c.75,0,1.22-.48,1.31-1.32a8.42,8.42,0,0,1,.27-1.5,5.12,5.12,0,0,1,4.81-3.62c.86-.07,1.35-.53,1.36-1.28a1.25,1.25,0,0,0-1.24-1.3c-3.21-.33-4.92-2-5.2-5.18A1.27,1.27,0,0,0,27.79,19a1.25,1.25,0,0,0-1.3,1.24c-.32,3.2-2,4.92-5.17,5.2A1.27,1.27,0,0,0,20,26.75,1.25,1.25,0,0,0,21.28,28.05Zm6.5-3.29c.49.49,1.41,1.45,2,2l-2,2-2-2C26.29,26.27,27.2,25.32,27.78,24.76Z"/><path d="M56.48,23.83a.8.8,0,0,0,.81.81c.48,0,.78-.3.84-.84a4.41,4.41,0,0,1,.17-.95,3.25,3.25,0,0,1,3.05-2.3c.55,0,.86-.33.86-.81a.79.79,0,0,0-.78-.83,3.28,3.28,0,0,1-3.31-3.28.79.79,0,0,0-.81-.81.79.79,0,0,0-.82.79,3.29,3.29,0,0,1-3.29,3.3.82.82,0,0,0,0,1.64A3.27,3.27,0,0,1,56.48,23.83Zm.83-5.2,1.09,1.1c-.32.31-.74.74-1.1,1.11l-1.1-1.12Z"/><path d="M65.82,46.49a22.76,22.76,0,0,0-3.4-10.26,23,23,0,0,0-3.26-4.11,1.37,1.37,0,1,0-2,1.87c.13.15.27.28.41.43a20.24,20.24,0,0,1,4.72,20A19.61,19.61,0,0,1,57.22,63a1.37,1.37,0,1,0,1.93,1.94A22.89,22.89,0,0,0,65.54,52.7c.15-.85.25-1.7.37-2.55V46.88A2.74,2.74,0,0,1,65.82,46.49Z"/><path d="M49.24,29.64A3,3,0,0,0,46,27.05a4.5,4.5,0,0,0-2.05.8q-7.2,4.51-14.39,9a1.65,1.65,0,0,1-.79.23c-1.62,0-3.25,0-4.87.09a4.83,4.83,0,0,0-4.29,4.63q0,6.71,0,13.41A4.83,4.83,0,0,0,24,59.86c1.62.11,3.25,0,4.87.09a1.59,1.59,0,0,1,.75.21l14.43,9a6.52,6.52,0,0,0,1.36.65,2.86,2.86,0,0,0,3.78-2.07,5.86,5.86,0,0,0,.18-1.5q0-8.87,0-17.71t0-17.76A7.41,7.41,0,0,0,49.24,29.64ZM28.47,57.29c-.1,0-.54.05-.62.05H24.44a2.23,2.23,0,0,1-2.3-2.24q0-6.59,0-13.16a2.23,2.23,0,0,1,2.3-2.25l4,0ZM46.8,66.35a6.11,6.11,0,0,1-.06.86c0,.29-.17.45-.49.3s-.36-.16-.52-.26q-7.23-4.52-14.45-9a.71.71,0,0,1-.38-.69q0-9,0-18a.7.7,0,0,1,.37-.69q7.2-4.49,14.37-9c.21-.12.43-.21.65-.32s.41,0,.44.26a5.46,5.46,0,0,1,.07.9V66.35Z"/><path d="M58.42,41.08A17.22,17.22,0,0,0,55,36.24a1.35,1.35,0,0,0-1.62-.3,1.25,1.25,0,0,0-.72,1.42,2.72,2.72,0,0,0,.64,1.06,14.5,14.5,0,0,1,3.84,12.32,14.18,14.18,0,0,1-4,8,1.38,1.38,0,1,0,2,1.92,17.23,17.23,0,0,0,5-12A17.66,17.66,0,0,0,58.42,41.08Z"/></svg>