<svg id="Layer_1" data-name="Layer 1" xmlns="http://www.w3.org/2000/svg" viewBox="0 0 85.04 85.04"><path d="M67.24,57.88c-1.35-5.54-5-9.07-10.86-10.48l0-5.34q0-9.57.1-19.15a7.05,7.05,0,0,0-1.17-4.22,6.45,6.45,0,0,0-5.47-2.89c-.76,0-1.51,0-2.27,0h-.82V14.07a3.14,3.14,0,0,0-3.3-3.29H32.66a3.13,3.13,0,0,0-3.32,3.33V15.8H26.67a6.53,6.53,0,0,0-6.85,6.73c-.08,10.75-.13,21.69-.18,32.27l0,5.45a6.62,6.62,0,0,0,1.16,3.89,6.74,6.74,0,0,0,5.86,2.93H41.48c.35,0,.49,0,.65.32a13.51,13.51,0,0,0,11.89,7,14.19,14.19,0,0,0,2.82-.28,13.57,13.57,0,0,0,10.4-16.22ZM54,49.94h.13a10.87,10.87,0,0,1,7.71,3.31,10.64,10.64,0,0,1,3,7.59,11,11,0,0,1-3.35,7.84,10.78,10.78,0,0,1-7.53,3h-.19A11,11,0,0,1,43.09,60.66,11,11,0,0,1,54,49.94ZM28.51,60.12c-1.34,0-1.79-.45-1.79-1.8V52.39H43.34a13.82,13.82,0,0,0-2.92,7.73ZM22.45,33.36v0c0-3.62,0-7.23.05-10.84a4,4,0,0,1,4-4h3.88c1.19,0,1.63-.46,1.64-1.67V15.9c0-.56,0-1.12,0-1.68s.17-.77.75-.77H43.37c.55,0,.73.17.74.73V17a1.3,1.3,0,0,0,1.45,1.44c.57,0,1.15,0,1.72,0h2.5a3.89,3.89,0,0,1,4,4c0,6.21,0,12.52-.07,18.64l0,5.82c0,.09,0,.19,0,.3L52,47.36v-7c0-5.29,0-10.76,0-16.14A4.22,4.22,0,0,0,47.83,20h-.06c-4.68.06-9.41.05-14,0H28.26a3.92,3.92,0,0,0-4.2,4.17V58.61a3.92,3.92,0,0,0,4.2,4.17H40.53l.34,1.57H36.14c-3.14,0-6.38,0-9.57,0h-.09a4.14,4.14,0,0,1-2.94-1.19,4.22,4.22,0,0,1-1.23-3.07C22.39,51.2,22.42,42.13,22.45,33.36Zm26.89-.51v7H26.74v-7ZM28.17,22.68H47.94a1.26,1.26,0,0,1,1.41,1.16c0,1.5,0,3,0,4.53V30H26.73V28.74c0-1.65,0-3.14,0-4.64A1.32,1.32,0,0,1,28.17,22.68Zm-1.42,20H49.34V48l-.56.26a11.11,11.11,0,0,0-1.7.9,3.42,3.42,0,0,1-2,.54H26.75Z"/><path d="M51.8,67.34l.1-.08-.08.09,1.27,1.06a1.45,1.45,0,0,0,.91.35,1.38,1.38,0,0,0,.89-.34l1.61-1.34.1-.07c1.49-1.23,3-2.5,4.5-3.8a4.9,4.9,0,0,0,.57-6.65,4.83,4.83,0,0,0-6.48-1.27,1.82,1.82,0,0,1-2.37,0,4.8,4.8,0,0,0-4.91-.1,5,5,0,0,0-2.61,4.33,4.76,4.76,0,0,0,1.63,3.72C48.54,64.63,50.2,66,51.8,67.34ZM49,57.73a2.27,2.27,0,0,1,1.35-.48,2.24,2.24,0,0,1,1.13.32,10.32,10.32,0,0,1,1,.66l.38.25c1,.67,1.29.67,2.32,0l.4-.28c.28-.19.59-.4.9-.59a2.32,2.32,0,0,1,3.05.59,2.28,2.28,0,0,1-.28,3.09c-1.21,1-2.42,2-3.7,3.11l0,0L54,65.67,52.7,64.59c-1.34-1.13-2.73-2.29-4.09-3.48a2.22,2.22,0,0,1-.53-1.06A2.09,2.09,0,0,1,49,57.73Z"/></svg>