<svg id="Layer_1" data-name="Layer 1" xmlns="http://www.w3.org/2000/svg" viewBox="0 0 85.04 85.04"><defs><style>.cls-1{stroke:#000;stroke-miterlimit:10;stroke-width:0.25px;}</style></defs><path class="cls-1" d="M71,35.85a28.86,28.86,0,0,0-6.12-14.74,32.88,32.88,0,0,0-2.41-2.73,1.32,1.32,0,0,0-2.24.45,1.47,1.47,0,0,0,.47,1.61A26.42,26.42,0,0,1,68.53,38c0,5.81-.91,9.84-2.78,13.66a26.46,26.46,0,0,1-5,7.05,1.61,1.61,0,0,0-.61,1.32A1.26,1.26,0,0,0,61,61.21a1.48,1.48,0,0,0,1.69-.54A29.75,29.75,0,0,0,71,35.85Z"/><path class="cls-1" d="M61.68,31.1a22.24,22.24,0,0,0-4.67-7,1.36,1.36,0,0,0-2.38.7,1.69,1.69,0,0,0,.65,1.42,19.49,19.49,0,0,1-.18,27.07,1.41,1.41,0,0,0-.46,1.46,1.37,1.37,0,0,0,2.38.46,22.13,22.13,0,0,0,6.35-15.5A22.37,22.37,0,0,0,61.68,31.1Z"/><path class="cls-1" d="M54.89,35.58a13.36,13.36,0,0,0-3.53-6,1.36,1.36,0,0,0-2.34.68,1.58,1.58,0,0,0,.56,1.39,11.43,11.43,0,0,1,3,9.86,11.23,11.23,0,0,1-3,6.12A1.51,1.51,0,0,0,49,49a1.31,1.31,0,0,0,1,1,1.42,1.42,0,0,0,1.5-.52,15,15,0,0,0,4.12-10C55.39,38.24,55.24,36.88,54.89,35.58Z"/><path class="cls-1" d="M42.89,34.88h-.12a4.71,4.71,0,0,0-1.16,9.28V66.68a1.25,1.25,0,0,0,2.5,0V44.14a4.71,4.71,0,0,0-1.22-9.26Zm-.06,6.74a2,2,0,0,1,0-4h.07a2,2,0,0,1,0,4Z"/><path class="cls-1" d="M19.91,51.69c-1.86-3.82-2.79-7.85-2.78-13.66a26.39,26.39,0,0,1,7.81-17.59,1.49,1.49,0,0,0,.46-1.61,1.32,1.32,0,0,0-2.24-.45,34.82,34.82,0,0,0-2.41,2.73,28.86,28.86,0,0,0-6.12,14.74A29.75,29.75,0,0,0,23,60.67a1.49,1.49,0,0,0,1.7.54,1.29,1.29,0,0,0,.86-1.15,1.67,1.67,0,0,0-.61-1.32A26.72,26.72,0,0,1,19.91,51.69Z"/><path class="cls-1" d="M26.69,47.52a19.43,19.43,0,0,1,3.69-21.35A1.66,1.66,0,0,0,31,24.75a1.36,1.36,0,0,0-2.38-.7,22.16,22.16,0,0,0-6.36,15.61,22.09,22.09,0,0,0,6.36,15.5A1.36,1.36,0,0,0,31,54.7a1.39,1.39,0,0,0-.46-1.46A19.2,19.2,0,0,1,26.69,47.52Z"/><path class="cls-1" d="M33.08,41.49a11.43,11.43,0,0,1,3-9.86,1.58,1.58,0,0,0,.56-1.39,1.36,1.36,0,0,0-2.34-.68,13.36,13.36,0,0,0-3.53,6c-.35,1.3-.5,2.66-.74,4a15,15,0,0,0,4.13,10,1.4,1.4,0,0,0,1.49.52,1.31,1.31,0,0,0,1-1,1.51,1.51,0,0,0-.53-1.4A11.15,11.15,0,0,1,33.08,41.49Z"/></svg>