<svg id="Layer_1" data-name="Layer 1" xmlns="http://www.w3.org/2000/svg" viewBox="0 0 85.04 85.04"><defs><style>.cls-1{fill:#1d1e1b;}</style></defs><path class="cls-1" d="M71.81,14.58a1.52,1.52,0,0,0-1.11-.4,17.32,17.32,0,0,0-2,0h-3.6c-.92,0-1.22.42-1.3.87a1.05,1.05,0,0,0-1.08-.8,1.07,1.07,0,0,0-1,.8c-.12-.48-.55-.77-1.32-.84a19.53,19.53,0,0,0-2,0h-.76c-.25,0-.53,0-.8,0a20.48,20.48,0,0,0-2.07,0c-1.17.1-1.35.74-1.34,1.15.06.67.52,1,1.4,1s1.87.05,2.8.05,1.88,0,2.8-.05a1.28,1.28,0,0,0,1.22-.61v.92a1.92,1.92,0,0,0-1.18.52,2.29,2.29,0,0,0-.61,1.47A88.35,88.35,0,0,1,49,18.24,71.14,71.14,0,0,0,38.45,18c-1.41.07-2.84.2-4.22.32a61.8,61.8,0,0,1-8.3.36h-.55a2.06,2.06,0,0,0-.48-1.38,2.1,2.1,0,0,0-1.28-.65c0-.3,0-.57,0-.83v-.05a1.2,1.2,0,0,0,1.13.58c1,0,1.92,0,2.91,0s2,0,3,0,1.23-.83,1.23-1.06c0-.46-.18-1-1.24-1.13a20.48,20.48,0,0,0-2.07,0H26.93c-.7,0-1.43,0-2.16,0s-1.13.4-1.24.73a.94.94,0,0,0-.24-.42,1.18,1.18,0,0,0-.86-.29,1,1,0,0,0-1,.73c-.1-.35-.41-.72-1.26-.75-1.9-.05-3.81-.05-5.7,0-1.15,0-1.32.69-1.31,1.08,0,.67.43,1.05,1.32,1.12.71.06,1.41.05,2.09,0q.78,0,1.56,0h.77c.42,0,.85,0,1.29-.05a1.37,1.37,0,0,0,1.15-.6v.06c0,.28,0,.56,0,.86-1.12.21-1.7.8-1.74,1.75a48.69,48.69,0,0,0,0,4.94A2.83,2.83,0,0,0,22.43,26h.05A2.92,2.92,0,0,0,25.3,23.6l8.46.9-.38,1.29c-.44,1.5-.87,2.95-1.27,4.4a1.74,1.74,0,0,1-.91,1.15A22.43,22.43,0,0,0,42.55,73.13a23.77,23.77,0,0,0,5.21-.58,22.48,22.48,0,0,0,5.87-41.43.9.9,0,0,1-.39-.4c-.52-1.68-1-3.37-1.51-5.1l-.32-1.11,8.36-.89A2.73,2.73,0,0,0,63,26c2.32-.19,2.62-2,2.62-3.56V19.48c0-1.86-.19-2.25-1.77-2.82v-.05c0-.3,0-.59,0-.89a1.15,1.15,0,0,0,1.16.65c.83,0,1.7.05,2.64.05s2,0,3.07-.05,1.31-.69,1.32-1A1,1,0,0,0,71.81,14.58ZM63.2,23.34a.47.47,0,0,1-.43.32c-.3,0-.67-.14-.68-.48,0-1.08,0-2.16,0-3.27V19h1.17v.77C63.26,21,63.27,22.17,63.2,23.34ZM46.85,28.56a1.88,1.88,0,0,1,1.54-2.14,2.29,2.29,0,0,0,1-.69l1.15,3.93Zm-2.12-.76c0,.37-.06.45-.07.46a.85.85,0,0,1-.48,0,14.17,14.17,0,0,0-1.6-.1,14.32,14.32,0,0,0-1.6.1.85.85,0,0,1-.48,0,.78.78,0,0,1-.07-.46v-.55h4.3Zm-8.79-2c.75.41,1.5.81,2.17,1.19a.67.67,0,0,1,.06.23c0,.4,0,.81,0,1.22v.12l-3.56,1.06,1.15-3.91Zm9.68-.92c-.67,0-1.33,0-2,0h-1c-1.19,0-2.38,0-3.57,0a1.9,1.9,0,0,1-1.21-.45c-1.69-2.08-4-2.27-6.09-2.43-1.57-.13-3.17-.31-4.72-.49l-1.62-.18V21h.06a64.06,64.06,0,0,0,10.21-.46l3.21-.29a70.78,70.78,0,0,1,12.4.43c1.76.17,3.56.21,5.31.25l2.24.06h.89v.31L53.5,22l-1.25.12-1.13.11A4.69,4.69,0,0,0,48,23.88,2.79,2.79,0,0,1,45.62,24.92Zm-3,5.56h0a20.2,20.2,0,1,1-.1,40.39h-.07a20.2,20.2,0,0,1,.17-40.39ZM23,23.26a1.34,1.34,0,0,1-.66.41.41.41,0,0,1-.31-.08.56.56,0,0,1-.15-.4c0-1.08,0-2.15,0-3.25V19h1.17c0,.25,0,.51,0,.76C23.08,21,23.09,22.16,23,23.26Z"/><path class="cls-1" d="M42.52,63.34h0A16.49,16.49,0,0,0,46.09,63a10.5,10.5,0,0,0,4.77-2.67,1.36,1.36,0,0,0,.4-1.64,1,1,0,0,0-.69-.52,1.48,1.48,0,0,0-1.17.46l-.12.1-.2.17A10.22,10.22,0,0,1,40,60.66a10.38,10.38,0,0,1-.73-19.77c.4-.15,1.34-.48,1-1.53a1.07,1.07,0,0,0-.54-.7,1.64,1.64,0,0,0-1.28.11,12.67,12.67,0,0,0,4.12,24.57Z"/><path class="cls-1" d="M40.52,52a2.34,2.34,0,0,0,3.15.85c.27-.16.38-.13.77.1l10.67,6.16,2.47,1.42a4.21,4.21,0,0,0,.76.39,1.31,1.31,0,0,0,.52.11,1,1,0,0,0,1-.58A1.19,1.19,0,0,0,59.43,59a5.19,5.19,0,0,0-.65-.42L56.34,57.2,45.64,51l-.24-.13c-.34-.18-.35-.19-.35-.49a2.43,2.43,0,0,0-.95-1.62c-.32-.2-.37-.4-.37-.92,0-3.36,0-6.72,0-10.08V35.59a1.71,1.71,0,0,0-.36-1.29,1.19,1.19,0,0,0-.85-.29c-1.11,0-1.11,1.11-1.11,1.58v7.88c0,1.52,0,3,0,4.55a1.26,1.26,0,0,1-.36.73A2.48,2.48,0,0,0,40.52,52Zm1.86-1.31s.13-.11.25-.13a.15.15,0,0,1,.18.11c0,.17-.09.19-.24.2a.52.52,0,0,1-.15,0A.34.34,0,0,1,42.38,50.7Z"/><path class="cls-1" d="M55.57,49.24h0a2.9,2.9,0,0,0,2.88-2,8.67,8.67,0,0,0,.66-3.45h0a8.68,8.68,0,0,0-.62-3.3,3.12,3.12,0,0,0-2.94-2h0a3,3,0,0,0-2.84,2,8.93,8.93,0,0,0,0,6.83A3,3,0,0,0,55.57,49.24ZM54.37,44h0a7.89,7.89,0,0,1,.45-2.59.81.81,0,0,1,.71-.57h0a1.29,1.29,0,0,1,.72.54,6.63,6.63,0,0,1,.08,5c-.07.22-.3.72-.71.6a1.69,1.69,0,0,1-.88-.73A4.48,4.48,0,0,1,54.37,44Z"/><path class="cls-1" d="M47.22,44.62l-.45.33a3.88,3.88,0,0,0-1.54,2.63,1.28,1.28,0,0,0,1.42,1.68H50.3c.42,0,1.54,0,1.55-1.16a1.09,1.09,0,0,0-.3-.8A1.71,1.71,0,0,0,50.3,47H48a3.26,3.26,0,0,1,.33-.31c.28-.24.57-.47.86-.7a15.85,15.85,0,0,0,1.41-1.19A3.86,3.86,0,0,0,51.78,41a3.33,3.33,0,0,0-6.56.52A1.2,1.2,0,0,0,46,42.84l.19,0a1.16,1.16,0,0,0,1.27-1.09l0-.12a.51.51,0,0,1,0-.17,1,1,0,0,1,1.22-.76,1,1,0,0,1,.86,1,1.94,1.94,0,0,1-.82,1.66C48.27,43.81,47.74,44.21,47.22,44.62Z"/></svg>