<svg id="Layer_1" data-name="Layer 1" xmlns="http://www.w3.org/2000/svg" viewBox="0 0 85.04 85.04"><defs><style>.cls-1{fill:#fff;}</style></defs><path d="M59.29,17.33h7.2a1.77,1.77,0,0,1,1.09,1.88c0,2,0,3.94,0,5.91A1.47,1.47,0,0,1,66,26.7H64.35V58.45h1.7A1.45,1.45,0,0,1,67.57,60v6.31A1.45,1.45,0,0,1,66,67.81H59.77a1.48,1.48,0,0,1-1.57-1.57V64.6H26.45v1.6a1.48,1.48,0,0,1-1.62,1.62c-1.95,0-3.91,0-5.86,0a1.77,1.77,0,0,1-1.89-1.1v-7.2A1.71,1.71,0,0,1,19,58.44c.44,0,.9,0,1.34,0V26.7c-.46,0-.91,0-1.34,0a1.7,1.7,0,0,1-1.89-1.09v-7.2a2.06,2.06,0,0,1,1.09-1.08h7.2a1.71,1.71,0,0,1,1.09,1.88c0,.45,0,.9,0,1.35H58.2c0-.47,0-.92,0-1.35A1.69,1.69,0,0,1,59.29,17.33ZM23.21,33V52.16H61.46V33Zm0-3H61.44V26.59c-.53,0-1,0-1.53,0A1.46,1.46,0,0,1,58.31,25V23.44h-32v1.61a1.46,1.46,0,0,1-1.56,1.54c-.52,0-1.05,0-1.59,0ZM61.46,55.21H23.21v3.34h1.53a1.48,1.48,0,0,1,1.61,1.6V61.7h32c0-.56,0-1.11,0-1.65a1.46,1.46,0,0,1,1.5-1.5h1.65ZM19.92,23.58h3.43V20.17H19.92Zm41.39-3.41v3.42h3.41V20.17ZM23.34,65V61.57H19.92V65Zm38,0h3.43V61.56H61.3Z"/><path class="cls-1" d="M18,17.17a2,2,0,0,0-1.09,1.09V17.17Z"/><path d="M35.67,42.57a4.26,4.26,0,0,1,.7,4.35,4.22,4.22,0,0,1-3.91,2.7c-.68,0-1.36,0-2,0a1.49,1.49,0,1,1,0-3H32.2a1.35,1.35,0,0,0,1.49-1.27,1.3,1.3,0,0,0-1.49-1.29A1.52,1.52,0,0,1,30.63,42,1.4,1.4,0,0,1,32,41.09h.35a1.29,1.29,0,1,0,0-2.57c-.61,0-1.22,0-1.84,0a1.49,1.49,0,1,1,0-3,15.72,15.72,0,0,1,2.57,0,4.26,4.26,0,0,1,2.74,6.79Z"/><path d="M51.57,42.66h2c0-.33,0-.63,0-.94A1.45,1.45,0,0,1,55,40.29a1.48,1.48,0,0,1,1.5,1.41c0,.16,0,.33,0,.5a1,1,0,0,0,.36.93,1.41,1.41,0,0,1-.07,2.14.76.76,0,0,0-.3.67c0,.73,0,1.46,0,2.19a1.49,1.49,0,1,1-3,0c0-.8,0-1.59,0-2.38,0,0,0,0-.06-.1h-4a1.47,1.47,0,0,1-1.44-2q1.17-3.57,2.38-7.12a1.46,1.46,0,0,1,1.9-1,1.49,1.49,0,0,1,.92,1.93c-.5,1.55-1,3.1-1.54,4.64C51.67,42.33,51.63,42.48,51.57,42.66Z"/><path d="M43.82,39.44a1.49,1.49,0,1,1-1.42-1.53A1.48,1.48,0,0,1,43.82,39.44Z"/><path d="M42.33,47.24a1.49,1.49,0,1,1,1.49-1.46A1.48,1.48,0,0,1,42.33,47.24Z"/></svg>