<svg id="Layer_1" data-name="Layer 1" xmlns="http://www.w3.org/2000/svg" viewBox="0 0 85.04 85.04"><path d="M22.56,46.12V37.91a1.39,1.39,0,0,1,2.08-1.36l15.1,6.85a1.54,1.54,0,0,1,1,1.54q0,8.2,0,16.41a1.41,1.41,0,0,1-2.16,1.38l-15-6.83a1.5,1.5,0,0,1-1-1.53C22.57,51.62,22.56,48.87,22.56,46.12Zm1.91-7.55a1.5,1.5,0,0,0,0,.17q0,7.57,0,15.15c0,.3.15.39.37.49l13.57,6.17.46.17c0-.12,0-.18,0-.25,0-5,0-10,0-15a.51.51,0,0,0-.37-.54C35.24,43.47,32,42,28.77,40.52Z"/><path d="M43.52,53.15q0-4.12,0-8.25a1.48,1.48,0,0,1,1-1.47c5-2.29,10.07-4.57,15.09-6.88A1.48,1.48,0,0,1,61.7,38c-.05,5.47,0,10.94,0,16.41a1.52,1.52,0,0,1-1,1.54L45.6,62.76a1.39,1.39,0,0,1-2.08-1.36ZM59.83,38.5l-.49.2L45.76,44.87a.62.62,0,0,0-.43.66q0,7.39,0,14.8v.49c.21-.08.36-.13.51-.2l13.58-6.17a.61.61,0,0,0,.43-.66q0-7.41,0-14.81C59.85,38.83,59.84,38.69,59.83,38.5Z"/><path d="M58.89,32.14a1.45,1.45,0,0,1-1,1.4l-5.86,2.67C49,37.58,46,39,43,40.33a1.93,1.93,0,0,1-1.75,0q-7.43-3.39-14.86-6.75a1.5,1.5,0,0,1-1-1.24,1.39,1.39,0,0,1,1-1.49l8.75-4c2.1-.95,4.21-1.9,6.3-2.87a1.69,1.69,0,0,1,1.47,0L58,30.86A1.42,1.42,0,0,1,58.89,32.14Zm-2.41.06L56,32q-6.69-3-13.37-6.09a1.1,1.1,0,0,0-1,0q-6.39,2.93-12.8,5.82l-1,.49.3.16q6.85,3.12,13.71,6.22a1,1,0,0,0,.72,0c2.2-1,4.38-2,6.57-3Z"/></svg>