<svg id="Layer_1" data-name="Layer 1" xmlns="http://www.w3.org/2000/svg" viewBox="0 0 85.04 85.04"><defs><style>.cls-1{fill:#1d1e1b;}</style></defs><path class="cls-1" d="M77.74,18.71c0-.11,0-.23,0-.37,0-.37-.07-.83-.14-1.29a11.86,11.86,0,0,0-23.13-1.51,14.81,14.81,0,0,0,.5,9C56.73,30,59.8,35,64.87,40.89a1.27,1.27,0,0,0,.95.5h0a1.54,1.54,0,0,0,1.12-.62,54.86,54.86,0,0,0,8-11.64,23.83,23.83,0,0,0,2.85-10.4Zm-3.5,5.48c-1.45,4.53-5.39,10.6-8.44,14-4.21-5.3-7.32-10-8.83-15.63a10.74,10.74,0,0,1,.25-7.37,9.32,9.32,0,0,1,8.49-5.7,7.14,7.14,0,0,1,.8,0,9.37,9.37,0,0,1,8.56,7.62A14.28,14.28,0,0,1,74.24,24.19Z"/><path class="cls-1" d="M31.5,52.47A11.89,11.89,0,0,0,7.86,54.41v0c0,.23,0,.47.06.71,0,.54.09,1.1.17,1.64a17.9,17.9,0,0,0,.51,2.33c2.15,7.27,6.58,13,10.21,17.24a1.24,1.24,0,0,0,.94.48h0a1.49,1.49,0,0,0,1.08-.58,51,51,0,0,0,9.11-14.19C31.45,58.37,31.93,55.41,31.5,52.47ZM28.05,60c-1.95,5.45-5.27,10-8.28,13.7-3.77-4.76-7.54-9.95-9-16.37-1-4,0-7.37,2.69-9.87a9,9,0,0,1,6.16-2.55,9.85,9.85,0,0,1,3.42.65,8.91,8.91,0,0,1,6,7.54A14.15,14.15,0,0,1,28.05,60Z"/><path class="cls-1" d="M47.72,39.31a1.1,1.1,0,0,0-1-.1,12.44,12.44,0,0,0-2.38,1.21,1.14,1.14,0,0,0-.52.78A1.31,1.31,0,0,0,45,42.65a1.46,1.46,0,0,0,.74-.22c.23-.13.48-.25.72-.37a8.66,8.66,0,0,0,1-.57,2.65,2.65,0,0,0,.63-.62l.14-.16,0-.06v-.09A1.54,1.54,0,0,0,47.72,39.31Z"/><path class="cls-1" d="M41.18,73.22a1.21,1.21,0,0,0-1.18,0q-1,.5-2,1a1.16,1.16,0,0,0-.62,1.46,1.31,1.31,0,0,0,.64.8.89.89,0,0,0,.39.09.92.92,0,0,0,.36-.07,19.22,19.22,0,0,0,2.61-1.34,1,1,0,0,0,.34-.55l0-.11,0,0v0A1.36,1.36,0,0,0,41.18,73.22Z"/><path class="cls-1" d="M54.37,38.9c-.75,0-1.55,0-2.37,0a1.23,1.23,0,0,0-.9.41,1.15,1.15,0,0,0-.29.85A1.19,1.19,0,0,0,52,41.35h2.38a1.33,1.33,0,0,0,.92-.45,1.08,1.08,0,0,0,.27-.82A1.17,1.17,0,0,0,54.37,38.9Z"/><path class="cls-1" d="M42.75,49.25h.12A1.12,1.12,0,0,0,43.6,49a1.3,1.3,0,0,0,.44-.9c0-.27,0-.55,0-.82,0-.12,0-.25,0-.37v-.37c0-.27,0-.55,0-.82a1.19,1.19,0,0,0-1.17-1.18,1.13,1.13,0,0,0-.85.28,1.25,1.25,0,0,0-.43.9c0,.72,0,1.5,0,2.37A1.15,1.15,0,0,0,42.75,49.25Z"/><path class="cls-1" d="M41.59,55.38a1.18,1.18,0,0,0,1.17,1.17h.1a1.13,1.13,0,0,0,.76-.29,1.29,1.29,0,0,0,.42-.89c0-.8,0-1.6,0-2.37a1.15,1.15,0,0,0-1.18-1.16,1.11,1.11,0,0,0-.86.27,1.25,1.25,0,0,0-.41.89,7.69,7.69,0,0,0,0,.83v.72A7.69,7.69,0,0,0,41.59,55.38Z"/><path class="cls-1" d="M42.84,66.42h0a1.16,1.16,0,0,0-1.22,1.11,5.77,5.77,0,0,0,0,.83v.75a8.64,8.64,0,0,0,0,.88,1.15,1.15,0,0,0,1.19,1.16h0A1.14,1.14,0,0,0,44,70a23.63,23.63,0,0,0,0-2.53A1.14,1.14,0,0,0,42.84,66.42Z"/><path class="cls-1" d="M33.62,74.34a6.94,6.94,0,0,0-.79,0h-.72a8.45,8.45,0,0,0-.87,0,1.15,1.15,0,0,0-1.14,1.21,1.13,1.13,0,0,0,1.12,1.23c.38,0,.77,0,1.19,0l1.26,0a1.17,1.17,0,0,0,1.16-1.19,1.12,1.12,0,0,0-.27-.81A1.35,1.35,0,0,0,33.62,74.34Z"/><path class="cls-1" d="M42,63.53a1.14,1.14,0,0,0,.8.3h.07A1.15,1.15,0,0,0,44,62.61c0-.29,0-.57,0-.85v-.34c0-.11,0-.22,0-.34s0-.52,0-.77a1.21,1.21,0,0,0-1.26-1.18,1.15,1.15,0,0,0-1.19,1.15c0,.72,0,1.49,0,2.37A1.18,1.18,0,0,0,42,63.53Z"/><path class="cls-1" d="M60.52,38.89h-.13a8.86,8.86,0,0,0-1.15,0,1.13,1.13,0,0,0-1.11,1.22,1.14,1.14,0,0,0,1.1,1.22,1.37,1.37,0,0,0,.28,0h1a1.34,1.34,0,0,0,1-.42,1.18,1.18,0,0,0,.28-.86A1.16,1.16,0,0,0,60.52,38.89Z"/><path class="cls-1" d="M26.48,74.35a2.56,2.56,0,0,0-.55,0h-.82a1.34,1.34,0,0,0-1,.42,1.15,1.15,0,0,0-.29.85,1.16,1.16,0,0,0,1.24,1.19h.72q.32,0,.63,0a1.23,1.23,0,0,0,0-2.43Z"/><path class="cls-1" d="M65.91,12.31h0a6.55,6.55,0,0,0-4.68,1.91,6.44,6.44,0,0,0-1.9,4.6,6.52,6.52,0,0,0,6.52,6.59h0a6.55,6.55,0,0,0,.08-13.1Zm4,6.51a4.17,4.17,0,0,1-4.05,4.12h-.06A4,4,0,0,1,63,21.77a4.12,4.12,0,0,1-1.26-2.88A4,4,0,0,1,62.94,16a4.16,4.16,0,0,1,2.87-1.26h0A4,4,0,0,1,68.68,16,4.08,4.08,0,0,1,69.93,18.82Z"/><path class="cls-1" d="M19.74,47.75h0a6.43,6.43,0,0,0-4.62,1.93,6.62,6.62,0,0,0-1.89,4.68,6.55,6.55,0,0,0,6.56,6.49h0a6.55,6.55,0,1,0,0-13.1Zm4.11,6.59a4.16,4.16,0,0,1-4.08,4h0a4.1,4.1,0,0,1-2.87-1.26,4,4,0,0,1-1.17-2.87A4.13,4.13,0,0,1,17,51.38a4,4,0,0,1,2.79-1.16h.07a4.09,4.09,0,0,1,2.88,1.27A4,4,0,0,1,23.85,54.34Z"/></svg>