<svg id="Layer_1" data-name="Layer 1" xmlns="http://www.w3.org/2000/svg" viewBox="0 0 85.04 85.04"><path d="M60.72,11c.39.16.8.29,1.18.47a4.94,4.94,0,0,1,2.89,4.35V69.29a5,5,0,0,1-4.15,5,4.91,4.91,0,0,1-.86.06h-36a4.93,4.93,0,0,1-5-4.92q0-14.28,0-28.56A4.89,4.89,0,0,1,20,37.69c1.78-2.07,3.53-4.15,5.33-6.19a3.34,3.34,0,0,0,.87-2.36c0-4,.06-8,0-12-.07-2.73.85-5.15,4.2-6.05Zm1.56,31.68V16.38a2.55,2.55,0,0,0-2.86-2.86c-9.28,0-18.56,0-27.84,0a2.67,2.67,0,0,0-2.83,2.84c.07,4.31,0,8.62,0,12.92a5.34,5.34,0,0,1-1.32,3.63C25.66,35,23.9,37.07,22.1,39.13a3.16,3.16,0,0,0-.81,2.2q0,13.85,0,27.7c0,1.92,1,2.88,2.91,2.88H59.46a2.7,2.7,0,0,0,2.33-1,3,3,0,0,0,.49-1.94Z"/><path d="M41.78,44.57H53.41a4.94,4.94,0,0,1,5.16,5q.07,6.8,0,13.6a5,5,0,0,1-5.15,5H30.17A5,5,0,0,1,25,63.06c0-4.45,0-8.9,0-13.36a5,5,0,0,1,5.15-5.13Zm.07,2.49c-3.86,0-7.71,0-11.57,0a2.61,2.61,0,0,0-2.77,2.75q.09,6.56,0,13.11a2.62,2.62,0,0,0,2.8,2.79q11.48,0,23,0a2.62,2.62,0,0,0,2.81-2.79c-.06-4.34-.07-8.69,0-13A2.65,2.65,0,0,0,53.23,47C49.44,47.09,45.64,47.06,41.85,47.06Z"/><path d="M53.56,20.3c0-.94,0-1.89,0-2.84A1.32,1.32,0,0,1,54.82,16a1.28,1.28,0,0,1,1.27,1.44c0,1.93,0,3.87,0,5.8,0,.9-.5,1.46-1.25,1.46s-1.27-.57-1.27-1.5S53.56,21.27,53.56,20.3Z"/><path d="M35,20.38c0-1,0-2,0-3A1.24,1.24,0,0,1,36.23,16a1.28,1.28,0,0,1,1.22,1.36q0,3,0,6a1.25,1.25,0,1,1-2.49,0C35,22.36,35,21.37,35,20.38Z"/><path d="M43.64,20.37c0,1,0,2,0,3a1.24,1.24,0,1,1-2.47,0c0-2,0-4.07,0-6.11A1.24,1.24,0,0,1,42.43,16a1.22,1.22,0,0,1,1.21,1.28C43.65,18.31,43.64,19.34,43.64,20.37Z"/><path d="M49.86,20.37c0,1,0,2,0,3a1.25,1.25,0,1,1-2.49,0c0-2,0-3.95,0-5.93A1.27,1.27,0,0,1,48.63,16a1.23,1.23,0,0,1,1.23,1.34C49.88,18.35,49.86,19.36,49.86,20.37Z"/></svg>