<svg id="Layer_1" data-name="Layer 1" xmlns="http://www.w3.org/2000/svg" viewBox="0 0 85.04 85.04"><path d="M42.47,37.3H57.76a3.85,3.85,0,0,1,4,4c0,.73,0,1.46,0,2.18a1.16,1.16,0,0,0,.3.7c.51.56,1,1.09,1.6,1.61a8.52,8.52,0,0,1,2.62,7.78c-.41,2.63-.78,5.29-1.38,7.88a43.73,43.73,0,0,1-1.78,5,.44.44,0,0,1-.33.18c-3.27,0-6.55,0-9.82,0-.13,0-.26-.16-.39-.25a.07.07,0,0,1,0,0c-.16-1.13-.87-1.27-1.9-1.27-5.82.06-11.64,0-17.47,0a.61.61,0,0,0-.69.47c-.41,1.09-.42,1.09-1.61,1.09-2.92,0-5.84,0-8.75,0a.52.52,0,0,1-.59-.4,49.5,49.5,0,0,1-1.73-5.06c-.61-2.72-1.05-5.5-1.4-8.27a8.11,8.11,0,0,1,2.28-6.74c.67-.71,1.39-1.38,2.07-2.1a.94.94,0,0,0,.24-.58c0-.82,0-1.64,0-2.46a3.84,3.84,0,0,1,3.82-3.82Zm9,26.31c-.16-.88-.35-1.71-.43-2.55A18.92,18.92,0,0,1,51,58.45c.06-1.28.18-2.57.29-3.85,0-.32-.07-.4-.36-.48a6.2,6.2,0,1,1,6.58-2.32.74.74,0,0,0-.16.79c.53,1.41,1,2.83,1.57,4.24.14.37.38.67.83.56s.52-.47.52-.87V41.33a2.35,2.35,0,0,0-2.5-2.48H27.11a2.34,2.34,0,0,0-2.49,2.48V56.52c0,.41.09.76.52.87s.69-.19.83-.56c.52-1.4,1-2.8,1.56-4.2a.78.78,0,0,0-.15-.83,5.87,5.87,0,0,1-1.18-4.42,6.2,6.2,0,1,1,12.29,1.68,6.1,6.1,0,0,1-4.58,5.07c-.25.07-.35.15-.32.42.08.79.12,1.58.18,2.36a18.27,18.27,0,0,1-.06,5c-.11.56-.24,1.11-.37,1.69ZM23.07,46.16c-.47.47-.88.84-1.24,1.25a6.64,6.64,0,0,0-1.77,5.51c.22,1.66.54,3.3.78,5a24.75,24.75,0,0,0,1.83,6.92.54.54,0,0,0,.56.38c2.49,0,5,0,7.46,0a.46.46,0,0,0,.5-.32,13.27,13.27,0,0,0,1.1-6.55c-.1-1-.14-2-.22-2.94-.12-1.59-.24-3.18-.38-4.77a1,1,0,0,0-.88-.9,1,1,0,0,0-1,.61,4.22,4.22,0,0,0-.21.69,29.28,29.28,0,0,1-2.21,6.62,2.26,2.26,0,0,1-2.53,1.32,2.23,2.23,0,0,1-1.74-2.31V46.16Zm38.72,0v.59q0,5,0,9.92a2.2,2.2,0,0,1-4.18,1,8,8,0,0,1-.64-1.4c-.61-1.9-1.18-3.8-1.74-5.71-.19-.62-.59-1-1.11-1a1.07,1.07,0,0,0-1,1.09c-.2,2.54-.36,5.08-.59,7.61a13.14,13.14,0,0,0,1.16,6.54.46.46,0,0,0,.34.23c2.56,0,5.13,0,7.69,0a.47.47,0,0,0,.35-.22,32,32,0,0,0,1.32-3.82c.49-2.25.79-4.53,1.18-6.8a9.36,9.36,0,0,0,.15-3.5A8,8,0,0,0,61.79,46.2ZM33.46,52.58a4.53,4.53,0,0,0,3.45-3.53,4.64,4.64,0,0,0-7.75-4.26,4.52,4.52,0,0,0-1,5.14,9.32,9.32,0,0,1,.81-1.09,1,1,0,0,0,.35-.78,3,3,0,0,1,2.48-3,3.08,3.08,0,0,1,3.42,1.76,2.86,2.86,0,0,1-.94,3.69,1.5,1.5,0,0,0-.81,1.91A.53.53,0,0,0,33.46,52.58Zm23.3-2.68a4.55,4.55,0,0,0-1.23-5.26A4.63,4.63,0,0,0,48,49.22c.44,1.73,2,3.27,3.43,3.35l.12-1.47a3.11,3.11,0,1,1,4.06-2.91.77.77,0,0,0,.15.46C56.07,49.08,56.42,49.49,56.76,49.9ZM33,49.49a1.44,1.44,0,0,0,.83-1.74,1.57,1.57,0,0,0-1.59-1.16,1.52,1.52,0,0,0-1.4,1.51A3,3,0,0,1,33,49.49Zm18.84,0A3.06,3.06,0,0,1,54,48.08a1.52,1.52,0,0,0-3-.36A1.45,1.45,0,0,0,51.85,49.5Z"/><path d="M61.77,24.91V20.27H58.71V18.75H66.4v1.49h-3v4.67h.76a2.3,2.3,0,0,1,2.3,2.31c0,1.05,0,2.09,0,3.14a2.3,2.3,0,0,1-2.27,2.29h-3.1A2.31,2.31,0,0,1,59,31.42a.69.69,0,0,0-.45-.31H48l-.16,0v.54c0,.86,0,1.71,0,2.57a1.51,1.51,0,0,1-1.43,1.49h-8A1.5,1.5,0,0,1,37,34.25c0-1,0-2.06,0-3.13l-.5,0h-10a.62.62,0,0,0-.64.36,2.19,2.19,0,0,1-2,1.2h-3.1a2.29,2.29,0,0,1-2.32-2.33c0-1,0-2,0-3.05a2.28,2.28,0,0,1,2.38-2.36h.69V20.28H18.45V18.75h7.69v1.49h-3v4.67h.65a2.23,2.23,0,0,1,2.13,1.24.5.5,0,0,0,.52.31q2.93,0,5.85,0a.52.52,0,0,0,.56-.33c.38-.8.8-1.58,1.17-2.38a.59.59,0,0,1,.62-.4H50.24a.58.58,0,0,1,.62.39c.38.81.79,1.62,1.22,2.41a.6.6,0,0,0,.46.29c2,0,4,0,6,0a.51.51,0,0,0,.39-.17,2.41,2.41,0,0,1,2.55-1.37ZM26.19,29.52H58.67V28h-.55c-2.09,0-4.19,0-6.28,0a.82.82,0,0,1-.9-.58c-.33-.75-.73-1.47-1.09-2.21a.5.5,0,0,0-.51-.33c-4.61,0-9.22,0-13.83,0a.6.6,0,0,0-.46.29q-.64,1.16-1.2,2.37a.64.64,0,0,1-.69.43c-2.13,0-4.26,0-6.38,0h-.59Zm38.69-.75c0-.47,0-.94,0-1.4a.82.82,0,0,0-.89-.91q-1.43,0-2.85,0a.81.81,0,0,0-.9.9q0,1.42,0,2.85a.81.81,0,0,0,.87.89H64a.81.81,0,0,0,.87-.88C64.89,29.74,64.88,29.25,64.88,28.77ZM20,28.79c0,.46,0,.93,0,1.4a.81.81,0,0,0,.89.91h2.85a.82.82,0,0,0,.9-.9c0-1,0-1.91,0-2.86a.8.8,0,0,0-.87-.88c-1,0-1.93,0-2.9,0a.8.8,0,0,0-.87.88C20,27.82,20,28.3,20,28.79Zm18.61,5.38h2.06a2.4,2.4,0,0,1,0-3H38.58Zm5.64-3.05a2.42,2.42,0,0,1,0,3.05h2.05V31.12Zm-2.56,1.49a.77.77,0,0,0,1.53.1.77.77,0,1,0-1.53-.1Z"/><path d="M38.58,45V40.43h7.69V45Zm1.55-1.55h4.58V42H40.13Z"/><path d="M41.62,62.05H35.49V55.92h6.13ZM37,57.45v3h3v-3Z"/><path d="M49.37,62.06H43.24V55.91h6.13Zm-1.54-4.6h-3v3h3Z"/><path d="M40.14,46.6h1.48v1.51H40.14Z"/><path d="M44.73,46.61V48.1h-1.5V46.61Z"/><path d="M40.13,51.21V49.72h1.5v1.49Z"/><path d="M44.72,51.21H43.24V49.72h1.48Z"/><path d="M40.13,54.29V52.81h1.48v1.48Z"/><path d="M44.72,54.31H43.23V52.82h1.49Z"/><path d="M44.74,26.5V28h-1.5V26.5Z"/><path d="M40.13,28V26.49h1.5V28Z"/><path d="M46.33,26.48h1.49V28H46.33Z"/><path d="M37,26.46h1.48V28H37Z"/></svg>