<svg id="Layer_1" data-name="Layer 1" xmlns="http://www.w3.org/2000/svg" viewBox="0 0 85.04 85.04"><path d="M57.43,58.12l7.21,3.61a3.69,3.69,0,0,0,5.5-3.39q0-10.67,0-21.33a3.78,3.78,0,0,0-1.75-3.31,3.73,3.73,0,0,0-3.72-.09l-6.51,3.25-.84.41-1.14.55V36.4c0-.43,0-.83,0-1.23a3.68,3.68,0,0,0-3.77-3.73c-1.42,0-2.83,0-4.25,0A1.22,1.22,0,0,1,47,30.8q-2.7-4.36-5.44-8.72a3.58,3.58,0,0,0-3.26-1.81H23.35c-.64,0-1.06.34-1.07.88a.87.87,0,0,0,.24.63,1.14,1.14,0,0,0,.82.29H38.26A1.92,1.92,0,0,1,40,23l3.82,6.12.67,1.08a2.89,2.89,0,0,1,.19.35l.5.93H19.05a3.65,3.65,0,0,0-3.74,3.75c0,1.33,0,2.66,0,4a1.07,1.07,0,0,0,.29.79.79.79,0,0,0,.62.23.93.93,0,0,0,.89-1.05V35.31a1.9,1.9,0,0,1,2.09-2.08H52.12c1.56,0,2.26.7,2.26,2.26V60a1.91,1.91,0,0,1-2.13,2.13H50l-7.2,0H19.16a1.88,1.88,0,0,1-2.05-2c0-2.64,0-5.27,0-7.91V47.84c0-1,0-1.92,0-2.88a1,1,0,0,0-.32-.77A.92.92,0,0,0,16.2,44a.71.71,0,0,0-.2,0c-.62.1-.69.76-.69,1v15a3.68,3.68,0,0,0,3.88,3.88H42.86c1.7,0,3.43,0,5.15,0h4.35a3.71,3.71,0,0,0,3.82-3.78c0-.4,0-.79,0-1.2v-1.4l.91.42Zm-1.25-3.39q0-4.93,0-9.88V42c0-.47,0-.95,0-1.43a1,1,0,0,1,.62-1l4.08-2,4.63-2.31A1.89,1.89,0,0,1,68.35,37q0,3.8,0,7.61l0,13.79A2.07,2.07,0,0,1,67.66,60a1.72,1.72,0,0,1-1.13.42l-.26,0a3.13,3.13,0,0,1-.93-.33L62.06,58.4l-5.22-2.58A1.11,1.11,0,0,1,56.18,54.73Z"/><path d="M46.4,45.85c0-.64,0-1.28,0-1.92a5,5,0,0,0-.33-2,3.73,3.73,0,0,0-3-2.13H40.51l-2.89,0c0,2,0,3.92,0,5.88v9.88l2.8,0,2.07,0a3.69,3.69,0,0,0,2.82-1.11,3.92,3.92,0,0,0,1.11-2.92C46.36,49.63,46.38,47.71,46.4,45.85Zm-1.78,5.8a1.92,1.92,0,0,1-2.1,2.09H39.47V41.58h1.39c.68,0,1.38,0,2.07,0a1.88,1.88,0,0,1,1.68,2c0,1.3,0,2.59,0,3.89v2.16C44.62,50.29,44.63,51,44.62,51.65Z"/><path d="M33.85,45.4c0-1.86,0-3.73,0-5.6-.75,0-1.3,0-1.81,0,0,1.07,0,2.15,0,3.22v2.83a.83.83,0,0,1-.94.93c-1.09,0-2.18,0-3.27,0a.85.85,0,0,1-1-1c0-.91,0-1.81,0-2.72,0-1.09,0-2.18,0-3.27v0h0c-.55,0-1.12,0-1.81,0q0,3.47,0,7v3.84c0,1.65,0,3.31,0,5,.7,0,1.28,0,1.83,0,0-1,0-2.09,0-3.14s0-1.92,0-2.88a1,1,0,0,1,.25-.74,1.07,1.07,0,0,1,.74-.24H31c.84,0,1.07.23,1.07,1.06v1.31q0,2.31,0,4.62c.64,0,1.22,0,1.8,0V45.4Z"/></svg>