<svg id="Layer_1" data-name="Layer 1" xmlns="http://www.w3.org/2000/svg" viewBox="0 0 85.04 85.04"><path d="M69.54,18.77a2.82,2.82,0,0,0-2.85-2.86h0a2.85,2.85,0,0,0-2.85,2.87c0,1.5,0,3,0,4.51v1.64l-.09,0a7.54,7.54,0,0,1-.85-.47.94.94,0,0,1-.06-.42,4.52,4.52,0,0,0-3.89-4.5,7.2,7.2,0,0,0-1.14-.05h-.37c-1.15,0-2.29,0-3.44,0H53.5a4.45,4.45,0,0,0-4.72,4.29l0,.38H24.14a6,6,0,0,0-3.71.83v-6a2.87,2.87,0,0,0-5.63-1l-.08.11v50l0,.05a1.23,1.23,0,0,0,1.12.56h0c.65,0,1.29,0,1.93,0h1.42c.85,0,1.17-.33,1.17-1.19V63.25h9.29c0,.12,0,.24,0,.36v1.7c0,.71,0,1.42,0,2.13,0,.91.33,1.23,1.25,1.24h3.3c.87,0,1.2-.34,1.2-1.23,0-1.29,0-2.58,0-3.87V61.47H63.83v2.27c0,1.25,0,2.5,0,3.76,0,.84.31,1.17,1.13,1.17q1.73,0,3.45,0c.81,0,1.13-.32,1.13-1.12ZM65.71,19c0-.45.12-1.2,1-1.21h0a.94.94,0,0,1,1,.87,1.71,1.71,0,0,1,0,.32V66.75H65.73a2.64,2.64,0,0,1,0-.28Zm-34,47.72V33.92h1.82V66.75ZM20.47,57.6V53.17h9.22V57.6Zm9.22,1.95v1.76H20.45V59.55ZM63.78,28.27H20.47A2.52,2.52,0,0,1,23,26H61.26A2.5,2.5,0,0,1,63.78,28.27ZM51.22,22.34a2.55,2.55,0,0,1,2-1c1.66,0,3.36,0,5.2,0a2.56,2.56,0,0,1,1.92.92,2.49,2.49,0,0,1,.58,1.83H50.73A2.33,2.33,0,0,1,51.22,22.34ZM63.81,57.8v1.7H35.52V57.8Zm-12.6-7.91a2.59,2.59,0,0,1,2-1c1.69-.06,3.43-.06,5.19,0a2.54,2.54,0,0,1,1.83.81,2.79,2.79,0,0,1,.68,1.94H50.73A2.27,2.27,0,0,1,51.21,49.89ZM58.35,47h-4.9a4.49,4.49,0,0,0-4.66,4.18c0,.14,0,.28,0,.42v0H35.54V33.92H63.79V52.46l-.06,0a7.38,7.38,0,0,1-.79-.44.71.71,0,0,1-.11-.38,4.61,4.61,0,0,0-1.42-3.38A4.4,4.4,0,0,0,58.35,47ZM35.54,53.56H61.09a2.55,2.55,0,0,1,2.69,2.27H35.54ZM63.8,30.25V32H20.45V30.25ZM29.71,43.09V47.5H20.46V43.09Zm-9.25-2V39.41H29.7v1.71Zm0-3.68V33.93h9.25v3.51Zm9.24,12v1.73H20.45V49.48ZM16.6,19a2.24,2.24,0,0,1,0-.38,1,1,0,0,1,1-.75.94.94,0,0,1,.91.85,1.89,1.89,0,0,1,0,.41V66.75H16.6V19Z"/></svg>