<svg id="Layer_1" data-name="Layer 1" xmlns="http://www.w3.org/2000/svg" viewBox="0 0 85.04 85.04"><path d="M61.39,63.54a8.19,8.19,0,0,0,3.42.93,1.31,1.31,0,0,0,1.46-.69v-.56a1.13,1.13,0,0,0-1.22-.73,7.11,7.11,0,0,1-3.43-1l-.76-.35L60.5,61l2.63-6.92q1.08-2.85,2.15-5.68a3.35,3.35,0,0,0-.08-2.73A3.42,3.42,0,0,0,63,44c-.76-.21-1.71-.48-2.62-.68a.94.94,0,0,1-.83-1.06q0-4.65,0-9.28a3.24,3.24,0,0,0-3.12-3.17c-1.38,0-2.76,0-4.14,0H50.09l-.56,0,0-.54c0-.11,0-.19,0-.28V27.76c0-.8,0-1.59,0-2.39a4.58,4.58,0,0,0-3.9-4.31A28.19,28.19,0,0,0,40.72,21a4.66,4.66,0,0,0-4.34,4.64c0,.7,0,1.41,0,2.12v1.07c0,.11,0,.23,0,.36l0,.57H33.6q-2,0-4,0a3.25,3.25,0,0,0-3.37,3.44v.86c0,2.75,0,5.49,0,8.24a.89.89,0,0,1-.76,1c-.67.15-1.34.33-2,.51l-.52.14a3.24,3.24,0,0,0-2.36,4.6l4.11,10.81c.11.28.22.57.32.85l.28.76-.33.17a9.67,9.67,0,0,1-4.55,1.43h0a.79.79,0,0,0-.57.23,1,1,0,0,0-.27.76,1,1,0,0,0,1,.93h0a13.23,13.23,0,0,0,1.61-.13,8.93,8.93,0,0,0,2.83-1l.24-.11a6.25,6.25,0,0,1,2.49-.59,7.62,7.62,0,0,1,3.85.93,8.63,8.63,0,0,0,7.88,0l.24-.11a6.54,6.54,0,0,1,1.18-.5,6.87,6.87,0,0,1,2-.31,7.84,7.84,0,0,1,3.56.91,8.54,8.54,0,0,0,7.91,0l.18-.09a8.46,8.46,0,0,1,1.52-.61A7.08,7.08,0,0,1,61.39,63.54Zm-23-38.1A2.63,2.63,0,0,1,40.78,23c1.43-.07,2.87-.07,4.3,0a2.63,2.63,0,0,1,2.43,2.47c0,.89,0,1.8,0,2.68v1.6H38.32v-1.6C38.31,27.24,38.3,26.33,38.34,25.44ZM28.21,33.35c0-1.16.49-1.65,1.64-1.66H56c1.15,0,1.65.5,1.65,1.65v9.2l-4.88-1.27-9.41-2.44a2,2,0,0,0-.88,0L31.9,41.59,29,42.34l-.2,0-.63.12Zm25,28.53a6.58,6.58,0,0,1-2.85.68,6.35,6.35,0,0,1-2.9-.72,9.93,9.93,0,0,0-5.31-1.16A7.6,7.6,0,0,0,39,61.6a7.07,7.07,0,0,1-5,.74,6.92,6.92,0,0,1-1.74-.66,8.61,8.61,0,0,0-4.21-1,.89.89,0,0,1-.91-.61q-1.5-4-3-8l-1.68-4.42a1.37,1.37,0,0,1,0-1.14,1.43,1.43,0,0,1,1-.7l16.17-4.22c1-.26,1.94-.51,2.91-.74a2,2,0,0,1,1,0l17.82,4.64,1.21.32a1.48,1.48,0,0,1,1,.69,1.41,1.41,0,0,1,0,1.19q-1.86,4.92-3.74,9.83l-1,2.5c0,.09-.07.17-.11.27l-.18.39-.3,0A9.49,9.49,0,0,0,53.23,61.88Z"/><path d="M56.43,49.64c0-.19,0-.77-1-1l-2.17-.57q-4.93-1.3-9.86-2.57a2.4,2.4,0,0,0-1,0c-.74.16-1.47.36-2.2.56l-2.85.75L30.2,48.69a1,1,0,0,0-.76,1.14.89.89,0,0,0,.41.61,1.36,1.36,0,0,0,1,.09l2.57-.68,9.11-2.36a1.2,1.2,0,0,1,.38-.05,1.47,1.47,0,0,1,.36,0l3.31.85,3,.79,5.64,1.46a.9.9,0,0,0,.79-.17A1,1,0,0,0,56.43,49.64Z"/></svg>