<svg id="Layer_1" data-name="Layer 1" xmlns="http://www.w3.org/2000/svg" viewBox="0 0 85.04 85.04"><defs><style>.cls-1{fill:#1d1d1b;}</style></defs><path class="cls-1" d="M70.31,46.3a4.1,4.1,0,0,0-2.6-2.41c-.9-.36-1.79-.81-2.65-1.24l-.08,0a.42.42,0,0,1-.21-.3c0-4.4,0-8.8,0-13.2V27.84h.68a2.12,2.12,0,0,0,1.74-.9,2.05,2.05,0,0,0,.21-1.87c-.33-.89-.71-1.83-1.18-2.87a2,2,0,0,0-2-1.25H58.17a.48.48,0,0,1-.53-.32c-.31-.66-.64-1.31-1-2Q56.3,18,56,17.24a3.08,3.08,0,0,0-3-1.84c-3.69,0-7.3,0-10.35,0h0a3,3,0,0,0-2.86,1.75c-.23.44-.45.89-.68,1.34l-.19.38-.29-.21c-.33-.25-.65-.49-1-.72a15.1,15.1,0,0,0-23.23,9.94c0,.24-.09.48-.14.72l-.07.36v3c.07.29.12.57.17.86a15.82,15.82,0,0,0,.44,1.9A15.11,15.11,0,0,0,26,45.15a1.51,1.51,0,0,0-.1.17,8.18,8.18,0,0,0-.44,1,3.11,3.11,0,0,0,.23,2.24l8,19.78c-.22-.23-.43-.46-.63-.7a5,5,0,0,0-2.81-2,4.9,4.9,0,0,0-1.07-.1,1.05,1.05,0,0,0-1.05,1,1.18,1.18,0,0,0,.31.87,1,1,0,0,0,.69.3,2.65,2.65,0,0,1,2.1,1.19c.22.27.46.54.7.81l.16.18a5.37,5.37,0,0,0,2.49,1.54h1.62a6.5,6.5,0,0,0,3.54-2.65,2.44,2.44,0,0,1,1.78-1,2.39,2.39,0,0,1,1.87.92,6.55,6.55,0,0,1,.49.56A5.8,5.8,0,0,0,47,71.45h1.58a6.7,6.7,0,0,0,3.46-2.58,2.1,2.1,0,0,1,2.55-1,3.7,3.7,0,0,1,1.1.78l.06,0a7.77,7.77,0,0,1,.77.85l.15.19a5.41,5.41,0,0,0,2.7,1.71H61a5.75,5.75,0,0,0,3.18-2.26,3,3,0,0,1,2.39-1.47h0a.85.85,0,0,0,.63-.29,1.24,1.24,0,0,0,.3-.89,1.11,1.11,0,0,0-1.08-1,4.07,4.07,0,0,0-3.08,1.23c-.24.24-.47.51-.69.76l-.37.42a3,3,0,0,1-.35.36v0l8-19.84.2-.48.09-.21,0-1.38Zm-29.62-26c.37-.68.71-1.38,1.05-2.09a.89.89,0,0,1,.88-.54h4.2l6.19,0a1,1,0,0,1,.72.31c.44.76.83,1.53,1.24,2.36.1.21.21.42.32.63H53.15c-3.94,0-7.89,0-11.84,0a1.2,1.2,0,0,1-.57-.19C40.62,20.67,40.51,20.56,40.69,20.25ZM47.3,69.12A3.8,3.8,0,0,1,46,68.24a10.2,10.2,0,0,1-.79-.82,9.46,9.46,0,0,0-1-1,4.07,4.07,0,0,0-2.55-.88,4.13,4.13,0,0,0-2.57.88,9.09,9.09,0,0,0-1,1c-.15.16-.29.32-.44.47s-.57.57-.87.87l-.34.34L29.24,51.35l17.45-8.2v11c0,.39,0,1.55,1.12,1.56h0a1,1,0,0,0,.75-.28A1.7,1.7,0,0,0,49,54.14v-11l17.44,8.18L59.24,69,59,68.81l-.75-.69-.58-.62a10.61,10.61,0,0,0-1.05-1.07,4.12,4.12,0,0,0-5.12-.1,11.5,11.5,0,0,0-1.48,1.48l-.14.16C49.18,68.78,48.43,69.48,47.3,69.12Zm-1-28.29q-7.09,3.36-14.19,6.68l-3.41,1.6-.3.13h0c-.07-.16-.14-.32-.2-.48-.21-.49-.42-1-.59-1.5s0-.66.5-1a8.33,8.33,0,0,1,3.25-1l.77-.13A14.63,14.63,0,0,0,39.92,41a3.94,3.94,0,0,1,1-.73l3.3-1.57,2.93-1.38a1.32,1.32,0,0,1,.61-.16,1.58,1.58,0,0,1,.63.16q6.87,3.26,13.76,6.47l5.11,2.4c.84.4.92.62.57,1.48l-.46,1.12-.18.44L62.46,47,49.29,40.82A3.3,3.3,0,0,0,46.32,40.83Zm9.27-2.77h2.23a2.06,2.06,0,0,0,2.27-2.27V32.53a2.1,2.1,0,0,0-2.35-2.31H44.32l-.23-2.35H62.48V41.44l-7.22-3.38Zm2.25-5.52v3.27H55.73c-1.41,0-2.87,0-4.3,0h-.1a3.28,3.28,0,0,1-1.73-.41,3.43,3.43,0,0,0-3.59,0c-.79.43-1.63.8-2.43,1.17l-.67.31,1.35-4.34ZM29.33,43.22h-.14a12.8,12.8,0,0,1-.06-25.59h.18a12.8,12.8,0,0,1,0,25.6Zm14-18c-.19-.52-.41-1-.64-1.53-.07-.15-.13-.29-.2-.43l.26,0H63.81c.34,0,.45.07.55.34.2.54.41,1.06.64,1.61.07.15.13.3.19.45H44A.54.54,0,0,1,43.32,25.18Z"/><path class="cls-1" d="M47.84,58.08h0a1.12,1.12,0,0,0-1.1,1.08,6,6,0,0,0,0,1.12,1.05,1.05,0,0,0,1.1,1h0a1.11,1.11,0,0,0,1.1-1,2.2,2.2,0,0,0,0-.44v-.32c0-.1,0-.21,0-.31A1.14,1.14,0,0,0,47.84,58.08Z"/><path class="cls-1" d="M29.25,19.1h0a11.33,11.33,0,1,0,0,22.66h0a11.33,11.33,0,1,0,0-22.66Zm-.06,2.24h.06a9.1,9.1,0,0,1,0,18.19h-.1a9,9,0,0,1-6.34-2.63,9.07,9.07,0,0,1,6.35-15.56Z"/><path class="cls-1" d="M28.73,31.46l1.38.92,1.11.74a1.59,1.59,0,0,0,.84.28,1.05,1.05,0,0,0,.89-.5,1.15,1.15,0,0,0-.49-1.67l-.21-.14c-.54-.36-1.09-.74-1.66-1.09a.48.48,0,0,1-.26-.49c0-1.29,0-2.56,0-3.64A1.2,1.2,0,0,0,30,25a1.1,1.1,0,0,0-.78-.3,1.15,1.15,0,0,0-1.07,1.21c0,.52,0,1,0,1.56v1.31c0,.51,0,1,0,1.52A1.28,1.28,0,0,0,28.73,31.46Z"/></svg>