<svg id="Layer_1" data-name="Layer 1" xmlns="http://www.w3.org/2000/svg" viewBox="0 0 85.04 85.04"><path d="M44.15,13.76l-.09.07a1.63,1.63,0,0,0-.68,1.5c0,.31,0,.61,0,1s0,.58,0,.86a2.33,2.33,0,0,0,2.47,2.4H53v.74c0,.93,0,1.81,0,2.7a1.18,1.18,0,0,1-.27.66c-.55.58-1.13,1.15-1.68,1.7l-.17.17c-.62.62-1.26,1.26-1.87,1.9a2.1,2.1,0,0,0-.52,1.25c0,.64,0,1.28,0,1.9v0c0,.66,0,1.33,0,2a2.66,2.66,0,0,0,.67,2,2.75,2.75,0,0,0,2,.76h.07c1.58,0,3.25,0,4.59,0H66.49a2.38,2.38,0,0,0,2.56-2.55V31.43c0-.95,0-1.81,0-2.68a1.85,1.85,0,0,0-.58-1.4c-1.33-1.3-2.64-2.62-3.74-3.74-.21-.2-.23-.28-.23-.28,0-1,0-2,0-3.13v-.66h2.36c1.43,0,2.91,0,4.35,0h.14A2.63,2.63,0,0,0,74,17.86l0-4.1Zm6.68,15.93H66.66v.47c0,.9,0,1.77,0,2.63a.86.86,0,0,1-.19.14H51.22c-.28,0-.35,0-.36-.06s0-.07,0-.33c0-.73,0-1.45,0-2.21l-.13,0h.13Zm1.75-2.52.09-.09c.65-.65,1.27-1.27,1.9-1.87a.53.53,0,0,1,.32-.11c2.33,0,4.85,0,7.73,0a.47.47,0,0,1,.28.08c.65.62,1.31,1.27,1.94,1.9l.09.09Zm2.85-4.53V19.58h6.65v3.06Zm16.26-5.45a1.93,1.93,0,0,1-.42,0h0l-.67,0H46.36c-.56,0-.56,0-.56-.54v-.49H71.69A5.7,5.7,0,0,1,71.69,17.19Z"/><path d="M55.3,61.31h6.78a2.29,2.29,0,0,0,2.35-2.26c0-.75,0-1.52,0-2.24a1.35,1.35,0,0,0-.38-1,1.29,1.29,0,0,0-.85-.31,1.18,1.18,0,0,0-1.15,1.27c0,.67,0,1.36,0,1.94,0,.15,0,.18,0,.18s0,0-.19,0H55.52a.41.41,0,0,1-.17,0s0,0,0-.19c0-.59,0-1.23,0-2a1.19,1.19,0,0,0-1.18-1.25h0A1.16,1.16,0,0,0,53,56.77c0,.67,0,1.46,0,2.29A2.27,2.27,0,0,0,55.3,61.31Z"/><path d="M36.15,44.3a7.24,7.24,0,0,0-.81,0H33.83a1.18,1.18,0,0,0-1.15,1.19,1.14,1.14,0,0,0,1.17,1.18l1.14,0,1.14,0a1.13,1.13,0,0,0,1.18-1.17A1.16,1.16,0,0,0,36.15,44.3Z"/><path d="M36.22,51.14c-.81,0-1.64,0-2.46,0a1.18,1.18,0,0,0,.05,2.35h2.38a1.18,1.18,0,0,0,0-2.35Z"/><path d="M39.5,13.79H12.89c-1.3,0-1.64.33-1.64,1.64V72.7H41.06v-.32c0-4.89,0-42.7,0-57C41.07,14.15,40.72,13.79,39.5,13.79ZM13.64,47.63V16.19h25V47.63Zm0,22.59V50.07h25V70.22Z"/><path d="M72.41,47.56h0c-1.24,0-2.49,0-3.7,0H65.36a.29.29,0,0,1-.35-.21c-.38-.82-.79-1.63-1.19-2.4A3.35,3.35,0,0,0,60.66,43H56.75A3.37,3.37,0,0,0,53.56,45c-.4.75-.78,1.49-1.12,2.26-.13.28-.25.35-.6.35H43.29V72.7H72.37a1.92,1.92,0,0,0,1.55-.56L74,72V48.23l-.09-.1A1.93,1.93,0,0,0,72.41,47.56Zm-.8,7V70.3H45.78V54.52Zm-9.16-7H54.9c.05-.08.09-.17.14-.26a15.55,15.55,0,0,1,1-1.65,1.39,1.39,0,0,1,.81-.26c.88,0,1.78,0,2.65,0h1.09a1.17,1.17,0,0,1,1.16.71c.22.46.45.91.69,1.39ZM71.63,50v2.13H45.79V50Z"/></svg>