<svg id="Layer_1" data-name="Layer 1" xmlns="http://www.w3.org/2000/svg" viewBox="0 0 85.04 85.04"><path d="M71.27,40.45H45.42a1.51,1.51,0,0,0-1.21.52c-1.66,1.75-3.37,3.46-5,5.22a2.37,2.37,0,0,1-1.92.82C30,47,22.69,47,15.4,47h-.86c.36,1.54.71,3,1.05,4.46.05.21.12.43.16.64a1.07,1.07,0,0,1-.8,1.27,1,1,0,0,1-1.28-.76c-.31-1.15-.58-2.32-.86-3.47-.22-.93-.45-1.85-.66-2.77s.2-1.52,1.18-1.54c1.28,0,2.57,0,3.91,0,.33-1.48.65-2.94,1-4.41q.89-4.14,1.75-8.3A1.14,1.14,0,0,1,21.28,31c.94,0,1.89,0,2.92,0V12.35c0-1.22.32-1.53,1.53-1.53h9.84c.89,0,1.22.29,1.38,1.17Q38,17.66,39.1,23.33a1.11,1.11,0,0,0,.1.24H54.65c1.2,0,1.43.22,1.6,1.44.26,1.86.52,3.72.81,5.58a.65.65,0,0,0,.45.4,10.88,10.88,0,0,0,1.4,0,1.09,1.09,0,0,1,1.2,1c.38,1.84.78,3.68,1.18,5.51.05.24.11.47.18.75H72.25c1.35,0,1.76.53,1.41,1.83A23.41,23.41,0,0,1,64,53.57c-.74.51-1.34.47-1.74-.1s-.23-1.15.51-1.66a21.5,21.5,0,0,0,8.41-11.06C71.23,40.69,71.23,40.62,71.27,40.45ZM19.48,44.77c.26,0,.41,0,.57,0,5.65,0,11.3,0,17,0a1.45,1.45,0,0,0,.9-.42c1.73-1.75,3.44-3.51,5.13-5.3a2.36,2.36,0,0,1,1.91-.83c4.48,0,9,0,13.43,0h.86c-.32-1.53-.67-3-.92-4.42-.1-.58-.34-.68-.87-.68H21.94ZM54.93,31c-.23-1.56-.5-3-.63-4.48-.06-.71-.32-.8-.93-.8-3,0-6,0-9,0H35c-.45,0-.7.05-.7.59a11,11,0,0,1-.2,1.37c-.15,1.09-.29,2.18-.44,3.31ZM26.41,31c1.61,0,3.18,0,4.74,0,.12,0,.32-.27.34-.44.29-1.88.55-3.77.81-5.65.14-1.07.41-1.31,1.5-1.32h3.14l-.79-4.13H26.41Zm0-13.81h9.33L34.94,13H26.4Z"/><path d="M18.67,70.24l3.2,2.41a1.08,1.08,0,1,1-1.16,1.81c-2-1.47-4-2.95-6-4.47a1,1,0,0,1,0-1.75c2-1.51,4-3,6-4.47a1,1,0,0,1,1.47.21,1,1,0,0,1-.2,1.51c-1,.82-2.12,1.61-3.28,2.48H67.19c-1.13-.85-2.17-1.61-3.19-2.4A1,1,0,0,1,63.72,64a1,1,0,0,1,1.53-.14Q68.16,66,71,68.16a1.08,1.08,0,0,1,0,1.89c-1.94,1.48-3.89,2.93-5.85,4.38A1.07,1.07,0,1,1,64,72.69c.86-.67,1.73-1.31,2.6-2l.6-.49Z"/><path d="M43,57.09c-3,3.55-9.39,3.64-12.44,0-3,3.62-9.79,3.6-12.65-.35a4.91,4.91,0,0,1-3.18,1.13c-.84,0-1.68.11-2.52.11A1,1,0,0,1,11,57a1,1,0,0,1,1.06-1.11c1.06-.09,2.12-.11,3.18-.2a1.75,1.75,0,0,0,1.63-1.42,6.6,6.6,0,0,1,.2-.63,1,1,0,0,1,1.12-.75.93.93,0,0,1,.93.89c.18,3,3.44,4.06,5.73,3.85a6,6,0,0,0,3-1,3.36,3.36,0,0,0,1.48-2.41c0-.13.05-.26.08-.39a1,1,0,0,1,1.06-.91,1,1,0,0,1,1,.93c.17,2.84,3.33,4.17,5.88,3.79a8.41,8.41,0,0,0,2.66-.92,3.39,3.39,0,0,0,1.78-2.8,1,1,0,0,1,1-1,1,1,0,0,1,1.13.91c.23,2.2,1.66,3.21,3.62,3.68A6.49,6.49,0,0,0,52.07,57a3.6,3.6,0,0,0,2.2-3,1.08,1.08,0,0,1,1-1.09,1,1,0,0,1,1.09.94c.17,3,3.57,4.08,5.76,3.78a8.86,8.86,0,0,0,2.69-.84,3.21,3.21,0,0,0,1.8-2.62c.1-.81.47-1.22,1-1.26s1,.33,1.2,1.17a2.23,2.23,0,0,0,2.42,1.75c.77,0,1.55,0,2.32.07s1.23.43,1.23,1.1-.48,1.1-1.31,1.07a28,28,0,0,1-3.31-.25,14.41,14.41,0,0,1-2.36-.85,7.44,7.44,0,0,1-6.08,2.85,7.81,7.81,0,0,1-6.44-2.68,7.89,7.89,0,0,1-6.17,2.69A7.82,7.82,0,0,1,43,57.09Z"/><path d="M62.12,46.93a4.32,4.32,0,0,1-4.49,4.47,4.37,4.37,0,0,1-4.39-4.51,4.43,4.43,0,0,1,4.44-4.5A4.39,4.39,0,0,1,62.12,46.93Zm-6.7,0a2.24,2.24,0,0,0,2.27,2.34A2.28,2.28,0,0,0,60,46.86a2.28,2.28,0,1,0-4.56.07Z"/><path d="M29.05,42.79a23.32,23.32,0,0,1-2.75-.17,3.86,3.86,0,0,1-3.15-3.88,3.77,3.77,0,0,1,3.61-3.42c1.48-.08,3-.07,4.44,0a3.69,3.69,0,0,1,3.56,3.54,3.58,3.58,0,0,1-3,3.74A22.17,22.17,0,0,1,29.05,42.79Zm0-5.37h0c-.66,0-1.33,0-2,0a1.69,1.69,0,0,0-1.69,1.46,1.59,1.59,0,0,0,1.58,1.64,41.45,41.45,0,0,0,4.17,0,1.47,1.47,0,0,0,1.51-1.58,1.69,1.69,0,0,0-1.72-1.5C30.26,37.41,29.64,37.42,29,37.42Z"/></svg>