<svg id="Layer_1" data-name="Layer 1" xmlns="http://www.w3.org/2000/svg" viewBox="0 0 85.04 85.04"><defs><style>.cls-1{fill:#1d1d1b;}</style></defs><path class="cls-1" d="M75.13,36.3a1.42,1.42,0,0,1-.08-.18,3.05,3.05,0,0,0-3.08-2,3,3,0,0,0-2.76,2.59,7,7,0,0,0-.08.91l-.31-.28c-.44-.39-.85-.77-1.31-1.12a13.41,13.41,0,0,0-7.57-2.3c-2-.13-4.13-.3-6.13-.47l-2.41-.19-9-.73-2.28-.19c-1.55-.13-3.16-.27-4.75-.37s-3.22-.16-5.22-.17h0a3.32,3.32,0,0,0-1,.21l-.22.06c-.13-3.12-1.57-5.19-4.29-6.15A5.92,5.92,0,0,0,18,27.49a6.22,6.22,0,0,0-1.72,3.36c0-1.82,0-3.65,0-5.47a4.33,4.33,0,0,0-.2-1.36,3,3,0,0,0-5.84,1V60.54a2.85,2.85,0,0,0,1.71,2.69,2.91,2.91,0,0,0,1.32.32,3,3,0,0,0,1.8-.63,3.15,3.15,0,0,0,1.22-2.7V43.47H21a1.55,1.55,0,0,0,1.16-.37,1.06,1.06,0,0,0,.29-.81c0-.75-.48-1.13-1.42-1.14H16.78l-.45,0h0l0-.07v-.49c0-.53,0-1.06,0-1.59a1.72,1.72,0,0,1,1.79-1.8,3.18,3.18,0,0,1,1.77.34A6,6,0,0,0,24.1,38V38l0,1.74c0,1.46-.05,2.91-.06,4.37a3.8,3.8,0,0,0,.2,1.11A3.94,3.94,0,0,0,28.27,48H69.15v4.13q0,4.08,0,8.17A3.25,3.25,0,0,0,70.49,63a2.94,2.94,0,0,0,2.7.35,3.47,3.47,0,0,0,2-2.09V36.47ZM72.9,60.13v.17c0,.57-.29.92-.71.92h0c-.41,0-.66-.35-.66-.9q0-3.32,0-6.61V37.56c0-.18,0-.35,0-.53a.61.61,0,0,1,.57-.61h.14a.57.57,0,0,1,.59.42,2.31,2.31,0,0,1,.09.74V60.13ZM26.55,31.84a4,4,0,0,1-1.17,2.83,4,4,0,0,1-2.82,1.16h0a4,4,0,1,1,0-8h0a4,4,0,0,1,4,4Zm-.18,11.69c0-1.69-.05-3.44,0-5.15A4.58,4.58,0,0,1,28,35.25,5,5,0,0,1,31.63,34l8.09.65,4.77.38,4.22.33c2.48.18,5,.38,7.58.6l1.57.12a35.29,35.29,0,0,1,5.33.66A7.12,7.12,0,0,1,69,42.47a9.12,9.12,0,0,1,.07,2.23c0,.31,0,.63,0,.95H27.82a1.48,1.48,0,0,1-1.45-1.48ZM12.52,25.43a2.28,2.28,0,0,1,.05-.59.64.64,0,0,1,.63-.52h.1a.63.63,0,0,1,.61.64c0,.18,0,.35,0,.53V60.36c0,.52-.26.84-.66.86s-.71-.32-.74-.85V25.43Zm3.76,7.15h0A8.27,8.27,0,0,0,17,35l-.76.26Z"/><path class="cls-1" d="M66,54.14H19.43a5.86,5.86,0,0,0-.72,0,1.14,1.14,0,0,0-.24,2.18,2.54,2.54,0,0,0,.87.11H66a2,2,0,0,0,1.44-.41,1,1,0,0,0,.28-.78C67.66,54.27,66.77,54.14,66,54.14Z"/></svg>