<svg id="Layer_1" data-name="Layer 1" xmlns="http://www.w3.org/2000/svg" viewBox="0 0 85.04 85.04"><path d="M27.37,22.7V21a3,3,0,0,1,2.93-3c1.07,0,2.14,0,3.29,0,0-.48,0-.9,0-1.32A2.21,2.21,0,0,1,36,14.4h4.36a2.22,2.22,0,0,1,2.43,2.34c0,.4,0,.8,0,1.29h3A3,3,0,0,1,49,21.28v1.39a14.7,14.7,0,0,1,1.59.14,4.56,4.56,0,0,1,3.64,3.89c.64,3.94,1.32,7.87,2,11.81.11.61.27.69.78.32a1.68,1.68,0,0,1,2.23.06,20.61,20.61,0,0,0,11.49,3.7c1.16,0,1.49.35,1.49,1.53,0,4.16-.06,8.32,0,12.48a11,11,0,0,1-5.76,10.2c-2.52,1.5-5.27,2.6-7.94,3.85a1.3,1.3,0,0,1-1,0A11.11,11.11,0,0,0,54,69.55a11.24,11.24,0,0,1-3.09-1,8.27,8.27,0,0,0-7.37,0,10.58,10.58,0,0,1-9.89-.09,7.53,7.53,0,0,0-7,0,10.75,10.75,0,0,1-10,0,12.44,12.44,0,0,0-3.35-.81c-.76-.12-1.24-.46-1.22-1.12s.47-1,1.22-1a8.48,8.48,0,0,1,4.25,1,8.68,8.68,0,0,0,8.22,0,10,10,0,0,1,9.15.13,8.06,8.06,0,0,0,7.53,0,10.32,10.32,0,0,1,5.18-1.13c-.78-1-1.53-2-2.31-3a.59.59,0,0,0-.55-.12c-.65.23-1.28.51-1.92.79a9.8,9.8,0,0,1-8.35,0A10,10,0,0,0,30,62a8.47,8.47,0,0,0-3.61.89,10.22,10.22,0,0,1-7.72.73,11.12,11.12,0,0,1-1.67-.7A8.32,8.32,0,0,0,13.35,62a1.13,1.13,0,0,1-1.26-1.11c0-.67.49-1.08,1.32-1.08a9.3,9.3,0,0,1,4,.91c.9.42,1.84.73,2.76,1.09l.11-.16L18.46,57.1q-2.36-5.9-4.73-11.79A3.54,3.54,0,0,1,16,40.37c1.22-.42,2.44-.85,3.67-1.26a.66.66,0,0,0,.54-.63c.64-3.87,1.37-7.73,1.94-11.61A4.66,4.66,0,0,1,27,22.72,3,3,0,0,0,27.37,22.7ZM46.15,42.59c-.19-.12-.24-.17-.29-.19-2.39-.88-4.76-1.77-7.16-2.61a1.82,1.82,0,0,0-1.15.07q-7.69,2.87-15.39,5.77l-5.09,1.92c0,.08,0,.11,0,.13,1.84,4.59,3.67,9.19,5.53,13.77a.68.68,0,0,0,.61.26,17.26,17.26,0,0,0,2.45-.84,10.23,10.23,0,0,1,9.47.18,8.33,8.33,0,0,0,3.54.84c2.09.09,3.81-1,5.44-1.63-.07-2-.17-4-.19-6,0-3.44,0-6.88,0-10.33,0-.94.41-1.35,1.34-1.38Zm7.71-4.46c0-.41-.07-.67-.11-.93-.56-3.34-1.13-6.68-1.68-10A2.25,2.25,0,0,0,49.57,25H26.78a2.24,2.24,0,0,0-2.5,2.21c-.33,2-.69,4-1,6.07-.27,1.59-.53,3.19-.8,4.87l.84-.24Q30.38,35.44,37.46,33a2.42,2.42,0,0,1,1.41,0c3.25,1.07,6.49,2.19,9.74,3.29Zm-7.73,6.63c0,.21,0,.36,0,.51,0,4,0,7.92,0,11.88a8.89,8.89,0,0,0,.3,2.24,9.45,9.45,0,0,0,5.11,6c2,1.06,4.14,2,6.23,3a.81.81,0,0,0,.61,0c2.12-1,4.29-1.89,6.34-3,3.51-1.91,5.46-4.8,5.37-8.95-.08-3.62,0-7.25,0-10.87v-.72a2.28,2.28,0,0,0-.34-.05,21,21,0,0,1-10.13-3.09,2.45,2.45,0,0,0-3,0A21.67,21.67,0,0,1,46.13,44.76ZM54,40.65v-.17a2.85,2.85,0,0,0-.31-.12q-7.51-2.58-15.06-5.14a1.6,1.6,0,0,0-.94.06q-7.22,2.43-14.42,4.9l-6.58,2.26a1.32,1.32,0,0,0-1,1.55,14.23,14.23,0,0,0,.57,1.54l.53-.17c6.65-2.5,13.31-5,20-7.52a4.13,4.13,0,0,1,3.11,0c3.4,1.28,6.81,2.51,10.22,3.76a1.64,1.64,0,0,0,.9.15C51.93,41.42,52.94,41,54,40.65Zm-24.44-18H46.83V21.58c0-1.19-.2-1.38-1.41-1.38H30.94a4.87,4.87,0,0,0-.54,0,.84.84,0,0,0-.88.9C29.51,21.62,29.52,22.13,29.52,22.69ZM35.85,18h4.66V16.61H35.85Z"/><path d="M31.32,31.84H27a1.11,1.11,0,0,1-1.26-1.28c0-1,0-1.92,0-2.88,0-1.24.33-1.57,1.6-1.57h8.24c.92,0,1.31.4,1.33,1.3q0,1.57,0,3.15c0,.92-.4,1.27-1.33,1.28Zm-3.38-2.21h6.77V28.38H27.94Z"/><path d="M45,31.84H40.7c-.89,0-1.27-.37-1.29-1.25,0-1.08,0-2.15,0-3.22,0-.83.4-1.25,1.24-1.25q4.35,0,8.71,0a1.12,1.12,0,0,1,1.22,1.27q0,1.61,0,3.21a1.1,1.1,0,0,1-1.24,1.24Zm3.4-2.2V28.37H41.64v1.27Z"/><path d="M48,52c0-1.57,0-3.13,0-4.7,0-.86.34-1.23,1.2-1.26a14.31,14.31,0,0,0,8.07-2.66c.6-.43,1.07-.21,1.61.08a22.19,22.19,0,0,0,3.52,1.75,29.61,29.61,0,0,0,4.45.82c.78.11,1.18.39,1.18,1.16,0,3.2.09,6.4-.06,9.59a7.7,7.7,0,0,1-4.31,6.66c-1.63.89-3.34,1.61-5,2.35a1.63,1.63,0,0,1-1.19,0c-1.69-.73-3.41-1.44-5-2.33A8,8,0,0,1,48,56.1C48,54.74,48,53.37,48,52Zm2.14-3.66V49c0,2.21.08,4.43,0,6.64a6,6,0,0,0,3.39,5.91c1.36.75,2.78,1.39,4.2,2.05a.9.9,0,0,0,.68,0c1.38-.62,2.78-1.2,4.12-1.92a5.93,5.93,0,0,0,3.34-5.47c0-2.42,0-4.83,0-7.24v-.66a5.25,5.25,0,0,0-.52-.12,16,16,0,0,1-7-2.39.89.89,0,0,0-.69.05,29.42,29.42,0,0,1-2.95,1.41C53.26,47.66,51.75,48,50.18,48.35Z"/><path d="M55.18,56.65l6.59-6.36a7.1,7.1,0,0,1,.64-.59,1.07,1.07,0,0,1,1.48,1.54,2.54,2.54,0,0,1-.32.34l-7.82,7.54c-.93.89-1.72.71-2.17-.49q-.77-2-1.5-4.08A1.12,1.12,0,0,1,52.63,53c.62-.25,1.2.06,1.49.83S54.81,55.64,55.18,56.65Z"/></svg>