<svg id="Layer_1" data-name="Layer 1" xmlns="http://www.w3.org/2000/svg" viewBox="0 0 85.04 85.04"><defs><style>.cls-1{fill:#1d1d1b;}</style></defs><path class="cls-1" d="M75.31,23.54a17.94,17.94,0,0,0-.2-2.64A12.24,12.24,0,0,0,64.29,10.8a16.59,16.59,0,0,0-10.24,2.53,24,24,0,0,0-4.32,3.75l-.6.61a.57.57,0,0,1-.79.14A17.23,17.23,0,0,0,42,16.2a18.7,18.7,0,0,0-13.58,4.47.79.79,0,0,1-.72.15l-.31,0a6.86,6.86,0,0,0-2.17,0,4.24,4.24,0,0,0-3.31,3.4A4.51,4.51,0,0,0,23.69,29L37.05,39.67l3.61,2.89c3.16,2.53,6.42,5.15,9.65,7.7a4.52,4.52,0,0,0,5.89-.16,4.57,4.57,0,0,0,1-5.71.74.74,0,0,1,0-.82,18.36,18.36,0,0,0,.53-16.2,25.35,25.35,0,0,0-1.63-3c-.26-.43-.52-.88-.78-1.33l.39-.38c.38-.37.79-.77,1.19-1.18a8.68,8.68,0,0,1,5.83-2.56H63a4.09,4.09,0,0,1,4.08,3.51,7,7,0,0,1,.09,1.19V73.5c0,1,.37,1.46,1.13,1.47h0a1,1,0,0,0,.77-.28,1.61,1.61,0,0,0,.38-1.21V63.43q0-20.11,0-40.23a6.56,6.56,0,0,0-.86-3.38c-1.51-2.6-4.36-3.75-7.63-3.06a11.11,11.11,0,0,0-5.8,3.12l-1.12,1.17-.35.36-2.86-2.29L52,18a24.78,24.78,0,0,1,2.89-2.43A12.74,12.74,0,0,1,65.48,13.4,10,10,0,0,1,73,23.33c0,12.15,0,24.51,0,36.47q0,6.7,0,13.43v.18A2.58,2.58,0,0,0,73,74a1.11,1.11,0,0,0,1.13.94h0a1.07,1.07,0,0,0,1.11-1,5.16,5.16,0,0,0,0-.68V67Q75.32,45.28,75.31,23.54ZM54,41.38l-2.38-1.9L50,38.22Q42.7,32.34,35.35,26.46a1.37,1.37,0,0,0-1.48-.31,1.07,1.07,0,0,0-.65.85,1.3,1.3,0,0,0,.52,1.16c1,.82,2,1.64,3,2.43l1.14.91L54.26,44.59a2.78,2.78,0,0,1,1.18,2.25,2.14,2.14,0,0,1-1,1.69,2.33,2.33,0,0,1-2.88-.28L47,44.66l-6.5-5.21L25.25,27.25a2.4,2.4,0,0,1-1.07-2.49,2.14,2.14,0,0,1,1.56-1.7,2.35,2.35,0,0,1,.68-.11,2.42,2.42,0,0,1,1.55.6c.81.66,1.63,1.32,2.46,2s1.41.57,1.87,0a1,1,0,0,0,.25-.79,1.67,1.67,0,0,0-.7-1.07l-1.1-.89-.59-.47a16.36,16.36,0,0,1,25,20Z"/><path class="cls-1" d="M37.62,70.86a8.11,8.11,0,0,0-8.34-5.77,1.36,1.36,0,0,1-1.49-.88,11.79,11.79,0,0,0-10.63-6.67l-.36,0-.75,0a11.84,11.84,0,0,0-5.62,2,1.16,1.16,0,1,0,1.2,2,2.63,2.63,0,0,0,.33-.2l.18-.1a8.92,8.92,0,0,1,4.3-1.36,9.44,9.44,0,0,1,9.38,5.55,3.37,3.37,0,0,0,3.51,2A5.75,5.75,0,0,1,35.4,71.6l0,.09a1.34,1.34,0,0,0,.19.48,1.13,1.13,0,0,0,.94.58,1.18,1.18,0,0,0,.36-.06,1.14,1.14,0,0,0,.85-1.18,1.86,1.86,0,0,0-.11-.52A.65.65,0,0,1,37.62,70.86Z"/><path class="cls-1" d="M59.56,54.86h0a5,5,0,0,0,0,9.9h0a5,5,0,0,0,0-9.9ZM57,59.77a2.56,2.56,0,0,1,2.6-2.57h0a2.61,2.61,0,0,1,1.82,4.44,2.63,2.63,0,0,1-1.86.74h0A2.53,2.53,0,0,1,57,59.77Z"/><path class="cls-1" d="M15.55,20.55h0a4.9,4.9,0,0,0,0-9.8h0a4.92,4.92,0,0,0-3.5,1.45,4.9,4.9,0,0,0,3.5,8.35ZM13,15.62a2.54,2.54,0,0,1,2.57-2.54h0a2.62,2.62,0,0,1,2.58,2.58,2.52,2.52,0,0,1-.79,1.82,2.55,2.55,0,0,1-1.86.76A2.59,2.59,0,0,1,13,15.62Z"/><path class="cls-1" d="M44.21,54l1.26-4.43A1.06,1.06,0,0,0,45,48.28a1.42,1.42,0,0,0-1.19-.07,1.83,1.83,0,0,0-.7,1C42,53.16,40.89,57.15,39.79,61L39,63.84c-.07.24-.14.48-.21.76l-.14.49,0,0c0,.06.05.13.08.2a1.62,1.62,0,0,0,.29.55,1,1,0,0,0,.79.38.91.91,0,0,0,.23,0,1.42,1.42,0,0,0,1-1c.75-2.61,1.49-5.23,2.24-7.84Z"/><path class="cls-1" d="M15.12,47.56h0a3.84,3.84,0,0,0-2.73,6.55,3.88,3.88,0,0,0,2.75,1.15h0A3.88,3.88,0,0,0,19,51.42a3.81,3.81,0,0,0-1.12-2.71A3.86,3.86,0,0,0,15.12,47.56Zm1.5,3.89a1.49,1.49,0,0,1-1.53,1.46,1.49,1.49,0,0,1-1.47-1.53,1.52,1.52,0,0,1,1.5-1.51h0a1.44,1.44,0,0,1,1,.45A1.56,1.56,0,0,1,16.62,51.45Z"/><path class="cls-1" d="M46.93,65.09h0a3.88,3.88,0,0,0-2.7,6.61,3.81,3.81,0,0,0,2.71,1.1h0a3.83,3.83,0,0,0,2.69-6.57A3.81,3.81,0,0,0,46.93,65.09Zm1.5,3.85A1.49,1.49,0,0,1,47,70.47a1.58,1.58,0,0,1-1.1-.44A1.46,1.46,0,0,1,45.41,69a1.49,1.49,0,0,1,1.51-1.49h0A1.46,1.46,0,0,1,48.43,68.94Z"/><path class="cls-1" d="M35.15,40.31a2.25,2.25,0,0,0-.57-.58,1,1,0,0,0-1.36.31c-.38.44-.76.9-1.12,1.35l-1.81,2.19c-2.15,2.61-4.38,5.3-6.54,8a1.54,1.54,0,0,0-.35,1.14,1.47,1.47,0,0,0,.8.86.78.78,0,0,0,.36.08,1.28,1.28,0,0,0,1-.57l3.13-3.8q3.13-3.8,6.26-7.6a2.29,2.29,0,0,0,.32-.56l.18-.37,0-.07-.06-.07Z"/><path class="cls-1" d="M11.38,39.54a1.1,1.1,0,0,0,.37.06,1.7,1.7,0,0,0,.78-.2l1.92-1,1.05-.54,2.23-1.13,6.41-3.24a1.41,1.41,0,0,0,.92-1.2h0a1.08,1.08,0,0,0-.51-.94,1.53,1.53,0,0,0-1.45.05L11.49,37.3c-.76.39-1.05,1-.74,1.67A1.07,1.07,0,0,0,11.38,39.54Z"/><path class="cls-1" d="M30,36.54A2.15,2.15,0,0,0,29.5,36a1,1,0,0,0-1.34.06l-3.53,2.4-6.93,4.7a1.27,1.27,0,0,0-.58.84,1.07,1.07,0,0,0,.19.84,1.13,1.13,0,0,0,.93.5A1.45,1.45,0,0,0,19,45c3.34-2.25,6.91-4.68,10.45-7.1a2.15,2.15,0,0,0,.49-.58,3.39,3.39,0,0,1,.23-.34l.06-.07-.06-.08Z"/><path class="cls-1" d="M35.61,54.15l0,0L35.8,54a1.55,1.55,0,0,0,.58-.56c1.07-2.43,2.2-5.05,3.54-8.25a1.12,1.12,0,0,0-.08-1.05,1.11,1.11,0,0,0-.88-.54,1.21,1.21,0,0,0-1.27.9c-.63,1.48-1.26,3-1.9,4.43l-.65,1.52-.27.62c-.21.47-.42,1-.61,1.45a1.17,1.17,0,0,0,.1,1.08,1.45,1.45,0,0,0,1.2.54Z"/><path class="cls-1" d="M32.67,56.26c-.41.9-.76,1.71-1.06,2.47a1.16,1.16,0,0,0,1,1.7,1.25,1.25,0,0,0,1.12-.82c.32-.71.62-1.44.91-2.15l.06-.15a1.9,1.9,0,0,0,.11-.38l0-.09v0A1.14,1.14,0,0,0,34,55.58,1.09,1.09,0,0,0,32.67,56.26Z"/></svg>