<svg id="Layer_1" data-name="Layer 1" xmlns="http://www.w3.org/2000/svg" viewBox="0 0 85.04 85.04"><defs><style>.cls-1{fill:#1d1d1b;}</style></defs><path class="cls-1" d="M75,35.79s0-.08,0-.11a1.11,1.11,0,0,1-.07-.22,7.78,7.78,0,0,0-4.86-6.21L56.54,23.8,45.25,19.26a6.73,6.73,0,0,0-5.3,0L31.8,22.53l-5.52,2.21-.15.06a.93.93,0,0,0-.51.3,1.9,1.9,0,0,0-.37,1.12.79.79,0,0,0,.31.56,1,1,0,0,0,.77.19,2.85,2.85,0,0,0,.75-.22l3.37-1.35c3.21-1.28,6.52-2.61,9.77-3.95a5.91,5.91,0,0,1,4.72,0l2.89,1.18c6.93,2.82,14.09,5.74,21.18,8.49a6,6,0,0,1,3.62,4,6.27,6.27,0,0,1-1,5.48c-1.07,1.42-2.28,2.77-3.45,4.08-.38.43-.77.85-1.14,1.29a1,1,0,0,1-.63.2c-17.82,0-33.42,0-47.68,0a1.14,1.14,0,0,1-.75-.35c-1.23-1.35-2.22-2.48-3.11-3.56l-.3-.37A12.1,12.1,0,0,1,13,39.67a6.32,6.32,0,0,1-.21-5.23,5.7,5.7,0,0,1,3.42-3.31c1.23-.44,2.46-.95,3.65-1.44l1.33-.55A1.44,1.44,0,0,0,22,28.4a1,1,0,0,0-.05-.81,1.13,1.13,0,0,0-1.57-.46l-2,.79c-1,.43-2.11.86-3.17,1.27a7.91,7.91,0,0,0-4.76,5.23,8.45,8.45,0,0,0,1.23,7.34c1,1.31,2,2.54,3.09,3.74.55.62,1.12,1.27,1.67,1.92a1.25,1.25,0,0,1,.26.7c0,1,0,2.07,0,3.15a2.34,2.34,0,0,1-.22.91q-.49,1.05-1,2.1c-.33.66-.65,1.31-1,2a2.15,2.15,0,0,0,.62,2.8,24.21,24.21,0,0,0,5.32,3.52,42.56,42.56,0,0,0,16.26,4q3.28.21,6.28.21a70.07,70.07,0,0,0,8-.43A41.5,41.5,0,0,0,63.73,63a23.63,23.63,0,0,0,6.29-4,2.17,2.17,0,0,0,.58-2.86l-.18-.38a7.91,7.91,0,0,0-.59-1.16,9.4,9.4,0,0,1-1.45-6.33v0l.09-.29a1.48,1.48,0,0,1,.21-.51l1.79-2.07c.73-.84,1.49-1.7,2.21-2.57a10.69,10.69,0,0,0,1.45-2.16,13.6,13.6,0,0,0,.67-1.95c.08-.28.16-.57.26-.85v-2.1ZM19,50.72V48.45H66.19v2.27Zm27,11.52c1.33-.05,2.71-.12,4.1-.23.8-.06,1.28-.5,1.25-1.13s-.55-1-1.4-1h-.07c-1.13,0-2.27.06-3.4.1-2.61.09-5.3.18-7.95.1a40.9,40.9,0,0,1-18.61-4.58c-.48-.26-1-.55-1.41-.82l-.55-.33c.55-1.33.58-1.33,2-1.33h7.77c12.42,0,25.27,0,37.9,0h0c.9,0,1.29.24,1.49.94a1.51,1.51,0,0,0,.13.3.61.61,0,0,0,0,.12l-.77.45c-.61.36-1.25.73-1.89,1.06a34.93,34.93,0,0,1-8.31,3c-.17,0-.33.07-.49.12-.76.22-1.11.74-.93,1.39a1.12,1.12,0,0,0,1.49.69c1-.24,2-.5,3-.8a34.21,34.21,0,0,0,8.42-3.72c.09-.06.2-.11.31-.17l.09-.05.5,1A22.07,22.07,0,0,1,62,61.45a40.56,40.56,0,0,1-11.54,2.82,68.3,68.3,0,0,1-11.57.36c-4.62-.26-10.66-.89-16.4-3.41a21.91,21.91,0,0,1-5.53-3.41c-.5-.43-.55-.7-.23-1.13a2.46,2.46,0,0,0,.19-.32l0-.08.14.08.45.26a37.94,37.94,0,0,0,12.73,4.71A69.27,69.27,0,0,0,45.93,62.24Z"/><path class="cls-1" d="M42.59,44.13a9.49,9.49,0,0,0,9.46-9.44,9.47,9.47,0,0,0-9.46-9.47h0a9.46,9.46,0,0,0-9.45,9.41,9.53,9.53,0,0,0,9.45,9.5Zm-5.17-4.34a7.21,7.21,0,0,1-2.13-5.14,7.31,7.31,0,0,1,2.17-5.15,7.21,7.21,0,0,1,5.12-2.14h0a7.35,7.35,0,0,1,7.27,7.28,7.11,7.11,0,0,1-2.09,5.11,7.23,7.23,0,0,1-5.19,2.18h0A7.25,7.25,0,0,1,37.42,39.79Z"/><path class="cls-1" d="M45.54,38.37A7.09,7.09,0,0,0,47,36.42a.94.94,0,0,0,.09-.76,1,1,0,0,0-.58-.63,1.06,1.06,0,0,0-1.44.5l-.12.23a1.15,1.15,0,0,1-.14.27,2,2,0,0,1-1,.94V33.2c1.11-.11,1.78-.35,1.71-1.12C45.36,31,44.55,31,43.9,31h-.17c-.22-1-.55-1.35-1.14-1.35h0c-.67,0-.94.52-1.14,1.35h-.11c-.66,0-1.56,0-1.59,1a1.1,1.1,0,0,0,.26.8,1.88,1.88,0,0,0,1.32.34h.14V37a2.43,2.43,0,0,1-1.19-1.25,1.44,1.44,0,0,0-.78-.78,1,1,0,0,0-.8.07c-.57.29-.71.89-.38,1.64a4.74,4.74,0,0,0,4.3,2.79A4.45,4.45,0,0,0,45.54,38.37Z"/></svg>