<svg id="Layer_1" data-name="Layer 1" xmlns="http://www.w3.org/2000/svg" viewBox="0 0 85.04 85.04"><path d="M68,60.36c0-1.15,0-2.3,0-3.46a1.39,1.39,0,0,0-1.35-1.52h0c-.78,0-1.3.6-1.34,1.52V64c0,.17,0,.35,0,.52v.08H22.81a2.5,2.5,0,0,0,.52-.35l8.78-8.77.91-.92a3.28,3.28,0,0,0,.52-.59,1.33,1.33,0,0,0-1.87-1.81,3.29,3.29,0,0,0-.52.46l-.75.75q-4.5,4.5-9,9a1.56,1.56,0,0,0-.3.55l0,0V20.37h7.85A1.38,1.38,0,0,0,30.33,19a1.39,1.39,0,0,0-1.47-1.33H20.23c-1.5,0-1.91.42-1.91,1.94V65.45c0,1.51.42,1.92,1.94,1.92H66.47A1.38,1.38,0,0,0,68,65.83c0-1,0-1.93,0-2.9V60.36Z"/><path d="M33.81,20.35H63.56l0,0,0,0a2.11,2.11,0,0,0-.53.37L38.9,44.89l-3.45,3.45-.15.14a5.08,5.08,0,0,0-.39.41,1.34,1.34,0,0,0,1.86,1.92,4.22,4.22,0,0,0,.43-.41l1.86-1.86Q52,35.61,64.92,22.67a1.76,1.76,0,0,0,.35-.52l0,0,0,0V51.08a2.18,2.18,0,0,1,0,.25,1.63,1.63,0,0,0,1.13,1.74h.13s.09,0,.13,0a1.36,1.36,0,0,0,1-.55l.07-.09,0,0a1.49,1.49,0,0,0,.19-.93v-.1q0-14.15,0-28.3V19.51c0-1.39-.46-1.84-1.87-1.84H34.24a2.48,2.48,0,0,0-.47,0,1.35,1.35,0,0,0-1.21,1.42A1.29,1.29,0,0,0,33.81,20.35Z"/><path d="M29.29,22.37A1.42,1.42,0,0,0,27.71,24c0,.73,0,1.46,0,2.24v.84H24.66A1.43,1.43,0,0,0,23,28.68c0,1.08,0,2.16,0,3.24v.76c0,1.34.48,1.82,1.84,1.83h2.85v2.76c0,1.48.46,1.93,2,1.93h3.48c1.58,0,2-.44,2-2V34.51H36c.74,0,1.43,0,2.13,0,1.2,0,1.72-.53,1.73-1.71,0-1.41,0-2.78,0-4.08,0-1.15-.53-1.66-1.69-1.67h-3V26.2c0-.78,0-1.54,0-2.29a1.41,1.41,0,0,0-1.56-1.54H29.29Zm3.13,14h-2V34.51c0-2.64-.1-2.75-2.79-2.75H25.78v-2h3.1c1.06,0,1.52-.5,1.54-1.54,0-.75,0-1.51,0-2.28v-.82h2V28c0,1.33.46,1.78,1.77,1.8h1.6l1.27,0v2H34.25c-1.34,0-1.82.49-1.83,1.83v2.8Z"/><path d="M61.47,50.53H48.16c-1.21,0-1.7.49-1.7,1.7s0,2.72,0,4.08c0,1.18.48,1.66,1.64,1.67H61.64a1.4,1.4,0,0,0,1.59-1.57c0-1.41,0-2.83,0-4.16S62.75,50.54,61.47,50.53Zm-1,2.81v1.85H49.16V53.34Z"/></svg>