<svg id="Layer_1" data-name="Layer 1" xmlns="http://www.w3.org/2000/svg" viewBox="0 0 85.04 85.04"><path d="M74.21,18.39c0-1,0-2,0-3a3.34,3.34,0,0,0-3.53-3.51h-13c-13.8,0-28.08,0-42.12,0h0c-2.13,0-3.42.84-4,2.62l0,11.88.1.26a3,3,0,0,1,.16.31A3.36,3.36,0,0,0,15,29c1.25,0,2.49,0,3.74,0H20.8v5.32c0,1.84.39,2.43,2.05,3V43c-1.59.46-2.05,1.13-2.05,2.86v6.64c0,5.92,0,12.05,0,18.07,0,2.15.83,3.44,2.65,4l38.8,0,.05,0,.32-.14a5,5,0,0,0,.73-.37,3.17,3.17,0,0,0,1.54-2.6c0-.21,0-.42,0-.63V64.49q0-11.47,0-22.93a2.47,2.47,0,0,0-1.27-2.46,3.22,3.22,0,0,0-.64-.22l-.14,0V37.29l.24-.06a2.26,2.26,0,0,0,1.79-2.32c0-1.3,0-2.6,0-3.9V29H66.8c1.25,0,2.5,0,3.75,0a3.51,3.51,0,0,0,3.69-3.66C74.18,23,74.2,20.67,74.21,18.39ZM25.46,43V37.4a2.37,2.37,0,0,0-2-2.7v-13h34a1,1,0,0,1,.83.33c.49.51,1,1,1.5,1.51.7.71,1.43,1.43,2.12,2.17a1.73,1.73,0,0,1,.44,1.05c0,2,0,4.09,0,6.09v1.82l-.42.09A2.33,2.33,0,0,0,60.22,37v1.82a2.37,2.37,0,0,0,2.07,2.64V70.8c0,1-.2,1.24-1.27,1.24H24.66c-1.07,0-1.27-.19-1.27-1.24V45.56A2.34,2.34,0,0,0,25.46,43ZM63.93,21.73h3.7A1.28,1.28,0,0,0,69,20.86a1.2,1.2,0,0,0-.4-1.43,1.6,1.6,0,0,0-.71-.27,2.06,2.06,0,0,0-.55,0H18.44a5.43,5.43,0,0,0-.57,0,1.25,1.25,0,0,0-1.22,1.26,1.27,1.27,0,0,0,1.27,1.31c.64,0,1.28,0,1.91,0h.92v4.64H15.12c-.86,0-1.08-.23-1.08-1.11V15.72c0-1.06.21-1.27,1.26-1.27H69.85a8.61,8.61,0,0,1,.88,0c.61,0,.9.31.9.89q0,5.07,0,10.15c0,.53-.27.85-.72.85-1.49,0-3,0-4.5,0H64.88a4.15,4.15,0,0,0-1.59-2.9c-.48-.45-.95-.91-1.46-1.42l-.31-.31Z"/><path d="M30.62,70.48H55.06a3.36,3.36,0,0,0,3.59-3.58v-39a3.36,3.36,0,0,0-3.59-3.59q-12.23,0-24.44,0A3.36,3.36,0,0,0,27,27.89v39A3.36,3.36,0,0,0,30.62,70.48ZM56.08,42.53V66.65c0,1-.22,1.24-1.23,1.24h-24c-1,0-1.24-.22-1.24-1.22V42.9c0-.12,0-.24,0-.37ZM29.6,39.81V28c0-.88.23-1.11,1.09-1.11H55c.82,0,1.08.24,1.09,1V39.81Z"/><path d="M51,29.51H34.78a3.31,3.31,0,0,0-.45,0,1.31,1.31,0,0,0-1.09,1.27,1.25,1.25,0,0,0,1,1.25,1.7,1.7,0,0,0,.44.05H51a1.47,1.47,0,0,0,1.06-.41,1.18,1.18,0,0,0,.34-.89A1.31,1.31,0,0,0,51,29.51Z"/><path d="M50.9,35.71H45.2a1.74,1.74,0,0,0-1.25.44,1.24,1.24,0,0,0-.34.88c0,.79.62,1.29,1.61,1.3h5.7c.93,0,1.53-.52,1.52-1.31S51.83,35.72,50.9,35.71Z"/></svg>