<svg id="Layer_1" data-name="Layer 1" xmlns="http://www.w3.org/2000/svg" viewBox="0 0 85.04 85.04"><path d="M64.56,16a3.23,3.23,0,0,0-3.66,1.16l-.81,1-1.25,1.47c-.27.31-.52.48-.72.45s-.41-.24-.59-.61l-.78-1.52c-.67-1.3-1.36-2.65-2-4a6,6,0,0,0-4.21-3.81H34.31a6,6,0,0,0-4.2,3.81c-.62,1.39-1.34,2.78-2,4.12-.26.48-.51,1-.75,1.46-.17.33-.37.53-.57.55a.92.92,0,0,1-.68-.4c-.47-.54-.93-1.09-1.39-1.64L24,17.15A3.23,3.23,0,0,0,20.33,16a3.3,3.3,0,0,0-2.21,3.23c0,4.47,0,8.94,0,13.41a5,5,0,0,0,2,4.14,8.61,8.61,0,0,0,1.33.75l.47.23V63c0,1.25.46,1.71,1.69,1.71h2.14v6.1c0,1.08.49,1.57,1.57,1.57h2.26v.44c0,.59,0,1.15,0,1.7,0,1.25.45,1.69,1.71,1.69H53.49c1.37,0,1.78-.42,1.78-1.81v-2H57.6a1.33,1.33,0,0,0,1.5-1.5c0-.86,0-1.72,0-2.58V64.67h.46c.64,0,1.26,0,1.87,0a1.34,1.34,0,0,0,1.5-1.43,3.09,3.09,0,0,0,0-.43V37.69c2.53-.93,3.82-2.65,3.83-5.12,0-4.43,0-8.86,0-13.29A3.34,3.34,0,0,0,64.56,16Zm-12,56.4v1.15H32.31V72.39Zm7.66-23v8.85H59.16V49.37ZM34.54,62.11a1.29,1.29,0,0,0,0,2.54,2.52,2.52,0,0,0,.54,0H56.4v5H28.47v-5h.45c.61,0,1.21,0,1.82,0,.92,0,1.52-.51,1.52-1.29a1.22,1.22,0,0,0-.44-1,1.68,1.68,0,0,0-1.08-.33H24.63V60.88h35.6v1.21H35.07A2.39,2.39,0,0,0,34.54,62.11ZM53,39.51a1.2,1.2,0,0,0-.34.88c0,.78.61,1.28,1.53,1.28h6.08v5H24.65v-5H49.82a2.52,2.52,0,0,0,.54,0,1.3,1.3,0,0,0,0-2.55,3.17,3.17,0,0,0-.53,0H24.65V37.88H60.26v1.21H54.14A1.6,1.6,0,0,0,53,39.51ZM24.63,58.21V49.38h1.1v8.83Zm3.84,0V49.37h1.1v8.85Zm3.83,0V49.37h1.1v8.85Zm3.85,0V49.37h1.1V58.2Zm3.82,0V49.37h1.1v8.85Zm3.84,0V49.37H44.9v8.85Zm3.84,0V49.37h1.1v8.85Zm3.83,0V49.37h1.09v8.85Zm3.85,0V49.39h1.08v8.84Zm8.79-39v5.37q0,4,0,8a2.5,2.5,0,0,1-2.75,2.58H23.54a2.56,2.56,0,0,1-2.68-1.84,3.51,3.51,0,0,1-.09-.92v-6.3q0-3.4,0-6.79c0-.6.1-.81.44-.93s.49,0,.86.46l.75.9,1.27,1.49a3.23,3.23,0,0,0,5.61-.69l.1-.19c1-2,2-4.05,3-6.08a2.77,2.77,0,0,1,2.74-1.7h0c4.58,0,9.16,0,13.74,0h0a2.77,2.77,0,0,1,2.74,1.69c.79,1.63,1.61,3.25,2.42,4.86l.69,1.36a3.47,3.47,0,0,0,2.63,2.07,3.54,3.54,0,0,0,3.09-1.41L63,18.8c.32-.39.51-.42.73-.33S64.12,18.73,64.12,19.26Z"/></svg>