<svg id="Layer_1" data-name="Layer 1" xmlns="http://www.w3.org/2000/svg" viewBox="0 0 85.04 85.04"><path d="M59.76,28.64c0-.57,0-1.14,0-1.71,0-1.24,0-2.52,0-3.78a5.51,5.51,0,0,0-4.62-5.7,7.58,7.58,0,0,0-1.36-.09l-.55,0V17c0-.28,0-.54,0-.81v-.59c0-.5,0-1,0-1.51a3.71,3.71,0,0,0-2.81-3.27h-16l0,0,0,0,0,0a3.57,3.57,0,0,0-2.64,3.76v2.66H30.5a5.45,5.45,0,0,0-5.41,5.45V68.68a5.49,5.49,0,0,0,5.46,5.48H54.28a5.29,5.29,0,0,0,2.9-.85,5.67,5.67,0,0,0,2.59-5.12q0-15.12,0-30.25ZM57,39.67c0,2,0,4.09,0,6.13s0,4.11,0,6.17c0,5.35,0,10.88,0,16.32a3.11,3.11,0,0,1-.88,2.32,3.24,3.24,0,0,1-2.33.9h0c-3.5,0-7,0-10.54,0H31a2.93,2.93,0,0,1-3.2-3.24q0-22.48,0-45A2.9,2.9,0,0,1,31,20.05h6.48c5.39,0,11,0,16.45,0h0a3.15,3.15,0,0,1,2.27.9,3.07,3.07,0,0,1,.88,2.26C57,28.68,57,34.27,57,39.67ZM34.29,17.34V14.8c0-1,.33-1.28,1.27-1.28H49.29c.9,0,1.21.3,1.21,1.18v2.64Z"/><path d="M54.83,24.06c0-1.31-.44-1.75-1.76-1.75H31.75c-1.31,0-1.73.41-1.73,1.7v43.5c0,1.3.42,1.72,1.71,1.72H53c1.45,0,1.84-.4,1.84-1.86V50.56a3.79,3.79,0,0,0-.07-.82,1.3,1.3,0,0,0-1.54-1,1.43,1.43,0,0,0-1.11,1.57v8.23H32.74V25H52.11v2.82c0,2,0,4,0,6a1.61,1.61,0,0,0,.53,1.27,1.33,1.33,0,0,0,1.09.26c.7-.13,1.1-.73,1.1-1.64C54.84,30.47,54.83,27.27,54.83,24.06ZM32.73,66.53V61.26H52.08v5.27Z"/><path d="M39.32,45.83c-.1.63-.21,1.26-.31,1.89-.24,1.43-.49,2.9-.72,4.35-.14.91.12,1.48.8,1.74a1.42,1.42,0,0,0,.51.11,1.57,1.57,0,0,0,1.25-.84l2.5-3.58q2.88-4.16,5.77-8.29a1.41,1.41,0,0,0-1.23-2.37H44.7l1.45-5.74a1.43,1.43,0,0,0-1.58-2c-1.58,0-3.17,0-4.75,0a1.45,1.45,0,0,0-1.66,1.3q-1.38,5.37-2.74,10.76a1.58,1.58,0,0,0,.17,1.4,1.56,1.56,0,0,0,1.32.52h2.53l0,.23C39.38,45.49,39.35,45.66,39.32,45.83Zm3.5-10.58c-.37,1.48-.74,2.93-1.1,4.39a1.35,1.35,0,0,0,1.43,1.91c.5,0,1,0,1.51,0h.87l0,0h0L41.9,46.86l.12-.74.33-2a1.47,1.47,0,0,0-.26-1.22A1.42,1.42,0,0,0,41,42.4H38.38l.56-2.17,1.2-4.71c0-.17.07-.35.1-.53.07-.44.15-.89.38-1.06a1.91,1.91,0,0,1,1.15-.13c.2,0,.4,0,.58,0h.84Z"/><path d="M53.47,40.81h0a1.37,1.37,0,0,0-1,.42,1.34,1.34,0,0,0-.37.93,1.37,1.37,0,0,0,1.36,1.31h0a1.32,1.32,0,0,0,1.3-1.33,1.24,1.24,0,0,0-.39-.94A1.34,1.34,0,0,0,53.47,40.81Z"/></svg>