<svg id="Layer_1" data-name="Layer 1" xmlns="http://www.w3.org/2000/svg" viewBox="0 0 85.04 85.04"><path d="M43,54.64c-4.14,0-8.29,0-12.44,0a5,5,0,0,1-4.87-3.57,5.47,5.47,0,0,1-.21-1.55c0-4.77-.06-9.53-.05-14.29a5.4,5.4,0,0,1,2.9-5,5,5,0,0,1,2.45-.65c1.05,0,2.11,0,3.16,0a1.46,1.46,0,0,0,1.34-.71c.55-.84,1.12-1.66,1.7-2.48a3.83,3.83,0,0,1,3.29-1.74c1.75,0,3.51,0,5.26,0a3.93,3.93,0,0,1,3.41,1.8c.57.83,1.15,1.66,1.72,2.5a1.34,1.34,0,0,0,1.22.65c1,0,2,0,3,0A5.47,5.47,0,0,1,60,33.15a6.13,6.13,0,0,1,.37,2.2c0,3.95,0,7.89,0,11.83,0,1,0,2-.06,3a4.7,4.7,0,0,1-1.89,3.39,4.94,4.94,0,0,1-3.14,1.07H43Zm0-2.32v0h4.4c2.72,0,5.44,0,8.16,0a2.48,2.48,0,0,0,2.58-2.53q0-7.36,0-14.73a2.89,2.89,0,0,0-3-2.93H51.79a3.58,3.58,0,0,1-2.86-1.37c-.74-.94-1.39-2-2-3A1.54,1.54,0,0,0,45.47,27L40.2,27a1.36,1.36,0,0,0-1.2.64c-.58.86-1.16,1.73-1.75,2.58a3.93,3.93,0,0,1-3.43,1.85c-1.07,0-2.14,0-3.21,0a3.38,3.38,0,0,0-1.26.3,2.8,2.8,0,0,0-1.62,2.69c0,2.87,0,5.74,0,8.6,0,2,0,4,0,6a2.47,2.47,0,0,0,1.42,2.33,2.79,2.79,0,0,0,1.36.25Z"/><path d="M72.84,53.77a8.21,8.21,0,0,1-2.07,5.32,8.59,8.59,0,0,1-4,2.66,7.74,7.74,0,0,1-2.87.4,1.3,1.3,0,0,1-.22-2.54,4.83,4.83,0,0,1,.93-.12A6.06,6.06,0,0,0,70,55.13a9.36,9.36,0,0,0,.26-1.67,1.38,1.38,0,0,1,1.17-1.39,1.25,1.25,0,0,1,1.43,1.15Z"/><path d="M13,33A8.23,8.23,0,0,1,15,27.72a8.67,8.67,0,0,1,4-2.67,7.94,7.94,0,0,1,2.78-.4,1.3,1.3,0,0,1,.3,2.55,2.32,2.32,0,0,1-.58.08,6.15,6.15,0,0,0-5.66,4.19,6.47,6.47,0,0,0-.31,1.86,1.33,1.33,0,0,1-1.15,1.4A1.25,1.25,0,0,1,13,33.57,5,5,0,0,0,13,33Z"/><path d="M12.9,53.76a4.79,4.79,0,0,1,.24-1,1.2,1.2,0,0,1,1.22-.64,1.29,1.29,0,0,1,1.13,1,3,3,0,0,1,.06.52,6.15,6.15,0,0,0,4.61,5.72,10.32,10.32,0,0,0,1.48.19,1.32,1.32,0,0,1,1.33,1,1.26,1.26,0,0,1-1.22,1.56A8.19,8.19,0,0,1,17.2,60.9a8.62,8.62,0,0,1-4-5.27A18.7,18.7,0,0,1,12.9,53.76Z"/><path d="M72.89,33.07a2.06,2.06,0,0,1-.29,1.12,1.27,1.27,0,0,1-1.35.47,1.21,1.21,0,0,1-.91-1c-.08-.53-.09-1.09-.21-1.61a6.08,6.08,0,0,0-3.5-4.29,6.74,6.74,0,0,0-2.51-.55,1.23,1.23,0,0,1-1.25-1.53,1.21,1.21,0,0,1,1.18-1,8.44,8.44,0,0,1,5.7,2.07,8.64,8.64,0,0,1,2.81,4.44C72.72,31.82,72.78,32.45,72.89,33.07Z"/><path d="M21.43,29.62A1.41,1.41,0,0,1,23,30.76a1.29,1.29,0,0,1-.86,1.42c-.23.08-.48.06-.72.12a1.19,1.19,0,0,0-.91,1.15,1.31,1.31,0,0,1-1.35,1.3,1.35,1.35,0,0,1-1.27-1.49,3.76,3.76,0,0,1,2.49-3.39A6.53,6.53,0,0,1,21.43,29.62Z"/><path d="M64.39,57.19A1.42,1.42,0,0,1,62.79,56a1.31,1.31,0,0,1,.9-1.4c.21-.07.44,0,.66-.11a1.15,1.15,0,0,0,.93-1.16,1.31,1.31,0,0,1,1.37-1.29,1.33,1.33,0,0,1,1.26,1.47,3.75,3.75,0,0,1-2.49,3.4A5.9,5.9,0,0,1,64.39,57.19Z"/><path d="M21.59,57.15A3.74,3.74,0,0,1,18,54.23a2,2,0,0,1,0-1.43,1.28,1.28,0,0,1,1.41-.68,1.23,1.23,0,0,1,1,1.18,1.27,1.27,0,0,0,1.25,1.29A1.27,1.27,0,0,1,23,55.92,1.29,1.29,0,0,1,21.59,57.15Z"/><path d="M64.21,29.68a3.76,3.76,0,0,1,3.57,3,2,2,0,0,1-.09,1.39,1.27,1.27,0,0,1-1.43.59,1.25,1.25,0,0,1-.93-1.14,1.26,1.26,0,0,0-1.24-1.31,1.26,1.26,0,1,1,.12-2.52Z"/><path d="M50.44,42.18A7.54,7.54,0,1,1,43,34.61,7.51,7.51,0,0,1,50.44,42.18Zm-2.64,0a4.9,4.9,0,1,0-4.89,4.91A4.86,4.86,0,0,0,47.8,42.15Z"/></svg>