<svg id="Layer_1" data-name="Layer 1" xmlns="http://www.w3.org/2000/svg" viewBox="0 0 85.04 85.04"><path d="M37.5,66H26.7V64.85a.88.88,0,0,0-1-1h-4v0a.11.11,0,0,1,0-.05V60.05c0-1-.3-1.26-1.28-1.26h-.85V27.6h.56c1.38,0,1.57-.19,1.57-1.55V22.5h1.5q1.29,0,2.58,0a.87.87,0,0,0,1-.95V20.41H54.48a1.61,1.61,0,0,0,.44,0,.84.84,0,0,0,.75-.89.82.82,0,0,0-.79-.85c-.21,0-.43,0-.63,0H26.7V17.45c0-.8-.3-1.08-1.1-1.08H23.15c-2.12,0-4.32,0-6.48,0h0a1.11,1.11,0,0,0-1.21.8v9.67a1.18,1.18,0,0,0,1.33.77h.93V58.79h-.23c-.23,0-.47,0-.7,0H16.6a1.16,1.16,0,0,0-1.16.78V70H26.21l0,0a1.57,1.57,0,0,0,.47-1.47,2.9,2.9,0,0,1,0-.78H37.49a.81.81,0,0,0,.8-.83A.87.87,0,0,0,37.5,66ZM19.85,25.75H17.3v-7.6h7.62v2.59H21c-.79,0-1.1.32-1.1,1.1s0,1.84,0,2.78Zm0,38.65c0,1,.27,1.24,1.22,1.24h3.8l0,0h0v2.56H17.29v-7.6h2.56v2.9C19.84,63.82,19.84,64.11,19.85,64.4Z"/><path d="M69.05,59.19V53a2.2,2.2,0,0,0-2.42-2.41H65.29c-1.41,0-2.87,0-4.3,0h0A.65.65,0,0,1,60.2,50a5.79,5.79,0,0,0-.2-.82,2.06,2.06,0,0,0-2-1.49H51.43a2.07,2.07,0,0,0-2,1.57l0,.14a4.44,4.44,0,0,0-.15.63c-.06.44-.25.61-.72.61h0c-2,0-4.07,0-5.85,0a2.11,2.11,0,0,0-2.2,2.13q0,4.73,0,9.46v5.67a1.89,1.89,0,0,0,.66,1.5,3.61,3.61,0,0,0,.66.44L42,70H67.36a2.41,2.41,0,0,0,1.7-2.41Q69,63.4,69.05,59.19Zm-2.53,9H42.92c-.72,0-.78-.06-.78-.78V53.2c0-.75,0-.78.77-.78h5.43a2.25,2.25,0,0,0,2.6-2l0-.15c0-.1.06-.21.08-.31a.54.54,0,0,1,.63-.5h0c1.81,0,3.79,0,6.06,0h0a.53.53,0,0,1,.61.51c.4,2.16,1.34,2.53,3.2,2.48,1.17,0,2.36,0,3.51,0h1.45c.69,0,.72,0,.72.7V67.53C67.25,68.2,67.22,68.23,66.52,68.23Z"/><path d="M58.71,22.5c.83,0,1.66,0,2.5,0h1.53v3.95c0,.84.31,1.14,1.16,1.15H65v5.45q0,7.19,0,14.37v.09a2.16,2.16,0,0,0,0,.56.82.82,0,0,0,.84.65h.07a.81.81,0,0,0,.8-.71,4.17,4.17,0,0,0,0-.69q0-9.52,0-19V27.6h1.06a.94.94,0,0,0,1-1.06V17.41c0-.73-.31-1-1-1H58.7c-.72,0-1.05.33-1.06,1,0,1.44,0,2.77,0,4.07A.93.93,0,0,0,58.71,22.5Zm4.52-1.76H59.48V18.16h7.6v7.61H64.49V22C64.49,21,64.26,20.74,63.23,20.74Z"/><path d="M60.5,61.24a.79.79,0,0,0-.63-.05,1.47,1.47,0,0,0-.7.88,4.86,4.86,0,0,1-6,2.7,4.79,4.79,0,0,1-3.09-5.87,4.83,4.83,0,0,1,9.14-.5c.19.46.52,1,1.23.75a.77.77,0,0,0,.48-.43,1.29,1.29,0,0,0-.08-1A6.61,6.61,0,0,0,48.13,61c.29,3.34,3.32,5.85,7,5.85h0a6.37,6.37,0,0,0,5.55-4A1.5,1.5,0,0,0,61,61.7.84.84,0,0,0,60.5,61.24Z"/><path d="M54.71,56.78h0a3.44,3.44,0,0,0-3.44,3.39,3.48,3.48,0,0,0,3.44,3.46h0a3.43,3.43,0,1,0,0-6.85Zm0,5.06h0a1.59,1.59,0,0,1-1.63-1.61,1.64,1.64,0,0,1,1.63-1.69h0a1.67,1.67,0,0,1,1.17.51,1.64,1.64,0,0,1,.49,1.17A1.67,1.67,0,0,1,54.71,61.84Z"/><path d="M65,53.59c-.94,0-1.92,0-2.92,0a.85.85,0,0,0-.91.9.88.88,0,0,0,.93.88l.56,0h.43c.59,0,1.18,0,1.78,0H65a.9.9,0,0,0,.91-.91A.86.86,0,0,0,65,53.59Z"/></svg>