<svg id="Layer_1" data-name="Layer 1" xmlns="http://www.w3.org/2000/svg" viewBox="0 0 85.04 85.04"><path d="M34.77,57H30a7.3,7.3,0,0,1-7.42-5.27,8,8,0,0,1-.29-2.1c0-1.42,0-2.83,0-4.24,0-2.57,0-5.22-.05-7.81A7.51,7.51,0,0,1,30,29.78h.1c3.89,0,7.85,0,11.68,0,2.08,0,4.16,0,6.25,0h1.69c1.86,0,3.78,0,5.68.09a7.2,7.2,0,0,1,6.6,7c0,4.33,0,8.65,0,13A7.17,7.17,0,0,1,55.3,57c-2.7.09-5.43.09-8.08.08H34.77ZM30,32a5.42,5.42,0,0,0-4,1.58,5.56,5.56,0,0,0-1.53,4c.1,2.63.08,5.31.06,7.89,0,1.41,0,2.81,0,4.22A5.16,5.16,0,0,0,30,54.83H47.23c2.62,0,5.33,0,8-.08a4.93,4.93,0,0,0,4.55-4.88q0-6.46,0-12.95a5,5,0,0,0-4.52-4.85C53.41,32,51.51,32,49.69,32H41.75c-3.84,0-7.81,0-11.71,0Z"/><path d="M20.55,22.67h5.79a1.18,1.18,0,0,0,1.32-1.11,1,1,0,0,0-.31-.76,1.34,1.34,0,0,0-1-.4h-4.2c-.7,0-1.4,0-2.1,0a7.11,7.11,0,0,0-6.93,5.76A42.88,42.88,0,0,0,13,33.36l0,1.09a2.29,2.29,0,0,0,.47.56c.13.12.38.35,1,.05a1,1,0,0,0,.65-1.13c0-1,0-1.92,0-2.88s0-2,0-3.05A5.12,5.12,0,0,1,20.55,22.67Z"/><path d="M71.33,34.27c0-.62,0-1.24,0-1.89h0v-2c0-.38,0-.76,0-1.14,0-.79,0-1.53,0-2.25a7.21,7.21,0,0,0-6.1-6.45,70.59,70.59,0,0,0-7.28-.13H57.6a1,1,0,0,0-.67.32,1.18,1.18,0,0,0-.34.82,1.13,1.13,0,0,0,1.19,1.11h5.85a5.14,5.14,0,0,1,5.47,5.42v2.56c0,1,0,2,0,2.92a3.14,3.14,0,0,0,.09.87,1,1,0,0,0,1.17.72A1,1,0,0,0,71.33,34.27Z"/><path d="M12.86,58.9a7.16,7.16,0,0,0,6.51,7.41,48.06,48.06,0,0,0,7.21.09h.16a.86.86,0,0,0,.6-.3,1.2,1.2,0,0,0,.32-.83,1.16,1.16,0,0,0-1.26-1.1H20.62a5.14,5.14,0,0,1-5.47-5.42V56.19c0-1,0-1.95,0-2.93a3.14,3.14,0,0,0-.09-.87,1,1,0,0,0-1.16-.72,1,1,0,0,0-1,.88c-.06.83-.05,1.68,0,2.58,0,.41,0,.83,0,1.24l-.05,2C12.86,58.54,12.86,58.72,12.86,58.9Z"/><path d="M71.33,52.45c0-.09,0-.29-.41-.57a1,1,0,0,0-1.17-.1c-.34.16-.64.36-.65,1.15v2.65c0,1.07,0,2.14,0,3.21a5.1,5.1,0,0,1-5.43,5.37H57.87a1.15,1.15,0,0,0-1.28,1.12,1.21,1.21,0,0,0,1.27,1.16c2.13,0,4.21,0,6.31,0a7.24,7.24,0,0,0,6.88-5.36,15.29,15.29,0,0,0,.35-2.73h-.06v-3.1C71.35,54.31,71.36,53.38,71.33,52.45Z"/></svg>