<svg id="Layer_1" data-name="Layer 1" xmlns="http://www.w3.org/2000/svg" viewBox="0 0 85.04 85.04"><path d="M38.63,18.74c0-1,0-2,0-3a3.09,3.09,0,0,1,2.07-3,3,3,0,0,1,4,2.81c0,1.07,0,2.14,0,3.19,6.74,1.3,8.39,2,13.75,5.69l3.09-3.06a2.9,2.9,0,0,1-.65-.43,2,2,0,0,1,0-2.84c.47-.51,1-1,1.47-1.48a1.94,1.94,0,0,1,2.76,0q2.88,2.82,5.7,5.71a1.93,1.93,0,0,1,0,2.75c-.49.53-1,1-1.52,1.52a2,2,0,0,1-2.81-.06c-.21-.21-.39-.45-.58-.66l-3,3a27.16,27.16,0,0,1-32.33,41.7,27.16,27.16,0,0,1,8-51.79Zm3,52.05a25.09,25.09,0,1,0-25-25.23A25.11,25.11,0,0,0,41.65,70.79ZM62.42,19.46l5.47,5.46,1.31-1.18L63.69,18.2ZM63,23.15l-2.73,2.71,1.27,1.27,2.72-2.74ZM42.65,18.56c0-.19,0-.36,0-.53,0-.84,0-1.67,0-2.5a1,1,0,0,0-1-.91.91.91,0,0,0-.95.89c-.05,1,0,2,0,3Z"/><path d="M23.87,34.47l10.87,9.76A6.88,6.88,0,0,1,35.17,43c.5-.81,1.06-1.57,1.59-2.36.14-.21.36-.4.4-.63,1.09-5.09,2.16-10.18,3.26-15.4a26.6,26.6,0,0,0-3,.45c-1.42.36-2.81.84-4.2,1.31-.72.24-1.28.12-1.53-.43s0-1.13.73-1.45A23.09,23.09,0,1,1,19.09,50.38C17.32,41.52,20.06,34,26.84,28a1,1,0,1,1,1.35,1.51,21.54,21.54,0,0,0-3.78,4.14C24.23,33.91,24.06,34.18,23.87,34.47Zm22.49,6a7.54,7.54,0,0,1,2.14,3.47,2,2,0,0,0,.53.87c2.86,2.6,5.74,5.17,8.62,7.75l2.86,2.56a21.1,21.1,0,0,0-.19-19.23ZM37,51a7.4,7.4,0,0,1-2.14-3.51,1.81,1.81,0,0,0-.51-.82c-3.28-3-6.57-5.91-9.86-8.86l-1.6-1.42a20.55,20.55,0,0,0,.24,19.15ZM39.48,39a7.26,7.26,0,0,1,4-.12,2.23,2.23,0,0,0,1.09,0c3.83-1.23,7.66-2.49,11.49-3.74l3.11-1c-2.87-5.15-11.6-10-16.71-9.35Zm1.37,27.73c1-4.82,2-9.55,3-14.37a7.22,7.22,0,0,1-4,.14,2.2,2.2,0,0,0-1.14,0C34.18,54,29.64,55.5,25.09,57l-1,.36A21.29,21.29,0,0,0,40.85,66.75Zm7.72-19.6a7.31,7.31,0,0,1-2.17,3.77,1,1,0,0,0-.24.53q-1.38,6.49-2.75,13c-.15.73-.28,1.46-.43,2.2,5.91.09,14.48-5,16.43-9.77Zm-1.91-1.42a5,5,0,1,0-5,5A5,5,0,0,0,46.66,45.73Z"/></svg>