<svg id="Layer_1" data-name="Layer 1" xmlns="http://www.w3.org/2000/svg" viewBox="0 0 85.04 85.04"><defs><style>.cls-1{fill:#fff;}</style></defs><path d="M78.39,53.56a4.22,4.22,0,0,1-1.69,1.86c-2.6,1.78-5.17,3.58-7.77,5.36a1.51,1.51,0,0,1-1,.35,1.58,1.58,0,0,1-.88-.75,1,1,0,0,1,.47-1.19l3.54-2.45c1.58-1.09,3.17-2.18,4.73-3.29a2.92,2.92,0,0,0,.49-.61,2.76,2.76,0,0,0-.67-.4c-2.12-.47-4.24-.93-6.38-1.33a1.73,1.73,0,0,0-1.19.27Q61.35,56,54.73,60.58a3.53,3.53,0,0,1-2.93.62c-8.52-1.81-17-3.58-25.57-5.37-2.73-.57-5.47-1.15-8.21-1.69a1.61,1.61,0,0,0-1.07.23c-2.38,1.61-4.73,3.25-7.08,4.89a3.2,3.2,0,0,0-.56.65,3.14,3.14,0,0,0,.79.45Q22.67,63,35.25,65.61c.93.2,1.86.38,2.78.59s1.14.68,1,1.32a1.11,1.11,0,0,1-1.43.75l-10.1-2.11c-5.93-1.24-11.85-2.49-17.78-3.71-2-.4-3-1.91-2.33-3.51a3.34,3.34,0,0,1,1-1.25c1.9-1.36,3.84-2.67,5.76-4l.32-.28-3.23-.69c-.68-.14-1.36-.27-2-.42a2.46,2.46,0,0,1-2-2,2.39,2.39,0,0,1,1.06-2.6c1.84-1.29,3.69-2.56,5.53-3.84l.69-.5-2.9-.63c-.7-.15-1.4-.32-2.11-.44a2.5,2.5,0,0,1-2.27-2A2.57,2.57,0,0,1,8.52,37.5l19-13.12c1.24-.86,2.49-1.7,3.71-2.57a2.77,2.77,0,0,1,2.24-.46l9.16,1.91a1.24,1.24,0,0,1,1.12.89,1.07,1.07,0,0,1-1.36,1.23c-3.05-.63-6.11-1.27-9.16-1.88a1.25,1.25,0,0,0-.89.15Q21,31.42,9.74,39.25a2.84,2.84,0,0,0-.43.57,2.58,2.58,0,0,0,.67.4q10.23,2.16,20.48,4.28a1.85,1.85,0,0,0,1.15-.21c6.58-3.78,13.16-7.55,19.72-11.38a3.16,3.16,0,0,1,3.61,0c3.63,2.23,7.3,4.38,11,6.58a.85.85,0,0,0,1.09,0c2.88-2,5.78-4,8.67-6a3.87,3.87,0,0,0,.62-.75,4.79,4.79,0,0,0-.89-.42L47.91,26.56c-.84-.18-1.23-.64-1.11-1.32s.66-.94,1.51-.77q13.86,2.88,27.74,5.75a3.08,3.08,0,0,1,2.34,1.93v1.39a4.94,4.94,0,0,1-1.89,1.93c-.66.42-1.3.88-1.94,1.32l-3.46,2.4a3,3,0,0,0,.47.18c1.32.28,2.65.62,4,.82a3.28,3.28,0,0,1,2.83,2v1.39a4.65,4.65,0,0,1-1.82,1.91c-1.65,1.11-3.28,2.26-4.91,3.39-.17.12-.33.26-.59.46,1.69.35,3.21.72,4.76,1a3,3,0,0,1,2.56,2ZM63.25,40.45a3.68,3.68,0,0,0-.31-.25q-4.66-2.79-9.34-5.6a.9.9,0,0,0-1.07.08l-15.3,8.84c-.2.11-.38.24-.75.47ZM51.9,44.1V58.31c0,.83.59,1.16,1.32.72.39-.24.75-.54,1.15-.78a1,1,0,0,0,.54-1c0-4.28,0-8.56,0-12.85v-.71ZM49.72,58.57V44.37l-3.28.45V57.88Zm7.36-15.16v13c1-.66,1.82-1.29,2.72-1.86a1.14,1.14,0,0,0,.58-1.07c0-3.24,0-6.49,0-9.73,0-.23,0-.45,0-.73ZM41.27,45.5c0,3.69,0,7.3,0,10.92a.62.62,0,0,0,.35.46c.87.21,1.75.37,2.64.54V45.09Zm-5.44.72c0,3.06,0,6.07,0,9.08a.54.54,0,0,0,.31.43c1,.23,2,.42,3,.62V45.78Zm26.74-3.54v9.88c.84-.58,1.59-1.13,2.36-1.62a1.1,1.1,0,0,0,.58-1.06c0-2.3,0-4.59,0-6.89v-.71ZM25.36,45.62c-.05.06-.08.08-.08.1,0,2.47,0,5,0,7.42a.45.45,0,0,0,.23.36c1,.23,2,.43,3.1.65,0-2.56,0-5,0-7.5a.58.58,0,0,0-.32-.43C27.27,46,26.3,45.81,25.36,45.62Zm8.29,9.6V46.53l-2.9.3v7.79ZM23,53V45.12l-2.87-.58v7.87Zm-5.19-1.09c.05-.1.09-.14.09-.18,0-2.43,0-4.86,0-7.28,0-.5-.29-.61-.74-.31-.77.51-1.54,1-2.28,1.58a.84.84,0,0,0-.31.55c0,1.53,0,3.06,0,4.58a.56.56,0,0,0,.29.45C15.87,51.53,16.86,51.72,17.83,51.91Zm49.82-2.86c1.12-.78,2.11-1.45,3.08-2.15a.81.81,0,0,0,.26-.58c0-1.48,0-3,0-4.43a.75.75,0,0,0-.41-.55A15.88,15.88,0,0,0,68.88,41a1.24,1.24,0,0,0-1.22.93C67.65,44.23,67.65,46.56,67.65,49.05Zm5.48-3.8c1-.71,2-1.35,2.91-2,.41-.3.31-.66-.19-.78-.89-.22-1.79-.39-2.72-.58ZM12.46,47.41c-1,.71-2,1.34-2.9,2-.41.3-.33.67.16.79.89.22,1.8.38,2.74.58Z"/><path class="cls-1" d="M78.39,52.31a3,3,0,0,0-2.56-2c-1.55-.26-3.07-.63-4.76-1,.26-.2.42-.34.59-.46,1.63-1.13,3.26-2.28,4.91-3.39a4.65,4.65,0,0,0,1.82-1.91Z"/><path class="cls-1" d="M78.39,42.16a3.28,3.28,0,0,0-2.83-2c-1.34-.2-2.67-.54-4-.82a3,3,0,0,1-.47-.18l3.46-2.4c.64-.44,1.28-.9,1.94-1.32a4.94,4.94,0,0,0,1.89-1.93Z"/><path d="M53,71.46l-3.85-.8c-1.94-.41-3.89-.81-5.83-1.23-.86-.18-1.21-.63-1.06-1.32s.71-.9,1.55-.73c2.83.59,5.66,1.16,8.48,1.79a1.44,1.44,0,0,0,1.21-.25q4.6-3.23,9.25-6.41l.4-.28A1.06,1.06,0,1,1,64.35,64c-.79.57-1.59,1.11-2.39,1.67-2.46,1.7-4.9,3.41-7.38,5.08A10,10,0,0,1,53,71.46Z"/></svg>