<svg id="Layer_1" data-name="Layer 1" xmlns="http://www.w3.org/2000/svg" viewBox="0 0 85.04 85.04"><path d="M69.23,36.22a1.16,1.16,0,0,0-1.21-.7H60.19l-.46,0a3.39,3.39,0,0,0,.66-2.94,3.13,3.13,0,0,0-2.14-2.15L59,29.26a4.78,4.78,0,0,0,.41-4.81,4.68,4.68,0,0,0-4.53-2.87H40.58a4.94,4.94,0,0,0-3.77,1.68q-5,5.46-10.09,10.91T16.91,44.77a4.88,4.88,0,0,0-1.36,3.42c0,.52,0,1,0,1.56a4.84,4.84,0,0,0,1.65,3.69c.17.16.36.31.61.52a4.19,4.19,0,0,0-.54.46,6.08,6.08,0,0,0,.65,9,6.25,6.25,0,0,0,4,1.28H53.27a1.12,1.12,0,0,0,1-.63l4.31-7.81c.39-.7.86-1.61,1.27-2.37.69-1.21,1.46-2.57,1.48-2.62l3.53-6.4c1.41-2.55,2.82-5.09,4.22-7.64A1.13,1.13,0,0,0,69.23,36.22ZM58.32,33.3a1.51,1.51,0,0,1-.21.69q-2.22,3.65-4.45,7.27l-7.6,12.41a3.43,3.43,0,0,1-.23.32,3.79,3.79,0,0,0-2.09-1.36c.22-.37.41-.72.63-1.05Q49.68,43.47,55,35.34l1.65-2.53a.86.86,0,0,1,1.05-.31A.82.82,0,0,1,58.32,33.3ZM21.59,42.88l15.74-17L38.4,24.7a2.76,2.76,0,0,1,2.08-1H54.67a2.92,2.92,0,0,1,2.28.87,2.74,2.74,0,0,1,.28,3.4q-3.16,4.86-6.35,9.71l-6,9.16a.26.26,0,0,1-.07.1,2.39,2.39,0,0,1-.23.22c0-.1-.1-.19-.13-.29a4.87,4.87,0,0,0-3-3.31,5.39,5.39,0,0,0-2.14-.33H21.43l-.05-.09A3.06,3.06,0,0,1,21.59,42.88ZM17.73,50c0-.65,0-1.31,0-2A2.71,2.71,0,0,1,20,45.45a5.81,5.81,0,0,1,.72-.05H39.43a2.89,2.89,0,0,1,2.43,1,2.33,2.33,0,0,1,.58,1.41c0,.77,0,1.54,0,2.31A2.67,2.67,0,0,1,40,52.53c-.37,0-.75,0-1.12,0H20.51A2.63,2.63,0,0,1,18,50.92,2.6,2.6,0,0,1,17.73,50Zm39.44,4.49c-1.41,2.55-3,5.36-4.33,7.84a.52.52,0,0,1-.52.3H21.91a5,5,0,0,1-1.44-.2,3.93,3.93,0,0,1,1.3-7.67H43.11a1.37,1.37,0,0,1,1.1,1.94,1.41,1.41,0,0,1-1.39.8H26a4.17,4.17,0,0,0-.5,0A1.07,1.07,0,0,0,24.62,59a1.14,1.14,0,0,0,1.16.63c5.68,0,11.37,0,17.06,0a3.1,3.1,0,0,0,.43,0A3.35,3.35,0,0,0,45.9,58c1.32-2.1,2.61-4.21,3.9-6.33l8.42-13.77a.48.48,0,0,1,.48-.26H66l.37,0Z"/><path d="M22.48,50.07H38a1.08,1.08,0,0,0,.82-1.71,1.14,1.14,0,0,0-1-.45H22.61a4.13,4.13,0,0,0-.5,0,1.06,1.06,0,0,0-.85,1.46A1.18,1.18,0,0,0,22.48,50.07Z"/></svg>