<svg id="Layer_1" data-name="Layer 1" xmlns="http://www.w3.org/2000/svg" viewBox="0 0 85.04 85.04"><defs><style>.cls-1{fill:#1d1d1b;}</style></defs><path class="cls-1" d="M79.57,64.41h-1.5V40.48c1-.09,1.18-.33,1.18-1.45V37.86c0-.93,0-1.9,0-2.85a1.41,1.41,0,0,0-.8-1.4Q75.57,32,72.69,30.29q-2.31-1.35-4.64-2.68a40.07,40.07,0,0,1-7.15-5.72l-.32-.3c-.89-.83-1.77-1.7-2.63-2.53l0,0-1.23-1.2-.07-.07h-.79l-1,1a76.2,76.2,0,0,1-7.74,7A46.57,46.57,0,0,1,43,28.45c-3-2-5.25-3.5-7.42-4.93-.58-.38-.62-.49-.66-.61-.18-.52-.44-.69-1.09-.7h0a.85.85,0,0,0-.88.65l0,.07c0,.09-.15.18-.47.39L24.6,28.5C19.41,32,14,35.54,8.74,39a2.6,2.6,0,0,0-1.38,2.63A6.56,6.56,0,0,0,9,46.06a1.73,1.73,0,0,1,.63,1.46.94.94,0,0,0,.84,1.11.93.93,0,0,0,1.11-.81l.05-.08a6.26,6.26,0,0,0,3.59,0V64.18h-3.6V51.86a1.69,1.69,0,0,0-.37-1.26.87.87,0,0,0-.65-.24c-.67,0-1,.5-1,1.47V64.22H9c-.58,0-1.13,0-1.68,0a2.57,2.57,0,0,0-2,1.06,2.68,2.68,0,0,0-.45,2.28,3.05,3.05,0,0,0,1.91,2l54.09,0h0a3.48,3.48,0,0,0,2-2V66.26H79.61a.92.92,0,0,0,.86-1A.86.86,0,0,0,79.57,64.41Zm-3.43-23.9V64.37h-.62V40.51Zm-2.6,0V64.36H71.33V40.5Zm-4.14,0V64.37h-.62V40.52ZM30.07,39.46,33.81,27l3.75,12.49Zm17.28,8a.77.77,0,0,1,.35-.75c.41-.28.8-.6,1.18-.9l.38-.3.1.11c.24.25.57.6.89,1a.54.54,0,0,1,.07.34c0,5.7,0,11.4,0,17.1a.71.71,0,0,1,0,.14H47.38V64.1c0-.13,0-.25,0-.37V59.91Q47.36,53.69,47.35,47.48ZM70.57,35.55H71a.87.87,0,0,0,.83-.88.89.89,0,0,0-.79-1,2.13,2.13,0,0,0-.43,0H50.08l.1.13a1,1,0,0,0-.39.33.91.91,0,0,0,.08,1.24,2.18,2.18,0,0,0,.45.35l.07,0,2.9,1.94,2.36,1.57.17.12c-1.54.07-3.06.08-4.54.09H50a1,1,0,0,1-.86-.38l-7.07-7.86L39.8,28.72h0l2.08,1.39,4.68,3.12a3.29,3.29,0,0,0,.66.37,1,1,0,0,0,1-.16.78.78,0,0,0,.28-.78,1.69,1.69,0,0,0-.69-1l-2.09-1.4-1-.68.21-.12a41.15,41.15,0,0,0,7.67-6c.82-.77,1.64-1.56,2.47-2.35l.17-.16,1-1L58.29,22Q60.53,24,62.68,26a37.36,37.36,0,0,0,6.63,4.52l1.39.82c.94.56,1.9,1.1,3,1.7l1.09.62h-.08a1,1,0,0,0-1,.94.92.92,0,0,0,1,.92h2.7v3H58.12l-4.52-3Zm-45.4-3.88-6.71,7.47a1,1,0,0,1-.81.36h-6L27.83,28.71Zm-7.88,15.5a1.08,1.08,0,0,1,.38-.88,7.72,7.72,0,0,0,.67-.74c.06-.06.11-.13.17-.2l.32.31c.45.42.87.82,1.29,1.24a.57.57,0,0,1,.14.35c0,5.61,0,11.21,0,16.82,0,0,0,.07,0,.11H17.3V60.4Q17.3,53.79,17.29,47.17ZM36,45.38a3.85,3.85,0,0,1-4.47,0,4,4,0,0,1-1.8-3.82h8.13A4,4,0,0,1,36,45.38ZM29.3,46a6.07,6.07,0,0,0,4.48,2h0a6.06,6.06,0,0,0,4.53-2,50.31,50.31,0,0,0,2.37,9.37,58.47,58.47,0,0,0,3.94,8.8H23A56.34,56.34,0,0,0,29.3,46Zm-1.62-4.51A3.88,3.88,0,0,1,26,45.27a3.81,3.81,0,0,1-4.41.21,4,4,0,0,1-2-4Zm3.65-13.14c-.3,1-.61,2-.91,3-.39,1.32-.78,2.64-1.18,4l-1.1,3.7,0,.05c-.07.26-.11.4-.41.4h0l-3.51,0H20.79l10.81-12Zm-9,19.5a6.12,6.12,0,0,0,4.81-1,53.06,53.06,0,0,1-4.81,14.25Zm17.61-6.36H48a4,4,0,0,1-1.64,3.72,3.85,3.85,0,0,1-4.37.3A3.94,3.94,0,0,1,39.93,41.52Zm5.83-2H39.84a.44.44,0,0,1-.26-.2c-1.11-3.65-2.22-7.36-3.29-11L36,27.5l10.8,12Zm-.45,8.39V61a50,50,0,0,1-4.82-14.09A6.26,6.26,0,0,0,45.31,47.88ZM9.44,41.51h8a3.89,3.89,0,0,1-1.63,3.76,4.11,4.11,0,0,1-4.57.15A4,4,0,0,1,9.44,41.51ZM56.65,45.2a4.13,4.13,0,0,1-4.57.27,4,4,0,0,1-2-4h8A4,4,0,0,1,56.65,45.2Zm2.79,19a9.33,9.33,0,0,1-1.06,0H58v-.69c0-.14,0-.28,0-.43a3.8,3.8,0,0,0-.1-1.16,1.15,1.15,0,0,0-.84-.7H57a1.36,1.36,0,0,0-.85.53,1.09,1.09,0,0,0-.15.68v.11c0,.41,0,.82,0,1.24v.38h-3.6V47.75a6.48,6.48,0,0,0,3.6,0V58.06a2.92,2.92,0,0,0,.05.63.9.9,0,0,0,.93.82h0a.91.91,0,0,0,1-.83A4.68,4.68,0,0,0,58,58V55.47c0-2.42,0-4.92,0-7.38,0-.93,0-1.68.81-2.21a.58.58,0,0,0,.13-.15l0,0a7.06,7.06,0,0,0,1.31-4.77,1.92,1.92,0,0,0,0-.41h6.64V64.37H61.08A3.77,3.77,0,0,0,59.44,64.21Zm1,2.05a.61.61,0,0,1,.51.62c0,.34-.14.72-1.23.72H7.94a1.48,1.48,0,0,1-1.06-.28.59.59,0,0,1-.17-.44c0-.34.15-.72,1.23-.72H56.82l0,.1Z"/></svg>