<svg id="Layer_1" data-name="Layer 1" xmlns="http://www.w3.org/2000/svg" viewBox="0 0 85.04 85.04"><path d="M54.36,64.69A1.21,1.21,0,0,0,53,64.48a1.25,1.25,0,0,0-.6,1.28c0,.67,0,1.34,0,2H18.32c0-.71,0-1.37,0-2a1.23,1.23,0,0,0-.56-1.24,1.2,1.2,0,0,0-1.34.17Q14,66.22,11.48,67.74c-1.15.72-1.15,1.52,0,2.23l5.43,3.39h.72a1.51,1.51,0,0,0,.71-1.47c0-.63,0-1.27,0-1.94H52.44c0,.65,0,1.3,0,2a1.47,1.47,0,0,0,.71,1.46h.72q2.63-1.64,5.24-3.28a11,11,0,0,0,1-.8v-.84a7.79,7.79,0,0,0-.76-.64C57.69,66.75,56,65.73,54.36,64.69ZM16.14,70.37,13.7,68.86l2.44-1.51Zm38.46,0v-3L57,68.86Z"/><path d="M73.65,54.83a1.24,1.24,0,0,0-1.27-.59h-2V20.13h2a1.27,1.27,0,0,0,1.24-.56,1.22,1.22,0,0,0-.17-1.34l-3.08-4.94c-.72-1.15-1.51-1.15-2.23,0l-3.39,5.43v.72a1.5,1.5,0,0,0,1.47.7c.64,0,1.27,0,1.94,0V54.24c-.65,0-1.3,0-2,0a1.48,1.48,0,0,0-1.46.71v.72c1.09,1.75,2.18,3.5,3.29,5.24a9.37,9.37,0,0,0,.79,1h.84a5.73,5.73,0,0,0,.64-.76c1-1.65,2.08-3.32,3.12-5A1.24,1.24,0,0,0,73.65,54.83ZM67.76,18l1.51-2.44L70.79,18Zm1.51,40.9-1.52-2.44h3Z"/><path d="M11.45,60.3a5.72,5.72,0,0,0,0,.59A1,1,0,0,0,12.63,62h1.78a1.16,1.16,0,0,0,1.31-1c.17-.64.37-1.29.51-1.94.7-3.38,1.47-6.75,2-10.16.5-3,.77-6,1.13-9,.11-.93.16-1.86.22-2.79,0-.3.13-.41.43-.53a14.47,14.47,0,0,0,2.08-1,5.75,5.75,0,0,0,.93-.86,5.26,5.26,0,0,0,8.39,0,5.26,5.26,0,0,0,8.39,0,5.33,5.33,0,0,0,8.45,0c.07.08.15.16.22.25a4.53,4.53,0,0,0,2.43,1.58.81.81,0,0,1,.77,1,.76.76,0,0,0,0,.15c.24,2.48.39,5,.74,7.44.46,3.24,1,6.47,1.65,9.68.4,2.12,1,4.21,1.5,6.3a1,1,0,0,0,1,.91c.72,0,1.44,0,2.17,0a1,1,0,0,0,1-.94q0-.34,0-.69V36c0-2.1,0-4.2,0-6.31,0-.89-.19-1.17-1-1.47-1-.38-2.09-.77-3.11-1.19a49.8,49.8,0,0,1-11.91-6.83,27.11,27.11,0,0,1-7.13-8.06A3.85,3.85,0,0,0,36,11.5h-.78c-.27.33-.56.66-.81,1s-.34.56-.52.83a31.65,31.65,0,0,1-9.29,8.9,55.93,55.93,0,0,1-12.31,6.07,1.15,1.15,0,0,0-.89,1.25c0,.29,0,.59,0,.89Zm8.34-25.89v-4H21.9C22.19,32.42,21.36,34,19.79,34.41ZM29.13,34a3,3,0,0,1-3.36.27c-1.3-.67-1.8-1.87-1.62-3.79h6.12A3.28,3.28,0,0,1,29.13,34Zm8.37,0a3.17,3.17,0,0,1-3.47.16,3.51,3.51,0,0,1-1.48-3.71h6.18A3.45,3.45,0,0,1,37.5,34Zm8.2.14a3,3,0,0,1-3.34,0C41,33.24,40.81,31.93,41,30.45h6.16C47.33,32,47.07,33.29,45.7,34.13Zm5.74.23c-1.33-.09-2.29-1.85-2-3.92h2Zm2.12-3.92h4.13V59.79l-.1.05a1.09,1.09,0,0,1-.19-.35c-.52-2.23-1.1-4.45-1.53-6.69-.48-2.48-.88-5-1.23-7.46-.28-2.06-.51-4.14-.66-6.21-.19-2.72-.28-5.44-.42-8.16ZM35.64,14.65C39.92,21,46.08,25,52.8,28.25H18.43C25.12,24.94,31.29,21,35.64,14.65Zm-22,15.8h4.16a123.85,123.85,0,0,1-3.92,29.38l-.24,0Z"/></svg>