<svg id="Layer_1" data-name="Layer 1" xmlns="http://www.w3.org/2000/svg" viewBox="0 0 85.04 85.04"><path d="M14,36.47l.08-.06a1,1,0,0,0,.7-1V24.16H37.37v.29c0,3.57,0,7.14,0,10.7a1.24,1.24,0,0,0,.8,1.32h.52a1.24,1.24,0,0,0,.79-1.32q0-6.94,0-13.91a1.19,1.19,0,0,0-1-1.31,20.73,20.73,0,0,1-5.15-2.42,16.33,16.33,0,0,1-6.28-7.11,1,1,0,0,0-1-.67,1,1,0,0,0-1,.69A14.73,14.73,0,0,1,22,14.91a20.18,20.18,0,0,1-8.29,5,1.43,1.43,0,0,0-1,.84V36.47H14Zm1-14.78a22.24,22.24,0,0,0,8.46-5.28,17.61,17.61,0,0,0,2.57-3.3c.41.57.78,1.14,1.2,1.67a20.31,20.31,0,0,0,7.18,5.76c.88.43,1.8.78,2.71,1.15.18.07.26.15.19.35H14.84C14.75,21.83,14.85,21.75,15,21.69Z"/><path d="M77.25,39.05c-1.94-1.12-3.92-2.17-5.78-3.4a39.19,39.19,0,0,1-10-9.72,4.67,4.67,0,0,0-.76-.71h-.55a5.05,5.05,0,0,0-.79.74A40.37,40.37,0,0,1,47.54,36.8c-1.35.81-2.75,1.56-4.14,2.32a1.11,1.11,0,0,0-.66,1.1c0,.52,0,1,0,1.55a3.64,3.64,0,0,0,.7,2.16,3.85,3.85,0,0,0,2.1,1.49v13H44.9a1,1,0,0,0-1,1,1,1,0,0,0,1,1c1.14,0,2.28,0,3.41,0a1,1,0,0,0,1-1,1,1,0,0,0-1-1h-.67V51.27c0-1.85,0-3.7,0-5.55a.5.5,0,0,1,.15-.36c.52-.32,1.06-.6,1.64-.92a3.76,3.76,0,0,0,2.66,1.11,3.85,3.85,0,0,0,2.76-1.15,3.89,3.89,0,0,0,5.56,0,3.79,3.79,0,0,0,2.76,1.16,3.87,3.87,0,0,0,2.73-1.18,3.82,3.82,0,0,0,5.46.06c.52.31,1,.61,1.46.85a.44.44,0,0,1,.32.47q0,6.15,0,12.3v.38h-.66a1,1,0,0,0-1,1,1,1,0,0,0,1,1c1.13,0,2.27,0,3.41,0a1,1,0,0,0,1-1,1,1,0,0,0-1-1h-.66v-13l.25-.09a3.87,3.87,0,0,0,2.47-2.71,3,3,0,0,1,.1-.32V39.83A1.69,1.69,0,0,0,77.25,39.05ZM47.59,43.13a1.67,1.67,0,0,1-1.91.09,1.9,1.9,0,0,1-.84-2.07h3.43A1.87,1.87,0,0,1,47.59,43.13Zm5.51,0a1.61,1.61,0,0,1-1.84.08,1.92,1.92,0,0,1-.85-2.08h3.41A2,2,0,0,1,53.1,43.15Zm4.57.33c-1.13,0-1.83-.87-1.75-2.32h3.4C59.47,42.5,58.79,43.43,57.67,43.48Zm6.43-.31a1.61,1.61,0,0,1-1.85,0,1.94,1.94,0,0,1-.82-2.06h3.41A2,2,0,0,1,64.1,43.17Zm5.51,0a1.61,1.61,0,0,1-1.84,0,2,2,0,0,1-.83-2.07h3.42A2,2,0,0,1,69.61,43.17ZM47.85,39.05a43.75,43.75,0,0,0,6.84-4.92A42.41,42.41,0,0,0,60.38,28a42.84,42.84,0,0,0,12.54,11Zm27.36,4.09a1.64,1.64,0,0,1-1.88.09,1.94,1.94,0,0,1-.87-2.08h3.48A2,2,0,0,1,75.21,43.14Z"/><path d="M43.31,69.32H42.09a.46.46,0,0,1-.47-.24Q34.84,58.34,28,47.61a.41.41,0,0,1,0-.52q1.07-1.64,2.1-3.3a1,1,0,1,0-1.77-1.11l-.95,1.49-.77,1.22L26.41,45c-.51-.8-1-1.61-1.52-2.4a1,1,0,0,0-1.27-.43A1,1,0,0,0,23,43.35a1.46,1.46,0,0,0,.22.53c.73,1.17,1.47,2.32,2.2,3.48-.08.11-.14.21-.2.31L12.09,68.29c-.21.34-.37.81-.68,1a2.36,2.36,0,0,1-1.19,0,1.21,1.21,0,0,0-1.32.77v.56a1.25,1.25,0,0,0,1.32.77h33.1a1,1,0,1,0,0-2.08Zm-19.12,0c.82-1.63,1.62-3.23,2.45-4.91L29.1,69.3Zm13.48,0c-1.92,0-3.85,0-5.78,0a.59.59,0,0,1-.63-.38c-1.2-2.44-2.42-4.86-3.64-7.3a1.06,1.06,0,0,0-1.95,0,1.09,1.09,0,0,1-.08.15Q23.79,65.4,22,69a.5.5,0,0,1-.52.32c-2.38,0-4.76,0-7.14,0h-.42l12.72-20c4.22,6.68,8.42,13.31,12.66,20Z"/></svg>