<svg id="Layer_1" data-name="Layer 1" xmlns="http://www.w3.org/2000/svg" viewBox="0 0 85.04 85.04"><path d="M12.24,68a1.67,1.67,0,0,1,1.64-.71,10.23,10.23,0,0,0,1.75,0,.58.58,0,0,0,.42-.37c.38-2.66.73-5.33,1.08-8s.75-5.52,1.12-8.29c.28-2.12.57-4.25.85-6.38a3.67,3.67,0,0,0,0-.59h-.75A1.24,1.24,0,0,1,17,42.25V36.43a1.21,1.21,0,0,1,1.06-1.37,36.75,36.75,0,0,0,14.71-7.75,36.79,36.79,0,0,0,8.59-10.59,1.23,1.23,0,0,1,2.31,0A37.48,37.48,0,0,0,67,35c1,.27,1.23.61,1.23,1.61,0,1.86,0,3.72,0,5.58,0,1-.44,1.46-1.44,1.47H64.86C65.92,51.56,67,59.4,68,67.28h2.45c.82,0,1.31.44,1.32,1.14s-.49,1.19-1.34,1.19H13.76a1.5,1.5,0,0,1-1.52-.82Zm5.9-1.27c2.19-.77,7.72-4.85,11-8.06a67.59,67.59,0,0,0,11.43-15h-4.1a2.79,2.79,0,0,1-.82-.09,1.17,1.17,0,0,1-.05-2.22,3.2,3.2,0,0,1,.93-.1H66.17V37.36H19.05v3.87h.67c1.91,0,3.82,0,5.73,0a1.21,1.21,0,0,1,1.33,1.19,1.23,1.23,0,0,1-1.31,1.22H21.24Zm26.3-23c5.13,9.62,11.74,17.72,21.47,23.13L62.8,43.69Zm-1.89,7.45a40.09,40.09,0,0,1-9.5,16.49H52.14A45.39,45.39,0,0,1,46.37,60,39.18,39.18,0,0,1,42.55,51.14ZM60.16,34.92a45.36,45.36,0,0,1-9-5.87,44.62,44.62,0,0,1-7.37-8V34.92ZM41.31,21a42.86,42.86,0,0,1-7.3,8,44.88,44.88,0,0,1-9,5.86H41.31ZM21.72,67.66c2.44,0,4.88,0,7.31,0a1.48,1.48,0,0,0,.93-.35,35.94,35.94,0,0,0,10.6-18c0-.17.07-.34.1-.52s.05-.34.07-.51C35.6,55.92,29.55,62.63,21.72,67.66ZM44.54,48.77a1.72,1.72,0,0,0,0,.22.57.57,0,0,0,0,.18A35.91,35.91,0,0,0,55.35,67.38a1.19,1.19,0,0,0,.73.27c1.93,0,3.85,0,5.78,0h.5C54.89,62.82,49.2,56.35,44.54,48.77Z"/><path d="M32,42.45a1.18,1.18,0,0,1-1.21,1.18,1.23,1.23,0,0,1-1.17-1.17,1.26,1.26,0,0,1,1.2-1.22A1.21,1.21,0,0,1,32,42.45Z"/></svg>