<svg id="Layer_1" data-name="Layer 1" xmlns="http://www.w3.org/2000/svg" viewBox="0 0 85.04 85.04"><path d="M78.78,55.44a2.07,2.07,0,0,0-2.35-2.36H67.25c0-.13,0-.26,0-.39a7.79,7.79,0,0,0,0-1.37,3.78,3.78,0,0,0-.36-1c-.07-.15-.14-.3-.2-.46s0-.11-.07-.17a.83.83,0,0,1-.11-.39c.2-1,.4-1.92.61-2.87.3-1.38.61-2.81.88-4.22a9.27,9.27,0,0,1,1.63-3.85A13.08,13.08,0,0,0,72,30.69V30c0-2.16,0-4.39,0-6.59A9.76,9.76,0,0,0,71.67,21c-.71-2.64-2.2-4.27-4.42-4.86-1.86-.49-3.78-.88-5.64-1.25l-2.21-.45a1.34,1.34,0,0,0-1.73,1,1.28,1.28,0,0,0,.13,1,1.55,1.55,0,0,0,1.05.64l.78.17c2.09.46,4.25.93,6.38,1.36a3.32,3.32,0,0,1,2.65,2,10,10,0,0,1,.7,3.11c.08,1.9.06,3.84,0,5.71v1.19a10.55,10.55,0,0,1-.2,1.91C67.58,40.07,61.9,42,57.42,42.2c-1.49.08-3,.06-4.47,0l-2,0h-.14a6.61,6.61,0,0,1-4.19-1.5l-1-.76c-.5-.41-1-.83-1.54-1.22a.84.84,0,0,1-.37-.81q0-4.65,0-9.32v-.12a1.34,1.34,0,0,0-.19-.91,1.75,1.75,0,0,0-1.15-.72h0c-.55,0-1.05.61-1.15.73a1.38,1.38,0,0,0-.18.9v.14c0,.71,0,1.43,0,2.14,0,1.94,0,3.95,0,5.92a2.64,2.64,0,0,1-1.32,2.8,7,7,0,0,0-1.07.81,5.27,5.27,0,0,1-.51.43,5.65,5.65,0,0,1-3,1.35c-.84.08-1.72.1-2.56.11l-1.22,0a1.41,1.41,0,0,0-1.51,1.29,1.2,1.2,0,0,0,.32.91,1.73,1.73,0,0,0,1.19.48h2.21a9.93,9.93,0,0,0,6.56-2.37c.52-.44,1.05-.86,1.59-1.29l.61-.49.65.52,1.65,1.34a9.08,9.08,0,0,0,5.62,2.24c2.52,0,5.11,0,7.91,0a13.45,13.45,0,0,0,5.53-1.37c.41-.2.81-.42,1.23-.66a1,1,0,0,0,.17-.1L64.9,43.9c-.43,2-.86,4-1.3,6,0,.12-.26.29-.41.4l-3.83,2.87-2.67,2A2.39,2.39,0,0,0,55.57,57a2.37,2.37,0,0,0,1.11,1.84l.7.52c1.1.83,2.21,1.65,3.32,2.46.25.19.3.3.24.56-.24,1.08-.47,2.16-.71,3.24q-.4,1.92-.84,3.84a1.89,1.89,0,0,1-2,1.61c-1.27,0-2.53,0-3.8,0h-.86a5.53,5.53,0,0,0-1.13-6.79,5.43,5.43,0,0,0-.49-8.51c2-2.29,2.44-3.52,2.32-6.06,0-.91-.55-1.44-1.34-1.43a1.34,1.34,0,0,0-1.31,1.48v.85a4,4,0,0,1-3.27,4.06,16.93,16.93,0,0,1-2.7.18l-1,0V52.46c0-1.92,0-3.84,0-5.76v-.15a1.28,1.28,0,0,0-.17-.82c-.43-.53-.83-.79-1.17-.79h0a1.75,1.75,0,0,0-1.17.77,1.18,1.18,0,0,0-.17.83v.15c0,2,0,4,0,6v2H38.3a4.14,4.14,0,0,1-4.18-3.4A6.17,6.17,0,0,1,34,50.22c0-.24,0-.48,0-.71a1.32,1.32,0,0,0-1.28-1.28h0a1.25,1.25,0,0,0-1.29,1.2,7.11,7.11,0,0,0,2.19,6.16,1.36,1.36,0,0,1,.12.12,5.47,5.47,0,0,0-.52,8.55c-2,2.25-2.27,3.74-1.1,6.77H27.37a1.87,1.87,0,0,1-2-1.59c-.31-1.34-.6-2.69-.89-4-.22-1-.44-2-.67-3.05a.45.45,0,0,1,.22-.56c1.38-1,2.75-2,4.09-3a2.05,2.05,0,0,0,0-3.59l-.89-.67c-1.84-1.38-3.73-2.8-5.62-4.17a1.51,1.51,0,0,1-.62-1c-.13-.65-.27-1.29-.41-1.94l-.25-1.16c-.22-1-.43-2.07-.67-3.18l-.06-.29.17.1a13.77,13.77,0,0,0,6.16,2c1,.06,1.58-.39,1.65-1.19s-.52-1.32-1.44-1.43A11.51,11.51,0,0,1,16.1,34.44a11.86,11.86,0,0,1-.71-4.55c0-.8,0-1.6,0-2.4,0-1.69,0-3.43.14-5.13a4,4,0,0,1,3.52-3.86C26,17,33.83,15.3,41.55,13.66a4.78,4.78,0,0,1,1.73,0c.51.08,1,.21,1.54.34.32.09.65.17,1,.24l7.91,1.69a1.34,1.34,0,0,0,1.66-1,1.29,1.29,0,0,0-1-1.6L54,13.28l-2-.43-5.09-1.09-.34-.07a15.08,15.08,0,0,0-7-.34c-5.78,1.4-11.7,2.61-17.44,3.77l-3.39.7a6.61,6.61,0,0,0-4.65,2.95,8.47,8.47,0,0,0-1.32,4.4c0,1.69,0,3.4,0,5.06v2.28A14.31,14.31,0,0,0,16,39.64a1.82,1.82,0,0,1,.38.76c.32,1.43.62,2.86.93,4.3l1,4.43a.76.76,0,0,1-.22.81,2.52,2.52,0,0,0-.52,1.41,7.8,7.8,0,0,0,0,1.37v.36h-3c-2,0-4,0-6,0H8.46A2.46,2.46,0,0,0,6,54.48l0,5,0,0a2.61,2.61,0,0,0,2.53,1.31h.11c2,0,4.07,0,6.05,0H17l.49,0h.07c0,.16,0,.31,0,.47,0,.49,0,1,0,1.43a2,2,0,0,0,3.11,1.59c.24-.15.48-.32.73-.5l.05,0,.37,1.7c.33,1.54.66,3.06,1,4.57a4.44,4.44,0,0,0,3.85,3.56,33.61,33.61,0,0,0,3.47.11H57a4.83,4.83,0,0,0,5.15-4.21c.29-1.4.59-2.8.9-4.22l.33-1.52.58.42a2,2,0,0,0,2.24.22,2,2,0,0,0,1.09-1.9c0-.43,0-.87,0-1.33V60.8h.37c.43,0,.83,0,1.23,0a1.32,1.32,0,0,0,1.41-1.3,1.36,1.36,0,0,0-1.4-1.34c-.6,0-1.21,0-1.81,0h-.17a2.1,2.1,0,0,0-2.28,2.32v.91L58.65,57l5.95-4.43v.7c0,1.77.73,2.5,2.51,2.5h9v2.44H75.6c-.58,0-1.14,0-1.69,0a1.4,1.4,0,0,0-1,.45,1.22,1.22,0,0,0-.34.92,1.29,1.29,0,0,0,1.38,1.25c1.13,0,2,0,2.83,0a2,2,0,0,0,2-2.1c0-.81,0-1.62,0-2.44Zm-30.5,7.45c-1.07.07-2.14,0-3.26,0l-1.24,0V57.52l1.34,0a34.75,34.75,0,0,1,3.55,0,2.56,2.56,0,0,1,2.09,2.75A2.63,2.63,0,0,1,48.28,62.89Zm-4.49,2.69h1.26c1.15,0,2.24,0,3.34,0a2.66,2.66,0,0,1,2.37,3A2.69,2.69,0,0,1,48,71c-1,0-2.05,0-3.09,0H43.79Zm-7.3,0c.61,0,1.22,0,1.83,0H41V71L39.7,71c-1.19,0-2.32,0-3.46,0A2.64,2.64,0,0,1,34,68.18,2.68,2.68,0,0,1,36.49,65.59Zm-.42-2.81A2.53,2.53,0,0,1,34,60a2.57,2.57,0,0,1,2.25-2.49c.64,0,1.3-.05,1.95-.05h1.5l1.29,0v5.32l-1.35,0A30.5,30.5,0,0,1,36.07,62.78ZM17.76,58.16H8.66V55.72h9c1.87,0,2.56-.71,2.56-2.59v-.61L26.13,57l-5.95,4.44v-.78C20.18,58.94,19.41,58.16,17.76,58.16Z"/><path d="M35.33,25.32h2.4a1.59,1.59,0,0,0,1.17-.43,1.26,1.26,0,0,0,.34-.93c0-.76-.56-1.25-1.48-1.3h-2.7c-1.62,0-3.29,0-4.93,0H30a4.57,4.57,0,0,1-3.78-1.72,1.53,1.53,0,0,0-1-.62,1.25,1.25,0,0,0-.94.3,1.31,1.31,0,0,0-.1,2,6.05,6.05,0,0,0,4.28,2.57,32.38,32.38,0,0,0,3.55.05l1.29,0v.13Z"/><path d="M54.56,22.66c-1.93,0-3.89,0-5.79,0H47.22c-1.52,0-1.69.93-1.68,1.33,0,.85.61,1.33,1.67,1.34h6.47c.5,0,1,0,1.51,0a6.86,6.86,0,0,0,5.41-2.74,1.32,1.32,0,1,0-2-1.67,4.57,4.57,0,0,1-3.87,1.76Z"/></svg>