<svg id="Layer_1" data-name="Layer 1" xmlns="http://www.w3.org/2000/svg" viewBox="0 0 85.04 85.04"><path d="M73.4,73.43l-.62,0c-.73.06-1.48.11-2.24.11a32.23,32.23,0,0,1-13.8-3.21,2.37,2.37,0,0,0-1.44-.17,64.12,64.12,0,0,1-13.79,1.72h-.32a27.85,27.85,0,0,1-12.08-2.37,59.9,59.9,0,0,1-9.76-6.09c-.34-.25-.68-.5-1-.76a13.55,13.55,0,0,0-3.9-2.36A11.61,11.61,0,0,1,13,59.76a.74.74,0,0,1-.36-.44c0-.27,0-.55,0-.82a12.36,12.36,0,0,1,.19-2.66c1-4.29,1.94-8.13,2.92-11.75C17.15,39,18.6,33.75,20,28.71q1.22-4.34,2.4-8.67a1.17,1.17,0,0,1,.72-.85q4.55-2.06,9.08-4.14l3.49-1.59,2.67-1.21,1.24-.56L41,13.54C42.33,15.26,43.65,17,45,18.69a.82.82,0,0,1-.09,1.15l-1.5,1.68q-1.87,2.11-3.77,4.22c-.45.5-.83.51-1.34.05-.29-.26-.58-.52-.86-.79s-.71-.66-1.08-1a1.3,1.3,0,0,0-2,.11,1.55,1.55,0,0,1-.71.49,27.51,27.51,0,0,1-3.27.38c-.73,0-1.46.41-1.44,1.17a2.6,2.6,0,0,0,.41,1.08l0,0a5.78,5.78,0,0,0,.33.48,1.94,1.94,0,0,1,.52,1.16c.07,1.63.17,3.29.27,4.89,0,.59.07,1.17.11,1.76l.15,2.66c.15,2.44.29,5,.46,7.45a7.49,7.49,0,0,1-1,3.92,2.1,2.1,0,0,1-.56.62,1.28,1.28,0,0,0-.41,1.7,1.25,1.25,0,0,0,.78.61,1.14,1.14,0,0,0,.86-.14,3.74,3.74,0,0,0,1.32-1.28,17.14,17.14,0,0,0,.88-2c.14-.37.28-.74.44-1.1a1.44,1.44,0,0,1,.42-.61,13,13,0,0,1,14-1.31,9.64,9.64,0,0,1,5.67,6.68,1.22,1.22,0,0,0,1.49.85A1.33,1.33,0,0,0,56,51.85a9.6,9.6,0,0,0-1.79-3.73c-.24-.33-.5-.65-.79-1l-.34-.43.91-.88c.73-.71,1.41-1.37,2.17-2a11.67,11.67,0,0,1,9.06-2.54,16.61,16.61,0,0,1,7.59,3.12,1.27,1.27,0,0,0,1.9-.16,1.2,1.2,0,0,0,.25-.93,1.44,1.44,0,0,0-.67-.92,24.34,24.34,0,0,0-2.67-1.66A16,16,0,0,0,60.6,39a16.45,16.45,0,0,0-9,5.63l-.42.49c-6.06-3.75-11.81-3.94-17.56-.57l-1-17.05.38-.06a2.74,2.74,0,0,0,1.1-.31c1-.62,1.63-.3,2.48.56a3.24,3.24,0,0,0,2.29,1H39a3.41,3.41,0,0,0,2.45-1.18c1.72-1.9,3.49-3.88,5.27-5.9a3.3,3.3,0,0,0,.17-4.51c-1.81-2.38-3.67-4.8-5.47-7.13l-.26-.33a1.33,1.33,0,0,0-2-.48L32,12.38,21.86,17a3,3,0,0,0-1.78,2.08q-1.53,5.57-3,11.14C15.25,36.7,13.41,43.4,11.64,50l-.22.81A25.81,25.81,0,0,0,10.13,59c.11,1.85.57,2.51,2.21,3.22l.34.14a17.84,17.84,0,0,1,2.9,1.45c1.28.86,2.55,1.78,3.79,2.67,1.09.79,2.22,1.6,3.35,2.37a31.48,31.48,0,0,0,18,5.61h.34a68.63,68.63,0,0,0,14.19-1.68,1.52,1.52,0,0,1,.89.1,33.39,33.39,0,0,0,8.46,2.66c.79.14,1.61.25,2.39.36l1.15.17h4.62L73,76a5.25,5.25,0,0,1,.55-.09A1.34,1.34,0,0,0,75,74.55,1.29,1.29,0,0,0,73.4,73.43Z"/><path d="M46.58,65.65l-1.09.16c-1,.15-2.11.31-3.16.37a18.77,18.77,0,0,1-12.76-3.79,16.32,16.32,0,0,1-3.66-3.82,1.58,1.58,0,0,0-1-.74,1.19,1.19,0,0,0-.9.23c-.64.44-.7,1.15-.17,1.94a11.15,11.15,0,0,0,.66.9c4.3,5.21,9.91,7.72,17.66,7.88h0l1-.13c1-.14,2.49-.33,3.9-.55a1.38,1.38,0,0,0,1-.54,1.25,1.25,0,0,0,.15-1A1.29,1.29,0,0,0,46.58,65.65Z"/><path d="M69.39,60.93a2,2,0,0,1-1.27-1.26,1.35,1.35,0,0,0-.59-.57L67.37,59l0,0h0a1.64,1.64,0,0,0-1.25.48,1.22,1.22,0,0,0-.26,1,3.58,3.58,0,0,0,1.73,2.31,14,14,0,0,0,4.89,1.8q.33.08.66.12l.18,0a1.94,1.94,0,0,0,.4,0,1.2,1.2,0,0,0,1.29-1c.13-.67-.34-1.26-1.21-1.49C72.34,61.86,70.87,61.44,69.39,60.93Z"/></svg>