<svg id="Layer_1" data-name="Layer 1" xmlns="http://www.w3.org/2000/svg" viewBox="0 0 85.04 85.04"><path d="M77.25,68.37a6.43,6.43,0,0,0-6.37-4.69H67.59v0c.05-.15.1-.28.14-.41l.75-2c.52-1.38,1-2.77,1.54-4.16a2.28,2.28,0,0,0-1.62-3.48c-3.31-1.16-6.22-2.16-8.89-3.06a.84.84,0,0,1-.64-.77c-.11-.58-.22-1.16-.34-1.73-.15-.73-.3-1.48-.42-2.23-.06-.36-.14-.72-.21-1.08a7.68,7.68,0,0,1-.13-4,23.79,23.79,0,0,0,.56-2.58l.18-1a.59.59,0,0,1,.4.14c.1.09.14.27.12.56,0,.79,0,1.6,0,2.38,0,.29,0,.57,0,.86a3.8,3.8,0,0,0,3.78,4h0a3.83,3.83,0,0,0,2.71-1.07,4,4,0,0,0,1.15-2.89c0-2,0-4.05,0-6.08v-.32a3.82,3.82,0,0,0-2.83-3.92l-2.31-.79L57.9,28.81a1.27,1.27,0,0,1-.52-.27C57,28,56.62,27.49,56.27,27L56,26.55l.47-.47a10.22,10.22,0,0,0,1.14-1.25,11.44,11.44,0,0,0,1.86-8.93A7.43,7.43,0,0,0,52,9.55h-.26c-2.47,0-4.8-.11-7-1.25a1.12,1.12,0,0,0-1.53.53,5.43,5.43,0,0,0-.75,3,4.62,4.62,0,0,0,1.32,2.89c-2.6,4.09-1.53,9,2.61,11.92-.14.23-.29.45-.44.66a17.08,17.08,0,0,0-1.17,1.93A1.86,1.86,0,0,1,42.6,30.4c-.45-.06-.67-.13-.88-.46-.61-1-1.29-1.93-2.07-3a3.84,3.84,0,1,0-6.29,4.42l1.79,2.55c.64.89,1.27,1.78,1.89,2.68a3.57,3.57,0,0,0,3.31,1.67c.73,0,1.46,0,2.23,0h.84V39c0,1,0,1.87,0,2.78,0,.14-.25.38-.32.45l-.42.41c-1.07,1.07-2.18,2.17-3.29,3.22a5.8,5.8,0,0,0-1.89,4.46c0,1.76,0,3.52,0,5.28v2.81a6.72,6.72,0,0,0-4.72,5.2H29C28.27,59,27.26,57.77,22.53,56V38.34l.38.21c.47.27.92.52,1.38.74a4,4,0,0,0,5.36-1.73A3.72,3.72,0,0,0,28,32.43l-6.84-3.89-6.84-3.88a4.22,4.22,0,0,0-3.72-.31,4.34,4.34,0,0,0-2.47,2.7l0,1.7v.06a5.16,5.16,0,0,0,2.87,3c.55.28,1.1.6,1.63.91s.94.54,1.42.79a.7.7,0,0,1,.44.76c0,2.85,0,5.75,0,8.55v.42a1.29,1.29,0,0,0,.16.83,2,2,0,0,0,1.07.76,1.05,1.05,0,0,0,1.18-.93,3.45,3.45,0,0,0,.07-.77V35.15l.63.36c.7.4,1.36.78,2,1.12a.82.82,0,0,1,.5.87q0,7.08,0,14.15V56H16.93V53.33q0-2.22,0-4.44a1.65,1.65,0,0,0-.45-1.24,1.14,1.14,0,0,0-.84-.31c-.75,0-1.19.61-1.2,1.55V56H11.28a2.49,2.49,0,0,0-2.62,2.53c0,5.12,0,10.31,0,15.43a2.48,2.48,0,0,0,2.62,2.54h59.9a6.23,6.23,0,0,0,5-2.53A6.33,6.33,0,0,0,77.25,68.37ZM12.3,26.5l.14,0a3.34,3.34,0,0,1,.65.27l13.68,7.75c.81.47,1.07,1.11.74,1.8a1.67,1.67,0,0,1-2.05.78,2.89,2.89,0,0,1-.39-.2l-1.88-1.07-11.8-6.69a1.66,1.66,0,0,1-.85-1,1.24,1.24,0,0,1,.21-1A1.68,1.68,0,0,1,12.3,26.5ZM11.12,59c0-.26,0-.4.1-.47a.63.63,0,0,1,.43-.1h0c2.05,0,4.09,0,6.14,0h3.63a4.91,4.91,0,0,1,5,4.75c.05,2.54,0,5.13,0,7.64,0,1,0,2.09,0,3.13a.57.57,0,0,1,0,.12H22.56c-3.59,0-7.19,0-10.78,0-.32,0-.46,0-.55-.11a.79.79,0,0,1-.11-.5C11.14,69.14,11.15,64.41,11.12,59ZM43.38,32.84v2.94h-.81c-1,0-1.84,0-2.76,0a1,1,0,0,1-.59-.4c-1.41-1.94-2.67-3.73-3.88-5.48A1.35,1.35,0,0,1,35.68,28a1.39,1.39,0,0,1,.8-.26.75.75,0,0,1,.21,0,1.49,1.49,0,0,1,1,.63c.93,1.31,1.73,2.46,2.43,3.53a1.89,1.89,0,0,0,1.86,1,10,10,0,0,1,1.1,0Zm-8,30.49a5.59,5.59,0,0,1,.57-1A3.92,3.92,0,0,1,39.3,60.7c1,0,1.93,0,2.94,0h1.13v2.93h-8.1C35.32,63.53,35.37,63.43,35.41,63.33Zm32.36-7.28c0,.16-.09.31-.14.45l-.33.89c-.71,1.9-1.44,3.86-2.17,5.78a1.65,1.65,0,0,1-.32.47,1.17,1.17,0,0,1-.76-.41,4.47,4.47,0,0,1-.42-3.37c.36-1.15.8-2.26,1.27-3.43l.53-1.32,2.36.87Zm2.94,18H29V71.35h41.4a4.69,4.69,0,0,0,1-.08,1.11,1.11,0,0,0,.95-1.21,1.17,1.17,0,0,0-1-1.16,2.42,2.42,0,0,0-.6,0H29V66.13h22.4a3.29,3.29,0,0,0,.54,0,1.29,1.29,0,0,0,1.12-1.26,1.22,1.22,0,0,0-1.28-1.16c-1.15,0-2.29,0-3.44,0H45.91v-.08c0-.16,0-.3,0-.44V61.53c0-2.61,0-5.21,0-7.81a.81.81,0,0,1,.22-.56c.58-.37,1.19-.7,1.83-1.06l.54-.29.4.83c.37.77.74,1.51,1.08,2.26a4,4,0,0,0,2.51,2.21l4.06,1.39,4.13,1.42c.36.12.44.24.47.66,0,.78.13,1.53.23,2.33,0,.25.07.51.1.76H57.34a6.47,6.47,0,0,0-.88,0,1.14,1.14,0,0,0-1.06,1.13,1.18,1.18,0,0,0,1,1.26,2.06,2.06,0,0,0,.55,0H71.13a4,4,0,0,1,3.07,6.4,4.06,4.06,0,0,1-3.07,1.55ZM46.1,13.46a2.09,2.09,0,0,1-1.16-2.4A16,16,0,0,0,51,12h.45c3.58,0,5.73,2.15,5.75,5.77,0,.2,0,.4,0,.63v.05l-.08-.06a2.63,2.63,0,0,1-.58-.47,8.17,8.17,0,0,0-6.18-3A9,9,0,0,1,46.1,13.46Zm-.33,2.67h0a19.62,19.62,0,0,0,6,1.5A3.52,3.52,0,0,1,54.13,19a30.3,30.3,0,0,1,2,3l0,.09a.84.84,0,0,1-.1.58,5.57,5.57,0,0,1-3.92,2.83,6.15,6.15,0,0,1-5.08-1.4,5.82,5.82,0,0,1-1.48-7.7ZM64.29,38.86c0,.75,0,1.49,0,2.24a1.45,1.45,0,0,1-1.39,1.6,1.26,1.26,0,0,1-1-.36,1.74,1.74,0,0,1-.47-1.21q0-1.32,0-2.64V36.83a1.47,1.47,0,0,0-1.2-1.67l-1.76-.61-2.8-1A1.43,1.43,0,0,1,54.6,32a1.48,1.48,0,0,1,.69-1,1.38,1.38,0,0,1,.66-.17,1.44,1.44,0,0,1,.49.08c2.08.69,4.33,1.45,6.85,2.33a1.37,1.37,0,0,1,1,1.46c0,.76,0,1.52,0,2.28v1.87ZM48.42,27.93c.16-.25.26-.27.54-.19a7.8,7.8,0,0,0,4.23,0c.46-.13.66,0,.84.32a4,4,0,0,0,.37.57l.05.07a3.76,3.76,0,0,0-2.28,3.9c.23,2.47,2.08,3.23,4,3.76l-.18.9c-.25,1.28-.49,2.54-.75,3.78a.41.41,0,0,1-.19.18c-2.73,0-5.47,0-8.2,0h-1V37.42c0-1.65,0-3.3,0-5a1.68,1.68,0,0,1,.21-.84c.38-.62.77-1.23,1.16-1.84S48,28.56,48.42,27.93Zm13.37,29.8L61,57.47l-5.48-1.88-.6-.2c-.62-.21-1.25-.42-1.86-.67a1.53,1.53,0,0,1-.77-.58c-.46-.86-.88-1.73-1.32-2.66-.14-.28-.27-.57-.41-.86a16,16,0,0,0,5.17-4.08l.45,2.22.12.57c.1.46.19.93.27,1.39a2.31,2.31,0,0,0,1.72,2l3.39,1.14,1.19.4.21.07h0ZM45.53,43.64h9.06a6.56,6.56,0,0,1-2.23,2.87,31.3,31.3,0,0,1-3,2c-1.28.76-2.66,1.52-4.46,2.48a2.61,2.61,0,0,0-1.51,2.63c0,1.1,0,2.19,0,3.33,0,.42,0,.84,0,1.26H40a.53.53,0,0,1,0-.13v-3c0-1.73,0-3.46,0-5.18a2.75,2.75,0,0,1,.86-2c1.36-1.33,2.73-2.67,4.1-4a1.37,1.37,0,0,1,.4-.21l.11,0Z"/><path d="M16.37,65.22c.42,0,.84,0,1.25,0s.79,0,1.18,0a1.08,1.08,0,0,0,1-1.21,1.15,1.15,0,0,0-1.08-1.18,4,4,0,0,0-.77,0h-.14v-.07l-.21,0-.42,0a5.47,5.47,0,0,0-1,.12,1.08,1.08,0,0,0-.86,1.21A1.07,1.07,0,0,0,16.37,65.22Z"/><path d="M16.45,70c.36,0,.73,0,1.11,0s.78,0,1.2,0a1.1,1.1,0,0,0,.8-.41,1.18,1.18,0,0,0,.28-.88,1.12,1.12,0,0,0-1.15-1.11q-.37,0-.75,0h-.67a6.48,6.48,0,0,0-.76,0,1.16,1.16,0,0,0-1.14,1.2A1.13,1.13,0,0,0,16.45,70Z"/></svg>