<svg id="Layer_1" data-name="Layer 1" xmlns="http://www.w3.org/2000/svg" viewBox="0 0 85.04 85.04"><path d="M69,40.89l-1.32,1.32c-.74.75-1.52,1.52-2.3,2.27a1.39,1.39,0,0,1-.82.4c-5.41,0-10.7,0-15.7,0a3.3,3.3,0,0,1-3.18-2.44c-.75-2.5-1.37-4.6-2-6.73-.16-.56-.45-1.2-1.34-1.21h0A1.36,1.36,0,0,0,41,35.69c-.48,1.7-1,3.39-1.47,5.09l-.41,1.41a3.48,3.48,0,0,1-3.59,2.71c-5,0-9.54,0-14.1,0a1.62,1.62,0,0,1-1-.42c-.79-.75-1.56-1.53-2.31-2.29l-1.31-1.3a1.4,1.4,0,0,0-2.07-.21,1.25,1.25,0,0,0-.41.89A1.68,1.68,0,0,0,15,42.72l.52.52C16.7,44.48,18,45.76,19.24,47a2.11,2.11,0,0,0,1.28.56l8.9,0,6.64,0a6,6,0,0,0,5.51-4.21c.19-.64.38-1.27.56-1.91l.25-.84.18.62c.18.66.37,1.31.57,2A6,6,0,0,0,49,47.56h8l8.34,0A2.28,2.28,0,0,0,66.69,47c1.18-1.11,2.34-2.28,3.45-3.41l.78-.78a1.77,1.77,0,0,0,.62-1.23,1.27,1.27,0,0,0-.44-.9C70.51,40.09,69.75,40.18,69,40.89Z"/><path d="M68.42,48.53a1.43,1.43,0,0,0-1.77.61,3.79,3.79,0,0,1-1.44,1.16c-1.33.55-2.73,1-4.08,1.44l-.36.12a1.48,1.48,0,0,0-1.13,1.71v.1a9,9,0,0,1-.23,3.08,16.08,16.08,0,0,1-1.42,3c-.13.24-.27.47-.39.71a1.68,1.68,0,0,0-.16,1.49,1.23,1.23,0,0,0,.89.69,1.41,1.41,0,0,0,1.55-.79,13.28,13.28,0,0,0,2.63-7.57L65.89,53l.07,0c-.23.78-.46,1.56-.68,2.33-.51,1.8-1,3.66-1.73,5.42-.95,2.43-2,4.86-3.09,7.21-.55,1.24-1.13,2.53-1.68,3.8a8.21,8.21,0,0,0-.3,4.19l.06.65a1.05,1.05,0,0,0,1.11,1h.06A1.41,1.41,0,0,0,61,77.13a2.23,2.23,0,0,0,.11-1.36,8.45,8.45,0,0,1,1-5,4.59,4.59,0,0,0,.27-.6l.07-.19c.53-1.29,1.13-2.59,1.7-3.85a47.26,47.26,0,0,0,3.26-8.47c.57-2.28,1.09-4.6,1.6-6.86l.13-.55C69.39,49.18,68.89,48.72,68.42,48.53Z"/><path d="M26.89,60c-.11-.16-.22-.32-.32-.49-1.16-2.12-2-3.92-1.47-6.15.09-.38-.29-.87-.71-1.35a1.17,1.17,0,0,0-.62-.27l-.3-.08-.2-.07c-1.64-.61-3.2-1.18-4.24-2.69a1.59,1.59,0,0,0-1.49-.38,1.47,1.47,0,0,0-.77,1.25,34.92,34.92,0,0,0,.49,3.7A55.21,55.21,0,0,0,21,65.81c.16.39.33.78.5,1.16,1.27,2.91,2.58,5.92,2.21,9.28a1.52,1.52,0,0,0,0,.56,1.06,1.06,0,0,0,.22.4,1.24,1.24,0,0,0,.91.41h0A1.67,1.67,0,0,0,26,77.27l.18-.26a1.74,1.74,0,0,0,.11-.83v-.24a12.2,12.2,0,0,0-.77-5.47A29,29,0,0,1,24.5,67.6c-.18-.57-.38-1.16-.59-1.74-.34-.9-.69-1.8-1-2.69-.62-1.59-1.26-3.24-1.8-4.88a33.93,33.93,0,0,1-.91-3.67c-.1-.49-.21-1-.32-1.52l.49.22c.53.24,1,.44,1.46.61s.48.27.49.7a12.94,12.94,0,0,0,2.83,7.48,1.2,1.2,0,0,0,1.78.28,1.28,1.28,0,0,0,.37-1.77C27.15,60.42,27,60.23,26.89,60Z"/><path d="M23.32,22a24.84,24.84,0,0,1,8.9-5.79,1.5,1.5,0,0,0,.9-.78c.37-1.24.69-2.52,1-3.65.1-.38.19-.75.29-1.1v0c0-1-.29-1.48-1-1.63a1.22,1.22,0,0,0-1.53.94q-.21.75-.39,1.5c-.15.61-.3,1.24-.48,1.85a1.22,1.22,0,0,1-.52.7,31.7,31.7,0,0,0-9,6.05,2.14,2.14,0,0,1-1.23.52,26.45,26.45,0,0,0-8.69,1.9,9,9,0,0,0-5,4.44A1.36,1.36,0,0,0,7,28.87a1.47,1.47,0,0,0,.63.16A1,1,0,0,0,8,29a1.6,1.6,0,0,0,.87-.87,5.7,5.7,0,0,1,2.43-2.51,19.25,19.25,0,0,1,9-2.28A4.37,4.37,0,0,0,23.32,22Z"/><path d="M78.34,27.09A8.38,8.38,0,0,0,74.41,23a22.16,22.16,0,0,0-9.17-2.37,2.05,2.05,0,0,1-1.4-.55,27.52,27.52,0,0,0-9.34-6,1.09,1.09,0,0,1-.77-.89C53.44,12,53.19,11,52.9,9.93A1.21,1.21,0,0,0,51.42,9c-.74.13-1.08.63-1.07,1.58v0c.09.37.19.75.29,1.14.29,1.18.6,2.4,1,3.64a1.53,1.53,0,0,0,1,.82,24.73,24.73,0,0,1,9.77,6.11,3.13,3.13,0,0,0,2.28.93,20.07,20.07,0,0,1,6.67,1.24A7.45,7.45,0,0,1,76,28.25a1.34,1.34,0,0,0,.77.73,1.12,1.12,0,0,0,.36.05,1.23,1.23,0,0,0,.64-.17A1.27,1.27,0,0,0,78.34,27.09Z"/><path d="M54,61.17c-.72,0-1.45,0-2.15,0a23.18,23.18,0,0,0-6.41.5,14,14,0,0,1-3.53.49h0a8.83,8.83,0,0,1-2.23-.41L39,61.58a22.89,22.89,0,0,0-6.05-.42c-.71,0-1.45,0-2.17,0h0a1.18,1.18,0,0,0-1.25,1.17,1.23,1.23,0,0,0,1.1,1.43,7.17,7.17,0,0,0,1.38,0,26.73,26.73,0,0,1,9.07,1V67c0,1.51,0,3,0,4.53a1.57,1.57,0,0,0,.77,1.4,1,1,0,0,0,.5.13,1.11,1.11,0,0,0,.62-.2,2,2,0,0,0,.74-1.44c0-1.66,0-3.33,0-5.08V64.59l1.76-.23c1.46-.19,3-.39,4.47-.52.76-.06,1.56-.05,2.32,0,.54,0,1.11,0,1.66,0a1.44,1.44,0,0,0,1-.44,1.26,1.26,0,0,0,.31-1A1.18,1.18,0,0,0,54,61.17Z"/><path d="M44.15,54.18a27.91,27.91,0,0,1,7.93-.84l.18,0a1.22,1.22,0,0,0,.74-.07,2.54,2.54,0,0,0,1-1,1,1,0,0,0,0-.76,1.31,1.31,0,0,0-.72-.66,3.52,3.52,0,0,0-.87-.15c-.66,0-1.34-.06-2,0a33.38,33.38,0,0,0-6.91,1,5,5,0,0,1-1.6.11c-.9-.11-1.8-.31-2.67-.5a14.48,14.48,0,0,0-4.7-.52h-.92c-.6,0-1.12,0-1.63,0a1.48,1.48,0,0,0-1.16.6,1.27,1.27,0,0,0-.13,1.17,1.29,1.29,0,0,0,1.5.87,28.1,28.1,0,0,1,8.27.81c.46.12.59.22.58.67,0,.93,0,1.87,0,2.78,0,.32,0,.64,0,1A2,2,0,0,0,41.49,60a1.22,1.22,0,0,0,.88.32h0c.59,0,1.3-.31,1.31-1.7v-.67c0-1,0-2.1,0-3.15C43.69,54.41,43.76,54.26,44.15,54.18Z"/><path d="M38.37,16.84l2,3.9a2.2,2.2,0,0,0,2,1.32h0a2.21,2.21,0,0,0,2-1.34l1.41-2.8q1.72-3.41,3.43-6.81a1.62,1.62,0,0,0,.15-1.23,1.26,1.26,0,0,0-.66-.72,1.35,1.35,0,0,0-1.87.76c-.27.52-.53,1.05-.79,1.58-.15.31-.31.61-.46.92L43,17.61l-.64,1.26-.11-.2L42,18.14l-1.25-2.48L37.89,10a1.7,1.7,0,0,0-.94-.9,1.3,1.3,0,0,0-1,.11,1.33,1.33,0,0,0-.47,2Z"/><path d="M45.71,27.87A1.31,1.31,0,0,0,47,29h0l.1,0,.19,0,2.54-.51,8.8-1.79a1.61,1.61,0,0,0,1.1-.65,1.21,1.21,0,0,0,.12-1c-.19-.77-.83-1.11-1.76-.92L56,24.54l-4.34.85c-1.51.3-3.22.65-4.88,1A1.24,1.24,0,0,0,45.71,27.87Z"/><path d="M31.41,25.29l-6-1.2a1.54,1.54,0,0,0-1.09.16,1.25,1.25,0,0,0-.58.84,1.27,1.27,0,0,0,1.1,1.58c3.8.79,7.67,1.57,11.51,2.33a1.06,1.06,0,0,0,.25,0,1.36,1.36,0,0,0,.87-.32,1.37,1.37,0,0,0,.48-1.06h0c-.12-1-.86-1.22-1.61-1.37Z"/><path d="M42.42,73.93a1.45,1.45,0,0,0-1,.36,1.34,1.34,0,0,0,.93,2.27,1.35,1.35,0,0,0,.94-.41,1.33,1.33,0,0,0,.39-.94A1.3,1.3,0,0,0,42.42,73.93Z"/><path d="M67.88,16.28h.05a1.33,1.33,0,0,0,1.25-1.41,1.21,1.21,0,0,0-1.3-1.22h0a1.34,1.34,0,0,0-.94.4,1.28,1.28,0,0,0-.38.93,1.41,1.41,0,0,0,.46.94A1.33,1.33,0,0,0,67.88,16.28Z"/></svg>