<svg id="Layer_1" data-name="Layer 1" xmlns="http://www.w3.org/2000/svg" viewBox="0 0 85.04 85.04"><path d="M60.65,31.34A73.88,73.88,0,0,0,61.17,19c-.09-2.22-.3-4.46-.5-6.64-.06-.61-.11-1.22-.17-1.84-.08-.92-.5-1.3-1.46-1.3H38.53a1.45,1.45,0,0,0-1.19.42,1.51,1.51,0,0,0-.18,1.28l.08.4a25.76,25.76,0,0,1,.48,3.15,21.88,21.88,0,0,1-4.4,15.05,33.84,33.84,0,0,0-3.95,6.32c-2.56,5.49-2.83,10.66-.83,15.79a28.6,28.6,0,0,0,5,7.83,3.57,3.57,0,0,1,.74,1.3,11.42,11.42,0,0,1,.42,2.56c.14,3.55.25,7.31.36,12.18a1.59,1.59,0,0,0,.77,1.48l0,0H56l0-.06a2.62,2.62,0,0,1,.24-.34,2.49,2.49,0,0,0,.45-.83,24.12,24.12,0,0,0,.62-3.37l.07-.65c.32-3.36.66-6.83.88-10.24.42-6.74.27-13.54.08-19.92a2.82,2.82,0,0,1,.15-1A43.16,43.16,0,0,0,60.65,31.34ZM54.16,74.6H37.52c0-.82,0-1.63-.05-2.45,0-1.9-.06-3.87-.16-5.79,0-.27,0-.54,0-.81-.12-2.42-.24-4.92-1.45-7.23a45.09,45.09,0,0,0,8.46-4.88c1.32-.9,2.69-1.82,4.07-2.66a30.84,30.84,0,0,1,7.72-3.35v.09a3,3,0,0,1,0,.41c0,1.58,0,3.16-.06,4.75,0,3.77-.1,7.68-.28,11.51-.11,2.24-.41,4.51-.7,6.7-.15,1.08-.3,2.19-.42,3.29C54.6,74.52,54.5,74.6,54.16,74.6ZM45.92,39.83l-1.19-.13-1.36-.14a1.26,1.26,0,0,0-1.38,1,1.14,1.14,0,0,0,.95,1.29c1,.17,2.06.28,3,.36a59,59,0,0,0,10,.16l.06,0h0v2.34c-.61.24-1.25.47-1.86.69a29.46,29.46,0,0,0-4.22,1.78c-2.42,1.32-4.78,2.84-7.07,4.31l-1.56,1a41.77,41.77,0,0,1-7.21,3.86c-.23-.36-.47-.72-.71-1.08-.56-.85-1.13-1.72-1.63-2.61a16.24,16.24,0,0,1-1.47-12.57c.08-.28.15-.38.32-.38l.26,0c1,.25,2.07.45,3.09.64l.58.11a1.21,1.21,0,0,0,1.56-.91,1.07,1.07,0,0,0-.15-.82,1.46,1.46,0,0,0-1-.61l-2-.41-1.4-.28-.24-.08-.07,0a4.25,4.25,0,0,0,.21-.43c.25-.51.47-1,.74-1.44a.79.79,0,0,1,.53-.08l4,.91c1.84.42,3.75.86,5.63,1.27a89.56,89.56,0,0,0,13.28,2,4.63,4.63,0,0,1,.52.07l.17,0h0l-.11.08a.9.9,0,0,1-.36.19A52.54,52.54,0,0,1,45.92,39.83Zm-12-6.51-.3-.1-.12,0c5.56-6.54,7.61-13.6,6.27-21.6H58.25c0,.6.1,1.2.16,1.8.13,1.39.26,2.83.28,4.25.05,4,0,7.38-.14,10.53A41.22,41.22,0,0,1,57.16,37c-.09.36-.21.41-.55.36l-3.22-.37c-2.27-.26-4.6-.52-6.87-.93-3-.53-6-1.21-8.86-1.86Z"/><path d="M24.2,49.17c-.14-.62-.22-1.27-.3-1.89,0-.23,0-.46-.08-.69a1.25,1.25,0,0,1,.4.25,1.18,1.18,0,0,0,1.8,0,1.21,1.21,0,0,0-.17-1.75c-1-1-1.9-1.79-2.71-2.52a1.27,1.27,0,0,0-.95-.36,1.15,1.15,0,0,0-.84.49c-.74.93-1.51,1.94-2.36,3.1a1.18,1.18,0,0,0,.23,1.69,1.19,1.19,0,0,0,1.64-.22l.46-.57.06-.08c0,.27.07.52.1.78.09.71.18,1.39.32,2.06a20,20,0,0,0,5.9,10.79,1.76,1.76,0,0,0,1.14.48h.1a1.22,1.22,0,0,0,.89-.84,1.79,1.79,0,0,0-.47-1.29A18.46,18.46,0,0,1,24.2,49.17Z"/><path d="M39,39a1.13,1.13,0,0,0-1.14,1.17A1.15,1.15,0,0,0,39,41.34h0a1.2,1.2,0,0,0,.84-.34,1.16,1.16,0,0,0,.36-.84,1.14,1.14,0,0,0-.35-.83A1.23,1.23,0,0,0,39,39Z"/></svg>