<svg id="Layer_1" data-name="Layer 1" xmlns="http://www.w3.org/2000/svg" viewBox="0 0 85.04 85.04"><path d="M14,57.32l-1.53,1.52V17.2c0-1.61,0-3.23,0-4.85L14,13.84a1.11,1.11,0,0,0,1.57-1.57L12.16,8.85a1.12,1.12,0,0,0-1.57,0L7.17,12.27a1.12,1.12,0,0,0,0,1.57,1.15,1.15,0,0,0,1.57,0l1.52-1.53v41c0,1.83,0,3.67,0,5.51L8.74,57.32a1.11,1.11,0,0,0-1.57,1.57l3.42,3.42a1.14,1.14,0,0,0,1.57,0l3.42-3.42A1.11,1.11,0,0,0,14,57.32Z"/><path d="M72.16,68.31a1.13,1.13,0,0,0-1.57,0,1.15,1.15,0,0,0,0,1.57l1.53,1.53h-41c-1.83,0-3.67-.06-5.51,0l1.49-1.49a1.11,1.11,0,0,0-1.57-1.57l-3.42,3.42a1.14,1.14,0,0,0,0,1.57l3.42,3.42a1.11,1.11,0,0,0,1.57-1.57l-1.52-1.52H67.23c1.61,0,3.23,0,4.85,0l-1.49,1.48a1.11,1.11,0,0,0,1.57,1.57l3.42-3.42a1.12,1.12,0,0,0,0-1.57Z"/><path d="M76.89,31.53V26.3c0-1.13-.38-1.51-1.53-1.51H71.12V9.17c0-1.07-.39-1.47-1.46-1.47H29.15c-1.06,0-1.46.4-1.46,1.48V24.79H26.2c-.87,0-1.76,0-2.64,0a1.75,1.75,0,0,0-1.61.7l0,0V62.66H76.05l0,0a1.48,1.48,0,0,0,.83-1.5Q76.88,46.34,76.89,31.53ZM58.45,37.9V60.24H50.64V37.9Zm-10.28,0V60.23H40.36V37.89ZM37.91,57.55v2.68H24.34V57.55Zm0-19.66V55.1H24.35V37.89Zm7.86-12a1.18,1.18,0,0,0-1.11-1.05H30.1V10.11H68.71V24.79H54.38c-.83,0-1.34.43-1.35,1.16a1.16,1.16,0,0,0,1.11,1.22H74.47v8.27H24.33V27.18H44.38a2.09,2.09,0,0,0,.56-.05A1.17,1.17,0,0,0,45.79,25.85Zm28.67,12V55.1H60.89V37.89ZM60.89,60.23V57.55h13.6v2.68Z"/><path d="M55.73,22.82c.72.1,1.23-.33,1.39-1.18s.34-1.91.53-2.91l.17-1a.14.14,0,0,1,0,.06c.12.38.23.76.34,1.14.27.91.55,1.86.84,2.79a2,2,0,0,0,.52.85,1.33,1.33,0,0,0,.86.33,1.19,1.19,0,0,0,.37-.06,1.57,1.57,0,0,0,1-1.09c.29-1,.57-2,.86-3,.1-.33.19-.66.29-1,0,.07,0,.14,0,.21.09.46.18.91.26,1.36.16.84.32,1.68.49,2.51a1.19,1.19,0,0,0,1.17,1H65a1.07,1.07,0,0,0,.84-.43,1.5,1.5,0,0,0,.22-1.2l-.48-2.48c-.15-.81-.31-1.63-.46-2.44l0-.16c-.19-1-.39-2-.59-3a1.39,1.39,0,0,0-2.73-.1c-.25.85-.49,1.7-.74,2.56l-.42,1.48c-.07.25-.15.49-.24.77l-.43-1.48c-.33-1.12-.66-2.24-1-3.35a1.33,1.33,0,0,0-1.42-1,1.35,1.35,0,0,0-1.29,1.15c-.08.36-.15.73-.21,1.08l-.34,1.9c-.31,1.7-.63,3.46-.93,5.2a1.44,1.44,0,0,0,.2,1.09A1.1,1.1,0,0,0,55.73,22.82Z"/><path d="M42,16.25c-.85,0-1.73,0-2.63,0a1.13,1.13,0,0,0-1.16,1.17,1.15,1.15,0,0,0,1.19,1.21h1.13a2.2,2.2,0,0,1-1.63,1.79A3,3,0,0,1,36,19.55a3,3,0,0,1-.74-2.94,3.05,3.05,0,0,1,1.75-2,3.2,3.2,0,0,1,2.75.15,2,2,0,0,0,1.11.27,1,1,0,0,0,.92-1,1.22,1.22,0,0,0-.67-1.27,5.48,5.48,0,1,0-2.91,10.13,5.63,5.63,0,0,0,.58,0A4.8,4.8,0,0,0,42,21a5,5,0,0,0,1.1-3.71A1.19,1.19,0,0,0,42,16.25Z"/><path d="M47.43,17.31a1.68,1.68,0,0,1,.25.82c0,.72,0,1.45,0,2.15V21.6a1.27,1.27,0,0,0,.93,1.28,1,1,0,0,0,.3,0,1.1,1.1,0,0,0,.7-.24,1.33,1.33,0,0,0,.48-1.05c0-.58,0-1.16,0-1.74s0-1.19,0-1.79a1.52,1.52,0,0,1,.22-.72c.33-.53.67-1.06,1-1.58s.77-1.19,1.14-1.79a1.8,1.8,0,0,0,.29-1,1.09,1.09,0,0,0-.91-1,1.17,1.17,0,0,0-1.29.54c-.43.65-.85,1.3-1.29,2l-.39.6-.39-.59L47.3,12.67a1.24,1.24,0,0,0-1.76-.53,1.1,1.1,0,0,0-.52.72A1.48,1.48,0,0,0,45.29,14L46,15.12C46.49,15.83,47,16.57,47.43,17.31Z"/><path d="M49.37,24.79a1.22,1.22,0,0,0-.82,2.05,1.23,1.23,0,0,0,.86.34h0a1.22,1.22,0,0,0,.86-.35,1.23,1.23,0,0,0,0-1.71A1.24,1.24,0,0,0,49.37,24.79Z"/><path d="M29.12,50.87A1.2,1.2,0,0,0,29,52.62a1.15,1.15,0,0,0,.83.38h0a1.37,1.37,0,0,0,.94-.42c1.54-1.53,2.94-2.93,4.26-4.27a2.06,2.06,0,0,0,.35-.56q.07-.16.18-.36l0-.07-.06-.07a3.15,3.15,0,0,1-.22-.29,2.38,2.38,0,0,0-.57-.61,1.09,1.09,0,0,0-1.42.25C31.86,48.12,30.48,49.49,29.12,50.87Z"/><path d="M27.42,47.62h.06l.11,0a1.57,1.57,0,0,0,.52-.3c1.32-1.3,2.86-2.81,4.33-4.35a1.43,1.43,0,0,0,.34-1.11,1.09,1.09,0,0,0-.74-.89,1.33,1.33,0,0,0-1.32.35c-.73.71-1.46,1.44-2.17,2.15l-1.21,1.22c-.32.32-.65.64-1,1a1.16,1.16,0,0,0-.21,1.33A1.23,1.23,0,0,0,27.42,47.62Z"/><path d="M66.2,50.33c-.21.21-.43.43-.63.66a1,1,0,0,0-.17,1.33,2.37,2.37,0,0,0,.62.56l.28.21.07.06.07,0,.35-.17a1.82,1.82,0,0,0,.53-.32c1.41-1.38,2.9-2.86,4.34-4.35A1.65,1.65,0,0,0,72,47.22a1,1,0,0,0-.81-.95,1.19,1.19,0,0,0-1.28.36l-3.48,3.48Z"/><path d="M63.34,47.51a3.15,3.15,0,0,1,.29.22l.07.06.08,0,.35-.18a1.82,1.82,0,0,0,.56-.34c1.47-1.43,2.9-2.84,4.3-4.31h0a1.51,1.51,0,0,0,.33-1.16,1.1,1.1,0,0,0-.75-.87,1.3,1.3,0,0,0-1.29.37c-.64.61-1.28,1.25-1.89,1.87l-.8.8-.49.49L63,45.56a1.09,1.09,0,0,0-.24,1.37A2.25,2.25,0,0,0,63.34,47.51Z"/></svg>