<svg id="Layer_1" data-name="Layer 1" xmlns="http://www.w3.org/2000/svg" viewBox="0 0 85.04 85.04"><path d="M76.52,46.62c-.18-.8-.36-1.59-.55-2.39l0-.12a2.9,2.9,0,0,0-.3-.87,4,4,0,0,1-.29-3.07l.09-.57c.31-2.18.64-4.4,1-6.54l.23-1.51a.4.4,0,0,1,.06-.16l0-.1V28.78c0-.14-.08-.28-.11-.43s-.15-.57-.23-.85a9.31,9.31,0,0,0-8.78-6.7c-5.39,0-10.77,0-16.26,0A9.05,9.05,0,0,0,47,22l-.42.21,0,0v-.49c0-.66,0-1.31,0-2,0-1.44,0-2.92,0-4.38a5.32,5.32,0,0,0-1.46-4A5.72,5.72,0,0,0,40.9,9.68h-.07c-4.16.05-8.39,0-12.47,0H22a40.32,40.32,0,0,0-8.21.66,25.44,25.44,0,0,0-4,1.24,2.84,2.84,0,0,0-1.82,2.93c0,10,0,20.17,0,30q0,8.64,0,17.29a4.38,4.38,0,0,0,.16,1,5.29,5.29,0,0,1,.13.54,1.26,1.26,0,0,1,0,.48,4.2,4.2,0,0,0,4,5.7H14v.2c0,.24,0,.46,0,.68a3.2,3.2,0,0,0,3.13,3.14c.67,0,1.35,0,2.06,0H20a3.31,3.31,0,0,0,3.54,3.06h.24q.35,0,.69,0h.65a3.24,3.24,0,0,0,3.31-3.4c0-.85,0-1.7,0-2.57v-1H40.19v3.66a3.09,3.09,0,0,0,2.91,3.32,10.41,10.41,0,0,0,1.26.07c.41,0,.82,0,1.24-.06,1.69-.17,2.61-1.1,3-3h2.66a3.18,3.18,0,0,0,3.39-3.29v-.73h.44c.41,0,.79,0,1.18,0h.12a4.24,4.24,0,0,0,3.37-1.57,4.05,4.05,0,0,0,.85-3.37v-.1h.09c.66,0,1.29,0,1.93,0,1.14,0,2.32,0,3.48,0A6.58,6.58,0,0,0,71,62.57a17.54,17.54,0,0,0,5.68-11,.7.7,0,0,1,.07-.22l0-.12V47.66ZM58.29,65.3a1.71,1.71,0,0,1-1.39,1.78,12.38,12.38,0,0,1-1.62,0l-.63,0V63.5h.61a12.54,12.54,0,0,1,1.63,0A1.76,1.76,0,0,1,58.29,65.3Zm-6,1.49v3.33c0,.79-.28,1.07-1.06,1.09-.52,0-1.09,0-1.66,0s-1-.34-1-1c0-3.36,0-6.67,0-9.82,0-.66.29-.94,1-.95h1.73c.73,0,1,.27,1,1v6.35Zm-2.88-9.72h-.81v0c0-.15,0-.34-.08-.53a3.1,3.1,0,0,0-2.84-2.42c-.33,0-.43-.1-.51-.39a15.38,15.38,0,0,1,1.78-12.49,15,15,0,0,1,10.22-6.79,14.49,14.49,0,0,1,4.6,0,1.55,1.55,0,0,0,1.15-.2,1.17,1.17,0,0,0,.45-.78c.11-.68-.36-1.19-1.22-1.33A16.9,16.9,0,0,0,51,34.18l-.39.22-.05,0c0-.33-.1-.65-.15-1A18.73,18.73,0,0,1,50.07,31a2.6,2.6,0,0,1,.73-1.89,2.93,2.93,0,0,1,2.09-.87c4.91-.05,9.22-.05,13.17,0a2.74,2.74,0,0,1,2.12.91A3.57,3.57,0,0,1,68.82,32c-.08.58-.18,1.17-.28,1.78l-.11.66-.22-.12-.81-.44c-.79-.41-1.41-.29-1.78.32a1.11,1.11,0,0,0-.13.86,1.48,1.48,0,0,0,.8.87,14.51,14.51,0,0,1,7.54,9.35c1.61,6.23,0,11.58-4.85,15.91a3.73,3.73,0,0,1-2.58,1H59.64A1.12,1.12,0,0,1,59.1,62a5.25,5.25,0,0,0-3.57-.95h-.89v-.23c0-.26,0-.51,0-.75a3.2,3.2,0,0,0-3.23-3ZM46.22,67.88v5c0,1.1-.2,1.29-1.31,1.29H43.44a.85.85,0,0,1-.94-.93c0-.63,0-1.27,0-1.89V57.7c0-1.07.23-1.3,1.32-1.3h1.33c.78,0,1.07.3,1.07,1.08v10.4ZM34.51,57V47.35H42.3a18.68,18.68,0,0,0,.49,6.72c-1.77.7-2.41,1.42-2.61,3Zm9.27-15c-.24.7-.5,1.38-.78,2.09-.1.28-.21.55-.32.83H34.51V41.3h.05l.43,0h8.23c.31,0,.51.06.59.18S43.89,41.78,43.78,42.06Zm30.39-9.79c0,.3-.09.61-.13.91-.18,1.38-.4,2.79-.61,4.15l-.2,1.33a.08.08,0,0,1,0,0l-.49-.5c-.68-.69-1.38-1.41-2-2.12a.6.6,0,0,1-.06-.43c.15-1.1.34-2.41.57-3.76A5.2,5.2,0,0,0,70,27.69a5,5,0,0,0-3.83-1.82l-6.73,0-6.72,0a5,5,0,0,0-3.8,1.82,5.15,5.15,0,0,0-1.17,4.17c.2,1.2.39,2.43.57,3.76a.7.7,0,0,1-.1.48c-.64.69-1.3,1.35-2,2l-.5.5-.06-.37c-.08-.49-.16-1-.23-1.47-.3-2-.58-4-.86-6a6.84,6.84,0,0,1,5.26-7.51,8.53,8.53,0,0,1,1.83-.18c4.49,0,9.3,0,15.59,0a6.82,6.82,0,0,1,7.1,6.27A11.33,11.33,0,0,1,74.17,32.27ZM34.5,28.21h7.81A24.64,24.64,0,0,0,42.82,35c.22,1.29.45,2.62.55,4H34.5Zm8-2.35h-8V22.18h9.7c0,.18,0,.36,0,.54a4.42,4.42,0,0,1,0,1.37,4.72,4.72,0,0,1-1,1.7C43.1,25.88,42.75,25.87,42.52,25.86Zm1.69-7.31v1.24H34.46V14.55a2.56,2.56,0,0,0-1-2.45l.27,0h7.41a2.85,2.85,0,0,1,3.07,3.12Zm-4.06,41v1.56H34.52V59.5Zm0,4v3.6H28.47v-3.6ZM28.42,57.46a3.28,3.28,0,0,0-1-2.52,2.91,2.91,0,0,0-2-.85h-2A3.15,3.15,0,0,0,20,56.88l0,.19h-.85c-.69,0-1.34,0-2,0A3.18,3.18,0,0,0,14,60.37V61l-3.7.4V50.89a40.67,40.67,0,0,0,21.78,0V61.05H28.42V57.46ZM26.05,66.6V73c0,1-.21,1.19-1.19,1.2H23.39c-.77,0-1-.26-1-1V68.29a2.93,2.93,0,0,0-.09-.84,1,1,0,0,0-1.06-.8h-.17a1.08,1.08,0,0,0-1,1.13c0,.51,0,1,0,1.53v.82c0,.76-.27,1-1,1.06a16.6,16.6,0,0,1-1.73,0,.86.86,0,0,1-1-.94c0-3.28,0-6.61,0-9.89,0-.63.29-.9.94-.92s1.31,0,1.87,0a.79.79,0,0,1,.88.89v2.54a1.25,1.25,0,0,0,1.17,1.4h0A1.08,1.08,0,0,0,22,64a1.46,1.46,0,0,0,.4-1.07c0-1,0-2.11,0-3.17V57.56c0-.92.25-1.16,1.17-1.16H25c.76,0,1,.28,1,1,0,1.87,0,3.75,0,5.63V66.6ZM10.26,26.25c0-.18,0-.36,0-.54L11.6,26c1.1.26,2.23.54,3.36.71a40.28,40.28,0,0,0,9,.35A1.12,1.12,0,0,0,25,25.9a1.1,1.1,0,0,0-1.19-1.11h-1.7c-1,0-2,0-3,0a27.23,27.23,0,0,1-7-1.05H12l-.06,0c-1.66-.54-1.66-.54-1.66-2.26V16.62a40.41,40.41,0,0,0,21.87,0v2.48c0,.31,0,.62,0,.93,0,.75,0,1.52,0,2.29a.77.77,0,0,1-.54.88L29.16,24l-.35.11-.27.07-.24.05a1.15,1.15,0,0,0-.94,1.41,1.09,1.09,0,0,0,.5.72,1.32,1.32,0,0,0,1,.14c.79-.19,1.56-.4,2.38-.62l.9-.25V28c0,1.1,0,1.1-1,1.51a23.65,23.65,0,0,1-5.73,1.36,36.39,36.39,0,0,1-8.15-.07,25.32,25.32,0,0,1-6-1.31c-.78-.29-1-.69-1-1.42A13.73,13.73,0,0,0,10.26,26.25Zm21.85,6c0,.86,0,1.73,0,2.6,0,2.13,0,4.33,0,6.5,0,.66-.21,1-.75,1.14l-1.15.31a33.45,33.45,0,0,1-3.75.86,39.9,39.9,0,0,1-9.5.15,20.39,20.39,0,0,1-5.75-1.2c-1-.4-1-.42-1-1.48V31.73a40,40,0,0,0,21.85,0h0C32.1,31.91,32.11,32.07,32.11,32.23ZM10.25,44.83a40,40,0,0,0,21.86,0c0,.22,0,.44,0,.67,0,.76,0,1.55,0,2.32a.93.93,0,0,1-.55.59l-.54.19a19.29,19.29,0,0,1-3.14.88,40.27,40.27,0,0,1-14.43-.22,14.43,14.43,0,0,1-2.08-.68l-.67-.25a.64.64,0,0,1-.43-.74c0-.72,0-1.44,0-2.14ZM31.6,14.13a8.94,8.94,0,0,1-1.16.49,28.86,28.86,0,0,1-8.13,1.12,34.54,34.54,0,0,1-9.95-1,12.1,12.1,0,0,1-1.47-.55L10.35,14a7.07,7.07,0,0,1,2.9-1.12A38.89,38.89,0,0,1,29.87,13a10.45,10.45,0,0,1,1.54.55l.63.26v.07ZM13.93,63.48v3.65h-.58a12.18,12.18,0,0,1-1.49,0,1.81,1.81,0,0,1-1.61-1.87,1.85,1.85,0,0,1,1.81-1.76h1.87Z"/><path d="M56.74,53.25a3.27,3.27,0,0,0,2.76-.54h0l.19.14a3.31,3.31,0,0,0,1.74.51,3,3,0,0,0,1.31-.3,3.13,3.13,0,0,0,1.76-2.49A1.33,1.33,0,0,0,64,49.31a1,1,0,0,0-1-.1,1.89,1.89,0,0,0-.8,1.09c-.17.52-.37.71-.76.72h0a.69.69,0,0,1-.75-.72,1.55,1.55,0,0,0-.08-.36,1.08,1.08,0,0,0-1.15-.81,1.05,1.05,0,0,0-1.06.84,1.43,1.43,0,0,0,0,.22.51.51,0,0,1-.05.22l-.09.1c-.18.19-.44.47-.61.47h0c-.2,0-.43-.23-.63-.42a1,1,0,0,0-.17-.14V50.3a.78.78,0,0,0,0-.21,1.13,1.13,0,0,0-1.26-1,1.08,1.08,0,0,0-1,1.19,3.65,3.65,0,0,0,.27,1.21A3,3,0,0,0,56.74,53.25Z"/><path d="M52.25,49.47a3.56,3.56,0,0,0,0-.65c0-.1,0-.2,0-.3s0-.18,0-.27a3.89,3.89,0,0,0,0-.68,1.07,1.07,0,0,0-1.13-1h0a1,1,0,0,0-1.13,1,11.79,11.79,0,0,0,0,1.88,1.05,1.05,0,0,0,1.13,1h0A1.09,1.09,0,0,0,52.25,49.47Z"/><path d="M67.83,50.5A1.21,1.21,0,0,0,69,49.4c0-.21,0-.42,0-.62a2.26,2.26,0,0,1,0-.26v-.26c0-.21,0-.41,0-.62a1.17,1.17,0,0,0-1.16-1.09h0a1.1,1.1,0,0,0-1.14,1.09,17,17,0,0,0,0,1.75A1.15,1.15,0,0,0,67.83,50.5Z"/></svg>