<svg id="Layer_1" data-name="Layer 1" xmlns="http://www.w3.org/2000/svg" viewBox="0 0 85.04 85.04"><defs><style>.cls-1{fill:#fff;}</style></defs><path class="cls-1" d="M23.49,55.71l.32.29a11.25,11.25,0,0,0,4.25,2.51,1.3,1.3,0,0,0,1.59-.75,1.29,1.29,0,0,0-.7-1.7c-.34-.14-.69-.25-1-.42a8.86,8.86,0,0,1-5.2-8.18c0-1.13,0-2.26,0-3.39a17.61,17.61,0,0,1,1-5.52,17.89,17.89,0,0,1,2.73-4.93,17.71,17.71,0,0,1,5.43-4.57,19.74,19.74,0,0,1,3.76-1.52c1.41-.44,2.81-.91,4.21-1.37l4-1.29,3.78-1.22a8.44,8.44,0,0,0,3.68-2.29,8.27,8.27,0,0,0,2.22-5.08,2,2,0,0,0-.13-1.17,1.34,1.34,0,0,0-1.5-.67,1.37,1.37,0,0,0-1,1.23,9.5,9.5,0,0,1-.24,1.6,5.23,5.23,0,0,1-2.92,3.48,17.76,17.76,0,0,1-2.19.78c-1.24.42-2.48.82-3.73,1.22l-3.68,1.18c-1.23.4-2.46.82-3.7,1.21a20.45,20.45,0,0,0-4.17,1.78A20.1,20.1,0,0,0,24,32.53a19.76,19.76,0,0,0-3,5.9,17.74,17.74,0,0,0-.86,4.49c-.07,1.55-.08,3.1-.08,4.64a11.34,11.34,0,0,0,.95,4.52,1.38,1.38,0,0,1,.11.57c0,.39-.09.79-.13,1.18-.12,1.38-.27,2.76-.33,4.15A43.72,43.72,0,0,0,21,65c.14,1.14.33,2.28.51,3.41a4.81,4.81,0,0,0,.28,1.07,1.29,1.29,0,0,0,1.57.66,1.4,1.4,0,0,0,.87-1.63c-.25-1.55-.52-3.11-.7-4.67a45.43,45.43,0,0,1-.13-6.6C23.37,56.77,23.44,56.27,23.49,55.71Zm20,2.22.24.13A12.39,12.39,0,0,0,50.57,60H61.23a2.71,2.71,0,0,0,.4,0,1.31,1.31,0,1,0-.13-2.62H50.44a10,10,0,0,1-3.17-.48,9.09,9.09,0,0,1-5-3.86c-.54-.86-.95-1.81-1.41-2.72a1.32,1.32,0,0,0-1.71-.65,1.24,1.24,0,0,0-.7,1.65,17.74,17.74,0,0,0,2,3.67,1.26,1.26,0,0,1,.25.79,23.8,23.8,0,0,1-.42,4.13A23.37,23.37,0,0,1,39.05,64c-.58,1.5-1.17,3-1.74,4.51a1.29,1.29,0,0,0,.77,1.69,1.32,1.32,0,0,0,1.67-.77c.35-.87.68-1.74,1-2.61.13-.33.27-.65.4-1l.07,0c0,.1,0,.2,0,.31,0,.92.09,1.85.15,2.78a1.33,1.33,0,0,0,1.14,1.3A1.3,1.3,0,0,0,44,68.82c0-.85-.08-1.71-.13-2.56-.06-1.19-.13-2.37-.19-3.56-.08-1.52-.15-3-.22-4.55A.73.73,0,0,1,43.52,57.93ZM40.3,30.32a1.23,1.23,0,0,0-1.21.87c-.18.69-.31,1.4-.47,2.11-.34,1.54-.64,3.09-1,4.63a23.12,23.12,0,0,1-1.71,4.48,4.3,4.3,0,0,0-.42,1,1.28,1.28,0,0,0,.87,1.4,1.34,1.34,0,0,0,1.63-.7,31,31,0,0,0,2.9-8.59c.23-1.2.47-2.4.72-3.59A1.33,1.33,0,0,0,40.3,30.32Zm9-2.79a1.35,1.35,0,0,0,1.08,1.29l3.31.8,3.42.85,2.84.7c.5.12,1,.26,1.5.33a1.25,1.25,0,0,0,1.41-1.11A1.29,1.29,0,0,0,62,29l-3-.76-3.83-.92c-1.39-.34-2.78-.69-4.17-1A1.3,1.3,0,0,0,49.33,27.53Z"/><path d="M23.49,55.71c0,.56-.12,1.06-.13,1.56a45.43,45.43,0,0,0,.13,6.6c.18,1.56.45,3.12.7,4.67a1.4,1.4,0,0,1-.87,1.63,1.29,1.29,0,0,1-1.57-.66,4.81,4.81,0,0,1-.28-1.07c-.18-1.13-.37-2.27-.51-3.41A43.72,43.72,0,0,1,20.7,58c.06-1.39.21-2.77.33-4.15,0-.39.11-.79.13-1.18a1.38,1.38,0,0,0-.11-.57,11.34,11.34,0,0,1-.95-4.52c0-1.54,0-3.09.08-4.64A17.74,17.74,0,0,1,21,38.43a19.76,19.76,0,0,1,3-5.9,20.1,20.1,0,0,1,6.32-5.61,20.45,20.45,0,0,1,4.17-1.78c1.24-.39,2.47-.81,3.7-1.21l3.68-1.18c1.25-.4,2.49-.8,3.73-1.22a17.76,17.76,0,0,0,2.19-.78,5.23,5.23,0,0,0,2.92-3.48,9.5,9.5,0,0,0,.24-1.6,1.37,1.37,0,0,1,1-1.23,1.34,1.34,0,0,1,1.5.67,2,2,0,0,1,.13,1.17,8.27,8.27,0,0,1-2.22,5.08,8.44,8.44,0,0,1-3.68,2.29L43.9,24.87l-4,1.29c-1.4.46-2.8.93-4.21,1.37a19.74,19.74,0,0,0-3.76,1.52,17.71,17.71,0,0,0-5.43,4.57,17.89,17.89,0,0,0-2.73,4.93,17.61,17.61,0,0,0-1,5.52c0,1.13,0,2.26,0,3.39a8.86,8.86,0,0,0,5.2,8.18c.33.17.68.28,1,.42a1.29,1.29,0,0,1,.7,1.7,1.3,1.3,0,0,1-1.59.75A11.25,11.25,0,0,1,23.81,56Z"/><path d="M43.52,57.93a.73.73,0,0,0,0,.22c.07,1.52.14,3,.22,4.55.06,1.19.13,2.37.19,3.56.05.85.11,1.71.13,2.56a1.3,1.3,0,0,1-1.49,1.39,1.33,1.33,0,0,1-1.14-1.3c-.06-.93-.1-1.86-.15-2.78,0-.11,0-.21,0-.31l-.07,0c-.13.33-.27.65-.4,1-.34.87-.67,1.74-1,2.61a1.32,1.32,0,0,1-1.67.77,1.29,1.29,0,0,1-.77-1.69c.57-1.51,1.16-3,1.74-4.51a23.37,23.37,0,0,0,1.21-4.11,23.8,23.8,0,0,0,.42-4.13,1.26,1.26,0,0,0-.25-.79,17.74,17.74,0,0,1-2-3.67,1.24,1.24,0,0,1,.7-1.65,1.32,1.32,0,0,1,1.71.65c.46.91.87,1.86,1.41,2.72a9.09,9.09,0,0,0,5,3.86,10,10,0,0,0,3.17.48H61.5a1.31,1.31,0,1,1,.13,2.62,2.71,2.71,0,0,1-.4,0H50.57a12.39,12.39,0,0,1-6.81-1.9Z"/><path d="M40.3,30.32A1.33,1.33,0,0,1,41.59,32c-.25,1.19-.49,2.39-.72,3.59A31,31,0,0,1,38,44.13a1.34,1.34,0,0,1-1.63.7,1.28,1.28,0,0,1-.87-1.4,4.3,4.3,0,0,1,.42-1,23.12,23.12,0,0,0,1.71-4.48c.38-1.54.68-3.09,1-4.63.16-.71.29-1.42.47-2.11A1.23,1.23,0,0,1,40.3,30.32Z"/><path d="M49.33,27.53a1.3,1.3,0,0,1,1.58-1.28c1.39.33,2.78.68,4.17,1l3.83.92L62,29a1.29,1.29,0,0,1,.94,1.44,1.25,1.25,0,0,1-1.41,1.11c-.5-.07-1-.21-1.5-.33l-2.84-.7-3.42-.85-3.31-.8A1.35,1.35,0,0,1,49.33,27.53Z"/></svg>