<svg id="Layer_1" data-name="Layer 1" xmlns="http://www.w3.org/2000/svg" viewBox="0 0 85.04 85.04"><path d="M69.33,36.63c0,.71.26,1.12.78,1.07a3,3,0,0,0,.92-.43V13.83s-.06-.05-.07-.08c-.86-3.11-2.76-4.57-6-4.57H18.19a5.5,5.5,0,0,0-5.41,5.59v32c0,1.09.46,1.55,1.56,1.57H17c1.16,0,1.63-.48,1.64-1.63s0-2.2,0-3.29a1,1,0,0,1,.31-.66q1.89-1.47,3.82-2.87a1.49,1.49,0,0,1,.82-.27q18.3,0,36.62,0a1.33,1.33,0,0,1,.77.25q1.94,1.39,3.81,2.87a1,1,0,0,1,.34.7c0,1.14,0,2.27,0,3.41a1.33,1.33,0,0,0,1.48,1.48c.83,0,1.67,0,2.5,0A1.88,1.88,0,0,0,71,47.51V40.45c-.08-.07-.15-.17-.25-.2-.31-.08-.7-.27-.92-.16a1.12,1.12,0,0,0-.51.84c0,1.66,0,3.33,0,5v.65h-2.4V16.08a2.39,2.39,0,0,0-.94-2.2,3.39,3.39,0,0,0-1.63-.51c-1.67-.06-3.34,0-5,0H19.7a2.75,2.75,0,0,0-1.92.54,2.41,2.41,0,0,0-.88,1.89c0,1.82,0,3.64,0,5.46,0,.65.35,1,.88,1s.87-.36.87-1c0-1.63,0-3.26,0-4.89,0-1.25.12-1.36,1.46-1.24.05.52.11,1.05.15,1.59.21,2.61.4,5.22.61,7.82s.43,5.29.64,7.93q.22,2.81.42,5.61a.54.54,0,0,1-.14.39c-1,.77-2,1.52-3.14,2.37V25.89c0-.91-.27-1.34-.86-1.35s-.9.42-.9,1.36V46.57H14.51c0-.2,0-.38,0-.56V15a3.79,3.79,0,0,1,2.92-4,5.07,5.07,0,0,1,1.24-.1c15.5,0,31,0,46.52,0a4,4,0,0,1,4.17,4.21C69.29,22.29,69.32,29.46,69.33,36.63ZM25.15,37.81H23.68c-.07-.73-.13-1.45-.2-2.24h1.67Zm0-4.06H23.36c-.07-.75-.13-1.47-.2-2.27h2Zm4.54,4.07H27V35.58h2.73Zm0-4.08H27V31.47h2.73Zm0-4.08H27V27.39h2.72Zm6.33,0V27.41h2.7v2.26Zm0,1.83h2.7v2.25H36Zm2.7,6.34H36V35.57h2.69Zm4.53,0H40.57V35.57h2.68Zm0-4.08H40.55V31.5h2.71Zm9.07-10.45v2.3H49.58v-2.3ZM49.59,21.5V19.21h2.74V21.5Zm2.74,16.32H49.62V35.57h2.71Zm0-4.08H49.59V31.48h2.75Zm4.5,4.08H54.11V35.57h2.73Zm0-4.08H54.11V31.49h2.73Zm3.3,4.08H58.67V35.57h1.65Zm.32-4.07H58.65V31.5h2C60.58,32.25,60.52,33,60.46,33.75Zm.33-4.07H58.66V27.39H61C60.9,28.14,60.85,28.88,60.79,29.68Zm.32-4.09H58.64V23.31h2.64C61.22,24.07,61.17,24.82,61.11,25.59Zm.33-4.1h-2.8V19.22h3C61.55,20,61.5,20.72,61.44,21.49ZM63,24.43l.63-8c0-.43.07-.86.1-1.36a2.44,2.44,0,0,1,.86,0,1.47,1.47,0,0,1,.59.57c.08.12,0,.33,0,.5V40.83C64,40,63,39.23,62,38.46a.54.54,0,0,1-.15-.39l.57-7.24Zm-4.31-9.32h3.29c0,.7-.09,1.4-.16,2.08a.39.39,0,0,1-.3.24c-.93,0-1.85,0-2.83,0Zm-4.52,0h2.72v2.29H54.12Zm0,4.08h2.72v2.27H54.12Zm0,4.1h2.74v2.29H54.11Zm0,4.1h2.74v2.27H54.1Zm-1.76,2.28H49.59V27.39h2.75ZM49.58,15.11h2.76v2.3H49.58ZM47.81,37.82H45.1V35.59h2.71Zm-2.73-4.08V31.49H47.8v2.25Zm2.72-4.07H45.08V27.41H47.8Zm0-4.08H45.09v-2.3H47.8ZM45.09,15.1H47.8v2.31H45.09Zm0,4.1h2.71v2.29H45.08ZM43.26,29.66H40.55V27.4h2.71Zm-2.7-14.55h2.69v2.3H40.56Zm0,4.1h2.69v2.28H40.55Zm0,4.09h2.7v2.25h-2.7Zm-1.81,2.29H36V23.3h2.71Zm0-4.09H36V19.2h2.71ZM36,15.11h2.71v2.3H36ZM34.23,37.83H31.48V35.59h2.75ZM31.48,15.11h2.75v2.31H31.48Zm0,4.09h2.75v2.29H31.48Zm0,4.1h2.75v2.29H31.48Zm0,4.09h2.76v2.28H31.47Zm0,4.11h2.76v2.24H31.46ZM27,15.12H29.7V17.4H27Zm2.73,4.08v2.29H27V19.2Zm-2.76,4.09H29.7v2.33c-.84,0-1.65,0-2.46,0a.42.42,0,0,1-.29-.29C26.92,24.66,26.93,24,26.93,23.29Zm-1.76,6.37H23c-.06-.74-.12-1.48-.18-2.25h2.32Zm0-4.07H22.7c-.06-.77-.11-1.52-.17-2.29h2.64Zm0-4.09H22.38c-.06-.77-.12-1.51-.18-2.29h2.95Zm-3.27-6.4h3.26v2.34c-.95,0-1.89,0-2.84,0a.41.41,0,0,1-.27-.27C22,16.48,21.93,15.81,21.88,15.1Z"/><path d="M56.46,50.21c-.92-.69-1.88-1.41-2.82-2.17a18.91,18.91,0,0,0-9.39-4.1A18.32,18.32,0,0,0,39,44a17.53,17.53,0,0,0-7.37,2.92c-1.17.81-2.31,1.7-3.42,2.56l-1.09.85a2.28,2.28,0,0,0-.88,1.92V65.39a.94.94,0,0,0,.84,1.07l.69.19,1.53.41.74.19c1,.26,2.05.53,3.09.75a7.94,7.94,0,0,0,1.28.13l.38,0,1.06,7.41a1.28,1.28,0,0,0,.56,1l.06,0H37l.7-.65,1.62-1.5c.07-.07.13-.15.2-.23l.21.18,2,1.74a.88.88,0,0,0,1.41,0L45,74.54l2.29,2.1h.61l.08-.11.12-.13a1,1,0,0,0,.29-.5c.21-1.33.4-2.67.59-4l.54-3.77h0l.67-.06a8.12,8.12,0,0,0,1.55-.2c1.34-.34,2.67-.74,4-1.13l1.09-.33c.55-.16.66-.51.66-1V52.27A2.46,2.46,0,0,0,56.46,50.21Zm-20,17.94-.28-2,1.19,1.13Zm7.92-.8-2.28,2.17-2.27-2.17,2.27-2.07Zm-.34-2.57h3l-1.48,1.41Zm-5.43,1.41-1.47-1.41h3ZM37.34,74,37.07,72l1.15,1Zm2.2-2-2.41-2.15,1.5-1.37,2.31,2.19Zm2.88,2.52-1.55-1.47,1.28-1.22,1.47,1.4Zm2.48-2.39-1.53-1.46,2.3-2.19,1.43,1.3Zm2.05,2-.75-.71,1-1.06Zm.85-5.93-.91-.83,1.19-1.13ZM33.85,63.06c-.56,0-.71-.18-.77-.46a.55.55,0,0,1,.09-.45.57.57,0,0,1,.39-.23H50a.69.69,0,0,1,.57.24.55.55,0,0,1,.07.49.58.58,0,0,1-.51.41H33.85Zm2-2.85v-6.6a1.55,1.55,0,0,1,0-.21h12a1.55,1.55,0,0,1,0,.21v6.6ZM55.8,65l-1.64.48c-.9.26-1.84.54-2.76.78a9,9,0,0,1-1.33.21l-.34,0L50,64.76a2.41,2.41,0,0,0,1.88-.87,2.16,2.16,0,0,0,.5-1.49,2.2,2.2,0,0,0-1-1.81,3,3,0,0,0-1.75-.37h0V53.54a1.64,1.64,0,0,0-1.79-1.81H36a1.64,1.64,0,0,0-1.79,1.81v6.68h-.11l-.73.05a2.23,2.23,0,0,0-.08,4.43,7.72,7.72,0,0,0,.84.06h.19l.24,1.68a8.07,8.07,0,0,1-2-.26L30,65.52,28,65s0,0,0-.08V52.23a.71.71,0,0,1,.26-.62l1.41-1.07c1-.76,2-1.54,3-2.26a15.61,15.61,0,0,1,6.14-2.53,16.69,16.69,0,0,1,10.87,1.63,23.8,23.8,0,0,1,3.54,2.42l1,.76,1.25.95a.88.88,0,0,1,.4.8c0,1.68,0,3.36,0,5V65Z"/></svg>