<svg id="Layer_1" data-name="Layer 1" xmlns="http://www.w3.org/2000/svg" viewBox="0 0 85.04 85.04"><path d="M81.3,56.3a1,1,0,0,0-1.41,0l-1.38,1.37V26.22c0-1.45,0-2.91,0-4.37.44.45.89.89,1.34,1.34a1,1,0,0,0,1.41-1.41l-3.08-3.09a1,1,0,0,0-1.42,0l-3.08,3.09a1,1,0,0,0,0,1.41,1,1,0,0,0,1.42,0l1.37-1.38V52.68c0,1.65-.05,3.31,0,5L75.13,56.3a1,1,0,1,0-1.41,1.41l3.08,3.08a1,1,0,0,0,1.42,0l3.08-3.08A1,1,0,0,0,81.3,56.3Z"/><path d="M67.11,64a1,1,0,0,0-1.42,1.42l1.38,1.37H15.14c-1.65,0-3.31,0-5,0l1.34-1.34a1,1,0,0,0,0-1.42,1,1,0,0,0-1.42,0Q8.57,65.56,7,67.09a1,1,0,0,0,0,1.42c1,1,2.06,2,3.08,3.08a1,1,0,0,0,1.42-1.41L10.14,68.8H62.66c1.45,0,2.91,0,4.37,0l-1.34,1.34a1,1,0,0,0,0,1.41,1,1,0,0,0,1.42,0c1-1,2-2,3.08-3.08a1,1,0,0,0,0-1.41Z"/><path d="M7.73,61c3.16,0,6.33,0,9.43,0a1.36,1.36,0,0,0,1-.58.88.88,0,0,0,0-.91,1.26,1.26,0,0,0-1.14-.59H8.76V52.52h8.15c1,0,1.36-.38,1.36-1.35V50.11c0-1.34,0-2.73,0-4.09a.68.68,0,0,1,.4-.72,6.49,6.49,0,0,0,0-11.33.69.69,0,0,1-.4-.72c0-1.63,0-3.28,0-4.88V28c0-.76-.37-1.19-1-1.21-1.06,0-2.19,0-3.36,0a1.14,1.14,0,0,0-.78.33,1.08,1.08,0,0,0-.27.76,1,1,0,0,0,1,1,2.72,2.72,0,0,0,.57,0h1.73v21.4H8.76V45.94H11c1.07,0,1.43-.36,1.43-1.41v-9.8c0-1-.36-1.39-1.37-1.4H8.76V28.92h.32c.33,0,.63,0,.95,0,.75,0,1.18-.43,1.17-1.08s-.45-1-1.19-1.08H8.75V20.44H37.38v0a1.85,1.85,0,0,1,0,.23v2.92q0,4.62,0,9.24c0,.33-.09.4-.41.48a6.48,6.48,0,0,0-.06,12.59c.41.1.47.23.47.62q0,4.23,0,8.47v3.38c0,.12,0,.24,0,.38v.09H21.2a1.55,1.55,0,0,0-.43,0A1,1,0,0,0,19.89,60a1,1,0,0,0,.9,1,1.42,1.42,0,0,0,.29,0h47.8c1.2,0,1.5-.29,1.5-1.5V20.31c0-.3,0-.6,0-.9a1,1,0,0,0-1.12-1.12H59.82A1.07,1.07,0,0,0,58.89,20a1.3,1.3,0,0,0,1,.44q2.82,0,5.64,0h2.66v6.35H60.07c-1,0-1.35.38-1.36,1.35v1.15c0,1.33,0,2.71,0,4.06a.63.63,0,0,1-.39.66,6.48,6.48,0,0,0,0,11.33.63.63,0,0,1,.39.65c0,1.42,0,2.86,0,4.26v1c0,1,.39,1.34,1.36,1.35h2.36c1.2,0,1.37-.69,1.37-1.1s-.25-1.06-1.39-1.07H60.86V29h7.37v4.36H65.86c-.93,0-1.31.4-1.32,1.34v9.8c0,1.12.35,1.46,1.5,1.47h2.19v4.38H66.66c-.81,0-1.25.41-1.25,1.08s.47,1.07,1.25,1.09h1.57v6.31H39.6v0a1.79,1.79,0,0,1,0-.23V55.22c0-2.93,0-5.87,0-8.8,0-.33.1-.4.42-.48a6.48,6.48,0,0,0,0-12.61c-.38-.09-.4-.22-.4-.61V20.88c0-.12,0-.23,0-.36V20.4h16c.7,0,1.5-.11,1.52-1a1,1,0,0,0-.24-.73,1.79,1.79,0,0,0-1.3-.35H8.17a1.89,1.89,0,0,0-1.53.55l0,0V60.43l.07,0c.1,0,.2.12.3.18A1.65,1.65,0,0,0,7.73,61ZM37.37,35.47v8.32a4.3,4.3,0,0,1,0-8.32Zm-27.08.07v8.18H8.75V35.54Zm8,7.37V36.36a4,4,0,0,1,1.53,3.22A4.05,4.05,0,0,1,18.31,42.91Zm21.3.88v-8.3a4.28,4.28,0,0,1,0,8.3Zm28.6-8.24v8.18H66.69V35.55Zm-9.53.76v6.63a4.09,4.09,0,0,1-1.55-3A4.19,4.19,0,0,1,58.68,36.31Z"/></svg>