<svg id="Layer_1" data-name="Layer 1" xmlns="http://www.w3.org/2000/svg" viewBox="0 0 85.04 85.04"><path d="M77.64,30.17l-.08-.61c-.06-.43-.12-.88-.19-1.32a18.08,18.08,0,0,0-14-14.51,13.79,13.79,0,0,0-1.47-.22l-.7-.09-.2,0-.18,0h-2.4l-.68.1-1.23.18a17.47,17.47,0,0,0-8,3.53,18,18,0,0,0-5.18,6.48,20.35,20.35,0,0,0-4.45-5.58,18.25,18.25,0,0,0-9.83-4.47A19.17,19.17,0,0,0,9.54,23.66a19.64,19.64,0,0,0-2.06,6.81l-.08.76v2.53l.08.63c.07.51.13,1,.21,1.43a19,19,0,0,0,13.83,15A21,21,0,0,0,36.28,73a18.68,18.68,0,0,0,4.28.8l.07,0,.13,0h3l.51-.07,1.19-.16a20.6,20.6,0,0,0,12.65-7,20.39,20.39,0,0,0,4.68-9.66c.09-.5.15-1,.2-1.44v-.09c0-.21,0-.42.07-.63,0,0,0-.1,0-.16l0-.14v-3l-.08-.59c-.05-.37-.1-.74-.16-1.11s-.08-.45-.13-.67A18.05,18.05,0,0,0,77.48,33.86c0-.29.08-.58.11-.86l0-.45ZM72,21.1A15.79,15.79,0,0,1,74.77,26H71.83A26.43,26.43,0,0,1,72,21.1Zm3.19,14.4A7.48,7.48,0,0,1,74,33.86,17.37,17.37,0,0,1,72.05,28h.09l1.52,0,1.67,0A16.18,16.18,0,0,1,75.17,35.5ZM59,61.26a18.62,18.62,0,0,1-10.67,9.39c-.15.06-.16,0-.23,0-.42-.45-.85-.88-1.27-1.32L46.59,69A23.57,23.57,0,0,0,59,61.26ZM42.61,30.11c-.45-.53-.89-1.06-1.33-1.6a.08.08,0,0,1,0-.05c.23-1,.46-2,.7-3a16.56,16.56,0,0,1,1.47,5.67ZM23.92,49.37c0-.16,0-.16.15-.18l1.59-.41.56-.15a23.4,23.4,0,0,0,.55,14.75,18.51,18.51,0,0,1-3-7.77A19,19,0,0,1,23.92,49.37ZM64.15,26.9c-1.27.26-2.4.5-3.54.76l-.09,0-.06-.09a16.16,16.16,0,0,0-7.53-7.14,13.14,13.14,0,0,0-4-1.12A16.28,16.28,0,0,1,54.79,16a.4.4,0,0,1,.34,0,17.15,17.15,0,0,1,6.46,5.18,24.31,24.31,0,0,1,3.27,5.52ZM53.1,43.64a17.1,17.1,0,0,1-2.71,4c-4.91-5.25-11.07-7.81-18.84-7.81-.85,0-1.73,0-2.62.1a21.92,21.92,0,0,1,3.72-3A5.55,5.55,0,0,1,36,36.05a25.71,25.71,0,0,1,8.94,1.64,19.26,19.26,0,0,1,8.16,5.73C53.17,43.52,53.17,43.52,53.1,43.64ZM43,54.18c.07-.18.1-.22.28-.24a14.69,14.69,0,0,0,8.48-4.55,19.37,19.37,0,0,0,4.78-8.57,21,21,0,0,1,2.38,3.48,1.22,1.22,0,0,1,.06,1.2,26,26,0,0,1-7.09,10.26,20.11,20.11,0,0,1-8.7,4.56c-.23,0-.46.1-.72.14l-.08,0,0-.34V60c0-.64-.1-1.25-.1-1.86A11.07,11.07,0,0,1,43,54.18ZM30.72,34.89l-.2.81a22.66,22.66,0,0,0-2.45,2h-.38c-1.61,0-3.21,0-4.79,0h0l-.58-2.31c-.31-1.25-.62-2.5-.92-3.73v0L25.92,28l.53-.43L30,30.4c.49.38,1,.78,1.46,1.18,0,0,0,.06,0,.05ZM40,43.3a19.68,19.68,0,0,1,8.78,5.83l-.19.14c-.34.26-.7.52-1.06.75A11.64,11.64,0,0,1,43,51.77H43c-.18,0-.18,0-.21,0a14.9,14.9,0,0,0-8.88-5.32A18.4,18.4,0,0,0,30,46a17.66,17.66,0,0,0-2.81.23c-.73.12-1.42.26-2.15.41l-.36.07a22.63,22.63,0,0,1,1.7-3.59,1.64,1.64,0,0,1,1.41-.89A25.79,25.79,0,0,1,40,43.3ZM58.57,28.2a44.78,44.78,0,0,0-7.61,3c-.94.47-1.91,1-3,1.67-.67-.18-1.23-.31-1.77-.4l-.76-.11a18.51,18.51,0,0,0-1-6.22l0-.05a2.31,2.31,0,0,1,.1-.28v0a16.33,16.33,0,0,1,2.52-4.43.34.34,0,0,1,.32-.16c4.4.13,7.89,2.17,10.67,6.22.18.25.34.52.49.76Zm-4.49,13A23.49,23.49,0,0,0,41,34.3a18.52,18.52,0,0,1,7.18.89A19,19,0,0,1,54.67,39C54.48,39.7,54.29,40.45,54.08,41.23ZM33,34.23c.18-.74.37-1.48.54-2.2,0,0,0,0,0,0h0c2.23-.75,4.28-1.44,6.27-2.09h0c.61.72,1.22,1.45,1.82,2.18A19.61,19.61,0,0,0,33,34.23Zm6.93-8.89c-.2.85-.4,1.7-.59,2.55a.14.14,0,0,1,0,.06l-.07,0c-2.3.76-4.35,1.44-6.27,2.1-.08,0-.08,0-.14,0l-2.2-1.77-3.06-2.45a.45.45,0,0,1-.08-.17c0-.76,0-1.51,0-2.34V21.56c0-.69,0-1.37,0-2.06v-.05l0,0,2.73-1.09.16-.06,3.1-1.22a.37.37,0,0,1,.21,0,17,17,0,0,1,6.75,5.72.23.23,0,0,1,0,.12ZM26.48,17.68h0C25,17.13,23.62,16.57,22.17,16h0a16.93,16.93,0,0,1,8.57,0Zm-1.05,1.8v3.87c0,.75,0,1.52,0,2.28a.34.34,0,0,1-.08.2c-.93.76-1.87,1.51-2.81,2.26L20.11,30c-.08.07-.09.07-.2,0-2.24-.76-4.26-1.43-6.17-2.06-.13,0-.15-.06-.18-.19-.2-.92-.42-1.83-.63-2.75-.17-.72-.34-1.45-.5-2.17a.33.33,0,0,1,0-.1,16.91,16.91,0,0,1,6.8-5.75h.11l3.05,1.2.35.14,2.69,1.06h0ZM9.54,34.16l1.19-1.43c.79-.94,1.57-1.88,2.35-2.83h0l2.15.71L19.3,32s.08.07.08.09c.52,2,1.06,4.13,1.59,6.3a.49.49,0,0,1,0,.18c-1,1.31-2,2.65-3,4l-.05,0C16,42.28,14,42,12.17,41.66h-.06a16.74,16.74,0,0,1-2.6-7.41v0Zm10.05,9.56c1-1.37,2-2.72,3-4a.36.36,0,0,1,.11,0h3.47a19.47,19.47,0,0,0-4.07,7.93q-1.26-2-2.49-3.9Zm8.72,5.57c.33-1.08.33-1.08,1.45-1.08h0a16.37,16.37,0,0,1,3.79.41c-2.34,7.59-1,15,4.07,22.47A18.54,18.54,0,0,1,32,68.53a.88.88,0,0,1-.24-.21,25.44,25.44,0,0,1-4-10A20,20,0,0,1,28.31,49.29Zm6.39,5.32a18.81,18.81,0,0,1,1-5.34,12.23,12.23,0,0,1,5.17,3.67c.13.15.12.2.07.33a13.23,13.23,0,0,0-1,5.43,17.53,17.53,0,0,0,2.13,7.85,20.64,20.64,0,0,0,3.58,4.8l-.78.13a16.93,16.93,0,0,1-4,.12.38.38,0,0,1-.18-.09A26.71,26.71,0,0,1,36,63.22,22.13,22.13,0,0,1,34.7,54.61Zm19.45,8.31a20,20,0,0,1-8.12,4c-1,.23-1,.23-1.53-.65a15.66,15.66,0,0,1-1.62-3.62C50.56,60.88,56.27,56.09,60.32,48v0c.18.78.37,1.58.47,2.37a29.49,29.49,0,0,1,.15,3V54a1.36,1.36,0,0,1-.18.65A25.17,25.17,0,0,1,54.15,62.92ZM55.88,37.1a20.69,20.69,0,0,0-5.46-3.43,41.77,41.77,0,0,1,6.7-3l1.77-.57.58-.18a18.26,18.26,0,0,1,1.16,3.56A19.74,19.74,0,0,1,61,38.78a21.22,21.22,0,0,1-.56,3.88A21.08,21.08,0,0,0,55.88,37.1Zm14-10.94-3,.31a23.54,23.54,0,0,0-8.77-11.08,15.89,15.89,0,0,1,12.17,3.93l0,0A27.38,27.38,0,0,0,69.89,26.16Zm-4.3,2.44a32,32,0,0,1,1.18,4.3,30.34,30.34,0,0,1,.65,7.78A37,37,0,0,1,67,44.36c-.06.46-.13.92-.19,1.37,0,0,0,0,0,0a15.29,15.29,0,0,1-4.41,1.44c-.19-.67-.42-1.35-.68-2a22.38,22.38,0,0,0-.28-15.77Zm2-.25,2.52-.25c.69,3.89,1.71,7,4.4,9.44A16.86,16.86,0,0,1,69,44.46,34.27,34.27,0,0,0,67.56,28.35Zm-56,.22c-.68.8-1.33,1.57-2.08,2.49a15.81,15.81,0,0,1,1.43-5.63l.42,1.76.27,1.16A.19.19,0,0,1,11.59,28.57Zm3.77,15.64,2.28.37.11,0L19.91,48l.14.21A16,16,0,0,1,13.92,44Z"/></svg>