<svg id="Layer_1" data-name="Layer 1" xmlns="http://www.w3.org/2000/svg" viewBox="0 0 85.04 85.04"><path d="M54,59.24a13,13,0,1,0,4.58-23l-.09,0c-.25.08-.57.16-.75-.32l-1.05-2.78c-.4-1.06-.8-2.11-1.19-3.18a1.2,1.2,0,0,1,.1-1.08,1,1,0,0,1,.8-.45,41.15,41.15,0,0,1,4.17,0,1.44,1.44,0,0,1,1,.48,1.74,1.74,0,0,1,.41,1.24,1.69,1.69,0,0,1-1.58,1.59h-.63a.83.83,0,0,0-.8.82.77.77,0,0,0,.77.83,6.17,6.17,0,0,0,.86,0,3.35,3.35,0,0,0-.13-6.69c-1.32,0-2.66,0-4,0a2.75,2.75,0,0,0-1.93.87,2.66,2.66,0,0,0-.74,1.91A6.54,6.54,0,0,0,54,30.93c.06.23.11.46.16.7l0,.15H41c-1.83,0-3.72,0-5.57,0-.21,0-.63-.15-.7-.38-.25-.91-.47-1.81-.7-2.76l-.24-1,.13,0,.86-.17c.66-.13,1.28-.25,1.91-.39A2,2,0,0,0,38.25,25a1.94,1.94,0,0,0-2-1.81c-2.15,0-5,0-7.83,0a2,2,0,0,0-1.52.71,2.1,2.1,0,0,0-.42,1.72,3.27,3.27,0,0,0,4,2.68l1-.19.63-.12.32,1.27c.44,1.76.88,3.47,1.3,5.2a.68.68,0,0,1-.13.5l-2,2.46-.7.85-.29-.17-.32-.19a12.74,12.74,0,0,0-8.33-2,13,13,0,0,0-11.21,9.49c-.12.43-.22.89-.32,1.32,0,.2-.08.4-.13.6v3l0,0a.85.85,0,0,1,.09.24A13,13,0,0,0,22.67,61.82h.55a13.05,13.05,0,0,0,12.07-8.14l.2-.51.22-.55.13.11a4.5,4.5,0,0,0,2.57,1,.63.63,0,0,1,.5.38c.16.41.28.83.42,1.27.05.16.09.33.14.49l0,.11-.1,0-.13.06-.17.08a.79.79,0,0,0-.47.9.76.76,0,0,0,.75.68c1,0,2.11,0,3.15,0a.85.85,0,0,0,.79-.84.89.89,0,0,0-.3-.65.55.55,0,0,0-.47-.14c-1.32.22-1.55-.75-1.71-1.45a4.16,4.16,0,0,0-.16-.5,5.54,5.54,0,0,1-.17-.58.73.73,0,0,1,.16-.6c1.78-1.76,2-2.88,1.17-5l0-.08L55.27,34.23l1,2.76-.27.15-.32.18a13.11,13.11,0,0,0-6.9,13.1A12.78,12.78,0,0,0,54,59.24ZM33.49,26c-1.14.23-2.29.47-3.44.69a1.39,1.39,0,0,1-.35,0,1.5,1.5,0,0,1-.95-.33,1.7,1.7,0,0,1-.55-1.33V25h8.32l0,.41-.75.16-1.09.23ZM25.58,59.91a11.06,11.06,0,0,1-2.35.26,11.33,11.33,0,0,1-6.78-20.39,11.18,11.18,0,0,1,13.19-.21l.1.08-.08.1-6.87,8.32c-.29.35-.5.65-.31,1.07a1,1,0,0,0,1,.56l6.42.4.19,0,.13,0,.14,0,0,.13a7,7,0,0,1-4.52,5.28,6.89,6.89,0,0,1-7.61-1.54,6.82,6.82,0,0,1-1.9-7.35,7,7,0,0,1,5.83-5,5.67,5.67,0,0,1,1.23-.06h.49c.61,0,1-.31,1-.79a.85.85,0,0,0-.87-.88,8.59,8.59,0,0,0-7.82,3.39,8.93,8.93,0,0,0,5.45,14.31,9,9,0,0,0,10.21-6.53l.21-.83,2.26.12v.12C34.39,54.41,30.2,58.89,25.58,59.91Zm3-16a7.39,7.39,0,0,1,1.92,4.41l0,.15-5.59-.36,3.55-4.3Zm3.6,4.66v-.11a9.1,9.1,0,0,0-2.54-5.89l-.07-.08,1.5-1.82.1.1a11.35,11.35,0,0,1,3.39,7.84v.14ZM36,46.5a13.3,13.3,0,0,0-3.8-7l-.08-.08,2.15-2.61.52,2.08c.38,1.49.74,2.94,1.1,4.39l.09.35c.19.77.39,1.56.57,2.34a1.19,1.19,0,0,1,0,.42l0,.16v.12l-.47,0ZM38.45,52h0a2.19,2.19,0,0,1-1.56-.62,2.16,2.16,0,0,1-.63-1.56,2.22,2.22,0,0,1,.63-1.55,2.17,2.17,0,0,1,1.56-.63h0A2.16,2.16,0,0,1,40,48.3a2.22,2.22,0,0,1,.62,1.58A2.12,2.12,0,0,1,38.45,52Zm2-5.54-.08,0-.29-.12a2.06,2.06,0,0,0-.75-.24c-.92,0-1.13-.58-1.29-1.24-.62-2.59-1.29-5.22-1.93-7.77-.25-1-.5-2-.76-3a2.19,2.19,0,0,1,0-.27.78.78,0,0,0,0-.14l0-.15h18Zm16.37-7.79.12-.06.81,2.09-.08.06-.61.42a10.39,10.39,0,0,0-1.21.92,8.5,8.5,0,0,0-2.65,9.26,8.39,8.39,0,0,0,7.42,6.28,8.84,8.84,0,0,0,7.21-2.28,9.09,9.09,0,0,0,2.82-7.24A9,9,0,0,0,63.27,40a.82.82,0,0,0-1,.61.78.78,0,0,0,.59,1l.61.17a9.32,9.32,0,0,1,1,.33,7.22,7.22,0,0,1,4.32,8.16,7.3,7.3,0,0,1-7.46,5.77A7.26,7.26,0,0,1,57.83,42.7l.23-.13.3-.16.14.32c.06.13.11.25.16.38l.74,2,1.53,4A.8.8,0,0,0,62,49.6a.82.82,0,0,0,.47-1.13c0-.1-.07-.19-.1-.29l-1.24-3.25q-1.16-3-2.3-6c-.07-.17-.12-.33-.18-.5l-.12-.33.12,0a10.67,10.67,0,0,1,7.14.25,11.33,11.33,0,0,1,6.54,14.51A11.3,11.3,0,1,1,56.82,38.69Z"/></svg>