<svg id="Layer_1" data-name="Layer 1" xmlns="http://www.w3.org/2000/svg" viewBox="0 0 85.04 85.04"><path d="M35,27.05c.91-.34,1.76-.64,2.59-1a.66.66,0,0,0,.29-.5,2.17,2.17,0,0,1,.71-1.6,1,1,0,0,0,.26-.67q0-3.66,0-7.32c0-.72.35-1.13,1-1.14s1,.38,1,1.1v7.55h1.93V16c0-.74.4-1.16,1-1.13s.9.42.91,1.12q0,3.63,0,7.26a1.33,1.33,0,0,0,.36.89,2.85,2.85,0,0,1,.58,1.32.74.74,0,0,0,.59.74c.78.25,1.53.58,2.27.87a4,4,0,0,1,.67-1,2.51,2.51,0,0,1,1.29-.55c1.32-.08,2.66,0,4,0a1.87,1.87,0,0,1,1.86,1.84c0,4.58,0,9.15,0,13.73,0,.44-.39.88-.59,1.33a2.14,2.14,0,0,0-.34.82c0,2.19,0,4.39,0,6.59a.9.9,0,0,0,.43.9,1.19,1.19,0,0,1,.56,1.13q0,9,0,18c0,.77-.35,1.19-1,1.18s-.95-.42-.95-1.2c0-5.71,0-11.41,0-17.12a.94.94,0,0,0-.4-.86c-2.44-1.88-4.86-3.79-7.31-5.66a1.58,1.58,0,0,0-.86-.31q-4,0-8,0a1.56,1.56,0,0,0-.87.29c-2.43,1.87-4.84,3.76-7.26,5.63a1.06,1.06,0,0,0-.48,1q0,8.37,0,16.75c0,.22,0,.45,0,.66a.91.91,0,0,1-.92.87,1,1,0,0,1-1-.85,4.87,4.87,0,0,1,0-.54c0-5.85,0-11.7,0-17.54A1.51,1.51,0,0,1,28,50.59a.81.81,0,0,0,.28-.6q0-3.47,0-7a.9.9,0,0,0-.27-.6,2.15,2.15,0,0,1-.69-1.62q0-6.65,0-13.3a1.92,1.92,0,0,1,2-2c1.09,0,2.18,0,3.27,0A2.13,2.13,0,0,1,35,27.05Zm-2,13.89A8.8,8.8,0,0,1,41,31.31a8.37,8.37,0,0,1,5.92,1.6,8.76,8.76,0,0,1,3.62,8h3.83V27.46H50.5c0,.48,0,.92,0,1.36a1,1,0,0,1-1.56.84,13.15,13.15,0,0,0-4.39-1.92,1,1,0,0,1-.82-1.1c0-.38,0-.75,0-1.12H39.86c0,.41,0,.78,0,1.14a1,1,0,0,1-.78,1.07,13.7,13.7,0,0,0-4.45,1.94,1,1,0,0,1-1.55-.87c0-.46,0-.91,0-1.36H29.26v13.5Zm1,4.9c.77-.59,1.41-1.13,2.11-1.6a1.94,1.94,0,0,1,1-.36c3,0,5.93,0,8.89,0a2.35,2.35,0,0,1,1.65.58c.55.47,1.14.9,1.8,1.4,0-1,0-1.91,0-2.79a1,1,0,0,0-.29-.6,2.1,2.1,0,0,1-.68-1.56,10.81,10.81,0,0,0-.1-1.8,6.4,6.4,0,0,0-4.57-5.48,6.48,6.48,0,0,0-7,1.75A6.79,6.79,0,0,0,35,40.65a2.17,2.17,0,0,1-.72,1.84.74.74,0,0,0-.24.5C34.05,43.89,34.06,44.8,34.06,45.84Zm-3.84,2.95c1.9-1.24,1.9-1.24,1.9-3.37V42.93h-1.9Zm21.25-5.87c0,1.42,0,2.78,0,4.15,0,.11,0,.27.08.32.58.48,1.17.94,1.81,1.44V42.92Z"/><path d="M33.09,61.7c0-2.61,0-5.23,0-7.85a1.52,1.52,0,0,1,.5-1.23c.84-.81,1.63-1.68,2.5-2.46a1.82,1.82,0,0,1,1.1-.47q4.62,0,9.24,0a1.75,1.75,0,0,1,1.06.43c.89.82,1.75,1.67,2.56,2.56a1.76,1.76,0,0,1,.44,1.06q0,8,0,16c0,.78-.33,1.19-1,1.2s-1-.41-1-1.18c0-5.1,0-10.2,0-15.29a1.45,1.45,0,0,0-.37-.88,6.74,6.74,0,0,0-2-1.9,7.55,7.55,0,0,0-2.74-.1c-1.86,0-3.71,0-5.56,0A1.54,1.54,0,0,0,37,52a7,7,0,0,0-1.89,2A7.6,7.6,0,0,0,35,56.74q0,6.34,0,12.69c0,.2,0,.41,0,.61a1,1,0,0,1-1.93,0c0-.67,0-1.33,0-2Z"/></svg>