<svg id="Layer_1" data-name="Layer 1" xmlns="http://www.w3.org/2000/svg" viewBox="0 0 85.04 85.04"><path d="M53.82,52.73l-.91,1.35a3.12,3.12,0,0,1,.29.45,3.66,3.66,0,0,1,.3.84c.22,1.57-2.06,3.76-3.61,3.45a6.46,6.46,0,0,1-1.22-.52l-1.3.88a2.24,2.24,0,0,1-1,2.76c1.25,0,2.33,0,3.41,0,.12,0,.25-.18.35-.3a4.79,4.79,0,0,1,6.84-.36,2.25,2.25,0,0,0,3.19,0,4.81,4.81,0,0,1,6.81.35,1.18,1.18,0,0,0,.75.34c1.4,0,2.8,0,4.26,0v1.91H68.13v1.93H72v1.93c-1.27,0-2.55,0-3.82,0a1.79,1.79,0,0,0-1.46.58,4.73,4.73,0,0,1-6.44.22,2.29,2.29,0,0,0-3.42,0,4.76,4.76,0,0,1-6.61-.41,1.12,1.12,0,0,0-.93-.4c-.92,0-1.84,0-2.76,0a1.16,1.16,0,0,0-.72.29,4.79,4.79,0,0,1-6.84.38,2.24,2.24,0,0,0-3.19,0A4.81,4.81,0,0,1,27.86,66a.88.88,0,0,0-.43-.5Q24.73,64.22,22,63a5.83,5.83,0,0,0-1-.24,4.82,4.82,0,0,1-3.71-5.65,2.36,2.36,0,0,0-1.67-3A4.89,4.89,0,0,1,13.9,46a1.13,1.13,0,0,0,.39-.93c0-1.59,0-3.17,0-4.75a1.18,1.18,0,0,0-.31-.71,4.91,4.91,0,0,1,1.69-8.3,2.32,2.32,0,0,0,1.62-2.88,4.83,4.83,0,0,1,4.3-5.87,1.86,1.86,0,0,0,.51-.15c1.75-.78,3.5-1.57,5.26-2.34a.89.89,0,0,0,.57-.67,4.8,4.8,0,0,1,7.72-2.47,2.31,2.31,0,0,0,3.47,0,4.75,4.75,0,0,1,6.56.4,1.12,1.12,0,0,0,1,.43,6.88,6.88,0,0,1,1.2,0,3.67,3.67,0,0,0,3-.94,4.59,4.59,0,0,1,6,.14,2.28,2.28,0,0,0,3.41,0,4.79,4.79,0,0,1,6.62.39,1.19,1.19,0,0,0,1,.42c1.36,0,2.72,0,4.12,0v1.91H68.12v1.91H72v1.95c-1.4,0-2.8,0-4.2,0a1.1,1.1,0,0,0-.88.37,4.74,4.74,0,0,1-6.69.38,2.27,2.27,0,0,0-3.29,0,4.8,4.8,0,0,1-6.76-.38,1.18,1.18,0,0,0-.75-.34c-1,0-1.91,0-2.82,0a5.82,5.82,0,0,1,.83,1.28,5.44,5.44,0,0,1,0,1.52,11.05,11.05,0,0,0,1,.7A.68.68,0,0,0,49,27a2.13,2.13,0,0,1,2.88.33l.6.59c1.26,1.26,1.34,1.94.42,3.46l.83,1.24a7.16,7.16,0,0,1,1.65.12c1.28.4,2.39,3.12,1.8,4.32a2,2,0,0,1-.69.81.6.6,0,0,0-.31.87,2.53,2.53,0,0,1,.08.48.67.67,0,0,0,.68.69,1.94,1.94,0,0,1,1.56,1.94c0,.58,0,1.16,0,1.74a2,2,0,0,1-1.71,2c-.31,0-.48.12-.49.46a1.92,1.92,0,0,1-.11.58.71.71,0,0,0,.36,1,1.94,1.94,0,0,1,.71,2.29,16.12,16.12,0,0,1-.74,1.77C56.08,52.68,55.24,53,53.82,52.73ZM45.6,25.2c-.51-.08-1.05-.33-1.43-.19a4.92,4.92,0,0,1-5.27-.9,2.23,2.23,0,0,0-3.1,0,4.82,4.82,0,0,1-4.81,1,1.06,1.06,0,0,0-.66,0c-1,.5-2.08,1-3.13,1.54a.69.69,0,0,0-.43.74A4.85,4.85,0,0,1,23.59,32a2.3,2.3,0,0,0-1.72,3,4.84,4.84,0,0,1-1.53,4.62,1,1,0,0,0-.28.61c0,1.68,0,3.36,0,5.05a.77.77,0,0,0,.2.51,5.05,5.05,0,0,1,1.6,4.9,2.23,2.23,0,0,0,1.62,2.75A4.8,4.8,0,0,1,26.77,58a.65.65,0,0,0,.44.67c1,.49,2,1,3.07,1.5a1.17,1.17,0,0,0,.78.06,4.74,4.74,0,0,1,4.61.94,2.31,2.31,0,0,0,3.38,0,4.55,4.55,0,0,1,4.72-.87,1.82,1.82,0,0,0,1.76-.22c-.24-1.38,0-2,.95-2.68.18-.12.38-.23.55-.36,1-.85,2.13-1.1,3.25-.12l1.28-1.28c-.81-1.32-.81-1.88,0-3,.1-.15.21-.29.3-.45a2.26,2.26,0,0,1,2.92-1.26c.18-.41.32-.8.51-1.17a.52.52,0,0,0-.22-.79,2,2,0,0,1-.88-2.08c0-.27.12-.54.16-.82.16-1.34.72-2.32,2.24-2.42V42.05c-.67-.44-1.36-.67-1.7-1.16a4.79,4.79,0,0,1-.69-3.09,2.09,2.09,0,0,1,1.26-1.6l-.67-1.69a2.18,2.18,0,0,1-2.77-1,5.39,5.39,0,0,0-.33-.5,2.22,2.22,0,0,1-.12-3.16l-1.27-1.36a2.19,2.19,0,0,1-3.11,0,2.62,2.62,0,0,0-.34-.24A2.3,2.3,0,0,1,45.6,25.2ZM14.28,35.9a3,3,0,0,0,2.58,2.93,2.77,2.77,0,0,0,3-2,4.57,4.57,0,0,0,0-1.88,4.29,4.29,0,0,1,2.55-4.62c.24-.09.5-.16.73-.27a3,3,0,0,0,1.49-3.7,2.84,2.84,0,0,0-3.47-1.8,3,3,0,0,0-2,3.33,6.58,6.58,0,0,1,0,2.3,4,4,0,0,1-2.77,2.9A2.93,2.93,0,0,0,14.28,35.9ZM17.2,46.56A3,3,0,0,0,14.34,50a2.89,2.89,0,0,0,2,2.32,3.93,3.93,0,0,1,2.76,2.92,6.68,6.68,0,0,1,0,2.36,2.89,2.89,0,1,0,5.73.6,3,3,0,0,0-2-3,5.8,5.8,0,0,1-1.51-.82A4.33,4.33,0,0,1,20,49.91,2.89,2.89,0,0,0,17.2,46.56Zm49-26A2.86,2.86,0,0,0,64.56,18a2.74,2.74,0,0,0-3.08.42,4.25,4.25,0,0,1-5.92,0,2.68,2.68,0,0,0-2.86-.5,2.85,2.85,0,0,0-.3,5.21,2.74,2.74,0,0,0,3.09-.29,7.88,7.88,0,0,1,1.5-1,4.09,4.09,0,0,1,4.45.86,2.7,2.7,0,0,0,3.12.46A2.87,2.87,0,0,0,66.23,20.58Zm-21.17,0A2.85,2.85,0,0,0,43.38,18a2.8,2.8,0,0,0-3,.38,6.32,6.32,0,0,1-1.62,1,4.11,4.11,0,0,1-4.29-.92A2.76,2.76,0,0,0,31,18.15a2.86,2.86,0,1,0,3.39,4.58,4.21,4.21,0,0,1,5.86,0,2.71,2.71,0,0,0,3.13.44A2.82,2.82,0,0,0,45.06,20.57ZM66.23,64.84a2.86,2.86,0,0,0-1.66-2.59,2.6,2.6,0,0,0-3.07.42,4.3,4.3,0,0,1-6,0,2.56,2.56,0,0,0-2.85-.49,2.8,2.8,0,0,0-1.85,2.51,2.87,2.87,0,0,0,1.56,2.7,2.79,2.79,0,0,0,3.1-.3,7.51,7.51,0,0,1,1.49-1,4.07,4.07,0,0,1,4.45.87,2.7,2.7,0,0,0,3.12.45A2.86,2.86,0,0,0,66.23,64.84Zm-28.87,1A4.36,4.36,0,0,1,40.3,67a2.78,2.78,0,0,0,3.39.28,2.86,2.86,0,1,0-3.38-4.58,4.22,4.22,0,0,1-5.9,0A2.79,2.79,0,0,0,31,62.41,2.86,2.86,0,1,0,34.44,67,4.4,4.4,0,0,1,37.36,65.79Zm-21.13-25v3.92h1.85V40.75ZM24.77,23.3,26.3,25l2.52-1.27-1-1.83Zm4.05,38.36L26.3,60.4l-1.53,1.73,3.08,1.36ZM48.93,21.52V19.65H47v1.87ZM47,65.75h2V63.92H47Z"/><path d="M29.67,42.69a7.7,7.7,0,1,1,7.63,7.72A7.67,7.67,0,0,1,29.67,42.69Zm7.67,5.79a5.77,5.77,0,1,0-5.74-5.81A5.82,5.82,0,0,0,37.34,48.48Z"/><path d="M37.33,27.2c1.23.18,2.39.29,3.52.52a2.88,2.88,0,1,1-1.2,5.64,10.72,10.72,0,0,0-4.58,0,2.88,2.88,0,0,1-3.42-2.18,2.81,2.81,0,0,1,2-3.4C34.89,27.5,36.15,27.39,37.33,27.2Zm-3.81,3.29a1,1,0,0,0,1.19,1,29.76,29.76,0,0,1,3-.26,19.24,19.24,0,0,1,2.38.26.94.94,0,1,0,.35-1.84,13.34,13.34,0,0,0-6.06,0A1,1,0,0,0,33.52,30.49Z"/><path d="M21.86,42.79c.18-1.25.28-2.42.52-3.57A2.89,2.89,0,1,1,28,40.44,10.52,10.52,0,0,0,28,45a2.89,2.89,0,0,1-2.19,3.42,2.82,2.82,0,0,1-3.39-2C22.16,45.2,22,44,21.86,42.79Zm2-.08c.15,1,.28,2,.44,3a1,1,0,0,0,1.11.86,1,1,0,0,0,.73-1.19,12.74,12.74,0,0,1,0-5.29.94.94,0,0,0-.74-1.18,1,1,0,0,0-1.09.81C24.1,40.69,24,41.7,23.82,42.71Z"/><path d="M37.41,58.22c-1.23-.18-2.38-.29-3.51-.51a2.89,2.89,0,1,1,1.23-5.65,10.44,10.44,0,0,0,4.52,0,2.87,2.87,0,0,1,3.42,2.16,2.81,2.81,0,0,1-2,3.43C39.82,57.92,38.58,58,37.41,58.22Zm-.07-2c1-.15,2.06-.27,3.08-.45A.93.93,0,1,0,40.05,54a12.74,12.74,0,0,1-5.36,0,.94.94,0,0,0-1.16.77,1,1,0,0,0,.83,1.07C35.34,56,36.33,56.1,37.34,56.25Z"/><path d="M52.87,42.66c-.17,1.23-.29,2.38-.51,3.52A2.89,2.89,0,1,1,46.72,45a10.6,10.6,0,0,0,0-4.52A2.87,2.87,0,0,1,48.86,37a2.81,2.81,0,0,1,3.43,2C52.57,40.25,52.69,41.49,52.87,42.66Zm-2,.06c-.15-1-.27-2.07-.45-3.09a.94.94,0,0,0-1.07-.75A.93.93,0,0,0,48.62,40a13.15,13.15,0,0,1,0,5.41.92.92,0,0,0,.73,1.13.94.94,0,0,0,1.1-.78C50.63,44.75,50.76,43.74,50.9,42.72Z"/><path d="M17.74,35.79a1,1,0,0,1-1,1,1,1,0,0,1-1-1,1,1,0,0,1,.91-1A1,1,0,0,1,17.74,35.79Z"/><path d="M21.58,26.5a1,1,0,0,1,1,1,1,1,0,0,1-1,.93,1,1,0,0,1-.95-1A1,1,0,0,1,21.58,26.5Z"/><path d="M22.56,58a1,1,0,0,1-1,1,1,1,0,0,1-.92-1,1,1,0,0,1,1-.94A1,1,0,0,1,22.56,58Z"/><path d="M17.74,49.6a1,1,0,0,1-.94,1,1,1,0,0,1-1-1,1,1,0,0,1,.93-1A1,1,0,0,1,17.74,49.6Z"/><path d="M62.38,20.54a.93.93,0,0,1,1-.92,1,1,0,0,1,.95,1,1,1,0,0,1-1.92-.09Z"/><path d="M54.68,20.56a.94.94,0,0,1-1,1,.93.93,0,0,1-1-.93,1,1,0,1,1,1.92-.05Z"/><path d="M42.15,21.54a1,1,0,1,1,1-.9A.93.93,0,0,1,42.15,21.54Z"/><path d="M33.52,20.57a1,1,0,0,1-.92,1,1,1,0,1,1,0-1.92A.94.94,0,0,1,33.52,20.57Z"/><path d="M53.72,65.8a.94.94,0,0,1-1-.93,1,1,0,1,1,1.92,0A1,1,0,0,1,53.72,65.8Z"/><path d="M64.3,64.81a1,1,0,0,1-1,1,.93.93,0,0,1-.95-.94.92.92,0,0,1,1-1A.94.94,0,0,1,64.3,64.81Z"/><path d="M32.55,65.8a.94.94,0,0,1-.95-1,.92.92,0,0,1,1-.92,1,1,0,1,1,0,1.92Z"/><path d="M43.14,64.84a1,1,0,1,1-.93-1A.93.93,0,0,1,43.14,64.84Z"/><path d="M37.39,38.86a3.85,3.85,0,1,1-3.87,3.82A3.82,3.82,0,0,1,37.39,38.86Zm0,5.77a1.92,1.92,0,1,0-1.94-1.9A2,2,0,0,0,37.38,44.63Z"/></svg>