<svg id="Layer_1" data-name="Layer 1" xmlns="http://www.w3.org/2000/svg" viewBox="0 0 85.04 85.04"><defs><style>.cls-1{fill:#fff;}</style></defs><path d="M15.84,43.17c.14-.91.26-1.82.42-2.73a25.6,25.6,0,0,1,4.06-10,1,1,0,1,1,1.75,1.11A26,26,0,0,0,19.3,37a25.1,25.1,0,0,0-1.4,8.23c0,1.18,0,2.35,0,3.58l2.69-.13c3-.16,6-.37,9.07-.47a14.29,14.29,0,0,0,9-3.05c.94-.78,1.76-1.68,2.68-2.47A7.78,7.78,0,0,1,48,40.87c2.44.46,4.86,1.05,7.29,1.61a7.6,7.6,0,0,0,7.37-2c1.09-1,2.14-2.12,3.2-3.19,0,0,.08-.1.07-.24l-.43.19c-.94.43-1.86.92-2.84,1.27a6.14,6.14,0,0,1-1.91.29c-2.05,0-4.1,0-6.15,0a2.05,2.05,0,0,1-2-1.41,2,2,0,0,1,1-2.32l9.48-6,.58-.37a3.39,3.39,0,0,1-2-2.82H57.41a3.9,3.9,0,0,1-.91-.09A2.28,2.28,0,0,1,54.75,24a2.25,2.25,0,0,1,.87-2.45c1-.76,2.07-1.46,3.11-2.18a1.33,1.33,0,0,0,.41-.41l-.29.05c-2,.64-4,1.29-6.05,1.89a5.1,5.1,0,0,1-1.47.16c-3.4,0-6.8,0-10.2,0a23.06,23.06,0,0,0-12.64,4.06c-.36.24-.7.5-1.06.73a1,1,0,1,1-1.17-1.69c1.19-.79,2.38-1.6,3.64-2.28a23.32,23.32,0,0,1,7.87-2.6,37.7,37.7,0,0,1,4.5-.34c3,0,6,0,9.08,0a5.81,5.81,0,0,0,1.7-.27c1.81-.55,3.6-1.15,5.41-1.72a2,2,0,0,1,2.85,1.64,3,3,0,0,1-.39,1.54,3.71,3.71,0,0,0-.31,3.05c.25.7.59.82,1.25.45a5.33,5.33,0,0,1,.63-.32A1.16,1.16,0,0,1,64,24.94c0,.1-.1.18-.14.27a1.09,1.09,0,0,0,.47,1.57c.54.3,1.09.57,1.65.83a1.25,1.25,0,0,1,.78,1.26c0,1,0,2,0,3a2.5,2.5,0,0,0,.69,1.91A3.61,3.61,0,0,1,67.12,39c-3.05,2.91-5.59,6.28-8.39,9.42-.2.23-.39.47-.6.7a1.07,1.07,0,0,1-1.54.2,1,1,0,0,1,0-1.55c.59-.71,1.2-1.41,1.81-2.11l.78-.92c-1.07,0-2.13,0-3.19,0-.12,0-.26.13-.35.23L45.88,56.69a.6.6,0,0,0-.11.48c.24.73.53,1.45.8,2.17.8-.93,1.67-1.93,2.53-2.94L51.17,54a1,1,0,0,1,1.13-.4,1.32,1.32,0,0,1,.71.76,1.48,1.48,0,0,1-.33,1c-1.66,2-3.35,3.93-5,5.88-.71.81-1.44,1.6-2.15,2.4a.59.59,0,0,0-.09.37c0,.62,0,1.24,0,1.85A3.28,3.28,0,0,1,43,69.21c-.09,0-.17.08-.26.12H41.5c-.11,0-.22-.1-.32-.13A3.25,3.25,0,0,1,38.83,66c0-.53,0-1.06,0-1.59s0-.76-.36-1a1,1,0,0,1-.24-.6c-.11-.72-.19-1.45-.3-2.18a4.85,4.85,0,0,1,1-4A.85.85,0,0,0,39,56.1q0-4.05,0-8.1c0-.14,0-.29,0-.5a4.67,4.67,0,0,1-.56.34c-1.14.54-2.26,1.13-3.43,1.59a20.65,20.65,0,0,1-6.4.91c-3.74.21-7.48.39-11.21.61a1.52,1.52,0,0,1-1.57-.7ZM45.23,43V54.21l8.29-10L48.21,43A6.52,6.52,0,0,0,45.23,43Zm20.4-8.11c-1.11-1.29-1-2.79-1-4.34L54.85,36.7c2,.09,4,.1,6,.07a3.94,3.94,0,0,0,1.44-.29C63.41,36,64.46,35.45,65.63,34.88ZM43.1,55.21V43.83c-.62.59-1.14,1.11-1.68,1.6a1,1,0,0,0-.33.8c0,2.84,0,5.67,0,8.51v.47Zm1,6.51c.09-.77.23-1.51.25-2.25a2.22,2.22,0,0,0-2.19-2.24,2.17,2.17,0,0,0-2.2,2.21c0,.75.14,1.51.21,2.28Zm-3.24,2.09c0,.88,0,1.73.14,2.57a1.16,1.16,0,0,0,2.26,0c.09-.83.09-1.68.13-2.54ZM58.27,22.23c-.46.32-.9.6-1.31.92a.52.52,0,0,0-.15.43.49.49,0,0,0,.38.27c.46,0,.93,0,1.4,0Z"/><path d="M29.92,33.21H28.13a1.68,1.68,0,0,1-1.63-1,1.64,1.64,0,0,1,.29-1.86,16.67,16.67,0,0,1,3.42-3.07,18.88,18.88,0,0,1,7.91-2.86c2.07-.32,4.13-.71,6.2-1.07a1.12,1.12,0,0,1,1.33.58,1.07,1.07,0,0,1-.55,1.38Q39,29.09,32.82,32.87a2.91,2.91,0,0,1-1.21.33A15.86,15.86,0,0,1,29.92,33.21Zm-1.08-2.05c.86,0,1.61,0,2.36,0a1.86,1.86,0,0,0,.86-.25c2.28-1.39,4.56-2.81,6.83-4.22l.53-.34C35.29,26.76,31.71,28,28.84,31.16Z"/><path d="M42.62,33.62a2,2,0,0,1,1.88,1.27,1.79,1.79,0,0,1-.35,2.18c-1.64,1.41-3.15,3-5.33,3.7-3.06,1-6,2.2-9.07,3.32a1.62,1.62,0,0,1-2.25-1,1.71,1.71,0,0,1,.55-1.85,26.61,26.61,0,0,1,9.42-6.2c1.53-.57,3.13-.95,4.69-1.41A1.8,1.8,0,0,1,42.62,33.62Zm-11.43,7.7.47-.15c1.73-.64,3.44-1.3,5.18-1.9a10.83,10.83,0,0,0,4.51-2.49,7.68,7.68,0,0,1,.82-.69,2.21,2.21,0,0,1,.34-.18l-.14-.16A24.14,24.14,0,0,0,31.19,41.32Z"/><path d="M46.17,32.39c-.73,0-1.31,0-1.89,0a1.68,1.68,0,0,1-1.56-1.27,1.6,1.6,0,0,1,.5-1.86c2.1-1.64,4.36-2.89,7.14-2.81.63,0,1.26,0,1.89,0a1.85,1.85,0,0,1,1.86,1.26,1.81,1.81,0,0,1-.69,2.09C51.23,31.45,48.89,32.67,46.17,32.39Zm-.82-2.09c2.36.27,5.22-.58,6.09-1.77A8.16,8.16,0,0,0,45.35,30.3Z"/><path d="M19.73,42.68a8.06,8.06,0,0,1,2.44-4.82,13,13,0,0,1,4.73-2.57,1.6,1.6,0,0,1,1.84,2.41c-1.25,1.71-2.5,3.42-3.84,5a4.76,4.76,0,0,1-3.6,1.61A1.5,1.5,0,0,1,19.73,42.68ZM25.93,38a5.86,5.86,0,0,0-4,4.08,2.36,2.36,0,0,0,1.55-.91C24.34,40.17,25.13,39.1,25.93,38Z"/><path d="M24.19,26.34a1,1,0,0,1,1,1,1.2,1.2,0,0,1-1.13,1.16,1.07,1.07,0,0,1-1-1A1.19,1.19,0,0,1,24.19,26.34Z"/><path d="M54.72,50.45a1,1,0,0,1,1,1,1.13,1.13,0,0,1-1.1,1.06,1.07,1.07,0,0,1-1-1A1.11,1.11,0,0,1,54.72,50.45Z"/><path class="cls-1" d="M44.08,61.72H40.15c-.07-.77-.19-1.53-.21-2.28a2.17,2.17,0,0,1,2.2-2.21,2.22,2.22,0,0,1,2.19,2.24C44.31,60.21,44.17,61,44.08,61.72Z"/><path class="cls-1" d="M40.84,63.81h2.53c0,.86,0,1.71-.13,2.54a1.16,1.16,0,0,1-2.26,0C40.88,65.54,40.88,64.69,40.84,63.81Z"/></svg>