<svg id="Layer_1" data-name="Layer 1" xmlns="http://www.w3.org/2000/svg" viewBox="0 0 85.04 85.04"><path d="M12.67,26.45c.17-.72.3-1.45.53-2.16A11.37,11.37,0,0,1,24,16.4a48.17,48.17,0,0,1,14.87,2.5,49.39,49.39,0,0,0,14.93,2.23c3,0,6.07,0,9.1,0A10.36,10.36,0,0,1,73.06,30a7.83,7.83,0,0,1,.07,2.05,2.77,2.77,0,0,1-2.81,2.3c-2.76,0-5.51,0-8.27,0a1.18,1.18,0,0,0-1.09.59C59,37.79,57,40.6,55.1,43.45A6.73,6.73,0,0,1,49,46.66c-.69,0-1.37,0-2.11,0l.82,5q1,5.9,2,11.8c.13.81.26,1.62.41,2.44a2.84,2.84,0,0,1-2.82,3.45c-1.88,0-3.75,0-5.62,0a2.86,2.86,0,0,1-2.83-2.63,1,1,0,0,1,.78-1.09,1,1,0,0,1,1.1.75c.28,1,.43,1.08,1.44,1.08H47c1,0,1.33-.4,1.17-1.35L45.56,50.59c-.22-1.3-.43-2.59-.64-3.93H40.05c-.59,0-1.18,0-1.77,0a.95.95,0,1,1,0-1.89c3.59,0,7.17,0,10.76,0a4.88,4.88,0,0,0,4.31-2.22l5.38-7.76.23-.37c-.93,0-1.81,0-2.68,0a58.45,58.45,0,0,0-19.46,4.33A35.57,35.57,0,0,1,23.79,41a11.4,11.4,0,0,1-10.88-9l-.24-1.08Zm3-3c-.06.13-.17.31-.25.51a13.16,13.16,0,0,0-.56,7.77,9.34,9.34,0,0,0,8,7.28A28.28,28.28,0,0,0,30,38.57a43.27,43.27,0,0,0,8.63-2.5,53.62,53.62,0,0,1,18.48-3.58c2.21,0,4.42,0,6.62,0h6.32c.79,0,1.25-.37,1.2-1.06-.08-.9-.26-1.8-.4-2.72H54.68a3.84,3.84,0,0,1-.59,0,.9.9,0,0,1-.76-1,.87.87,0,0,1,.78-.89,3.13,3.13,0,0,1,.53,0H69.81c-.14-.21-.2-.31-.27-.4A8.4,8.4,0,0,0,62.71,23c-3.16,0-6.31,0-9.46,0a48.83,48.83,0,0,1-14.7-2.22,48.21,48.21,0,0,0-14.28-2.5,9.41,9.41,0,0,0-7.21,3.08c-.1.11-.17.24-.26.36l.16.15A22.66,22.66,0,0,0,31.24,26.8c6.28,0,12.57,0,18.85,0a3.11,3.11,0,0,1,.53,0,.91.91,0,0,1,.81.93.93.93,0,0,1-.81.94,2.77,2.77,0,0,1-.41,0c-6.54,0-13.08,0-19.62,0A23.06,23.06,0,0,1,19.89,26C18.43,25.24,17.06,24.31,15.63,23.44Z"/><path d="M12.67,54.7A23.77,23.77,0,0,1,13.31,52c1.87-5.14,5.49-8.25,10.94-9A13.23,13.23,0,1,1,12.91,58.67l-.24-1.14Zm13.26-9.93A11.35,11.35,0,1,0,37.25,56.16,11.41,11.41,0,0,0,25.93,44.77Z"/><path d="M32.35,53.6c-.77.8-1.4,1.53-2.1,2.18a2.84,2.84,0,0,1-4.74-1.22,2.77,2.77,0,0,1,.74-2.83c.67-.67,1.34-1.32,2.1-2.06a5.54,5.54,0,0,0-3.31.11,5.6,5.6,0,0,0-3.55,6.88A1.43,1.43,0,0,1,21,58.34c-.68.62-1.31,1.3-2,1.95a1,1,0,1,1-1.35-1.36c.51-.52,1.05-1,1.53-1.55a1,1,0,0,0,.24-.71,7.52,7.52,0,0,1,6.06-9,7.15,7.15,0,0,1,4.8.7,1,1,0,0,1,.28,1.68C29.7,51,28.74,52,27.8,52.9c-.57.57-.64,1.12-.2,1.54s1,.34,1.54-.24c.9-.9,1.8-1.81,2.71-2.71.74-.73,1.42-.63,1.85.31a7.32,7.32,0,0,1-.59,7.61,7,7,0,0,1-6.91,3.18,2.19,2.19,0,0,0-2.27.85,6.7,6.7,0,0,1-1,1,1,1,0,0,1-1.37,0,.91.91,0,0,1,0-1.32c.78-.81,1.58-1.6,2.38-2.39a1.12,1.12,0,0,1,1.26-.16,5.61,5.61,0,0,0,7.08-3.9A5.89,5.89,0,0,0,32.35,53.6Z"/></svg>