<svg id="Layer_1" data-name="Layer 1" xmlns="http://www.w3.org/2000/svg" viewBox="0 0 85.04 85.04"><path d="M45.76,60.4H40.14V71.61H38.25V60.38H31.56a4.76,4.76,0,0,1-4.92-4.61c-.25-3.24-.54-6.47-.81-9.7-.21-2.57-.41-5.14-.62-7.71,0-.15,0-.3-.06-.44a2,2,0,0,1-1.92-2.28c0-.51,0-1,0-1.53a1.84,1.84,0,0,1,1.89-1.88h7.5c-.1-.19-.15-.33-.23-.45A18.68,18.68,0,0,1,30.5,26c-.3-1.39-.62-2.78-.92-4.17a.94.94,0,0,0-.92-.82c-.55,0-1.09,0-1.63,0a2,2,0,0,1-2.27,1.87H23.47A1.94,1.94,0,0,1,21.3,21H16.69a2.89,2.89,0,0,1-2.84-2.4A2.83,2.83,0,0,1,16,15.4a4.67,4.67,0,0,1,1-.06h4.26a2,2,0,0,1,2.34-1.89c.42,0,.86,0,1.29,0A1.94,1.94,0,0,1,27,15.38a16.56,16.56,0,0,1,2.54,0,6.51,6.51,0,0,1,5.62,5.5c.44,2,.88,4.08,1.36,6.11a6.53,6.53,0,0,0,12.84-.23c.46-2.11.92-4.22,1.41-6.33a6.46,6.46,0,0,1,6.49-5.11h1.36a5.25,5.25,0,0,1,1-1.47,3.89,3.89,0,0,1,1.59-.4,7.47,7.47,0,0,1,1.06,0,2,2,0,0,1,2.27,1.88h4.62A2.87,2.87,0,0,1,72,17.76a2.83,2.83,0,0,1-2.2,3.15,6.35,6.35,0,0,1-1.16.06H64.73a8.34,8.34,0,0,1-.93,1.44c-.68.67-3.54.66-4.22,0A8.36,8.36,0,0,1,58.64,21c-.33,0-.86,0-1.38,0a1,1,0,0,0-1,.83c-.45,2-.93,4.07-1.36,6.11a13.34,13.34,0,0,1-1.71,4.29l.61,0h6.8a1.85,1.85,0,0,1,2,2v1.41c0,1.41-.5,2-1.93,2.28l-.3,3.36c-.22,2.69-.45,5.37-.67,8.06-.17,2.08-.39,4.16-.49,6.25a4.85,4.85,0,0,1-5,4.81c-2-.09-4,0-5.92,0h-.68V71.6H45.76ZM57.83,49.16H28c.19,2.22.34,4.4.57,6.57a2.82,2.82,0,0,0,3.18,2.78H47.12c2.4,0,4.81,0,7.21,0a2.8,2.8,0,0,0,2.93-2.6c.12-1.11.21-2.22.31-3.33S57.74,50.33,57.83,49.16Zm2.9-15H25.15V36H60.73ZM58.85,17.22c-.65,0-1.25,0-1.85,0a4.63,4.63,0,0,0-4.35,3.62c-.29,1.21-.54,2.43-.82,3.65l-.63,2.85a8.68,8.68,0,0,1-2.93,4.88c.84,0,1.51,0,2.19,0a1,1,0,0,0,.61-.31,9.32,9.32,0,0,0,1.83-3.75c.53-2.28,1-4.56,1.53-6.84a2.77,2.77,0,0,1,2.78-2.23h1.64ZM27,19.09h1.59a2.76,2.76,0,0,1,2.84,2.29c.4,1.76.81,3.53,1.18,5.3a11.71,11.71,0,0,0,2.14,5.19c.11.14.27.33.42.34.75,0,1.51,0,2.26,0l.12-.18a1.05,1.05,0,0,1-.32-.15,8.18,8.18,0,0,1-2.5-4.27c-.49-2.12-1-4.25-1.42-6.39-.65-3.12-3.14-4.43-6.31-3.94Zm9.32,22.5V37.91H32.64v3.68Zm1.94,0H42V37.9H38.26Zm5.63,0h3.69V37.9H43.89Zm9.34-3.67h-3.7v3.67h3.7ZM32.65,43.52V47.2h3.68V43.52Zm5.63,0v3.71H42V43.51Zm9.29,3.72V43.52H43.9v3.71Zm5.64,0V43.54H49.53v3.68ZM27.38,41.58h3.31V37.9H27.08Zm31.4-3.67H55.17v3.68h3.3ZM27.54,43.52l.32,3.68h2.83V43.52Zm27.61,3.69H58l.31-3.68H55.15ZM25.06,20.94V15.38H23.25v5.56Zm37.53,0V15.38H60.78v5.56Zm1.94-1.85c1.52,0,3,0,4.4,0,.73,0,1.18-.36,1.2-.92s-.48-1-1.18-1H64.53Zm-43.2-1.87c-1.58,0-3.1,0-4.61,0a1,1,0,0,0-1,.89.93.93,0,0,0,.92.95c1.55,0,3.1,0,4.68,0Z"/><path d="M43,51h6.39a1.84,1.84,0,0,1,2,2c0,.59,0,1.18,0,1.76a1.83,1.83,0,0,1-1.89,1.88H36.41a1.83,1.83,0,0,1-1.92-1.91c0-.62,0-1.25,0-1.87A1.84,1.84,0,0,1,36.35,51Zm6.5,1.92H36.41v1.8H49.47Z"/></svg>