<svg id="Layer_1" data-name="Layer 1" xmlns="http://www.w3.org/2000/svg" viewBox="0 0 85.04 85.04"><defs><style>.cls-1{fill:#fff;}</style></defs><path d="M17.32,29.51A1.3,1.3,0,0,1,18.48,29c1.42,0,2.83,0,4.3,0V23.86c0-.75.31-1,1.06-1.05H29V18.26a.8.8,0,0,1,.83-.9c.47,0,.75.32.79.88v4.53h4.8V18.24a.79.79,0,0,1,.79-.88.76.76,0,0,1,.8.86c0,1.33,0,2.67,0,4v.56h4.82V18.44c0-.74.25-1.08.78-1.08s.8.33.8,1.1c0,1.27,0,2.54,0,3.81v.51h4.83v-.54c0-1.31,0-2.63,0-3.95,0-.6.28-.93.77-.93s.82.33.82.95v4.47h4.77c0-.17,0-.34,0-.51V18.21c0-.55.34-.86.82-.85a.79.79,0,0,1,.79.88c0,1.3,0,2.6,0,3.9v.67h5.09c.85,0,1.12.28,1.13,1.13V29H67c.58,0,.93.31.93.8s-.32.81-.91.81c-1.3,0-2.6,0-3.9,0h-.61v4.8H67c.62,0,1,.31,1,.82S67.61,37,67,37H62.53v4.83H67c.63,0,1,.29,1,.8s-.34.78-1,.78H62.53v4.84h4.55a.76.76,0,0,1,.86.79.79.79,0,0,1-.87.8H62.51v4.8h.54c1.29,0,2.57,0,3.86,0a1.4,1.4,0,0,1,.86.34.91.91,0,0,1,.09.77.75.75,0,0,1-.82.5H62.49v5.11c0,.82-.29,1.1-1.1,1.11H56.27v.54c0,1.25,0,2.5,0,3.76a1.3,1.3,0,0,1-.5,1.15h-.59a1.07,1.07,0,0,1-.55-1.07c0-.69,0-1.38,0-2.07V62.55h-4.8c0,1.47,0,2.9,0,4.33a1.2,1.2,0,0,1-.5,1.09h-.6a1,1,0,0,1-.51-1c0-.77,0-1.54,0-2.32V62.56H43.42c0,1.47,0,2.9,0,4.33a1.11,1.11,0,0,1-.5,1.08h-.59a1,1,0,0,1-.5-1c0-.64,0-1.29,0-1.93V62.56H37c0,1.48,0,2.9,0,4.33A1.09,1.09,0,0,1,36.5,68h-.59a1.15,1.15,0,0,1-.5-1.09c0-1,0-2,0-3V62.54h-4.8v.56c0,1.27,0,2.53,0,3.8A1.07,1.07,0,0,1,30.08,68h-.59a1.28,1.28,0,0,1-.5-1.15c0-1.26,0-2.51,0-3.76v-.54H23.84c-.76,0-1.05-.3-1.06-1V56.3c-1.47,0-2.88,0-4.3,0a1.32,1.32,0,0,1-1.16-.5v-.59a1.1,1.1,0,0,1,1.08-.55c.66,0,1.31,0,2,0h2.38v-4.8c-1.47,0-2.9,0-4.33,0a1.22,1.22,0,0,1-1.1-.5v-.6a1,1,0,0,1,1-.51c.77,0,1.54,0,2.32,0h2.06V43.45c-1.47,0-2.9,0-4.33,0a1.14,1.14,0,0,1-1.09-.5v-.59a1.05,1.05,0,0,1,1-.5c.63,0,1.25,0,1.88,0h2.5V37c-1.49,0-2.94,0-4.38,0a1.07,1.07,0,0,1-1-.52v-.59a1.17,1.17,0,0,1,1.1-.5c1,0,2,0,3,0h1.37v-4.8H22.2c-1.27,0-2.53,0-3.8,0a1.11,1.11,0,0,1-1.08-.55Zm43.51-5H24.46V60.85H60.83Z"/><path class="cls-1" d="M17.32,55.81a1.32,1.32,0,0,0,1.16.5c1.42,0,2.83,0,4.3,0v5.16c0,.75.3,1,1.06,1H29v.54c0,1.25,0,2.5,0,3.76a1.28,1.28,0,0,0,.5,1.15H17.32Z"/><path class="cls-1" d="M17.32,36.53a1.07,1.07,0,0,0,1,.52c1.44,0,2.89,0,4.38,0v4.83h-2.5c-.63,0-1.25,0-1.88,0a1.05,1.05,0,0,0-1,.5Z"/><path class="cls-1" d="M17.32,43a1.14,1.14,0,0,0,1.09.5c1.43,0,2.86,0,4.33,0v4.84H20.68c-.78,0-1.55,0-2.32,0a1,1,0,0,0-1,.51Z"/><path class="cls-1" d="M36.5,68A1.09,1.09,0,0,0,37,66.89c0-1.43,0-2.85,0-4.33h4.82V65c0,.64,0,1.29,0,1.93a1,1,0,0,0,.5,1Z"/><path class="cls-1" d="M42.93,68a1.11,1.11,0,0,0,.5-1.08c0-1.43,0-2.86,0-4.33h4.83v2.06c0,.78,0,1.55,0,2.32a1,1,0,0,0,.51,1Z"/><path class="cls-1" d="M17.32,30.11a1.11,1.11,0,0,0,1.08.55c1.27,0,2.53,0,3.8,0h.56v4.8H21.39c-1,0-2,0-3,0a1.17,1.17,0,0,0-1.1.5Z"/><path class="cls-1" d="M17.32,49.39a1.22,1.22,0,0,0,1.1.5c1.43,0,2.86,0,4.33,0v4.8H20.37c-.66,0-1.31,0-2,0a1.1,1.1,0,0,0-1.08.55Z"/><path class="cls-1" d="M30.08,68a1.07,1.07,0,0,0,.54-1.07c0-1.27,0-2.53,0-3.8v-.56h4.8v1.32c0,1,0,2,0,3a1.15,1.15,0,0,0,.5,1.09Z"/><path class="cls-1" d="M49.36,68a1.2,1.2,0,0,0,.5-1.09c0-1.43,0-2.86,0-4.33h4.8v2.28c0,.69,0,1.38,0,2.07A1.07,1.07,0,0,0,55.19,68Z"/><path d="M27.47,42.67V28.73c0-1,.19-1.23,1.25-1.23H56.54c1.08,0,1.26.18,1.26,1.27V56.55a4.87,4.87,0,0,1,0,.54.74.74,0,0,1-.74.72,4,4,0,0,1-.49,0H28.33a.79.79,0,0,1-.85-.87c0-.16,0-.33,0-.49Zm1.65-13.54V56.18h27v-27Z"/><path d="M31.27,42.8c0-.76,0-1.52,0-2.27a2.09,2.09,0,0,1,2.08-2.12c1,0,1.95,0,2.92,0a2,2,0,0,1,2,1.73,6.29,6.29,0,0,1,.05,1.37.8.8,0,0,1-1.6,0c0-.32,0-.65,0-1a.5.5,0,0,0-.56-.55H33.46a.55.55,0,0,0-.59.6c0,1.46,0,2.93,0,4.39a.53.53,0,0,0,.59.58q1.34,0,2.67,0c.41,0,.6-.21.59-.62a8.62,8.62,0,0,1,0-.88.79.79,0,0,1,.83-.8.81.81,0,0,1,.78.81,7.11,7.11,0,0,1,0,1.13,2.14,2.14,0,0,1-2.15,2q-1.38,0-2.76,0a2.15,2.15,0,0,1-2.17-2.26Z"/><path d="M40.7,44.63c0,.59,0,1.09,0,1.6s-.33.94-.8,1-.81-.39-.81-1c0-1.94,0-3.88,0-5.83a1.9,1.9,0,0,1,2-2c1.07,0,2.14,0,3.21,0a1.89,1.89,0,0,1,1.92,1.91q0,1.18,0,2.37a2,2,0,0,1-2,1.94Zm0-1.62h3.46c.3,0,.4-.18.4-.45V40.44a.39.39,0,0,0-.45-.45h-3c-.28,0-.45.11-.45.39C40.7,41.23,40.71,42.08,40.71,43Z"/><path d="M54,42.05v2.77a2,2,0,0,1-1.87,2.1,23.55,23.55,0,0,1-3.36,0,2,2,0,0,1-1.86-2c0-1.95,0-3.89,0-5.83a.82.82,0,1,1,1.62,0c0,1.81,0,3.63,0,5.44,0,.76.06.82.82.82h2.32c.59,0,.73-.15.73-.73,0-1.82,0-3.63,0-5.44a1.22,1.22,0,0,1,.27-.79.88.88,0,0,1,.79-.14A1.08,1.08,0,0,1,54,39C54,40,54,41,54,42.05Z"/></svg>