<svg id="Layer_1" data-name="Layer 1" xmlns="http://www.w3.org/2000/svg" viewBox="0 0 85.04 85.04"><path d="M13.74,22.63a1.52,1.52,0,0,1,1.55-.79c1,0,2,0,3,0a3.37,3.37,0,0,1,3.32,3.25c0,.39,0,.78,0,1.26H66.59a4.56,4.56,0,0,1,4.67,3.25A4.94,4.94,0,0,1,71.45,31q0,11.25,0,22.49a4.49,4.49,0,0,1-4,4.57l-.57.1a10.14,10.14,0,0,1,0,1.56,3.4,3.4,0,0,1-3.47,2.92H50.13c-3.32,0-6.65,0-10,0a3.53,3.53,0,0,1-3.78-3.78c0-.22,0-.45,0-.76H31.92c0,.56,0,1.1-.12,1.63a3.35,3.35,0,0,1-3.09,2.87,8,8,0,0,1-2-.06,3.36,3.36,0,0,1-2.84-3.35c0-.34,0-.67,0-1.09H21.66v.63c0,1.24,0,2.48,0,3.72a1.16,1.16,0,0,1-1.11,1.3,1.2,1.2,0,0,1-1.16-1.31c0-2,0-4,0-5.92v-.69H17.56a3.45,3.45,0,0,1-3.73-2.6s-.06,0-.09-.07V48.34a.57.57,0,0,0,.1-.13,3.4,3.4,0,0,1,3.51-2.58h2V40c-.79,0-1.54,0-2.28,0a3.21,3.21,0,0,1-2.68-1.41,11,11,0,0,1-.65-1.28V32.44s.08,0,.09-.06a3.45,3.45,0,0,1,3.72-2.6h1.84c0-1.45,0-2.83,0-4.22,0-1-.37-1.41-1.42-1.42-.88,0-1.76,0-2.64,0a1.62,1.62,0,0,1-1.58-.72Zm8,33.15.58,0h44.4a2.29,2.29,0,0,0,2.54-2.55c0-7.35,0-14.69,0-22a2.43,2.43,0,0,0-2.56-2.55q-22.17,0-44.35,0l-.62,0Zm43,2.38h-26v.77c0,1,.37,1.41,1.38,1.41h23.5a1.1,1.1,0,0,0,1.13-1.09A9.84,9.84,0,0,0,64.67,58.16ZM19.35,32.08H17.19A1.08,1.08,0,0,0,16,33.23c0,1.11,0,2.22,0,3.32a1.08,1.08,0,0,0,1,1.14c.75.05,1.52,0,2.31,0Zm0,15.83c-.78,0-1.49,0-2.2,0A1.11,1.11,0,0,0,16,49.06c0,1.12,0,2.25,0,3.38a1,1,0,0,0,.83,1.05,23.48,23.48,0,0,0,2.52,0Zm6.83,10.24c.09.76-.23,1.56.58,2a3.32,3.32,0,0,0,2.39-.1c.64-.56.33-1.27.4-1.94Z"/><path d="M34.11,52.44A10.2,10.2,0,1,1,44.29,42.23,10.24,10.24,0,0,1,34.11,52.44ZM31.88,42.2a2.22,2.22,0,0,0,2.19,2.3A2.26,2.26,0,0,0,34.16,40,2.23,2.23,0,0,0,31.88,42.2Zm-4.12-4.66a7.4,7.4,0,0,0-1.45,3.55h3.38L30.16,40ZM26.31,43.4a7.4,7.4,0,0,0,1.43,3.53l2.41-2.42-.46-1.11Zm6.66-9a7.65,7.65,0,0,0-3.59,1.47c.71.7,1.4,1.36,2.05,2.05.28.3.51.39.85.14s.65-.3.66-.47C33,36.59,33,35.54,33,34.44Zm0,15.61c0-1,0-1.82,0-2.68,0-.52-.08-.88-.64-.95-.24,0-.57-.17-.68-.07-.78.71-1.5,1.46-2.28,2.23A7.69,7.69,0,0,0,33,50.05ZM40.44,37.5l-1.91,1.94a1.19,1.19,0,0,0,0,1.59.38.38,0,0,0,.25.09h3.18A7.81,7.81,0,0,0,40.44,37.5Zm-5.18-3c0,1.06,0,2.07,0,3.08,0,.31,1,.85,1.26.64.77-.74,1.53-1.51,2.29-2.28A6.76,6.76,0,0,0,35.26,34.48Zm3.63,14.06c-.63-.6-1.22-1.14-1.79-1.7s-.71-.71-1.58-.28a.44.44,0,0,0-.24.31c0,1.05,0,2.09,0,3.18A7.5,7.5,0,0,0,38.89,48.54Zm3-5.16c-1,0-2.1,0-3.14,0-.31,0-.81,1.08-.6,1.3.73.76,1.49,1.5,2.24,2.26A6.84,6.84,0,0,0,41.91,43.38Z"/><path d="M56.74,32.05a10.2,10.2,0,1,1-10.19,10.1A10.19,10.19,0,0,1,56.74,32.05ZM59,42.23a2.24,2.24,0,1,0-2.22,2.27A2.23,2.23,0,0,0,59,42.23Zm4.07-4.73A16.4,16.4,0,0,1,61.57,39c-.74.58-1,1.18-.45,2l.07.09h3.38A7.61,7.61,0,0,0,63.06,37.5Zm-2.34,7,2.4,2.42a7.56,7.56,0,0,0,1.45-3.54c-1.08,0-2.12,0-3.17,0a.41.41,0,0,0-.31.22A9.36,9.36,0,0,0,60.72,44.5Zm-10.3-7a7.81,7.81,0,0,0-1.48,3.6h3.4a7,7,0,0,0,.33-.85.66.66,0,0,0-.07-.52C51.91,39,51.19,38.27,50.42,37.49Zm0,9.51a15.6,15.6,0,0,1,1.5-1.53c.75-.58,1-1.18.44-2a.21.21,0,0,0-.08-.06H48.93A7.74,7.74,0,0,0,50.44,47Zm5.15-12.57A7.67,7.67,0,0,0,52,35.94c.63.6,1.21,1.15,1.78,1.72s.68.68,1.52.28a.52.52,0,0,0,.29-.39C55.6,36.54,55.59,35.53,55.59,34.43Zm5.92,1.49a7.57,7.57,0,0,0-3.6-1.47v2.43c0,1,0,1,.92,1.32a.48.48,0,0,0,.42-.07C60,37.42,60.72,36.7,61.51,35.92Zm0,12.65c-.78-.77-1.5-1.5-2.24-2.21-.42-.4-.69.17-1,.2-.11,0-.28.29-.28.44,0,.92,0,1.84,0,2.76a1,1,0,0,0,.09.29A7.76,7.76,0,0,0,61.49,48.57Zm-5.9,1.49c0-1.12,0-2.14,0-3.17,0-.29-1.05-.8-1.25-.6-.78.74-1.53,1.52-2.31,2.3A7.79,7.79,0,0,0,55.59,50.06Z"/><path d="M26.22,52.45a1.15,1.15,0,1,1-2.3,0,1.22,1.22,0,0,1,1.14-1.12A1.2,1.2,0,0,1,26.22,52.45Z"/><path d="M26.19,32.06A1.17,1.17,0,0,1,25,33.21,1.21,1.21,0,0,1,23.91,32,1.17,1.17,0,0,1,25,30.92,1.14,1.14,0,0,1,26.19,32.06Z"/><path d="M64.69,32.08a1.12,1.12,0,0,1,1.11-1.16,1.14,1.14,0,0,1,1.14,1.15,1.16,1.16,0,0,1-1.1,1.13A1.12,1.12,0,0,1,64.69,32.08Z"/><path d="M64.69,52.35a1.13,1.13,0,0,1,1.15-1.06,1.17,1.17,0,0,1,1.1,1.19,1.13,1.13,0,0,1-1.2,1.08A1.1,1.1,0,0,1,64.69,52.35Z"/></svg>