<svg id="Layer_1" data-name="Layer 1" xmlns="http://www.w3.org/2000/svg" viewBox="0 0 85.04 85.04"><defs><style>.cls-1{fill:#1d1e1b;}</style></defs><path class="cls-1" d="M73.61,33.68q0-4.66,0-9.31v-.51c0-.4,0-.83,0-1.25a4.24,4.24,0,0,0-3.84-4c-2,0-3.23,0-4.51,0h-.15l-2.62,0a1.14,1.14,0,0,0-1.18,1.15,1.19,1.19,0,0,0,1.12,1.27H63l2.9,0,2.95,0c1.6,0,2.31.7,2.31,2.29V56.63c0,.12,0,.25,0,.38H14V47.85c0-8,0-16.26,0-24.38a2.59,2.59,0,0,1,.66-1.9,2.35,2.35,0,0,1,1.8-.57l1.69.05h.29c1.49.05,2.54.09,4.39.09h.08a1.42,1.42,0,0,0,1.06-.39,1.2,1.2,0,0,0,.3-.92c0-.71-.54-1.13-1.37-1.13-1.38,0-2.37,0-3.33-.06h-.15c-1,0-2-.07-3.33-.06a4.29,4.29,0,0,0-4.5,4.54V60.18a4.31,4.31,0,0,0,4.57,4.54H29.21l-.24.41-.46.8-.31.53c-.55.93-1.11,1.89-1.65,2.84A1.7,1.7,0,0,0,28.09,72h29a1.83,1.83,0,0,0,1.64-.84,1.86,1.86,0,0,0-.1-1.87c-.54-.94-1.09-1.87-1.64-2.81L56.11,65c0-.08-.09-.17-.14-.27h4.28c2.87,0,5.84,0,8.75,0h.09a4.49,4.49,0,0,0,3.18-1.29,4.64,4.64,0,0,0,1.37-3.36C73.6,51.25,73.61,42.32,73.61,33.68ZM70.92,61.27a1.71,1.71,0,0,1-1.62,1H56c-12.92,0-26.27,0-39.46,0a2.58,2.58,0,0,1-2.07-.75,2.51,2.51,0,0,1-.44-2H71.25l-.06.39A5.91,5.91,0,0,1,70.92,61.27ZM31.25,66a2.62,2.62,0,0,1,.83-1.21,3,3,0,0,1,1.55-.12h.1l.65,0H52.65a.64.64,0,0,1,.71.42c.63,1.12,1.26,2.2,1.93,3.35l.6,1H29.28l.59-1,1-1.76C31,66.5,31.14,66.25,31.25,66Z"/><path class="cls-1" d="M46,19h0a1.32,1.32,0,0,0-1-.43c-1.56,0-3.15,0-4.71,0A1.19,1.19,0,0,0,39,19.79a5.42,5.42,0,0,0,0,.57c0,.21,0,.42,0,.63a.49.49,0,0,1-.11.25c-.75.31-1.53.61-2.28.9l-.6.23-.12-.14,0,0c-.2-.22-.43-.47-.67-.7a1.23,1.23,0,0,0-1.89,0c-1,1-2.08,2.07-3.2,3.2a1.25,1.25,0,0,0,0,1.89,9.91,9.91,0,0,0,.79.71l.16.14c-.07.15-.15.29-.22.43l0,0a4.26,4.26,0,0,0-.52,1.26c-.23,1.11-.75,1.47-1.8,1.3a1.06,1.06,0,0,0-.87.22,1.35,1.35,0,0,0-.43,1c0,1.48,0,3.05,0,4.65a1.22,1.22,0,0,0,1.18,1.28,3.41,3.41,0,0,0,.91,0,.72.72,0,0,1,.51,0,.73.73,0,0,1,.22.5,2.8,2.8,0,0,0,.46,1.16c.62.9.53,1.52-.34,2.13a1.09,1.09,0,0,0-.47.79,1.29,1.29,0,0,0,.39,1c1.12,1.14,2.24,2.27,3.34,3.33a1.18,1.18,0,0,0,1.74,0c.13-.11.26-.24.39-.37l0,0c.15-.15.3-.3.45-.43a.6.6,0,0,1,.24-.09c.73.3,1.44.61,2.19.94l.61.27v.23c0,.33,0,.67,0,1a1.27,1.27,0,0,0,1.35,1.34h4.53a1.28,1.28,0,0,0,1.35-1.33c0-.33,0-.66,0-1v-.28l.43-.14a5.24,5.24,0,0,0,1.24-.52,1.81,1.81,0,0,1,1.31-.39,1.42,1.42,0,0,1,.82.71.55.55,0,0,0,.1.11,1.21,1.21,0,0,0,1.74,0c1.11-1.08,2.23-2.2,3.33-3.34a1.23,1.23,0,0,0,0-1.79l-.32-.32a4.16,4.16,0,0,1-.46-.48.52.52,0,0,1-.06-.36,5.56,5.56,0,0,1,.27-.55,3.3,3.3,0,0,0,.38-.92,1.68,1.68,0,0,1,.59-1.13,1.42,1.42,0,0,1,1.11-.1,1.15,1.15,0,0,0,.41,0,1.21,1.21,0,0,0,1-1.18c0-1.79,0-3.3,0-4.77a1.19,1.19,0,0,0-1.2-1.22,3.22,3.22,0,0,0-.76,0,.84.84,0,0,1-.65-.08.7.7,0,0,1-.22-.51,2.82,2.82,0,0,0-.46-1.17,1.27,1.27,0,0,1,.34-2.08,1.14,1.14,0,0,0,.48-.82,1.42,1.42,0,0,0-.46-1.08c-1.13-1.15-2.18-2.2-3.2-3.21a1.24,1.24,0,0,0-1.89,0c-.26.25-.5.52-.72.75l-.17.19L49,22.36l-.56-.28L48.23,22a2.24,2.24,0,0,0-.66-.27c-1.2-.24-1.6-.76-1.4-1.85A1,1,0,0,0,46,19ZM36.6,25a11.23,11.23,0,0,1,3.84-1.59,1.21,1.21,0,0,0,1-1.24c0-.3,0-.61,0-.93V21h2.29v.12c0,.29,0,.56,0,.84a1.33,1.33,0,0,0,1.11,1.42c1.37.5,2.54,1,3.58,1.47h0c.81.38,1.22.47,1.93-.26a6.87,6.87,0,0,0,.52-.57l0,0,1.69,1.68-.09.08-.67.63A1.2,1.2,0,0,0,51.64,28a11.29,11.29,0,0,1,1.59,3.84,1.17,1.17,0,0,0,1.24,1h1.1v2.29h-1a1.37,1.37,0,0,0-1.42,1.12c-.53,1.43-1,2.57-1.48,3.58-.4.84-.47,1.23.29,2a6.37,6.37,0,0,0,.54.46L50.82,44h0c-.15-.19-.33-.43-.54-.65a1.21,1.21,0,0,0-1.76-.21,11.35,11.35,0,0,1-3.68,1.52A1.28,1.28,0,0,0,43.73,46c0,.24,0,.49,0,.75V47H41.44v-.86c0-.93-.3-1.19-1.16-1.51-1.15-.42-2.34-.92-3.62-1.51a1.31,1.31,0,0,0-1.79.25c-.18.18-.35.37-.56.61l-.14.15L34,44a8.93,8.93,0,0,0-.65-.73,7.82,7.82,0,0,0-.73-.65l-.21-.18.18-.14c.28-.22.5-.39.7-.58A1.21,1.21,0,0,0,33.52,40,11.21,11.21,0,0,1,32,36.21a1.28,1.28,0,0,0-1.32-1.05h-1V32.86h1.09a1.22,1.22,0,0,0,1.26-1,11.08,11.08,0,0,1,1.57-3.79,1.21,1.21,0,0,0-.21-1.67c-.21-.2-.43-.39-.66-.58l-.08-.07L34.3,24l.06.07c.17.2.36.42.56.63A1.24,1.24,0,0,0,36.6,25ZM34.46,24h0Zm1.27-1.74Z"/><path class="cls-1" d="M49.35,16.38l.16.06.08,0A18.94,18.94,0,0,1,60.94,38.54a17.19,17.19,0,0,1-1.4,3.82,4.68,4.68,0,0,0-.08-.54,1.22,1.22,0,0,0-1.32-1.07,1.18,1.18,0,0,0-.84.42,1.22,1.22,0,0,0-.26.94c.15,1.45.31,2.74.48,4a1.39,1.39,0,0,0,.54,1,1.16,1.16,0,0,0,.66.18,2.1,2.1,0,0,0,.48-.06c1.28-.31,2.55-.65,3.73-1a1.26,1.26,0,0,0,1-1.46,1.24,1.24,0,0,0-1.55-.93l-.92.22.1-.2A21.36,21.36,0,0,0,56,17.41a20.42,20.42,0,0,0-5.73-3.31,1.23,1.23,0,1,0-.93,2.28Z"/><path class="cls-1" d="M29,44.13a1.2,1.2,0,0,0,0-.93,1.31,1.31,0,0,0-.74-.74c-1.32-.58-2.52-1.08-3.66-1.55a1.33,1.33,0,0,0-1.07,0,1.3,1.3,0,0,0-.64.82c-.36,1.21-.7,2.46-1.06,3.83A1.32,1.32,0,0,0,22,46.61a1.22,1.22,0,0,0,.78.56,1.27,1.27,0,0,0,1.47-1c.08-.28.16-.55.24-.86l0,0A21.35,21.35,0,0,0,52.15,53.1a25.24,25.24,0,0,0,3.05-1.92l.73-.49a1.32,1.32,0,0,0,.6-.9,1.21,1.21,0,0,0-.27-.93,1.26,1.26,0,0,0-1.84-.1l-.14.11-.1.08a18.89,18.89,0,0,1-25-1.59,25.6,25.6,0,0,1-1.92-2.23l-.51-.63.55.22A1.26,1.26,0,0,0,29,44.13Z"/><path class="cls-1" d="M21.45,37.12c.12.85.58,1.36,1.24,1.36h.09a1.19,1.19,0,0,0,.84-.41,1.49,1.49,0,0,0,.26-1.19,18,18,0,0,1,.17-6.51c1.79-7.72,6.57-12.67,14.22-14.73a17.53,17.53,0,0,1,2.51-.42l.59-.08-.49.4a1.22,1.22,0,0,0,1.5,1.92c1.16-.85,2.22-1.65,3.23-2.44a1.2,1.2,0,0,0,.13-1.89c-.88-.92-1.8-1.84-2.81-2.84a1.2,1.2,0,0,0-1.74-.07,1.21,1.21,0,0,0-.41.88,1.43,1.43,0,0,0,.42.92c.22.22.46.43.69.63l-.5,0c-.64.06-1.3.12-1.94.21A20.76,20.76,0,0,0,26,20.63,20.93,20.93,0,0,0,21.45,37.12Z"/><path class="cls-1" d="M36.52,40.16a8.59,8.59,0,0,0,6.07,2.48h.06A8.6,8.6,0,0,0,51.21,34a8.66,8.66,0,0,0-2.61-6.14,8.49,8.49,0,0,0-6-2.47h-.08A8.65,8.65,0,0,0,34,34.06,8.54,8.54,0,0,0,36.52,40.16Zm-.09-6.08a6.16,6.16,0,1,1,10.5,4.31,6.07,6.07,0,0,1-4.34,1.81A6.16,6.16,0,0,1,36.43,34.08Z"/></svg>