<svg id="Layer_1" data-name="Layer 1" xmlns="http://www.w3.org/2000/svg" viewBox="0 0 85.04 85.04"><path d="M75.46,27.55a3.72,3.72,0,0,0-.08-.86,3.8,3.8,0,0,0-3.75-3H69.74V22.15c0-1.33,0-2.62,0-3.92A3,3,0,0,0,66.6,15.1h-2a3,3,0,0,0-3.19,3.13c0,.76,0,1.52,0,2.28v3.16h-3V18.1a3,3,0,0,0-2.94-3H53.05a3,3,0,0,0-3,3c0,1,0,2.08,0,3.11v2.43h-3v-2c0-1.13,0-2.26,0-3.39a3,3,0,0,0-3.17-3.15H42.07a3,3,0,0,0-3.34,3.3c0,.93,0,1.86,0,2.79v2c0,.14,0,.29,0,.43v0H35.76v-2c0-1.18,0-2.36,0-3.54a3,3,0,0,0-2.89-3c-1,0-1.81,0-2.61,0a2.94,2.94,0,0,0-2.85,2.95v5.6h-3v-.52c0-.52,0-1,0-1.56,0-1.12,0-2.25,0-3.38a3,3,0,0,0-3.15-3.1h-2a3,3,0,0,0-3.24,3.22c0,1.14,0,2.27,0,3.41v2h-.52c-.48,0-.94,0-1.4,0a3.59,3.59,0,0,0-3,1.47,5.64,5.64,0,0,0-.57,1.05c-.07.16-.15.32-.23.47l0,30.94v.06a4.14,4.14,0,0,0,4.65,3,7.6,7.6,0,0,1,.83,0h.24V62.8c0,1.15,0,2.29,0,3.44a3,3,0,0,0,3.12,3.1h2a3,3,0,0,0,3.27-3.24c0-1.13,0-2.27,0-3.41V60.78h3v5.54a3,3,0,0,0,3,3c.76,0,1.52,0,2.28,0a3,3,0,0,0,3.09-3.12c0-1.18,0-2.35,0-3.53V60.77h3v2c0,1.13,0,2.31,0,3.46a3,3,0,0,0,3.16,3.11h1.89a3,3,0,0,0,3.3-3.29c0-1.08,0-2.17,0-3.25v-2h3v1.59c0,1.33,0,2.64,0,3.95a3,3,0,0,0,2.87,3l1.31,0,1.3,0a3,3,0,0,0,2.87-3V60.77h3v.51c0,.52,0,1,0,1.56,0,1.19,0,2.42,0,3.63a2.89,2.89,0,0,0,2.92,2.86c.6,0,1.2,0,1.8,0h.42a3,3,0,0,0,3.19-3.21q0-1.69,0-3.39v-2h.52c.5,0,1,0,1.44,0a3.76,3.76,0,0,0,3.76-3.85Q75.47,42.21,75.46,27.55Zm-8,34.68c0,1.36,0,2.69,0,4,0,.55-.27.79-.84.8-.73,0-1.47,0-2.2,0-.33,0-.72-.1-.73-.54,0-1.42,0-2.87,0-4.28V60.77h3.78Zm-14.4,4.82a.66.66,0,0,1-.73-.7c0-1.37,0-2.74,0-4.14V60.76h3.79v5.46c0,.6-.24.83-.85.83C54.45,67.06,53.77,67.07,53.07,67.05Zm-8.26-3.42c0,.82,0,1.65,0,2.48s-.22.94-.94.94H41.79c-.34,0-.76-.11-.77-.65,0-1.39,0-2.75,0-4.19V60.76h3.8ZM33.48,62.25c0,1.37,0,2.72,0,4.06a.67.67,0,0,1-.7.74c-.68,0-1.42,0-2.38,0-.21,0-.69-.08-.69-.6,0-1.42,0-2.85,0-4.29V60.77h3.78ZM22.15,61.19V66c0,.91-.16,1.07-1,1.08h-2c-.53,0-.79-.25-.8-.71,0-1.38,0-2.72,0-4.14V60.76h3.78v0C22.13,60.93,22.15,61.06,22.15,61.19Zm-3.82-39.9c0-.94,0-1.88,0-2.82s.2-1.09,1.06-1.09h2c.47,0,.71.23.72.64,0,1.39,0,2.78,0,4.19v1.47H18.34Zm11.36,1c0-1.42,0-2.83,0-4.23a.61.61,0,0,1,.66-.64c.82,0,1.64,0,2.44,0a.64.64,0,0,1,.68.69c0,1.39,0,2.78,0,4.18v1.4H29.7ZM41,18.39c0-.82.19-1,1-1h2.07a.65.65,0,0,1,.72.65c0,1.39,0,2.78,0,4.2v1.45H41V18.39Zm14.14-1h.2c.34,0,.75.11.76.59,0,1.41,0,2.79,0,4.25v1.46H52.33V20.27q0-1,0-2.07c0-.56.25-.81.81-.82Zm8.52,1c0-.78.2-1,1-1h2c.55,0,.81.25.81.76,0,1.35,0,2.7,0,4.08v1.46H63.7a1.43,1.43,0,0,1,0-.29C63.66,21.71,63.66,20,63.66,18.35Zm9.53,9.23V56.85a1.5,1.5,0,0,1-1.58,1.6H14.12a1.5,1.5,0,0,1-1.5-1.57V27.55A1.48,1.48,0,0,1,14.17,26l.67,0H71.61A1.51,1.51,0,0,1,73.19,27.58Z"/><path d="M66.24,43.18h0c-.69,0-1.14.54-1.14,1.38v4.81c0,.94,0,1-1,1H21.49c-.65,0-.77-.12-.77-.77v-5c0-.83-.45-1.38-1.13-1.39h0a1.07,1.07,0,0,0-.75.29,1.48,1.48,0,0,0-.38,1.08c0,1.75,0,3.5,0,5.25a2.6,2.6,0,0,0,.07.67,2.81,2.81,0,0,0,3,2.14h43a2.74,2.74,0,0,0,2.78-2.88c0-1.73,0-3.45,0-5.18a1.52,1.52,0,0,0-.3-1A1,1,0,0,0,66.24,43.18Z"/><path d="M67.37,34.87A4,4,0,0,0,67.3,34a2.78,2.78,0,0,0-3-2.15H21.42a2.75,2.75,0,0,0-3,3v4.56c0,.86.4,1.37,1.1,1.4h0a1,1,0,0,0,.75-.29,1.51,1.51,0,0,0,.39-1.11v-4.3c0-1,0-1,1-1H64.25c.74,0,.84.09.84.83v4.42a1.56,1.56,0,0,0,.39,1.13,1,1,0,0,0,.78.29c.68,0,1.11-.54,1.11-1.39,0-1.48,0-2.95,0-4.43Z"/><path d="M50,38.17c-.46,0-.62.14-.69.59-.23,1.52-.52,3-.81,4.71a3.72,3.72,0,0,1-.17-.54c-.18-1.12-.37-2.24-.53-3.37-.2-1.4-.19-1.38-1.63-1.4-.56,0-.67.21-.67.7q0,3.54,0,7.08c0,.5.13.72.68.71s.62-.24.62-.7c0-1.55,0-3.1,0-4.65.38,1.51.66,3,.89,4.57.09.58.32.8.94.79s.6-.55.67-.93c.26-1.39.47-2.79.7-4.19.12,1.4.12,2.79.13,4.17,0,.46-.12.94.65.94s.66-.51.66-1q0-3,0-6.07C51.46,37.92,51.66,38.21,50,38.17Z"/><path d="M37.53,42.28c.88-.65.79-1.63.66-2.55a1.68,1.68,0,0,0-1.56-1.43,14.81,14.81,0,0,0-2-.12c-.89,0-1,0-1,.91v6.62c0,.83.11.93.9.93s.85-.13.85-.91v-3l.21,0c.07.22.14.43.19.65.22.87.43,1.75.65,2.62.15.59.68.83,1.36.6s.4-.59.27-1c-.27-.84-.52-1.69-.81-2.52C37.18,42.76,37.16,42.54,37.53,42.28Zm-2-.63V39.46c.81,0,1,.19,1,1S36.28,41.65,35.49,41.65Z"/><path d="M41,45.82a1.55,1.55,0,0,0,.08-.36c0-.5.21-.63.69-.63s.58.28.62.66a4.62,4.62,0,0,0,.15.74c.11.39.67.56,1.3.4.42-.11.4-.4.32-.75-.51-2.31-1-4.62-1.49-7-.11-.59-.32-.89-.95-.74-.6-.14-.81.16-.93.71-.48,2.36-1,4.72-1.5,7.08a.72.72,0,0,0,.25.61A1,1,0,0,0,41,45.82Zm.65-4.49.14,0c.12.78.23,1.55.36,2.38h-.81C41.46,42.89,41.57,42.11,41.67,41.33Z"/></svg>