<svg id="Layer_1" data-name="Layer 1" xmlns="http://www.w3.org/2000/svg" viewBox="0 0 85.04 85.04"><path d="M63.28,54.24c.42,0,.77,0,1.13,0,.71,0,1,.31,1,1v2.42A3.3,3.3,0,0,1,62.18,61H22.92a3.17,3.17,0,0,1-3.39-2.59,18.26,18.26,0,0,1-.08-3.47c0-.44.42-.64.86-.66s.78,0,1.24,0v-.7c0-8.55,0-17.1,0-25.66A2.64,2.64,0,0,1,24.37,25q18.09.06,36.18,0a2.6,2.6,0,0,1,2.74,2.73c0,8.59,0,17.17,0,25.76Zm-1.66,0V27.71c0-.72-.21-.94-.94-1-.15,0-.31,0-.46,0H24.61c-.16,0-.31,0-.46,0-.73,0-.94.26-.94,1V54.24H33.7a5.43,5.43,0,0,1,.57,0,.8.8,0,0,1,.75.82c.09,1,.28,1.15,1.24,1.15H48.57a3.46,3.46,0,0,0,.46,0,.83.83,0,0,0,.77-.82c.09-1,.26-1.15,1.27-1.15H61.62ZM21.06,55.93V57.2c0,1.52.58,2.1,2.11,2.1H61.65c.21,0,.41,0,.62,0a1.58,1.58,0,0,0,1.47-1.46c.06-.6,0-1.22,0-1.83a1,1,0,0,0-.17,0H51.73a.62.62,0,0,0-.41.32A2.44,2.44,0,0,1,49,57.88q-6.55,0-13.13,0a2.3,2.3,0,0,1-2.27-1.53.6.6,0,0,0-.68-.43H21.06Z"/><path d="M48,40.5V36.35c0-.8.29-1.11,1.07-1.11,1.23,0,2.47,0,3.68.09a2.73,2.73,0,0,1,2.42,2.74c0,1.61,0,3.21,0,4.82a2.79,2.79,0,0,1-2.55,2.79c-1.26.08-2.52,0-3.79,0-.55,0-.82-.35-.83-1Zm1.69,3.55h2.51a1.19,1.19,0,0,0,1.31-1.26c0-1.54,0-3.08,0-4.62A1.11,1.11,0,0,0,52.6,37c-1-.06-2,0-3,0Z"/><path d="M40.48,39.63h3.84c0-.19,0-.37,0-.55,0-1,0-1.92,0-2.87,0-.6.35-1,.84-1a.86.86,0,0,1,.82.94v8.62a.83.83,0,0,1-.83.91.82.82,0,0,1-.82-.91c0-1.12,0-2.25,0-3.42H40.48v1.37c0,.73,0,1.47,0,2.2a.74.74,0,0,1-.76.75.83.83,0,0,1-.88-.7,1.33,1.33,0,0,1,0-.2V36.19a.86.86,0,0,1,.86-.94.81.81,0,0,1,.78.8c0,1,0,2,0,3Z"/><path d="M31.32,39.65H35c.88,0,1.25.25,1.25.85s-.38.84-1.26.84H31.51l-.19,0v.47c0,1,0,1.95,0,2.92a.84.84,0,0,1-.84.95.82.82,0,0,1-.81-.92q0-3.81,0-7.6a1.89,1.89,0,0,1,1.94-2c1.42,0,2.84,0,4.26,0a.86.86,0,0,1,1,.85.87.87,0,0,1-1,.83c-1.33,0-2.66,0-4,0-.39,0-.55.11-.53.53C31.34,38.17,31.32,38.88,31.32,39.65Z"/></svg>