<svg id="Layer_1" data-name="Layer 1" xmlns="http://www.w3.org/2000/svg" viewBox="0 0 85.04 85.04"><defs><style>.cls-1{fill:#1d1e1b;}</style></defs><path class="cls-1" d="M76,59.88a1.79,1.79,0,0,0-1.44-.45H49.35a1.78,1.78,0,0,0-.46,0,1.16,1.16,0,0,0-1,1.15,1.14,1.14,0,0,0,1,1.22,5.49,5.49,0,0,0,.81,0H73.54l-.05.07a4.29,4.29,0,0,1-.29.42,3,3,0,0,1-2.52.93H14.91a7.44,7.44,0,0,1-1.14-.08,2.23,2.23,0,0,1-1.67-1.33H35.92a5.11,5.11,0,0,0,.93-.06,1.08,1.08,0,0,0,.9-1A1.07,1.07,0,0,0,37,59.56a3,3,0,0,0-.94-.13q-12.57,0-25.12,0h0a1.84,1.84,0,0,0-1.63.71l0,0v1.39c1.08,3.69,3.84,4.17,6.14,4.17h0c13.82,0,27.86,0,41.44,0h14.4a5.08,5.08,0,0,0,4.9-4.33A1.81,1.81,0,0,0,76,59.88Z"/><path class="cls-1" d="M13.67,58.51h0a1.14,1.14,0,0,0,1.17-1,4,4,0,0,0,.05-.77v0c0-2.3,0-4.6,0-6.9,0-6.78,0-13.79,0-20.69a3.3,3.3,0,0,1,.87-2.35,3.25,3.25,0,0,1,2.35-.86h0c15.89,0,32.48,0,49.33,0h0a3,3,0,0,1,3.2,3.22c-.05,6.79,0,13.7,0,20.38v7.3a3.76,3.76,0,0,0,0,.58,1.23,1.23,0,0,0,1.16,1.13h0a1.26,1.26,0,0,0,1.2-1.13,3.17,3.17,0,0,0,0-.43V53.56q0-12.29,0-24.57a6.66,6.66,0,0,0-.2-1.65,5.1,5.1,0,0,0-5.09-3.84h-32c-5.79,0-11.78,0-17.67,0H18.1a5.63,5.63,0,0,0-4,1.6,5.45,5.45,0,0,0-1.57,4c0,6.56,0,13.24,0,19.69l0,8v.1a2.82,2.82,0,0,0,0,.58A1.18,1.18,0,0,0,13.67,58.51Z"/><path class="cls-1" d="M21.86,30.52a1.22,1.22,0,1,0,0-2.44h-4a1.3,1.3,0,0,0-1.43,1.45c0,1.31,0,2.71,0,4.29a1.28,1.28,0,0,0,1.18,1.41,1.11,1.11,0,0,0,.82-.3,1.52,1.52,0,0,0,.44-1.1c0-.4,0-.8,0-1.25v-.33h0c.13.12.22.2.31.3l.8.79c1.07,1.07,2.14,2.13,3.2,3.21a1.46,1.46,0,0,0,1,.51,1.11,1.11,0,0,0,.42-.08,1.17,1.17,0,0,0,.76-.83,1.36,1.36,0,0,0-.43-1.26c-.88-.89-1.76-1.77-2.65-2.65l-1.48-1.49c-.07-.07-.13-.15-.21-.24h.25C21.18,30.53,21.51,30.54,21.86,30.52Z"/><path class="cls-1" d="M63.71,54.51a1.22,1.22,0,1,0,0,2.44l2.14,0,2,0a1.3,1.3,0,0,0,1.34-1.41c0-.32,0-.64,0-.95V51.24c0-.86-.5-1.44-1.23-1.44a1.27,1.27,0,0,0-1.22,1.37q0,.39,0,.78c0,.2,0,.39,0,.59a1.3,1.3,0,0,1,0,.26l-.56-.57-1.83-1.86L63.92,50c-.54-.55-1.1-1.12-1.67-1.65A1.2,1.2,0,0,0,60.54,50c.12.14.25.27.37.39l4.14,4.13h-.27C64.38,54.5,64.05,54.49,63.71,54.51Z"/><path class="cls-1" d="M69.21,29.06a1.29,1.29,0,0,0-1.43-1.44c-1.4,0-2.82,0-4.36,0a1.49,1.49,0,0,0-1.05.4,1.11,1.11,0,0,0-.31.82A1.28,1.28,0,0,0,63.46,30h1.65l-.52.5-1.36,1.33-.45.45c-.73.72-1.49,1.47-2.21,2.23a1.24,1.24,0,0,0-.37.88,1.2,1.2,0,0,0,.4.84,1.13,1.13,0,0,0,.79.31,1.32,1.32,0,0,0,.88-.34c.18-.16.35-.33.51-.5l.15-.15,3.83-3.87V32q0,.49,0,1a1.23,1.23,0,1,0,2.44,0C69.22,31.76,69.22,30.46,69.21,29.06Z"/><path class="cls-1" d="M20.9,54.61l4-4a1.48,1.48,0,0,0,.5-1.2,1.1,1.1,0,0,0-.55-.8,1.23,1.23,0,0,0-1.65.28l-3.8,3.81-.24.23-.3.28V53c0-.39,0-.71,0-1a1.23,1.23,0,1,0-2.44,0c0,1.43,0,2.75,0,4a1.27,1.27,0,0,0,1.4,1.39h4.37a1.24,1.24,0,0,0,1.38-1.2A1.27,1.27,0,0,0,22.12,55H20.43l.08-.06Z"/><path class="cls-1" d="M41,59.43a1.26,1.26,0,0,0-1.33,1.2A1.22,1.22,0,0,0,41,61.85l.7,0h1.68c.41,0,.84,0,1.26,0a1.23,1.23,0,0,0,1.3-1.22,1.28,1.28,0,0,0-1.33-1.2Z"/></svg>