<svg id="Layer_1" data-name="Layer 1" xmlns="http://www.w3.org/2000/svg" viewBox="0 0 85.04 85.04"><defs><style>.cls-1{fill:#1d1e1b;}</style></defs><path class="cls-1" d="M70.61,21.45A8.72,8.72,0,0,0,67.28,18a19.31,19.31,0,0,0-5.45-2.3,28.92,28.92,0,0,0-5.47-1,1.1,1.1,0,0,0-1.25,1A1.15,1.15,0,0,0,56.2,17l.35,0,.68.08A24.22,24.22,0,0,1,64,18.88a10.37,10.37,0,0,1,3.82,2.53,3.43,3.43,0,0,1,1.05,2.31,3.51,3.51,0,0,1-1.16,2.52A11.92,11.92,0,0,1,63.29,29a28.21,28.21,0,0,1-9,1.68,33.11,33.11,0,0,1-6.79-.42,23.42,23.42,0,0,1-6-1.75,9.76,9.76,0,0,1-3.64-2.6,3.08,3.08,0,0,1-.75-2.7,3.84,3.84,0,0,1,1-1.76A10.37,10.37,0,0,1,42,18.88,25.7,25.7,0,0,1,49.73,17a1.14,1.14,0,0,0,1.14-1.24A1.1,1.1,0,0,0,50.5,15a1.27,1.27,0,0,0-.93-.26c-.69.06-1.37.15-2,.24a25.53,25.53,0,0,0-6.5,1.75,13.17,13.17,0,0,0-4.49,2.91,5.86,5.86,0,0,0-1.77,3.51,7.25,7.25,0,0,0,0,1c0,.17,0,.33,0,.49V35.53a1.87,1.87,0,0,1,0,.28H16.35a3,3,0,0,0-2.93,3v19a2.92,2.92,0,0,0,3,3h7a1.05,1.05,0,0,1-.05.19l-.19.54c-.16.47-.33.95-.51,1.42a1.84,1.84,0,0,0,.14,1.77,2,2,0,0,0,1.64.81h0c2.34,0,4.72,0,7,0H35.6a.88.88,0,0,1,.68.28,15.5,15.5,0,0,0,1.26,1.15,18.42,18.42,0,0,0,7.14,3.27,32.33,32.33,0,0,0,6.53.93c.62,0,1.23,0,1.82,0a31.41,31.41,0,0,0,10.89-1.78,14,14,0,0,0,5.41-3.27,5.63,5.63,0,0,0,1.74-3.2,14.8,14.8,0,0,0,.09-2v-.18q0-11.22,0-22.45c0-.15,0-.31,0-.46a2.22,2.22,0,0,1,0-.44q0-.31,0-.63c0-.23,0-.46,0-.69V24.06A5.6,5.6,0,0,0,70.61,21.45ZM34.41,58.77A1,1,0,0,0,34.08,60c.2.58.41,1.17.61,1.76l.49,1.39s0,0,0,0H25L25,63l.21-.64.82-2.28a1.28,1.28,0,0,0-.1-1.17,1.26,1.26,0,0,0-1.07-.48H23c-2.09,0-4.25,0-6.38,0h0a.93.93,0,0,1-.71-.25.91.91,0,0,1-.2-.68c0-.38,0-.77,0-1.14,0-.16,0-.33,0-.49a1.88,1.88,0,0,1,0-.29,1.16,1.16,0,0,1,.31,0H44.15a1.12,1.12,0,0,1,.32,0,1.11,1.11,0,0,1,0,.31v.48c0,.42,0,.85,0,1.27a.69.69,0,0,1-.79.78H35.36A1.84,1.84,0,0,0,34.41,58.77ZM68.9,28.29v.94c0,2.41,0,4.82,0,7.24a3.73,3.73,0,0,1-1.42,2.78A12.51,12.51,0,0,1,63,41.8a28.74,28.74,0,0,1-10.36,1.58c-1.16,0-2.35-.13-3.49-.24L48,43a6.82,6.82,0,0,1-1.18-.22.41.41,0,0,1-.09-.22c0-1.06,0-2.12,0-3.18v-.53a2.94,2.94,0,0,0-3-3.07H37.32c-.13,0-.18,0-.19,0s0,0,0-.19c0-1.67,0-3.34,0-5V28.41a.13.13,0,0,1,0-.06l.27.21c.35.27.68.52,1,.76a18.23,18.23,0,0,0,5.15,2.32,33.32,33.32,0,0,0,11.3,1.23A28.61,28.61,0,0,0,65,30.71a13.61,13.61,0,0,0,3.9-2.39ZM44.49,53a2.38,2.38,0,0,1,0,.32,1.2,1.2,0,0,1-.32,0H16a1.16,1.16,0,0,1-.32,0,1.11,1.11,0,0,1,0-.31V39c0-.7.23-.93.93-.93H43.55c.74,0,.94.2.94.94Zm-.74,7.72a2.92,2.92,0,0,0,3-2.75s0-.08,0-.13l.16,0,.7.11a36.22,36.22,0,0,0,9.43.18A27,27,0,0,0,65.35,56a13.71,13.71,0,0,0,3.55-2.26v2.61c0,1.81,0,3.62,0,5.44a3.76,3.76,0,0,1-1.2,2.68,11.15,11.15,0,0,1-4,2.49,26.59,26.59,0,0,1-7.68,1.74,33.79,33.79,0,0,1-7.54-.15,22.75,22.75,0,0,1-7.91-2.37A12.2,12.2,0,0,1,37.74,64a.2.2,0,0,1-.07-.11,3.64,3.64,0,0,0-.37-1.58c-.08-.2-.15-.4-.22-.61s-.16-.49-.26-.76l-.06-.19ZM63.2,54.43A26.89,26.89,0,0,1,56.28,56a34.27,34.27,0,0,1-6.94,0c-.52,0-1.05-.14-1.56-.22l-.84-.13c-.14,0-.19-.06-.19-.24,0-2.23,0-4.45,0-6.68V45.3c0-.06,0-.11,0-.17l1.34.2a32.91,32.91,0,0,0,6.18.31A29.7,29.7,0,0,0,65,43.45a13.79,13.79,0,0,0,3.87-2.38l0,0v2.39c0,1.75,0,3.55,0,5.33a4,4,0,0,1-1.4,3.16A12,12,0,0,1,63.2,54.43Z"/><path class="cls-1" d="M30.13,56.88h-.05a1.3,1.3,0,0,0-.93,2.19,1.25,1.25,0,0,0,.92.39h0a1.29,1.29,0,0,0,1.29-1.25A1.31,1.31,0,0,0,30.13,56.88Z"/></svg>