<svg id="Layer_1" data-name="Layer 1" xmlns="http://www.w3.org/2000/svg" viewBox="0 0 85.04 85.04"><defs><style>.cls-1{fill:#1d1e1b;}</style></defs><path class="cls-1" d="M75.8,19.55A7.83,7.83,0,0,0,68,11.72c-16.7,0-34,0-51,0a7.43,7.43,0,0,0-6.57,3.69,9.64,9.64,0,0,0-.87,2c-.11.31-.22.64-.34.94V55a1,1,0,0,0,0,.1.77.77,0,0,1,.07.17,7.81,7.81,0,0,0,7.72,6.42H35.79a6.39,6.39,0,0,1-2.37,5.09,1.16,1.16,0,0,1-.64.18H31.63c-.52,0-1.05,0-1.57,0a3.43,3.43,0,0,0,.2,6.86H54.74a3.46,3.46,0,0,0,3.4-3.39A3.42,3.42,0,0,0,55,67c-.57,0-1.15,0-1.7,0h-1a1.22,1.22,0,0,1-.56-.1,6.13,6.13,0,0,1-2.4-5.17h6c4.19,0,8.54,0,12.8,0a7.82,7.82,0,0,0,7.73-7.84Q75.82,36.72,75.8,19.55ZM36.72,67a9.39,9.39,0,0,0,1.53-5.18h8.5A9.36,9.36,0,0,0,48.33,67ZM55,71.35a2.63,2.63,0,0,1-.79.09H30.82a2.72,2.72,0,0,1-.64,0,1,1,0,0,1,.14-1.89h24a2.61,2.61,0,0,1,.4,0,.88.88,0,0,1,.85.85A.85.85,0,0,1,55,71.35ZM73.34,19.94q0,16.78,0,33.56a5.45,5.45,0,0,1-5.75,5.77H17.39a5.38,5.38,0,0,1-5.52-4.12,6.75,6.75,0,0,1-.19-1.63c0-9.8,0-20.15,0-33.56a5.45,5.45,0,0,1,5.75-5.77H67.57A5.45,5.45,0,0,1,73.34,19.94Z"/><path class="cls-1" d="M61.54,34.93,60,32.59a3.35,3.35,0,0,0-2-1.44,3.49,3.49,0,0,0-3.68,1.18,3.81,3.81,0,0,0-3.32-.5,3.65,3.65,0,0,0-2.19,2.25,3.53,3.53,0,0,0-3,1.21l-.06-.08-.23-.34L44.32,33c-.91-1.37-1.86-2.8-2.81-4.18a3.37,3.37,0,0,0-3.6-1.41A3.15,3.15,0,0,0,35.34,30,3.62,3.62,0,0,0,36,33c1.66,2.47,3.34,5,5,7.43l1.83,2.74.27.43,0,0-.28-.06-1-.21-.13,0a4.23,4.23,0,0,0-3.16.18,3.39,3.39,0,0,0,.37,6.11c4.15,1.89,8.2,3.74,12.21,5.61a9.81,9.81,0,0,0,4.19.94,11,11,0,0,0,2.45-.28,15.32,15.32,0,0,0,5.36-2.73,9,9,0,0,0,2.5-12.15C64.27,39,62.88,36.93,61.54,34.93ZM45.34,46.66a1.33,1.33,0,0,0,1.51-.51,1.35,1.35,0,0,0-.14-1.57L39.42,33.66l-1.25-1.89-.06-.08c-.1-.15-.2-.3-.28-.45a.92.92,0,0,1,.25-1.19.86.86,0,0,1,1.2.05,2.83,2.83,0,0,1,.5.62l0,.05L43.27,36l2.08,3.11.07.11a2.46,2.46,0,0,0,.37.48,1.17,1.17,0,0,0,1.51.16,1.14,1.14,0,0,0,.51-1.43,1,1,0,0,0-.1-.24,1.42,1.42,0,0,1-.08-.18.91.91,0,0,1,.29-1.18.89.89,0,0,1,1.25.1l.16.17a1.24,1.24,0,0,0,1.72.26,1.16,1.16,0,0,0,.43-1.41,1,1,0,0,0-.1-.21s-.05-.09-.07-.14a1,1,0,0,1,.39-1.3.91.91,0,0,1,1.26.31c.23.32.46.65.67,1l.42.62a1.28,1.28,0,0,0,1.75.57c.62-.34.78-1,.44-1.78a1,1,0,0,1,.39-1.34,1,1,0,0,1,1.3.4c2,3,3.81,5.72,5.64,8.52a5.82,5.82,0,0,1,.9,3.24h0a5.88,5.88,0,0,1-1.77,4.46,12.21,12.21,0,0,1-5.38,3.22A7.79,7.79,0,0,1,52,52.93c-3.63-1.66-7.85-3.59-12-5.51a1.49,1.49,0,0,1-.74-.75.7.7,0,0,1,.14-.7,1,1,0,0,1,.78-.32,1.15,1.15,0,0,1,.26,0c.81.15,1.61.32,2.42.48l1,.21.43.09C44.66,46.53,45,46.61,45.34,46.66Z"/><path class="cls-1" d="M33.3,40.45l0,0a10.91,10.91,0,0,1-1-18.95A10.45,10.45,0,0,1,40.15,20a10.78,10.78,0,0,1,8.4,7.56c.3.89.9,1.25,1.66,1a1.28,1.28,0,0,0,.71-1.76,13.41,13.41,0,0,0-12.8-9.55h0l-.61.05c-.46,0-.93.07-1.39.14a13.39,13.39,0,0,0-9.66,19.85,13,13,0,0,0,5.95,5.49,1.32,1.32,0,0,0,.57.12,1.45,1.45,0,0,0,.74-.19,1.57,1.57,0,0,0,.5-1.13C34.24,40.93,33.72,40.67,33.3,40.45Z"/><path class="cls-1" d="M35.17,35.19a5.39,5.39,0,0,1,2.27-9.88,5.34,5.34,0,0,1,5.66,3.37c.38.88,1,1.2,1.71.9a1.3,1.3,0,0,0,.6-1.85,8,8,0,0,0-8.77-4.83,7.86,7.86,0,0,0-6.41,7.73c0,.07,0,.13,0,.2s0,.3,0,.46.06.47.11.78A7.86,7.86,0,0,0,34,37.41a1.47,1.47,0,0,0,.76.24.92.92,0,0,0,.7-.3A1.56,1.56,0,0,0,36,36.18,1.91,1.91,0,0,0,35.17,35.19Z"/></svg>