<svg id="Layer_1" data-name="Layer 1" xmlns="http://www.w3.org/2000/svg" viewBox="0 0 85.04 85.04"><defs><style>.cls-1{stroke:#1d1e1b;stroke-miterlimit:10;stroke-width:0.5px;}</style></defs><path class="cls-1" d="M43.59,14.1a17.65,17.65,0,0,1,2.6,1,7.14,7.14,0,0,1,3.56,7.05,7.23,7.23,0,0,1-5.42,6.15l-.5.14V33.3H59.39a3.7,3.7,0,0,1,4.1,3.26q3.58,15.28,7.15,30.59A3.59,3.59,0,0,1,67,71.75c-16.27,0-32.53,0-48.8,0a3.75,3.75,0,0,1-3.7-4.69C17,56.83,19.33,46.55,21.74,36.29a3.57,3.57,0,0,1,3.74-3H41.31V28.45c-.45-.15-.94-.27-1.4-.46a7.19,7.19,0,0,1,1.4-13.78,1.12,1.12,0,0,0,.25-.11Zm-1,55.23H67.12a1.17,1.17,0,0,0,1.16-1.57L61.05,36.84a1.25,1.25,0,0,0-1.44-1.12H25.51a1.24,1.24,0,0,0-1.41,1.14q-2,8.58-4,17.15c-1.08,4.58-2.14,9.17-3.22,13.76a1.1,1.1,0,0,0,.47,1.32,2.35,2.35,0,0,0,1.12.23ZM42.5,26.08a4.78,4.78,0,1,0-4.7-4.85A4.75,4.75,0,0,0,42.5,26.08Z"/><path class="cls-1" d="M51,55.53H49.77a1.22,1.22,0,0,1-1.21-1.16,1.19,1.19,0,0,1,1.09-1.22c.87,0,1.76,0,2.64,0a1.11,1.11,0,0,1,1.09,1.19c0,1.28,0,2.55,0,3.83a3.48,3.48,0,0,1-3,3.31,37.17,37.17,0,0,1-4.72,0,3.48,3.48,0,0,1-3-3.33c0-3.74,0-7.47,0-11.2a3.38,3.38,0,0,1,2.83-3.31,26.85,26.85,0,0,1,5.15,0A3.4,3.4,0,0,1,53.38,47c0,.81,0,1.61,0,2.42a1.2,1.2,0,1,1-2.4.09c0-.71,0-1.43,0-2.14,0-1-.41-1.44-1.43-1.44H46.44c-1,0-1.44.4-1.44,1.42,0,2.65,0,5.29,0,7.94,0,.8,0,1.61,0,2.42a1.25,1.25,0,0,0,1.42,1.41h3.15A1.23,1.23,0,0,0,51,57.81C51,57.06,51,56.31,51,55.53Z"/><path class="cls-1" d="M34.18,56.68c0,1,0,2.09,0,3.13a4.2,4.2,0,0,1,0,.79,1.15,1.15,0,0,1-1.27.93,1.18,1.18,0,0,1-1.09-1.09,1,1,0,0,1,0-.17c0-5.16,0-10.32,0-15.47a1.21,1.21,0,0,1,1-1.27,1.18,1.18,0,0,1,1.3.67,2.83,2.83,0,0,1,.14.87c0,1.17,0,2.33,0,3.49v.7a5.41,5.41,0,0,0,.39-.47l3.37-4.71a1.18,1.18,0,0,1,1.26-.54,1.07,1.07,0,0,1,.94,1,2,2,0,0,1-.37,1.12q-2.45,3.51-5,7a.61.61,0,0,0,0,.91c1.65,1.94,3.29,3.89,4.89,5.88a1.87,1.87,0,0,1,.39,1.16,1,1,0,0,1-.84.93,1.19,1.19,0,0,1-1.3-.44l-2.7-3.24-1-1.16Z"/></svg>