<svg id="Layer_1" data-name="Layer 1" xmlns="http://www.w3.org/2000/svg" viewBox="0 0 85.04 85.04"><path d="M42,17.18a25.11,25.11,0,1,1-25,26.13A25.1,25.1,0,0,1,42,17.18ZM19.29,42.26A22.87,22.87,0,1,0,42.16,19.44,22.88,22.88,0,0,0,19.29,42.26Z"/><path d="M52.45,30.21H46.1a1.12,1.12,0,0,1-.93-1.77,1.11,1.11,0,0,1,.94-.47c3.08,0,6.16,0,9.24,0a1.11,1.11,0,0,1,1.15,1.18q0,4.59,0,9.2a1.13,1.13,0,1,1-2.25,0c0-1.93,0-3.87,0-5.81,0-.15,0-.31,0-.45L31.92,54.39l-.1,0,.57,0h5.66a1.2,1.2,0,0,1,1.17.59,1.13,1.13,0,0,1-.81,1.65,2.77,2.77,0,0,1-.41,0H29.06a1.13,1.13,0,0,1-1.26-1.19c0-3,0-6.09,0-9.13a1.18,1.18,0,0,1,1-1.24,1.14,1.14,0,0,1,1.17.71,1.89,1.89,0,0,1,.09.63c0,1.91,0,3.82,0,5.73v.44l.11.08L52.51,30.34Z"/></svg>