<svg id="Layer_1" data-name="Layer 1" xmlns="http://www.w3.org/2000/svg" viewBox="0 0 85.04 85.04"><path d="M68.4,59.83H55.83a1.38,1.38,0,0,1-1.37-1.37V53.62a1.33,1.33,0,0,1,1.33-1.33h2.94a1.34,1.34,0,0,1,1.08.34,1.37,1.37,0,0,1,.34,1.07v.17L62.24,56h4.87a2.14,2.14,0,0,0,2.14-2.14h0V44.06c0-1.63,0-3.25,0-4.88a1.43,1.43,0,0,0-1.52-1.52H62.54a2.38,2.38,0,0,0-2.38,2.38,1.3,1.3,0,0,1-.36,1,1.47,1.47,0,0,1-1,.36h-3A1.38,1.38,0,0,1,54.46,40V32.11H52.11a1.32,1.32,0,0,1-1-.34,1.27,1.27,0,0,1-.33-1v-6.2a1.68,1.68,0,0,0-1.68-1.68H43.36a1.67,1.67,0,0,0-1.67,1.67v6.18a1.36,1.36,0,0,1-1.36,1.37H27.51c-.32.19-.6.38-.88.57l-1.71,1.14c-1.19.79-2.37,1.59-3.56,2.37v5.67A1.34,1.34,0,0,1,20,43.21H18.86a1.34,1.34,0,0,1-1.34-1.34v-1.5a.85.85,0,0,0-.84-.85h0a.84.84,0,0,0-.84.85v3.77c0,3.68,0,7.35,0,11a.81.81,0,0,0,.83.81h0a.82.82,0,0,0,.81-.79l.05-1.6a1.2,1.2,0,0,1,1.27-1.29H21.4a1.82,1.82,0,0,1,1,.31L27.46,56h0c3.39,0,6.82,0,10.24,0H51.42a1.34,1.34,0,0,1,1.34,1.34v4.21H68.4a.85.85,0,0,0,0-1.7ZM61.86,40.68a1.3,1.3,0,0,1,.36-1,1.19,1.19,0,0,1,1-.36c1,0,2,0,3.06,0a1.24,1.24,0,0,1,1,.35,1.31,1.31,0,0,1,.36,1V52.8c0,1-.45,1.48-1.5,1.48H63.15a1.28,1.28,0,0,1-.93-.35,1.3,1.3,0,0,1-.36-1V40.68ZM21.36,49.3a1.22,1.22,0,0,1-.36.94,1.4,1.4,0,0,1-.94.35c-.41,0-.82,0-1.22,0h-.05a1.22,1.22,0,0,1-1.27-1.32c0-.36,0-.72,0-1.07V46.74h0c0-.19,0-.37,0-.56a1.18,1.18,0,0,1,.35-.92,1.24,1.24,0,0,1,.92-.35q.64,0,1.29,0a1.3,1.3,0,0,1,.93.35,1.24,1.24,0,0,1,.35.93Zm22-20.24V25.88a1.27,1.27,0,0,1,.36-.94,1.25,1.25,0,0,1,.91-.35h0q1.55,0,3.09,0h0a1.26,1.26,0,0,1,.93.36,1.24,1.24,0,0,1,.35.94v1.46h0v3.46a1.24,1.24,0,0,1-.35,1,1.29,1.29,0,0,1-.93.35H44.67a1.23,1.23,0,0,1-.93-.36,1.24,1.24,0,0,1-.35-.95V29.06Zm-14,25.22-.33,0a3.55,3.55,0,0,1-2.11-.71c-.82-.6-1.7-1.17-2.54-1.72l-.65-.43a1.45,1.45,0,0,1-.68-1.27V38a1.52,1.52,0,0,1,.73-1.35c1.2-.79,2.4-1.6,3.6-2.4a2.12,2.12,0,0,1,1.49-.41h.23c1,0,1.48.46,1.48,1.5V51.14c0,.61,0,1.22,0,1.83A1.23,1.23,0,0,1,29.37,54.28Zm22,0H33.57A1.22,1.22,0,0,1,32.29,53V35.18a1.2,1.2,0,0,1,1.38-1.36H51.39a1.34,1.34,0,0,1,1,.32,1.31,1.31,0,0,1,.35,1V52.94A1.19,1.19,0,0,1,51.41,54.28Zm3.05-8.22q0-.89,0-1.77a1.2,1.2,0,0,1,.34-.9,1.22,1.22,0,0,1,.9-.35H59a1.17,1.17,0,0,1,1.21,1.21c0,1.68,0,3.37,0,5.05a1.29,1.29,0,0,1-.35.93,1.25,1.25,0,0,1-.93.35H55.75a1.27,1.27,0,0,1-.94-.36,1.28,1.28,0,0,1-.35-.95c0-.6,0-1.2,0-1.8Z"/><path d="M42.36,38.54a5.58,5.58,0,1,0,5.58,5.57A5.58,5.58,0,0,0,42.36,38.54Zm0,9.65a4.08,4.08,0,1,1,4.08-4.08A4.08,4.08,0,0,1,42.36,48.19Z"/></svg>