<svg id="Layer_1" data-name="Layer 1" xmlns="http://www.w3.org/2000/svg" viewBox="0 0 85.04 85.04"><path d="M46.58,50.11l.45,0h6.65l4.1,0,4.8,0h3.8a.83.83,0,0,1,.94,1V56c0,.71-.28,1-1,1H42.8c-1,0-2,0-3.07,0-.21,0-.31.06-.31.28a2.3,2.3,0,0,1,0,.37c-.08.61-.34.86-.95.87s-1.13,0-1.7,0c-.2,0-.29.06-.33.27-.12.52-.27,1-.42,1.54a.85.85,0,0,1-.81.69c-.52,0-1,.13-1.56.19-.18,0-.25.09-.25.26,0,.55,0,1.09,0,1.63a.85.85,0,0,1-1,.93l-1.69,0c-.34,0-.34,0-.36.32,0,.59-.07,1.19-.12,1.79a.8.8,0,0,1-1.33.62l-6.34-4.48A.81.81,0,0,1,22.34,61l2.9-3.73a.8.8,0,0,0,.1-.23,1.57,1.57,0,0,0-.23,0c-2.73,0-5.47,0-8.2,0-.41,0-.79-.06-1-.49a1,1,0,0,1-.07-.34c0-1.73,0-3.45,0-5.17a.81.81,0,0,1,.88-.84H30.37a.72.72,0,0,0,.65-.31q1.89-2.46,3.8-4.9l7.32-9.41c.77-1,1.54-2,2.3-3,.11-.15.18-.33.28-.49.34-.57.65-1.16,1-1.71q3.12-4.76,6.28-9.49a2.16,2.16,0,0,1,3.17-.57c1.89,1.37,3.77,2.77,5.65,4.15l2.71,2a2.09,2.09,0,0,0,2.09.31,2.25,2.25,0,0,1,3.08,1.6,2.15,2.15,0,0,1-.65,2.12q-2,2-4,4.06-1.55,1.58-3.1,3.13a2.72,2.72,0,0,1-2.77.83c-.2-.06-.25.05-.28.21-.11.56-.23,1.12-.33,1.69s-.33.85-1,.9-1,.06-1.57.07a.28.28,0,0,0-.32.27c-.09.57-.2,1.13-.28,1.7a.85.85,0,0,1-.88.8l-1.5,0c-.2,0-.27.07-.26.26,0,.55.08,1.1.1,1.65a.82.82,0,0,1-.85.95l-2.14.17c-.2,0-.25.09-.24.28,0,.51,0,1,.07,1.52a.79.79,0,0,1-.77.92c-.39,0-.78.06-1.17.09l-.23,0ZM44.93,34.57,24.08,61.37l4.59,3.25c0-.5.07-.93.09-1.35a.87.87,0,0,1,1-.91l1.75,0c.21,0,.27-.07.27-.27,0-.53,0-1.05,0-1.57a.82.82,0,0,1,.84-.85l1.76-.22a.31.31,0,0,0,.2-.17c.1-.29.16-.59.26-.89a2.92,2.92,0,0,1,.55-1.38l0-.07c-.61,0-1.23,0-1.84,0a1.18,1.18,0,0,1-.53-.12c-.48-.26-.53-.77-.16-1.28,1.23-1.65,2.47-3.29,3.68-4.94a1.14,1.14,0,0,1,1-.51c2,0,4,0,6,0,.62,0,.62,0,.61-.62a.81.81,0,0,1,.84-1c.64-.07,1.28-.11,1.92-.16.18,0,.25-.06.24-.25,0-.5-.06-1-.08-1.5a.84.84,0,0,1,.88-1L50,45.52c.21,0,.27-.09.26-.29q-.06-.81-.09-1.62c0-.63.25-1,.89-1s1.12,0,1.67,0c.19,0,.26-.07.29-.26.08-.57.18-1.13.29-1.7a.8.8,0,0,1,.87-.78c.55,0,1.11-.06,1.67-.07a.25.25,0,0,0,.28-.24c.1-.51.2-1,.31-1.52,0-.2,0-.28-.19-.36l-2.07-1.05a4,4,0,0,0-2.46-.46c-.93.15-1.85.32-2.78.49a3,3,0,0,1-2.36-.55A5.36,5.36,0,0,1,44.93,34.57ZM46.15,33a1.43,1.43,0,0,0,.58,1.23l.83.59a1.38,1.38,0,0,0,1,.25l2.51-.47a5,5,0,0,1,3,.26c1.22.53,2.4,1.17,3.61,1.75a5.18,5.18,0,0,0,1,.4,1.22,1.22,0,0,0,1.14-.48l4.74-4.79,2.3-2.33a.63.63,0,0,0,.17-.83.67.67,0,0,0-.87-.27,6.32,6.32,0,0,1-.62.18,3.65,3.65,0,0,1-3-.7l-6.23-4.59c-.7-.51-1.39-1-2.09-1.53a.61.61,0,0,0-1,.16l-.14.21q-2,3.09-4.09,6.18l-2.64,4A1.41,1.41,0,0,0,46.15,33ZM35.06,55.35l.39,0h30c.22,0,.31-.05.31-.3,0-1,0-2,0-3,0-.22,0-.31-.29-.31H57.77l-4.1,0H38a.46.46,0,0,0-.4.19l-1.94,2.61C35.46,54.8,35.27,55.05,35.06,55.35Zm-5.58-3.57-.37,0H17.8c-.25,0-.33.07-.33.33q0,1.5,0,3c0,.23.07.3.3.3h8.67a.46.46,0,0,0,.42-.2l2-2.58Z"/></svg>