<svg id="Layer_1" data-name="Layer 1" xmlns="http://www.w3.org/2000/svg" viewBox="0 0 85.04 85.04"><path d="M20,34.48c-.52-.91-1-1.7-1.44-2.51a1.59,1.59,0,0,1,.63-2.4l5.69-3.28a1.6,1.6,0,0,1,2.5.68l.8,1.39c.86-1.38,2.26-.69,3.46-.94,0-.16,0-.33,0-.5,0-1.14,0-2.28,0-3.42A1.49,1.49,0,0,1,33.13,22c2.36,0,4.71,0,7.07,0a1.57,1.57,0,0,1,1.56,1.73c0,1.78,0,3.57,0,5.35v.65c.88,0,1.71,0,2.54,0,.13,0,.29-.22.37-.37A12.7,12.7,0,0,1,53,22.47a12.55,12.55,0,0,1,9.32,1.06l.5.27c.07-.12.1-.26.19-.32.26-.17.56-.42.83-.41a.94.94,0,0,1,.71.51,15.34,15.34,0,0,1,.66,2.25.85.85,0,0,1-.9,1.05L62.65,27c-.52,0-1,.05-1.29-.51s.06-.88.43-1.19A11.14,11.14,0,0,0,46.56,40.4a2.55,2.55,0,0,1,.17.33.84.84,0,0,1-.37,1.14.83.83,0,0,1-1.12-.3,4.12,4.12,0,0,1-.46-.85c-.15-.42-.43-.51-.85-.51H19.48l1.33,4.3c1.14,3.7,2.27,7.41,3.44,11.1a20.48,20.48,0,0,0,1.06,2.27c1.57-2.06,3.49-3,5.89-2.44a5.43,5.43,0,0,1,4.28,4.47H46.27a5.43,5.43,0,0,1,4.28-4.47c2.39-.51,4.29.36,5.86,2.42a16.11,16.11,0,0,0,1-2c.92-2.82,1.77-5.66,2.69-8.61a13.07,13.07,0,0,1-10.36-1.22c-.06.12-.08.27-.17.33-.25.18-.54.46-.78.43a1,1,0,0,1-.76-.54A15.71,15.71,0,0,1,47.37,44a.83.83,0,0,1,.8-1,15.37,15.37,0,0,1,2.35,0,1.14,1.14,0,0,1,.72.58c.21.44-.09.78-.48,1.07a9.82,9.82,0,0,0,3.57,1.31,11.12,11.12,0,0,0,12.75-8.19,10.9,10.9,0,0,0-.86-7.88c-.09-.18-.19-.34-.27-.52a.86.86,0,1,1,1.52-.81,12.55,12.55,0,0,1,1.49,4,12.93,12.93,0,0,1-6.46,13.7,1.2,1.2,0,0,0-.47.65c-.94,3-1.88,6-2.8,9.07a8.47,8.47,0,0,1-1.91,3.36.73.73,0,0,0-.18.54,5.49,5.49,0,0,1-10.72,2.31c-.11-.43-.27-.52-.67-.52H36c-.39,0-.53.11-.63.5a5.48,5.48,0,0,1-10.74-.67c-.06-.53,0-1.07,0-1.6a.86.86,0,0,0-.17-.55,8.64,8.64,0,0,1-1.93-3.41C21,50.86,19.38,45.81,17.83,40.74c-.11-.38-.25-.54-.68-.54-.76,0-1-.31-1-1.08V35.48c0-.71.29-1,1-1Zm-2.11,4h26l-.41-2.2H17.84Zm10.1-4a5.59,5.59,0,0,0-.81-4.36c-.44-.78-.89-1.55-1.36-2.36L20,31.08c.63,1.09,1.2,2.11,1.8,3.12a.58.58,0,0,0,.4.26C24.11,34.48,26,34.47,27.94,34.47Zm8.47-5.21H29.8v5.18h6.61Zm-3-5.56v3.77h.73c.89,0,1.78,0,2.67,0A1.49,1.49,0,0,1,38.15,29v.63H40V23.7ZM48,60.81a3.75,3.75,0,1,0,3.76-3.76A3.76,3.76,0,0,0,48,60.81ZM30,57.05a3.75,3.75,0,1,0,3.76,3.75A3.76,3.76,0,0,0,30,57.05ZM43.8,31.49H38.18v2.95h5.15Z"/><path d="M63.66,30a8.14,8.14,0,0,0-.37.93,1.51,1.51,0,0,0,0,.7,1.81,1.81,0,0,0,1.34,1.47c.24.06.49.52.53.82a15.26,15.26,0,0,1,0,2,1,1,0,0,1-.81,1,1.68,1.68,0,0,0-.95,2.32,1.06,1.06,0,0,1-.26,1.38c-.42.39-.82.8-1.21,1.21a1,1,0,0,1-1.3.23,1.43,1.43,0,0,0-1.43,0,1.42,1.42,0,0,0-1,1,.93.93,0,0,1-1.06.75c-.57,0-1.14,0-1.71,0-.77,0-1-.08-1.17-.81-.24-.9-1.09-.86-1.68-1.18-.14-.08-.45.15-.68.26a1,1,0,0,1-1.35-.24c-.38-.41-.79-.82-1.2-1.21a1,1,0,0,1-.23-1.38c.52-.78-.1-1.38-.34-2-.07-.19-.48-.26-.75-.36a1,1,0,0,1-.7-1c0-.59,0-1.18,0-1.77A1,1,0,0,1,48.19,33c.93-.19.91-1,1.19-1.66.08-.19-.15-.53-.28-.78a1,1,0,0,1,.23-1.21c.45-.43.9-.87,1.33-1.32a.89.89,0,0,1,1.24-.2c.81.56,1.41-.08,2.08-.29.11,0,.17-.29.23-.45.36-.93.47-1,1.49-1h1.39c.74,0,1,.11,1.17.83.24.91,1.07.89,1.69,1.17.16.08.48-.16.72-.27a1,1,0,0,1,1.26.23c.43.45.89.87,1.31,1.33A4.37,4.37,0,0,1,63.66,30Zm-2,9.65c0-.09-.06-.2-.11-.29a1.38,1.38,0,0,1,0-1.64A3.49,3.49,0,0,0,62,36.62a1.26,1.26,0,0,1,1-1c.37-.08.45-.3.45-.65s-.09-.6-.48-.69a1.18,1.18,0,0,1-.9-.94,4.42,4.42,0,0,0-.5-1.23,1.25,1.25,0,0,1-.05-1.45c.21-.33.09-.52-.15-.76s-.45-.38-.78-.17a1.27,1.27,0,0,1-1.45-.05A3.81,3.81,0,0,0,58,29.18a1.26,1.26,0,0,1-1.07-1c-.08-.36-.3-.44-.66-.44s-.56.09-.65.45a1.22,1.22,0,0,1-1,1,4.21,4.21,0,0,0-1.18.49,1.26,1.26,0,0,1-1.45,0c-.34-.21-.54-.05-.77.18s-.37.4-.16.72a1.28,1.28,0,0,1,0,1.5,4.19,4.19,0,0,0-.46,1.13,1.26,1.26,0,0,1-1,1.05c-.4.08-.41.35-.41.68s0,.54.4.62a1.29,1.29,0,0,1,1,1A4.5,4.5,0,0,0,51,37.8a1.24,1.24,0,0,1,.06,1.4.53.53,0,0,0,.11.78c.27.25.49.38.83.16a1.24,1.24,0,0,1,1.4,0,4.21,4.21,0,0,0,1.18.49,1.25,1.25,0,0,1,1,1c.08.35.27.46.65.46s.6-.09.69-.48a1.15,1.15,0,0,1,.82-.88c.54-.18,1-.46,1.58-.64a1.68,1.68,0,0,1,.91-.07C61.1,40.28,61.09,40.31,61.67,39.63Z"/><path d="M51.72,58A2.76,2.76,0,1,1,49,60.79,2.81,2.81,0,0,1,51.72,58Zm1,2.77a1,1,0,0,0-1-1,1,1,0,0,0-1,1,1,1,0,1,0,2,0Z"/><path d="M30,58a2.76,2.76,0,1,1-2.76,2.76A2.81,2.81,0,0,1,30,58Zm0,3.75a1,1,0,0,0,1-1,1,1,0,0,0-1-1,1,1,0,1,0,0,2Z"/><path d="M56.29,30.28a4.66,4.66,0,0,1,0,9.31,4.66,4.66,0,1,1,0-9.31Zm0,7.55a2.91,2.91,0,1,0-2.88-2.91A2.91,2.91,0,0,0,56.24,37.83Z"/></svg>