<svg id="Layer_1" data-name="Layer 1" xmlns="http://www.w3.org/2000/svg" viewBox="0 0 85.04 85.04"><path d="M63.64,54.77c-.3.7-.6,1.37-.86,2a.6.6,0,0,0,.15.46c.69.72,1.41,1.41,2.11,2.13s.6,1,0,1.64q-3,3-6.05,6c-.62.62-1,.62-1.68,0s-1.37-1.36-2-2a.49.49,0,0,0-.68-.13c-.6.3-1.24.53-1.89.8v3.38c0,.76-.31,1.08-1.05,1.08H42.88c-.72,0-1-.32-1-1,0-1.13,0-2.26,0-3.42-.71-.3-1.41-.61-2.12-.88-.1,0-.31.08-.41.18-.71.7-1.41,1.41-2.13,2.11a1,1,0,0,1-1.6,0l-4.64-4.64c-.2-.21-.35-.32-.66-.14q-4.83,2.82-9.68,5.6s-.05.06-.11.12c.13.24.29.5.41.76a.91.91,0,0,1-.34,1.23.89.89,0,0,1-1.23-.31q-.49-.8-.93-1.62a.9.9,0,0,1,.44-1.28L23,64.46l.48-.28c-1.31-2.28-2.62-4.53-3.92-6.79a2.72,2.72,0,0,1,1.1-4.12L25,50.74c-.19-.12-.33-.22-.48-.3l-8.17-4.72c-.85-.5-1-.89-.46-1.75l3.27-5.67c.48-.83.88-.94,1.7-.47l9.64,5.57.5.28c.28-.64.55-1.23.78-1.84a.61.61,0,0,0-.16-.46c-.7-.72-1.42-1.42-2.12-2.13s-.58-1,0-1.6l3.94-3.93-3.59-3.59c-.28.3-.58.66-.9,1-.73.73-1.11.73-1.84,0a3.65,3.65,0,0,1-.29-.37l-1.4,1.39a4.61,4.61,0,0,1,.69.52.88.88,0,0,1,0,1.27c-.84.87-1.69,1.73-2.56,2.56a.86.86,0,0,1-1.35,0Q19,33.33,15.9,30.17a.91.91,0,0,1,0-1.44c.77-.78,1.54-1.55,2.32-2.32a1,1,0,0,1,1.61,0,5.2,5.2,0,0,1,.4.53l1.27-1.37s0,0,0,0c-1.14-1.25-1.14-1.29.06-2.49.49-.49,1-1,1.48-1.48a.94.94,0,0,1,1.4-.11.9.9,0,0,1-.09,1.39c-.47.48-1,.94-1.43,1.38L28,29.3l5.58-5.57-5.09-5.08c-.39.42-.84.92-1.31,1.4s-1,.54-1.43.12a.92.92,0,0,1,.12-1.4c.63-.64,1.28-1.28,1.92-1.92s1.06-.65,1.72,0a4,4,0,0,1,.39.51,7.77,7.77,0,0,1,3.26-1.44,7.22,7.22,0,0,1,4.3.58l1,.5a1,1,0,0,1,.69,1c0,.52-.38.74-.83.88a5.29,5.29,0,0,0-2.67,1.81,4.43,4.43,0,0,0-.29.42c-.62.95-.62.95.16,1.75.6.62.61,1,0,1.65l-.39.41,3.33,3.3c.07-.11.18-.28.28-.46Q42,22.18,45.19,16.61c.52-.9.89-1,1.78-.48,1.38.79,2.74,1.6,4.12,2.37a1.21,1.21,0,0,1,.71,1.27c-.1,1.24-.16,2.49-.24,3.73a1,1,0,0,1-.78.91l-1.48.4c.15.53.28,1,.41,1.51a.91.91,0,0,1-.65,1.19c-.22.08-.44.13-.65.19l-.66.18c0,.51.31.66.79.64,1,0,2,0,2.94,0a6,6,0,0,1,1.1.23l.08.2c.39-.43.81-.84,1.16-1.3a.77.77,0,0,0,.08-.6,8.09,8.09,0,0,1,3.16-8.83,7.91,7.91,0,0,1,7.58-1c1,.36,1.14,1,.36,1.83L60.49,23.6c1,1,2,2,3,3a1.58,1.58,0,0,1,.4.54.87.87,0,0,1-.35,1.09A.89.89,0,0,1,62.34,28c-1.25-1.24-2.49-2.47-3.72-3.72a.91.91,0,0,1,.05-1.48l3.68-3.68c.13-.13.28-.24.44-.38-1.73-.75-4.72.44-6.13,2.36a6.33,6.33,0,0,0,8.19,9.27c2.32-1.31,3.75-4.3,3.07-6.58l-2,2a.89.89,0,0,1-1.13.2.81.81,0,0,1-.44-.95,1.16,1.16,0,0,1,.32-.57c1-1,2-2,3-3a.92.92,0,0,1,1.62.33,8.17,8.17,0,0,1-6.19,11.09c-.88.12-1.78.09-2.66.13l.34.36,4,4c.86.86.85,1.17,0,2.05-.63.62-1.25,1.26-1.89,1.87a.44.44,0,0,0-.12.63,7.65,7.65,0,0,1,.38.82c.44,1.09.44,1.09,1.64,1.09h2.27a.87.87,0,0,1,1,1c0,1.76,0,3.51,0,5.27a.9.9,0,1,1-1.8,0c0-1.45,0-2.9,0-4.44H63.46c-1.16,0-1.21-.06-1.6-1.16a24.81,24.81,0,0,0-1.06-2.49A1.06,1.06,0,0,1,61,40.68c.74-.72,1.47-1.45,2.16-2.14L58,33.4c-.56.58-1.19,1.24-1.84,1.89-.84.85-.93.84-2,.33a24,24,0,0,0-2.35-.95c-.84-.3-1-.43-1-1.34v-3H43.65v3c0,.8-.16,1-.88,1.24-1,.36-1.89.75-2.81,1.17a1,1,0,0,1-1.32-.21l-2.22-2.22-5.13,5.13c.7.68,1.42,1.37,2.12,2.08s.61.82.26,1.59-.76,1.76-1.09,2.66c-.27.71-.45.87-1.19.87H28.3V53h3c.83,0,1,.13,1.27.91s.72,1.81,1.12,2.7c.3.68.29.93-.24,1.46-.72.72-1.45,1.43-2.14,2.11l5.13,5.13c.65-.65,1.34-1.36,2-2.06s.82-.63,1.64-.26,1.8.76,2.71,1.1a1,1,0,0,1,.79,1.08c0,1.05,0,2.1,0,3.19h7.24c0-.75,0-1.51,0-2.27,0-1.61-.26-1.69,1.58-2.26a14.21,14.21,0,0,0,2-.86c.76-.36,1-.34,1.6.27s1.37,1.39,2,2l5.12-5.14-2.05-2c-.59-.59-.6-.82-.27-1.55.4-.91.78-1.83,1.12-2.76A1.06,1.06,0,0,1,63.09,53c1.32,0,2.65,0,4,0,.67,0,1,.34,1,.92s-.38.88-1,.89ZM41.84,31.68c0-.75,0-1.42,0-2.09s.3-1.08,1.1-1.08c1,0,1.94,0,3,0-.12-.26-.21-.44-.29-.63-.37-.79-.14-1.29.71-1.53L47.71,26c-.13-.5-.26-1-.38-1.44a.94.94,0,0,1,.72-1.29c.45-.14.92-.23,1.36-.39a.55.55,0,0,0,.35-.38c.08-.74.12-1.5.15-2.25a.54.54,0,0,0-.17-.37L46.52,18,39.78,29.66ZM26.47,52l-4.36,2.51c-1.55.89-1.57,1-.68,2.51q1.52,2.64,3.05,5.28c.34.59.75.79,1.24.52,1.19-.64,2.35-1.33,3.55-2a1.06,1.06,0,0,1,.29-1.49c.69-.67,1.37-1.35,2-2a.58.58,0,0,0,.17-.46c-.27-.69-.57-1.37-.85-2H28.22c1.22,1.15,1.51,2.38.86,3.58A2.73,2.73,0,0,1,24,57.26c-.06-1.5.69-2.36,2.51-2.92Zm0-2.58c0-1.44,0-2.78,0-4.11a2,2,0,0,1,.18-1c.15-.25.54-.35.83-.52l-.74-.42-1.26,2.15c-.36.62-.86.8-1.35.52a1,1,0,0,1-.25-1.42c.41-.72.82-1.43,1.26-2.18l-1.55-.88c-.45.79-.87,1.53-1.31,2.25a.89.89,0,0,1-1.33.39.94.94,0,0,1-.22-1.35c.41-.74.83-1.46,1.27-2.22l-1.54-.9-2.7,4.69Zm14.29-16-7-7L31.4,28.81l3.48,3.49c.18-.2.39-.44.61-.66.69-.69,1.09-.7,1.76,0s1.37,1.36,2,2a.45.45,0,0,0,.63.12C40.19,33.63,40.49,33.52,40.73,33.41Zm-22.87-4,5.08,5.1L24,33.39,19,28.32Zm36.68.11c-.33.34-.86,1-1.47,1.49s-.33,1.23-.32,1.84c0,.16.5.32.79.46s.75.35,1.13.5c.12,0,.33.07.4,0,.71-.69,1.41-1.39,2-2Zm-21.16-9,2.44-2.7a5.21,5.21,0,0,0-4.44.72Zm-9.2,10.11,1.18-1.16L23,27.11l-1.24,1.1ZM26.65,58a.87.87,0,0,0,.92-.86.87.87,0,0,0-.9-.87.89.89,0,0,0-.9.83A.88.88,0,0,0,26.65,58Z"/><path d="M47.6,58.44a9.09,9.09,0,1,1,4.08-17l.1.06c.73.42.94.92.62,1.45s-.82.55-1.53.15a7.19,7.19,0,1,0,2.67,2.68,2.13,2.13,0,0,1-.27-.62.82.82,0,0,1,.53-1,.81.81,0,0,1,1.12.37,15.29,15.29,0,0,1,1.24,3.18,9,9,0,0,1-6.93,10.53A13.08,13.08,0,0,1,47.6,58.44Z"/></svg>