<svg id="Layer_1" data-name="Layer 1" xmlns="http://www.w3.org/2000/svg" viewBox="0 0 85.04 85.04"><defs><style>.cls-1{fill:#fff;}</style></defs><path d="M61.66,43.9l.48.45,2.45-2.46c.62-.62,1.09-.59,1.64.1a4.65,4.65,0,0,1-.15,5.45,3,3,0,0,0-.71,2.34c0,.19,0,.37,0,.62h.72a.81.81,0,0,1,.91.91V65.64c0,.77-.26,1-1,1H19.26c-.8,0-1.05-.25-1.05-1.07V51.47c0-.82.25-1.07,1.05-1.07h2.86a21.43,21.43,0,0,0,.8-2.47,16.22,16.22,0,0,0,.17-2.42c0-.26,0-.51,0-.76A.79.79,0,0,1,24,43.9h.74V39H21.48v9.7H19.84v-20c0-.81.25-1.06,1.05-1.06h12V20.36a2.36,2.36,0,0,1,2.48-2.49H49.86a2.37,2.37,0,0,1,2.5,2.52v7.22h4v1.65H29.79c.19,1,.39,1.9.55,2.83a1.19,1.19,0,0,1-.05.82c-1,1.37-.66,2.91-.69,4.45h4.06V33.65c0-.92.22-1.14,1.13-1.14h4.55c.08-.42.14-.81.22-1.2s.39-.79.92-.72c1.11.14,2.21.31,3.3.52a.82.82,0,0,1,.54.47c.1.46.41.48.77.53,2.22.34,4.45.64,6.65,1.06a5.64,5.64,0,0,1,4.54,4.19h7.43v-8.1H58v-1.6l.41,0h5.94c.71,0,1,.27,1,1V38c0,.73-.27,1-1,1H62.69a16.08,16.08,0,0,1,1.47.9c.56.43.56.91,0,1.42ZM65.34,65V52.07H19.87v1.6H63.71V55.3H57.24v.53c0,1.15,0,2.3,0,3.46a.77.77,0,0,1-.79.86H49.9a.71.71,0,0,1-.76-.62c0-.87,0-1.74,0-2.61h1.62v1.56h4.84V55.31H29.64v3.2h4.85V57H36.1c0,.82,0,1.6,0,2.37a.79.79,0,0,1-.87.84H28.82A.79.79,0,0,1,28,59.3c0-1.06,0-2.13,0-3.2v-.78h-8.1V65ZM36.89,43.89v1.64H35.32v1.65h1.56v1.61H35.31v1.58h4.86v-.52c0-3.51,0-7,0-10.51,0-.43-.08-.62-.56-.66-1-.09-1.16-.43-1-1.4s.31-2.06.47-3.11H35.33v6.49h1.55V42.3H35.32v1.59Zm14.53-4.17c-.18,1.17-.35,2.28-.53,3.4-.22,1.38-.45,2.77-.65,4.15a.65.65,0,0,0,.14.51,1,1,0,0,1,.43,1.15c-.08.47-.15,1-.23,1.47a4.65,4.65,0,0,1,.66,0,1.42,1.42,0,0,0,1.32-.54c1-1,2-2,3-3.06a2.66,2.66,0,0,0,.82-2v-.87a4.76,4.76,0,0,1,1-2.88,5.31,5.31,0,0,1,3.06-2h-4c-.2,1.28-.36,1.4-1.62,1.2Zm-16.94-17H50.7a.53.53,0,0,0,0-.13c0-.64,0-1.29,0-1.93,0-.93-.24-1.16-1.18-1.16H35.65c-.12,0-.24,0-.36,0a.79.79,0,0,0-.81.8C34.46,21.1,34.48,21.89,34.48,22.72Zm-.84,16.33h-4V43.9H30c1.08,0,1.23.17,1.25,1.27a15.35,15.35,0,0,0,.13,2.63,21.16,21.16,0,0,0,.82,2.57h1.46ZM54.32,50.4a5.74,5.74,0,0,1,1,0A2.68,2.68,0,0,0,58,49.28,3.45,3.45,0,0,1,60.28,48,12.47,12.47,0,0,1,61.9,48a3.59,3.59,0,0,0,2.18-.72,3.29,3.29,0,0,0,1.1-3.62c-.78.79-1.55,1.57-2.33,2.34-.53.52-.92.53-1.44,0l-1.22-1.22c-.72-.71-.71-1,0-1.72l2.24-2.24a3.39,3.39,0,0,0-4.28,2.47,8.13,8.13,0,0,0-.1,1.56A4.13,4.13,0,0,1,56.75,48C56,48.76,55.2,49.52,54.32,50.4ZM44.15,33.63l-.5,3.19,11.09,1.74a4,4,0,0,0-3.54-3.82C48.88,34.39,46.56,34,44.15,33.63Zm3.31-9.22h-9.7v3.18h9.7ZM28,43.87V43.3q0-4.47,0-8.94a1.53,1.53,0,0,1,.17-.77A2.79,2.79,0,0,0,28.46,31c0-.1-.05-.2-.07-.3-.1-.46-.06-1.1-.35-1.33s-.92-.09-1.41-.11c0,0-.08,0-.1,0s-.34.2-.38.34c-.17.75-.34,1.51-.45,2.28a1.61,1.61,0,0,0,.13.95,4.51,4.51,0,0,1,.53,2.28c0,2.74,0,5.49,0,8.23v.53Zm2.52,6.51a8.87,8.87,0,0,1-.85-4.83h-5a8.73,8.73,0,0,1-.84,4.83Zm18-2.91,1.26-8L46.6,39l-1.25,8ZM24.71,37.37c0-1.54.28-3.08-.69-4.45a1.28,1.28,0,0,1-.05-.83c.16-.93.36-1.85.55-2.79h-3v8.07Zm19,9.3,1.25-8c-.72,0-1.39-.52-2,.27-.16.22-.75.11-1.16.15V50.38c.49,0,.49,0,.56-.44.12-.75.22-1.5.34-2.25S43,46.83,43.72,46.67ZM41.06,32.33c-.24,1.54-.47,3-.68,4.5,0,.1.16.31.28.34.39.09.79.12,1.23.18l.75-4.77ZM44,50.38H48.9l.16-1.16-4.78-.74Zm-9.48-26V27.6h1.55V24.39Zm14.63,0v3.19h1.57V24.4ZM63.73,49.45,61,49.59a2.37,2.37,0,0,0-1.76.78h4.45Z"/><path class="cls-1" d="M30.49,50.38H23.82a8.73,8.73,0,0,0,.84-4.83h5A8.87,8.87,0,0,0,30.49,50.38Z"/></svg>