<svg id="Layer_1" data-name="Layer 1" xmlns="http://www.w3.org/2000/svg" viewBox="0 0 85.04 85.04"><path d="M69.28,63.25a11.48,11.48,0,0,1-.88,2,4.6,4.6,0,0,1-4.1,2H36.55c-5.13,0-10.25,0-15.38,0a4.58,4.58,0,0,1-4.42-2.59,4.53,4.53,0,0,1,.15-4.45q1.67-3,3.31-6,9.11-16.48,18.2-33a4.89,4.89,0,0,1,7.2-1.74A5.62,5.62,0,0,1,47,21.07Q57.84,40.58,68.62,60.14a15.09,15.09,0,0,1,.66,1.66ZM42.76,64.92h21.8A2.36,2.36,0,0,0,67,63.17a2.74,2.74,0,0,0-.35-2.08c-2.29-4.11-4.55-8.23-6.83-12.34L45.19,22.33A2.88,2.88,0,0,0,43.93,21a2.63,2.63,0,0,0-3.55,1.27L27.88,44.89Q23.43,52.94,19,61a2.89,2.89,0,0,0-.4,2.18,2.39,2.39,0,0,0,2.5,1.75Z"/><path d="M45.54,45h4.71a1.17,1.17,0,0,1,1,2l-4.41,5.15q-4.27,5-8.53,9.94a1.2,1.2,0,0,1-1.45.48A1.14,1.14,0,0,1,36.28,61c.73-1.84,1.47-3.67,2.21-5.51L40,51.7H35.29c-1.13,0-1.6-.67-1.22-1.74q2.67-7.49,5.35-15a1.23,1.23,0,0,1,1.42-1c2.4,0,4.8,0,7.2,0,1.16,0,1.61.71,1.18,1.79l-3.48,8.73ZM40.9,55.52l.07,0,7.09-8.27h-3.9c-1.18,0-1.66-.7-1.22-1.8l3.48-8.72.21-.54H41.34L36.61,49.48h5A1.09,1.09,0,0,1,42.67,51c-.22.6-.47,1.18-.7,1.78C41.61,53.71,41.25,54.61,40.9,55.52Z"/></svg>