<svg id="Layer_1" data-name="Layer 1" xmlns="http://www.w3.org/2000/svg" viewBox="0 0 85.04 85.04"><path d="M23.42,15.92v-5.1c0-1.26.28-1.54,1.53-1.54H65.59c1.28,0,1.57.3,1.57,1.59V46.64a1.53,1.53,0,0,0,.32.13,3.34,3.34,0,0,1,2.9,3.6q0,10.4,0,20.79c0,.59,0,1.18,0,1.77a3.32,3.32,0,0,1-3.44,3.4q-24.79,0-49.6,0a3.28,3.28,0,0,1-3.44-3.39q0-14.74,0-29.51a6.36,6.36,0,0,1,4.26-6,.86.86,0,0,0,.68-1c0-6.29,0-12.57,0-18.85,0-1.37.27-1.64,1.6-1.64ZM42.06,74.21H66.55c1.4,0,1.72-.32,1.72-1.72V50.62c0-1.45-.35-1.79-1.84-1.79H54.53c-1.08,0-1.4-.33-1.41-1.44V43.76a4.37,4.37,0,0,0-4.67-4.68H20.71A4.37,4.37,0,0,0,16,43.81q0,14.32,0,28.67c0,1.4.32,1.73,1.71,1.73Zm18.14-48H53.39c-1.08,0-1.45-.37-1.46-1.44,0-1.59,0-3.19,0-4.79V18.09H21V37H48.53A6.37,6.37,0,0,1,55,42a23.52,23.52,0,0,1,.23,3.76c0,.32,0,.65,0,.94h5ZM25.54,15.92h1q13,0,26,0a1.94,1.94,0,0,1,1.5.62q3.76,3.76,7.58,7.49a2.18,2.18,0,0,1,.72,1.7c0,6.67,0,13.34,0,20v.93H65V11.45H25.54Zm28.53,8.13h4.15l-4.15-4.32Z"/><path d="M47.3,68.11c-.33.3-.61.72-1,.87a.9.9,0,0,1-1.17-.62c-.31-.78-.59-1.59-.84-2.39a.68.68,0,0,0-.78-.55c-1.54,0-3.09,0-4.63,0-.43,0-.66.11-.78.53-.24.76-.51,1.51-.79,2.26a1.05,1.05,0,1,1-2-.7q2.38-6.83,4.83-13.65a1.39,1.39,0,0,1,1-.79,1.34,1.34,0,0,1,1,.7c1.67,4.58,3.28,9.19,4.9,13.79,0,.12,0,.25.08.38Zm-4-4.79-2.07-5.85-.18,0-2,5.81Z"/><path d="M54.55,63c-.5.83-1,1.59-1.42,2.35-.57,1-1.13,1.91-1.7,2.85-.44.72-1,.9-1.53.58s-.68-.95-.25-1.68c1.11-1.88,2.22-3.77,3.36-5.63a.92.92,0,0,0,0-1.11c-1.14-1.86-2.24-3.75-3.37-5.63a1.16,1.16,0,0,1,0-1.49,1.05,1.05,0,0,1,1.74.3c.92,1.52,1.82,3,2.73,4.57.13.22.27.43.46.72L57.44,54a4.53,4.53,0,0,1,.41-.66,1,1,0,0,1,1.74,1.11c-.44.79-.91,1.56-1.37,2.33-.66,1.11-1.27,2.24-2,3.31a1.31,1.31,0,0,0,0,1.65c1.07,1.73,2.1,3.48,3.12,5.24.17.28.4.66.32.91a1.76,1.76,0,0,1-.75.94c-.5.26-.93-.07-1.21-.53-.92-1.52-1.82-3-2.74-4.57Z"/><path d="M28.55,55c-1,0-1.87,0-2.75,0s-1.26-.43-1.26-1,.49-1.06,1.26-1.06h7.65a1.12,1.12,0,0,1,1.23,1A1.11,1.11,0,0,1,33.45,55c-.9,0-1.79,0-2.78,0V67.32a2.76,2.76,0,0,1-.05.76A1,1,0,0,1,28.57,68a4,4,0,0,1,0-.69V55Z"/><path d="M37.7,26.23H27.58c-.28,0-.64.05-.82-.1a2,2,0,0,1-.75-1,.91.91,0,0,1,.89-1,3.19,3.19,0,0,1,.62,0H47.91a4.87,4.87,0,0,1,.54,0,1,1,0,0,1,1,.93,1,1,0,0,1-.83,1.13,3.26,3.26,0,0,1-.77.05Z"/><path d="M32.37,32.6H27.28c-.8,0-1.27-.37-1.3-1s.47-1.09,1.29-1.1q5.09,0,10.17,0c.85,0,1.31.42,1.29,1.09s-.44,1-1.27,1Z"/><path d="M45.47,32.6H42.7a1,1,0,0,1-1.16-1,1,1,0,0,1,1.11-1.11c1.9,0,3.79,0,5.69,0a1,1,0,0,1,1.07,1.06c0,.64-.41,1-1.17,1Z"/></svg>