<svg id="Layer_1" data-name="Layer 1" xmlns="http://www.w3.org/2000/svg" viewBox="0 0 85.04 85.04"><path d="M7.78,36.78a2.77,2.77,0,0,1,.75-.51c.74-.22,1.26.33,1.26,1.28,0,6.45,0,12.91,0,19.37a4.74,4.74,0,0,0,2.75,4.5,6.63,6.63,0,0,0,2.71.62c3.83.07,7.66,0,11.5,0H69.13a5.13,5.13,0,0,0,5.26-3.66,5.86,5.86,0,0,0,.24-1.72q0-14,0-28a5.15,5.15,0,0,0-5.36-5.39h-16c-1.1,0-1.56-.31-1.54-1s.48-1,1.53-1c5.32,0,10.63,0,15.94,0a7.13,7.13,0,0,1,7.37,6.1,6,6,0,0,1,.07,1.2q0,14.06,0,28.11a7.14,7.14,0,0,1-7.34,7.35H22.57c-2.42,0-4.85,0-7.27,0a7.21,7.21,0,0,1-7.41-5.9c0-.06-.07-.11-.11-.16Z"/><path d="M7.78,27.36c.11-.35.21-.71.32-1.07a7.15,7.15,0,0,1,6.73-5q16.56,0,33.13,0c.77,0,1.24.4,1.24,1s-.46,1-1.25,1H15.29A5.13,5.13,0,0,0,10,27.06a9.92,9.92,0,0,0-.21,2.32c0,1,0,1.93,0,2.89,0,.58-.09,1.07-.71,1.29s-1-.15-1.3-.55Z"/><path d="M35.34,39.54V28.59a1.15,1.15,0,0,1,.51-1.16,1,1,0,0,1,1.49.74,4,4,0,0,1,0,.6V50.21a3.11,3.11,0,0,1,0,.61,1,1,0,0,1-1,.87,1,1,0,0,1-1-1c0-1.56,0-3.13,0-4.7Z"/><path d="M19.62,39.46q0-5.48,0-10.95c0-.55.14-1,.71-1.15a1,1,0,0,1,1.29.82,4,4,0,0,1,0,.6V50.22c0,.11,0,.23,0,.34a1,1,0,0,1-1.05,1.14,1,1,0,0,1-.95-1.15c0-1.95,0-3.9,0-5.85Z"/><path d="M30.62,37.46c0-3,0-5.91,0-8.87a1.63,1.63,0,0,1,.4-1.07,1,1,0,0,1,1.54.53,2.52,2.52,0,0,1,.06.73q0,8.7,0,17.41c0,.16,0,.32,0,.47a1,1,0,0,1-1.05,1,1,1,0,0,1-1-1.06c0-1.88,0-3.77,0-5.65Z"/><path d="M26.34,37.52q0,4.47,0,8.94c0,.75-.36,1.19-1,1.21a1,1,0,0,1-1-1.13c0-1.41,0-2.82,0-4.24,0-4.57,0-9.14,0-13.71,0-.57.11-1,.71-1.23s1.3.27,1.3,1.15C26.34,31.51,26.34,34.52,26.34,37.52Z"/><path d="M29.48,37.52v8.61c0,.24.06.55-.06.72s-.54.73-.85.77a1.5,1.5,0,0,1-1-.58c-.16-.17-.13-.55-.13-.84q0-8.7,0-17.41a2.59,2.59,0,0,1,.09-.79,1,1,0,0,1,1.91.17,6.19,6.19,0,0,1,0,.74Z"/><path d="M40.06,37.48V28.6c0-.85.36-1.31,1-1.3s1,.49,1,1.33q0,8.88,0,17.75c0,.57-.13,1.11-.71,1.22a1.67,1.67,0,0,1-1.11-.37c-.17-.13-.19-.53-.19-.81C40.05,43.44,40.06,40.46,40.06,37.48Z"/><path d="M46.78,37.51v8.75a3.11,3.11,0,0,1,0,.53,1,1,0,0,1-2,0,3.55,3.55,0,0,1,0-.73V28.46c0-.72.42-1.17,1-1.15a1,1,0,0,1,1,1.12c0,1.31,0,2.61,0,3.91Z"/><path d="M49.48,37.52v-9c0-.8.45-1.26,1.12-1.19a1,1,0,0,1,.89,1.13c0,2.06,0,4.13,0,6.19V46.47c0,.77-.4,1.22-1,1.2s-1-.46-1-1.21Z"/><path d="M56.21,37.52v8.61c0,.2,0,.4,0,.6a.92.92,0,0,1-.88.93,1,1,0,0,1-1.09-.78,2.45,2.45,0,0,1,0-.61q0-8.77,0-17.55c0-.13,0-.27,0-.4a1,1,0,0,1,1-1,1,1,0,0,1,1,1.06c0,1.95,0,3.9,0,5.85Z"/><path d="M57.28,37.47c0-3,0-5.92,0-8.88a1.45,1.45,0,0,1,.31-1,1.18,1.18,0,0,1,1-.23c.28.09.51.44.7.72.08.12,0,.35,0,.53,0,5.89,0,11.79,0,17.68a2.43,2.43,0,0,1,0,.27,1,1,0,1,1-2,0c0-1.21,0-2.42,0-3.63Z"/><path d="M18.94,54.31c0,.49,0,1,0,1.48a2.83,2.83,0,0,1-2.65,2.78,2.76,2.76,0,0,1-3-2.59,32.7,32.7,0,0,1,0-3.43,2.76,2.76,0,0,1,3-2.59,2.84,2.84,0,0,1,2.71,2.8C19,53.28,18.94,53.79,18.94,54.31Zm-2,0c0-.49,0-1,0-1.47a.78.78,0,0,0-.83-.85c-.53,0-.8.33-.8.87v2.81c0,.53.25.87.78.88s.84-.36.85-.9S16.93,54.76,16.93,54.31Z"/><path d="M45.43,54.26c0-.54,0-1.08,0-1.61a2.83,2.83,0,0,1,5.65,0c0,1.07,0,2.15,0,3.22a2.83,2.83,0,0,1-5.65,0c0-.56,0-1.12,0-1.68Zm3.65,0V52.9c0-.56-.27-.92-.84-.91a.77.77,0,0,0-.79.88c0,.93,0,1.87,0,2.81a.76.76,0,0,0,.8.87.77.77,0,0,0,.83-.84C49.09,55.24,49.08,54.77,49.08,54.3Z"/><path d="M44.24,54.29c0,.52,0,1,0,1.55a2.83,2.83,0,0,1-5.65,0c0-1.08,0-2.15,0-3.23a2.82,2.82,0,0,1,5.64,0c0,.56,0,1.12,0,1.68Zm-2,0c0-.46,0-.93,0-1.4S42,52,41.38,52a.77.77,0,0,0-.79.88v2.82a.82.82,0,1,0,1.63,0C42.23,55.23,42.22,54.76,42.22,54.29Z"/><path d="M68.6,56.44h1.18a1,1,0,0,1,1.1,1c0,.62-.38,1-1.09,1-1,0-2,0-3,0-.49,0-1-.08-1.08-.58A1.78,1.78,0,0,1,66,56.64c.6-.94,1.31-1.81,2-2.72a7.42,7.42,0,0,0,.58-1,.55.55,0,0,0-.23-.85c-.42-.2-.68,0-.86.38a2.43,2.43,0,0,1-.16.37.93.93,0,0,1-1.22.39,1,1,0,0,1-.61-1.14,2.65,2.65,0,0,1,3.13-2,2.54,2.54,0,0,1,2,3.26,9.71,9.71,0,0,1-.94,1.77C69.3,55.51,69,55.91,68.6,56.44Z"/><path d="M30,55.7l-.79-.25A2.85,2.85,0,0,1,30.69,50a2.77,2.77,0,0,1,2.37,2.81A7.13,7.13,0,0,1,30.48,58a1,1,0,1,1-1.31-1.52C29.4,56.22,29.67,56,30,55.7Zm1-3c-.07-.47-.3-.78-.82-.78a.75.75,0,0,0-.81.79.78.78,0,0,0,.84.83A.8.8,0,0,0,31.06,52.75Z"/><path d="M64.13,33.42c0,1.63,0,3.26,0,4.9,0,.77-.4,1.25-1,1.25s-1-.48-1-1.25V28.51c0-.75.37-1.18,1-1.2s1,.44,1,1.2C64.14,30.15,64.13,31.78,64.13,33.42Z"/><path d="M54.88,52c-.66,0-1.22,0-1.77,0-.72,0-1.19-.43-1.19-1a1.07,1.07,0,0,1,1.17-1c1,0,2.11,0,3.16,0s1.43.67,1,1.58c-.87,2-1.77,4-2.67,6.06-.3.69-.83.92-1.38.66a1,1,0,0,1-.45-1.48C53.46,55.28,54.15,53.73,54.88,52Z"/><path d="M64.13,46.86c0,1.21,0,2.43,0,3.64,0,.73-.38,1.18-1,1.2s-1-.46-1-1.22V43.15c0-.78.4-1.25,1-1.24s1,.48,1,1.26C64.14,44.4,64.13,45.63,64.13,46.86Z"/><path d="M24.34,52.18c-.33-.08-.66-.07-.78-.22-.25-.3-.56-.72-.51-1a1.28,1.28,0,0,1,.83-.79,4.76,4.76,0,0,1,1.6,0,.87.87,0,0,1,.86.93q0,3.23,0,6.45a.92.92,0,0,1-1,.95,1,1,0,0,1-1-1.09c0-1.48,0-3,0-4.43Z"/></svg>