<svg id="Layer_1" data-name="Layer 1" xmlns="http://www.w3.org/2000/svg" viewBox="0 0 85.04 85.04"><path d="M58.66,65.81l.12,0a.34.34,0,0,1,.13,0h6.14A4,4,0,0,0,69,62.51a10.42,10.42,0,0,0,.12-1.4c0-.23,0-.47,0-.72v-.12h1.14c.9,0,1.25-.37,1.25-1.26q0-2.64,0-5.28a5.26,5.26,0,0,0-5.43-5.39H62.81v-.13c0-.57,0-1.13.07-1.68a24.12,24.12,0,0,1,.31-3.75,17,17,0,0,1,1-3c.18-.47.37-1,.53-1.43a8.32,8.32,0,0,0-.4-7.06,7.76,7.76,0,0,0-5.63-3.95l-.1,0v-.77c0-.63,0-1.25,0-1.87,0-1.34,0-2.72,0-4.08a1.77,1.77,0,0,0-2-1.92h-3V17a1.85,1.85,0,0,0-2.09-2.11H16.7c-1.44,0-2.11.68-2.11,2.14V27c0,12,0,24.38,0,36.57a2.2,2.2,0,0,0,.66,1.67,1.94,1.94,0,0,0,1.51.48c.33,0,.67,0,1,0H19.5v.13c0,.29,0,.57,0,.84,0,.59,0,1.15,0,1.71A1.85,1.85,0,0,0,20,69.87a2.25,2.25,0,0,0,1.63.67h0c8.71,0,17.57,0,26.14,0H56.5a3.69,3.69,0,0,0,.58,0,1.8,1.8,0,0,0,1.48-1.86c0-.63,0-1.26,0-1.88v-.91Zm7.5-15.31a3.07,3.07,0,0,1,3.08,2.21l0,0a1.28,1.28,0,0,1,.07.34v5H45.63V58c0-.49,0-1,0-1.46,0-1.1,0-2.24,0-3.34a3,3,0,0,1,2.66-2.64,3.84,3.84,0,0,1,.5,0H66.16ZM54.21,48.3v-5l.11,0a19.35,19.35,0,0,1,6.35,0h.1V48.3Zm-.54-27.47h2.72v6.39l-2.72.88Zm-.91,11.1a5.67,5.67,0,0,1,3.64-2.47,5.54,5.54,0,0,1,4.22.86A5.62,5.62,0,0,1,63,34a7.14,7.14,0,0,1-.45,3.91c-.28.75-.57,1.49-.85,2.2l-.37.94h-.08l-1.33,0c-1,0-1.95-.08-2.91-.08h-.09a13.82,13.82,0,0,0-1.58.11c-.36,0-.73.07-1.1.09h0c-.22,0-.6-.1-.68-.31-.13-.36-.27-.73-.41-1.09A27.58,27.58,0,0,1,52,36.14,5.5,5.5,0,0,1,52.76,31.93Zm-36,31.61V17.09H51.52v9.18c0,1.09,0,2.17,0,3.26a1.18,1.18,0,0,1-.17.7c-1.8,2.43-2.1,5.19-.93,8.43.13.37.28.75.43,1.12a14.59,14.59,0,0,1,.94,2.94,27.56,27.56,0,0,1,.3,3.79c0,.56.05,1.13.08,1.7v.13H48.94a5.29,5.29,0,0,0-5.5,5.52c0,1.68,0,3.35,0,5,0,1,.35,1.37,1.4,1.38h1l.35,3.26Zm39.64,4.77H21.69V65.8H56.41Zm1.5-4.73H50.32c-1.59,0-2.24-.65-2.24-2.23v-1H66.87v.13c0,.17,0,.34,0,.5a9.46,9.46,0,0,1,0,1.07,1.71,1.71,0,0,1-1.76,1.55H57.91Z"/><path d="M30.81,40.49h0a9.92,9.92,0,0,0-10,10,10,10,0,0,0,9.78,10h.06a10,10,0,0,0,7.24-17A9.8,9.8,0,0,0,30.81,40.49ZM30.7,58.32h-.05a7.85,7.85,0,0,1-7.82-7.86,7.87,7.87,0,0,1,7.86-7.8h.07a7.83,7.83,0,0,1-.06,15.66Z"/><path d="M20.42,27.64a.94.94,0,0,0,.23.76,1.39,1.39,0,0,0,1.06.41H46.55a1.38,1.38,0,0,0,1-.37,1,1,0,0,0,.28-.72,1.15,1.15,0,0,0-1.24-1.08H21.5A1.1,1.1,0,0,0,20.42,27.64Z"/><path d="M47.19,21.3a2,2,0,0,0-.67-.1H21.38a1,1,0,0,0-.92.8,1,1,0,0,0,.14.86,1.3,1.3,0,0,0,1,.44h25.2a1.06,1.06,0,0,0,1-.9A1,1,0,0,0,47.19,21.3Z"/><path d="M20.65,33.88a1.82,1.82,0,0,0,1.33.39H46.27a4.17,4.17,0,0,0,.71,0,1.07,1.07,0,0,0,.84-1.07,1.08,1.08,0,0,0-.91-1,4.47,4.47,0,0,0-.52,0H22c-1,0-1.54.34-1.55,1A.91.91,0,0,0,20.65,33.88Z"/><path d="M30.7,46.28h0a4.21,4.21,0,0,0,0,8.42h0a4.21,4.21,0,0,0,0-8.42Zm0,6.24h0a2,2,0,0,1-2-2.05,2,2,0,0,1,2-2h0a2.13,2.13,0,0,1,1.48.62,2,2,0,0,1,.59,1.44A2,2,0,0,1,30.71,52.52Z"/></svg>