<svg id="Layer_1" data-name="Layer 1" xmlns="http://www.w3.org/2000/svg" viewBox="0 0 85.04 85.04"><path d="M19.68,54.47H17.59V27.86a5.78,5.78,0,0,0,0-.72,1,1,0,0,0-1-1,1,1,0,0,0-1,1,5.77,5.77,0,0,0,0,.72V54.47H13.35a1.25,1.25,0,0,0-1.24.59,1.19,1.19,0,0,0,.17,1.3c1.07,1.71,2.13,3.43,3.2,5.13.64,1,1.47,1,2.11,0l3.17-5.08A1.22,1.22,0,0,0,20.93,55,1.26,1.26,0,0,0,19.68,54.47Zm-3.15,4.66L15,56.67h3.05C17.55,57.49,17.06,58.28,16.53,59.13Z"/><path d="M17.59,13c-.64-1-1.48-1-2.12,0l-3.2,5.13a1.2,1.2,0,0,0-.16,1.3,1.25,1.25,0,0,0,1.25.58h2.08c0,.26,0,.46,0,.66,0,1.27,0,2.54,0,3.81a1,1,0,0,0,1,1,1.06,1.06,0,0,0,1-1,8,8,0,0,0,0-.85V20h2.16a1.13,1.13,0,0,0,1-1.87ZM15,17.82c.51-.83,1-1.61,1.52-2.45l1.52,2.45Z"/><path d="M73.11,67.81l-5-3.11a1.23,1.23,0,0,0-1.34-.21,1.26,1.26,0,0,0-.59,1.28c0,.67,0,1.34,0,2H32.08c0-.71,0-1.37,0-2a1.26,1.26,0,0,0-.57-1.24,1.21,1.21,0,0,0-1.34.17l-4.93,3.07c-1.15.72-1.16,1.52,0,2.23,1.81,1.14,3.62,2.26,5.44,3.39h.72a1.5,1.5,0,0,0,.7-1.47c0-.63,0-1.27,0-1.94H66.2c0,.65,0,1.3,0,2a1.49,1.49,0,0,0,.72,1.46h.72c1.74-1.09,3.49-2.17,5.23-3.28a12.65,12.65,0,0,0,1-.8v-.84A7.79,7.79,0,0,0,73.11,67.81Zm-43.2,2.57c-.82-.5-1.6-1-2.44-1.51l2.44-1.51Zm38.46,0v-3l2.44,1.51Z"/><path d="M25.69,61.67H73.34V13H24.64V61.67h1.05ZM71.45,15V50.1H64.76c-5,0-10.06,0-15.1,0h0a6.66,6.66,0,0,1-6.71-5.32c-.53-3,.16-5.3,2.09-7a4.23,4.23,0,0,1,2.73-1c.53,0,1.06,0,1.58,0,.67,0,1.37,0,2.06-.06a7.36,7.36,0,0,0,.86-14.53A9.58,9.58,0,0,0,50.54,22c-.38,0-.77,0-1.15-.06l-.44,0a9.58,9.58,0,0,1-2.21-.4c-1.83-.65-3-2.11-3.62-4.46-.12-.48-.2-1-.28-1.48,0-.19-.07-.38-.1-.58ZM26.62,15H40.77L41,16a19.55,19.55,0,0,0,.59,2.4,7.33,7.33,0,0,0,5.81,5.25,13.77,13.77,0,0,0,2.4.16h.81a5.47,5.47,0,0,1,4.07,1.77A5.2,5.2,0,0,1,55.87,31a5.12,5.12,0,0,1-4.26,3.69,13.9,13.9,0,0,1-2.24.11h-.94a7.76,7.76,0,0,0-3.39.73,6.89,6.89,0,0,0-3.51,4,9.26,9.26,0,0,0,.09,7.39A8.34,8.34,0,0,0,49.7,52c5,0,10.11,0,15,0h6.72v7.76H26.62Z"/><path d="M37.94,34.41h1.4v3h1.75v-3l.57,0a6.67,6.67,0,0,0,1.42,0,3.71,3.71,0,0,0,3.15-2.77,3.8,3.8,0,0,0-1.14-4,.67.67,0,0,1-.21-.38,4.66,4.66,0,0,0-4.7-4.4h0a4.66,4.66,0,0,0-4.62,4.39.65.65,0,0,1-.18.36,3.92,3.92,0,0,0-1.06,4.39A4,4,0,0,0,37.94,34.41Zm-1.31-5.56a1.49,1.49,0,0,0,.7-1.44A2.86,2.86,0,0,1,40,24.57h.24A2.92,2.92,0,0,1,43,26.8l0,.11a1.47,1.47,0,0,1,.05.54,1.19,1.19,0,0,0,.63,1.34,2.07,2.07,0,0,1,.8,2.32,2.16,2.16,0,0,1-2,1.52c-.35,0-.71,0-1.06,0h-.38c-.17-.77-.11-.85.54-1.29l1.18-.78.08-.08a.23.23,0,0,1,0-.07l.06-.07-.94-1.41-1,.64V28.11H39.35v1.48l-1-.66-1,1.47.11.07.39.28a5.36,5.36,0,0,0,.9.56c.6.28.68.72.57,1.36l-.54,0a6.67,6.67,0,0,1-1.41-.13,1.93,1.93,0,0,1-1.51-1.68A1.9,1.9,0,0,1,36.63,28.85Z"/><path d="M38.51,46a4.81,4.81,0,0,0-4.86-3.83h-.3a4.91,4.91,0,0,0-4.43,4.35,1,1,0,0,1-.35.75,4,4,0,0,0-1,4.44,4.1,4.1,0,0,0,3.77,2.54h1.49v3.14h1.79V54.27h1.47a3.86,3.86,0,0,0,3.68-2.35,3.74,3.74,0,0,0-.55-4.27A3.28,3.28,0,0,1,38.51,46Zm-.27,4.89a2.14,2.14,0,0,1-1.94,1.52,9,9,0,0,1-1.17,0h-.46v-.14a2.14,2.14,0,0,1,0-.51.68.68,0,0,1,.22-.42c.39-.29.8-.56,1.22-.85l.52-.34.1-.07-1-1.52-1,.66v-1.5H32.86v1.52l-1.07-.68-.07.1L30.84,50l-.07.1.11.07.42.3a6,6,0,0,0,.94.6c.56.26.72.65.57,1.4l-.52,0a9.19,9.19,0,0,1-1.39-.1,2,2,0,0,1-1.67-1.67A2,2,0,0,1,30,48.5,1.61,1.61,0,0,0,30.76,47,3,3,0,0,1,33.57,44h.23a3.06,3.06,0,0,1,2.9,2.35s0,.1,0,.14a.65.65,0,0,1,0,.29c-.2.87.28,1.35.87,1.83A2,2,0,0,1,38.24,50.9Z"/><path d="M63,23.37a5.3,5.3,0,0,0,.83.21l.32.07v2.72h1.64V23.63l.24,0a4.54,4.54,0,0,0,.66-.14,3.68,3.68,0,0,0,2.54-4.3.92.92,0,0,0-.67-.64,5.38,5.38,0,0,0-1.46,0,3.53,3.53,0,0,0-2.15,1.25l0,0c-.07-.08-.13-.16-.2-.23a3.59,3.59,0,0,0-2.54-1.07c-.71,0-1.09,0-1.31.23s-.23.6-.22,1.31A3.54,3.54,0,0,0,63,23.37Zm4.58-3.21a1.9,1.9,0,0,1-.66,1.32,1.51,1.51,0,0,1-1.11.43A1.88,1.88,0,0,1,67.56,20.16Zm-5.17,0a1.48,1.48,0,0,1,.9.32,2.19,2.19,0,0,1,.8,1.43,1.9,1.9,0,0,1-1.78-1.75Z"/><path d="M56.65,40.66a2.29,2.29,0,0,0-.89-.91,2.63,2.63,0,0,0-1.3-.3,3,3,0,0,0-1.32.29,3.58,3.58,0,0,0-1.11.92v-.19a1,1,0,0,0-.27-.76,1,1,0,0,0-.69-.27.84.84,0,0,0-.68.29,1.21,1.21,0,0,0-.26.86v5.72a1.34,1.34,0,0,0,.29.94,1,1,0,0,0,.74.32.93.93,0,0,0,.74-.32,1.39,1.39,0,0,0,.29-.94V43.6a4.7,4.7,0,0,1,.31-1.93A1.26,1.26,0,0,1,53.79,41a.88.88,0,0,1,.72.26,1.35,1.35,0,0,1,.28.69,11.39,11.39,0,0,1,.05,1.17v3.19a1.35,1.35,0,0,0,.28.94.94.94,0,0,0,.73.32,1,1,0,0,0,.76-.32,1.35,1.35,0,0,0,.28-.94V43.65a5.17,5.17,0,0,1,.22-1.79,1.7,1.7,0,0,1,.56-.63,1.28,1.28,0,0,1,.75-.23.93.93,0,0,1,.73.26,1.23,1.23,0,0,1,.3.65,9.15,9.15,0,0,1,0,1v3.37a1.39,1.39,0,0,0,.29.94,1,1,0,0,0,.74.32,1,1,0,0,0,.76-.32,1.35,1.35,0,0,0,.28-.94V42.4a4.25,4.25,0,0,0-.25-1.7,2.1,2.1,0,0,0-.89-.93A3,3,0,0,0,59,39.45a2.72,2.72,0,0,0-1.28.3A3.37,3.37,0,0,0,56.65,40.66Z"/><path d="M67.16,39.71a1.93,1.93,0,0,0-.35-.29,2.75,2.75,0,0,0,.35-.45,1.68,1.68,0,0,0,.23-.9,1.77,1.77,0,0,0-.15-.73,1.82,1.82,0,0,0-.46-.61,1.94,1.94,0,0,0-.71-.38,3,3,0,0,0-1.84,0,2.09,2.09,0,0,0-.75.42,2.15,2.15,0,0,0-.47.55,1.34,1.34,0,0,0-.17.61.76.76,0,0,0,1.1.7.59.59,0,0,0,.29-.27l.16-.36a1.6,1.6,0,0,1,.16-.27.46.46,0,0,1,.19-.13.81.81,0,0,1,.34,0,.61.61,0,0,1,.46.16.68.68,0,0,1,0,.92.85.85,0,0,1-.55.18h-.18a.93.93,0,0,0-.63.19.66.66,0,0,0-.26.54.67.67,0,0,0,.22.52.77.77,0,0,0,.55.19l.26,0h.25a.82.82,0,0,1,.61.21.9.9,0,0,1,.22.65.84.84,0,0,1-.13.48.92.92,0,0,1-.33.32.81.81,0,0,1-1-.11,2.68,2.68,0,0,1-.45-.84.6.6,0,0,0-.25-.3.8.8,0,0,0-1.21.71,1.53,1.53,0,0,0,.17.61,2.14,2.14,0,0,0,.46.66,2.31,2.31,0,0,0,.77.54,2.57,2.57,0,0,0,1.06.21,3,3,0,0,0,1-.18,2.6,2.6,0,0,0,.83-.52,2.31,2.31,0,0,0,.54-.75,2.25,2.25,0,0,0,.18-.89,1.89,1.89,0,0,0-.14-.72A1.77,1.77,0,0,0,67.16,39.71Z"/></svg>