<svg id="Layer_1" data-name="Layer 1" xmlns="http://www.w3.org/2000/svg" viewBox="0 0 85.04 85.04"><path d="M15.51,67.15h29v5.22c0,1.16.37,1.54,1.54,1.54H72.34c1.17,0,1.54-.38,1.54-1.55V46c0-1.18-.36-1.54-1.54-1.54H54.14l1.78-1.75c.58-.57,1.12-1.09,1.64-1.62a1.57,1.57,0,0,0,.57-1.29,1.59,1.59,0,0,0-1-1c-1-.45-2-.88-3-1.32l-2.42-1.08-1.53-.69-1.31-.6,1.29-1.28c.55-.55,1.07-1.08,1.62-1.58a2,2,0,0,0,.7-1.66c0-.88,0-1.77,0-2.7,0-.42,0-.85,0-1.31V25.15l1.22,1.56,11.21,13.1a1.21,1.21,0,0,0,2.15-.23,1.41,1.41,0,0,0-.33-1.35q-7.23-8.49-14.48-17a1.19,1.19,0,0,0-.89-.46,1.44,1.44,0,0,0-1,.45L49,22.55l-1.2,1.21-.44-.67a1.26,1.26,0,0,0-.11-.17L36.54,11.18a1.44,1.44,0,0,0-1.07-.52,1.34,1.34,0,0,0-1,.57l-2.76,3.48L22,26.8l-1-1.27q-.63-.86-1.26-1.68a1.74,1.74,0,0,0-1.12-.8,1.7,1.7,0,0,0-1.19.63l-2.1,2.1c-1.38,1.37-2.75,2.75-4.13,4.11a1.94,1.94,0,0,0-.62,1.52q0,11.85,0,23.7v7.21A4.53,4.53,0,0,0,15.51,67.15Zm56-20.25V71.47H46.9V46.9ZM36.67,19.19c0-.26,0-.53,0-.78V15l9.44,10.3L35.33,36.09l-3.59-2.87.55-.6.38-.41,6.72-6.72a1.9,1.9,0,0,0,.73-1.34c0-.37-.36-.75-1-1.15a6.08,6.08,0,0,0-.66-.4,3.69,3.69,0,0,1-1.62-1.33A3.73,3.73,0,0,1,36.67,19.19Zm3.18,34.05Q36.49,49.07,33.09,45a1.15,1.15,0,0,0-1.65-.25c-.83.45-1.66.92-2.49,1.39l-1.18.67-.51.28-.67.36-.43-.61-.32-.48-4.73-7.5c-.43-.68-.79-1-1.12-1.09s-.82.12-1.49.61l-5.25,3.75-.15-1a2,2,0,0,1,0-.39q0-4.23,0-8.45a1.38,1.38,0,0,1,.31-1C14.58,30,15.8,28.81,17,27.56l1.45-1.44,1,1.32c.47.63.93,1.25,1.4,1.86A1.51,1.51,0,0,0,22,30h0a1.53,1.53,0,0,0,1.09-.66L29.75,21l4.58-5.65V18.8c0,1,0,2,0,3a1.41,1.41,0,0,0,.73,1.38c.32.2.63.41,1,.64l.95.64-.62.65c-.13.14-.24.26-.36.37l-6.66,6.68a1.72,1.72,0,0,0-.66,1.21,1.67,1.67,0,0,0,.77,1.11l2.79,2.24,2.21,1.77c.93.75,1.38.72,2.22-.11L47.91,27.11l.15-.16a7.39,7.39,0,0,1,1.27-1.08l.77-.48v.9c0,.3,0,.6,0,.9,0,.67,0,1.37,0,2a2.48,2.48,0,0,1-.88,2.17c-.87.81-1.71,1.67-2.53,2.51l-.6.6a1.46,1.46,0,0,0-.51,1.25,1.44,1.44,0,0,0,.94,1l5.33,2.37,3,1.32-1.34,1.34c-.82.83-1.61,1.62-2.42,2.39a1.5,1.5,0,0,1-1,.32H45.8a1.17,1.17,0,0,0-1.33,1.33V64.77H15.78c-1.91,0-2.73-.83-2.73-2.76V58q0-6,0-11.93a1.59,1.59,0,0,1,.74-1.45c1.28-.88,2.55-1.79,3.83-2.72l1.78-1.27.54.82.5.77,4.5,7.14c.62,1,1.13,1.09,2.12.54l3.05-1.71,1.75-1,4.79,5.87c.44.54.87,1.08,1.32,1.61A1.21,1.21,0,0,0,39.7,55,1.19,1.19,0,0,0,39.85,53.24Z"/><path d="M60.49,66.57c.74.81,1.48,1.61,2.23,2.41a1.46,1.46,0,0,0,1,.47,1,1,0,0,0,.75-.31C65.59,68,66.76,66.74,68,65.3a1.14,1.14,0,0,0-.16-1.59,1.18,1.18,0,0,0-1.59,0A4.2,4.2,0,0,0,66,64l-1,.91V53.43l1.12,1c.69.65,1.31.7,1.85.16a1.29,1.29,0,0,0-.14-1.87l-.26-.28c-1-1-1.9-2.05-2.86-3.07a1.43,1.43,0,0,0-1-.47,1,1,0,0,0-.74.3c-1.18,1.19-2.4,2.5-3.61,3.9a1.13,1.13,0,0,0,.2,1.53,1.18,1.18,0,0,0,1.59,0l.33-.29,1-.92V64.9l-1-.81-.19-.17a1.66,1.66,0,0,0-1.07-.53,1.1,1.1,0,0,0-.78.37,1.29,1.29,0,0,0,.15,1.87Z"/><path d="M50.1,51.31a1.17,1.17,0,0,0,1.15,1.19H53.6a1.15,1.15,0,0,0,1.13-1.19,1.14,1.14,0,0,0-1.14-1.18c-.8,0-1.6,0-2.36,0A1.14,1.14,0,0,0,50.1,51.31Z"/><path d="M51.2,55.37a1.17,1.17,0,0,0-1.1,1.19,1.13,1.13,0,0,0,1.09,1.18,7.24,7.24,0,0,0,.81,0h.9a5.77,5.77,0,0,0,.72,0,1.14,1.14,0,0,0,1.11-1.17,1.17,1.17,0,0,0-1.07-1.21A16.83,16.83,0,0,0,51.2,55.37Z"/><path d="M51.28,60.64a1.14,1.14,0,0,0-1.18,1.22A1.21,1.21,0,0,0,51.36,63h1.41c.26,0,.52,0,.78,0a1.2,1.2,0,0,0,1.18-1.19,1.12,1.12,0,0,0-1.13-1.2A19.91,19.91,0,0,0,51.28,60.64Z"/><path d="M50.1,67.1a1.16,1.16,0,0,0,1.16,1.17h2.29a1.19,1.19,0,0,0,0-2.37c-.76,0-1.53,0-2.3,0A1.14,1.14,0,0,0,50.1,67.1Z"/></svg>