<svg id="Layer_1" data-name="Layer 1" xmlns="http://www.w3.org/2000/svg" viewBox="0 0 85.04 85.04"><path d="M58.48,68.93c0,1-.06,2,0,2.9a4.22,4.22,0,0,1-4.39,4.42c-6.41-.06-12.82,0-19.23,0H14.29a4,4,0,0,1-4.19-3,6.1,6.1,0,0,1-.19-1.6q0-29.65,0-59.31A4.32,4.32,0,0,1,14.34,7.9q19.91.07,39.81,0a4.34,4.34,0,0,1,4.47,4.51c0,9.32,0,18.64,0,28v.84a15.07,15.07,0,0,1,4.88,2A14.17,14.17,0,0,1,69.11,60,.85.85,0,0,0,69.36,61c2,2,4,4,6,6a5.29,5.29,0,1,1-7.62,7.34q-2.91-2.88-5.78-5.8a1,1,0,0,0-1.34-.34A18.42,18.42,0,0,1,58.48,68.93ZM56.34,41v-.79c0-9.21,0-18.42,0-27.63A2.28,2.28,0,0,0,53.89,10c-13.09,0-26.18,0-39.27,0-1.87,0-2.59.71-2.59,2.56q0,29.49,0,59c0,1.75.75,2.49,2.51,2.49H53.14c.52,0,1,0,1.56,0a2,2,0,0,0,1.75-1.78c-.05-.85-.08-1.7-.11-2.55,0-.19,0-.39-.05-.58A14.1,14.1,0,1,1,56.34,41ZM44.11,55.1a11.9,11.9,0,1,0,11.83-12A11.85,11.85,0,0,0,44.11,55.1ZM63.74,66.78c2,2.16,4,4.36,6.1,6.44a2.66,2.66,0,0,0,3.16.37,3.21,3.21,0,0,0,.74-5.29c-1.63-1.66-3.29-3.29-4.93-4.94A12.18,12.18,0,0,1,68,62.3,14.67,14.67,0,0,1,63.74,66.78Z"/><path d="M23.38,24.46c-.87.72-1.64,1.27-2.31,1.93a1.16,1.16,0,0,1-1.73,0c-.42-.5-.3-1.07.37-1.63l7.47-6.36,6-5.09c.91-.78,1.26-.79,2.16,0L48.56,24.54a5.47,5.47,0,0,1,.51.45,1,1,0,0,1,.09,1.4,1.06,1.06,0,0,1-1.51.15c-.79-.63-1.55-1.29-2.45-2,0,.35,0,.58,0,.81V38.86c0,1.41-.24,1.66-1.65,1.66H24.9c-1.26,0-1.52-.25-1.52-1.49V24.46ZM43,38.36c0-.18,0-.34,0-.49q0-7.38,0-14.75a1.19,1.19,0,0,0-.38-.78c-1.2-1.09-2.44-2.15-3.67-3.21l-4.65-4c-2.86,2.46-5.69,4.88-8.49,7.32a1.29,1.29,0,0,0-.3.9c0,4.78,0,9.56,0,14.34,0,.24,0,.48,0,.7h3.8c0-2,0-4,0-5.93,0-1,.34-1.29,1.3-1.3h7.18c.95,0,1.29.34,1.29,1.31,0,1.74,0,3.48,0,5.22,0,.23,0,.47,0,.71ZM31.55,33.3v5.06H37V33.3Z"/><path d="M30.65,67H44.19c.57,0,1.1,0,1.31.69a1,1,0,0,1-.78,1.39,4.35,4.35,0,0,1-.81,0q-13.23,0-26.47,0a5.2,5.2,0,0,1-.88,0A1,1,0,0,1,15.7,68a.94.94,0,0,1,1-1h14Z"/><path d="M27.81,48.59H16.92c-.77,0-1.19-.33-1.22-1a1,1,0,0,1,.79-1.09,3.56,3.56,0,0,1,.8-.07h21a4.36,4.36,0,0,1,.81.06,1,1,0,0,1-.16,2.06c-1.31,0-2.62,0-3.93,0Z"/><path d="M27.82,56.67H38.1a7.47,7.47,0,0,1,.95,0,.93.93,0,0,1,.84,1,.94.94,0,0,1-.76,1.05,3.7,3.7,0,0,1-.74.06H17.21a3,3,0,0,1-.8-.07,1,1,0,0,1-.71-1.09.92.92,0,0,1,.82-.93,5.49,5.49,0,0,1,.81,0Z"/><path d="M55.87,46.14a9.1,9.1,0,0,1,6.26,2.42c.62.57.72,1.14.3,1.65s-1,.54-1.7-.06a6.82,6.82,0,0,0-8.81-.46c-.25.19-.46.42-.71.61a1,1,0,0,1-1.51-.06,1,1,0,0,1,.06-1.46,8.28,8.28,0,0,1,4.76-2.49C55,46.2,55.55,46.17,55.87,46.14Z"/></svg>