<svg id="Layer_1" data-name="Layer 1" xmlns="http://www.w3.org/2000/svg" viewBox="0 0 85.04 85.04"><path d="M69.73,49.61a1.74,1.74,0,0,0-1.51-1.93,21.66,21.66,0,0,1-9-4.82.84.84,0,0,1-.33-.77V33.25q0-8.19,0-16.38a2.84,2.84,0,0,0-.82-2.06,2.81,2.81,0,0,0-2-.81h0c-8.53.05-17.2,0-24.65,0h0a9.17,9.17,0,0,0-6.81,2.82l-1.35,1.35c-1.52,1.54-3.1,3.13-4.68,4.67a9.54,9.54,0,0,0-3,7.2c0,14.62,0,27.4,0,39.1a3,3,0,0,0,2,3.14H58.29l.16-.12a24.69,24.69,0,0,0,8-6.19,12.74,12.74,0,0,0,3.27-8.32c0-2.12,0-4.24,0-6.36Zm-2.19,8.31a10.47,10.47,0,0,1-2.66,6.6A22.17,22.17,0,0,1,58,70a.42.42,0,0,1-.26,0,21,21,0,0,1-8-6.88,10.41,10.41,0,0,1-1.68-5.78c0-2.27,0-4.65,0-7.27,0-.28,0-.33.3-.41a23.6,23.6,0,0,0,9.45-5.17,23.49,23.49,0,0,0,6.18,4c1,.44,2.1.79,3.13,1.13l.12,0c.28.1.31.13.31.36,0,1.09,0,2.18,0,3.27C67.56,54.81,67.57,56.37,67.54,57.92ZM17.68,30.24a2.9,2.9,0,0,1,.83-2.11,2.51,2.51,0,0,1,1.81-.68h.14A32.93,32.93,0,0,0,25,27.37,4.41,4.41,0,0,0,28.88,23c0-1.69,0-3,0-4.18A2.56,2.56,0,0,1,29.59,17a2.87,2.87,0,0,1,2-.78c6,0,12.19,0,18.13,0H56c.71,0,.73,0,.73.73v3.88q0,10.67,0,21.34a.76.76,0,0,1-.29.68,21.34,21.34,0,0,1-9,4.85,1.68,1.68,0,0,0-1.48,1.72v1.67c0,2.47,0,5,.08,7.53a11.85,11.85,0,0,0,2.91,7.06,22.73,22.73,0,0,0,4.84,4.48H18.61c-.91,0-.91,0-.91-.91V60.1C17.71,50.31,17.71,40.19,17.68,30.24ZM26.79,18c0,.67-.06,1.29-.07,1.91s0,1.07,0,1.6,0,.82,0,1.22a2.41,2.41,0,0,1-2.56,2.54c-.52,0-1,0-1.57,0h-2c-.45,0-.89.05-1.37.09h-.1c2.32-2.48,4.68-4.78,7.17-7.22l.51-.5Z"/><path d="M24.08,42.23a.8.8,0,0,0-.55.09,2,2,0,0,0-.76.83.91.91,0,0,0,.62,1.16,1.56,1.56,0,0,0,.64.11H50.44a1.57,1.57,0,0,0,.58-.09.94.94,0,0,0,.65-1.21,2.09,2.09,0,0,0-.78-.81.77.77,0,0,0-.51-.08H24.08Z"/><path d="M22.88,37.29a.89.89,0,0,0,.64.24h0c.42,0,.92-.22.93-1.19V34.29L27,37a1.35,1.35,0,0,0,.94.54h0a.91.91,0,0,0,.62-.29c.25-.24.57-.76-.15-1.54l-1.21-1.3-.3-.33h0a2.64,2.64,0,0,0,2.3-2.92,2.69,2.69,0,0,0-2.84-2.42H23.74c-.81,0-1.18.37-1.18,1.19,0,1.87,0,3.85,0,6.42A1.32,1.32,0,0,0,22.88,37.29Zm1.63-5.14v-1.5h.57c.55,0,1.07,0,1.6,0a.67.67,0,0,1,.64.71.66.66,0,0,1-.63.77c-.53,0-1.05,0-1.6,0Z"/><path d="M38.42,34.39v.55c0,.56,0,1.14,0,1.71a.86.86,0,0,0,.87.87.87.87,0,0,0,1-.75,2.78,2.78,0,0,0,.06-.64v-2.6l.46.78c.48.83,1,1.66,1.45,2.5a1.16,1.16,0,0,0,1,.73l.25,0a1.09,1.09,0,0,0,.76-1.22c0-1.47,0-2.93,0-4.4v-2a2.72,2.72,0,0,0,0-.28,1,1,0,0,0-1-.89h0a1,1,0,0,0-.91,1c0,.42,0,.84,0,1.27v1.89c-.74-1.11-1.4-2.23-2-3.23a1,1,0,0,0-1.89.51c0,.88,0,1.75,0,2.62C38.42,33.31,38.41,33.85,38.42,34.39Z"/><path d="M31.8,37.52l2,0,2.1,0a.87.87,0,0,0,.88-.87.9.9,0,0,0-.73-1,2.07,2.07,0,0,0-.5,0H32.85V34.09h.38c.37,0,.71,0,1.06,0a.94.94,0,0,0,1-1,.93.93,0,0,0-1-.91H32.85V30.64h2.91a1,1,0,1,0,0-1.92H31.92a1,1,0,0,0-1,1c0,2.18,0,4.48,0,6.83A.9.9,0,0,0,31.8,37.52Z"/><path d="M40.31,48.92c-2,0-4,0-6.05,0H24a1.25,1.25,0,0,0-1,.43,1.05,1.05,0,0,0-.18.89,1.19,1.19,0,0,0,1.33.86H40.35a1.61,1.61,0,0,0,.43,0,1.14,1.14,0,0,0,.84-.76.91.91,0,0,0-.2-.91A1.65,1.65,0,0,0,40.31,48.92Z"/><path d="M46.81,30.64H47.9v1.85c0,1.28,0,2.56,0,3.85,0,1,.57,1.18.92,1.19h0a.89.89,0,0,0,.64-.24,1.35,1.35,0,0,0,.33-1V30.64h1.1a1,1,0,0,0,1-1,1,1,0,0,0-1-1c-1.33,0-2.67,0-4.13,0a1,1,0,0,0-1,.93A1,1,0,0,0,46.81,30.64Z"/><path d="M31.43,55.57H24.05a1.43,1.43,0,0,0-1,.35,1,1,0,0,0-.28.76c0,.49.25,1.07,1.35,1.08H31.4a1.43,1.43,0,0,0,1.05-.34,1,1,0,0,0,.28-.76C32.72,56,32.24,55.57,31.43,55.57Z"/><path d="M62.79,52.63a2.49,2.49,0,0,0-.38.34L56,59.42l-.27-.25L55,58.45c-.6-.61-1.22-1.23-1.86-1.83a1.49,1.49,0,0,0-1.07-.42,1,1,0,0,0-.83.64,1.22,1.22,0,0,0,.34,1.25c.82.84,1.65,1.67,2.49,2.5l.85.86a1.65,1.65,0,0,0,1.05.61,1.61,1.61,0,0,0,1-.61l6.94-6.94a2,2,0,0,0,.37-.44,1.07,1.07,0,0,0-1.52-1.44Z"/></svg>