<svg id="Layer_1" data-name="Layer 1" xmlns="http://www.w3.org/2000/svg" viewBox="0 0 85.04 85.04"><path d="M72.06,61.58c-1-.78-1.94-1.54-2.91-2.31l-5-4L64.5,55c.38-.38.74-.74,1.12-1.07a.51.51,0,0,1,.39-.1,3.23,3.23,0,0,0,2.52-.29,3.81,3.81,0,0,0,1.86-2.39,2.76,2.76,0,0,0-.68-2.76l-1.43-1.43c-2.56-2.58-5.21-5.25-7.84-7.84a2.8,2.8,0,0,0-1.51-.7,4.66,4.66,0,0,0-1.29.06l-.44,0c0-.67,0-1.35,0-2,0-1.72,0-3.49,0-5.25a5,5,0,0,0-1.63-3.87l-4.36-4.3-2.79-2.78L42,14a4.76,4.76,0,0,0-3.48-1.54H17.38a5.87,5.87,0,0,0-5.49,3.91c-.09.24-.17.47-.24.71l-.1.32V22l0,0c.31.43.7.83,1.36.59s.71-.77.7-1.31,0-1.21,0-1.8V18.8a4.32,4.32,0,0,1,1.14-3.2,4.28,4.28,0,0,1,3.15-1.11h0l18.57.08h2.07l.34,0H39v.59c0,1.05,0,2.1,0,3.15,0,2.41,0,4.9,0,7.34a4.56,4.56,0,0,0,4.7,4.8h.09c2.48,0,5,0,7.46,0h3.86v1.33c0,1,0,2,0,3,0,1.16,0,2.32,0,3.48s0,2.32,0,3.48a2.44,2.44,0,0,0,.05.48,2.67,2.67,0,0,1,0,.48,1,1,0,0,1-.17.63c-1.7,1.72-3.44,3.45-5.11,5.13L47.4,50.89a.54.54,0,0,1-.62.18,3.53,3.53,0,0,0-1.48,0,3.57,3.57,0,0,0-2.77,2.54,3,3,0,0,0,.94,3.24c2.91,2.85,5.59,5.54,8.19,8.19.91.93,1.92,1.8,3.42,1.43a3.63,3.63,0,0,1-2.53,3.85,8.22,8.22,0,0,1-2.11.22l-.86,0c-.06,0-.16-.07-.21-.14a3.82,3.82,0,0,0-2-1.57v0a1.55,1.55,0,0,0,0-.22c0-2.56-1.35-3.86-3.92-3.86H33a4.47,4.47,0,0,0-1.18.11,3.42,3.42,0,0,0-2.61,3.41.76.76,0,0,1-.51.84,3.54,3.54,0,0,0-1.21,1,.87.87,0,0,1-.75.37h0c-3,0-5.95,0-8.93,0a5.86,5.86,0,0,1-1.34-.16,3.81,3.81,0,0,1-2.87-4V26.42a1,1,0,0,1,0-.17,3.39,3.39,0,0,0,0-.45.9.9,0,0,0-1-.88,1.64,1.64,0,0,0-.68.32l-.27.17-.07,0V67.57c0,.14.09.28.13.42a7.93,7.93,0,0,0,.32.89,5.77,5.77,0,0,0,5.43,3.61c2,0,4.1,0,6.1,0h3.19a2.12,2.12,0,0,0,1.16,2.3H33l0-.06a2.75,2.75,0,0,1,.19-.28,1.86,1.86,0,0,0,.37-.71.81.81,0,0,0-.18-.64,1.28,1.28,0,0,0-.95-.39H28.92a1.62,1.62,0,0,1,.2-1.39,1.53,1.53,0,0,1,1.27-.54H46a1.72,1.72,0,0,1,1.38.48,1.83,1.83,0,0,1,.26,1.46H37.14c-.45,0-1,0-1.31.67s.17,1.06.52,1.38l0,0H48.73l0,0a2.18,2.18,0,0,0,1.12-2.17h.43c.38,0,.73,0,1.09,0a5.77,5.77,0,0,0,5.53-4.18,8.47,8.47,0,0,0,.21-1.88c0-.34,0-.68.07-1a2.2,2.2,0,0,1,.23-.85A3.43,3.43,0,0,0,57.82,62a.51.51,0,0,1,0-.36c.34-.4.71-.77,1.09-1.17l.31-.33.11.14.34.41L61.49,63c1.32,1.7,2.69,3.45,4.08,5.15,1.9,2.32,4.07,2.54,6.45.64a4.35,4.35,0,0,0,0-7.22ZM55.77,63.35a1.7,1.7,0,0,1-1.54,1.05l-.08,0a1.6,1.6,0,0,1-.38-.24c-2.68-2.68-5.61-5.6-9-9a1,1,0,0,1-.35-.72A1.39,1.39,0,0,1,45,53.5a1.34,1.34,0,0,1,.91-.44,1,1,0,0,1,.72.33l3.68,3.68q2.55,2.55,5.11,5.09C55.81,62.58,56,62.88,55.77,63.35ZM41.07,18.76V16.05s0-.05,0-.09L53.57,28.32l-.18,0h-10A2.22,2.22,0,0,1,41.08,26C41.07,23.59,41.07,21.13,41.07,18.76Zm18.06,28.1a1.52,1.52,0,0,0,1-.52.92.92,0,0,0-.2-1.25l-.59-.6c-.58-.59-1.17-1.19-1.77-1.77-.4-.38-.59-.69-.42-1.14a1.52,1.52,0,0,1,1.22-1.11,1.05,1.05,0,0,1,.76.24c2.08,2.07,4.19,4.19,6.23,6.24l2.81,2.83a.83.83,0,0,1,.16,1,1.26,1.26,0,0,1-2.23.52l-.91-.92-2-2c-.76-.75-1.31-.52-1.65-.2a1,1,0,0,0-.33.7,1.44,1.44,0,0,0,.52,1c.59.59,1.2,1.17,1.79,1.74l.63.61L56.35,60l-7.48-7.49,7.72-7.73.4.4c.43.43.87.87,1.33,1.29S58.91,46.89,59.13,46.86Zm9.69,21A2.59,2.59,0,0,1,67.38,67c-1.7-2.09-3.39-4.23-5-6.31-.5-.65-1-1.29-1.52-1.94l1.9-1.9c.94.73,1.9,1.49,2.87,2.26l1.53,1.21Q69,61.8,70.79,63.25a2.11,2.11,0,0,1,.91,2.6A3,3,0,0,1,68.82,67.87Zm-37.21-.54a1.47,1.47,0,0,1,1.25-.53H43.54a1.8,1.8,0,0,1,1.38.45,1.89,1.89,0,0,1,.34,1.42H31.4A1.57,1.57,0,0,1,31.61,67.33Z"/><path d="M20.89,45.15H41.47a3.92,3.92,0,0,0,.75-.06A1,1,0,0,0,43,44c0-.62-.48-1-1.22-1H20.91a1.44,1.44,0,0,0-1.07.37.94.94,0,0,0-.27.72C19.58,44.74,20.08,45.13,20.89,45.15Z"/><path d="M20.77,59.72H38.14c.77,0,1.22-.38,1.23-1.05a1,1,0,0,0-.28-.74,1.31,1.31,0,0,0-.94-.33H20.79a1.27,1.27,0,0,0-.94.36,1,1,0,0,0-.28.73C19.58,59.27,20.05,59.68,20.77,59.72Z"/><path d="M35.59,50.31c-4.76,0-9.51,0-14.26,0H21.2a3.1,3.1,0,0,0-.43,0,1.06,1.06,0,0,0-.95,1.09,1,1,0,0,0,.94,1,5.15,5.15,0,0,0,.55,0H35.58a4.08,4.08,0,0,0,.69,0,1,1,0,0,0,.07-2A2.66,2.66,0,0,0,35.59,50.31Z"/><path d="M20.71,30.54a3.66,3.66,0,0,0,.66,0H34.68a.73.73,0,0,0,.47-.11,1.9,1.9,0,0,0,.69-.84.86.86,0,0,0-.6-1.06,2.07,2.07,0,0,0-.75-.12H21.11a2,2,0,0,0-.42,0,1,1,0,0,0-.87,1.07A1,1,0,0,0,20.71,30.54Z"/><path d="M20.77,37.86h13a.58.58,0,0,0,.39-.11l.09-.07c.28-.24.6-.52.62-.82a1.51,1.51,0,0,0-.6-1,1,1,0,0,0-.68-.14h-.1q-2.4,0-4.8,0H20.78a1.1,1.1,0,0,0-1.21,1C19.54,37.38,20,37.82,20.77,37.86Z"/><path d="M38.41,37.87h9.24a2.76,2.76,0,0,0,.81-.09,1,1,0,0,0,.63-.57,1,1,0,0,0-.05-.88,1.21,1.21,0,0,0-1.18-.59H38.21a1.06,1.06,0,1,0,0,2.12Z"/></svg>