<svg id="Layer_1" data-name="Layer 1" xmlns="http://www.w3.org/2000/svg" viewBox="0 0 85.04 85.04"><path d="M30.73,31c-.62-4.92.91-9,5.07-11.82a11.15,11.15,0,0,1,13-.18c4.36,2.78,6,7,5.35,12.05l4.16,1.26a2.4,2.4,0,0,1,.38.12,2.68,2.68,0,0,0,2.8-.11,3.57,3.57,0,0,1,5.23,3.26,1.34,1.34,0,0,0,.68,1.27,18.78,18.78,0,0,1,6.58,7.56c2.14,4.81,1.45,9.35-1.59,13.55-2.8,3.87-6.68,6.36-11,8.25a44.73,44.73,0,0,1-13.71,3.45,53.54,53.54,0,0,1-11.32,0A44.72,44.72,0,0,1,20.86,65a.9.9,0,0,0-1.14.08,3.67,3.67,0,0,1-5.56-4.3.71.71,0,0,0-.21-.9A14.25,14.25,0,0,1,9.7,49.31a13.91,13.91,0,0,1,3.78-8.84A27.61,27.61,0,0,1,24.73,33C26.68,32.25,28.71,31.68,30.73,31Zm20.15,6.84.42.14c2,.53,4.1,1,6.09,1.62a18.94,18.94,0,0,1,7.94,4.77,7.47,7.47,0,0,1-.15,11.13,17.89,17.89,0,0,1-5.86,3.84c-.64.28-1.07.51-1.2,1.35a3.34,3.34,0,0,1-2.85,2.83,3.61,3.61,0,0,1-3.68-1.41.83.83,0,0,0-.6-.3,51.53,51.53,0,0,1-12.28.59,40.27,40.27,0,0,1-12.36-2.67,18.14,18.14,0,0,1-7.06-4.6c-2.1-2.36-2.92-5-1.61-8.08a10.91,10.91,0,0,1,4.5-4.86c.77-.49,1.49-.91,1.25-2,0-.08,0-.17.06-.25a3.68,3.68,0,0,1,6.32-1.62c.14.15.36.36.49.33,1.2-.24,2.39-.53,3.63-.82l-.38-.66c-.65-1.17-1.33-2.32-1.95-3.51-.2-.38-.35-.52-.79-.38-1.77.57-3.58,1-5.32,1.68a25.69,25.69,0,0,0-9.87,6.27c-2.57,2.75-4.2,5.91-3.69,9.82a12.39,12.39,0,0,0,3.7,7.4.63.63,0,0,0,.55.11,3.73,3.73,0,0,1,5.13,3.72.8.8,0,0,0,.36.64,42.65,42.65,0,0,0,15.14,4.6,51,51,0,0,0,11.52-.1,41.84,41.84,0,0,0,13.2-3.6,22.64,22.64,0,0,0,9-6.87,11.09,11.09,0,0,0,2.33-9c-.86-4.36-3.72-7.24-7-9.56a11.64,11.64,0,0,1-2.56.88,3.62,3.62,0,0,1-4-3.78c0-.23-.17-.59-.34-.64-1.68-.56-3.38-1.07-5.09-1.56a.71.71,0,0,0-.56.3c-.35.58-.62,1.21-1,1.8C51.88,36.21,51.38,37,50.88,37.86Zm-4.14,6.87,1.23.13a32.2,32.2,0,0,1,7.47,1.47,7.43,7.43,0,0,1,3.11,1.79,2.33,2.33,0,0,1,0,3.46,5.17,5.17,0,0,1-1.66,1.17,30.32,30.32,0,0,1-4.41,1.45,47.77,47.77,0,0,1-11.93.93.83.83,0,0,0-.85.42,3.67,3.67,0,0,1-6.56-.72.88.88,0,0,0-.74-.61,23.66,23.66,0,0,1-3.34-1,9.88,9.88,0,0,1-2.74-1.64,2.25,2.25,0,0,1,0-3.53,6.23,6.23,0,0,1,2.14-1.36,48.59,48.59,0,0,1,5.32-1.45c1.38-.29,2.8-.39,4.27-.58-.93-1.55-1.83-3.06-2.74-4.55A.45.45,0,0,0,35,40c-1.39.25-2.78.53-4.13.79a3.74,3.74,0,0,1-6.5,2.63,12,12,0,0,0-4.13,3.55,4.82,4.82,0,0,0,0,5.84,11,11,0,0,0,1.91,2.07,20.07,20.07,0,0,0,6.67,3.48,43,43,0,0,0,12.88,2.1,48.3,48.3,0,0,0,8.66-.65c.31-.05.56-.09.64-.51a3.69,3.69,0,0,1,6.45-1.76.57.57,0,0,0,.48.16,15.14,15.14,0,0,0,6.58-4.56,5,5,0,0,0,0-6.48,8.11,8.11,0,0,0-1.12-1.22c-3.83-3.31-8.49-4.61-13.34-5.43a.57.57,0,0,0-.46.22C48.57,41.67,47.69,43.16,46.74,44.73Zm-4.33,3a2.62,2.62,0,0,0,.21-.29q4.08-6.8,8.16-13.61a9.49,9.49,0,0,0,1.29-5.1A9.67,9.67,0,1,0,34.15,34c2.62,4.42,5.28,8.82,7.93,13.22C42.17,47.39,42.27,47.52,42.41,47.73ZM43.66,53v0l2.17-.11a33.23,33.23,0,0,0,8.29-1.34,17.89,17.89,0,0,0,2.68-1.21c.49-.26.47-.67,0-1a7,7,0,0,0-1.19-.68,30.22,30.22,0,0,0-9.78-1.85c-.19,0-.46.2-.58.38-.62,1-1.2,2-1.81,3a1.1,1.1,0,0,1-2.06,0c-.59-1-1.18-2-1.75-2.94a.77.77,0,0,0-.82-.47A36.57,36.57,0,0,0,31,48.07a16.21,16.21,0,0,0-2.93,1.29c-.6.32-.56.6,0,1a2.14,2.14,0,0,0,.55.35c1.36.47,2.73.92,4.1,1.38.35.12.49-.09.65-.36a3.68,3.68,0,0,1,6.74.73c.12.37.27.5.63.5C41.72,53,42.69,53,43.66,53ZM63,37.2a1.58,1.58,0,1,0-1.6-1.52A1.62,1.62,0,0,0,63,37.2ZM28.68,40.93a1.58,1.58,0,1,0-3.15-.06,1.58,1.58,0,1,0,3.15.06Zm8,14.22A1.58,1.58,0,1,0,35,53.63,1.64,1.64,0,0,0,36.63,55.15Zm17.9,3.18a1.58,1.58,0,0,0,0,3.15,1.58,1.58,0,1,0,0-3.15Zm-37,2.11A1.58,1.58,0,1,0,19.18,62,1.64,1.64,0,0,0,17.57,60.44Z"/><path d="M48.74,29a6.33,6.33,0,1,1-6.32-6.39A6.35,6.35,0,0,1,48.74,29Zm-6.27,4.15a4.19,4.19,0,1,0-4.28-4.09A4.21,4.21,0,0,0,42.47,33.17Z"/></svg>