<svg id="Layer_1" data-name="Layer 1" xmlns="http://www.w3.org/2000/svg" viewBox="0 0 85.04 85.04"><path d="M60.93,61.26h2c.76,0,1.18.38,1.18,1s-.42,1-1.19,1H21.09c-.81,0-1.22-.31-1.26-.94a1,1,0,0,1,1-1.09c.71,0,1.42,0,2.16,0V32.91H21.34c-1.24,0-1.52-.28-1.52-1.55v-2.2c0-.86.16-1.07.94-1.37l11.13-4.12,9.34-3.47a2,2,0,0,1,1.5,0l20.35,7.55c1,.36,1.06.52,1.06,1.53,0,.83,0,1.66,0,2.5A1,1,0,0,1,63,32.9c-.67,0-1.34,0-2.06,0Zm-35.76,0H58.78V33H25.17ZM62.06,30.75c0-.58.22-1.09-.57-1.38-6.33-2.31-12.65-4.67-19-7a1.78,1.78,0,0,0-1.07,0q-9.4,3.47-18.79,7c-.87.32-.91.41-.67,1.41Z"/><path d="M41.92,66.8H18.17a5.7,5.7,0,0,1-.71,0,1,1,0,0,1-.88-1,1,1,0,0,1,.85-1.06,4,4,0,0,1,.6,0H65.94a2.44,2.44,0,0,1,.81.11.9.9,0,0,1,.62,1,.93.93,0,0,1-.81.89,5,5,0,0,1-.77,0Z"/><path d="M39.82,51h.64c1.38,0,2.77,0,4.16,0a1,1,0,0,1,1,1,1,1,0,0,1-.95,1q-3.16,0-6.31,0a1,1,0,0,1-.93-1.1,4.38,4.38,0,0,1,2-3.76,7.9,7.9,0,0,1,2.29-.94,2.13,2.13,0,0,0,1.8-2.17,2.05,2.05,0,0,0-4.09,0c-.1.81-.5,1.2-1.15,1.12s-1-.57-.89-1.37a4.1,4.1,0,0,1,4-3.72,4,4,0,0,1,4.18,3.58,4.1,4.1,0,0,1-3,4.45,7.39,7.39,0,0,0-1.63.52,8.63,8.63,0,0,0-1.33,1.1Z"/><path d="M54.23,47.23a3.42,3.42,0,0,1,0,4.7,3.27,3.27,0,0,1-3.63.93,3.43,3.43,0,0,1-2.31-3,1.06,1.06,0,0,1,.9-1.19.93.93,0,0,1,1.12.94,1.43,1.43,0,0,0,1.93,1.32,1.37,1.37,0,0,0,.82-1.44A1.35,1.35,0,0,0,52,48.29a5.4,5.4,0,0,1-.58-.11.93.93,0,0,1-.66-1,.94.94,0,0,1,.79-.92c.19,0,.39-.06.58-.11a1.32,1.32,0,0,0,1-1.44,1.3,1.3,0,0,0-1.24-1.21,1.32,1.32,0,0,0-1.42,1c0,.14,0,.28-.07.41a1,1,0,0,1-1.1.94,1.06,1.06,0,0,1-.94-1.17,3.42,3.42,0,0,1,6.78-.51A3.57,3.57,0,0,1,54.23,47.23Z"/><path d="M32.36,51c.27,0,.45,0,.62,0a1,1,0,0,1,.92,1A1,1,0,0,1,33,53q-1.67.06-3.33,0a1,1,0,0,1-.9-1,1,1,0,0,1,.92-1,5.4,5.4,0,0,1,.57,0V46.29c-.22,0-.46.07-.59,0-.31-.2-.73-.43-.81-.73a1.13,1.13,0,0,1,.32-1,2.27,2.27,0,0,0,1.1-2c.12-.76.49-1.18,1.1-1.14s1,.5,1,1.27V51Z"/></svg>