<svg id="Layer_1" data-name="Layer 1" xmlns="http://www.w3.org/2000/svg" viewBox="0 0 85.04 85.04"><path d="M66.52,59a19.51,19.51,0,0,0-2.8-.21l-1.23,0V31.36c0-.82-.12-1.65-1-1.69a1,1,0,0,0-.72.24,2,2,0,0,0-.39,1.46V58.8H21.94a8.43,8.43,0,0,0-.85,0,1.07,1.07,0,0,0,0,2.13l.24,0,.61.08c3.27.21,5.45,3.44,5.35,6.21A6,6,0,0,1,24.7,72a5.86,5.86,0,0,1-5.12.9c-2.76-.83-4.41-3.25-4.41-6.49q0-22.76,0-45.5V13.31c0-.16,0-.32,0-.48v-.1H60.35v.62c0,.57,0,1.14,0,1.7a1.3,1.3,0,0,0,.36.94,1,1,0,0,0,.76.23,1,1,0,0,0,1-1.18V12.1c0-1.31-.3-1.61-1.62-1.61H14.65c-1.39,0-1.68.31-1.68,1.71V67.11a8.53,8.53,0,0,0,6.67,8,14.68,14.68,0,0,0,2.88.19H64.05a16.58,16.58,0,0,0,1.69-.08,8.3,8.3,0,0,0,7.36-7.71A8.19,8.19,0,0,0,66.52,59Zm-37,8A8.5,8.5,0,0,0,26.86,61l.3,0H64.49a6.09,6.09,0,0,1,6.27,4.74,6,6,0,0,1-1.15,5.13,5.94,5.94,0,0,1-4.68,2.28H26.86A8.6,8.6,0,0,0,29.47,67.05Z"/><path d="M32.25,23.19H54.12c1,0,1.37-.35,1.38-1.33V16.2c0-1-.35-1.33-1.33-1.33h-22c-1,0-1.3.36-1.31,1.35v5.59C30.85,22.87,31.18,23.19,32.25,23.19ZM33,21V17.08H53.3V21Z"/><path d="M55.47,45.43a1.58,1.58,0,0,0-.87-.84,7.84,7.84,0,0,0-4.91-.74c-1.57.29-3.19.66-4.83,1.1a9.2,9.2,0,0,1-7.25-.5,6.69,6.69,0,0,0-4.52-.61c-1.66.32-3.3.72-4.82,1.1-2.24.57-4.42,1-6.62-.19a1,1,0,0,0-.74-.09,1.08,1.08,0,0,0-.64.57,1.1,1.1,0,0,0-.09.91,1,1,0,0,0,.57.53l.13,0a15.78,15.78,0,0,0,3.22.92,12.12,12.12,0,0,0,4.67-.59l.6-.15c1.11-.28,2.25-.54,3.35-.79l1.3-.29,0,.15h.13a6.1,6.1,0,0,1,3.27.79,7.84,7.84,0,0,0,3.78,1,8.81,8.81,0,0,0,1.67-.16c1.15-.22,2.31-.51,3.42-.79l1.8-.44a8.09,8.09,0,0,1,5.56.24c1,.49,1.47.08,1.7-.35A1,1,0,0,0,55.47,45.43Z"/><path d="M20.79,41.08a7.62,7.62,0,0,0,5,.9c1.49-.25,3.12-.62,5-1.12a9.21,9.21,0,0,1,7.24.49,6.15,6.15,0,0,0,3,.76A8.61,8.61,0,0,0,42.55,42c1.28-.24,2.57-.55,3.82-.85L46.9,41l.7-.17a10,10,0,0,1,4.25-.43,10.31,10.31,0,0,1,1.79.56l.23.08A1.2,1.2,0,0,0,55,41a1.28,1.28,0,0,0,.5-1.1V39.8l0,0a1.08,1.08,0,0,1-.13-.15,2.35,2.35,0,0,0-.6-.57,7.91,7.91,0,0,0-5.32-.79c-1.42.26-2.85.63-4.23,1l-1,.25a8.24,8.24,0,0,1-6.37-.58,7.3,7.3,0,0,0-5-.65c-1.39.25-2.78.61-4.13,1l-.56.14c-2.44.62-4.48.82-6.48-.23a.94.94,0,0,0-.76-.09,1.17,1.17,0,0,0-.64.65A1,1,0,0,0,20.79,41.08Z"/><path d="M20.26,34a1,1,0,0,0-.1.76,1.23,1.23,0,0,0,.64.72,7.27,7.27,0,0,0,4.53.93,41.79,41.79,0,0,0,5.19-1.09c2.27-.63,4.95-1.06,7.58.46a5.65,5.65,0,0,0,2.84.71,7.11,7.11,0,0,0,1.2-.1c1.58-.25,3-.54,4.3-.88l.32-.08c2.5-.65,4.86-1.26,7.31,0a.82.82,0,0,0,.83,0,1.43,1.43,0,0,0,.6-1.21v-.07l0,0L55.32,34a2.35,2.35,0,0,0-.61-.55,8,8,0,0,0-5.59-.75c-1.26.24-2.53.57-3.76.88L44,33.89a8,8,0,0,1-6.1-.61,7.7,7.7,0,0,0-5.34-.64c-1.16.23-2.32.52-3.44.81l-1.71.43a7.8,7.8,0,0,1-5.61-.36A1,1,0,0,0,20.26,34Z"/><path d="M54.82,50.34a7.37,7.37,0,0,0-4.54-.91A47.71,47.71,0,0,0,45,50.55c-2.23.6-4.86,1-7.45-.47a6,6,0,0,0-4.1-.63c-1.67.3-3.42.68-5.52,1.2-1.91.48-4.14.89-6.28-.25a1,1,0,0,0-.79-.09,1.13,1.13,0,0,0-.64.6,1,1,0,0,0,.52,1.43,8.27,8.27,0,0,0,4,1h0l.54,0a8.33,8.33,0,0,0,1.21-.15c1.71-.38,3.4-.79,5-1.21a8.07,8.07,0,0,1,6.24.59,6.78,6.78,0,0,0,3.37.82,9.94,9.94,0,0,0,1.9-.19c1.21-.23,2.42-.54,3.59-.84l1.56-.39a7.81,7.81,0,0,1,5.67.36,1.11,1.11,0,0,0,.92.08,1,1,0,0,0,.58-.58A1.07,1.07,0,0,0,54.82,50.34Z"/><path d="M25.46,27.06a4.67,4.67,0,0,0,2-4A14.71,14.71,0,0,0,25,15.39a1,1,0,0,0-.9-.54h0a1.09,1.09,0,0,0-.92.55,15.28,15.28,0,0,0-2.52,7.37h0A4.34,4.34,0,0,0,22,26.39,2.4,2.4,0,0,1,23,28.64a.78.78,0,0,0,.19.64,1.11,1.11,0,0,0,.82.34h0a1,1,0,0,0,1.05-1,3.57,3.57,0,0,0,0-.46,2,2,0,0,1,0-.5A1.12,1.12,0,0,1,25.46,27.06Zm-.18-3.62a1.7,1.7,0,0,1-.21.78,7.33,7.33,0,0,1-.77.81l-.24.22L23.77,25a2,2,0,0,1-.67-.77,4.55,4.55,0,0,1-.19-2.16,28,28,0,0,1,.75-2.86c.11-.35.22-.69.32-1H24A10,10,0,0,1,25.28,23.44Z"/><path d="M31.4,28l0,0a.48.48,0,0,0,.32.09H32l.18,0H54.31a1,1,0,0,0,1-1.07A1,1,0,0,0,54.38,26a5.5,5.5,0,0,0-.79,0H32.14a1.13,1.13,0,0,0-.69.1c-.23.16-.77.58-.77,1S31.08,27.71,31.4,28Z"/></svg>