<svg id="Layer_1" data-name="Layer 1" xmlns="http://www.w3.org/2000/svg" viewBox="0 0 85.04 85.04"><path d="M59.88,30c0,1.87,0,3.74,0,5.6,0,.15.24.31.41.51.18-.86.11-1.73.51-2.15s1.28-.36,2-.54c0-.44,0-1,0-1.49a.92.92,0,1,1,1.83,0c0,.53,0,1.05,0,1.53.73.16,1.6.1,2,.51s.34,1.28.5,2.05c.29,0,.67,0,1,0,.93,0,1.26.33,1.26,1.28q0,3.52,0,7v6.36c0,1-.32,1.34-1.36,1.34H15.58c-1.09,0-1.38-.3-1.38-1.39,0-5.94,0-11.89,0-17.84a1.44,1.44,0,0,1,1-1.52c.8-.36,1.84-.63,2.25-1.27s.11-1.66.12-2.51,0-1.72,0-2.58.29-1.15,1.19-1.16h1.55c.18-.69-.05-1.72,1.09-1.63.93.06.83.9.88,1.63.47,0,.92,0,1.37,0,.76,0,1.09.33,1.13,1.1,0,.28,0,.56,0,.83v.88a14.42,14.42,0,0,0,1.63-.84c.16-.11.21-.46.22-.71,0-3.17,0-6.35,0-9.53,0-1.25.17-1.42,1.45-1.42h1.14V10.38c0-1.21.26-1.47,1.45-1.47h5.06c0-.85,0-1.62,0-2.39s.31-1.22.9-1.24,1,.39,1,1.24,0,1.51,0,2.39h5.74c.79,0,1.1.32,1.11,1.1,0,1.31,0,2.61,0,4h1.45c.89,0,1.17.28,1.18,1.18s0,2.1,0,3.21c1.27,0,2.45,0,3.63,0,.17,0,.4-.25.49-.44A8.52,8.52,0,1,1,60.58,29.8ZM28.45,15.89V50.1H45.16V15.89ZM58,30c-5.2-1.19-7.76-4.39-7.58-9.71H47.12V50.11H58Zm-42,20.1H26.53V27.74l-.67.31c-3,1.5-6.08,3-9.14,4.48a1,1,0,0,0-.66,1.09c0,5.21,0,10.43,0,15.64ZM59,14.79a6.67,6.67,0,1,0,6.65,6.66A6.67,6.67,0,0,0,59,14.79Zm8.58,35.33V37.89H59.93V50.12ZM31.12,14H42.55v-3.2H31.12ZM19.36,29.17c1.12-.55,2.18-1.05,3.22-1.59a.56.56,0,0,0,.24-.41c0-.52,0-1,0-1.57H19.36ZM63.73,36c.37,0,.75,0,1.12,0,.11,0,.31,0,.31-.22s-.18-.26-.27-.26q-1.12,0-2.25,0a.26.26,0,0,0-.28.26c0,.22.21.21.32.22C63,36,63.38,36,63.73,36Z"/><path d="M25.17,59.69c1-.74,1.85-1.3,2.61-2a11.9,11.9,0,0,1,8.75-3.24,11.21,11.21,0,0,1,4.78,1.25,11.52,11.52,0,0,0,4.44,1,11.69,11.69,0,0,0,7.7-1.94,5.24,5.24,0,0,1,6,.09.79.79,0,0,0,.66.08c2-1,3.7-.46,5.29,1a5.09,5.09,0,0,1,3.9-.44,4.82,4.82,0,0,1,2.51,1.73c.68.87.61,1.3-.29,1.92l-9.65,6.63c-2.14,1.47-4.29,2.92-6.41,4.4A11.85,11.85,0,0,1,46.51,72c-3.4-.54-6.77-1.23-10.16-1.86a3.38,3.38,0,0,0-2.65.52q-1.85,1.25-3.77,2.38a.74.74,0,0,0-.39,1c.46,1.38.86,2.78,1.28,4.18.27.93-.08,1.4-1,1.4H18.21a1,1,0,0,1-1.18-1c-.48-4.07-1-8.14-1.49-12.21-.37-3-.74-6.09-1.13-9.14-.12-1,.18-1.35,1.17-1.36,2.47,0,4.94,0,7.41,0a1.19,1.19,0,0,1,1.34,1C24.54,57.78,24.82,58.58,25.17,59.69Zm3.62,11.92L33,69a4.66,4.66,0,0,1,3.46-.68c3.53.67,7.05,1.37,10.6,1.91a9.86,9.86,0,0,0,7.35-1.56q7.37-5.09,14.75-10.14c.26-.17.52-.36.79-.55a2.91,2.91,0,0,0-3.61-.41q-4.19,2.23-8.36,4.51a1,1,0,0,0-.46.6,1,1,0,0,1-1,.81c-.35,0-.71,0-1.06-.06-3.07,0-6.14,0-9.2,0-.79,0-1.25-.16-1.32-.75s.3-1.06,1.13-1.1c1.58-.08,3.16-.14,4.75-.17s3.11,0,4.65,0a3.81,3.81,0,0,0-3.74-2.86c-1.59,0-3.18-.07-4.76,0a15.08,15.08,0,0,1-7-1.39A9.44,9.44,0,0,0,29.8,58.42c-1.34,1-2.46,2.32-4.16,2.85ZM16.35,57.78c.3,2.54.59,5,.89,7.48.49,4,1,8,1.46,12,.06.54.24.66.74.65,2.92,0,5.84,0,8.76,0,.16,0,.32,0,.55-.05l-6.12-20Zm40.78,2.61,6.48-3.51a2.21,2.21,0,0,0-2.55-.33l-3.39,1.82c-.43.23-.85.48-1.27.71ZM53.4,56.9c.4.2.73.37,1.07.52s.51.26.67.18c.9-.43,1.77-.93,2.75-1.46C56.13,55.36,54.79,56,53.4,56.9Z"/><path d="M36.89,19.82c1.48,0,3,0,4.46,0,.87,0,1.28.3,1.3.91s-.39,1-1.25,1q-4.57,0-9.15,0c-.84,0-1.28-.34-1.27-.95s.45-.93,1.3-.93C33.81,19.81,35.35,19.82,36.89,19.82Z"/><path d="M36.81,47.59H32.27c-.85,0-1.29-.33-1.29-.94s.44-.95,1.28-.95c3.05,0,6.1,0,9.15,0,.84,0,1.26.35,1.24,1s-.42.91-1.23.91Z"/><path d="M36.76,26.89H32.22c-.82,0-1.27-.36-1.24-1s.43-.88,1.25-.88h9.22c.82,0,1.2.32,1.2.93s-.41.93-1.21.93Z"/><path d="M36.84,30.21h4.69c.75,0,1.12.32,1.12.92s-.39.91-1.13.91H32.15c-.64,0-1.11-.19-1.17-.89s.38-.93,1.18-.94Z"/><path d="M36.84,40.53h4.61c.8,0,1.2.33,1.2.94s-.39.93-1.2.93H32.23c-.85,0-1.28-.36-1.25-1s.44-.89,1.25-.9Z"/><path d="M36.8,37.2H32.12c-.76,0-1.14-.31-1.14-.9s.39-.91,1.13-.91q4.72,0,9.45,0c.72,0,1.12.35,1.08.95s-.46.87-1.08.87C40,37.19,38.39,37.2,36.8,37.2Z"/><path d="M52.44,40.64H49.5c-.62,0-1.1-.21-1.13-.92s.36-.95,1.1-1h6c.72,0,1.14.39,1.1,1s-.53.92-1.15.92Z"/><path d="M52.44,33.71h3c.62,0,1,.23,1.08.89s-.36.93-1.1.93h-6c-.76,0-1.12-.31-1.11-.92s.37-.89,1.13-.9Z"/><path d="M52.45,45.68h-3c-.61,0-1-.21-1.07-.89s.35-.94,1.09-.94h5.95c.74,0,1.14.34,1.12.93s-.5.91-1.14.9Z"/><path d="M51,30.5c-.55,0-1.11,0-1.66,0s-1-.3-1-.93a.88.88,0,0,1,1-.94q1.66,0,3.33,0a.9.9,0,0,1,1,.93c0,.61-.41.9-1,.94S51.56,30.5,51,30.5Z"/><path d="M49.56,23.58c.79,0,1.21.31,1.21.9s-.43.91-1.21.91-1.19-.29-1.19-.91S48.74,23.58,49.56,23.58Z"/><path d="M21.43,41.78c.78,0,1.56,0,2.34,0s1.23.35,1.23.92-.45.95-1.21,1H19c-.8,0-1.21-.33-1.22-.93s.4-.94,1.2-1S20.62,41.78,21.43,41.78Z"/><path d="M21.37,47.14c-.83,0-1.66,0-2.49,0-.6,0-1.05-.25-1.06-.92s.45-.94,1-1c1.69,0,3.38,0,5.07,0a1,1,0,0,1,1.08.93c0,.55-.43.94-1.13,1S22.21,47.14,21.37,47.14Z"/><path d="M21.29,36.72c-.78,0-1.56,0-2.34,0s-1.14-.34-1.13-.92.45-.93,1-.93c1.69,0,3.38,0,5.07,0a.93.93,0,0,1,1.06.93c0,.54-.43.92-1.13.93C23,36.73,22.15,36.72,21.29,36.72Z"/><path d="M21.31,40.19c-.81,0-1.61,0-2.42,0-.6,0-1.05-.25-1.07-.91s.42-.94,1-1H24a.89.89,0,0,1,1,.9.92.92,0,0,1-1,1C23.07,40.21,22.19,40.19,21.31,40.19Z"/><path d="M61.68,19.49a.91.91,0,1,1-1.82.18c-.08-.58-.37-.93-1-.89s-.67.48-.73.79c-.11.62.38.86.93.93l.3,0a2.55,2.55,0,0,1,2.09,1.64,2.72,2.72,0,0,1-1.1,3.36c-.23.15-.33.11-.44.8a.86.86,0,0,1-1.72,0c-.09-.8-.42-.68-.74-.88a2.65,2.65,0,0,1-1.21-1.92c-.1-.59.08-1.08.72-1.21a.85.85,0,0,1,1.1.82,2.28,2.28,0,0,0,.1.36c.19.56.66.51,1,.48a.74.74,0,0,0,.65-.75.78.78,0,0,0-.66-.85,5.86,5.86,0,0,1-.87-.18,2.56,2.56,0,0,1-2-2.22,2.66,2.66,0,0,1,1.21-2.67c.24-.18.6-.17.59-.74A.78.78,0,0,1,59,15.8a.81.81,0,0,1,.87.81c0,.51.29.5.5.64A2.78,2.78,0,0,1,61.68,19.49Z"/><path d="M63.58,45.29c-.5,0-1,0-1.5,0a.93.93,0,0,1,0-1.85c1,0,2,0,3,0a.93.93,0,1,1,0,1.85c-.5,0-1,0-1.51,0Z"/><path d="M63.61,41.87c-.5,0-1,0-1.51,0a.86.86,0,0,1-.91-.9.82.82,0,0,1,.88-.92c1,0,2.05,0,3.08,0A.83.83,0,0,1,66,41a.87.87,0,0,1-.92.9C64.61,41.89,64.11,41.87,63.61,41.87Z"/><path d="M63.63,48.69c-.53,0-1.06,0-1.58,0a.82.82,0,0,1-.86-.86.83.83,0,0,1,.86-.94c1,0,2.06,0,3.08,0a.84.84,0,0,1,.9.9.83.83,0,0,1-.9.9C64.63,48.7,64.13,48.69,63.63,48.69Z"/><path d="M25.87,74.94a2.52,2.52,0,1,1-2.55-2.51A2.48,2.48,0,0,1,25.87,74.94Zm-1.69,0a.72.72,0,0,0-.81-.77.69.69,0,0,0-.69.72.81.81,0,0,0,.68.81A.72.72,0,0,0,24.18,75Z"/></svg>