<svg id="Layer_1" data-name="Layer 1" xmlns="http://www.w3.org/2000/svg" viewBox="0 0 85.04 85.04"><path d="M71.23,22.44a1.32,1.32,0,0,1,.67,1.14q0,20.57,0,41.14c0,.11,0,.23,0,.43H60.33v7.68H13.94V55.49H12c0-.8,0-1.56,0-2.31,0-.17.27-.37.45-.49l11.6-7.5c1.58-1,3.18-2,4.75-3.1a.9.9,0,0,1,1.17,0c1,.71,2.1,1.38,3.23,2.11v-6.1c-.13,0-.29,0-.44,0H26c-.3,0-.5,0-.58.41a6.74,6.74,0,0,1-7.07,5.39,6.77,6.77,0,1,1,5.69-11,1,1,0,0,1-.29,1.43h0a1,1,0,0,1-1.21-.2,4.84,4.84,0,1,0,0,6,5.63,5.63,0,0,0,1-3.9h9.61V22.65c-.14,0-.29,0-.45,0H26c-.32,0-.53,0-.62.43a6.76,6.76,0,1,1-9-7.74A6.93,6.93,0,0,1,24,17.44a.93.93,0,0,1-.3,1.39h0a.92.92,0,0,1-1.17-.21,4.84,4.84,0,0,0-5.24-1.56,4.82,4.82,0,0,0,1.91,9.39c2.84-.38,4.17-2.08,4.44-5.75h9.62V13H61.14c1,0,1.19.53,1.6.92ZM55.29,51.26a6.85,6.85,0,0,1,8.95-2.85,6.77,6.77,0,0,1,3.59,7.79A6.58,6.58,0,0,1,65.19,60a6.3,6.3,0,0,1-4.83,1.15v2H70V24.59H68v5.72H37.17V16.8H60.28V14.92H35.22c0,.1,0,.16,0,.22q0,15,0,30a.88.88,0,0,0,.34.61c2.4,1.58,4.82,3.13,7.23,4.7a.59.59,0,0,0,.75,0c1.06-.69,2.17-1.3,3.22-2a3.26,3.26,0,0,1,3.93,0C52.19,49.4,53.75,50.31,55.29,51.26Zm10.8-26.74H60.3V18.8H39.09v9.57h27Zm-50.18,31v15.4H37.08V61.21h-1.9V67H27.5V59.33h5.89c-.44-1.76.27-2.95,1.87-3.84ZM58.35,70.93c0-.13,0-.21,0-.28,0-3.42,0-6.84,0-10.27a1,1,0,0,0-.41-.62c-2.92-1.82-5.85-3.61-8.77-5.42a.75.75,0,0,0-.92,0q-4.4,2.74-8.83,5.44a.72.72,0,0,0-.39.72q0,4.95,0,9.9c0,.17,0,.34,0,.5H43V63.25h11.6v7.68ZM28.41,44.72,14.83,53.51H28.41ZM35.1,58.26a4.34,4.34,0,0,0,.34.71c.35.44.82.46,1.45.07q5.65-3.48,11.29-7a.86.86,0,0,1,1.07,0q5.66,3.52,11.33,7a1,1,0,0,0,1.52-.22c.3-.51.12-1-.52-1.4L49.42,50a1.17,1.17,0,0,0-1.39,0c-.69.45-1.4.87-2.1,1.3-3.34,2.06-6.68,4.1-10,6.18A4.72,4.72,0,0,0,35.1,58.26Zm-4.71-4.77a1,1,0,0,0,.2,0h7.6a.81.81,0,0,0,.4-.09c.88-.54,1.77-1.08,2.71-1.67L30.39,44.72ZM52.54,70.92V65.17H44.89v5.75Zm4.51-18.6.48.32c1.59,1,3.17,2,4.78,2.93a3.35,3.35,0,0,1,1.9,2.66A4.64,4.64,0,0,0,66,53.34a4.85,4.85,0,0,0-4.43-3.65A4.67,4.67,0,0,0,57.05,52.32Zm5.24-35.83v6.09h6.08ZM29.42,65.1h3.79V61.3H29.42Z"/><path d="M15.82,21.75l.24-.23a.78.78,0,0,1,1.14.05h0a.76.76,0,0,0,1.14,0l2-2a.78.78,0,0,1,1.13,0l.24.26a.77.77,0,0,1,0,1.07l-3.34,3.35a.78.78,0,0,1-1.11,0l-1.41-1.43A.78.78,0,0,1,15.82,21.75Z"/><path d="M21.48,35l.22.23a.75.75,0,0,1,0,1.06l-3.43,3.43a.77.77,0,0,1-1.07,0l-1.38-1.39a.76.76,0,0,1,0-1.09l.27-.25a.76.76,0,0,1,1.09.07h0a.76.76,0,0,0,1.11,0L20.41,35A.75.75,0,0,1,21.48,35Z"/><rect x="44.89" y="36.17" width="23.11" height="1.86" rx="0.93"/><rect x="44.9" y="40.05" width="23.11" height="1.86" rx="0.93"/><rect x="48.77" y="32.32" width="19.25" height="1.86" rx="0.93"/><rect x="44.9" y="43.92" width="19.23" height="1.88" rx="0.93"/><path d="M42.9,32.32V38H37.16V32.32Zm-3.8,1.9V36.1h1.84V34.22Z"/><path d="M42.88,45.78H37.16V40.06h5.72ZM39.1,42v1.86H41V42Z"/><rect x="44.9" y="32.31" width="1.86" height="1.85" rx="0.93"/><rect x="66.14" y="43.9" width="1.86" height="1.87" rx="0.93"/><path d="M25.49,67H17.83V59.39h7.66Zm-1.94-1.91V61.31H19.78v3.82Z"/><path d="M45.82,58.35a2.9,2.9,0,1,1,2.87,2.92A2.89,2.89,0,0,1,45.82,58.35Zm3.86,0a1,1,0,1,0-1,1A1,1,0,0,0,49.68,58.36Z"/></svg>