<svg id="Layer_1" data-name="Layer 1" xmlns="http://www.w3.org/2000/svg" viewBox="0 0 85.04 85.04"><path d="M39.16,33.53c0,.29-.06.57-.08.85-.08.72-.15,1.41-.23,2.1a1.46,1.46,0,0,0,.25,1.17,1.28,1.28,0,0,0,1,.38c1.63,0,3.32,0,5,0a1.28,1.28,0,0,0,1-.38,1.39,1.39,0,0,0,.25-1.15c-.08-.71-.15-1.42-.22-2.13l-.09-.82h0l.29,0a1.76,1.76,0,0,0,1.3-.41A.94.94,0,0,0,48,32.4c0-.73-.54-1.08-1.6-1.08H19.24V29.6h2.62a2.34,2.34,0,0,0,2.36-2.36c0-3.37,0-6.9,0-10.8a2.21,2.21,0,0,0-1.79-2.26,10.43,10.43,0,0,0-2.37-.08,1,1,0,0,0-.69.33,1.15,1.15,0,0,0-.27.86,1,1,0,0,0,1.06,1c.48,0,.94,0,1.41,0h0a.45.45,0,0,1,.32.09.51.51,0,0,1,.1.37c0,3.12,0,6.44,0,10.16a.53.53,0,0,1-.1.38.47.47,0,0,1-.33.09h-7a.45.45,0,0,1-.33-.08.53.53,0,0,1-.09-.37c0-3.39,0-6.83,0-10.23a.47.47,0,0,1,.08-.33.41.41,0,0,1,.32-.08c.46,0,.94,0,1.41,0a1.08,1.08,0,0,0,1.13-1.08A1.11,1.11,0,0,0,16,14.06c-.36,0-.74,0-1.09,0h-.31a2.42,2.42,0,0,0-2.64,2.63c0,3.42,0,6.88,0,10.29a2.4,2.4,0,0,0,2.65,2.61h2.34v1.73H15.53c-1.36,0-2.64,0-4,0a2,2,0,0,0-1.58.57l0,.05v.86l0,0a1.41,1.41,0,0,0,1.34.72h.07c.94,0,1.9,0,2.83,0H16.9v8h-1c-.82,0-1.32.42-1.34,1.1a1.06,1.06,0,0,0,.28.78,1.32,1.32,0,0,0,1,.37h4.7a1.4,1.4,0,0,0,1-.39,1.08,1.08,0,0,0,.28-.77,1.19,1.19,0,0,0-1.3-1.09H19.24V33.57h8.91c0,.08-.07.16-.11.23L10.24,68.74a1.23,1.23,0,0,1-.17.25l-.09.13,0,0V70l0,0a1.55,1.55,0,0,0,1.08.67h0a1,1,0,0,0,.75-.36,2.64,2.64,0,0,0,.37-.59l0-.1C18.22,58,24.37,45.94,30.41,34.06a.8.8,0,0,1,.83-.55h0c1.81,0,3.66,0,5.45,0Zm2,2.21.21-2.16h2.44l.21,2.16Z"/><path d="M67.44,53.92l-.1-.2L57.3,34l-.21-.44v0H74c.82,0,1.31-.41,1.31-1.11a1.06,1.06,0,0,0-.29-.76,1.31,1.31,0,0,0-1-.34H51.13a1.08,1.08,0,0,0-1.21,1.07,1.06,1.06,0,0,0,.29.78,1.29,1.29,0,0,0,.93.36h.6c.72,0,1.47,0,2.2,0,.48,0,.67.11.91.57,3.11,6.14,6.29,12.38,9.37,18.41l1.23,2.42a1.31,1.31,0,0,0,1.1.86,1.07,1.07,0,0,0,.5-.13C67.42,55.45,68,55,67.44,53.92Z"/><path d="M47.56,47.91q-.36-3.51-.73-7c-.08-.84-.46-1.2-1.27-1.21H39.72c-.85,0-1.22.35-1.31,1.24s-.21,1.94-.31,2.91-.2,1.84-.29,2.76l-.09.86c-.15,1.49-.31,3-.44,4.56a1.23,1.23,0,0,0,.25,1,1.3,1.3,0,0,0,1,.35h8.25A1.1,1.1,0,0,0,48,52.13c0-.18,0-.38,0-.59Zm-2.87-6,1,9.17h-6l.94-9.17Z"/><path d="M49.45,66.33c-.1-1-.21-2.07-.32-3.11-.22-2.07-.44-4.14-.64-6.22-.11-1-.49-1.39-1.52-1.39h-8.7c-1,0-1.41.35-1.52,1.39-.16,1.64-.33,3.27-.5,4.91l-.33,3.17-.06.62c-.13,1.25-.26,2.53-.36,3.8a1.17,1.17,0,0,0,.27.88,1.08,1.08,0,0,0,.78.36h0a1.13,1.13,0,0,0,1.1-1.09q.3-2.78.58-5.55l.31-3,.24-2.32.1-.91h7.4l.06.5c0,.48.11.94.16,1.41l.39,3.81q.3,3,.61,5.91a1.43,1.43,0,0,0,.48,1,.94.94,0,0,0,.61.21h.14c.67-.09,1-.62,1-1.43s-.14-1.55-.22-2.3Z"/><path d="M15.45,20.19c0,1.13,0,2.24,0,3.3a1.75,1.75,0,0,0,1.87,1.78H19a1.69,1.69,0,0,0,1.7-1.66c0-.42,0-.83,0-1.24V21.32c0-.38,0-.77,0-1.15a1.73,1.73,0,0,0-1.78-1.79c-.47,0-1,0-1.59,0A1.8,1.8,0,0,0,15.45,20.19ZM17.77,23V20.66l.67-.05V23Z"/><path d="M75.22,69.25c-.07-.17-.16-.38-.26-.58q-2.64-5.19-5.29-10.38l0-.1a2.41,2.41,0,0,0-.32-.53A.91.91,0,0,0,68,57.39a2,2,0,0,0-.63,1,1.16,1.16,0,0,0,.21.76l0,.11,3.81,7.48.85,1.65.25.51c.21.41.42.83.65,1.24a1.05,1.05,0,0,0,.92.59,1.25,1.25,0,0,0,.32,0,1.13,1.13,0,0,0,.84-1.22Z"/><path d="M67.21,38.08a1.12,1.12,0,0,0-.8,1.89,1.12,1.12,0,0,0,.78.34h0a1.08,1.08,0,0,0,1.1-1.09,1.11,1.11,0,0,0-1.08-1.14Z"/><path d="M68.94,40.67a1.15,1.15,0,0,0-.37.78,1,1,0,0,0,.29.78,1.1,1.1,0,0,0,.79.36h0a1.14,1.14,0,0,0,1.13-1.06,1.17,1.17,0,0,0-1.09-1.16A1,1,0,0,0,68.94,40.67Z"/><path d="M15.31,50.34a1.13,1.13,0,0,0,1.14-1,1.11,1.11,0,0,0-.27-.78,1.17,1.17,0,0,0-.78-.42h-.08a1.19,1.19,0,0,0-1.13,1,1,1,0,0,0,.27.79,1.09,1.09,0,0,0,.78.4Z"/></svg>