<svg id="Layer_1" data-name="Layer 1" xmlns="http://www.w3.org/2000/svg" viewBox="0 0 85.04 85.04"><path d="M69.53,60.73a1.23,1.23,0,0,0-2.07,1.15c0,.72,0,1.44,0,2.15H30.87V61.85a1.22,1.22,0,0,0-2-1.14L23.54,64c-1.23.77-1.24,1.62,0,2.39L29.35,70h.77a1.63,1.63,0,0,0,.76-1.58c0-.68,0-1.36,0-2.08H67.46c0,.69,0,1.39,0,2.09A1.6,1.6,0,0,0,68.22,70H69c1.87-1.18,3.75-2.34,5.62-3.53a10.78,10.78,0,0,0,1.07-.85v-.9a7.57,7.57,0,0,0-.81-.69C73.1,63,71.31,61.85,69.53,60.73Zm-41,6.1-2.62-1.62,2.62-1.63Zm41.25,0V63.58l2.61,1.63Z"/><path d="M12.53,17.46h-.9a7.57,7.57,0,0,0-.69.81c-1.12,1.78-2.22,3.56-3.33,5.34a1.23,1.23,0,0,0,1.14,2.07H10.9V56.51c-.76,0-1.47,0-2.17,0a1.36,1.36,0,0,0-1.33.6,1.31,1.31,0,0,0,.18,1.44c1.11,1.76,2.2,3.53,3.3,5.29.77,1.24,1.63,1.24,2.39,0Q15.1,61,16.91,58v-.77a1.6,1.6,0,0,0-1.58-.75c-.68,0-1.36,0-2.08,0V25.68c.7,0,1.4,0,2.09,0a1.59,1.59,0,0,0,1.57-.77v-.77c-1.17-1.87-2.34-3.75-3.52-5.61A12.72,12.72,0,0,0,12.53,17.46ZM13.7,58.85l-1.62,2.61c-.58-.92-1.08-1.73-1.62-2.61Zm-3.24-35.5,1.62-2.61,1.63,2.61Z"/><path d="M77.5,56.11c0-.12-.12-.23-.17-.35Q74,49.1,70.68,42.45l-.29-.6h4c.78,0,1.19-.35,1.19-1s-.45-1-1.21-1H72.75V38H74.5a1,1,0,0,0,1.12-1c0-.6-.43-1-1.11-1H72.75V34c.6,0,1.17,0,1.74,0,.73,0,1.13-.39,1.13-1s-.41-1-1.16-1H72.7a9.52,9.52,0,0,0,0-1.07,1,1,0,0,0-1.08-.9,1,1,0,0,0-.88,1c0,.31,0,.61,0,.91H67.83c0-.86,0-1.68,0-2.51a2.93,2.93,0,0,0-.24-1.06Q66.25,25.73,64.86,23a1.9,1.9,0,0,0-.61-.68q-2.72-1.86-5.48-3.66a2.15,2.15,0,0,0-1.08-.31q-9.45,0-18.9,0a2.16,2.16,0,0,0-1.12.34Q35,20.46,32.28,22.3a2.29,2.29,0,0,0-.68.77c-.66,1.27-1.23,2.6-2,3.84a6.77,6.77,0,0,0-1,4.27,8,8,0,0,1,0,.85H25.75v-.85a1,1,0,0,0-.95-1.08,1,1,0,0,0-1,1.06c0,.29,0,.58,0,.91-.57,0-1.05,0-1.53,0a1.43,1.43,0,0,0-1.38.59v.77a1.41,1.41,0,0,0,1.36.63c.5,0,1,0,1.51,0V36c-.54,0-1.07,0-1.59,0a1.22,1.22,0,0,0-1.28.67v.66A1.34,1.34,0,0,0,22.2,38c.49,0,1,0,1.52,0v1.9c-.5,0-1,0-1.51,0a1.35,1.35,0,0,0-1.35.66v.66a1.26,1.26,0,0,0,1.28.68c1.93,0,3.87,0,5.86,0a3.85,3.85,0,0,1-.13.37L21,55.94a1.66,1.66,0,0,1-.16.21v.55c.44.7.91.94,1.42.63a1.72,1.72,0,0,0,.59-.69L30.06,42.3c.09-.17.27-.42.41-.43.86,0,1.71,0,2.63,0-.08.24-.12.4-.18.55l-3.36,8.94c-.59,1.57-1.2,3.13-1.74,4.72A1.45,1.45,0,0,0,28,57.17a1,1,0,0,0,.92.27,1.6,1.6,0,0,0,.78-.82c.71-1.78,1.36-3.59,2-5.38q1.66-4.45,3.34-8.9c.07-.19.27-.46.41-.47.88,0,1.76,0,2.66,0-.06.25-.09.43-.14.6q-1.7,6.84-3.4,13.66c-.19.75.06,1.24.67,1.4s1-.18,1.24-.94l.87-3.43c.92-3.62,1.83-7.25,2.76-10.87,0-.15.2-.4.31-.4.9,0,1.8,0,2.75,0,0,.49-.1.93-.16,1.36-.31,2.52-.63,5-1,7.57-.23,1.85-.47,3.7-.7,5.55a1,1,0,0,0,.85,1.16,1,1,0,0,0,1.13-.93c.09-.64.16-1.28.24-1.92L44.92,44.1c.09-.75.19-1.49.29-2.22h3V56.09c0,.16,0,.33,0,.5a.94.94,0,0,0,1,.9c.65,0,1-.45,1-1.27V41.87h3c.13,1,.26,2,.38,3.05.32,2.54.63,5.08,1,7.63.18,1.39.34,2.78.55,4.16a.91.91,0,0,0,1.15.77,1,1,0,0,0,.79-1.09q-.37-3.11-.77-6.21c-.35-2.76-.7-5.52-1.05-8.31h3c0,.12.1.24.13.36l2.55,10.29c.34,1.38.67,2.76,1,4.13a1,1,0,0,0,1.71.61A1.19,1.19,0,0,0,63.83,56q-1.35-5.35-2.71-10.71c-.28-1.12-.56-2.24-.84-3.4h2.89q.92,2.41,1.81,4.81,1.88,5,3.74,10a1.08,1.08,0,0,0,.81.81c.77.15,1.42-.6,1.06-1.53-1.37-3.55-2.68-7.13-4-10.71-.42-1.11-.83-2.23-1.26-3.39.79,0,1.51,0,2.23,0a.8.8,0,0,1,.88.52c2,4,4,8,6,12,.45.89.88,1.78,1.34,2.66a1,1,0,0,0,1.31.47A1,1,0,0,0,77.5,56.11ZM28.62,39.83H25.77V38h2.85Zm0-3.89H25.78V34.08h2.84Zm10-15.46a1,1,0,0,1,.51-.14H54.32l.38,0c-1,.65-1.84,1.24-2.72,1.81a.83.83,0,0,1-.42.07c-5.06,0-10.12,0-15.18,0l-.42,0C36.91,21.58,37.73,21,38.57,20.48Zm9.65,19.34H30.67V30.15H48.22Zm.48-11.91a.64.64,0,0,1-.5.2c-1.48,0-3,0-4.44,0H31.28c.64-1.29,1.23-2.49,1.86-3.67.07-.13.37-.2.57-.2,2.64,0,5.28,0,7.92,0h8.92C49.9,25.55,49.31,26.74,48.7,27.91ZM57,39.83H54.15V34.08H57v1.83l-.3.13a.84.84,0,0,0-.6.9,1.6,1.6,0,0,0,.59.89c.25.18.36.3.35.59C57,38.88,57,39.34,57,39.83Zm4.86,0H59V38c.5-.17,1-.42.94-1.08s-.44-.86-.95-1V34.08h2.84Zm3.94,0H63.89V33.37c0-1-.29-1.3-1.28-1.3H53.42c-1,0-1.29.33-1.29,1.3v6.46H50.25c0-.18,0-.36,0-.53q0-4.74,0-9.48a2.11,2.11,0,0,1,.21-.89q1.13-2.31,2.3-4.6a1.68,1.68,0,0,1,.52-.6c1.45-1,2.92-1.95,4.37-2.94a.58.58,0,0,1,.77,0c1.44,1,2.91,1.94,4.36,2.93a1.6,1.6,0,0,1,.53.6q1.2,2.34,2.35,4.7a1.65,1.65,0,0,1,.19.67c0,3.27,0,6.54,0,9.81C65.84,39.6,65.82,39.7,65.81,39.83Zm2.06-5.76H70.7v1.86H67.87Zm0,5.76V38H70.7v1.84Z"/><path d="M59.93,24.23q-1.91,0-3.81,0a1,1,0,0,0-1,1q0,1.94,0,3.87a.94.94,0,0,0,1,1c.63,0,1.25,0,1.88,0h0c.64,0,1.29,0,1.93,0a1,1,0,0,0,1-1q0-1.94,0-3.87A1,1,0,0,0,59.93,24.23Zm-1,3.86H57.11V26.23H59Z"/><path d="M35.63,38h7.59a1,1,0,0,0,1.13-1.14c0-1.2,0-2.4,0-3.6a1,1,0,0,0-1.16-1.15H35.61a1,1,0,0,0-1.08,1c0,1.27,0,2.55,0,3.82A1,1,0,0,0,35.63,38Zm4.84-3.86h1.85v1.85H40.47Zm-3.93,0h1.88v1.85H36.54Z"/></svg>