<svg id="Layer_1" data-name="Layer 1" xmlns="http://www.w3.org/2000/svg" viewBox="0 0 85.04 85.04"><path d="M17.17,68.71c-.93-.71-1-1.28-.11-2.13L65.81,17.83c.84-.84,1.41-.81,2.13.12V68.71ZM65.74,21.26,20.49,66.5H65.74Z"/><path d="M35.21,28.58a4.83,4.83,0,0,1,.85.54q3,3,6,6a1.11,1.11,0,0,1,0,1.72q-3,3-6,6a1.11,1.11,0,0,1-1.76,0q-3-3-6-6a1.1,1.1,0,0,1,0-1.76c2-2,3.94-4,5.93-5.92A5,5,0,0,1,35.21,28.58Zm-4.63,7.34,4.56,4.54,4.52-4.53-4.52-4.55Z"/><path d="M20.78,23.23c0,1.09,0,2.17,0,3.25a1.11,1.11,0,0,1-1,1.23,1.06,1.06,0,0,1-1.18-1.13q0-3,0-6a1.12,1.12,0,0,1,1.22-1.18c2,0,3.95,0,5.92,0a1.1,1.1,0,1,1,0,2.18H22.36c.17.2.29.33.41.45L28,27.22a1.2,1.2,0,0,1,.47,1.24,1,1,0,0,1-1.62.62,2.38,2.38,0,0,1-.46-.39c-1.7-1.7-3.41-3.4-5.11-5.11-.13-.13-.23-.28-.35-.42Z"/><path d="M22.46,47.25H24.9c.34,0,.67,0,1,0a1,1,0,0,1,1,1.12,1.06,1.06,0,0,1-1.14,1c-.95,0-1.91,0-2.86,0s-2.08,0-3.12,0a1.1,1.1,0,0,1-1.22-1.16q0-3,0-6a1.08,1.08,0,0,1,1.09-1.15,1.1,1.1,0,0,1,1.08,1.2c0,1,0,2,0,3,0,.12,0,.23,0,.43l.44-.41c1.73-1.73,3.45-3.46,5.19-5.18a2.15,2.15,0,0,1,.83-.5.91.91,0,0,1,1,.42,1,1,0,0,1,0,1.17,3.29,3.29,0,0,1-.42.49l-5.47,5.47Z"/><path d="M46.44,23.14c-.2.18-.33.3-.45.43l-5.23,5.22a1.15,1.15,0,0,1-1.24.43,1.05,1.05,0,0,1-.58-1.61,3.35,3.35,0,0,1,.43-.49L44.49,22l.39-.41-.49,0c-1,0-1.91,0-2.86,0a1.1,1.1,0,1,1,0-2.18,1.33,1.33,0,0,1,.2,0c1.84,0,3.68,0,5.53,0,1,0,1.39.4,1.39,1.39,0,1.94,0,3.89,0,5.83a1.06,1.06,0,0,1-.83,1.1,1,1,0,0,1-1.2-.59,2.27,2.27,0,0,1-.12-.78c0-.88,0-1.75,0-2.62C46.47,23.54,46.45,23.39,46.44,23.14Z"/></svg>