<svg id="Layer_1" data-name="Layer 1" xmlns="http://www.w3.org/2000/svg" viewBox="0 0 85.04 85.04"><path d="M42.8,58.53H9.59a1,1,0,0,1-1-1v0a1,1,0,0,1,1-1H44.44a.73.73,0,0,0,.47-.11c.65-.58,1.27-1.19,1.9-1.79l-.08-.19H19.82a1,1,0,0,1-1-1h0a1,1,0,0,1,1-1h28.4c.25,0,.58,0,.73-.1.67-.6,1.28-1.25,2-2h-.83l-40.52,0a1,1,0,0,1-1-1h0a1,1,0,0,1,1-1h7.5a4.12,4.12,0,0,1-1.26-4,4.18,4.18,0,0,1,2.9-3V34.24h7v5H26.9v-3h3a1,1,0,0,1,1,1h0a1,1,0,0,1-.95,1H28.86v1h2V40.8c0,.51,0,1.94,0,2.46,0,.24.08.21.79.61a3,3,0,0,1,.95,3.88l-.36.64H41.1V42.66L39.82,44,38.5,42.55c.08-.08.19-.23.32-.36,2.21-2.19,4.41-4.4,6.63-6.57a1.4,1.4,0,0,1,.95-.39c3,0,6.08,0,9.13,0h.85v-.76a34.69,34.69,0,0,1,.17-4.68,6,6,0,0,1,11.9,1.32c0,3.37,0,6.73,0,10.09a1.6,1.6,0,0,0,.39,1c.63.68,1.31,1.3,2.11,2.07H68.5v4.15h6.76a1,1,0,0,1,1,.92v0a1,1,0,0,1-.91,1c-1.71.06-3.34,0-5,0a1,1,0,0,0-.67.3q-6.83,6.78-13.62,13.6c-.08.08-.15.18-.33.38,1.29,0,2.9.12,4.56,0,1,0,1.18-.31,2.06-1.22l8.93-9a1,1,0,0,1,1.36,0h0a.94.94,0,0,1,0,1.32L63.75,64.6a6.41,6.41,0,0,0,.68.08c1.42,0,2.84,0,4.26,0a1.3,1.3,0,0,0,.86-.35c.58-.54,1.14-1.1,1.7-1.66a1,1,0,0,1,1.36,0h0a1,1,0,0,1,0,1.33l-.64.68h1.64v2h-64a1,1,0,0,1-1-1v0a1,1,0,0,1,1-1l26.62,0a1.1,1.1,0,0,0,1.07-.46Zm-3.24,6c-.09.08-.08.16,0,.15,1.68,0,3.37,0,5,0a1,1,0,0,0,.51-.34q6.75-6.73,13.5-13.5c.11-.11.19-.24.35-.43-1.65,0-3.2,0-4.74,0a1.52,1.52,0,0,0-1,.41c-2.6,2.55-5.16,5.13-7.73,7.7ZM67.21,50.4c-1.71,0-3.25,0-4.79,0a1.62,1.62,0,0,0-1,.4q-6.67,6.63-13.33,13.31c-.14.14-.27.3-.51.56h.74c1.34,0,2.67,0,4,0a1.35,1.35,0,0,0,1-.44Q60,57.63,66.62,51ZM46.53,37.17c-1,.93-2.29,2.3-3.22,3.28a.84.84,0,0,0-.25.69c0,2.23,0,4.45,0,6.67,0,.19,0,.37,0,.57h2.15v-6h6v6h2.14c0-1.87,0-5,0-6.82a1.3,1.3,0,0,0-.23-1l-3.34-3.4Zm8.74,5.42v5.79H66.51V44.3h-.72c-2.18,0-4.36-.09-6.53,0-1.55.09-1.69.08-2.06-.19C57.16,44.07,55.41,42.71,55.27,42.59Zm-2.53-5.4c.1.15.12.21.16.25C54.44,39,56,40.53,57.53,42.06a1.22,1.22,0,0,0,.72.26c2.46,0,4.91,0,7.37,0a4.69,4.69,0,0,0,.57-.08l-4.91-4.87a.72.72,0,0,0-.44-.18C58.17,37.18,55.51,37.19,52.74,37.19Zm13.78-5h-8.2v3.06c1,0,2,0,3,0a1.42,1.42,0,0,1,.88.36c1.31,1.26,2.58,2.56,3.87,3.84.12.13.27.23.45.4ZM20.79,41.27a4.46,4.46,0,0,1,2.84,2.82c0,.13.31.25.49.26l.75,0a1,1,0,0,1,1,1h0a1,1,0,0,1-1,1h-.76c-.17,0-.44,0-.48.19a3.62,3.62,0,0,1-1.05,1.84h5.08a1.18,1.18,0,0,0-.05-.18c-1.19-1.87-.82-3.48,1-4.62.12-.07.27-.19.28-.3,0-.66,0-1.33,0-2ZM66.4,30.1A3.92,3.92,0,0,0,62,27a3.76,3.76,0,0,0-3.45,3.06ZM17.74,45.23a2.06,2.06,0,1,0,2.07-2A2.07,2.07,0,0,0,17.74,45.23Zm6.08-6v-3H20.74v3Zm25.41,9.15v-4H47.15v4ZM31,46.29a1.06,1.06,0,0,0-1-1.07,1,1,0,0,0-1,1,1,1,0,1,0,2.08,0Z"/><path d="M9.58,62.58a1,1,0,0,1-1-1v0a1,1,0,0,1,1-1H27.91a1,1,0,0,1,1,1h0a1,1,0,0,1-1,1Z"/><path d="M56.47,21.94c.06-2.57,2.37-3.7,4.79-2.46,1.63-1.61,3.27-2,5-1.2a3.81,3.81,0,0,1,2.22,3.66c-.51,0-1,0-1.56,0a.5.5,0,0,1-.32-.34,2.14,2.14,0,0,0-2-1.77,2.1,2.1,0,0,0-2.07,1.79c0,.06,0,.17,0,.17-.51.07-1,.14-1.52.16a.6.6,0,0,1-.44-.29,1.09,1.09,0,0,0-1-.8,1.05,1.05,0,0,0-1,.79.57.57,0,0,1-.38.3C57.52,22,57,21.94,56.47,21.94Z"/><path d="M36,28c-.58,0-1.08,0-1.58,0a.53.53,0,0,1-.37-.3,1.07,1.07,0,0,0-1-.78,1.11,1.11,0,0,0-1,.74.81.81,0,0,1-.47.35,2.69,2.69,0,0,1-.57,0c-.55,0-1,0-1.09-.72a1.94,1.94,0,0,0-2-1.41,2.05,2.05,0,0,0-1.91,1.66c-.07.38-.21.49-.57.47s-.92,0-1.37,0a3.87,3.87,0,0,1,2.36-3.72,4.08,4.08,0,0,1,4.83,1.27,3,3,0,0,1,3.54-.05A2.87,2.87,0,0,1,36,28Z"/><rect x="10.68" y="52.52" width="1.95" height="1.9" rx="0.95"/><rect x="14.77" y="52.53" width="1.92" height="1.91" rx="0.95"/><rect x="31.01" y="60.67" width="1.95" height="1.89" rx="0.94"/><rect x="35.07" y="60.66" width="1.97" height="1.89" rx="0.94"/><path d="M47.28,39.31h1.94v1.9H47.28Z"/></svg>