<svg id="Layer_1" data-name="Layer 1" xmlns="http://www.w3.org/2000/svg" viewBox="0 0 85.04 85.04"><path d="M65.91,35.94c0,3.62,0,7.25,0,10.88a6,6,0,0,1-4.16,5.85,6.62,6.62,0,0,1-1.87.28q-10,0-20,0c-.82,0-1.3-.41-1.29-1.11a1.06,1.06,0,0,1,1-1.08,3.85,3.85,0,0,1,.48,0H59.94a3.54,3.54,0,0,0,3.33-2,3.69,3.69,0,0,0,.44-1.65c0-7.44,0-14.88,0-22.32a3.71,3.71,0,0,0-3.37-3.63c-.37,0-.74,0-1.11,0H38.1a3.68,3.68,0,0,0-3.67,2.29A4.28,4.28,0,0,0,34.12,25c0,6.12,0,12.24,0,18.36,0,.22,0,.44,0,.66a1,1,0,0,1-1.11,1,1.07,1.07,0,0,1-1.06-1c0-.36,0-.72,0-1.08q0-9,0-18a5.87,5.87,0,0,1,4-5.71,5.63,5.63,0,0,1,1.9-.33q11.09,0,22.15,0a5.92,5.92,0,0,1,5.86,5,7.43,7.43,0,0,1,.07,1.25V35.94Z"/><path d="M28.1,66.39H21.49a4,4,0,0,1-4-4c0-3.61,0-7.23,0-10.84,0-.86,0-1.72,0-2.57A4,4,0,0,1,21.39,45c2.48,0,5,0,7.44,0a1.13,1.13,0,0,1,1.23,1.13,1.15,1.15,0,0,1-1.24,1.09H21.55a1.78,1.78,0,0,0-1.85,1.37,2.29,2.29,0,0,0-.06.58q0,6.51,0,13a1.82,1.82,0,0,0,1.94,2q6.51,0,13,0a1.83,1.83,0,0,0,2-2c0-2.33,0-4.66,0-7,0-.72.29-1.12.9-1.24a1.07,1.07,0,0,1,1.27.93c0,.13,0,.25,0,.38,0,2.34,0,4.68,0,7a4,4,0,0,1-4.15,4.14Z"/><path d="M52.74,32.7c-.43.46-.86.94-1.3,1.38L37.37,48.18,29.52,56a1.11,1.11,0,0,1-1.41.33,1,1,0,0,1-.57-1.15,1.5,1.5,0,0,1,.4-.7c2.27-2.29,4.54-4.56,6.82-6.84L49.67,32.75l1.42-1.43.16-.22a3.18,3.18,0,0,0-.41,0l-5.11.13a1,1,0,0,1-1-.63,1.08,1.08,0,0,1,.1-1.12A1.25,1.25,0,0,1,45.88,29l2.5-.06,5.52-.14a1.11,1.11,0,0,1,1.28,1.27q-.1,4.07-.23,8.13a1.1,1.1,0,0,1-.74,1.14A1.05,1.05,0,0,1,53,39a1.68,1.68,0,0,1-.24-.87c0-1.64.08-3.27.12-4.9,0-.15,0-.29,0-.43Z"/></svg>