<svg id="Layer_1" data-name="Layer 1" xmlns="http://www.w3.org/2000/svg" viewBox="0 0 85.04 85.04"><path d="M13.92,48.43a3.33,3.33,0,0,1,1.43-2,4.69,4.69,0,0,1,2-.55c2.26-.07,4.52,0,6.78,0a3.38,3.38,0,0,1,2.45.93c.1.09.33.18.42.13a16.64,16.64,0,0,0,4.22-2.72,9.51,9.51,0,0,0,2-3.43c.74-2.09,1.5-4.17,2.25-6.25.39-1.07.85-1.32,1.93-1a18.77,18.77,0,0,1,2.41.88,5.84,5.84,0,0,1,2.76,2.91.64.64,0,0,0,.7.45c2.66,0,5.31,0,8,0a1.67,1.67,0,0,1,1.3.54c1.12,1.14,2.26,2.28,3.43,3.45a5.5,5.5,0,0,0,.42-.38c1-1,2-2,3-3.05a1.71,1.71,0,0,1,1.34-.56c2.27,0,4.53,0,6.79,0,1.13,0,1.54-.42,1.54-1.56V18.5c0-1.18-.4-1.58-1.57-1.58H23.8c-1.18,0-1.58.4-1.58,1.58V36.21c0,1.15.41,1.56,1.54,1.57h1.57a1.11,1.11,0,0,1,1.15,1.12A1.1,1.1,0,0,1,25.33,40q-1.09,0-2.19,0A3.31,3.31,0,0,1,20,36.82q0-9.48,0-18.95a3.27,3.27,0,0,1,2.18-3,5.44,5.44,0,0,0,.5-.22h46a.41.41,0,0,0,.13.1,3.35,3.35,0,0,1,2.56,3.6c0,6,0,12,0,18A3.55,3.55,0,0,1,67.61,40c-2.07-.09-4.14,0-6.22,0a1.16,1.16,0,0,0-.72.3c-1.22,1.18-2.41,2.39-3.62,3.59-.8.81-1.32.81-2.14,0-1.18-1.17-2.36-2.34-3.52-3.53a1.13,1.13,0,0,0-.88-.37c-2.24,0-4.49,0-6.73,0h-.56c-.07,2.09-1.07,3.87-1.56,5.84h8.76A4.16,4.16,0,0,1,54.58,49a4.1,4.1,0,0,1-.38,3,4.19,4.19,0,0,1,.2,7.9,4.06,4.06,0,0,1,.28,3.54,4.34,4.34,0,0,1-2.49,2.46,9.67,9.67,0,0,1,.4,1.68,4.08,4.08,0,0,1-4.23,4.5c-4.62,0-9.24,0-13.85,0a17.1,17.1,0,0,1-7.15-1.3.48.48,0,0,0-.66.17,3,3,0,0,1-2.41,1.11H17.06a3.18,3.18,0,0,1-1.92-.68,3.94,3.94,0,0,1-1.22-1.9ZM37.39,36c-.1.24-.18.44-.26.65-.6,1.66-1.21,3.32-1.8,5a10.64,10.64,0,0,1-4.17,5.54c-1.05.69-2.2,1.24-3.29,1.89a.77.77,0,0,0-.36.53q0,9.25,0,18.5a.61.61,0,0,0,.3.48,13.38,13.38,0,0,0,5.52,1.3q7.5,0,15,0a2.46,2.46,0,0,0,1.21-.35,1.76,1.76,0,0,0,.7-2.07,1.78,1.78,0,0,0-1.72-1.27c-1.27,0-2.54,0-3.81,0-.95,0-1.46-.58-1.31-1.4.11-.57.61-.89,1.43-.89h5.61a3.71,3.71,0,0,0,.94-.1,1.81,1.81,0,0,0,1.28-1.83,1.75,1.75,0,0,0-1.49-1.71,18.69,18.69,0,0,0-2.12-.08c-1.5,0-3,0-4.49,0a1.11,1.11,0,0,1-1.15-1.41,1.17,1.17,0,0,1,1.29-.83h8a2.92,2.92,0,0,0,1-.16A1.85,1.85,0,0,0,53,54.14H45a2.89,2.89,0,0,1-.72-.07,1,1,0,0,1-.83-1.16,1,1,0,0,1,1-1c1.08,0,2.17,0,3.25,0s2.17,0,3.25-.06a1.7,1.7,0,0,0,1.52-1.61,1.8,1.8,0,0,0-1.26-1.95,4.19,4.19,0,0,0-1.06-.1h-10A1.12,1.12,0,0,1,39,46.52c.54-1.65,1.11-3.28,1.64-4.93A4.2,4.2,0,0,0,37.39,36ZM21.86,48.17v.69q0,6.28,0,12.56a3.89,3.89,0,0,1-.08.83,1.08,1.08,0,0,1-1.08.8,1.06,1.06,0,0,1-1-.79,3.25,3.25,0,0,1-.09-.83V48.82c0-.21,0-.43,0-.62a.82.82,0,0,0-.17-.05c-.6,0-1.19,0-1.79,0-1.09,0-1.4.31-1.4,1.39q0,9.47,0,18.94c0,1,.33,1.38,1.37,1.38h6.22c1.2,0,1.49-.29,1.49-1.48V49.54a2.9,2.9,0,0,0,0-.51c-.08-.46-.31-.83-.82-.85C23.59,48.15,22.75,48.17,21.86,48.17Z"/><path d="M41.63,30.82c.07-.44.19-1.05.25-1.66a.92.92,0,0,0-.19-.62,12.39,12.39,0,0,0-1-1,1.83,1.83,0,0,1-.56-2,1.75,1.75,0,0,1,1.58-1.23,10.29,10.29,0,0,1,1.22-.19.88.88,0,0,0,.9-.66,12.29,12.29,0,0,1,.57-1.15,1.81,1.81,0,0,1,3.3,0c.21.42.43.83.61,1.26a.79.79,0,0,0,.75.54,11.07,11.07,0,0,1,1.5.22,1.78,1.78,0,0,1,1,3,11.35,11.35,0,0,1-1.15,1.15.74.74,0,0,0-.26.78,15.46,15.46,0,0,1,.25,1.66,1.76,1.76,0,0,1-2.51,1.79A10,10,0,0,1,46.54,32a.84.84,0,0,0-1,0,10.57,10.57,0,0,1-1.33.71A1.82,1.82,0,0,1,41.63,30.82Zm6.46-.62a2.9,2.9,0,0,1,1.1-3.79A2.94,2.94,0,0,1,46,24.14a3,3,0,0,1-3.17,2.32A2.86,2.86,0,0,1,44,30.17C46.05,29.34,46.05,29.34,48.09,30.2Z"/><path d="M34,32.84c-.35-.17-1-.42-1.57-.76a1.16,1.16,0,0,0-1.38,0,6.25,6.25,0,0,1-1.23.64A1.75,1.75,0,0,1,27.38,31a9.57,9.57,0,0,1,.25-1.76.76.76,0,0,0-.29-.82c-.35-.31-.68-.64-1-1a1.81,1.81,0,0,1,1.05-3.15,8.63,8.63,0,0,1,1.21-.18.91.91,0,0,0,.95-.68,10.47,10.47,0,0,1,.6-1.21,1.79,1.79,0,0,1,3.21,0,14.06,14.06,0,0,1,.7,1.4.71.71,0,0,0,.67.48,13.45,13.45,0,0,1,1.55.22,1.78,1.78,0,0,1,1,2.94c-.37.44-.83.8-1.21,1.24a1,1,0,0,0-.22.66c0,.63.2,1.25.23,1.88C36.17,32.08,35.37,32.85,34,32.84Zm-5.39-6.47a7.1,7.1,0,0,1,1.25,1.76A5.84,5.84,0,0,1,29.93,30a5.65,5.65,0,0,1,1.81-.59,6.94,6.94,0,0,1,2,.65,2.74,2.74,0,0,1,1.13-3.56,7.32,7.32,0,0,1-2-.69,7.4,7.4,0,0,1-1.24-1.71A2.66,2.66,0,0,1,28.63,26.37Z"/><path d="M62.55,32.84A15.53,15.53,0,0,1,61,32.07a1.12,1.12,0,0,0-1.36,0,8.32,8.32,0,0,1-1.14.61,1.72,1.72,0,0,1-1.89-.21,1.76,1.76,0,0,1-.67-1.79c.07-.49.21-1,.25-1.48a1.11,1.11,0,0,0-.22-.68c-.32-.38-.71-.71-1.07-1.06a1.81,1.81,0,0,1,1.05-3.15,6.63,6.63,0,0,1,1.16-.17,1,1,0,0,0,1.05-.8,7.86,7.86,0,0,1,.61-1.19,1.76,1.76,0,0,1,3.08,0c.29.47.48,1,.78,1.48a1.19,1.19,0,0,0,.66.46,14.72,14.72,0,0,0,1.48.24,1.76,1.76,0,0,1,1.46,1.23,1.72,1.72,0,0,1-.46,1.85,12.52,12.52,0,0,1-1,1,.85.85,0,0,0-.28.94c.1.47.19.95.25,1.43C64.84,31.9,64,32.86,62.55,32.84Zm-2.26-8.71a3,3,0,0,1-3.19,2.32,3,3,0,0,1,1.22,3.75,3,3,0,0,1,4,0,3,3,0,0,1,1.18-3.76A2.94,2.94,0,0,1,60.29,24.13Z"/><path d="M30.11,37.78a1.14,1.14,0,0,1,1.14,1.13,1.13,1.13,0,1,1-1.14-1.13Z"/><path d="M19.59,65.9a1.16,1.16,0,0,1,1.21-1.06,1.13,1.13,0,1,1-1.21,1.06Z"/></svg>