<svg id="Layer_1" data-name="Layer 1" xmlns="http://www.w3.org/2000/svg" viewBox="0 0 85.04 85.04"><path d="M5.42,16.3a2.19,2.19,0,0,1,1.7-.57c1.31,0,2.63,0,4,0,0-1.51.08-3,.19-4.45a1.63,1.63,0,0,1,.51-1.09c.74-.54,1.59.06,1.58,1.09,0,1.22-.07,2.44-.11,3.66,0,.23,0,.47,0,.74H71V11.83A6.94,6.94,0,0,1,71,11,1,1,0,0,1,72,10a1,1,0,0,1,1,1.1c.06,1.34.09,2.68.14,4,0,.17,0,.33,0,.61h3.29c.41,0,.81,0,1.22,0a1.13,1.13,0,0,1,1.21,1.07A1.11,1.11,0,0,1,77.76,18c-1.23,0-2.45,0-3.67,0h-.86c.44,17.08.87,34.07,1.31,51.12h3.18c.84,0,1.32.39,1.34,1.06s-.46,1.1-1.36,1.11h-3c0,1,0,1.91,0,2.83a1.15,1.15,0,0,1-.79,1.3,1,1,0,0,1-1.35-1c0-1,0-2,0-3.11H11.72c0,1,0,1.94,0,2.91,0,.56-.17,1-.81,1.19A1.05,1.05,0,0,1,9.6,74.29c0-1,0-2,0-3H7c-.94,0-1.46-.41-1.44-1.11S6.11,69.09,7,69.09H9.73L11.09,18H6.84a1.52,1.52,0,0,1-1.42-.66Zm67,52.77q-.63-25.59-1.28-51H13.2L11.84,69.07Z"/><path d="M42.22,25.49H62.57c1.35,0,1.65.29,1.65,1.63V58.26c0,1.34-.4,1.73-1.77,1.73H22c-1.47,0-1.77-.29-1.77-1.76V27.17c0-1.4.28-1.68,1.67-1.68ZM61.94,38V27.7H38.51V41.53c0,1-.41,1.43-1.43,1.45h-1.9v4.08H51.33c0-.33,0-.62,0-.9A1.15,1.15,0,0,1,52.43,45a1.14,1.14,0,0,1,1.12,1.17c0,.76,0,1.53,0,2.3q0,4.56,0,9.13a1.32,1.32,0,0,0,0,.26H62V40.17H45.9a4.56,4.56,0,0,1-.64,0,1.07,1.07,0,0,1-1-1.13,1,1,0,0,1,1-1c.24,0,.48,0,.72,0H61.94ZM22.43,52.41v5.4H51.28V49.4H35.13c0,.57,0,1.07,0,1.57,0,1-.44,1.44-1.45,1.44H22.43ZM36.3,40.74v-13H22.44v13ZM22.44,43V50.2H32.88V43Z"/></svg>