<svg id="Layer_1" data-name="Layer 1" xmlns="http://www.w3.org/2000/svg" viewBox="0 0 85.04 85.04"><path d="M8.11,58.5c.6-.88,1.48-.72,2.24-.45a8.85,8.85,0,0,1,2.26,1.27c1.52,1.15,2.72,1.21,4.18,0a4.91,4.91,0,0,1,5-1.16,13.12,13.12,0,0,1,2.17,1.3c.5.3,1,.56,1.54.84l.16-.18-.23-2a17.57,17.57,0,0,1-11.56-5.85,6,6,0,0,1-1.21-2,2.41,2.41,0,0,1,2.16-3.38,8.57,8.57,0,0,1,4.61,1,19.6,19.6,0,0,1,5.43,3.88l-.18-2.42a6,6,0,0,1-4.47-1.73A22.13,22.13,0,0,1,13,37.94a8.24,8.24,0,0,1-.48-2.82,2.72,2.72,0,0,1,3.66-2.67,8.9,8.9,0,0,1,3.64,2.22A23.23,23.23,0,0,1,24,40.06l.38.63V35.61a5.08,5.08,0,0,1-3.62-1.15,21,21,0,0,1-4.93-4.94,1,1,0,0,1,.57-1.69c.54-.12.85.24,1.18.6,1.07,1.18,2.12,2.38,3.26,3.48a12.38,12.38,0,0,0,2.1,1.44,5.66,5.66,0,0,0,1.07.34,15.39,15.39,0,0,0-.33-2.11,19.28,19.28,0,0,0-5.87-8.86A6.88,6.88,0,0,0,16,21.66c-.83-.36-1.24-.06-1.17.82a10.9,10.9,0,0,0,.45,2c.23.81.06,1.33-.58,1.55s-1.12-.07-1.34-.85a11.49,11.49,0,0,1-.56-2.75c-.08-2.3,1.61-3.49,3.8-2.77a9.15,9.15,0,0,1,3.77,2.63,28.19,28.19,0,0,1,2.29,2.82c.7,1,1.28,2.05,2,3.22-.08-.93.4-1.73-.51-2.49a4.71,4.71,0,0,1-1.29-3,14.27,14.27,0,0,1,.74-8A7.26,7.26,0,0,1,25,12.71a2.59,2.59,0,0,1,4.25.41,6.84,6.84,0,0,1,1.07,3.56,15,15,0,0,1-1.53,7.75,2.37,2.37,0,0,0-.09.35c.53-.61.94-1.12,1.38-1.59a9.75,9.75,0,0,1,4.54-3.12A2.59,2.59,0,0,1,38,22.54a8.2,8.2,0,0,1-1,4.26,22.33,22.33,0,0,1-6.56,7.91,5.5,5.5,0,0,1-3.95,1.41v5.4c.17-.25.27-.4.36-.56a22.28,22.28,0,0,1,5.44-6.69,6.81,6.81,0,0,1,3.1-1.53,2.72,2.72,0,0,1,3.3,2.65A7.76,7.76,0,0,1,38,39a23.12,23.12,0,0,1-7.65,9.47,5.77,5.77,0,0,1-3.54,1.3l.11,2.14c1.28-1.13,2.47-2.28,3.77-3.3a11.37,11.37,0,0,1,5.12-2.4,5.49,5.49,0,0,1,2.06.06,2.24,2.24,0,0,1,1.69,3,6.33,6.33,0,0,1-1,2A18.57,18.57,0,0,1,29,57.59a12.76,12.76,0,0,1-1.52.24l.19,1.67.66-.49a4.84,4.84,0,0,1,6.25,0,3.85,3.85,0,0,0,2.16,1.15A3,3,0,0,0,39,59.43a5.45,5.45,0,0,1,3.22-1.54c.82-.06,1.39.28,1.45.94s-.42,1.1-1.23,1.12a3.32,3.32,0,0,0-2.07,1,4.75,4.75,0,0,1-4.82,1,4.93,4.93,0,0,1-1.68-1,3.2,3.2,0,0,0-4.78,0,4.55,4.55,0,0,1-4.77.93,5.25,5.25,0,0,1-1.82-1.11,3.07,3.07,0,0,0-4.35,0A4.64,4.64,0,0,1,13.19,62a10.89,10.89,0,0,1-2.06-1.23c-.3-.18-.58-.4-1-.7v7.48H75.05V60c-.54.41-1,.73-1.42,1.07a4.89,4.89,0,0,1-6.31,0A5.85,5.85,0,0,0,65.42,60a2.69,2.69,0,0,0-2.58.8,4.82,4.82,0,0,1-5,1.16A5.52,5.52,0,0,1,56,60.87a3.1,3.1,0,0,0-4.41,0A4.77,4.77,0,0,1,46.7,62L46.5,62c-.91-.34-1.27-.87-1-1.53s.78-.72,1.72-.42a2.84,2.84,0,0,0,2.89-.55A5.71,5.71,0,0,1,52.9,58,5,5,0,0,1,57,59.11a3.26,3.26,0,0,0,2,1L58.77,58a10.13,10.13,0,0,1-5.26-1.22,18.07,18.07,0,0,1-6-4.22A7.51,7.51,0,0,1,46,50.19a2.37,2.37,0,0,1,2.14-3.27,7.76,7.76,0,0,1,3.81.61,18.28,18.28,0,0,1,5.67,3.68l.57.52-.14-2.37c-2.1.16-3.63-1-5.06-2.2a21.75,21.75,0,0,1-6.77-9.54,7.93,7.93,0,0,1-.37-2.37,2.72,2.72,0,0,1,3.72-2.77,9.55,9.55,0,0,1,4.61,3.26c1.28,1.51,2.42,3.15,3.58,4.69V35.61a4.93,4.93,0,0,1-3.72-1.22A20.54,20.54,0,0,1,46.5,24.33,5.83,5.83,0,0,1,46.22,22c.2-2.05,1.73-3,3.7-2.37a8.49,8.49,0,0,1,3.22,2,23,23,0,0,1,4.54,6l.39.7c0-.73.06-1.25.07-1.78a.38.38,0,0,0-.12-.29A6,6,0,0,1,56.14,22a13.71,13.71,0,0,1,.78-7,7.89,7.89,0,0,1,1.63-2.5,2.52,2.52,0,0,1,4,.43,7.2,7.2,0,0,1,1.18,4.14,16.07,16.07,0,0,1-1.64,7.63l.42-.5a5.37,5.37,0,0,1,.44-.51c1.15-1,2.25-2.12,3.49-3A4.61,4.61,0,0,1,68.64,20a2.52,2.52,0,0,1,2.8,2.64,7.84,7.84,0,0,1-.83,3.7,22.19,22.19,0,0,1-6.74,8.35,5.47,5.47,0,0,1-4,1.43v5.4l.34-.53a20.9,20.9,0,0,1,5.61-6.81,8.23,8.23,0,0,1,2.8-1.38,2.65,2.65,0,0,1,3.45,2.69,9.15,9.15,0,0,1-1.25,4.62,1,1,0,0,1-1.35.37A1,1,0,0,1,69,39.15c.32-1,.7-1.94.93-2.93.1-.41,0-1.12-.23-1.29a1.72,1.72,0,0,0-1.36.09A10.09,10.09,0,0,0,64.82,38a20.64,20.64,0,0,0-4.33,7.74,7.74,7.74,0,0,0-.22,1.52c0,.41.2.62.58.4a12.33,12.33,0,0,0,2.47-1.45c1.22-1.08,2.31-2.31,3.44-3.5a1,1,0,1,1,1.62,1.28,21.55,21.55,0,0,1-4.73,4.56,5.84,5.84,0,0,1-3.5,1.26L60.29,52c.87-.84,1.67-1.68,2.54-2.43a13.45,13.45,0,0,1,6.28-3.33,5.5,5.5,0,0,1,2.25.08A2.24,2.24,0,0,1,73,49.12a6.07,6.07,0,0,1-1.55,2.79,19,19,0,0,1-9.05,5.68,15.17,15.17,0,0,1-1.52.24l.2,1.77.91-.71a4.82,4.82,0,0,1,5.87,0c.34.26.67.54,1,.79a2.81,2.81,0,0,0,3.32,0c.37-.27.71-.56,1.07-.83a4.58,4.58,0,0,1,2.69-.93A1,1,0,0,1,77.1,59c0,3.91,0,7.82,0,11.73a3,3,0,0,1-3,3c-.27,0-.54,0-.81,0q-30.68,0-61.37,0c-1.85,0-3.17-.6-3.81-2.41Zm67,11.2h-65a6.22,6.22,0,0,0,.28,1.45c.26.57.87.46,1.38.46H74a1,1,0,0,0,1-1A8.67,8.67,0,0,0,75.08,69.7ZM47.86,35.63c0,.25.12.69.24,1.12a15.56,15.56,0,0,0,3,5.44A17,17,0,0,0,56.31,47a5.3,5.3,0,0,0,1.2.32c0-.41.07-.82.08-1.23a2.45,2.45,0,0,0-.11-.59,20.55,20.55,0,0,0-6.28-9.75,7.26,7.26,0,0,0-2-1.19C48.3,34.14,47.87,34.47,47.86,35.63Zm-21,12,.29.16a13.31,13.31,0,0,0,1.77-.89,20.58,20.58,0,0,0,7.2-8.86A7.77,7.77,0,0,0,36.65,36c.15-1.09-.37-1.48-1.38-1.08a5.76,5.76,0,0,0-1.46.81A20.15,20.15,0,0,0,27,46,8.37,8.37,0,0,0,26.87,47.64ZM24.28,46.5a3.12,3.12,0,0,0-.07-.47,19.74,19.74,0,0,0-6.95-10.74,5.51,5.51,0,0,0-1.6-.82c-.75-.28-1.16,0-1.14.78a6.84,6.84,0,0,0,.41,2.16,20.48,20.48,0,0,0,6.35,8.45,11.13,11.13,0,0,0,2.17,1.32C24.12,47.51,24.29,47.35,24.28,46.5ZM57.33,33.69a8.41,8.41,0,0,0-.12-1.46,18.68,18.68,0,0,0-6.29-9.72,5.88,5.88,0,0,0-1.57-.88c-.78-.3-1.11,0-1.1.78a3.39,3.39,0,0,0,.13,1.06,18.12,18.12,0,0,0,7.71,9.77A6.2,6.2,0,0,0,57.33,33.69Zm-30.42.37.2.14a11.29,11.29,0,0,0,1.7-.86A19.12,19.12,0,0,0,35.55,25,7.56,7.56,0,0,0,36,22.69c0-.58-.33-.84-.88-.62a7,7,0,0,0-1.82,1,19.2,19.2,0,0,0-6.15,9.2A10.07,10.07,0,0,0,26.91,34.06Zm33.38,0,.23.13a9.25,9.25,0,0,0,1.39-.64,18.9,18.9,0,0,0,7.18-9,5.27,5.27,0,0,0,.31-1.77c0-.66-.34-.91-1-.68a6,6,0,0,0-1.7.9,18.84,18.84,0,0,0-6.21,9.3A10,10,0,0,0,60.29,34ZM27.34,55.69c.31,0,.51,0,.71,0a3,3,0,0,0,.59-.1,16.83,16.83,0,0,0,7.68-4.86,10,10,0,0,0,1.19-1.84c.27-.45,0-.72-.43-.73a5.21,5.21,0,0,0-1.52.2A14.74,14.74,0,0,0,29,52.85,6.34,6.34,0,0,0,27.34,55.69ZM25,56l.14-.22a11.23,11.23,0,0,0-.74-1.32,15,15,0,0,0-7.55-5.34,6.27,6.27,0,0,0-1.79-.2c-.5,0-.68.31-.48.76a4.77,4.77,0,0,0,.67,1.08,16.72,16.72,0,0,0,8.18,5A11.41,11.41,0,0,0,25,56Zm33.55,0c-.14-.39-.18-.56-.26-.72a3.68,3.68,0,0,0-.39-.7,15.22,15.22,0,0,0-7.75-5.53,5.21,5.21,0,0,0-1.53-.17c-.75,0-.93.29-.56,1a6.27,6.27,0,0,0,1,1.36,17.41,17.41,0,0,0,7.53,4.5A14.09,14.09,0,0,0,58.57,56.06Zm2.11-.32A11.94,11.94,0,0,0,62,55.58a14.31,14.31,0,0,0,4.58-2.18,13,13,0,0,0,4-3.76,4.89,4.89,0,0,0,.37-1.3,4,4,0,0,0-1.35-.12,14.09,14.09,0,0,0-8.44,6.4A5.8,5.8,0,0,0,60.68,55.74ZM26,24.83a13.27,13.27,0,0,0,1.1-1.62,12.35,12.35,0,0,0,1.2-6.12,8.89,8.89,0,0,0-.65-2.64c-.3-.75-.83-.78-1.33-.15a5.49,5.49,0,0,0-.81,1.38,12.29,12.29,0,0,0-.6,6.79A3.9,3.9,0,0,0,26,24.83Zm33.14-.11.31,0a12.74,12.74,0,0,0,1.05-1.58,11.85,11.85,0,0,0,1.18-5.79A9.8,9.8,0,0,0,61,14.47c-.28-.78-.84-.8-1.36-.14a4.62,4.62,0,0,0-.75,1.26,12.21,12.21,0,0,0-.41,7.76A8.86,8.86,0,0,0,59.13,24.72ZM26.91,27.56l1.14-1.84C27.56,26.25,26.46,26.39,26.91,27.56Zm33.32.11,1.19-2C60.62,26.21,60,26.64,60.23,27.67Z"/></svg>