<svg id="Layer_1" data-name="Layer 1" xmlns="http://www.w3.org/2000/svg" viewBox="0 0 85.04 85.04"><path d="M22.39,65.46h0a1.12,1.12,0,0,0,1.13-1.12V51H48c.93,0,1.07.13,1.23,1.09.56,3.21,1.13,6.41,1.69,9.62l.89,5.05c.2,1.12.39,2.24.59,3.4l.22,1.28h-20a1,1,0,0,0-1,1h0a1,1,0,0,0,1,1H76.71V20.76h-2c-1.75,0-3.56,0-5.34,0h0a.82.82,0,0,1-.88-.57c-2.37-4.94-6.21-7.44-11.4-7.44h-.22c-5.19.08-9,2.61-11.31,7.53a.68.68,0,0,1-.76.47H23.55c0-.19,0-.37,0-.54,0-.43-.06-.84-.1-1.24a6.87,6.87,0,0,0-2.8-4.79,6.88,6.88,0,0,0-5.33-1.4,7.14,7.14,0,0,0-6.19,7.45V65.51a4.78,4.78,0,0,0,0,.75,8.33,8.33,0,0,0,8.37,7.26h3.79l5.64,0a1,1,0,0,0,1-1h0a1,1,0,0,0-1-1H18.24a7.4,7.4,0,0,1-5.64-2.49,5.18,5.18,0,0,1,2.68-8.66A5,5,0,0,1,21.21,64l.07.46A1.11,1.11,0,0,0,22.39,65.46Zm13.5-38.09c-2.06,3.27-4.19,6.64-6.27,10a1.27,1.27,0,0,1-1.19.71h-.07c-.59,0-1.19,0-1.78,0H24.27l-.62,0h-.12V22.9H38.71ZM65.74,50h0a1,1,0,0,0-1-1H61.85a3,3,0,0,0-2.31,1A2.89,2.89,0,0,0,59,52.42l3.73,18.65a2.36,2.36,0,0,1,0,.29v0h-8l-.57-3.25L53,61.53c-.23-1.31-.45-2.63-.68-4-.35-2-.71-4.09-1.07-6.13a2.81,2.81,0,0,0-3.06-2.52H23.57V40.16h5a3.1,3.1,0,0,0,2.78-1.6c1.46-2.35,2.94-4.69,4.42-7,1.64-2.59,3.33-5.28,5-7.93a1.25,1.25,0,0,1,1.34-.74c.63,0,1.24,0,1.9,0h.73l0,.28c0,.31,0,.6-.09.9a11.92,11.92,0,0,0,.95,6.14.93.93,0,0,1-.08.91c-.49.71-1,1.45-1.44,2.16s-1,1.48-1.47,2.21A2.84,2.84,0,0,0,45,40.17h.07c1.34,0,2.71,0,4,0h3.35a.85.85,0,0,1,.85.44c.35.6.73,1.2,1.09,1.78s.7,1.12,1,1.69a1.94,1.94,0,0,0,1.58,1.1h0a2,2,0,0,0,1.6-1.11c.64-1,1.42-2.3,2.24-3.55a.83.83,0,0,1,.57-.32c3.88,0,7.83,0,11.64,0h1.25l.2,0h0V48.9H70.47a1,1,0,0,0-1,1.05h0a1,1,0,0,0,1,1h4.1V71.41H65l-.23-1.11c-.17-.86-.35-1.72-.52-2.58L63,61.44c-.62-3.1-1.23-6.19-1.85-9.28a1.08,1.08,0,0,1,.08-.88A1.05,1.05,0,0,1,62,51h2.66A1,1,0,0,0,65.74,50Zm1.67-25.76a9.4,9.4,0,0,1-2.13,7.39,72,72,0,0,0-8.14,10.86L55.9,40.7c-1-1.45-2-3-3.12-4.38-.7-.93-1.48-1.81-2.24-2.67l-1.3-1.49a10.07,10.07,0,0,1-2-10.38,9.91,9.91,0,0,1,8-6.79,10.06,10.06,0,0,1,8,1.87A10.52,10.52,0,0,1,67.41,24.22Zm2-.78-.06-.55h5.18V38H62.7l.11-.15c.17-.24.33-.46.51-.67l.24-.28c.87-1,1.78-2.08,2.68-3.09a12.66,12.66,0,0,0,3.35-9C69.57,24.38,69.52,23.92,69.46,23.44ZM51.51,38h-.08L51,38H44.88c-.45,0-.73,0-.81-.35a1.39,1.39,0,0,1,.21-1c.63-1,1.28-2,2-3l.68-1ZM21.35,55.83c0,1.27,0,2.55,0,3.82,0,.15,0,.3,0,.47h0a7.52,7.52,0,0,0-5.09-2.05,7.52,7.52,0,0,0-5.06,2,1.34,1.34,0,0,1,0-.2V20a5.14,5.14,0,0,1,1.55-3.72,5.06,5.06,0,0,1,3.57-1.46h.11a5.09,5.09,0,0,1,4.94,4.78c0,.71,0,1.44,0,2.15v10q0,9.09,0,18.19C21.33,51.89,21.34,53.86,21.35,55.83Z"/><path d="M57,18.5a6.67,6.67,0,0,0,0,13.34h.06a6.72,6.72,0,0,0,4.73-2A6.67,6.67,0,0,0,57.07,18.5Zm3.18,3.34a4.33,4.33,0,0,1,1.34,3.83h0a4.62,4.62,0,0,1-5,4,4.41,4.41,0,0,1-4-4.95l0-.15a3.64,3.64,0,0,1,.25-1.07,5.23,5.23,0,0,1,.67-1.18,4.49,4.49,0,0,1,3.31-1.73h.32A4.33,4.33,0,0,1,60.21,21.84Z"/></svg>