<svg id="Layer_1" data-name="Layer 1" xmlns="http://www.w3.org/2000/svg" viewBox="0 0 85.04 85.04"><path d="M78.37,65.57c-.19-.55-.37-1.12-.54-1.67l-.1-.32-.3-1c-.08-.27-.16-.55-.25-.82s-.22-.72-.34-1.08-.19-.62-.29-.92l-.3-1-.35-1.13c-.14-.46-.29-.91-.43-1.37s-.26-.79-.38-1.19-.32-1-.47-1.52L73,48.29l-.51-1.6-1.11-3.54c-.12-.37-.24-.75-.35-1.13a.33.33,0,0,1,0-.2l.24-.31c.58-.79,1.18-1.61,1.79-2.39A6.49,6.49,0,0,0,74.47,36a6.12,6.12,0,0,0-.86-4.16,6.11,6.11,0,0,0-11.26,2.73,5.93,5.93,0,0,0,.16,2,.66.66,0,0,1,0,.13h-.15l-.74,0-1.48,0L48.56,37h-.07a.21.21,0,0,1,0-.06l.48-.65c.39-.52.79-1.06,1.2-1.59a10.66,10.66,0,0,0,2.19-4.52,10,10,0,0,0-2.79-9.08,9.32,9.32,0,0,0-4.8-2.54,9.49,9.49,0,0,0-4.64.24,9.23,9.23,0,0,0-4.46,2.92,13.09,13.09,0,0,0-1.25,1.82A9,9,0,0,0,33.34,27a9.74,9.74,0,0,0,.14,3.22,11.66,11.66,0,0,0,.82,2.32A14.61,14.61,0,0,0,36,35.13l.09.12.79,1,.21.29H37l-4.3,0-3.92,0-3.14,0-1.79,0-2.56,0H16.81a1.05,1.05,0,0,0-1.06.81L15.6,38l-.33.94-.54,1.57c-.11.34-.23.68-.34,1l-.34,1c-.13.36-.25.72-.37,1.08s-.19.52-.28.79l-.35,1c-.14.43-.29.86-.44,1.28l-.4,1.17-.55,1.57-.42,1.25c-.12.38-.25.76-.38,1.13l-.43,1.27c-.14.38-.27.77-.4,1.15s-.31.91-.46,1.36-.31.91-.46,1.36-.31.89-.46,1.33l-.51,1.46-.45,1.33-.48,1.44-.36,1c-.24.7-.49,1.42-.72,2.13a1.13,1.13,0,0,0,0,.72A1,1,0,0,0,7.24,67H77.35a1.1,1.1,0,0,0,.92-.42A1.13,1.13,0,0,0,78.37,65.57ZM41.23,61.2v2.49c0,.38,0,.77,0,1.15,0,.1,0,.13,0,.13s0,0-.12,0h0c-2.28,0-4.57,0-6.86,0H30.16c-.09,0-.14,0-.16,0a.24.24,0,0,1,0-.15q0-3.25,0-6.52V54.1c0-1.06,0-2.11,0-3.16a1.5,1.5,0,0,1,.17-.71A7.08,7.08,0,0,0,30.69,46a7.39,7.39,0,0,0-1.36-3.23,7.14,7.14,0,0,0-5.77-3,7,7,0,0,0-1.91.27,7.11,7.11,0,0,0-3.41,2.11,7,7,0,0,0-1.59,7.08c.06.18.11.36.16.54l0,.09H13.66a.8.8,0,0,1,0-.16c.19-.52.36-1,.54-1.56l.58-1.67c.17-.49.34-1,.5-1.47l.42-1.26.39-1.16c.16-.49.33-1,.5-1.45l.12-.32c.07-.21.14-.42.22-.62.15-.43.3-.86.44-1.29.05-.15.1-.18.25-.18h1.8L34,38.65l4.34,0h0a.49.49,0,0,1,.46.25c.78,1,1.7,2.28,2.62,3.48a10.35,10.35,0,0,0,1,1.14.83.83,0,0,0,.59.25h0a.92.92,0,0,0,.66-.33,5.32,5.32,0,0,0,.36-.47,3.62,3.62,0,0,1,.22-.32c.12-.15.24-.31.37-.46l.4-.51c.72-.94,1.26-1.67,1.77-2.36a.56.56,0,0,1,.49-.25c2,0,4.1-.06,6.55-.12.17,0,.2,0,.22.2.08.68.17,1.35.26,2l.18,1.36.18,1.59.17,1.45c.09.71.17,1.41.26,2.12a1.06,1.06,0,0,0,1.18,1.06H69.51c.43,0,.86,0,1.3,0,.13,0,.18,0,.22.18.25.8.51,1.61.76,2.42l.36,1.13.9,2.89a1.5,1.5,0,0,0,0,.17h-.2l-17.1,0h-.21a1.3,1.3,0,0,1,0-.24A6.08,6.08,0,0,0,53,49a5.59,5.59,0,0,0-4.12-1,5.93,5.93,0,0,0-4.52,3,6,6,0,0,0-.72,4.39c0,.06,0,.08,0,.08a.15.15,0,0,1-.1,0l-1.37,0h0a1,1,0,0,0-.94,1c0,.55,0,1.1,0,1.65v.21C41.23,59.3,41.23,60.25,41.23,61.2ZM17.79,51.89h0a.37.37,0,0,1,.33.17l2,2.61.81,1.07.71,1,1.09,1.44a1,1,0,0,0,.83.44h0a1,1,0,0,0,.79-.4c.42-.53.83-1.09,1.23-1.62l.5-.66,1.84-2.45a.2.2,0,0,1,0,.07l0,7.55c0,.71,0,1.41,0,2.12V65H8.49a.93.93,0,0,0,0-.14c.18-.51.35-1,.53-1.52s.28-.83.43-1.24l.39-1.18c.14-.39.27-.78.4-1.17l.44-1.26c.12-.36.24-.71.37-1.07s.26-.78.4-1.18.26-.78.4-1.17l.48-1.41.34-1,.06-.16c.05-.14.1-.28.14-.43s.08-.17.24-.17h4.64Zm7.06,2.26-1.18,1.58-.12.15c-.05-.07-.11-.13-.16-.19L22.84,55c-.5-.65-1-1.31-1.49-2l-.37-.5c-.56-.75-1.14-1.52-1.69-2.31a5,5,0,0,1-.92-3.7,5.38,5.38,0,0,1,2.4-3.87,4.85,4.85,0,0,1,2.69-.81,5.1,5.1,0,0,1,1.09.11,4.89,4.89,0,0,1,1.8.71,5.37,5.37,0,0,1,1.81,2.08,5.17,5.17,0,0,1,.58,3,5.93,5.93,0,0,1-1.29,3ZM45.73,37.31,43,40.92a.62.62,0,0,0-.08.12l-.34-.45L42,39.72,41,38.49,38.49,35.1,38,34.46c-.48-.63-1-1.28-1.41-2a7.59,7.59,0,0,1-1.27-4.95,7.85,7.85,0,0,1,3.1-5.65,7.3,7.3,0,0,1,3.7-1.47,8.24,8.24,0,0,1,.85-.05,6.72,6.72,0,0,1,2.26.39,8.68,8.68,0,0,1,1.7.77,7.56,7.56,0,0,1,2.69,2.91A7.84,7.84,0,0,1,49,33C47.9,34.4,46.82,35.86,45.73,37.31Zm26.59-1A5.07,5.07,0,0,1,71.43,38l-1.81,2.4-1.08,1.43a.79.79,0,0,1-.12.15l-.23-.31-.54-.72L67,40,65.17,37.6a4.07,4.07,0,0,1-.77-3.19,4.37,4.37,0,0,1,1.77-2.82,3.86,3.86,0,0,1,2.22-.68,4.76,4.76,0,0,1,.83.08,3.91,3.91,0,0,1,2.85,2.25A4.16,4.16,0,0,1,72.32,36.35Zm-4.78,7.78a1.1,1.1,0,0,0,.87.5h0a1.14,1.14,0,0,0,.87-.46l.17-.24c.22.6.4,1.2.58,1.78q.13.48.3,1l-.22,0H62.56c-1.78,0-3.55,0-5.33,0h0c-.19,0-.23,0-.25-.21-.08-.68-.16-1.37-.25-2.05l-.65-5.26v0c0-.1,0-.22,0-.24h.26l1.65,0c1.71,0,3.48-.06,5.21-.11h0a.57.57,0,0,1,.54.3l1.79,2.4.94,1.25ZM53.3,52.44a4.08,4.08,0,0,1,.41,1.77,4.55,4.55,0,0,1-1,2.77c-.73,1-1.45,1.92-2.16,2.87l-.77,1a1.49,1.49,0,0,1-.12.14l-.11-.14-1-1.36L46.4,56.74a4.23,4.23,0,0,1,2-6.56,3.86,3.86,0,0,1,1.2-.19A4,4,0,0,1,53.3,52.44Zm-10,5.14a.65.65,0,0,1,.22,0h.23c.22,0,.44,0,.66,0a.39.39,0,0,1,.24.12c.63.83,1.25,1.67,1.87,2.51l1,1.32c.14.19.29.37.44.56.27.36.56.73.81,1.11a1.08,1.08,0,0,0,.87.48h0a1.11,1.11,0,0,0,.91-.47c.75-1,1.53-2.06,2.29-3.07l1-1.3.28-.38.57-.76a.39.39,0,0,1,.24-.13H60.6l1.4,0H73.5c.19,0,.25,0,.31.24.16.53.33,1.05.49,1.58.12.36.23.71.34,1.07.18.55.35,1.12.52,1.67s.27.89.41,1.33.23.74.36,1.13l.14.44-.19,0H43.26a1.09,1.09,0,0,1,0-.2v-7A1.16,1.16,0,0,1,43.26,57.58Z"/><path d="M42.2,22.15a6,6,0,1,0,6.53,5.92A6,6,0,0,0,42.2,22.15Zm.24,10.14a4.19,4.19,0,0,1,0-8.36,4.19,4.19,0,1,1,0,8.36Z"/><path d="M23.4,42.86A4.12,4.12,0,1,0,27.47,47,4.13,4.13,0,0,0,23.4,42.86Zm-.08,6.47a2.36,2.36,0,0,1,0-4.71,2.36,2.36,0,1,1,0,4.71Z"/><path d="M49.45,50.52A3.54,3.54,0,1,0,53,54.05,3.54,3.54,0,0,0,49.45,50.52Zm0,5.31a1.77,1.77,0,1,1,0-3.54,1.75,1.75,0,0,1,1.73,1.77A1.79,1.79,0,0,1,49.46,55.83Z"/><path d="M68.25,31.42A3.54,3.54,0,1,0,71.78,35,3.51,3.51,0,0,0,68.25,31.42Zm0,5.3A1.77,1.77,0,0,1,66.48,35a1.8,1.8,0,0,1,1.71-1.76,1.77,1.77,0,1,1,.06,3.53Z"/></svg>