<svg id="Layer_1" data-name="Layer 1" xmlns="http://www.w3.org/2000/svg" viewBox="0 0 85.04 85.04"><path d="M13.61,35.88a16.07,16.07,0,0,1,1.3-1.74c2.85-2.89,5.74-5.75,8.61-8.62,1.38-1.38,2.75-1.38,4.14,0,.95.95,1.89,1.92,2.87,2.85a1.11,1.11,0,0,0,.72.27,2.3,2.3,0,0,1,1.88.69c.67.69,1.35,1.36,2,2a2.07,2.07,0,0,1,0,3.22l-.22.26c.9.89,1.65,2,3.06,2.07a14.16,14.16,0,0,0,2.43-.21,6.89,6.89,0,0,1,5.06,1.37l.31.22,1.93-1.75,1.86-1.71a10,10,0,0,1-.81-2,7,7,0,0,1,0-2.29c.31-1.79-.18-3.08-1.83-3.84a16.94,16.94,0,0,0-3.24-1c-.66-.15-1.23-.32-1.42-1s.19-1.15.7-1.56a8.78,8.78,0,0,1,10.27-1,16.62,16.62,0,0,1,3.63,2.66c2.37,2.22,4.62,4.56,6.91,6.86,1.16,1.15,1.29,1.92.51,3.55.25.21.57.43.85.7s.5.53.72.77c1.72-.74,2.33-.61,3.61.67.41.4.82.8,1.21,1.21a2.26,2.26,0,0,1,0,3.29q-2.64,2.69-5.32,5.33a2.26,2.26,0,0,1-3.33,0c-.48-.45-.93-.92-1.39-1.38a2.33,2.33,0,0,1-.35-3.44l-1.62-1.61a2.27,2.27,0,0,1-2.62.33.51.51,0,0,0-.41.13c-1.92,2-3.83,4-5.91,6.11a20,20,0,0,1,1.53,1.33,3.16,3.16,0,0,1-1.53,5.27,7.8,7.8,0,0,1-1.75,0,3.28,3.28,0,0,1-3.95,2.22c-.88,2.09-2.18,2.79-4.29,2.29-.06.13-.13.26-.19.4a2.92,2.92,0,0,1-2.13,1.77,2.35,2.35,0,0,0-1.31.79c-.75.81-1.51,1.6-2.29,2.38a4.12,4.12,0,0,1-5.75.21,27.57,27.57,0,0,1-2-1.9,4.08,4.08,0,0,1,.11-5.82c.9-.89,1.85-1.72,2.76-2.55-.72-1.61-1.38-3.2-2.14-4.75a6.81,6.81,0,0,0-1.2-1.45c-.52-.57-1.07-1.12-1.64-1.7l-.45.38a2,2,0,0,1-3,0c-.77-.73-1.51-1.49-2.25-2.25a2.16,2.16,0,0,1-.62-1.78,1.2,1.2,0,0,0-.29-.79c-.8-.84-1.66-1.63-2.45-2.48-.51-.56-.94-1.21-1.4-1.82ZM25.34,44.6c.37.36.73.75,1.14,1.09a10.16,10.16,0,0,1,2.95,4.42A14.1,14.1,0,0,0,32.3,54.9c1.07,1.15,2.19,2.25,3.28,3.39a1.37,1.37,0,0,0,1.57.5A1.3,1.3,0,0,0,38,57.4a1.2,1.2,0,0,1,1.16-1.26,2.66,2.66,0,0,1,1,.4,1.34,1.34,0,0,0,1.45,0,1.2,1.2,0,0,0,.55-1.37,1.1,1.1,0,0,1,.46-1.34A1,1,0,0,1,44,54a1.27,1.27,0,0,0,1.52.22,1.24,1.24,0,0,0,.67-1.38,1.53,1.53,0,0,1,0-.37,1.13,1.13,0,0,1,1.68-.88c.17.1.32.25.49.36A1.21,1.21,0,0,0,50,51.78a1.23,1.23,0,0,0,.21-1.61,3.67,3.67,0,0,0-.52-.6c-1.94-2-3.9-3.89-5.84-5.85a2.41,2.41,0,0,1,.06-3.59l.58-.54c-.33-.2-.6-.37-.88-.52a6.59,6.59,0,0,0-4.31-.33,4.89,4.89,0,0,1-4.42-1.39c-.38-.39-.72-.82-1-1.2ZM29.47,30l-3.15-3.12c-.62-.62-.87-.62-1.51,0L16,35.64c-.13.13-.26.26-.38.4a.6.6,0,0,0,0,.88c1.12,1.13,2.26,2.24,3.41,3.38l5.85-5.87a3.47,3.47,0,0,1,.45-.41.92.92,0,0,1,1.29,1.27,4.38,4.38,0,0,1-.41.45C24.13,37.85,22,40,19.91,42.05c-.32.32-.34.52,0,.83.59.54,1.16,1.1,1.69,1.69.37.42.6.42,1,0Q28.13,39,33.68,33.49c.14-.14.27-.3.48-.52L31.6,30.3c-.74.77-1.32,1.4-1.93,2a.9.9,0,0,1-1.4.05A.93.93,0,0,1,28.36,31C28.7,30.64,29.07,30.33,29.47,30Zm15.62-6c.92.36,1.78.62,2.57,1a5,5,0,0,1,3,6,3,3,0,0,0,.82,2.92q2.63,2.61,5.24,5.24c.37.38.64.38,1,0q2.47-2.52,5-5c.41-.41.35-.7,0-1.07l-6.8-6.79a12.47,12.47,0,0,0-4-2.83A7.08,7.08,0,0,0,45.09,24ZM51,36.17,45.14,41.5a.58.58,0,0,0,0,.92l3.47,3.45,5.91-6.13ZM30.07,55.28c-.84.78-1.72,1.55-2.55,2.36a2.21,2.21,0,0,0,0,3.19c.62.64,1.28,1.26,2,1.84a2.14,2.14,0,0,0,2.81,0c.91-.78,1.74-1.64,2.6-2.47Zm39.55-15a1.31,1.31,0,0,0-.14-.29c-.59-.6-1.16-1.2-1.79-1.76-.1-.09-.48,0-.61.11-1.75,1.72-3.47,3.46-5.2,5.18a.5.5,0,0,0,0,.83c.48.47,1,.94,1.43,1.43s.59.33.92,0c1.69-1.71,3.4-3.41,5.09-5.11A3.68,3.68,0,0,0,69.62,40.26Zm-6.47-3.73-2.82,2.83,1.42,1.5L64.58,38Z"/></svg>