<svg id="Layer_1" data-name="Layer 1" xmlns="http://www.w3.org/2000/svg" viewBox="0 0 85.04 85.04"><path d="M62.89,43.27v32c0,1.4-.13,1.53-1.52,1.53H34.43c-1.28,0-1.49-.21-1.49-1.5V15.47c0-1.5,0-3,0-4.5,0-1,.29-1.27,1.35-1.27H61.53c1.16,0,1.35.19,1.35,1.39Q62.9,27.19,62.89,43.27ZM61,59.05V54H57.4c-1.24,0-1.48-.23-1.48-1.44V51c0-2.14,0-2.14,2.12-2.14h3v-5l-.75,0c-1.08,0-2.16,0-3.25,0-.79,0-1.1-.32-1.11-1.12q0-1.44,0-2.88c0-.75.32-1.08,1.08-1.09s1.83,0,2.74,0H61V33.63H57c-.65,0-1-.29-1-1,0-1.06,0-2.11,0-3.17a.86.86,0,0,1,.85-.93,7.7,7.7,0,0,1,1,0H61v-5.1H58.42c-2.61,0-2.53.18-2.5-2.46V19.87c0-1.32.18-1.5,1.48-1.5H61V15.06H34.84v3.31c1.34,0,2.64,0,3.94,0,.86,0,1.16.32,1.17,1.15s0,1.82,0,2.73-.31,1.18-1.21,1.18H34.83v5.1h3.84c1,0,1.28.31,1.29,1.28v2.43c0,1.12-.27,1.38-1.4,1.38H34.84v5.08h3.95c.83,0,1.16.35,1.16,1.19s0,1.77,0,2.65-.33,1.26-1.3,1.27H34.84v5c1.35,0,2.65,0,3.95,0,.81,0,1.15.37,1.16,1.18s0,1.73,0,2.59C40,53.7,39.66,54,38.6,54H34.84v5c1.34,0,2.64,0,3.94,0,.82,0,1.16.36,1.17,1.17s0,1.72,0,2.58c0,1.06-.31,1.37-1.35,1.37H34.83V74.9h5.29V69.26c0-1,.28-1.24,1.23-1.24H54.49c1,0,1.25.3,1.25,1.3,0,1.6,0,3.2,0,4.8,0,.26,0,.52,0,.78H61V64.18H57.09c-.84,0-1.16-.33-1.17-1.15s0-1.77,0-2.66.29-1.31,1.31-1.31Zm0-47.49H34.85v1.55H61ZM48.87,74.89H53.8v-5H48.87Zm-1.94,0v-5H42v5ZM34.85,30.41v1.31H38V30.41Zm0-8.86H38v-1.3H34.83ZM61,30.44H57.83v1.29H61ZM57.85,20.23v1.32H61V20.23ZM61,41.9V40.61H57.82V41.9ZM34.84,50.78v1.29H38V50.78Zm23,1.28H61V50.81h-3.2Zm-23,10.19H38V61h-3.2Zm26.2,0V61H57.83v1.28ZM38,41.91V40.62H34.84v1.29Z"/><path d="M23.65,34.13c.54,0,1.06,0,1.57,0,.7,0,1.1.39,1.09.94s-.43.9-1.11.91H23.63v6.34h1.71a.9.9,0,1,1,0,1.8H23.64v6.34h1.62a.9.9,0,0,1,1,.89c0,.63-.4.93-1,1s-1.07,0-1.66,0v6.29h1.52c.72,0,1.2.4,1.15,1a1,1,0,0,1-1.12.93H23.66v6.26c.47,0,.94,0,1.4,0,.8,0,1.25.36,1.26.94s-.46.93-1.25.94H23.64V75h1.55c.64,0,1.07.23,1.12.9s-.4.9-1.1.91H22.92c-.86,0-1.14-.27-1.14-1.15,0-2.91,0-5.81,0-8.71V11.09c0-1.2.19-1.39,1.35-1.39h2.22a.85.85,0,0,1,.95.9.86.86,0,0,1-.95.91H23.64v6.33h1.63a.93.93,0,1,1,.09,1.85c-.55,0-1.12,0-1.72,0V26c.55,0,1.08,0,1.61,0a1,1,0,0,1,1.06.9c.05.54-.41.94-1.07,1-.27,0-.54,0-.81,0h-.78Z"/><path d="M47.9,54H43.41c-1,0-1.34-.31-1.35-1.3s0-1.72,0-2.58.34-1.24,1.19-1.24q4.68,0,9.36,0c.79,0,1.11.33,1.13,1.12s0,1.87,0,2.8S53.43,54,52.55,54ZM47,50.8H44v1.27h3Zm1.88,1.26h3V50.81h-3Z"/><path d="M47.94,64.18H43.37c-1,0-1.29-.32-1.3-1.26s0-1.77,0-2.66.35-1.2,1.15-1.2c3.14,0,6.29,0,9.43,0,.75,0,1.08.34,1.1,1.08,0,1,0,2,0,3,0,.78-.35,1.09-1.16,1.09Zm-1-1.9V61H44v1.29Zm4.92,0V61h-3v1.29Z"/><path d="M47.87,43.82H43.3c-.9,0-1.22-.33-1.23-1.24s0-1.77,0-2.66.33-1.19,1.14-1.2q4.73,0,9.43,0c.78,0,1.09.31,1.11,1.06,0,1,0,2,0,2.95,0,.79-.34,1.08-1.16,1.08ZM47,40.63H44V41.9h3Zm4.91,1.29V40.61h-3v1.31Z"/><path d="M47.94,33.63H43.3c-.88,0-1.22-.32-1.23-1.17s0-1.87,0-2.8c0-.76.33-1.11,1.07-1.11,3.2,0,6.39,0,9.58,0a.93.93,0,0,1,1,1.06c0,1,0,1.92,0,2.88s-.31,1.13-1.17,1.14Zm4-3.19h-3v1.29h3Zm-4.95,0H44v1.29h3Z"/><path d="M47.88,23.44H43.24c-.84,0-1.16-.32-1.17-1.15s0-1.82,0-2.73.31-1.18,1.14-1.18h9.42c.83,0,1.11.29,1.12,1.12s0,1.86,0,2.8-.3,1.14-1.16,1.14Zm4-1.86V20.23h-3v1.35Zm-7.91,0h1.88c1.23,0,1.23,0,1.12-1.25,0-.05,0-.09-.08-.14H44Z"/></svg>