<svg id="Layer_1" data-name="Layer 1" xmlns="http://www.w3.org/2000/svg" viewBox="0 0 85.04 85.04"><path d="M43.14,75.43c-1-.24-2-.43-2.92-.75a13.15,13.15,0,0,1-8.8-12.17c0-.79.32-1.21.93-1.21s.93.42.95,1.2A11.31,11.31,0,1,0,44,51,11,11,0,0,0,34.11,58c-.09.21-.15.51-.31.59a1.63,1.63,0,0,1-1,.27c-.26-.08-.46-.52-.58-.84a1.07,1.07,0,0,1,.15-.65,13,13,0,0,1,10.8-8.28,13.2,13.2,0,0,1,4.16,26.05L46,75.43Z"/><path d="M60.37,19.46c0-1.71,0-3.43,0-5.15,0-.49-.38-.72-.82-.8a3.19,3.19,0,0,0-.62,0H20.78c-1.19,0-1.45.25-1.45,1.46V60.88c0,1.24.24,1.47,1.5,1.47h1V28.74c0-.21,0-.42,0-.62a.93.93,0,0,1,1-.87.89.89,0,0,1,.9.86c0,.22,0,.45,0,.68v36.4c0,1.29.23,1.52,1.51,1.52h4.12c.75,0,1.21.37,1.2,1s-.44.92-1.17.92c-1.57,0-3.15,0-4.73,0a2.77,2.77,0,0,1-2.81-2.8V64.22c-.58,0-1.11,0-1.64,0a2.75,2.75,0,0,1-2.73-2.68V14.74a2.8,2.8,0,0,1,2.11-3,3.11,3.11,0,0,1,.8-.08h39a2.84,2.84,0,0,1,3,3q0,3.21,0,6.42a1.31,1.31,0,0,0,.44,1c1.36,1.33,2.7,2.7,4.06,4a1.62,1.62,0,0,1,.53,1.26q0,19.1,0,38.2a2.77,2.77,0,0,1-3,3.06H59.8c-.71,0-1.08-.31-1.09-.9s.38-1,1.11-1h4.43c.88,0,1.21-.33,1.21-1.19V28H56.58c-.92,0-1.22-.29-1.22-1.23V17.85H25.13c-1.15,0-1.42.28-1.42,1.44v4.37c0,.71-.38,1.15-.95,1.14s-.92-.46-.93-1.17v-4.8A2.78,2.78,0,0,1,24.72,16q15.68,0,31.35,0a1.77,1.77,0,0,1,1.08.45c1.05,1,2.05,2.05,3.07,3.08ZM57.27,26h6.64l-6.64-6.61Z"/><path d="M44.62,32H55.33c.27,0,.61,0,.78.12a1.44,1.44,0,0,1,.57.9c0,.28-.33.61-.6.82s-.48.09-.72.09H33.86c-.25,0-.57,0-.72-.1s-.6-.57-.61-.88.32-.63.59-.83A1.39,1.39,0,0,1,33.9,32Z"/><path d="M44.61,37.5h10.6c.22,0,.45,0,.68,0a.86.86,0,0,1,.83.85.9.9,0,0,1-.74,1,2.58,2.58,0,0,1-.62,0H33.86a2.56,2.56,0,0,1-.62,0,.9.9,0,0,1-.75-.94.87.87,0,0,1,.85-.91c.23,0,.45,0,.68,0Z"/><path d="M40.16,45H33.62c-.66,0-1-.31-1.13-.84s.34-1,1-1h13.2c.49,0,.92.08,1.13.59.27.67-.22,1.29-1,1.29Z"/><path d="M43.65,64.09c0-1.68,0-3.36,0-5,0-.78.51-1.22,1.18-1.06s.72.57.72,1.09V63.5c0,1.85,0,3.7,0,5.55a1.44,1.44,0,0,1-.36,1,1,1,0,0,1-1,.11,1.34,1.34,0,0,1-.55-.94C43.63,67.5,43.65,65.8,43.65,64.09Z"/><path d="M53.55,45h-2a1,1,0,0,1-1.08-1,1,1,0,0,1,1-.91H55.7a.92.92,0,0,1,1,.92,1,1,0,0,1-1.06,1Z"/><path d="M44.59,56.1a1,1,0,0,1-.93-1,1,1,0,0,1,1-.91.91.91,0,0,1,.92,1A1,1,0,0,1,44.59,56.1Z"/></svg>