<svg id="Layer_1" data-name="Layer 1" xmlns="http://www.w3.org/2000/svg" viewBox="0 0 85.04 85.04"><path d="M42.34,31.74h27c1.16,0,1.4.23,1.4,1.37V69.28c0,1.12-.25,1.37-1.35,1.37H15.18c-1.08,0-1.34-.25-1.34-1.31V33c0-1.05.26-1.3,1.34-1.3Zm-26.58,37H68.83v-35H15.76Z"/><path d="M57.45,29.81h0a1,1,0,0,1-.94-.8c-.14-.84-.28-1.67-.4-2.51-.06-.4-.24-.47-.59-.46h-1.8a1,1,0,0,1-.94-.94h0a.94.94,0,0,1,.94-.94h1.6a14.27,14.27,0,0,0-3.68-5l-1,1.19a.94.94,0,0,1-1.39,0l-.07-.08a.94.94,0,0,1,0-1.33l1-.93a14,14,0,0,0-6.9-2.34v1.79a.94.94,0,0,1-.93.94h0a.94.94,0,0,1-.94-.94V15.69a13.89,13.89,0,0,0-7.12,2.46l1.25,1.14a.94.94,0,0,1,0,1.4l0,0a1,1,0,0,1-1.32-.08l-1.27-1.4a14.22,14.22,0,0,0-3.53,4.88h1.58a.94.94,0,0,1,.94.94v0a.94.94,0,0,1-.93.94c-.54,0-1.08,0-1.61,0s-.78.18-.85.68c-.1.75-.21,1.5-.32,2.26a1,1,0,0,1-.95.83h0a1,1,0,0,1-1-1A15.5,15.5,0,0,1,32.55,17a16.41,16.41,0,0,1,13.14-2.89A15.82,15.82,0,0,1,58.4,28.84.94.94,0,0,1,57.45,29.81Z"/><path d="M46.37,25.78c-.72.38-1.28.7-1.3,1.74a2.64,2.64,0,0,1-2.36,2.31,2.87,2.87,0,0,1-2.32-5,2.79,2.79,0,0,1,3.35-.33.78.78,0,0,0,.95,0c1-.57,2-1.13,3-1.7a1,1,0,0,1,1.3.35h0a1,1,0,0,1-.35,1.29ZM43.25,27a.94.94,0,1,0-1,.92A1,1,0,0,0,43.25,27Z"/><path d="M20.3,48.32c-1.18-2.12-.94-4.06.65-5.32a3.81,3.81,0,0,1,5.42,5.26l1.7,1.39,1.71-1.39a3.8,3.8,0,0,1-.7-3A3.67,3.67,0,0,1,30.48,43a3.8,3.8,0,0,1,5.38,5.28l1.7,1.39,1.71-1.39A3.8,3.8,0,0,1,44.72,43c1.57,1.27,1.8,3.22.64,5.24l1.69,1.38,1.7-1.38a3.81,3.81,0,1,1,6.09,0l1.7,1.39,1.69-1.37a3.82,3.82,0,0,1,5.62-5.12,3.81,3.81,0,0,1,.45,5.14c.21.14.42.27.62.42A4.59,4.59,0,0,1,67,52.58c0,1.53,0,3.05,0,4.57a1,1,0,0,1-.72,1.16c-1,.3-1.27.94-1.22,2,.1,1.8,0,3.6,0,5.4,0,.86-.31,1.17-1.18,1.17H58.63c-.82,0-1.14-.32-1.14-1.15V59.41a1.06,1.06,0,0,0-.91-.94,1.1,1.1,0,0,0-1,.93v6.23c0,.93-.29,1.22-1.24,1.22H49.19c-.87,0-1.19-.31-1.19-1.16V59.4a1.07,1.07,0,0,0-.92-.93,1.1,1.1,0,0,0-1,.94V65.7c0,.83-.32,1.15-1.14,1.15-1.77,0-3.55,0-5.33,0-.79,0-1.11-.33-1.12-1.12V59.45a1.07,1.07,0,0,0-.93-1,1.09,1.09,0,0,0-1,1v6.23c0,.9-.3,1.2-1.21,1.2H30.19c-.86,0-1.17-.31-1.17-1.19V59.38a1.08,1.08,0,0,0-.94-.91,1.11,1.11,0,0,0-1,.9V65.6c0,1-.28,1.25-1.22,1.25H20.69c-.84,0-1.15-.31-1.16-1.14,0-2.09,0-4.19,0-6.28,0-.41-.1-.64-.48-.75a1.91,1.91,0,0,1-1.45-2.32,31.44,31.44,0,0,0,0-3.5,4.68,4.68,0,0,1,2.48-4.4C20.18,48.42,20.24,48.36,20.3,48.32Zm4.93,16.61c0-1.84,0-3.64,0-5.43s-.23-1.68,1.51-2.56a.76.76,0,0,0,.37-.5c0-1.31.05-2.61,0-3.91a2.72,2.72,0,0,0-2.33-2.67,13.54,13.54,0,0,0-2.3-.08,2.87,2.87,0,0,0-2.95,3c0,.93.08,1.86,0,2.78a1.43,1.43,0,0,0,1.11,1.79,1.17,1.17,0,0,1,.82,1.34c0,1.14,0,2.29,0,3.43v2.85Zm9.49,0c0-1.85,0-3.64,0-5.44s-.22-1.67,1.52-2.56a.73.73,0,0,0,.36-.5c0-1.29,0-2.57,0-3.85a2.74,2.74,0,0,0-2.34-2.72,13.17,13.17,0,0,0-2.18-.09,2.9,2.9,0,0,0-3.06,3,24.68,24.68,0,0,1,0,2.72,1.45,1.45,0,0,0,1.12,1.79,1.13,1.13,0,0,1,.81,1.28c0,1.49,0,3,0,4.5v1.83Zm9.49,0c0-1.84,0-3.61,0-5.39,0-2-.23-1.71,1.53-2.61a.74.74,0,0,0,.35-.51c0-1.28,0-2.57,0-3.85a2.75,2.75,0,0,0-2.34-2.72,14,14,0,0,0-2.24-.08,2.89,2.89,0,0,0-3,3,26.4,26.4,0,0,1,0,2.67,1.54,1.54,0,0,0,1.18,1.93,1.07,1.07,0,0,1,.75,1.19c0,1.72,0,3.44,0,5.16v1.23Zm9.49,0c0-1.85,0-3.64,0-5.44s-.23-1.67,1.52-2.56a.73.73,0,0,0,.36-.5c0-1.28,0-2.57,0-3.85a2.74,2.74,0,0,0-2.34-2.72,13.17,13.17,0,0,0-2.18-.09,2.89,2.89,0,0,0-3.06,3c0,.91.08,1.83,0,2.73a1.45,1.45,0,0,0,1.12,1.79,1.14,1.14,0,0,1,.81,1.27c0,1.46,0,2.93,0,4.39v2Zm9.49,0c0-1.8,0-3.55,0-5.31,0-2-.28-1.79,1.56-2.71a.65.65,0,0,0,.32-.47c0-1.3,0-2.6,0-3.91a2.72,2.72,0,0,0-2.32-2.67,13.61,13.61,0,0,0-2.3-.08,2.87,2.87,0,0,0-3,2.95,26.4,26.4,0,0,1,0,2.67,1.57,1.57,0,0,0,1.21,2,1,1,0,0,1,.72,1.15c0,.87,0,1.74,0,2.61v3.8ZM23.36,44.08A1.9,1.9,0,1,0,25.22,46,1.94,1.94,0,0,0,23.36,44.08Zm9.48,3.79A1.9,1.9,0,1,0,30.92,46,2,2,0,0,0,32.84,47.87Zm9.46-3.79A1.9,1.9,0,1,0,44.2,46,1.94,1.94,0,0,0,42.3,44.08ZM53.69,46a1.9,1.9,0,1,0-1.91,1.88A1.94,1.94,0,0,0,53.69,46Zm7.61-1.91A1.9,1.9,0,1,0,63.18,46,2,2,0,0,0,61.3,44.08Z"/></svg>