<svg id="Layer_1" data-name="Layer 1" xmlns="http://www.w3.org/2000/svg" viewBox="0 0 85.04 85.04"><path d="M69.25,23A1.4,1.4,0,0,0,68,22.47h-8.7c-1.3,0-1.54.24-1.54,1.52v9.29H49.22c-1.1,0-1.4.3-1.4,1.42v7.64h-8.7c-1.11,0-1.42.3-1.42,1.4v9H29.23c-.94,0-1.27.34-1.27,1.28v8.4h-8.9a1.49,1.49,0,0,0-.42,0,.95.95,0,0,0,.09,1.87,3,3,0,0,0,.42,0h9.37c1.1,0,1.37-.27,1.37-1.38V54.62h8.44c1,0,1.29-.32,1.3-1.31v-9h8.8c1,0,1.3-.31,1.31-1.3V35.24h8.61c1,0,1.33-.36,1.33-1.35v-9.5H68a1.29,1.29,0,0,0,1.21-.6l0,0v-.69Z"/></svg>