<svg id="Layer_1" data-name="Layer 1" xmlns="http://www.w3.org/2000/svg" viewBox="0 0 85.04 85.04"><path d="M72.49,49.76a2.06,2.06,0,0,0-2-2h-.73V35.28h.59A2.09,2.09,0,0,0,72.5,33V31.31a2.09,2.09,0,0,0-2.19-2.2h-.56V18.94h.64a2,2,0,0,0,2-1.58,11,11,0,0,0,0-3c-.14-1-1-1.57-2.3-1.57H14.92a2.09,2.09,0,0,0-2.05,2c0,.66,0,1.34,0,2.08a2.06,2.06,0,0,0,1.67,2,7.53,7.53,0,0,0,.83.1l.23,0V29.11h-.54a2.09,2.09,0,0,0-2.19,2.25v.34c0,.51,0,1,0,1.51a2.07,2.07,0,0,0,1.9,2l.64,0h.2V47.75h-.54A2.1,2.1,0,0,0,12.87,50v.14c0,.55,0,1.1,0,1.65a2.07,2.07,0,0,0,2,2.12l.62.05h.17V66.35c-1.23.19-2,.55-2.07,1.75a15.41,15.41,0,0,0,0,2.63,1.79,1.79,0,0,0,1.89,1.65c1.94,0,3.92,0,5.87,0a1.72,1.72,0,0,0,1.84-1.48,11.91,11.91,0,0,0,0-3.05c-.14-.95-.85-1.47-2-1.48V62.81H30.9v3.56c-1.4.15-2,.75-2.1,1.94,0,.7,0,1.42,0,2.15a1.89,1.89,0,0,0,2,1.92q2.85,0,5.7,0a1.89,1.89,0,0,0,2-1.93c0-.76,0-1.46,0-2.15a1.89,1.89,0,0,0-1.91-1.91l-.25,0h0l0-.08a1.77,1.77,0,0,1,.27-.39l5.41-5.08.74-.68A.45.45,0,0,1,43,60h0l.75.71q2.86,2.67,5.7,5.35a.45.45,0,0,1,.09.25v0c-1.67.22-2.13.79-2.13,2.51v.46c0,.36,0,.72,0,1.08a1.88,1.88,0,0,0,2,2h5.76a1.85,1.85,0,0,0,2-1.89,20.36,20.36,0,0,0,0-2.21,1.86,1.86,0,0,0-1.92-1.89l-.19,0V62.82h9.2v3.56c-1.35.11-2,.73-2.08,1.88a21.48,21.48,0,0,0,0,2.27,1.87,1.87,0,0,0,2,1.85q2.88,0,5.76,0a1.88,1.88,0,0,0,2-1.88c0-.71,0-1.46,0-2.21a1.87,1.87,0,0,0-1.92-1.9.57.57,0,0,1-.18,0V54h.12l.54,0a2.12,2.12,0,0,0,2.08-2.25v-.43C72.5,50.75,72.51,50.26,72.49,49.76ZM55.36,70.23a.4.4,0,0,1-.07.32.43.43,0,0,1-.32.08H49.55a.39.39,0,0,1-.28-.08c-.05,0-.07-.14-.06-.28,0-.53,0-1.1,0-1.79a.34.34,0,0,1,.06-.27.37.37,0,0,1,.27-.07h0c1.82,0,3.63,0,5.45,0h0a.44.44,0,0,1,.31.08.35.35,0,0,1,.06.28A16.62,16.62,0,0,0,55.36,70.23Zm-5.85-16.3v9.76L44.27,58.8Zm-13.08,0,5.24,4.88-5.24,4.9Zm.31,16.39a.3.3,0,0,1-.06.25.4.4,0,0,1-.29.06H31.06c-.21,0-.35,0-.41-.09a.52.52,0,0,1-.06-.35,15.49,15.49,0,0,0,0-1.67.47.47,0,0,1,.07-.31.39.39,0,0,1,.28-.07h0c1.82,0,3.64,0,5.45,0h0a.41.41,0,0,1,.29.07.4.4,0,0,1,.06.25C36.72,69.11,36.72,69.73,36.74,70.31Zm-15.3-.07a.41.41,0,0,1-.06.31.39.39,0,0,1-.28.08H15.64a.4.4,0,0,1-.29-.08.38.38,0,0,1-.06-.29,16.82,16.82,0,0,0,0-1.74.4.4,0,0,1,.06-.3c.05-.06.16-.08.32-.08h0c.64,0,1.29,0,1.93,0h1.53c.56,0,1.14,0,1.7,0a.72.72,0,0,1,.51.1.68.68,0,0,1,.08.52A12.34,12.34,0,0,0,21.44,70.24Zm-4-3.89V54h1.81V66.35Zm3.68-8.89V54h9.77v3.46Zm9.76,1.87V61H21.13V59.33Zm1.88,7V54h1.79v12.4ZM69.84,33.51H15.49c-.84,0-.85,0-.85-.87V31.4a.58.58,0,0,1,.12-.43.54.54,0,0,1,.39-.12H69.79c.94,0,.94,0,.94,1V33a.63.63,0,0,1-.13.46.6.6,0,0,1-.42.11h-.34Zm-2,1.8V47.72H66.13V35.31ZM55,42.36V40.68h9.19v1.68Zm9.2,1.81v3.54H55V44.17Zm0-8.84v3.49H55V35.33Zm-11.08,0v12.4H51.4V35.31ZM49.51,36.5v9.77l-5.24-4.88Zm-1,11.24h-11L43,42.6ZM37.79,35.32H48.16L43,40.17Zm3.88,6.06-5.23,4.9V36.49Zm-7.12-6.07V47.72H32.79V35.31Zm-3.64,8.86v3.54H21.15V44.17Zm-9.77-5.36v-3.5h9.77v3.5Zm9.75,1.88v1.66H21.13V40.69ZM19.25,35.31V47.72H17.48V35.31ZM15.46,52.15c-.81,0-.82,0-.82-.83V50c0-.35.15-.51.5-.51H69.76c1,0,1,0,1,1v.4c0,.67,0,1-.12,1.17s-.42.1-.94.1H15.46ZM51.39,66.37V54h1.8v12.4Zm18.68,3.94a.33.33,0,0,1,0,.25.35.35,0,0,1-.24.06H64.21a.3.3,0,0,1-.22-.06c-.05,0-.07-.13-.06-.26,0-.55,0-1.12,0-1.67a.6.6,0,0,1,.08-.41.61.61,0,0,1,.4-.09c.63,0,1.27,0,1.88,0h1.56q.91,0,1.83,0a.44.44,0,0,1,.34.08.47.47,0,0,1,.07.31C70.05,69.16,70.06,69.79,70.07,70.31ZM67.9,54V66.35H66.12V54Zm-3.68,5.35V61H55V59.32Zm0-5.35v3.5H55V54Zm3.65-35v10.1H66.11V19Zm-3.66,8.1v2H55v-2Zm0-3.5v1.67H55V23.57Zm0-4.57v2.72H55V19ZM53.18,19V29.07H51.39V19ZM15.46,17.14c-.82,0-.82,0-.82-.82,0-.45,0-.91,0-1.36a.39.39,0,0,1,.44-.45H69.75c1,0,1,0,1,1v.4c0,.67,0,1-.12,1.16s-.4.1-.88.09H15.46Zm34,2.38v9.6l0,0a.86.86,0,0,1-.29-.15c-1.26-1.16-2.51-2.33-3.79-3.52l-1.1-1ZM43,25.62l3.68,3.44H39.3ZM38.48,19h9L43,23.19Zm3.2,5.42-.81.75c-1.39,1.3-2.74,2.56-4.11,3.82a.73.73,0,0,1-.28.12h0v-9.6ZM34.57,19V29.06H32.78V19Zm-3.66,8.1v2H21.15v-2Zm0-3.5v1.67H21.12V23.58Zm0-4.59v2.74H21.12V19ZM19.25,19V29.08H17.48V19Zm27.6,35L43,57.59,39.09,54Z"/></svg>