<svg id="Layer_1" data-name="Layer 1" xmlns="http://www.w3.org/2000/svg" viewBox="0 0 85.04 85.04"><path d="M70,27.15v3.66l-1.44.66V57.19a1.44,1.44,0,0,1-.07.73c-.17.26-.46.58-.71.6A1.21,1.21,0,0,1,67,58c-.13-.16-.1-.47-.1-.72v-26H65.62V65.58h1.24V65c0-1.11,0-2.22,0-3.34a.84.84,0,0,1,.81-.94.82.82,0,0,1,.84.91c0,.81,0,1.62,0,2.42v1.32l1.44.78V70a1.49,1.49,0,0,1-1.24.44c-1.76,0-3.52,0-5.28,0-.63,0-.94-.27-.95-.9,0-1,0-2,0-3,0-.59.32-.86.92-.9.15,0,.31,0,.5,0V57.93H57.07v7.65l.25,0c.92,0,1.14.24,1.14,1.16v2.69c0,.69-.28,1-1,1H52c-.7,0-1-.26-1-1s0-1.65,0-2.48c0-1.19.12-1.32,1.3-1.39,0,0,.06,0,.14-.06a13.47,13.47,0,0,0,0-1.42.91.91,0,0,0-.32-.6c-3.14-2.22-6.3-4.42-9.46-6.64a.45.45,0,0,0-.61,0c-3.11,2.15-6.22,4.29-9.33,6.45a.66.66,0,0,0-.3.39c0,.62,0,1.25,0,1.87l.38,0c.81,0,1,.28,1.06,1.08s0,1.83,0,2.75c0,.71-.29,1-1,1H27.31c-.66,0-.94-.28-.95-.94,0-1,0-1.91,0-2.86,0-.73.26-1,1-1l.4,0V57.91H20.9v7.68c.22,0,.41,0,.6,0a.81.81,0,0,1,.82.83c0,1.06,0,2.12,0,3.17a.76.76,0,0,1-.87.81H15.74a.79.79,0,0,1-.88-.9c0-.75,0-1.51,0-2.26,0-1.47,0-1.47,1.4-1.72V31.28l-.3,0c-.91,0-1.1-.23-1.1-1.12V27.77c0-.79.23-1,1-1.05l.39,0V19.87l-.31,0c-.88,0-1.08-.24-1.08-1.14,0-.72,0-1.43,0-2.15a1.45,1.45,0,0,1,.44-1.25H70V19.4L68.57,20v6.47ZM32.4,26.72H44.19a3.9,3.9,0,0,1,.59,0,.74.74,0,0,1,.67.78.75.75,0,0,1-.69.82,3.11,3.11,0,0,1-.53,0H16.5V29.6H68.31V28.34H48.58c-.61,0-1-.33-1-.82s.38-.79,1-.8h3.84V19.89h-20Zm-4.63-6.87H26.64c-.9,0-1.24-.22-1.24-.81s.36-.82,1.24-.82H68.32V17H16.51v1.26h5.67c.68,0,1.05.29,1.07.8s-.37.82-1.08.83H20.92v6.83h6.85Zm2.95,45.73v-.7c0-2.76,0-5.53,0-8.29,0-.69.29-1,.83-1s.82.36.82,1,0,1.14,0,1.72v3.2l8.51-5.87-8.49-5.93c0,.25,0,.41,0,.56,0,.76,0,1.51,0,2.26a.83.83,0,1,1-1.65,0,5.81,5.81,0,0,1,0-.59V32c0-.22,0-.45,0-.68H29.5V65.58Zm13.06-9.91,8.62,6v-12ZM52.4,31.84l-8.62,5.95,8.62,6Zm-20,0V43.62l8.48-5.84Zm24.64-5.17h6.85v-6.8H57.06ZM50.52,49H34.27c2.67,1.87,5.24,3.67,7.82,5.45a.63.63,0,0,0,.55,0c.84-.55,1.66-1.13,2.49-1.7ZM34.25,44.35H50.31l-8-5.57ZM18,31.29V65.58H19.2V31.29Zm16.55,0c.14.12.19.17.25.21l7.21,5a.51.51,0,0,0,.7,0q3.6-2.51,7.21-5l.34-.28Zm19.59,0V65.57h1.18V31.29ZM27.76,44.36V40H20.91v4.35Zm36.15,0V40H57.06v4.36ZM27.77,49H20.91v4.27h6.86Zm29.29,0v4.28h6.85V49Zm6.86-17.71H57.06v4.1h6.86ZM27.76,35.42V31.29H20.92v4.13Zm4.65,11.85h20V46.06h-20ZM27.78,37.1H20.91v1.21h6.87Zm29.27,1.22H63.9V37.09H57.05ZM27.77,46.06H20.91v1.2h6.86Zm29.28,1.2h6.86v-1.2H57.05ZM27.77,55H20.91V56.2h6.86Zm36.16,0H57.05v1.21h6.88Zm1.7-35.09v6.8h1.2v-6.8ZM18,19.87v6.82h1.2V19.87Zm36.15,0v6.81h1.17V19.88ZM29.5,26.68h1.19V19.89H29.5ZM20.64,68.79V67.32H16.51v1.47Zm11.53-1.47H28v1.45h4.15Zm20.49,0v1.47H56.8V67.3Zm15.67,0H64.17v1.45h4.16Z"/></svg>