<svg id="Layer_1" data-name="Layer 1" xmlns="http://www.w3.org/2000/svg" viewBox="0 0 85.04 85.04"><defs><style>.cls-1{fill:#1d1d1b;}</style></defs><path class="cls-1" d="M72.81,60a1,1,0,0,0-1.41,0L70,61.35V21.71c0-1.45,0-2.92,0-4.37.45.44.89.89,1.34,1.34a1,1,0,0,0,1.41,0,1,1,0,0,0,0-1.42l-3.08-3.08a1,1,0,0,0-1.41,0l-3.09,3.08a1,1,0,1,0,1.42,1.42L68,17.3V56.36c0,1.65,0,3.31,0,5L66.65,60a1,1,0,1,0-1.42,1.41l3.09,3.09a1,1,0,0,0,1.41,0l3.08-3.09A1,1,0,0,0,72.81,60Z"/><path class="cls-1" d="M59.19,65.05a1,1,0,0,0-1.42,1.41l1.38,1.38H20.09c-1.65,0-3.31,0-5,0l1.34-1.35a1,1,0,1,0-1.41-1.41L12,68.13a1,1,0,0,0,0,1.42l3.08,3.08a1,1,0,0,0,1.41,0,1,1,0,0,0,0-1.42L15.1,69.84H54.74c1.46,0,2.92,0,4.37,0l-1.34,1.33a1,1,0,0,0,1.42,1.42c1-1,2.05-2.06,3.08-3.08a1,1,0,0,0,0-1.42C61.24,67.11,60.22,66.08,59.19,65.05Z"/><path class="cls-1" d="M63.1,34.35c-.08-.62-.17-1.24-.28-1.86A25.49,25.49,0,0,0,54.75,18a25.4,25.4,0,0,0-13-6.47c-.56-.1-1.13-.17-1.7-.24l-.83-.11H35.56l-.21,0-.17.05-1,.12c-.66.08-1.34.17-2,.31a26.36,26.36,0,0,0-15,8.82,24.75,24.75,0,0,0-5.76,12.79A25.57,25.57,0,0,0,20.21,57a25,25,0,0,0,16.7,6.36,28.89,28.89,0,0,0,5.32-.5,24.43,24.43,0,0,0,12.55-6.36,26.45,26.45,0,0,0,8-14.88c.11-.63.2-1.26.28-1.9l.13-.9V35.22ZM58.61,38.8a1,1,0,0,0-.62.68,1.14,1.14,0,0,0,.19,1c.25.37.5.74.76,1.1.38.54.76,1.07,1.12,1.62a.68.68,0,0,1,.07.44,21.28,21.28,0,0,1-1.8,4.62L58,47A1.09,1.09,0,0,0,56.9,46h0a1.08,1.08,0,0,0-.89.4,1.28,1.28,0,0,0-.17,1.12c.13.51.27,1,.41,1.55s.29,1.06.43,1.59a1,1,0,0,1,0,.23,23.47,23.47,0,0,1-3.39,3.88c0-.48.07-.93.09-1.38a1.16,1.16,0,0,0-.28-.93,1.07,1.07,0,0,0-.82-.31h0a1.06,1.06,0,0,0-1.09,1.09l-.08.94c-.08.8-.15,1.6-.23,2.4a.38.38,0,0,1-.08.2,22.91,22.91,0,0,1-4.48,2.48c.19-.43.39-.84.57-1.25a1.11,1.11,0,1,0-2-.94c-.47,1-.94,2-1.38,3a.5.5,0,0,1-.39.3,25,25,0,0,1-4.87.71l.67-.67a4,4,0,0,0,.35-.36,1,1,0,0,0,0-1.59,1.1,1.1,0,0,0-.75-.33,1.14,1.14,0,0,0-.8.37l-1,1c-.45.45-.9.91-1.37,1.35-.09.09-.23.18-.32.15A23.58,23.58,0,0,1,30,60l.32-.15.91-.43a1.12,1.12,0,1,0-.93-2L29,58l-1.68.77a.61.61,0,0,1-.27.06A22.16,22.16,0,0,1,22.7,56.2L24,56.09a1.13,1.13,0,0,0,1.15-.93,1.08,1.08,0,0,0-.24-.92,1.23,1.23,0,0,0-1-.38L22.42,54q-.95.09-1.89.15a.48.48,0,0,1-.21,0,21.87,21.87,0,0,1-3.23-4,12.87,12.87,0,0,0,1.26.31,1.53,1.53,0,0,0,1.2-.29,1,1,0,0,0,.31-1A1.23,1.23,0,0,0,19,48.3c-1-.29-2.06-.56-3.1-.82-.26-.07-.33-.16-.39-.32-.28-.88-.57-1.76-.86-2.63l-.67-2.05.77.54.41.28a1.14,1.14,0,0,0,1.73-1.11,1.14,1.14,0,0,0-.47-.72l-1.15-.81c-.53-.37-1.07-.74-1.59-1.13a.68.68,0,0,1-.21-.39,21.42,21.42,0,0,1,.11-5l.18.25.65.93a1.05,1.05,0,0,0,1.53.3,1.08,1.08,0,0,0,.29-1.57l-.82-1.19c-.37-.52-.73-1-1.09-1.58a.59.59,0,0,1-.07-.39A21.5,21.5,0,0,1,16,26.28l.34,1.27a1.15,1.15,0,0,0,2.07.46,1.35,1.35,0,0,0,.09-1c-.12-.44-.23-.88-.35-1.31-.16-.59-.32-1.18-.47-1.78a.69.69,0,0,1,0-.32A22.49,22.49,0,0,1,21,19.74c0,.48-.07.94-.09,1.4a1.17,1.17,0,0,0,.28.9,1.09,1.09,0,0,0,.81.32h0a1.06,1.06,0,0,0,1.1-1.06l.1-1.1c.06-.77.13-1.53.21-2.3a.3.3,0,0,1,.06-.16A22.8,22.8,0,0,1,28,15.25l-.31.66c-.11.23-.21.45-.31.68A1.06,1.06,0,0,0,28,18a1,1,0,0,0,1.47-.51c.21-.43.41-.86.61-1.28.27-.59.54-1.17.83-1.75a.69.69,0,0,1,.34-.29,22.35,22.35,0,0,1,4.9-.75l-1,1a1.19,1.19,0,0,0-.37,1,1.09,1.09,0,0,0,.6.8A1.05,1.05,0,0,0,36.71,16l.38-.38c.65-.66,1.3-1.31,2-2a.55.55,0,0,1,.23-.14,23.11,23.11,0,0,1,5,1L43,15.14a1.14,1.14,0,0,0-.63.69,1.06,1.06,0,0,0,.12.87,1.08,1.08,0,0,0,1.53.42L44.4,17c.83-.38,1.69-.77,2.52-1.19a.49.49,0,0,1,.58,0l4.11,2.57-1.24.11a1.21,1.21,0,0,0-.95.46,1.06,1.06,0,0,0-.16.91,1,1,0,0,0,1.18.86l1.38-.12,2-.16a1.11,1.11,0,0,1,.23,0h0a23,23,0,0,1,3.25,4c-.48-.13-.93-.25-1.38-.35a1.17,1.17,0,0,0-1.15.3,1,1,0,0,0-.21,1,1.38,1.38,0,0,0,.86.83c.93.29,1.88.53,2.8.77l.31.07c.23.06.33.14.39.32.16.45.33.89.49,1.33.25.66.5,1.33.72,2a13,13,0,0,1,.36,1.37l-1-.69c-.92-.63-1.45-.28-1.74.13a1,1,0,0,0-.21.79,1.44,1.44,0,0,0,.67.9l.66.47L60.75,35a.71.71,0,0,1,.16.16,22.36,22.36,0,0,1-.11,5.15L60,39.24A1.07,1.07,0,0,0,58.61,38.8Z"/><path class="cls-1" d="M53.07,36.13a20.9,20.9,0,0,0-.32-2.31,15.15,15.15,0,0,0-7.48-10.4,16.93,16.93,0,0,0-7-2.09,15.08,15.08,0,0,0-7.45,1.24,1.13,1.13,0,0,0-.07,2,1.38,1.38,0,0,0,1.15-.06,13.16,13.16,0,0,1,9.49-.36,13.77,13.77,0,0,1-3.9,26.89,13.19,13.19,0,0,1-11-5.16,13.65,13.65,0,0,1,2-19.31A1.08,1.08,0,0,0,28.73,25a1.1,1.1,0,0,0-.74-.45,1.27,1.27,0,0,0-1,.37A15.29,15.29,0,0,0,21.46,40,15.69,15.69,0,0,0,36.87,53.28a15.2,15.2,0,0,0,1.65-.09,16.42,16.42,0,0,0,7.18-2.32c4.79-3,7.23-7.55,7.45-13.89v-.06C53.12,36.68,53.09,36.42,53.07,36.13Z"/><path class="cls-1" d="M32.48,33.64a5.8,5.8,0,0,0-1.17,4.91,6,6,0,0,0,6.6,4.68c1.13-.17,1.29-.82,1.22-1.33a1.07,1.07,0,0,0-.4-.72,1.4,1.4,0,0,0-1.06-.2,3.65,3.65,0,0,1-3.15-1.06,3.73,3.73,0,0,1-1.05-3.21A3.87,3.87,0,0,1,35,34.19a3.5,3.5,0,0,1,2.61-.64,3.93,3.93,0,0,1,2.62,1.62,3.61,3.61,0,0,1,.58,2.75,5,5,0,0,1-.42,1.14l-.12.27a1.26,1.26,0,0,0,.1,1.25,1,1,0,0,0,.91.37,1.53,1.53,0,0,0,1-.7,5.68,5.68,0,0,0,0-5.92,5.58,5.58,0,0,0-4.52-3h0A6.68,6.68,0,0,0,32.48,33.64Z"/><path class="cls-1" d="M30.19,36.32A6.2,6.2,0,0,0,26.92,32a1.41,1.41,0,0,0-1.17-.23,1.42,1.42,0,0,0-.76.9,12.91,12.91,0,0,0-.83,4.76A12.58,12.58,0,0,0,25,41.93a1.25,1.25,0,0,0,.76.82.91.91,0,0,0,.31,0,1.43,1.43,0,0,0,.76-.25,9.9,9.9,0,0,0,1.69-1.28A5.33,5.33,0,0,0,30.19,36.32Zm-2.15,1a3.39,3.39,0,0,1-1.32,2.62,10.42,10.42,0,0,1,0-5.26A3.41,3.41,0,0,1,28,37.28Z"/><path class="cls-1" d="M48.59,42.75a1.41,1.41,0,0,0,.76-.91,12.37,12.37,0,0,0,.82-4.66,12.17,12.17,0,0,0-.83-4.51,1.33,1.33,0,0,0-.77-.87,1.26,1.26,0,0,0-1.11.23,9.16,9.16,0,0,0-1.61,1.21,5.36,5.36,0,0,0-1.7,5,6.21,6.21,0,0,0,3.27,4.28,1.76,1.76,0,0,0,.86.29A1.12,1.12,0,0,0,48.59,42.75Zm-1-2.84a3.44,3.44,0,0,1-1.32-2.7,3.33,3.33,0,0,1,1.32-2.58A10.84,10.84,0,0,1,47.62,39.91Z"/><path class="cls-1" d="M27.06,29.09a1.27,1.27,0,0,0-.34,1,1.25,1.25,0,0,0,.67.84A7,7,0,0,0,31,32h0l.33,0a5.87,5.87,0,0,0,.72-.08c3.26-.64,4.63-3.69,4.54-6.43a1.14,1.14,0,0,0-.39-.86,1.33,1.33,0,0,0-1-.23l-.23.05-.13,0A13.08,13.08,0,0,0,27.06,29.09Zm2.59.47a10.94,10.94,0,0,1,4.57-2.65,3.34,3.34,0,0,1-1.59,2.42A3.47,3.47,0,0,1,29.65,29.56Z"/><path class="cls-1" d="M46.88,43.56a7.24,7.24,0,0,0-.84-.44,5.56,5.56,0,0,0-6,.51,6.26,6.26,0,0,0-2.31,5.06h0a1.44,1.44,0,0,0,.43,1.22,1.12,1.12,0,0,0,.7.22,2,2,0,0,0,.52-.07,21.05,21.05,0,0,0,2.85-.84,12.6,12.6,0,0,0,5-3.72,1.16,1.16,0,0,0-.36-1.95ZM44.68,45a11,11,0,0,1-4.54,2.64,3.51,3.51,0,0,1,1.54-2.43,3.09,3.09,0,0,1,1.64-.45A4.29,4.29,0,0,1,44.68,45Z"/><path class="cls-1" d="M35,50.1l.39,0a1.2,1.2,0,0,0,.81-.26,1.33,1.33,0,0,0,.38-1.1,10,10,0,0,0-.2-1.7,5.52,5.52,0,0,0-5.55-4.54,6.54,6.54,0,0,0-3.27,1,1.56,1.56,0,0,0-.85.94,1.53,1.53,0,0,0,.47,1.18A13.09,13.09,0,0,0,35,50.1ZM29.67,45a3.37,3.37,0,0,1,2.91.18,3.41,3.41,0,0,1,1.65,2.46A10.72,10.72,0,0,1,29.67,45Z"/><path class="cls-1" d="M39.18,24.41a1.21,1.21,0,0,0-1,.24,1.18,1.18,0,0,0-.39,1A9.21,9.21,0,0,0,38,27.47,5.43,5.43,0,0,0,43.32,32a7,7,0,0,0,3.5-1,1.44,1.44,0,0,0,.79-.92A1.49,1.49,0,0,0,47.18,29,13.2,13.2,0,0,0,39.18,24.41Zm5.48,5.13a3.28,3.28,0,0,1-4.54-2.63A10.7,10.7,0,0,1,44.66,29.54Z"/></svg>