<svg id="Layer_1" data-name="Layer 1" xmlns="http://www.w3.org/2000/svg" viewBox="0 0 85.04 85.04"><path d="M55.4,39.41H66.8a3.8,3.8,0,0,0,4-3.75c.09-2.92.08-6,0-9.09a3.7,3.7,0,0,0-3.43-3.46c-.4,0-.79,0-1.2-.06l-1,0v-.36c0-.28,0-.56,0-.83a14.42,14.42,0,0,0,0-1.75,8,8,0,0,0-.57-2.51,5.23,5.23,0,0,0-5.21-3H20.6c-.35,0-.69,0-1,.06a5.11,5.11,0,0,0-4.7,4.69c-.11,3.35-.11,6.59,0,9.62A5.1,5.1,0,0,0,20,33.69H60a5.2,5.2,0,0,0,5.08-4.4,22.57,22.57,0,0,0,.15-2.51c0-.41,0-.83,0-1.26v-.35H66.6a1.91,1.91,0,0,1,2.18,2.14q0,4,0,7.92a1.81,1.81,0,0,1-2,2H43a3.89,3.89,0,0,0-4,4.07v.77c0,.65,0,1.3,0,1.94a1.59,1.59,0,0,1-.62,1.37,10.35,10.35,0,0,0-3.65,8q0,7.35,0,14.71a3.66,3.66,0,0,0,3,3.75,10.92,10.92,0,0,0,2,.12H40c.38,0,.77,0,1.16,0A3.91,3.91,0,0,0,44,71a4.08,4.08,0,0,0,1.29-3.15c0-3.39,0-6.79,0-10.18V53.63a9.35,9.35,0,0,0-2.62-7.07,5.24,5.24,0,0,1-1.64-4.7,1.92,1.92,0,0,0,0-.24v-.2a1.79,1.79,0,0,1,2-2H55.4Zm7.66-11.27a3.16,3.16,0,0,1-3.49,3.44h-25c-4.53,0-9.21,0-13.81,0h-.07a3.79,3.79,0,0,1-2.8-1,3.73,3.73,0,0,1-1-2.83c.06-1.7,0-3.44,0-5.12,0-.82,0-1.64,0-2.45a3.28,3.28,0,0,1,3.52-3.53H59.55a3.22,3.22,0,0,1,3.51,3.51Q63.08,24.14,63.06,28.14ZM43.06,52a13.18,13.18,0,0,1,.14,2.11q0,5.4,0,10.81v2.7c0,1.7-.61,2.3-2.33,2.31h-1.8c-1.68,0-2.28-.6-2.28-2.27V64.51c0-3.58,0-7.17,0-10.75A12,12,0,0,1,37.16,51a7.9,7.9,0,0,1,2.59-4l.24-.21.25.21A8.22,8.22,0,0,1,43.06,52Z"/></svg>