<svg id="Layer_1" data-name="Layer 1" xmlns="http://www.w3.org/2000/svg" viewBox="0 0 85.04 85.04"><path d="M51.57,64.4a4.91,4.91,0,0,0,1.92,4.44,9.2,9.2,0,0,0,5.94,2,9.31,9.31,0,0,0,6-1.81,4.83,4.83,0,0,0,2.12-4.35c-.06-1-.12-2-.17-3-.05-.82-.09-1.63-.14-2.44-.09-1.39-.17-2.77-.26-4.15-.17-2.72-.34-5.53-.49-8.3,0-.15,0-.3,0-.45,0-1.09-.08-2.13-1.23-2.74l-.12-.06.07-.12a6.43,6.43,0,0,0-.09-7.65,5.23,5.23,0,0,1-1-3.66c0-.34,0-.69,0-1v-.38c0-1-.12-1.13-1-1.49l-.08,0V23.2h1.29a3.34,3.34,0,0,0,3.27-3.08c0-1.51,0-2.67,0-3.76a1.41,1.41,0,0,0-.55-.92.88.88,0,0,0-.91,0,1.06,1.06,0,0,0-.56.92c0,.65,0,1.32,0,2,0,.44,0,.89,0,1.33,0,.83-.38,1.36-1,1.43a5.85,5.85,0,0,1-.94,0h-.57V16.81c0-1.21-.34-1.54-1.58-1.55H57.65c-1.11,0-1.45.34-1.45,1.44V21h-.12a4.83,4.83,0,0,1-.67,0c-.79,0-1.47,0-1.5,1a1.11,1.11,0,0,0,.23.81,1.76,1.76,0,0,0,1.23.3,5,5,0,0,1,.69.05l.11,0v5.87l-.09,0c-.88.29-1.07.55-1.08,1.47,0,.33,0,.67,0,1,0,.73,0,1.49,0,2.24a1.6,1.6,0,0,1-.35.9c-2.14,2.58-2.49,5.38-1,8.09l.42.76-.41-.15a3.94,3.94,0,0,1-.31.48,2.83,2.83,0,0,0-.58,1.2c-.2,2.3-.33,4.66-.46,6.93,0,.69-.07,1.39-.11,2.08-.07,1.1-.12,2.19-.18,3.29C51.87,59.74,51.75,62.09,51.57,64.4Zm6.73-47h2.48V29.17H58.3Zm-1.13,13.9h4.77v2.49H57.17Zm-3.53,33c.39-5.77.71-11.64,1-17.31l0-.92c0-.58.29-.83.83-.83h0c.78,0,1.32,0,1.54-.71s-.15-.91-.57-1.31L56.38,43a4.71,4.71,0,0,1-.24-6.76,1,1,0,0,1,.75-.29c2,0,3.7,0,5.33,0a1.23,1.23,0,0,1,.79.35,4.71,4.71,0,0,1-.56,6.93c-.42.36-.66.69-.5,1.19a1,1,0,0,0,1.14.78h0c.22,0,.45,0,.69,0l.37,0h.11l.13,2.05c.09,1.57.19,3.09.28,4.61l.63,10.69v.15c0,.2,0,.4,0,.59,0,.54.07,1.09.08,1.64a2.75,2.75,0,0,1-1.23,2.2,6.84,6.84,0,0,1-3.6,1.37,11,11,0,0,1-1.13.06,8.16,8.16,0,0,1-4-1A3.33,3.33,0,0,1,53.64,64.3Z"/><path d="M47.69,63.86c-.81-6.4-1.53-12.17-2.18-17.63a5.84,5.84,0,0,0-1.88-3.88,1.27,1.27,0,0,1-.45-1.08c0-2.41,0-4.83,0-7.24V24.58c0-.76,0-1.55,0-2.32a1.07,1.07,0,0,0-1-1.17h-.08a.9.9,0,0,0-.63.24,1.41,1.41,0,0,0-.38,1.06v1.26q0,8.77,0,17.56a1.38,1.38,0,0,1-.5,1.19,5.2,5.2,0,0,0-1.77,3.35c-.16,1.24-.3,2.5-.43,3.71S38.15,51.85,38,53l-.18,1.47c-.39,3.15-.8,6.41-1.28,9.61a5.82,5.82,0,0,0,1.87,5.26,5.61,5.61,0,0,0,5.32,1.18C46.55,69.76,48.11,67.13,47.69,63.86Zm-2.25,2.47a3.44,3.44,0,0,1-3.37,2.36h0a3.42,3.42,0,0,1-3.19-2.37l0-.15h6.66Zm.07-2.49a.31.31,0,0,1,0,.08V64H38.7l.17-1.26c.14-1.05.28-2.09.41-3.12l.25-1.91c.29-2.31.6-4.69.89-7,.07-.63.13-1.27.19-1.89.07-.83.15-1.69.27-2.53a5.83,5.83,0,0,1,.65-1.78.72.72,0,0,1,.6-.44h0a.72.72,0,0,1,.61.44,5.16,5.16,0,0,1,.63,1.72c.22,1.68.41,3.38.6,5,.15,1.31.29,2.62.45,3.93.23,1.87.49,3.77.73,5.61.13,1,.26,1.91.38,2.87A.37.37,0,0,1,45.51,63.84Z"/><path d="M31.36,59.17a3.2,3.2,0,0,1,0-2.16,4.63,4.63,0,0,0-1-4.47,1.27,1.27,0,0,1-.24-.78c0-.37.08-.75.12-1.11a11.21,11.21,0,0,0,.14-1.73c-.05-1.87-.19-3.76-.33-5.6v0c-.17-2.28-.38-4.76-.64-7.58-.06-.73-.46-1.11-1.12-1s-1,.49-.93,1.23c.07,1,.15,1.92.23,2.88s.17,2.06.24,3.1c.15,2.21.34,5.12.49,8.07a2,2,0,0,1-1.72,2.28,6.77,6.77,0,0,1-3.46,0,2.16,2.16,0,0,1-2-2.56c.05-1.44.16-2.9.26-4.31.06-.78.11-1.55.17-2.33.16-2.3.32-4.68.56-7,.35-3.54.78-7.26,1.31-11.37.18-1.36.43-2.73.68-4.06.11-.61.23-1.21.33-1.82l0-.11h.38l0,.09a1.09,1.09,0,0,1,.05.17,1.93,1.93,0,0,1,.12.41l.1.59c.37,2.08.75,4.24,1.1,6.37.13.79.59,1.19,1.26,1.09a.94.94,0,0,0,.64-.37,1.34,1.34,0,0,0,.19-1c-.08-.52-.16-1-.23-1.56-.16-1.06-.32-2.16-.52-3.22l-.07-.41a15.47,15.47,0,0,0-1.35-4.58,1.62,1.62,0,0,0-1.49-1h0a1.53,1.53,0,0,0-1.38,1l-.13.28a8.4,8.4,0,0,0-.66,1.81l-.14.77c-.51,2.67-1,5.44-1.38,8.17-.48,3.7-.83,7.49-1.17,11.14l0,.17c-.26,2.93-.47,5.8-.61,8.53a31.33,31.33,0,0,0,.11,4.34v.05a1.35,1.35,0,0,1-.24,1.1,4.49,4.49,0,0,0-.81,4.83,1.41,1.41,0,0,1,0,1.17,4.08,4.08,0,0,0,.68,4.52,1.1,1.1,0,0,1,.2.8,5.79,5.79,0,0,0,1.8,5.35,5.67,5.67,0,0,0,9.39-5.12A1.3,1.3,0,0,1,30.63,63,3.77,3.77,0,0,0,31.36,59.17ZM27,67.91a3.59,3.59,0,0,1-4.11.25,3.4,3.4,0,0,1-1.64-3.46l0-.14.13,0a14.6,14.6,0,0,0,6.64,0l.12,0,0,.12A3.2,3.2,0,0,1,27,67.91ZM28.58,62a8,8,0,0,1-2.39.75,12.44,12.44,0,0,1-1.69.12,8.8,8.8,0,0,1-2.89-.46,2.06,2.06,0,0,1-1.49-2.78l0-.14.13,0a13.13,13.13,0,0,0,8.81,0l.11,0,.05.1A1.68,1.68,0,0,1,28.58,62Zm.88-5.89a2.4,2.4,0,0,1-1.75,1.69,10.13,10.13,0,0,1-6,0A2.35,2.35,0,0,1,20,56.17a2.54,2.54,0,0,1,.89-2.41L21,53.7l.08,0a8.62,8.62,0,0,0,7.36,0l.08,0,.06,0A2.53,2.53,0,0,1,29.46,56.15Z"/></svg>