<svg id="Layer_1" data-name="Layer 1" xmlns="http://www.w3.org/2000/svg" viewBox="0 0 85.04 85.04"><path d="M38.21,32.38a16.35,16.35,0,0,0-1.76-4.48,47,47,0,0,0-7.26-9.56,3.56,3.56,0,0,0-.58-.46l-.18-.13h-.49a1.29,1.29,0,0,0-.68,1.35c0,5.09,0,10.18,0,15.26v6.38l-.93-.38-.19-.08a8.74,8.74,0,0,0-5.49-.89A6.73,6.73,0,0,0,16,42a7.34,7.34,0,0,0-.71,1.46c-.09.22-.17.43-.27.65v1.34a.72.72,0,0,1,.08.22,4.94,4.94,0,0,0,2.15,3.18,8.35,8.35,0,0,0,9,.44,5.17,5.17,0,0,0,2.94-4.95q0-7.53,0-15.05V21.41l1,1a14.81,14.81,0,0,1,1.51,1.72,32.28,32.28,0,0,1,4.13,6.8,6.58,6.58,0,0,1-.72,6.87l-.58.74c-.24.29-.48.59-.7.9a2.18,2.18,0,0,0-.37.74.86.86,0,0,0,.52.9.93.93,0,0,0,1.1-.21,13.27,13.27,0,0,0,2.75-4.09A7.13,7.13,0,0,0,38.21,32.38ZM25.87,47.32a6.39,6.39,0,0,1-3.8,1.17,6.38,6.38,0,0,1-3.89-1.23,2.9,2.9,0,0,1,0-4.87,6.56,6.56,0,0,1,3.84-1.23h.05a6.53,6.53,0,0,1,3.75,1.18,3.17,3.17,0,0,1,1.41,2.49A3.13,3.13,0,0,1,25.87,47.32Z"/><path d="M66.26,54.54c0-6.66,0-13.32,0-20V28.13a.88.88,0,0,0-.6-.89,1.26,1.26,0,0,0-1.05.15q-10.47,4.5-21,9a1.16,1.16,0,0,0-.81,1.22q0,7.66,0,15.34V59.5L41.76,59l-.33-.16a9.46,9.46,0,0,0-3.85-.87,8.4,8.4,0,0,0-4.25,1.18,5.11,5.11,0,0,0-2.79,4.27A5,5,0,0,0,33,67.7a8.13,8.13,0,0,0,8.77.3,5.15,5.15,0,0,0,3-5c0-3.78,0-7.56,0-11.34q0-3.32,0-6.61a1.31,1.31,0,0,1,.87-1.34l13.72-5.87L63,36.32a3.39,3.39,0,0,1,.41-.15l1-.36V50.24L63,49.59a8.49,8.49,0,0,0-8.06.23A5.13,5.13,0,0,0,52.09,54a5.22,5.22,0,0,0,2.51,4.5,8.74,8.74,0,0,0,9.52-.24A4.69,4.69,0,0,0,66.26,54.54ZM41.35,66.06a6.56,6.56,0,0,1-3.65,1.12h-.06A6.48,6.48,0,0,1,33.85,66a2.92,2.92,0,0,1,0-5,6.72,6.72,0,0,1,7.5-.06,2.93,2.93,0,0,1,0,5.11ZM63.61,34,56,37.24l-9.83,4.22-.44.17-1,.38V40.48c0-.64,0-1.26,0-1.87a1.31,1.31,0,0,1,.8-1l8.25-3.54L64.4,29.59v1.57c0,.64,0,1.24,0,1.84A1.29,1.29,0,0,1,63.61,34Zm-.69,22.83A6.55,6.55,0,0,1,59.22,58h0a6.55,6.55,0,0,1-3.75-1.16A3.17,3.17,0,0,1,54,54.28a3.12,3.12,0,0,1,1.42-2.5,6.7,6.7,0,0,1,7.49-.05,2.93,2.93,0,0,1,0,5.08Z"/></svg>