<svg id="Layer_1" data-name="Layer 1" xmlns="http://www.w3.org/2000/svg" viewBox="0 0 85.04 85.04"><path d="M69.46,77.55c-.12-.6-.69-.6-1.13-.59H64.82c-2.37,0-4.83,0-7.24,0h0a1,1,0,0,1-.88-.45l-4.24-5.69-5.66-7.59a1.89,1.89,0,0,1-.32-1c0-1.94,0-3.92,0-5.83V54.92c0-.13,0-.25,0-.4s0-.11,0-.18h.75c1.64,0,1.77-.13,1.77-1.78v-3.3h3.3c1.21,0,1.46-.25,1.46-1.47V44.25h2.78c1.59,0,3.23,0,4.85,0a3.52,3.52,0,0,0,3.77-3.7c0-7,0-13.94,0-20.51a3.52,3.52,0,0,0-3.71-3.68H55.75c0-.23,0-.46,0-.68,0-.58,0-1.12,0-1.65a1.56,1.56,0,0,0-.51-1.3L53.53,11c-.87-.86-1.76-1.75-2.65-2.61a1.81,1.81,0,0,0-1.15-.46c-5.49,0-11.08,0-16.49,0H30.33c-1,0-1.29.28-1.29,1.27V16.3H29l-.06,0-1.63,0c-1.23,0-2.51,0-3.76,0a3.74,3.74,0,0,0-2.82,1.05,3.9,3.9,0,0,0-1.12,2.87c.06,6.56.06,13.32,0,20.09a3.93,3.93,0,0,0,1.1,2.86,3.82,3.82,0,0,0,2.75,1.06h.09c1.56,0,3.16,0,4.7,0H31v1.06c0,.87,0,1.71,0,2.56,0,1.13.26,1.39,1.39,1.39h3.37v1.15c0,1,0,1.86,0,2.78s.33,1.13,1.14,1.15h1.37a.25.25,0,0,1,0,.08,2.15,2.15,0,0,1,0,.23v1.53c0,2,0,4.18,0,6.27a1.56,1.56,0,0,1-.32.81c-1.64,2.21-3.3,4.42-5,6.63l-4.95,6.64a.94.94,0,0,1-.87.45h0c-2.54,0-5.12,0-7.6,0H16.47a1.12,1.12,0,0,0-1.14.49c-.28.5,0,.87.22,1.2l.09.13,0,0H69.13l0-.07.13-.36A1.53,1.53,0,0,0,69.46,77.55ZM51,12.64V11.31l1.33,1.33Zm-.34,1.94H53.8V34.8H31v-25H49.06V13C49.06,14.38,49.27,14.58,50.64,14.58Zm1.17,29.75v3H33v-3ZM21.53,38V36.85H63.28V38Zm0,2H63.22A2,2,0,0,1,63,41.62a2,2,0,0,1-1.64.72h0c-3.17,0-6.38,0-9.54,0H23.67a2.26,2.26,0,0,1-1.78-.55A2.31,2.31,0,0,1,21.53,39.94ZM29,34.82H21.51v-.13c0-.16,0-.31,0-.46,0-4.67,0-9.34,0-14,0-1.34.58-1.94,1.9-1.95H29Zm26.79,0V18.27h5.78a1.64,1.64,0,0,1,1.73,1.78V34.82Zm-9.2,31.33L54.66,77h-.1c-2,.06-2,.05-3.16-1.53L50.11,73.7c-1.07-1.42-2.17-2.9-3.24-4.36a2.36,2.36,0,0,1-.37-1.13A9.08,9.08,0,0,1,46.59,66.15Zm3.56,10.77H46.51V72ZM44.48,54.41V76.94H40.31V54.41Zm2.6-5.14v3.11H37.71V49.27Zm-8.83,22.8v4.86H34.63ZM30.11,77,38.29,66v.59c0,.8,0,1.48,0,2.17a.73.73,0,0,1-.21.38l-.07.09c-.56.76-1.13,1.52-1.7,2.27-1.21,1.63-2.47,3.31-3.7,5a1,1,0,0,1-.93.47c-.21,0-.42,0-.64,0h-.91Z"/><path d="M32.81,22.7a4.39,4.39,0,0,0,3.15.37,2.41,2.41,0,0,0,2.22-2.79V14h.09l.26,0,.82.13,5.44.87a.44.44,0,0,1,.27.28c0,1.34,0,2.68,0,4.09v1a4.69,4.69,0,0,0-3.43.32,1.92,1.92,0,0,0-1.16,1.71,1.83,1.83,0,0,0,1.15,1.71,4.44,4.44,0,0,0,4.26,0A1.94,1.94,0,0,0,47,22.32c0-2.15,0-4.33,0-6.44V14.45a1.07,1.07,0,0,0-1-1.16l-5.64-.91-2.72-.44a1.23,1.23,0,0,0-1,.18,1.28,1.28,0,0,0-.35,1c0,1.09,0,2.17,0,3.26v1.92c0,.16,0,.32,0,.48a.49.49,0,0,0,0,.12,5.07,5.07,0,0,0-3.41.35A2,2,0,0,0,31.66,21,1.92,1.92,0,0,0,32.81,22.7ZM33.76,21a2.16,2.16,0,0,1,2.32,0A2.18,2.18,0,0,1,33.76,21Zm11.17,1.44a2.67,2.67,0,0,1-2.37,0A2.17,2.17,0,0,1,44.93,22.43Z"/><path d="M52,31.71H40.12a.82.82,0,0,0-.53.08c-.34.27-.67.55-.68.85s.2.54.62.88a.89.89,0,0,0,.59.11H52a1.23,1.23,0,0,0,.91-.36.8.8,0,0,0,.22-.61C53.08,32.05,52.7,31.73,52,31.71Z"/><path d="M39.91,25.85a1.18,1.18,0,0,0-.84.4,1,1,0,0,0,0,.92,1.44,1.44,0,0,0,1,.52c1,0,2,0,3,0h9c.67,0,1-.34,1-.94a.89.89,0,0,0-.24-.66,1,1,0,0,0-.75-.27H39.91Z"/><path d="M45.7,30.31a.85.85,0,0,0,.22-.63c0-.57-.5-.91-1.25-.91H32.87c-.76,0-1.2.34-1.21.94a.85.85,0,0,0,.24.63,1.3,1.3,0,0,0,1,.31H44.66A1.39,1.39,0,0,0,45.7,30.31Z"/><path d="M36.5,31.72c-.42,0-.84,0-1.25,0H34.14c-.45,0-.91,0-1.37,0a1.25,1.25,0,0,0-.9.36.83.83,0,0,0-.2.63,1,1,0,0,0,1.09.93h3.73c.67,0,1-.34,1.06-.94S37.18,31.73,36.5,31.72Z"/><path d="M36.59,25.85c-1.22,0-2.47,0-3.68,0h-.25a.88.88,0,0,0-1,.93.89.89,0,0,0,1,.93h3.93a.86.86,0,0,0,.95-.89.93.93,0,0,0-.23-.7A1,1,0,0,0,36.59,25.85Z"/><path d="M52.08,28.77h-3.8c-.67,0-1,.34-1,1a.88.88,0,0,0,1,.92c.44,0,.88,0,1.32,0H52.1c.64,0,1-.34,1-.91a1,1,0,0,0-.24-.69A1.1,1.1,0,0,0,52.08,28.77Z"/></svg>