<svg id="Layer_1" data-name="Layer 1" xmlns="http://www.w3.org/2000/svg" viewBox="0 0 85.04 85.04"><path d="M75.85,76c-.33,0-.66,0-1,0a.9.9,0,0,1-1-.53c-.58-1-1.23-2.07-1.85-3.1a4.43,4.43,0,0,0-2.55-1.89A.82.82,0,0,1,69,69.7c0-5.49,0-11,0-16.49a.92.92,0,0,1,.67-1,9.66,9.66,0,0,0,5.89-7.07,30.88,30.88,0,0,0,.31-5.45,2.54,2.54,0,0,0-2.54-2.64H57.51V36a1.14,1.14,0,0,0-2.27,0V37H53V28.16a2.3,2.3,0,1,1,4.58,0V29a1.15,1.15,0,0,0,2.29,0V27.88a4.58,4.58,0,0,0-9.15,0q0,4.18,0,8.37v.83H46a2.16,2.16,0,0,0-2.19,1.87,30.18,30.18,0,0,0,.07,5.21,10.07,10.07,0,0,0,6.31,8.21.82.82,0,0,1,.43.6q0,8.43,0,16.88a.75.75,0,0,1-.43.57A6.79,6.79,0,0,0,47,73.34c-.44.74-.88,1.48-1.35,2.2A1,1,0,0,1,45,76c-4.86,0-9.73,0-14.59,0a.64.64,0,0,1-.64-.72l-1.45-6.53c1.11-.07,2.12-.15,3.12-.19a10.71,10.71,0,0,0,9.71-7.15c1.43-4.21-1-6.12-3.6-6.07-5.7.12-11.4,0-17.1,0h-.76a2,2,0,0,1-.15-.39l-1.32-7.15Q16.75,40,15.29,32.2a2.34,2.34,0,0,0-2.66-2c-1,0-2,0-2.93,0a2.35,2.35,0,0,0-2.36,3.32l3.93,21.23a16.32,16.32,0,0,1,.31,2.77c.09,5.87,0,11.74,0,17.6V76H8.3a1.1,1.1,0,1,0,0,2.19H75.84a1.12,1.12,0,0,0,0-2.24ZM9.52,32.52H13c1.41,7.59,2.82,15.18,4.25,22.84H13.72C12.32,47.75,10.92,40.16,9.52,32.52Zm4.42,25.15H37.37c1.7,0,2.12.57,1.68,2.26H13.94ZM14,76V62.29H38.42c-.54.67-1,1.29-1.48,1.82-1.63,1.65-3.72,2.06-5.94,2.16l-7.89.52A1.12,1.12,0,0,0,22.05,68a1.14,1.14,0,0,0,1.19,1.07l2.66-.14,1.58,7ZM46.1,42.48c0-1,0-2,0-3.11H73.55c0,2.42.31,4.86-.92,7.11a7.54,7.54,0,0,1-4.36,3.79,10.61,10.61,0,0,1-3,.51c-3.62.06-7.24,0-10.87,0A8.06,8.06,0,0,1,46.1,42.48ZM66.65,53.13V70.24H53V53.13ZM48.14,76c.59-.93,1.07-1.79,1.65-2.59a2.16,2.16,0,0,1,1.83-.81H68.06a2.33,2.33,0,0,1,2.13,1.2L71.5,76Z"/><path d="M75.59,7.3H43.83a2.21,2.21,0,0,0-2.3,2.14q0,9.3,0,18.6a2.17,2.17,0,0,0,1.88,2.11c1.26.06,2.52,0,3.79,0a1.16,1.16,0,1,0,0-2.31H43.84V9.63h32V28H63.26a1.13,1.13,0,0,0,0,2.25H75.64a2.27,2.27,0,0,0,2.5-2.53V9.86A2.56,2.56,0,0,0,75.59,7.3Z"/><path d="M22.08,41.67H23.2v1.86c0,1.67.6,2.41,2.29,2.77v2.19a2.33,2.33,0,0,0,2.3,2.31c1.52,0,3.05,0,4.58,0a2.25,2.25,0,0,0,2.28-2.32v-2.2a2.38,2.38,0,0,0,2.29-2.7v-2h1.12a1.13,1.13,0,0,0,0-2.25H36.94V37.19a2.25,2.25,0,0,0-2.41-2.41L26,34.8c-1.67,0-2.74.81-2.75,2.4v2.19H22.08A1.13,1.13,0,0,0,21,40.52v0A1.13,1.13,0,0,0,22.08,41.67Zm10.24,6.79H27.81V46.27h4.51Zm-6.8-11.34h9.09V43.9H25.52Z"/><path d="M55.32,13h0a1,1,0,0,0,0,1.45L63,22.16a1,1,0,1,0,1.42-1.42L56.7,13.07A1,1,0,0,0,55.32,13Z"/><path d="M68.81,18.87l.07-.07a1.11,1.11,0,0,0,0-1.59l-4.08-4.09a1.12,1.12,0,0,0-1.57,0,1.1,1.1,0,0,0,0,1.56l4,4.16A1.11,1.11,0,0,0,68.81,18.87Z"/><path d="M52.7,21a1,1,0,0,0,1.42-1.42l-2-2a1,1,0,0,0-1.41,0h0a1,1,0,0,0,0,1.44Z"/></svg>