<svg id="Layer_1" data-name="Layer 1" xmlns="http://www.w3.org/2000/svg" viewBox="0 0 85.04 85.04"><path d="M8.14,41.09a2.66,2.66,0,0,1,2.78-1.48c1.75.08,3.51,0,5.32,0V38.25a9.12,9.12,0,0,1-1.7-1.36,3.61,3.61,0,0,1-.29-2.9.87.87,0,0,1,1.1-.64.9.9,0,0,1,.82.9,7.63,7.63,0,0,1,0,1.07c0,.46.16.61.62.61,1.78,0,3.56,0,5.34,0h9.52c0-.51,0-1,0-1.42,0-.73.39-1.15,1-1.16s1,.37,1,1.12a11.17,11.17,0,0,1,0,1.53,2,2,0,0,1-1.45,1.81c-.62.17-.71.47-.66,1,0,.26,0,.52,0,.84H63.2c1,0,1.51.31,1.53,1s-.48,1-1.54,1h-53v2.5H74.45v-2.5H67.91c-.78,0-1.21-.38-1.2-1a1,1,0,0,1,1.18-1q3.24,0,6.48,0a2.06,2.06,0,0,1,2.13,2.15c0,.75,0,1.51,0,2.27a2,2,0,0,1-2,2.15c-.35,0-.7,0-1.12,0v.87q0,13,0,26a4.44,4.44,0,0,1-.18,1.51,2.68,2.68,0,0,1-2.3,1.87,5.37,5.37,0,0,1-.8.05H14.63a4.82,4.82,0,0,1-1.26-.14,2.84,2.84,0,0,1-2-2.6c0-.29,0-.58,0-.87V46.19c-1.4.16-2.59-.08-3.18-1.49Zm63.14,5.17H43.41v13.1H71.28ZM43.41,61.51V74.46l.44,0H70.21c.82,0,1.09-.3,1.09-1.15q0-5.64,0-11.28c0-.17,0-.34,0-.55Zm-2.18,13V46.26H13.34V73.21c0,1.05.23,1.28,1.29,1.28h26.6ZM18.38,39.59h11.1V38H18.38Z"/><path d="M74.5,8.24a5,5,0,0,1,1.31,1,3.35,3.35,0,0,1,.67,1.74c0,6,0,11.93,0,17.9a2.66,2.66,0,0,1-2.4,2.66,7,7,0,0,1-.8,0H46.6c-1.74,0-2.81-.75-3.14-2.19a4.79,4.79,0,0,1-.06-.93c0-5.61,0-11.22,0-16.82a3.12,3.12,0,0,1,2.15-3.36ZM61,29.49H73.33c1,0,1.17-.18,1.17-1.15V11.46c0-1-.21-1.21-1.2-1.21H61.7l-.68,0ZM58.89,10.25H46.56c-.92,0-1.14.22-1.14,1.13v17c0,.88.21,1.08,1.11,1.08H58.21l.68,0Z"/><path d="M8.14,16.52c.69-1.55,2-1.55,3.4-1.44.06-.09.1-.12.12-.16,1-2.82,2.32-3.74,5.31-3.74H32.45a4.68,4.68,0,0,1,5,3.89h1.38A2.08,2.08,0,0,1,41,17.16c0,.55,0,1.11,0,1.67a2.06,2.06,0,0,1-2.15,2.08H10.25a2.3,2.3,0,0,1-2.11-1.46Zm30.71.58H38l-16.49,0a4.91,4.91,0,0,1-.86-.05A.91.91,0,0,1,19.87,16c0-.62.48-.94,1.29-.94H35.28a2,2,0,0,0-.11-.39,2.76,2.76,0,0,0-2.69-1.49H16.59a4.08,4.08,0,0,0-1.05.12,2.53,2.53,0,0,0-1.79,1.75c1.06,0,2-.05,3,0a1.39,1.39,0,0,1,.94.58,1,1,0,0,1-.08,1,1.73,1.73,0,0,1-1.09.45c-1.87,0-3.74,0-5.61,0-.24,0-.47,0-.7,0v1.68H38.85Z"/><path d="M57.33,47.75h2.6c.72,0,1.14.4,1.14,1a1,1,0,0,1-1.17,1c-1.71,0-3.41,0-5.12,0-.74,0-1.23-.42-1.22-1s.47-1,1.18-1Z"/><path d="M57.3,65.55c-.87,0-1.73,0-2.6,0a1,1,0,0,1-1.14-1,1.07,1.07,0,0,1,1.19-1h5.19a1,1,0,0,1,1.12,1c0,.62-.38,1-1.1,1C59.07,65.57,58.18,65.55,57.3,65.55Z"/><path d="M27.45,72.48H17.71a1.87,1.87,0,0,1-2.13-2.12q0-6.18,0-12.35a1.91,1.91,0,0,1,2.17-2.18H37.23a1.93,1.93,0,0,1,2.2,2.22q0,6.11,0,12.22c0,1.56-.67,2.21-2.24,2.21Zm9.9-2V57.94H17.66V70.45Z"/><path d="M27.48,54.3A3.33,3.33,0,0,1,24.2,51a3.3,3.3,0,0,1,6.6,0A3.32,3.32,0,0,1,27.48,54.3ZM28.73,51a1.23,1.23,0,1,0-1.22,1.23A1.23,1.23,0,0,0,28.73,51Z"/><path d="M15.58,51a3.23,3.23,0,0,1,3.24-3.27A3.28,3.28,0,1,1,15.58,51Zm4.51,0a1.24,1.24,0,1,0-2.48,0,1.24,1.24,0,1,0,2.48,0Z"/><path d="M65,20c0,.71,0,1.42,0,2.13a1,1,0,0,1-1,1.18,1,1,0,0,1-1-1.13c0-1.47,0-2.93,0-4.39,0-.7.38-1.09,1-1.1a1,1,0,0,1,1,1.11C65,18.51,65,19.24,65,20Z"/><path d="M54.89,19.92c0-.71,0-1.42,0-2.12a1,1,0,0,1,1-1.14,1,1,0,0,1,1,1.07c0,1.49,0,3,0,4.46a1,1,0,0,1-1,1.09,1.06,1.06,0,0,1-1-1.16C54.88,21.39,54.89,20.66,54.89,19.92Z"/></svg>