<svg id="Layer_1" data-name="Layer 1" xmlns="http://www.w3.org/2000/svg" viewBox="0 0 85.04 85.04"><path d="M50.67,59.24a2,2,0,0,0,2.15-2,2,2,0,0,0-1.54-1.84,5.21,5.21,0,0,0-.88-.06c-2.44,0-4.88,0-7.31,0a6.52,6.52,0,0,1-2.82-.62c-2-.95-4.06-1.84-6.09-2.77a8.32,8.32,0,0,0-3.54-.76c-1.36,0-2.72,0-4.1,0a1.08,1.08,0,0,1-1.08-1.07v0A1.08,1.08,0,0,1,26.53,49h1.36c2.73.07,3.59-.07,5.84.55a49.18,49.18,0,0,1,6.18,2.73,9.85,9.85,0,0,0,4.84,1c2-.09,4.06,0,6.09,0a4,4,0,0,1,4.06,4c0,.09,0,.17,0,.36l.67-.25c3.5-1.48,7-3,10.52-4.44a6.51,6.51,0,0,1,7.6,1.46A14.9,14.9,0,0,1,75.28,57c.26.44.13.7-.35,1q-7.07,3.7-14.11,7.46c-4,2.1-7.94,4.18-11.89,6.31a10.64,10.64,0,0,1-8.7.74C36.49,71.22,32.75,70,29,68.85a4,4,0,0,0-1.62-.17h-.88a1,1,0,0,1-1-1h0a1,1,0,0,1,1.05-1,10.47,10.47,0,0,1,3.38.32c3.66,1.23,7.35,2.37,11,3.57A9.14,9.14,0,0,0,48,69.83q9-4.8,18-9.55l6.78-3.6a4.45,4.45,0,0,0-5.68-1.9c-2.85,1.17-5.69,2.4-8.53,3.6-2.09.89-4.18,1.79-6.28,2.66a3.51,3.51,0,0,1-1.28.25h-9.8a1,1,0,0,1-1-1h0a1,1,0,0,1,1-1Z"/><path d="M50.44,40c-2.31-1.39-3.86-2.3-6.13-3.7a1,1,0,0,0-1.12,0c-2.33,1.31-4.25,2.3-6.57,3.58a1.07,1.07,0,0,1-1.16.07c-.79-.57-.48-1.05.29-4.06.34-1.35.77-2.73,1.06-4.2.13-.64.13-.88-.23-1.21-1.83-1.68-3.61-3.4-5.46-5a1.11,1.11,0,0,1-.41-1.26c.11-.47.58-.53,1-.56,2.51-.2,5-.43,7.53-.62a.82.82,0,0,0,.77-.56c1.05-2.29,2.14-4.56,3.16-6.86.23-.51.56-.51,1-.52s.71,0,.9.52c.94,2.31,1.94,4.6,2.9,6.9a.91.91,0,0,0,.88.67c2.51.27,5,.62,7.5.9a1.07,1.07,0,0,1,1,.63c.19.37-.2.88-.47,1.12-1.92,1.64-3.81,3.31-5.73,4.95-.39.34-.41.59-.26,1.34.34,1.68.68,3.21,1,4.88.47,2.42.91,2.72,0,3.33C51.75,40.41,51.26,40.44,50.44,40Zm-.69-2.85c-.36-1.9-.61-3.68-1.07-5.41a1.94,1.94,0,0,1,.84-2.35c1.39-1.09,2.78-2.38,4.16-3.58a2.84,2.84,0,0,0-.39-.06c-2.07-.25-4.13-.52-6.21-.72a.53.53,0,0,1-.43-.33c-.73-1.82-1.51-3.61-2.27-5.41-.09-.2-.19-.4-.33-.67-.81,1.73-1.61,3.34-2.3,5-.38.89-.81,1.5-1.89,1.36a5.25,5.25,0,0,0-1.11.09l-4.5.41.58.54c1.48,1.39,3,2.78,4.46,4.14a.16.16,0,0,1,.05.16c-.29,1-.52,2-.75,3-.27,1.17-.53,2.35-.82,3.62,1.85-1,3.61-2,5.33-3a1.19,1.19,0,0,1,1.42,0C46.2,35.07,47.92,36.07,49.75,37.17Z"/><path d="M32.26,40.52c-.3-1.6-.57-3.08-.87-4.56a1.32,1.32,0,0,1,.5-1.5c.31-.23.62-.49.93-.77a1,1,0,0,1,1.45.09h0a1,1,0,0,1-.09,1.47,5.42,5.42,0,0,1-.46.36c-.32.21-.24.47-.1,1.29.29,1.77.66,3.27,1,4.93.2,1,.22,1.55-.63,1.83-.32.11-.91-.21-1.06-.31-1.93-1.14-3.47-2.08-5.37-3.26a.17.17,0,0,0-.17,0c-1.93,1.1-3.9,2.13-5.82,3.25a1.21,1.21,0,0,1-1.39,0c-.38-.19-.18-.82-.11-1.12.52-2.19,1-4.38,1.52-6.58-1.67-1.56-3.38-3.08-5-4.64a1.47,1.47,0,0,1-.32-.83c0-.65.59-.86,1.28-.9,1.9-.1,3.79-.32,5.7-.45A1.15,1.15,0,0,0,24.33,28c.81-1.87,1.7-3.7,2.52-5.57a.86.86,0,0,1,.93-.58.9.9,0,0,1,.84.6c.72,1.7,1.49,3.37,2.16,5.08.33.87.69,1.32,1,1.35l.45.05a1,1,0,0,1,.9,1.16h0a1,1,0,0,1-1.12.89c-.61-.05-1.19-.11-1.76-.2a1.05,1.05,0,0,1-.6-.59c-.6-1.33-1.16-2.69-1.73-4-.07-.16-.15-.32-.25-.55-.66,1.42-1.31,2.75-1.9,4.12a1.48,1.48,0,0,1-1.5,1c-1.44,0-2.87.23-4.46.37.53.51,1,.92,1.41,1.33.7.66,1.39,1.34,2.12,2a1,1,0,0,1,.35,1.16c-.37,1.53-.7,3.07-1.08,4.73.33-.17.57-.28.8-.41,1.15-.65,2.27-1.34,3.45-1.91a1.58,1.58,0,0,1,1.26.07C29.52,38.82,30.83,39.66,32.26,40.52Z"/><path d="M65,40.51c-.35-1.83-.63-3.47-1-5.1a.61.61,0,0,1,.21-.61c1.29-1.07,2.52-2.17,3.93-3.4l-5.57-.66-2.1-5.17c-.71,1.53-1.36,2.86-2,4.21a1.5,1.5,0,0,1-1.46,1,4.72,4.72,0,0,1-.65,0,1.05,1.05,0,0,1-1.09-.9v0a1,1,0,0,1,.89-1.1l.56-.06c.14,0,.27-.54.68-1.5.61-1.45,1.31-2.87,2-4.29.19-.41.32-.86,1-.86s.9.35,1.12.87c.79,1.92,1.63,3.81,2.42,5.74a.36.36,0,0,0,.3.22c2.06.21,4.11.46,6.16.72.4.06.84,0,1,.63A1.28,1.28,0,0,1,71,31.64l-3,2.63c-.47.4-.91.83-1.4,1.2a.84.84,0,0,0-.31,1c.4,2,.77,4.09,1.21,6.12.15.68,0,1-.29,1.22s-.9,0-1.17-.2c-1.71-1-3.43-2-5.11-3.1a1.28,1.28,0,0,0-1.53,0c-1.68,1-3.41,1.9-5.1,2.85-.34.19-1,.57-1.34.22a1.34,1.34,0,0,1-.18-1.4c.58-2.14,1-4.31,1.52-6.48-.34-.38-.7-.73-1.08-1.08a1,1,0,0,1,0-1.48h0a1,1,0,0,1,1.45-.05c.61.56,1.2,1.1,1.74,1.68.18.19.13.67.06,1-.27,1.33-.6,2.64-.9,4,0,.17-.05.34-.09.63,1.54-.85,3-1.62,4.4-2.46a.75.75,0,0,1,.78,0C62,38.75,63.39,39.57,65,40.51Z"/><path d="M10.92,71.31h0a1,1,0,0,1,1-1h9.18V48.57H12a1,1,0,0,1-1-1h0a1,1,0,0,1,1-1l8.72,0c1.91,0,2.63.81,2.58,2.82-.19,6.59,0,13.14,0,19.75,0,2.35-.53,3.27-2.6,3.27H11.94A1,1,0,0,1,10.92,71.31Z"/><path d="M17.07,65.63A1.43,1.43,0,0,1,18.5,67a1.45,1.45,0,1,1-2.89,0A1.43,1.43,0,0,1,17.07,65.63Z"/></svg>