
<svg id="Layer_1" data-name="Layer 1" xmlns="http://www.w3.org/2000/svg" viewBox="0 0 85.04 85.04"><path d="M67.22,21.12A9.68,9.68,0,0,0,60,18q-17.57,0-35.13,0a9.67,9.67,0,0,0-9.38,7.11c-.1.34-.17.68-.25,1,0,.16-.06.31-.1.47v2.26l0,.06a.36.36,0,0,0,0,.09.3.3,0,0,1,0,.11,8.78,8.78,0,0,0,1.11,3.3l4.47,7.75c4.35,7.57,8.86,15.4,13.34,23.07A9.48,9.48,0,0,0,42.44,68h.05A9.69,9.69,0,0,0,51,63q2.74-4.82,5.51-9.61l8.65-15,3.31-5.74a9.86,9.86,0,0,0,1.35-4.11A9.72,9.72,0,0,0,67.22,21.12ZM63.86,36.75l-2.87,5a11.05,11.05,0,0,0-1.7-4.23A10.15,10.15,0,0,0,63.86,36.75Zm-38.2.75A10.3,10.3,0,0,0,24,41.88l-2.9-5A11.31,11.31,0,0,0,25.66,37.5Zm-.76-1.9h0a7.83,7.83,0,0,1-7.75-7.86,7.7,7.7,0,0,1,2.3-5.49A7.83,7.83,0,0,1,25,20h0a7.85,7.85,0,0,1,7.74,7.84A8,8,0,0,1,24.9,35.6ZM42.58,20.09c-.64.63-1.24,1.22-1.83,1.82l-2.36,2.36a1.48,1.48,0,0,0-.54,1,.9.9,0,0,0,.29.62c.31.3.84.5,1.59-.25l1.11-1.12c1.26-1.25,2.57-2.55,3.83-3.84a.54.54,0,0,1,.75-.14,7.88,7.88,0,0,1,4.35,4.39.48.48,0,0,1-.13.63c-3,3-6.11,6.09-9.41,9.41a.45.45,0,0,1-.58.12,8,8,0,0,1-4.47-4.48.4.4,0,0,1,.13-.56c.35-.33.7-.68,1-1l.33-.33a1.39,1.39,0,0,0,.5-.95,1,1,0,0,0-.91-.9,1.34,1.34,0,0,0-.93.48l-.29.28-.33.33a7.26,7.26,0,0,1,2-5.42A7.82,7.82,0,0,1,42.57,20h.11ZM33,33.23,33.7,32l.69,1.2Zm19,0H50.56l.7-1.24ZM30.89,35.69a.74.74,0,0,1,.22,0,.5.5,0,0,1,.35.19q3.48,3.51,7,7l2.42,2.42c.08.08.15.17.22.25l0,0,0,.09a.93.93,0,0,1-.07.2,7.86,7.86,0,0,1-4.49,4.5.4.4,0,0,1-.53-.09c-3.16-3.19-6.35-6.38-9.48-9.49a.39.39,0,0,1-.11-.52A8,8,0,0,1,30.89,35.69Zm11.6-.1,7.77-7.78a7.27,7.27,0,0,1-2.13,5.39A7.44,7.44,0,0,1,42.49,35.59Zm-8.79-.38a7.6,7.6,0,0,1,4.9,1.7A7.84,7.84,0,0,1,41.5,43Zm8.06,2.3H43.2l-.72,1.25Zm1.44,11H41.76l.72-1.24ZM60.06,35.57a7.36,7.36,0,0,1-5.42-2.12,7.59,7.59,0,0,1-2.39-5.67Zm-8.8-12a10.13,10.13,0,0,0-3.07-3.67h6.15A10.15,10.15,0,0,0,51.26,23.57Zm-17.55,0a10.17,10.17,0,0,0-3.12-3.69h6.19A10,10,0,0,0,33.71,23.58ZM42.5,50.41h0A7.79,7.79,0,0,1,48,63.67,7.86,7.86,0,0,1,42.43,66h0a7.78,7.78,0,1,1,.08-15.55Zm8.65.4a7.52,7.52,0,0,1-5.42-2.34,7.78,7.78,0,0,1,5.49-13.3h.12a7.82,7.82,0,0,1,7.74,8,7.55,7.55,0,0,1-2.36,5.37,7.63,7.63,0,0,1-5.5,2.22h-.07ZM62.57,35.18l0,0a1.25,1.25,0,0,1-.19-.15l-3-3-6.58-6.57c-.16-.15-.17-.26-.08-.49a8,8,0,0,1,4.5-4.51.63.63,0,0,1,.21-.05.41.41,0,0,1,.31.17l4.07,4.07,5.41,5.43a.53.53,0,0,1,.12.37,7.82,7.82,0,0,1-4.66,4.67ZM33.72,50.76a7.12,7.12,0,0,1-5.37-2.09A7.3,7.3,0,0,1,25.94,43Zm.72,2a10.09,10.09,0,0,0-1.64,4.35l-3-5.12A10.2,10.2,0,0,0,34.44,52.72ZM55.07,52l-2.92,5.08a10.15,10.15,0,0,0-1.62-4.33A10.2,10.2,0,0,0,55.07,52Zm5-32a8,8,0,0,1,5.26,2,7.84,7.84,0,0,1,2.55,5.83Z"/><path d="M42.48,64.57h0l.63-.13c.49-.1,1-.2,1.48-.34a1.11,1.11,0,0,0,.73-.54.86.86,0,0,0,0-.72c-.2-.55-.66-.74-1.36-.57l-.13,0a6,6,0,0,1-1.44.24h0a4.34,4.34,0,1,1,1.48-8.43,4.19,4.19,0,0,1,2.55,2.32,4.51,4.51,0,0,1-.07,3.7c-.3.68-.17,1.22.38,1.47a.92.92,0,0,0,.76,0,1.1,1.1,0,0,0,.59-.72l.07-.18a8.39,8.39,0,0,0,.55-2.3,6.21,6.21,0,0,0-2.06-4.89A6.39,6.39,0,0,0,41.4,52a6.26,6.26,0,0,0-5.19,6.42A6.39,6.39,0,0,0,42.48,64.57Z"/><path d="M42.18,57.77l-.07.08-.48.67c-.31.41-.62.83-.91,1.26a1,1,0,0,0-.11,1,.83.83,0,0,0,.71.47c.44,0,.9.06,1.39.06l1.06,0a.87.87,0,0,0,.82-.92.91.91,0,0,0-.88-.91h-.43l.07-.1a4.67,4.67,0,0,0,.34-.53l.12-.22a5.22,5.22,0,0,0,.51-1.13,1.78,1.78,0,0,0-.21-1.44,2,2,0,0,0-1.34-.91,2.09,2.09,0,0,0-1.59.35,1.85,1.85,0,0,0-.79,1.27.92.92,0,0,0,1.67.67.38.38,0,0,0,.06-.13s0-.06,0-.07a1.17,1.17,0,0,1,.27-.15.84.84,0,0,1,0,.27A1.86,1.86,0,0,1,42.18,57.77Z"/><path d="M24.94,21.5h0a6.29,6.29,0,0,0,0,12.58,6.28,6.28,0,0,0,4.4-10.76A6.18,6.18,0,0,0,24.94,21.5Zm0,10.65h0a4.39,4.39,0,0,1-4.37-4.37,4.28,4.28,0,0,1,1.28-3.06,4.36,4.36,0,0,1,3.09-1.27h0a4.35,4.35,0,0,1,0,8.7Z"/><path d="M26,24.9a2.08,2.08,0,0,0-2.33.07,2.13,2.13,0,0,0-1,2.21A2.23,2.23,0,0,0,24.31,29h0l-.19.2c-.68.66-.48,1.16-.19,1.46a.85.85,0,0,0,.63.28,1.23,1.23,0,0,0,.81-.35,5.11,5.11,0,0,0,1.79-3.53A2.21,2.21,0,0,0,26,24.9Zm-.77,2c0,.07-.09.2-.17.31l-.1.14h-.1l-.11-.13c-.09-.1-.2-.23-.2-.29s.13-.19.24-.29l.09-.08.1.07C25.11,26.68,25.24,26.78,25.25,26.86Z"/></svg>