<svg id="Layer_1" data-name="Layer 1" xmlns="http://www.w3.org/2000/svg" viewBox="0 0 85.04 85.04"><path d="M58.64,63.75h0a1.07,1.07,0,0,0-1.06,1.07c0,.18,0,.37,0,.55s0,.3,0,.46a2,2,0,0,1-1.35,2,3.35,3.35,0,0,1-1.06.15H20.43a2,2,0,0,1-2-2.11V27.94c0-.09,0-.19,0-.31H25a3.1,3.1,0,0,0,3.42-3.44V22.7c0-1.57,0-3.19,0-4.79,0-.22,0-.27,0-.28a.35.35,0,0,1,.22,0H55.12a2.13,2.13,0,0,1,2.44,2.45v9.71a5.33,5.33,0,0,0,0,.56,1,1,0,0,0,1,.94h.1a1,1,0,0,0,1-.75,2.11,2.11,0,0,0,.06-.6c0-3.36,0-6.73,0-10.09a4.19,4.19,0,0,0-4.39-4.37h-7.2c-5.7,0-12.43,0-19.21,0a4.71,4.71,0,0,0-3.48,1.45l-.62.63c-2.24,2.26-4.56,4.6-6.89,6.86a5.2,5.2,0,0,0-1.66,4c0,9.27,0,18.65,0,27.72v9.23c0,.25,0,.5,0,.75a4.13,4.13,0,0,0,2.83,3.77l.36.13.16.07,36.78,0,.07-.11c2.32-.63,3.46-2.48,3.22-5.21A1.09,1.09,0,0,0,58.64,63.75ZM26.24,24.44c0,.72-.27,1-1,1-1.35,0-2.71,0-4,0H20.05l6.19-6.19C26.25,21,26.25,22.72,26.24,24.44Z"/><path d="M69.85,45.93a1.75,1.75,0,0,1,0-2h0a3.43,3.43,0,0,0,.31-2.76,3.37,3.37,0,0,0-1.85-2,1.78,1.78,0,0,1-1.2-1.64,3.34,3.34,0,0,0-1.37-2.39,3.47,3.47,0,0,0-2.8-.53,1.55,1.55,0,0,1-1.7-.56,3.43,3.43,0,0,0-2.57-1.21h0A3.46,3.46,0,0,0,56.05,34a1.62,1.62,0,0,1-1.79.57,3.4,3.4,0,0,0-2.79.58,3.36,3.36,0,0,0-1.36,2.48,1.52,1.52,0,0,1-1,1.44,3.4,3.4,0,0,0-1.62,5,1.52,1.52,0,0,1,0,1.77A3.16,3.16,0,0,0,47,48.09a3.4,3.4,0,0,0,2.16,2.74,1.37,1.37,0,0,1,1,1.31,3.39,3.39,0,0,0,2.48,3.1c.26.07.27.1.26.32,0,.77,0,1.55,0,2.3V58c0,.31,0,.63,0,.94V60c0,.7,0,1.44,0,2.16a2,2,0,0,0,1,1.88,1.89,1.89,0,0,0,1,.27,2.14,2.14,0,0,0,1.16-.37l.75-.45.09-.06c.54-.33,1.09-.67,1.63-1a.35.35,0,0,1,.46,0l.15.1c.75.49,1.53,1,2.34,1.43a2.54,2.54,0,0,0,1.4.31,1.94,1.94,0,0,0,1.69-2.12c0-2,0-4.22,0-6.44,0-.3,0-.35.29-.44a3.14,3.14,0,0,0,2.38-2.84,1.76,1.76,0,0,1,1.2-1.64,3.4,3.4,0,0,0,1.85-2A3.45,3.45,0,0,0,69.85,45.93ZM68.12,42.5a3,3,0,0,1-.24.56,3.46,3.46,0,0,0,0,3.76,1.29,1.29,0,0,1-.67,2A3.47,3.47,0,0,0,65,51.92,1.47,1.47,0,0,1,64.47,53a1.4,1.4,0,0,1-1.14.16,3.54,3.54,0,0,0-3.71,1.24,1.3,1.3,0,0,1-1,.5,1.36,1.36,0,0,1-1-.53,3.44,3.44,0,0,0-2.71-1.32,4.79,4.79,0,0,0-1,.11A1.42,1.42,0,0,1,52.76,53a1.49,1.49,0,0,1-.53-1.1,3.4,3.4,0,0,0-2.22-3,1.39,1.39,0,0,1-.84-.82,1.48,1.48,0,0,1,.2-1.21,3.46,3.46,0,0,0,0-3.76,1.43,1.43,0,0,1-.2-1.19A1.41,1.41,0,0,1,50,41a3.36,3.36,0,0,0,2.21-3,1.45,1.45,0,0,1,.53-1.09,1.37,1.37,0,0,1,1.18-.18,3.5,3.5,0,0,0,3.67-1.21,1.24,1.24,0,0,1,2,0,3.6,3.6,0,0,0,3.82,1.22A1.22,1.22,0,0,1,65,37.84a3.51,3.51,0,0,0,2.31,3.21,1.34,1.34,0,0,1,.86,1.32A.65.65,0,0,1,68.12,42.5ZM55,55.22a1.65,1.65,0,0,1,1,.64,3.42,3.42,0,0,0,4.87.32,1.79,1.79,0,0,0,.23-.25,1.12,1.12,0,0,1,.21-.22c.25-.16.52-.31.85-.49h0V61.9l-.61-.36-1.88-1.16a2,2,0,0,0-2.23,0c-.75.47-1.51.93-2.27,1.39l-.1.07-.13.07Z"/><path d="M53,25.48c0-.83,0-1.65,0-2.44a2,2,0,0,0-2.14-2.1c-5.23,0-10.65,0-16.09,0A2,2,0,0,0,32.61,23c0,.86,0,1.72,0,2.55a2.08,2.08,0,0,0,2.19,2.07h1c.81,0,1.29-.4,1.31-1.06a1,1,0,0,0-.27-.74,1.35,1.35,0,0,0-1-.37h-1V23.11H50.69l.13.09c0,.61,0,1.21,0,1.87v.38l-.43,0H40a1.35,1.35,0,0,0-1,.35,1,1,0,0,0-.27.77,1.1,1.1,0,0,0,1.25,1.05q5.45,0,10.87,0A2,2,0,0,0,53,25.48Z"/><path d="M23.13,36.77h0a2.06,2.06,0,0,0,.42,0H43.23a2.38,2.38,0,0,0,.64-.08,1,1,0,0,0,.77-1,1,1,0,0,0-.83-1,2.81,2.81,0,0,0-.63-.05H23.65a3.39,3.39,0,0,0-.45,0,1.08,1.08,0,0,0-.07,2.13Z"/><path d="M43.4,53.5a1.31,1.31,0,0,0,.32,0,1,1,0,0,0,.92-1.06,1,1,0,0,0-.92-1.06,2.69,2.69,0,0,0-.57,0H23.67a2.85,2.85,0,0,0-.5,0,1,1,0,0,0-.93,1.06,1.05,1.05,0,0,0,.91,1.07l.34,0H43.4Z"/><path d="M23.2,42.33a3,3,0,0,0,.51,0H43.26a3.16,3.16,0,0,0,.43,0,1,1,0,0,0,1-1,1,1,0,0,0-.9-1.08,1.59,1.59,0,0,0-.37,0H23.52a2.32,2.32,0,0,0-.44,0,1,1,0,0,0-.84,1.08A1,1,0,0,0,23.2,42.33Z"/><path d="M44.39,46.13a1.73,1.73,0,0,0-1.29-.36H23.63a1,1,0,0,0-.53.08,1.88,1.88,0,0,0-.8.7.86.86,0,0,0,.06.84,1.33,1.33,0,0,0,1.13.53H43.08c.46,0,1.55,0,1.57-1A1,1,0,0,0,44.39,46.13Z"/><path d="M33.08,59.49H24.71c-.4,0-.92,0-1.44,0a1.06,1.06,0,0,0-1,1,1.08,1.08,0,0,0,1.05,1.1H33.39a1.32,1.32,0,0,0,.3,0,1,1,0,0,0,.86-1.07,1,1,0,0,0-1-1A4.3,4.3,0,0,0,33.08,59.49Z"/><path d="M58.63,38h0a7,7,0,0,0-6.93,7,6.94,6.94,0,0,0,6.92,6.88h0a6.93,6.93,0,0,0,0-13.85Zm4.77,6.91a4.76,4.76,0,1,1-9.52,0,4.69,4.69,0,0,1,4.74-4.74A4.77,4.77,0,0,1,63.4,44.92Z"/></svg>