<svg id="Layer_1" data-name="Layer 1" xmlns="http://www.w3.org/2000/svg" viewBox="0 0 85.04 85.04"><path d="M64.43,11.55a9.36,9.36,0,0,1,1.26.65,3.41,3.41,0,0,1,1.47,2.9c0,2.68,0,5.35,0,8,0,.75-.36,1.15-1,1.13s-.91-.42-.91-1.18c0-2.62,0-5.24,0-7.86a1.67,1.67,0,0,0-1.87-1.86H40.63V71.6H63.25c1.45,0,2-.59,2-2q0-20.68,0-41.38c0-.3,0-.67.11-.88a1.28,1.28,0,0,1,.86-.57c.29,0,.6.38.81.65s.08.43.08.65q0,20.78,0,41.56a3.7,3.7,0,0,1-3.84,3.86c-13.79,0-27.59,0-41.38,0a3.49,3.49,0,0,1-3.77-3.76V15.34a3.73,3.73,0,0,1,2.74-3.79ZM38.67,71.6V13.36H22.09c-1.45,0-2,.59-2,2.06V69.53c0,1.5.58,2.07,2.09,2.07H38.67Z"/><path d="M52.88,59.52H44.55c-.78,0-1.23-.54-1-1.19a1,1,0,0,1,1-.63h8.94c2.59,0,5.19,0,7.79,0a1.22,1.22,0,0,1,.87.48,1,1,0,0,1,0,.88,1.35,1.35,0,0,1-.92.41C58.44,59.53,55.66,59.52,52.88,59.52Z"/><path d="M52.91,35.47h8.4a.87.87,0,0,1,1,.72.84.84,0,0,1-.54,1,1.29,1.29,0,0,1-.52.08H44.61c-.71,0-1.11-.32-1.12-.9s.39-.91,1.15-.91Z"/><path d="M52.89,42.84H44.55c-.68,0-1.09-.37-1-1a.82.82,0,0,1,.77-.85,3.25,3.25,0,0,1,.54,0H61.48a.86.86,0,0,1,.83.88.88.88,0,0,1-.85.92c-.22,0-.44,0-.66,0Z"/><path d="M52.89,54H44.55c-.75,0-1.19-.48-1-1.13s.53-.69,1-.69H61.18c.71,0,1.12.32,1.13.88s-.41.93-1.15.93Z"/><path d="M44.7,25.57a4.53,4.53,0,0,1,6.92-3.84.92.92,0,1,1-.91,1.59l-.26-.14a2.68,2.68,0,0,0-3.9,2.5A2.5,2.5,0,0,0,48.15,28a2.24,2.24,0,0,0,2.67-.45.89.89,0,0,1,1.33,0,.9.9,0,0,1,0,1.34,4.25,4.25,0,0,1-6.18-.19A4.37,4.37,0,0,1,44.7,25.57Z"/><path d="M58.23,26.65c.36-1.07.68-2,1-2.92.21-.64.41-1.3.64-1.94a.93.93,0,1,1,1.75.57c-.76,2.32-1.54,4.64-2.31,7a1.06,1.06,0,0,1-1,.79,1.08,1.08,0,0,1-1.08-.81l-2.38-6.87c-.22-.64,0-1.14.48-1.32s1,.06,1.28.76C57.11,23.41,57.64,25,58.23,26.65Z"/><path d="M48.64,48.4h-4.1c-.65,0-1-.34-1-.9s.37-.91,1-.91c2.76,0,5.51,0,8.27,0,.66,0,1,.35,1,.92s-.38.89-1,.89Z"/><path d="M48.71,63.39h4c.71,0,1.1.33,1.11.91s-.36.92-1.09.92H44.57c-.71,0-1.09-.35-1.08-.93s.42-.9,1.12-.9Z"/><path d="M36.62,25.59a7.21,7.21,0,1,1-7.23-7.22A7.29,7.29,0,0,1,36.62,25.59Zm-2.73,2.82a5.27,5.27,0,0,0-1-6.89,5.38,5.38,0,0,0-7.24.22c-1.83,1.79-2.17,5-.77,6.63l1.61-1.76a3.09,3.09,0,0,1,1-3.73,3.14,3.14,0,0,1,3.66-.06,3.1,3.1,0,0,1,1.12,3.79Zm-1.32,1.43c-.36-.39-.67-.78-1-1.11a1.3,1.3,0,0,0-1.36-.33,6.2,6.2,0,0,1-1.77,0c-.17,0-.37-.09-.51,0a3.24,3.24,0,0,0-1.59,1.55A5.22,5.22,0,0,0,32.57,29.84ZM29.4,26.67a1.28,1.28,0,1,0,0-2.56,1.28,1.28,0,0,0-1.26,1.27A1.26,1.26,0,0,0,29.4,26.67Z"/><path d="M29.4,46c-1.67,0-3.34,0-5,0a2,2,0,0,1-2.23-2.24c0-.72,0-1.45,0-2.17a2,2,0,0,1,2.14-2.12H34.5a2,2,0,0,1,2.13,2.11c0,.81,0,1.61,0,2.42a1.93,1.93,0,0,1-2,2c-1.75,0-3.5,0-5.26,0Zm-5.33-1.88H34.8c0-.74,0-1.44,0-2.14,0-.5-.13-.66-.64-.65-3.18,0-6.36,0-9.54,0-.17,0-.35,0-.56,0Z"/><path d="M29.39,65.24H24.5a2.06,2.06,0,0,1-2.34-2.33c0-.68,0-1.37,0-2a2,2,0,0,1,2.15-2.17H34.52a2,2,0,0,1,2.11,2.13v2.3a2,2,0,0,1-2.11,2.11C32.81,65.25,31.1,65.24,29.39,65.24Zm5.41-1.87c0-.75,0-1.43,0-2.11s-.13-.72-.7-.71c-3.14,0-6.28,0-9.42,0l-.6,0v2.78Z"/><path d="M34.8,51H24.09V53.8c.31,0,.62,0,.94,0a.93.93,0,0,1,1,.88,1,1,0,0,1-1,1h-.78a2,2,0,0,1-2.07-2c0-.84,0-1.69,0-2.53a1.94,1.94,0,0,1,2-2q5.19,0,10.39,0a1.93,1.93,0,0,1,2,2.07c0,.8,0,1.61,0,2.41a2,2,0,0,1-2,2H29.48c-.7,0-1.09-.37-1.08-1s.37-.88,1.06-.89c1.15,0,2.3,0,3.45,0,.59,0,1.45.18,1.72-.13s.14-1.17.16-1.78C34.81,51.58,34.8,51.29,34.8,51Z"/></svg>