<svg id="Layer_1" data-name="Layer 1" xmlns="http://www.w3.org/2000/svg" viewBox="0 0 85.04 85.04"><defs><style>.cls-1{fill:#fff;}</style></defs><path d="M75.49,59.54a1.41,1.41,0,0,1-1.42.72c-.83,0-1.67,0-2.51,0a.57.57,0,0,0-.67.45,5.63,5.63,0,0,1-10.71,0,.56.56,0,0,0-.62-.45H40.91c-.39,0-.53.13-.65.49a5.64,5.64,0,0,1-10.7,0c-.15-.43-.36-.48-.73-.48h-8c-1.13,0-1.41-.32-1.46-1.45a5.26,5.26,0,0,1,2.77-5.17.58.58,0,0,0,.26-.42c0-1.38,0-2.76,0-4.22h-10c-.81,0-1.28-.49-1.18-1.18s.49-.86,1.2-.86c2.28,0,4.56,0,6.84,0h3.11v-2H19.54c-.4,0-.8,0-1.2,0a1,1,0,0,1-1-1.1,1,1,0,0,1,1.08-1c1.3,0,2.59,0,3.93,0v-2h-10c-.81,0-1.27-.49-1.17-1.19.08-.54.49-.84,1.2-.85h8.14l-.58-.48a10,10,0,1,1,15.9-10.36c.13.49.32.62.8.61q7.41,0,14.82,0a5.23,5.23,0,0,1,5.11,3.08,6.73,6.73,0,0,1,.54,2.48c.09,1.52,0,3,0,4.67h8.3a7.68,7.68,0,0,1,6.74,3.67q1.66,2.5,3.31,5Zm-51-16.7h7a1.07,1.07,0,0,1,1.17,1,1.1,1.1,0,0,1-1.12,1c-.14,0-.29,0-.43,0H24.52v1.93c.08,0,.11.06.15.06l1.57,0c.85,0,1.28.37,1.26,1s-.43,1-1.24,1H24.52v4H55c0-.16,0-.28,0-.4,0-6.22,0-12.44,0-18.66a3.23,3.23,0,0,0-3.34-3.31H36.74l-.55,0a10.3,10.3,0,0,1-4.4,8.11h1.5c1.47,0,2.93,0,4.4,0a1,1,0,0,1,.94,1.49,1.16,1.16,0,0,1-1.17.55H24.51Zm9.59-12a8,8,0,1,0-8.32,7.59A7.93,7.93,0,0,0,34.1,30.8ZM57.16,58.11h2.73c1.32-3.42,3-4.89,5.72-4.83a5.58,5.58,0,0,1,3.22,1.08,5.82,5.82,0,0,1,2.32,3.77h2.22a.76.76,0,0,0,.06-.21q0-4.74,0-9.48a1.58,1.58,0,0,0-.29-.73c-.87-1.36-1.77-2.69-2.64-4.05a5.85,5.85,0,0,0-5.26-2.83H57.16ZM55,55.18H39.31a21.79,21.79,0,0,1,1,2.38c.15.46.28.62.78.61,4.42,0,8.83,0,13.25,0l.62,0ZM69.1,59a3.53,3.53,0,0,0-3.56-3.57,3.58,3.58,0,0,0-3.6,3.56,3.66,3.66,0,0,0,3.59,3.61A3.59,3.59,0,0,0,69.1,59ZM35,55.38a3.56,3.56,0,0,0-3.63,3.53,3.58,3.58,0,1,0,7.15,0A3.54,3.54,0,0,0,35,55.38Zm-4.49-.24c-2,0-4.09,0-6.18,0a2.89,2.89,0,0,0-2.81,3H29a.49.49,0,0,0,.36-.25C29.74,57,30.1,56.08,30.47,55.14Z"/><path class="cls-1" d="M36.57,58.93a1.62,1.62,0,0,0-1.68-1.65A1.65,1.65,0,0,0,33.24,59a1.7,1.7,0,0,0,1.69,1.67A1.67,1.67,0,0,0,36.57,58.93Z"/><path d="M27.51,28.26A5,5,0,0,1,26,32.88c-.35.38-.61.85-.93,1.26a1,1,0,0,1-1.48.27,1,1,0,0,1-.17-1.5c.56-.81,1.17-1.58,1.72-2.39a1.89,1.89,0,0,0,.3-.92c0-1.15,0-2.3,0-3.45,0-.76.36-1.16,1-1.17s1,.41,1,1.21Z"/><path d="M62.19,46.45c0-1.11,0-2.22,0-3.33,0-.91.39-1.3,1.31-1.28a19.08,19.08,0,0,1,2.62.12,4.21,4.21,0,0,1,3.06,2.09c.85,1.41,1.66,2.85,2.46,4.3A1.73,1.73,0,0,1,70.17,51c-2.3.07-4.61,0-6.91,0-.72,0-1.06-.43-1.07-1.19C62.18,48.71,62.19,47.58,62.19,46.45Zm2.14,2.49H69.6c-.7-1.22-1.35-2.38-2-3.53A2.77,2.77,0,0,0,64.33,44Z"/><path d="M67.2,59a1.69,1.69,0,0,1-1.66,1.69A1.75,1.75,0,0,1,63.84,59a1.7,1.7,0,0,1,1.72-1.69A1.64,1.64,0,0,1,67.2,59Z"/><path d="M36.57,58.93a1.67,1.67,0,0,1-1.64,1.71A1.7,1.7,0,0,1,33.24,59a1.65,1.65,0,0,1,1.65-1.69A1.62,1.62,0,0,1,36.57,58.93Z"/></svg>