<svg id="Layer_1" data-name="Layer 1" xmlns="http://www.w3.org/2000/svg" viewBox="0 0 85.04 85.04"><path d="M75.51,33.5A5.22,5.22,0,0,1,72,36.89c-3,1.19-5.89,2.51-8.84,3.75a.81.81,0,0,0-.58.89c0,2.06,0,4.12,0,6.18A8.6,8.6,0,0,1,58.94,55a21.7,21.7,0,0,1-9.89,4.1A32.79,32.79,0,0,1,32.29,58,16.19,16.19,0,0,1,25,53.34a7.75,7.75,0,0,1-1.93-5.19c0-2.22,0-4.43,0-6.64a.76.76,0,0,0-.54-.85c-1.39-.56-2.77-1.18-4.15-1.77-.17-.07-.35-.12-.62-.21v.76c0,4.19,0,8.38,0,12.57a.9.9,0,0,0,.53.94,3,3,0,0,1,1.1,4.24l-.3.45c1.21,1.2,1,2.79,1.14,4.26.21,1.73.33,3.47.49,5.2,0,.32,0,.64,0,1a1.94,1.94,0,0,1-2,2q-2,0-4,0a2,2,0,0,1-2-2.21c.15-2,.36-4,.54-6,.06-.57.15-1.14.17-1.71a3.72,3.72,0,0,1,.88-2.43A11,11,0,0,1,13.78,56a2.84,2.84,0,0,1,1.59-3.06.71.71,0,0,0,.45-.72q0-6.95,0-13.9a.64.64,0,0,0-.47-.7c-.83-.32-1.65-.68-2.46-1a4.14,4.14,0,0,1,0-7.75l19.93-8.54L39,17.6a9.26,9.26,0,0,1,7.54-.09q13.23,5.64,26.43,11.31a4.51,4.51,0,0,1,2.58,3ZM19.84,37.31c.32.16.48.24.65.31l19.22,8.25a7.77,7.77,0,0,0,6.42,0c5.31-2.3,10.63-4.56,15.95-6.84l9.82-4.21a2.19,2.19,0,0,0,0-4.23Q59,25,46.17,19.5a8,8,0,0,0-6.65,0c-3.81,1.67-7.63,3.29-11.45,4.92L13.81,30.54a2.19,2.19,0,0,0,0,4.24c.67.27,1.31.6,2,.83a2.68,2.68,0,0,0,1.28.15Q27,34.08,36.84,32.34c.52-.09,1-.16,1.22-.78a2.37,2.37,0,0,1,1-1,7.6,7.6,0,0,1,7.49-.05A2.38,2.38,0,0,1,48,32.3a2.52,2.52,0,0,1-1.59,2.64,7.88,7.88,0,0,1-5.08.63,5.17,5.17,0,0,1-2.86-1.29,1,1,0,0,0-.7-.08q-7.18,1.23-14.35,2.49Zm40.85,4.44-.92.38q-6.5,2.77-13,5.55a9.51,9.51,0,0,1-7.9,0c-2.74-1.19-5.49-2.36-8.24-3.53l-5.61-2.4a23.94,23.94,0,0,0,.2,3.57c.45,2.25,2.07,3.65,3.91,4.8a24.44,24.44,0,0,0,12.3,3.38c1.76.07,3.52-.11,5.28-.2.7,0,1.2.31,1.24.9s-.34,1-1,1.1l-1.46.13a32.45,32.45,0,0,1-7.69-.26,24.13,24.13,0,0,1-9.11-3c-1.2-.72-2.29-1.63-3.43-2.45.06.18.13.42.23.65a8.84,8.84,0,0,0,3.82,4.06,23,23,0,0,0,9,3,30.64,30.64,0,0,0,14.26-1.2,14.93,14.93,0,0,0,6.33-3.78,6.12,6.12,0,0,0,1.64-3,15.78,15.78,0,0,1-4.29,3.22c-.81.42-1.38.37-1.69-.16s-.09-1.12.76-1.6c.63-.36,1.26-.71,1.85-1.13a7.19,7.19,0,0,0,3.28-4.22A25.83,25.83,0,0,0,60.69,41.75ZM18.78,68.12c0-.14,0-.24,0-.34-.15-1.73-.29-3.47-.44-5.2-.09-1-.17-1.94-.33-2.9a1.18,1.18,0,0,0-1.28-1,1.25,1.25,0,0,0-1.18,1.05,7.72,7.72,0,0,0-.12.82c-.12,1.29-.24,2.58-.35,3.86s-.21,2.44-.31,3.7ZM39.7,32.65c.94,1.49,5.5,1.43,6.31,0C44.82,31.2,40.83,31.21,39.7,32.65Zm-21.84,23a1,1,0,0,0-1-1.08,1.1,1.1,0,0,0-1.15,1,1.14,1.14,0,0,0,1.1,1.1A1.09,1.09,0,0,0,17.86,55.61Z"/><path d="M53.2,53.15a.9.9,0,0,1-.68,1,21.07,21.07,0,0,1-2.07.56A.94.94,0,0,1,49.22,54,1,1,0,0,1,50,52.78a19.71,19.71,0,0,1,2.14-.54A.9.9,0,0,1,53.2,53.15Z"/></svg>