<svg id="Layer_1" data-name="Layer 1" xmlns="http://www.w3.org/2000/svg" viewBox="0 0 85.04 85.04"><path d="M34.38,68.42c.22-1.31.47-2.76.72-4.21.14-.81.32-1.62.41-2.43a1.09,1.09,0,0,0-.32-.76c-1.47-1.47-3-2.92-4.47-4.37-.38-.37-.76-.75-.59-1.34s.66-.78,1.25-.85c2-.27,4-.6,6-.87a1.29,1.29,0,0,0,1.16-.82c.86-1.84,1.79-3.66,2.68-5.48.23-.47.49-.87,1.1-.88s.91.39,1.15.88c.89,1.81,1.81,3.6,2.65,5.42a1.41,1.41,0,0,0,1.27.89c2,.26,4,.59,6,.87a1.17,1.17,0,0,1,1.11.84c.16.53-.14.9-.5,1.25-1.52,1.48-3,3-4.57,4.44a.87.87,0,0,0-.3.91c.39,2.11.74,4.22,1.1,6.33a1.18,1.18,0,0,1-.39,1.29,1.22,1.22,0,0,1-1.4,0c-1.86-1-3.73-1.94-5.57-2.94a1,1,0,0,0-1.13,0c-1.87,1-3.75,2-5.63,3C35.17,70,34.35,69.58,34.38,68.42Zm-.64-12.1c.91,1,1.8,1.94,2.73,2.87,1.68,1.68,1.48,1.16,1.09,3.55-.2,1.27-.42,2.54-.66,3.93,1.51-.79,2.91-1.47,4.25-2.25a2.1,2.1,0,0,1,2.35,0c1.35.77,2.75,1.46,4.16,2.2a3.54,3.54,0,0,0,0-.58c-.23-1.37-.43-2.74-.73-4.09a2.1,2.1,0,0,1,.7-2.24c1.15-1.09,2.17-2.29,3.21-3.4-1.56-.24-3.28-.51-5-.75a1.39,1.39,0,0,1-1.17-.88c-.67-1.39-1.36-2.76-2-4.14-.08-.16-.18-.31-.31-.54-.8,1.62-1.57,3.15-2.31,4.69a1.42,1.42,0,0,1-1.18.88C37.09,55.8,35.39,56.07,33.74,56.32Z"/><path d="M42.64,29.5c1.87.17,4,.2,6.17.6,4,.74,6.32,3.36,7.28,7.18a44.65,44.65,0,0,1,.68,5.08c.32,2.6.64,5.2,1,7.8.1.78-.23,1.39-.88,1.47s-1.16-.31-1.26-1.15c-.48-3.95-1-7.91-1.42-11.87a7.09,7.09,0,0,0-6.72-6.51c-2.5-.16-5-.25-7.53-.24a21.61,21.61,0,0,0-4.32.44,7.09,7.09,0,0,0-5.4,6.21c-.32,2.49-.52,5-.79,7.5-.17,1.55-.35,3.1-.56,4.64a1.08,1.08,0,0,1-1.2,1,1.05,1.05,0,0,1-1-1.23c.15-1.55.37-3.1.53-4.65q.39-3.65.76-7.31a9.25,9.25,0,0,1,8.82-8.58C38.66,29.76,40.5,29.65,42.64,29.5Z"/><path d="M15.11,68.37c.23-1.32.46-2.79.74-4.25a1.31,1.31,0,0,0-.41-1.38c-1-.94-2-2-3-2.94a1.14,1.14,0,0,1-.47-1.25,1.18,1.18,0,0,1,1.13-.82c1.48-.18,3-.4,4.42-.65a1.24,1.24,0,0,0,.76-.56c.7-1.32,1.35-2.66,2-4a1.19,1.19,0,0,1,1.12-.84,1.22,1.22,0,0,1,1.06.83c.64,1.33,1.32,2.64,1.94,4a1,1,0,0,0,.88.64c1.5.19,3,.39,4.49.67a1.68,1.68,0,0,1,1,.71,1,1,0,0,1-.32,1.23c-1.1,1.05-2.18,2.12-3.28,3.17a.89.89,0,0,0-.32.94c.3,1.49.52,3,.79,4.48.08.49,0,1-.42,1.19a1.67,1.67,0,0,1-1.26,0c-1.37-.64-2.7-1.37-4-2.1a.94.94,0,0,0-1,0c-1.35.74-2.71,1.45-4.08,2.15C15.86,70,15.07,69.52,15.11,68.37Zm9.94-1.7c-.18-1.06-.32-2-.51-2.92a1.89,1.89,0,0,1,.62-2c.74-.65,1.37-1.41,2.06-2.14a19.2,19.2,0,0,0-2.12-.27,2.65,2.65,0,0,1-2.75-2,16.43,16.43,0,0,0-1-2.07c-.49,1-.95,1.81-1.32,2.69a1.86,1.86,0,0,1-1.77,1.25c-.94.08-1.87.27-2.79.4.77.8,1.5,1.59,2.27,2.35a1.5,1.5,0,0,1,.45,1.52c-.2,1-.35,2.06-.54,3.21,1-.53,1.91-1,2.76-1.46a1.7,1.7,0,0,1,1.94,0C23.17,65.73,24.07,66.16,25.05,66.67Z"/><path d="M72.78,59a3.27,3.27,0,0,1-.47.7c-1,1-2,2.07-3.12,3a1.26,1.26,0,0,0-.39,1.32c.26,1.36.5,2.73.72,4.09a1.16,1.16,0,0,1-1.84,1.3c-.13-.08-.27-.14-.4-.21-1.15-.61-2.31-1.2-3.44-1.83a.92.92,0,0,0-1,0c-1.27.7-2.57,1.34-3.85,2a1.27,1.27,0,0,1-1.45.07,1.25,1.25,0,0,1-.39-1.4c.29-1.49.54-3,.76-4.48a1,1,0,0,0-.28-.71q-1.56-1.56-3.16-3.09a1.26,1.26,0,0,1-.51-1.37c.17-.55.61-.7,1.15-.77,1.46-.19,2.91-.43,4.37-.63a1,1,0,0,0,.82-.61c.6-1.27,1.25-2.52,1.85-3.79.26-.53.54-1,1.21-1s.91.48,1.15,1c.62,1.28,1.28,2.55,1.89,3.84a.91.91,0,0,0,.83.59l4.56.66A1.16,1.16,0,0,1,72.78,59Zm-3.55.55c-1-.14-2-.3-3-.41a1.64,1.64,0,0,1-1.44-1c-.42-1-.91-1.86-1.42-2.9-.47,1-1,1.81-1.32,2.7a1.86,1.86,0,0,1-1.77,1.25c-.94.08-1.87.27-2.75.39.64.68,1.22,1.42,1.91,2a2.05,2.05,0,0,1,.71,2.25c-.22.89-.32,1.8-.48,2.81,1-.54,2-1,2.87-1.5a1.58,1.58,0,0,1,1.71,0c.89.5,1.82,1,2.84,1.49-.2-1.16-.36-2.2-.57-3.24A1.48,1.48,0,0,1,66.92,62C67.7,61.2,68.43,60.41,69.23,59.58Z"/><path d="M42.21,13.94a7.19,7.19,0,0,1,7.21,5.35c1,4-1.84,8.9-5.74,10A5.62,5.62,0,0,1,39,28.5a8.72,8.72,0,0,1-4.17-7.32,6.79,6.79,0,0,1,5.74-7C41.09,14,41.65,14,42.21,13.94Zm0,2.22A4.94,4.94,0,0,0,37,20.25a7,7,0,0,0,3.2,6.46,3.59,3.59,0,0,0,2.62.49A6.47,6.47,0,0,0,47.35,20,4.9,4.9,0,0,0,42.22,16.16Z"/><path d="M51.7,50.26v.23a1.1,1.1,0,1,1-2.19.09c-.19-2.57-.36-5.14-.53-7.71-.07-.91-.12-1.81-.19-2.72s.32-1.36,1-1.4,1.1.37,1.16,1.18c.22,2.94.42,5.88.63,8.81C51.61,49.24,51.65,49.74,51.7,50.26Z"/><path d="M35.57,40.32c-.21,2.94-.42,5.81-.62,8.69,0,.54,0,1.08-.12,1.62a1.07,1.07,0,0,1-1.19,1,1,1,0,0,1-1-1.23c.14-2.3.3-4.59.45-6.88.07-1,.14-2.07.22-3.11a4.17,4.17,0,0,1,.08-.71,1.07,1.07,0,1,1,2.13.21Z"/></svg>