<svg id="Layer_1" data-name="Layer 1" xmlns="http://www.w3.org/2000/svg" viewBox="0 0 85.04 85.04"><path d="M60.94,77.2c-.42-.11-.84-.2-1.26-.32a10,10,0,0,1-4.48-2.54,1.42,1.42,0,0,0-1.1-.43q-18.54,0-37.07,0a3.77,3.77,0,0,1-1.53-.27,2.43,2.43,0,0,1-1.32-2.46q0-10.28,0-20.54c0-1,.33-1.45,1.05-1.44s1,.46,1,1.42V70.82c0,1.1,0,1.1,1.06,1.1H53.19c-.31-1-.6-1.88-.92-2.78a.7.7,0,0,0-.42-.29,1.87,1.87,0,0,0-.53,0H22.19c-1.55,0-2.51-.64-2.8-1.89a4,4,0,0,1-.07-1V16.68c-.93,0-1.83,0-2.72,0-.12,0-.29.23-.34.39a2.34,2.34,0,0,0,0,.65V45a4.06,4.06,0,0,1-.06.85.9.9,0,0,1-.94.77.92.92,0,0,1-1-.78,2.81,2.81,0,0,1-.05-.65V17.41a2.46,2.46,0,0,1,2.71-2.77h2.42c0-.91,0-1.74,0-2.57a2.37,2.37,0,0,1,2.52-2.52H62.61a2.41,2.41,0,0,1,2.64,2.61c0,1.56,0,3.12,0,4.69V31.38c0,.88-.37,1.34-1,1.34s-1-.48-1-1.34V18.76c0-2.16,0-4.31,0-6.47,0-.58-.2-.77-.77-.77q-20.18,0-40.37,0c-.71,0-.77.37-.77.92q0,7.7,0,15.39V65.68c0,1.11,0,1.11,1.07,1.11H52a10.2,10.2,0,0,1,3.42-7.42,10.34,10.34,0,0,1,7.75-2.62V36.81a3,3,0,0,1,.1-.85.87.87,0,0,1,1-.64.89.89,0,0,1,.91.71,4,4,0,0,1,.07.85q0,9.81,0,19.61a.82.82,0,0,0,.65.93A10.22,10.22,0,0,1,64,77.07a2.32,2.32,0,0,0-.37.13Zm1.38-18.43a8.23,8.23,0,1,0,8.17,8.33A8.24,8.24,0,0,0,62.32,58.77Z"/><path d="M42.24,16.15H57.5a4.3,4.3,0,0,1,.72,0,.91.91,0,0,1,.85.93.94.94,0,0,1-.83,1,1.74,1.74,0,0,1-.46,0h-31a2.24,2.24,0,0,1-.52,0,.93.93,0,0,1-.78-1,.89.89,0,0,1,.82-.95,4.45,4.45,0,0,1,.73,0Z"/><path d="M42.3,20.79h9.57a1.32,1.32,0,0,1,.81.15c.25.25.55.67.5,1s-.46.62-.77.84-.47.06-.71.06H32.89a4.86,4.86,0,0,1-.66,0,.91.91,0,0,1-.88-1,1,1,0,0,1,.85-1,2.91,2.91,0,0,1,.59,0Z"/><path d="M48.31,47.63h-9a5.93,5.93,0,0,1-.73,0,.92.92,0,0,1-.88-1,1,1,0,0,1,.81-1,2.33,2.33,0,0,1,.53,0H57.68c.79,0,1.2.27,1.29.84a1,1,0,0,1-1,1.15c-1,0-2.07,0-3.1,0Z"/><path d="M45.27,57.11h-6.4c-.58,0-1-.26-1.09-.83a1.62,1.62,0,0,1,.48-1c.15-.17.54-.15.82-.15,1.32,0,2.64,0,4,0h8.44c.77,0,1.22.41,1.22,1s-.49,1-1.23,1Z"/><path d="M44.53,38.2H38.86a1,1,0,1,1,0-2,4.51,4.51,0,0,1,.52,0H50.16c.85,0,1.27.34,1.28,1s-.43,1-1.3,1Z"/><path d="M52.11,28.71H46.5c-.77,0-1.23-.37-1.24-1s.46-1,1.21-1h11.3c.78,0,1.2.35,1.21,1s-.41,1-1.19,1Z"/><path d="M44.42,42.84c-1.87,0-3.74,0-5.61,0-.87,0-1.39-.82-.93-1.48a1.24,1.24,0,0,1,.87-.48c3.74,0,7.48,0,11.23,0a1,1,0,1,1,0,2Z"/><path d="M44.36,33.4H39.27a4.48,4.48,0,0,1-.73,0,.84.84,0,0,1-.79-.9,2,2,0,0,1,.63-1c.12-.12.42-.11.63-.11h10.7a1.91,1.91,0,0,1,.59.07,1,1,0,0,1-.13,1.92,4.87,4.87,0,0,1-.66,0Z"/><path d="M28.84,59.78l3.57-4.26.47-.55a1,1,0,0,1,1.36-.12.93.93,0,0,1,.16,1.4c-.69.88-1.42,1.73-2.14,2.59s-1.57,1.89-2.37,2.83c-.61.71-1.07.74-1.8.13S26.65,60.58,25.94,60a1,1,0,1,1,1.3-1.52C27.77,58.87,28.28,59.31,28.84,59.78Z"/><path d="M28.84,50.33c1.29-1.55,2.55-3,3.81-4.53a1.83,1.83,0,0,1,.64-.54.92.92,0,0,1,1.16.37,1,1,0,0,1-.11,1.27l-2.71,3.24c-.59.7-1.18,1.42-1.78,2.12a1,1,0,0,1-1.7.13l-2.21-1.88A1,1,0,0,1,25.73,49a1,1,0,0,1,1.51,0C27.76,49.41,28.25,49.84,28.84,50.33Z"/><path d="M28.84,40.87l3.65-4.36c.7-.84,1.22-1,1.76-.56s.5,1-.22,1.87l-4,4.81c-.71.84-1.15.88-2,.19S26.63,41.66,26,41.07a1,1,0,0,1-.24-1.51,1,1,0,0,1,1.52,0C27.75,39.94,28.26,40.39,28.84,40.87Z"/><path d="M28.84,31.41c1.3-1.55,2.54-3.06,3.83-4.54a1.68,1.68,0,0,1,1-.56,1,1,0,0,1,.81.6A1.47,1.47,0,0,1,34.27,28c-1.13,1.43-2.32,2.81-3.5,4.21-.34.4-.67.82-1,1.2a1,1,0,0,1-1.46.13c-.82-.66-1.63-1.35-2.42-2A1,1,0,1,1,27.16,30C27.71,30.45,28.24,30.91,28.84,31.41Z"/><path d="M43.1,61.75H38.94c-.76,0-1.23-.39-1.23-1s.48-1,1.23-1h8.45c.75,0,1.23.4,1.23,1s-.47,1-1.23,1Z"/><path d="M47.27,52.32H44.9c-.84,0-1.27-.35-1.28-1s.42-1,1.24-1H49.8c.76,0,1.21.4,1.22,1s-.45,1-1.25,1Z"/><path d="M56.52,38.2c-.44,0-.88,0-1.32,0a1,1,0,0,1-1.06-1,1,1,0,0,1,1-1c.94,0,1.89,0,2.83,0a.94.94,0,0,1,1,1,1,1,0,0,1-1,1H56.52Z"/><path d="M40.17,26.73c.48,0,1,0,1.45,0a1,1,0,0,1,0,2c-.94,0-1.89,0-2.83,0a1,1,0,1,1,0-2C39.25,26.72,39.71,26.73,40.17,26.73Z"/><path d="M39.88,52.31a11.81,11.81,0,0,1-1.19,0,1,1,0,0,1-1-1,.93.93,0,0,1,.92-1,17.38,17.38,0,0,1,2.5,0,.91.91,0,0,1,.92,1,.93.93,0,0,1-.94,1A10.41,10.41,0,0,1,39.88,52.31Z"/><path d="M61.26,67.74l2.59-3.21c.17-.21.33-.42.51-.61a1,1,0,0,1,1.37-.15,1,1,0,0,1,.16,1.41c-.83,1.08-1.7,2.13-2.55,3.2-.37.46-.74.93-1.12,1.38a1,1,0,0,1-1.56.14c-.64-.54-1.27-1.09-1.88-1.66a1,1,0,0,1-.12-1.47,1,1,0,0,1,1.42,0c.21.16.41.34.61.51S61,67.56,61.26,67.74Z"/></svg>