<svg id="Layer_1" data-name="Layer 1" xmlns="http://www.w3.org/2000/svg" viewBox="0 0 85.04 85.04"><path d="M68,24.48a3.71,3.71,0,0,0-2.92-3.72,5.53,5.53,0,0,0-1.28-.1l-.69,0a3.91,3.91,0,0,0-3.07,1,4.34,4.34,0,0,0-1.26,3.24c.05,1.93,0,3.89,0,5.78,0,.84,0,1.68,0,2.51V50a3.83,3.83,0,0,0,3.09,4,5.59,5.59,0,0,0,1.15.1h1a3.79,3.79,0,0,0,4-4c0-3,0-6,0-9.08V33.71C68,30.63,68,27.56,68,24.48Zm-2.15,1.05V49.74c0,1.62-.6,2.22-2.21,2.23H63c-1.4,0-2-.61-2-2,0-3,0-6,0-9V33.25c0-2.76,0-5.53,0-8.29,0-1.6.53-2.14,2.1-2.14h0a3.27,3.27,0,0,1,2.22.47A3.3,3.3,0,0,1,65.83,25.53Z"/><path d="M66.94,61.09H40.54c-.46,0-.67-.07-.85-.56a4.48,4.48,0,0,0-5.27-2.84,4.55,4.55,0,0,0-3.49,3.39H18.21a1.63,1.63,0,0,0-.72.09,1,1,0,0,0-.62,1.19c.12.59.52.87,1.22.87H30.42c.39,0,.55.07.69.46a4.58,4.58,0,0,0,4.24,3.08h0a4.54,4.54,0,0,0,4.31-3c.15-.45.33-.52.8-.52h26.4a1.07,1.07,0,0,0,0-2.14Zm-29.85,2.8a2.3,2.3,0,0,1-1.64.69h0a2.42,2.42,0,0,1,0-4.84h0a2.34,2.34,0,0,1,1.65.68,2.4,2.4,0,0,1,.73,1.73A2.37,2.37,0,0,1,37.09,63.89Z"/><path d="M44.86,50.77A3.62,3.62,0,0,0,47.55,54a5.42,5.42,0,0,0,1.33.14c.26,0,.52,0,.77,0l.44,0a3.89,3.89,0,0,0,2.65-1A4.25,4.25,0,0,0,54,49.76c-.08-2-.06-4.1,0-6.09,0-.89,0-1.78,0-2.67l0-.13c0-.88,0-1.76,0-2.63,0-2.2,0-4.46,0-6.69A3.53,3.53,0,0,0,51.16,28a9.63,9.63,0,0,0-3.34,0c-1.89.33-3,1.85-3,4.06V49.94A5.9,5.9,0,0,0,44.86,50.77ZM47,38.21V32A1.7,1.7,0,0,1,48.89,30h.68c.2,0,.4,0,.6,0a1.65,1.65,0,0,1,1.65,1.74V50.22a1.6,1.6,0,0,1-1.46,1.7,7.8,7.8,0,0,1-1.87,0A1.59,1.59,0,0,1,47,50.18q0-3.32,0-6.63V38.21Z"/><path d="M30.85,44.28c0,.59,0,1.18,0,1.76,0,1.46,0,3,0,4.44A3.54,3.54,0,0,0,33.62,54a10.77,10.77,0,0,0,1.88.17A8.54,8.54,0,0,0,37,54c1.87-.33,3-1.83,3-4,0-3.09,0-6.23,0-9.27V38.3c0-.27,0-.54-.05-.76a3.68,3.68,0,0,0-2.86-3.26,8.2,8.2,0,0,0-1.86-.13h-.35a3.79,3.79,0,0,0-4.07,4.09c0,1.37,0,2.73,0,4.1v1.82Zm5.55-7.93A1.57,1.57,0,0,1,37.81,38c0,1.44,0,2.88,0,4.32v3.13c0,1.55,0,3.1,0,4.65A1.67,1.67,0,0,1,36,52a10,10,0,0,1-1.34,0A1.63,1.63,0,0,1,33,50.29c0-3.82,0-7.85,0-12.31a1.55,1.55,0,0,1,1.38-1.62,8.94,8.94,0,0,1,1-.06C35.76,36.3,36.08,36.32,36.4,36.35Z"/><path d="M19.64,54a8.47,8.47,0,0,0,1.89.15h.65a3.55,3.55,0,0,0,3.74-3.18,45.27,45.27,0,0,0,0-6.59A3.56,3.56,0,0,0,22.58,41a9.09,9.09,0,0,0-2.33,0A3.75,3.75,0,0,0,16.85,45q0,1.29,0,2.58h0v.89c0,.63,0,1.27,0,1.9A3.67,3.67,0,0,0,19.64,54Zm4.18-6.27v.7c0,.62,0,1.27,0,1.89a1.55,1.55,0,0,1-1.44,1.64,7.71,7.71,0,0,1-1.86,0A1.65,1.65,0,0,1,19,50.24c0-1.91,0-3.66,0-5.36a1.62,1.62,0,0,1,1.76-1.67h.73l.76,0a1.51,1.51,0,0,1,1.54,1.5c0,.66,0,1.33,0,2,0,.29,0,.58,0,.87v.12Z"/></svg>