<svg id="Layer_1" data-name="Layer 1" xmlns="http://www.w3.org/2000/svg" viewBox="0 0 85.04 85.04"><path d="M57.76,39c1,0,2,0,2.93,0h.53a1.56,1.56,0,0,0,1.17-.39,1.51,1.51,0,0,0,.36-1.14A22.06,22.06,0,0,0,61,28.88,23.7,23.7,0,0,0,43.41,14.47c-.62-.13-1.26-.23-1.88-.32L40.66,14H37l-.08,0a.94.94,0,0,1-.31.07,23.73,23.73,0,0,0-7.78,2.07A23.93,23.93,0,0,0,38.61,61.9h0A1.24,1.24,0,0,0,40,60.52c0-1.38,0-2.58,0-3.68a2,2,0,0,0-.19-.8,1.19,1.19,0,0,0-1.34-.58,1.24,1.24,0,0,0-.92,1.19c0,.57,0,1.13,0,1.7v1h-.26C26.93,59,17.81,49.77,17.4,39.24V39H20a1.2,1.2,0,0,0,1.13-.81A1.21,1.21,0,0,0,21,37.09a1.19,1.19,0,0,0-1-.51c-.53,0-1.06,0-1.59,0h-1v-.26C18,25.87,27.1,16.84,37.33,16.6h.25v2.2a1.24,1.24,0,0,0,.56,1.12,1.17,1.17,0,0,0,1.19.1,1.38,1.38,0,0,0,.71-1.2c0-.45,0-.91,0-1.36,0-.2,0-.41,0-.61v-.26h.26A20.75,20.75,0,0,1,54,22.75,21.64,21.64,0,0,1,60.26,36.3l0,.27H57.72a1.2,1.2,0,0,0-1.27,1.2A1.21,1.21,0,0,0,57.76,39Z"/><path d="M62.85,46.27a12.37,12.37,0,0,0-7.48-1.21A12.91,12.91,0,0,0,44.2,57.8l.06.68a14.94,14.94,0,0,0,.15,1.5,12.85,12.85,0,0,0,6.72,9.26,12.62,12.62,0,0,0,11.25.33C67.21,67.34,69.78,63.44,70,58a1.29,1.29,0,0,0-.31-1,1.07,1.07,0,0,0-.8-.33c-.72,0-1.14.44-1.18,1.25a14.33,14.33,0,0,1-.12,1.47,10.58,10.58,0,0,1-20.78.76,10.61,10.61,0,0,1,14.8-11.94,2.27,2.27,0,0,0,1.09.19,1.07,1.07,0,0,0,.83-.95A1.13,1.13,0,0,0,62.85,46.27Z"/><path d="M56.47,60.12h0c-.27,0-.51-.18-.81-.49l-1-1C53.78,57.75,52.9,56.87,52,56a2.9,2.9,0,0,0-.65-.41l-.27-.15a1.35,1.35,0,0,0-1.05.74,1.18,1.18,0,0,0,.37,1.47l4.11,4.12,1.37,1.37c.57.56.57.56,1.14,0l13.79-13.8a2.21,2.21,0,0,0,.36-.4,1.08,1.08,0,0,0,.08-1.17,1.05,1.05,0,0,0-1-.62,1.45,1.45,0,0,0-1.11.59L57.28,59.63C57,59.94,56.75,60.12,56.47,60.12Z"/><path d="M34.28,39.17,27.72,43A1.23,1.23,0,0,0,27,44.12a1.16,1.16,0,0,0,.71,1.06A1.37,1.37,0,0,0,29.05,45q5.08-2.94,10.18-5.87a1.47,1.47,0,0,0,.82-1.42c0-.93,0-1.87,0-2.8V32.54c0-.93,0-1.86,0-2.8a1.28,1.28,0,0,0-1-1.42h-.2a1.22,1.22,0,0,0-.8.28,1.36,1.36,0,0,0-.43,1.06c0,2.33,0,4.65,0,7a1,1,0,0,1-.55,1C36.11,38.1,35.19,38.64,34.28,39.17Z"/></svg>