<svg id="Layer_1" data-name="Layer 1" xmlns="http://www.w3.org/2000/svg" viewBox="0 0 85.04 85.04"><path d="M42.1,72.58h0a29.24,29.24,0,0,1,0-58.48h0a29.24,29.24,0,1,1,0,58.48Zm0-56.38a27.14,27.14,0,0,0,0,54.28h0a27.14,27.14,0,1,0,0-54.28Zm.08,44H26.67a4.19,4.19,0,0,1-4.33-4.3c0-4.94,0-9.88,0-14.82a4.24,4.24,0,0,1,1.42-3.24,4.47,4.47,0,0,1,3.64-1l.9.13V52.54c0,.87.1.9.87.9h26c.79,0,.88,0,.88-.89V37l.89-.14a4.42,4.42,0,0,1,3.63.95A4.19,4.19,0,0,1,62,41.05c0,4.94,0,9.87,0,14.81a4.19,4.19,0,0,1-4.33,4.31Zm-16-21.24a2.06,2.06,0,0,0-1.06.47,2.15,2.15,0,0,0-.7,1.66c0,4.93,0,9.87,0,14.8a2.09,2.09,0,0,0,2.24,2.21h31a2.09,2.09,0,0,0,2.23-2.21c0-4.94,0-9.87,0-14.81a2,2,0,0,0-1.75-2.13V52.55c0,2-1,3-3,3h-26c-2,0-3-1-3-3ZM37.36,51.07h-3.8a2.74,2.74,0,0,1-2.34-1.16A2.56,2.56,0,0,1,31,47.49a2.52,2.52,0,0,1,2.5-1.61H51.25A2.84,2.84,0,0,1,53.66,47a2.62,2.62,0,0,1-2.41,4H37.36ZM35.3,48H33.51c-.44,0-.5.14-.55.28a.52.52,0,0,0,0,.47.75.75,0,0,0,.61.23H51.25c.56,0,.62-.16.67-.29a.47.47,0,0,0,0-.46.81.81,0,0,0-.67-.24h-16Zm2-3.19H33.56a2.8,2.8,0,0,1-2.37-1.22,2.61,2.61,0,0,1,2.38-4H51.26a2.8,2.8,0,0,1,2.4,1.18,2.51,2.51,0,0,1,.21,2.4,2.55,2.55,0,0,1-2.62,1.61h-14Zm-3.7-3.09c-.49,0-.55.14-.61.27a.5.5,0,0,0,0,.46.71.71,0,0,0,.61.26H51.25c.56,0,.61-.14.67-.29a.45.45,0,0,0,0-.45.77.77,0,0,0-.66-.25H33.57Zm.11-3.45a2.7,2.7,0,0,1-2.34-1,2.52,2.52,0,0,1-.27-2.7,2.5,2.5,0,0,1,2.39-1.47H51.35a2.75,2.75,0,0,1,2.28,1.12,2.57,2.57,0,0,1,.27,2.4,2.46,2.46,0,0,1-2,1.62,3.55,3.55,0,0,1-.69.05H33.68Zm1.91-3.09H33.48c-.39,0-.46.14-.51.26A.47.47,0,0,0,33,36c0,.07.12.17.69.17H51.15a2.05,2.05,0,0,0,.38,0c.29-.06.35-.15.4-.28a.54.54,0,0,0,0-.48.67.67,0,0,0-.57-.22H35.59ZM49.47,32H33.62a2.82,2.82,0,0,1-2.4-1.17A2.53,2.53,0,0,1,31,28.37a2.56,2.56,0,0,1,2.62-1.61h17.7a2.74,2.74,0,0,1,2.33,1.16,2.53,2.53,0,0,1,.21,2.41A2.48,2.48,0,0,1,51.38,32Zm-2.39-2.1h4.29c.44,0,.5-.14.55-.28a.49.49,0,0,0,0-.47.74.74,0,0,0-.6-.23H33.63c-.55,0-.61.14-.67.3a.46.46,0,0,0,0,.44.78.78,0,0,0,.67.25H47.08Z"/></svg>