<svg id="Layer_1" data-name="Layer 1" xmlns="http://www.w3.org/2000/svg" viewBox="0 0 85.04 85.04"><path d="M66.19,29.54q-9.34-4.48-18.66-9c-1-.46-1.91-.94-2.86-1.41l-1.31-.65-.81,0-.21.13-.25.15-1,.49Q30.4,24.39,19.71,29.53A1.47,1.47,0,0,0,18.76,31c0,8.45,0,17.09,0,26.39a1.44,1.44,0,0,0,.91,1.46q11.26,5.41,22.51,10.86a1.64,1.64,0,0,0,.75.19,1.75,1.75,0,0,0,.77-.19Q55,64.29,66.2,58.87a1.42,1.42,0,0,0,.9-1.42q0-13.23,0-26.44A1.45,1.45,0,0,0,66.19,29.54ZM44.28,42.33c1.08-.5,2.15-1,3.23-1.54l1.29-.63a1.06,1.06,0,0,0,.73-1.25,1,1,0,0,0-1-.82,1.32,1.32,0,0,0-.6.14l-1,.47c-1,.48-2.1,1-3.11,1.54a1.51,1.51,0,0,1-1.78,0,4.19,4.19,0,0,0-.79-.4l-.19-.08a1.06,1.06,0,0,0-1.49.49,1,1,0,0,0,.57,1.41l.06,0c.45.23.91.47,1.39.66.22.09.27.16.27.42,0,2,0,4.07,0,6.1V67.21l-.9-.42-4.41-2.13L21.09,57.2c-.2-.1-.24-.15-.24-.35q0-10.24,0-20.5v-4l.09,0,15.63,7.54.1,0a2.75,2.75,0,0,0,.3.14,1,1,0,0,0,1.33-.56,1,1,0,0,0-.48-1.35c-.5-.27-1-.51-1.52-.76l-14-6.78L27,28.35c.56-.28,1.12-.55,1.69-.8a.61.61,0,0,1,.42,0L41,33.26,50.77,38a.39.39,0,0,1,.28.44c0,2.73,0,5.47,0,8.2a1.26,1.26,0,0,0,.47,1.13,1.06,1.06,0,0,0,1,.11l.26-.12L54.18,47l3.71-1.78a1.34,1.34,0,0,0,.85-1.35c0-1.93,0-3.86,0-5.79V35.58c0-.22,0-.22.1-.27,1.57-.74,3.14-1.5,4.7-2.25l1.47-.7v3.49q0,10.47,0,21c0,.24,0,.3-.24.4l-17,8.2L44,67.21h0V60.75q0-9,0-18C44,42.52,44,42.44,44.28,42.33Zm12.35.9c0,.23,0,.3-.25.4-.84.39-1.68.8-2.54,1.21l-.68.33v-2c0-1.62,0-3.25,0-4.87a.31.31,0,0,1,.23-.36c.86-.4,1.72-.81,2.6-1.24l.64-.31v2C56.62,40,56.62,41.63,56.63,43.23Zm-.91-8.76-.45.22c-1.07.52-2.1,1-3.13,1.49a.64.64,0,0,1-.33-.07L38.68,29.78l-7.26-3.5.41-.2c1.07-.52,2.11-1,3.16-1.52a.65.65,0,0,1,.33.08c3.27,1.56,6.53,3.14,9.79,4.71l10.57,5.11Zm6-2.91c-1.11.54-2.22,1.08-3.34,1.6a.66.66,0,0,1-.42.05l-18.58-9-1.93-.93.71-.35,4.57-2.2a.51.51,0,0,1,.32,0q10.11,4.86,20.21,9.75l.32.15Z"/><path d="M30.5,52.69l-.07-.11A1.26,1.26,0,0,0,30,52.1C28.07,51.16,26,50.16,23.49,49a1.1,1.1,0,0,0-.85-.07,1.06,1.06,0,0,0-.59.57,1,1,0,0,0,.62,1.43l2.76,1.34,1.93.93,1.6.77a1.37,1.37,0,0,0,.55.12,1.06,1.06,0,0,0,.58-.16,1.16,1.16,0,0,0,.48-1v-.1Z"/><path d="M27.32,54.63a1.28,1.28,0,0,0-.47-.49c-1.17-.6-2.34-1.15-3.43-1.66a1,1,0,0,0-1.35.48,1,1,0,0,0-.08.81,1,1,0,0,0,.51.57c1.27.65,2.43,1.2,3.52,1.7a.93.93,0,0,0,.4.09.88.88,0,0,0,.49-.15,1.24,1.24,0,0,0,.52-1.08v-.11l-.06-.08A.56.56,0,0,1,27.32,54.63Z"/></svg>