<svg id="Layer_1" data-name="Layer 1" xmlns="http://www.w3.org/2000/svg" viewBox="0 0 85.04 85.04"><path d="M61.72,72.06H14.22a1.66,1.66,0,0,1-.58-1.5q0-18,0-36c0-1.39.22-1.61,1.64-1.61h8.1V16.59c0-.4,0-.8,0-1.2a1.94,1.94,0,0,1,1.92-1.94H48.84a1.86,1.86,0,0,1,1.9,1.75c0,.82,0,1.64,0,2.46,0,.2,0,.4,0,.65h2.57a2,2,0,0,1,2.26,2.3c0,.85,0,1.7,0,2.58H58.2a2.07,2.07,0,0,1,2.36,2.34V33h1.65a2,2,0,0,1,2.25,2.28v7.51c1.83,0,3.58,0,5.33,0a2.25,2.25,0,0,1,2.46,1.5v.92l-.07.08q-4.43,12.43-8.86,24.88A2.87,2.87,0,0,1,61.72,72.06ZM70.28,44.7h-.72q-21.89,0-43.78,0a.82.82,0,0,0-.93.64q-3.5,9.9-7,19.78c-.59,1.64-1.17,3.29-1.78,5H60.66a.66.66,0,0,0,.75-.55c2.34-6.6,4.71-13.18,7.06-19.77C69.07,48.13,69.65,46.47,70.28,44.7Zm-29-2a8.86,8.86,0,0,1-.63-13,8.75,8.75,0,0,1,12-.42,8.44,8.44,0,0,1,3,5.9,8.76,8.76,0,0,1-3.17,7.54h6.07V25.22H35.2V42.73Zm-13,0V20.6a3,3,0,0,1,.08-.85c.27-1,1-1.44,2.31-1.44H48.76V15.43H25.44v27.3Zm4.86,0V25.6c0-1.67.75-2.41,2.41-2.41H53.66V20.33H30.28V42.72ZM22.89,45l-3.28.52a1.92,1.92,0,0,1-2.3-1.31c-.48-1.26-.93-2.54-1.39-3.8-.07-.2-.17-.39-.29-.66v25.3l.09,0Zm28.8-4.37a6.78,6.78,0,1,0-9.84-9.34c-2.44,2.55-2.37,7.17.18,9.35a4.47,4.47,0,0,1,2-3c-1.46-2.31-1.38-4.23.21-5.65a3.93,3.93,0,0,1,5-.2,3.8,3.8,0,0,1,1.44,2.33,3.94,3.94,0,0,1-1,3.5A4.37,4.37,0,0,1,51.69,40.63ZM23.35,42.89V35H16.06c1,2.8,2,5.55,3,8.29.05.12.24.28.35.26C20.73,43.34,22,43.11,23.35,42.89Zm23.49,0,2.51-.61a.53.53,0,0,0,.44-.61,2.61,2.61,0,0,0-2.37-2.74A2.75,2.75,0,0,0,44,41.65c0,.32.08.51.39.59Zm15.58-.14V35H60.59v7.72Zm-13.63-7.8A1.92,1.92,0,0,0,46.86,33a2,2,0,0,0-2,1.91,2,2,0,0,0,2,2A2,2,0,0,0,48.79,34.92Z"/><path d="M52.69,54.35a3.93,3.93,0,0,1-.38-7.45,3.9,3.9,0,0,1,2.87,7.26.66.66,0,0,0-.49.75,15.8,15.8,0,0,1-.07,1.94,2.79,2.79,0,0,1-2.69,2.49q-7,0-14.07,0a2.81,2.81,0,0,1-2.69-2.63c0-.64-.05-1.29,0-1.94a.51.51,0,0,0-.41-.57,3.93,3.93,0,0,1-2.52-4.06,4,4,0,0,1,3.31-3.47,3.94,3.94,0,0,1,4.35,2.82,3.88,3.88,0,0,1-2.29,4.68c-.35.13-.52.28-.48.68s0,.95,0,1.43A1,1,0,0,0,38.2,57.4c.22,0,.45,0,.68,0H51.24c1.16,0,1.45-.3,1.45-1.45ZM37.17,52.1a1.76,1.76,0,0,0,.81-2,2,2,0,0,0-1.89-1.45,2,2,0,0,0-1.84,1.45,1.75,1.75,0,0,0,.81,2c.23-1.18.48-1.54,1.06-1.53S37,50.94,37.17,52.1Zm17.58,0a1.81,1.81,0,0,0,.75-2.21,1.9,1.9,0,0,0-2-1.25,1.93,1.93,0,0,0-1.76,1.66,1.64,1.64,0,0,0,.89,1.75c.06-1,.38-1.51,1-1.5S54.61,51,54.75,52.11Z"/></svg>