<svg id="Layer_1" data-name="Layer 1" xmlns="http://www.w3.org/2000/svg" viewBox="0 0 85.04 85.04"><path d="M59,67.79c-.12,0-.23-.08-.37-.13l.22-.31A6.63,6.63,0,0,0,60.25,63a32.09,32.09,0,0,0-.41-3.36,39.05,39.05,0,0,0-.91-4.94,12.4,12.4,0,0,0-11.09-8.79l-2.27-.1c.21-.35.29-.67.5-.81a7.22,7.22,0,0,0,3.29-6.17c0-1.62,0-3.23,0-4.85a8.14,8.14,0,0,0-.11-1.39A7.19,7.19,0,0,0,35,33.8c0,1.71,0,3.43,0,5.14a7,7,0,0,0,3.22,6c.37.25.49.49.35.87-1,.08-2,.11-3,.23a12.47,12.47,0,0,0-10.4,9.79c-.38,2-.61,3.94-.92,5.9a7.28,7.28,0,0,0,1.46,5.87s0,.06,0,.1l-.43.13a5,5,0,0,0-3.69,4.27A4.83,4.83,0,0,0,23.75,77a10.67,10.67,0,0,0,2.13.91H47.47l.2-.19A1,1,0,0,0,48,76.56a.94.94,0,0,0-1-.65c-2,0-4,0-6,0H40.5V72.55l4.85-.84c3.6-.62,7.2-1.25,10.8-1.85a6.6,6.6,0,0,1,2-.16,3.07,3.07,0,0,1,2.72,3.21,3.17,3.17,0,0,1-3.15,3c-.45,0-.9,0-1.35,0-.72,0-1.11.23-1.25.75s.08.86.67,1.25h2.7a.58.58,0,0,1,.18-.08,5.15,5.15,0,0,0,.38-10ZM38.19,30.62A5.19,5.19,0,0,1,43.69,29a5.08,5.08,0,0,1,3.59,4.41c.06.69,0,1.39,0,2.12a3.28,3.28,0,0,1-2.43-.62.43.43,0,0,1-.19-.57,1,1,0,0,0-.6-1.21.93.93,0,0,0-1.23.46,3.3,3.3,0,0,1-3.48,2c-.77,0-1.53,0-2.34,0C36.91,33.73,37,32,38.19,30.62Zm-1.13,6.92h2.17a5.46,5.46,0,0,0,4.11-1.24c1.52,1,1.52,1,3.92,1.28a5.49,5.49,0,0,1-2,5.53,5.11,5.11,0,0,1-5.76.24C37.47,42.09,36.75,40.08,37.06,37.54ZM43,48.14a1.45,1.45,0,0,1-1.6,0c-.84-.49-.79-1.29-.73-2.09h3C43.73,46.84,43.78,47.62,43,48.14ZM30.65,75.84a43.33,43.33,0,0,1-4.56,0,3,3,0,0,1-2.53-3.6,3.09,3.09,0,0,1,3.55-2.52c1.9.3,3.79.63,5.69,1a2.59,2.59,0,0,1,.36.11C30.78,71.62,30.1,73,30.65,75.84Zm7.8.07H37.31c-1.09,0-2.17,0-3.25,0a1.63,1.63,0,0,1-1.68-1.61,1.61,1.61,0,0,1,1.69-1.59h4.38Zm12.11-7.26H33.92c-1.21,0-1.35-.13-1.35-1.33,0-3.53,0-7.06,0-10.59,0-.87.24-1.11,1.13-1.11H50.64c.9,0,1.13.24,1.13,1.16V67.47C51.77,68.45,51.57,68.65,50.56,68.65Zm3.23-.51c0-1,0-2,0-3a.83.83,0,0,1,.23-.5,7,7,0,0,1,.66-.53,1,1,0,0,0-.65-1.83h-.26v-.55c0-1.68,0-3.37,0-5a3,3,0,0,0-3.11-3.12q-8.52.08-17,0a3,3,0,0,0-3.13,3.16c.06,1.66,0,3.33,0,5v.57H30.1a1,1,0,0,0-.83.62.93.93,0,0,0,.17,1,1.13,1.13,0,0,0,.26.23A1.6,1.6,0,0,1,30.55,66c-.06.71,0,1.43,0,2.14a5,5,0,0,1-4.16-3.3,6.31,6.31,0,0,1-.12-3.34c.3-1.76.49-3.53.82-5.27A10.43,10.43,0,0,1,35.93,48a23.86,23.86,0,0,1,2.54-.1.54.54,0,0,1,.39.27,3.58,3.58,0,0,0,6.61,0,.51.51,0,0,1,.33-.28,10.66,10.66,0,0,1,11.66,9.36c.24,1.73.49,3.45.76,5.18A5.12,5.12,0,0,1,53.79,68.14Z"/><path d="M51.4,75.93a.94.94,0,0,0-.82.83,1.08,1.08,0,0,0,.68,1.15H52a2.21,2.21,0,0,0,.32-.29,1,1,0,0,0,.19-1.15A.93.93,0,0,0,51.4,75.93Z"/><path d="M43.18,61.14a17.35,17.35,0,0,0-2,0,1,1,0,0,0,0,2c.31,0,.63,0,1,0h0c.33,0,.66,0,1,0a1,1,0,0,0,.06-2Z"/><path d="M71.36,37.71A7,7,0,0,0,65.11,32a.87.87,0,0,1-.93-.67A23.16,23.16,0,0,0,47.69,16.8c-.32-.08-.48-.18-.55-.55a5,5,0,0,0-9.76,0,.57.57,0,0,1-.49.54A23.21,23.21,0,0,0,20.27,31.52a.63.63,0,0,1-.68.49,6.95,6.95,0,1,0,7.26,5.65A7.06,7.06,0,0,0,22,32.23a6,6,0,0,1,.19-.6A21.51,21.51,0,0,1,36.81,18.68c.51-.15.76-.07.91.46a1.62,1.62,0,0,0,.45.82c1,.77.88,1.83.86,2.87v.42A1.71,1.71,0,0,0,40.74,25c1,0,2,0,3,0a1.71,1.71,0,0,0,1.71-1.79c0-.48,0-1,0-1.43a1.64,1.64,0,0,1,.5-1.39,4.92,4.92,0,0,0,.87-1.4c.17-.41.34-.48.75-.36A21.42,21.42,0,0,1,61.8,30.38c.29.58.52,1.19.75,1.74l-.08.13-.44.19a6.76,6.76,0,0,0-4.45,6.3,6.94,6.94,0,1,0,13.78-1ZM25.14,38.94A5.12,5.12,0,1,1,20,33.8,5.14,5.14,0,0,1,25.14,38.94ZM43.67,23.16H40.86V22.07h2.81Zm-1.42-2.85a3.14,3.14,0,1,1,3.14-3.13A3.1,3.1,0,0,1,42.25,20.31ZM64.48,44.06a5.13,5.13,0,1,1,5.14-5.12A5.13,5.13,0,0,1,64.48,44.06Z"/><path d="M42.25,10.5a.8.8,0,0,0,.88-.72,9.18,9.18,0,0,0,0-1.89.76.76,0,0,0-.84-.68.82.82,0,0,0-.89.71,5.72,5.72,0,0,0-.07.9,6.71,6.71,0,0,0,.06.93A.85.85,0,0,0,42.25,10.5Z"/><path d="M39.54,11.2a1.12,1.12,0,0,0,.93.08c.26-.11.41-.47.54-.64,0-.27,0-.42-.1-.5a15,15,0,0,0-1.57-1.52c-.35-.27-.77-.06-1,.28a.8.8,0,0,0,0,1.09A7.35,7.35,0,0,0,39.54,11.2Z"/><path d="M45,11.23A12.59,12.59,0,0,0,46.23,10a2.79,2.79,0,0,0,.27-.63c-.2-.23-.37-.57-.63-.69a1.06,1.06,0,0,0-.87.07A7.9,7.9,0,0,0,43.73,10a.82.82,0,0,0,.1,1.18A.81.81,0,0,0,45,11.23Z"/><path d="M19.12,35.53c0,.79,0,1.58,0,2.48H17.86a1,1,0,0,0-1,.92.92.92,0,0,0,.93.9c.72,0,1.44,0,2.15,0s1-.37,1-1c0-1.1,0-2.19,0-3.29A.94.94,0,0,0,20,34.45C19.49,34.43,19.13,34.84,19.12,35.53Z"/><path d="M65,38h-.87c-.14-.4,0-.54.33-.53a3.65,3.65,0,0,0,1.24,0,1.48,1.48,0,0,0,.76-.72.74.74,0,0,0-.42-.95,4.46,4.46,0,0,0-.62-.21c0-.54-.27-1-.8-1-.28,0-.77.19-.83.4a2,2,0,0,1-.95,1.08,1.1,1.1,0,0,0-.48.72,6,6,0,0,0,0,1.89,1.4,1.4,0,0,0,1.32,1.12,5.91,5.91,0,0,0,.84,0c.4,0,.47.17.35.56-.5,0-1,0-1.49,0a.9.9,0,0,0-.15,1.78l.33.07c.07.58.29,1,.91,1a.85.85,0,0,0,.94-.87.42.42,0,0,1,.19-.26c1.21-.47,1.27-1.48,1.16-2.54A1.67,1.67,0,0,0,65,38Z"/></svg>