<svg id="Layer_1" data-name="Layer 1" xmlns="http://www.w3.org/2000/svg" viewBox="0 0 85.04 85.04"><defs><style>.cls-1{fill:#fff;}</style></defs><path d="M15.26,47.87c.17-1,.27-1.94.53-2.88,2-7.26,6.67-11.88,14-13.76a16.21,16.21,0,0,1,5.62-.42c.22-1.2.37-2.37.66-3.51a15.55,15.55,0,0,1,.87-2.36,1,1,0,0,1,1.39-.61,1.06,1.06,0,0,1,.49,1.49,12.27,12.27,0,0,0-1.13,6.62,10.6,10.6,0,0,0,1.47,4.63,4.89,4.89,0,0,1,.54,3.47,31.72,31.72,0,0,1-.77,3.17,8.62,8.62,0,0,0,4-.22,8.21,8.21,0,0,0,1.59-.59,1.81,1.81,0,0,1,1.44-.06A12.41,12.41,0,0,0,62.38,30.25,12.38,12.38,0,0,0,45.26,19.7a4.78,4.78,0,0,1-.48.19,1,1,0,0,1-1.32-.59A1,1,0,0,1,44,18a21.25,21.25,0,0,1,3.43-1.07,14.48,14.48,0,0,1,5.24,28.48l-.42.12L52.61,48h13a2.35,2.35,0,0,1,2.53,2.54v6.82a2.37,2.37,0,0,1-2.45,2.5h-15a.37.37,0,0,1-.15,0c-.82-.38-1.16.14-1.6.72A18.31,18.31,0,0,1,36.21,68,18.7,18.7,0,0,1,15.68,53.4c-.17-.8-.28-1.62-.42-2.43Zm12.53,5.66a8.06,8.06,0,0,1-.37-9.86,7.92,7.92,0,0,1,3.82-2.88,8.06,8.06,0,0,1,6.24.34,4,4,0,0,0,.06-2.53,17.46,17.46,0,0,1-1.89-5.37.53.53,0,0,0-.38-.33,29.41,29.41,0,0,0-4.42.25,16.61,16.61,0,0,0-9.79,26.76c.39.5.85,1,1.35,1.49A12,12,0,0,1,27.79,53.53ZM33.93,66h.67l.67,0a16,16,0,0,0,8-2.8.67.67,0,0,0,.26-.53,9.47,9.47,0,0,0-4.67-7.43.64.64,0,0,0-.78,0,7.8,7.8,0,0,1-8.18,0,.71.71,0,0,0-.82,0,9.75,9.75,0,0,0-4.68,7.29.68.68,0,0,0,.38.75A16.61,16.61,0,0,0,33.93,66ZM47.78,53.9c.68.46,1.31.89,1.95,1.29a1.18,1.18,0,0,1,.6,1.12c0,.24,0,.48,0,.72,0,.68,0,.7.69.7H65.43c.66,0,.68,0,.68-.71V50.77c0-.7,0-.73-.73-.73H51.69c-1.49,0-1.37-.22-1.36,1.33a1.34,1.34,0,0,1-.68,1.28C49,53,48.44,53.45,47.78,53.9ZM36.7,43.15a2.61,2.61,0,0,0-.3-.2,5.74,5.74,0,0,0-3.67-.41,5.93,5.93,0,1,0,6.77,3.73.6.6,0,0,0-.55-.43c-.63-.1-1.26-.2-1.87-.34a1.05,1.05,0,0,1-.74-1.69Zm4.89,2.76a8.32,8.32,0,0,1,.22,4,8.17,8.17,0,0,1-1.74,3.63,11.93,11.93,0,0,1,5.4,7.84,14.52,14.52,0,0,0,2.72-3.44,1.27,1.27,0,0,0-.49-1.57c-.75-.49-1.5-1-2.24-1.48a1.07,1.07,0,0,1,0-2c.63-.42,1.25-.87,1.9-1.25s1-.72.87-1.48a.6.6,0,0,1,0-.26,2.49,2.49,0,0,1,2.21-2c-.1-.63-.2-1.23-.29-1.84,0-.33-.18-.44-.53-.47a25.17,25.17,0,0,1-3.25-.46,2.88,2.88,0,0,0-2.16.09,5,5,0,0,1-1.23.36C42.57,45.72,42.1,45.8,41.59,45.91Z"/><path d="M47.73,27.22c.17-.33.3-.55.39-.78.33-.83.62-1.67,1-2.5A2.88,2.88,0,0,1,50.89,22a2.56,2.56,0,0,1,3.23,2.3c0,.79,0,1.57,0,2.45.46,0,.85,0,1.24,0a3.41,3.41,0,0,1,3.2,3.36,25.08,25.08,0,0,1,0,3.36,4.61,4.61,0,0,1-4.44,4.14,42.34,42.34,0,0,1-5.4-.13c-.7-.06-1.37-.39-1.94.27a10,10,0,0,1-4.53,0A1.64,1.64,0,0,1,41.12,36c0-2.72,0-5.45,0-8.17A1.87,1.87,0,0,1,43.06,26c.74,0,1.48,0,2.22,0A2.18,2.18,0,0,1,47.73,27.22Zm4,8.47v-.1h2a2.58,2.58,0,0,0,2.6-2.2,21.37,21.37,0,0,0,.06-3.3A1.32,1.32,0,0,0,55,28.85H53.21a1.06,1.06,0,0,1-1.15-1.16c0-.94,0-1.89,0-2.84,0-.34,0-.74-.4-.76-.2,0-.49.32-.59.56-.39.91-.72,1.86-1.09,2.78a2.85,2.85,0,0,1-1.78,1.82c-.34.11-.39.28-.39.59,0,1.5,0,3,0,4.49,0,.81,0,.89.79,1C49.65,35.53,50.72,35.58,51.77,35.69Zm-8.51.17h2.46V28.05H43.26Z"/><path d="M40.62,22.55a1.05,1.05,0,0,1-1-1,1.08,1.08,0,0,1,1.08-1,1.05,1.05,0,0,1,1,1A1,1,0,0,1,40.62,22.55Z"/><path class="cls-1" d="M27.79,53.53a12,12,0,0,0-5.38,7.87c-.5-.54-1-1-1.35-1.49a16.61,16.61,0,0,1,9.79-26.76,29.41,29.41,0,0,1,4.42-.25.53.53,0,0,1,.38.33,17.46,17.46,0,0,0,1.89,5.37,4,4,0,0,1-.06,2.53,8.06,8.06,0,0,0-6.24-.34,7.92,7.92,0,0,0-3.82,2.88A8.06,8.06,0,0,0,27.79,53.53Z"/><path d="M52.55,53.89a1.06,1.06,0,0,1,1.05-1,1.07,1.07,0,0,1,1,1.07,1.06,1.06,0,0,1-1.06,1A1,1,0,0,1,52.55,53.89Z"/><path d="M62.87,52.84a1.07,1.07,0,0,1,1.07,1,1,1,0,0,1-1,1.07,1,1,0,0,1-1-1A1,1,0,0,1,62.87,52.84Z"/><path d="M57.2,53.89a1,1,0,0,1,1-1,1.06,1.06,0,0,1,0,2.11A1,1,0,0,1,57.2,53.89Z"/></svg>