<svg id="Layer_1" data-name="Layer 1" xmlns="http://www.w3.org/2000/svg" viewBox="0 0 85.04 85.04"><path d="M73.31,42.33h-4.4C68.26,33.44,64.32,26.6,57.22,22S42.3,16.64,33.94,19.72c-2.67-4.37-6.39-6.19-11.07-5.37A9.6,9.6,0,0,0,14.68,22c-1.16,4.71.46,8.61,4.81,11.58L13.67,44.24l0,.07h4.42c.65,8.9,4.59,15.74,11.71,20.33S44.65,70,53,66.91c2.25,3.69,5.26,5.55,9,5.55a13.41,13.41,0,0,0,2.06-.17,9.61,9.61,0,0,0,8.11-7.23c1.38-4.86-.2-8.9-4.69-12l5.8-10.64ZM65,60.27A2.81,2.81,0,0,1,62.27,63H62.2a2.77,2.77,0,0,1,0-5.53h0a2.81,2.81,0,0,1,2,.88A2.76,2.76,0,0,1,65,60.27Zm-7.82,8A5.31,5.31,0,0,1,62.24,65h0a5.33,5.33,0,0,1,5,3.29.4.4,0,0,1-.16.61,8.32,8.32,0,0,1-9.8,0A.42.42,0,0,1,57.19,68.24ZM67,60.05a4.74,4.74,0,0,0-8-3.27,4.72,4.72,0,0,0-1.46,3.34A5,5,0,0,0,59,63.69,7.79,7.79,0,0,0,55.54,67a8.05,8.05,0,0,1-1.66-5.38,8.36,8.36,0,0,1,8.25-7.93h.13A8.34,8.34,0,0,1,69,67,7.7,7.7,0,0,0,65.5,63.7,5,5,0,0,0,67,60.05ZM49.07,50.81v4.62H37.88V51.77a1,1,0,0,0-1.94,0v3.66H33.29a10.07,10.07,0,0,1,6.45-10.34,4,4,0,0,0,1.71,2.39,3.84,3.84,0,0,0,2.08.58h.25a3.88,3.88,0,0,0,3.42-2.93,9.16,9.16,0,0,1,4.64,3.55,10.18,10.18,0,0,1,1.86,6.77H51.06V50.81ZM17,42.35l4.28-7.85,4.2.52A21.91,21.91,0,0,0,23.9,46.77a19.17,19.17,0,0,0,5.64,10.46A19.21,19.21,0,0,0,40,62.89a22,22,0,0,0,11.77-1.57c0,.25.07.5.1.74.12.87.24,1.77.34,2.65a.57.57,0,0,1-.31.41,23.09,23.09,0,0,1-16.38.18A22.95,22.95,0,0,1,20.2,44.73c0-.55-.08-1.12-.14-1.68a2.94,2.94,0,0,1,0-.42v-.28Zm24.77,2h3.39a1.52,1.52,0,0,1-.37,1.08,1.78,1.78,0,0,1-1.22.59h-.11A1.75,1.75,0,0,1,41.76,44.4ZM37.9,36.71a5.6,5.6,0,0,1,5.56-5.55h0a5.58,5.58,0,0,1,0,11.16h0a5.63,5.63,0,0,1-5.56-5.61Zm25.16,3.15a19.23,19.23,0,0,0-5.64-10.45c-6.13-6.14-13.61-7.52-22.26-4.09,0-.27,0-.55-.08-.82a18,18,0,0,0-.27-2.18c-.12-.58,0-.78.56-1,8.62-2.89,16.46-1.47,23.32,4.24a22.46,22.46,0,0,1,7.93,14.29c.15,1,.2,1.93.26,2.95,0,.47.06,1,.1,1.44v0h3l-4.25,7.82-4.21-.53A22,22,0,0,0,63.06,39.86ZM34.9,27.79a17.35,17.35,0,0,1,8.54-2.26,17.9,17.9,0,0,1,7.29,1.58A17.7,17.7,0,0,1,59,51.87a1.76,1.76,0,0,1-.69.6c-.62.36-1.24.69-1.9,1l-.68.36A12.49,12.49,0,0,0,47.7,43,7.58,7.58,0,0,0,51,36.28a7.58,7.58,0,0,0-7.5-7.11H43A7.56,7.56,0,0,0,36,37.67a7.82,7.82,0,0,0,3.3,5.38,12.44,12.44,0,0,0-8,13.08L31.13,56a3,3,0,0,1-.25-.21,17.68,17.68,0,0,1-5.1-11.05,17.44,17.44,0,0,1,2.16-10,1.51,1.51,0,0,1,.69-.6,10.71,10.71,0,0,0,5.71-5.73A1.4,1.4,0,0,1,34.9,27.79ZM24.7,19.9h0a2.82,2.82,0,0,1,2.75,2.82,2.82,2.82,0,0,1-2.75,2.71h-.07a2.77,2.77,0,0,1,.05-5.53Zm6.73,9.58a7.81,7.81,0,0,0-3.49-3.34A4.75,4.75,0,0,0,29.41,22a4.61,4.61,0,0,0-1.7-3,4.75,4.75,0,0,0-6.25,7.15A8,8,0,0,0,18,29.49a8.11,8.11,0,0,1-1.63-5.68A8.49,8.49,0,0,1,19,18.37a8.27,8.27,0,0,1,5.64-2.21h0a8.35,8.35,0,0,1,6.73,13.32ZM19.68,30.63a5.31,5.31,0,0,1,5-3.2h0a5.33,5.33,0,0,1,5,3.19c.18.36.13.54-.22.78a8.73,8.73,0,0,1-4.77,1.54,8.77,8.77,0,0,1-4.89-1.56C19.5,31.13,19.52,30.94,19.68,30.63ZM51.61,59.11a18.63,18.63,0,0,1-9.11,2,18.46,18.46,0,0,1-8.82-3,1.74,1.74,0,0,1-.4-.37l-.15-.16.07-.1H52.9A2.25,2.25,0,0,1,51.61,59.11Z"/><path d="M30.55,35.78a1.07,1.07,0,0,0-.82-.1,1,1,0,0,0-.59.51,15.78,15.78,0,0,0-1.64,8.13,1,1,0,0,0,.36.69,1,1,0,0,0,.66.24h.14a1,1,0,0,0,.88-1c0-3.53.09-4,1.43-7.17A1,1,0,0,0,30.55,35.78Z"/><path d="M30.15,47.65A1,1,0,0,0,29,47a1,1,0,0,0-.69,1.28l0,.09a1,1,0,0,0,.53.6,1.06,1.06,0,0,0,.42.09A.89.89,0,0,0,29.6,49h0a1,1,0,0,0,.58-1.25Z"/><path d="M57.22,40.6a1,1,0,0,0,1,.79h.15A1,1,0,0,0,59,41a1,1,0,0,0,.16-.78,1,1,0,0,0-.45-.64.94.94,0,0,0-.78-.11A1,1,0,0,0,57.22,40.6Z"/><path d="M56.12,37.28a1,1,0,0,0,.9.56,1,1,0,0,0,.37-.07h0A1,1,0,0,0,58,37.2a1,1,0,0,0,0-.79,1.06,1.06,0,0,0-.6-.52,1,1,0,0,0-1.2,1.39Z"/><path d="M55.42,35.09a1.16,1.16,0,0,0,.37-.07,1,1,0,0,0,.56-.57,1,1,0,0,0,0-.79,1,1,0,0,0-.6-.52,1,1,0,0,0-.78.08h0a1,1,0,0,0,.49,1.87Z"/></svg>