<svg id="Layer_1" data-name="Layer 1" xmlns="http://www.w3.org/2000/svg" viewBox="0 0 85.04 85.04"><path d="M36,29.79a23.83,23.83,0,0,1,9.66-4.05v-2a2.17,2.17,0,0,1-2.17-1.81,10.54,10.54,0,0,1,0-3,2.09,2.09,0,0,1,2.22-1.77h3.18a3.85,3.85,0,0,1,2.94-3.58,4.91,4.91,0,0,1,1.21-.1c6.33,0,12.66,0,19,0a4,4,0,0,1,4.1,4.09c-.1,4.28-.09,8.56,0,12.84A3.94,3.94,0,0,1,72,34.44c-1.23-.08-2.46,0-3.8,0,.17.25.27.42.38.57A23.51,23.51,0,1,1,28,58a.8.8,0,0,0-.94-.6,7.94,7.94,0,0,1-1.29,0,1.06,1.06,0,0,1-1-1.09,1,1,0,0,1,1.06-1.07c.36,0,.72,0,1.21,0a24.55,24.55,0,0,1-.48-10.33,23.84,23.84,0,0,1,4-9.59c-.39-.38-.79-.73-1.16-1.12a2.14,2.14,0,0,1,0-3.14c.82-.86,1.67-1.71,2.53-2.53a2.13,2.13,0,0,1,3.09,0C35.26,28.94,35.6,29.36,36,29.79Zm17.88,4.63H52.69A3.22,3.22,0,0,1,50,33.2a1.71,1.71,0,0,0-1.87-.64c-.33,0-.67.07-1,.12A16.45,16.45,0,1,0,63.41,40a15.64,15.64,0,0,0-3.7-4c-1.3,1.16-2.52,2.23-3.7,3.34-.45.42-.88.74-1.49.49s-.66-.79-.66-1.36C53.87,37.13,53.86,35.82,53.86,34.42Zm-5-6.87c-1.23.17-2.39.28-3.52.51a21.31,21.31,0,0,0,6.15,42.1A21.35,21.35,0,0,0,70.83,46.92a20.62,20.62,0,0,0-5.23-12.1c-.13-.15-.3-.37-.46-.37-1.21,0-2.43,0-3.77,0A18.64,18.64,0,1,1,31,49.21a18,18,0,0,1,3.42-11,18.53,18.53,0,0,1,14.46-7.9Zm7.17,8.07c1-.87,2-1.79,3.06-2.77a1.91,1.91,0,0,1,1.42-.61q5.71,0,11.43,0c1.27,0,1.94-.61,2-1.81q0-6.51,0-13a1.62,1.62,0,0,0-1.76-1.77q-9.65,0-19.27,0a1.62,1.62,0,0,0-1.79,1.75q0,6.56,0,13.11a1.64,1.64,0,0,0,1.79,1.76c.63,0,1.27,0,1.9,0,.87,0,1.27.4,1.28,1.27S56.06,35.06,56.06,35.62ZM45.58,21.43h3.29v-2H45.58ZM34.2,31l-.81-.85-2.52,2.5.81.84Zm14.69-7.27h-1v1.75l1-.11Z"/><path d="M21.57,52.51c-.79,0-1.58,0-2.37,0S18,52.05,18,51.38s.47-1.09,1.26-1.1c1.57,0,3.15,0,4.73,0a1.16,1.16,0,0,1,1.3,1.08c0,.66-.5,1.12-1.31,1.14S22.35,52.51,21.57,52.51Z"/><path d="M18,47.55c-.81,0-1.62,0-2.43,0a1.08,1.08,0,1,1,0-2.15c1.69,0,3.38,0,5.06,0a1.08,1.08,0,1,1,0,2.15C19.76,47.56,18.88,47.54,18,47.55Z"/><path d="M12.58,50.27c.72,0,1.44,0,2.16,0A1.18,1.18,0,0,1,16,51.37a1.16,1.16,0,0,1-1.25,1.13c-1.51,0-3,0-4.52,0A1.1,1.1,0,0,1,9,51.38c0-.66.47-1.09,1.26-1.1S11.82,50.27,12.58,50.27Z"/><path d="M18,57.41h-2.3c-.8,0-1.27-.41-1.28-1.07s.44-1.1,1.24-1.11h4.79c.8,0,1.26.43,1.26,1.09s-.49,1.08-1.28,1.09Z"/><path d="M13.51,42.66c-.79,0-1.58,0-2.37,0a1.17,1.17,0,0,1-1.29-1.09,1.13,1.13,0,0,1,1.26-1.12c1.6,0,3.2,0,4.79,0,.82,0,1.25.44,1.24,1.12s-.48,1.07-1.27,1.09S14.29,42.66,13.51,42.66Z"/><path d="M22.68,42.66c-.79,0-1.57,0-2.36,0a1.16,1.16,0,0,1-1.26-1.12,1.11,1.11,0,0,1,1.22-1.07c1.62,0,3.24,0,4.86,0,.8,0,1.23.46,1.2,1.15s-.47,1-1.23,1S23.49,42.66,22.68,42.66Z"/><path d="M50.72,43c0,.27,0,.54,0,.81-.09,1-.09,2,1.12,2.46.39.16.68.71.91,1.13a.69.69,0,0,0,.73.43c1.33,0,2.66,0,4,0q1.45,0,1.44,1.11c0,.73-.47,1.09-1.46,1.09-1.31,0-2.62,0-3.92,0a.73.73,0,0,0-.78.46,3.46,3.46,0,0,1-3.69,1.92,3.51,3.51,0,0,1-2.88-2.93,3.39,3.39,0,0,1,1.93-3.66.67.67,0,0,0,.41-.73c0-1.42,0-2.84,0-4.26a1.07,1.07,0,0,1,1.67-1,1.59,1.59,0,0,1,.51,1,19.43,19.43,0,0,1,0,2.16Zm-2.37,5.93a1.29,1.29,0,0,0,1.26,1.31,1.37,1.37,0,0,0,1.33-1.35,1.31,1.31,0,0,0-1.33-1.24A1.23,1.23,0,0,0,48.35,48.93Z"/><path d="M39.67,37.84a4.23,4.23,0,0,1,.81.42,10.23,10.23,0,0,1,1.14,1.14A1.08,1.08,0,0,1,40.12,41,5.82,5.82,0,0,1,39,39.74a1.49,1.49,0,0,1-.13-1.15C38.94,38.28,39.38,38.09,39.67,37.84Z"/><path d="M60.69,38.94a3.41,3.41,0,0,1-.39.83,11.06,11.06,0,0,1-1.13,1.14,1.1,1.1,0,0,1-1.52,0,1,1,0,0,1,0-1.51,6.27,6.27,0,0,1,1.2-1.16,1.41,1.41,0,0,1,1.1-.12C60.25,38.23,60.44,38.65,60.69,38.94Z"/><path d="M42,57.63a4,4,0,0,1-.39.82,10.23,10.23,0,0,1-1.14,1.14,1.08,1.08,0,0,1-1.51,0,1,1,0,0,1,0-1.51,7,7,0,0,1,1.21-1.16,1.37,1.37,0,0,1,1.1-.1C41.59,56.91,41.78,57.33,42,57.63Z"/><path d="M59.6,60a5.41,5.41,0,0,1-.87-.43,10.2,10.2,0,0,1-1.09-1.09,1.05,1.05,0,0,1,0-1.51,1,1,0,0,1,1.5,0,6.32,6.32,0,0,1,1.17,1.2,1.42,1.42,0,0,1,.13,1.12C60.33,59.55,59.91,59.75,59.6,60Z"/><path d="M50.7,62.16a7.3,7.3,0,0,1,0,.81,1.09,1.09,0,0,1-1.06,1,1.11,1.11,0,0,1-1.1-1,10.23,10.23,0,0,1,0-1.75,1.11,1.11,0,0,1,1.1-1,1.09,1.09,0,0,1,1.06,1,8.42,8.42,0,0,1,0,.87Z"/><path d="M62.78,50c-.27,0-.54,0-.81,0a1.06,1.06,0,0,1-1-1.07,1,1,0,0,1,.93-1.07,8.43,8.43,0,0,1,1.81,0A1.08,1.08,0,0,1,63.65,50a8.42,8.42,0,0,1-.87,0Z"/><path d="M36.42,47.83a6.44,6.44,0,0,1,.88,0,1.07,1.07,0,0,1,1,1.1,1,1,0,0,1-1,1.06,14.41,14.41,0,0,1-1.61,0,1.06,1.06,0,0,1-1.07-1.06,1.1,1.1,0,0,1,1.11-1.11c.24,0,.49,0,.73,0Z"/><path d="M48.53,35.7a7.12,7.12,0,0,1,0-.8,1.08,1.08,0,0,1,1.13-1,1,1,0,0,1,1,1,10.82,10.82,0,0,1,0,1.61,1,1,0,0,1-1.08,1,1.08,1.08,0,0,1-1.09-1.05,7.3,7.3,0,0,1,0-.81Z"/><path d="M62.55,22.82H69a1.29,1.29,0,0,1,1.27.61,1.06,1.06,0,0,1-.6,1.53,2.66,2.66,0,0,1-.8.09c-4.23,0-8.46,0-12.69,0-.11,0-.22,0-.33,0a1.11,1.11,0,1,1,.06-2.22C58.1,22.81,60.33,22.82,62.55,22.82Z"/><path d="M62.5,20.21H56.09a2.22,2.22,0,0,1-.73-.1,1.07,1.07,0,0,1,.17-2.06,5.51,5.51,0,0,1,.81-.05H68.69c1.13,0,1.68.36,1.69,1.1s-.57,1.11-1.68,1.11Z"/><path d="M62.49,29.85H56.28c-.2,0-.41,0-.61,0a1.09,1.09,0,0,1-1-1,1.1,1.1,0,0,1,1-1.11c.59,0,1.17,0,1.76,0H69.1a1.12,1.12,0,0,1,1.24.9,1,1,0,0,1-.65,1.19,1.91,1.91,0,0,1-.79.09Z"/></svg>