<svg id="Layer_1" data-name="Layer 1" xmlns="http://www.w3.org/2000/svg" viewBox="0 0 85.04 85.04"><path d="M73.89,47l-.18-.43a3.77,3.77,0,0,0-.5-1l-.71-.91c-1.91-2.41-3.88-4.91-5.9-7.32a4.12,4.12,0,0,0-3.18-1.45h0a4.06,4.06,0,0,0-3.12,1.41c-2.36,2.79-4.6,5.58-6.65,8.27a3.85,3.85,0,0,0-.46,3.75,4.07,4.07,0,0,0,3,2.56,12.77,12.77,0,0,0,1.4.13H58l-.06.14A19,19,0,0,1,21.8,42.3,19,19,0,0,1,45.46,25.57a4,4,0,0,0,4-1.11c.46-.47.93-.93,1.39-1.39s1.07-1.06,1.59-1.6a2.67,2.67,0,0,0-1-4.48,28.71,28.71,0,0,0-8-1.95,28.36,28.36,0,0,0-14.34,2.33,36.77,36.77,0,0,0-3.6,2L24.37,20a1.28,1.28,0,0,0-.63.79,1.13,1.13,0,0,0,.15.89,1.18,1.18,0,0,0,1.76.26l.22-.14.18-.13A26.54,26.54,0,0,1,50.46,19.1c.43.16.5.29.51.34s0,.22-.34.57l-1,1c-.6.58-1.19,1.17-1.76,1.77a1.74,1.74,0,0,1-1.88.5,21,21,0,0,0-10.43,0,21.36,21.36,0,0,0-7,38.27A20.89,20.89,0,0,0,44.39,65c7.71-1.43,13.19-5.92,16.29-13.35a1.48,1.48,0,0,0,0-1.47,1.51,1.51,0,0,0-1.36-.54c-.61,0-1.25,0-1.87,0h-.52a1.53,1.53,0,0,1-1.42-1,1.55,1.55,0,0,1,.13-1.78l.29-.37c2-2.46,4-5,6-7.48a2,2,0,0,1,1.54-.77h0A2,2,0,0,1,65,39c2.28,2.78,4.34,5.35,6.28,7.85a1.85,1.85,0,0,1,.3,1.26,1.71,1.71,0,0,1-.61,1.16,2.3,2.3,0,0,1-1.58.32l0-.2c.09-.32.18-.64.26-1a1.2,1.2,0,0,0-.8-1.65,1.05,1.05,0,0,0-.84.11,1.49,1.49,0,0,0-.62,1,34.13,34.13,0,0,1-2.73,7.87A26.35,26.35,0,0,1,34.39,69.94,26.76,26.76,0,0,1,14.13,41.35a26.3,26.3,0,0,1,6-14.35c.48-.58,1-1.14,1.55-1.69.21-.23.43-.45.65-.68a1.07,1.07,0,0,0,.19-1.47,1.75,1.75,0,0,0-1.12-.52,1.31,1.31,0,0,0-.88.5A28.69,28.69,0,0,0,11.8,41.46a28.33,28.33,0,0,0,2.73,15.1,29,29,0,0,0,26,16.5,28.44,28.44,0,0,0,5.71-.58c10.87-2.23,18.32-8.84,22.15-19.64l0-.11c.24-.7.24-.7,1-.7a4.08,4.08,0,0,0,4.27-3.1l0-.06.06-.07,0-.06V47.09Z"/><path d="M39.14,39.5a6.44,6.44,0,0,0-1.88,3.31c-.16.72-.35,1.44-.53,2.15s-.29,1.13-.42,1.7c-.07.3-.16.34-.44.34-2.45,0-4.89,0-7.34,0h-1a2.83,2.83,0,0,0-.78.09A1,1,0,0,0,26,48.26a2,2,0,0,0,.74,1,.79.79,0,0,0,.52.14h9.44a4.84,4.84,0,0,0,1.13-.13l2.05-.52L42.51,48a6.58,6.58,0,0,0,3.26-1.85Q50.93,41,56.12,35.82l4.26-4.26.08-.07a3,3,0,0,0,.43-.5,1.07,1.07,0,0,0-.18-1.46,1.11,1.11,0,0,0-1.47-.1,3,3,0,0,0-.37.33L56.69,32,46.28,42.36a1.79,1.79,0,0,0-.22.28l-3.32-3.35L58,24.07l.23.22,3.54,3.54c.94.94,1.43.94,2.39,0L66.93,25c1.27-1.27,2.55-2.54,3.81-3.82a4.76,4.76,0,0,0,1.38-3.46,4.56,4.56,0,0,0-1.44-3.27,4.74,4.74,0,0,0-6.64.15Q59.68,19,55.32,23.33l-6,6Zm1.72,1.6,3.33,3.36a4.72,4.72,0,0,1-3,1.49c-.63.14-1.25.3-1.92.47l-.53.14.18-.7c.22-.8.42-1.56.57-2.34A4.13,4.13,0,0,1,40.86,41.1ZM62.54,19.44l.08-.09.67-.67c.81-.82,1.61-1.63,2.43-2.43a2.36,2.36,0,0,1,3.41,0A2.4,2.4,0,0,1,69,19.59c-.75.77-1.52,1.54-2.29,2.3l-.88.88ZM59.76,22.3l1.06-1,3.24,3.24-1,1Z"/><path d="M30.16,51a3.59,3.59,0,0,0-.71.05,1.14,1.14,0,0,0-.22,2.17,2.23,2.23,0,0,0,.79.12H41.7c1.37,0,1.66-.64,1.67-1.17a1,1,0,0,0-.29-.77A1.84,1.84,0,0,0,41.71,51Z"/><path d="M46.43,51a1.12,1.12,0,0,0-1.15,1.16,1.19,1.19,0,0,0,1.22,1.17h2.13a1.17,1.17,0,0,0,1.17-1.14A1.12,1.12,0,0,0,48.67,51C48,51,47.2,51,46.43,51Z"/></svg>