<svg id="Layer_1" data-name="Layer 1" xmlns="http://www.w3.org/2000/svg" viewBox="0 0 85.04 85.04"><path d="M57.17,35.49a14.75,14.75,0,0,0-13-12.38,2.45,2.45,0,0,0-2,.52,2.37,2.37,0,0,0-.67,1.84V56.66H39.52a6.81,6.81,0,0,0,1.11-4.53c0-5.07,0-10.24,0-15.23V28.76a7.27,7.27,0,0,0-.09-1.4,5.29,5.29,0,0,0-10-1.26.45.45,0,0,1-.47.32,6.21,6.21,0,0,0-5.86,4.48,5.84,5.84,0,0,0,0,3.58,6.82,6.82,0,0,0-4,6.45,6.82,6.82,0,0,0,3.91,6.35q0,.26-.09.48A9.65,9.65,0,0,0,24,48.93a6.3,6.3,0,0,0,6.12,6.44.55.55,0,0,1,.37.14c.23.35.44.72.65,1.08l.15.26a3.34,3.34,0,0,0-2.09,2.35,3.42,3.42,0,0,0,.76,3.09,3.34,3.34,0,0,0,2.54,5.55h.68a4,4,0,0,0,4.06,4h.18c1.44-.07,2.9,0,4.32,0h2.07a3.86,3.86,0,0,0,3.78-2.92,5.86,5.86,0,0,0,.14-.75,2.51,2.51,0,0,1,0-.27,3.37,3.37,0,0,0,3.59-1.64,3.21,3.21,0,0,0-.39-3.92,3.37,3.37,0,0,0,.56-3.62,3.32,3.32,0,0,0-3-2,11.19,11.19,0,0,1,3.86-7.86A14.28,14.28,0,0,0,57.17,35.49Zm-10.75,21a.69.69,0,0,1,0,.13H43.64v-.07c0-.13,0-.26,0-.39V48.57q0-11.44,0-22.9c0-.26,0-.41.1-.47s.21-.08.45-.05A12.09,12.09,0,0,1,53.1,30.7a12.54,12.54,0,0,1-.24,14.56,14.24,14.24,0,0,1-1.89,2A13.45,13.45,0,0,0,46.42,56.53Zm-20-9a4.25,4.25,0,0,1,2.5-2.32l.25-.08a2.69,2.69,0,0,0,.45-.16,1,1,0,0,0,.55-1.11.87.87,0,0,0-1-.77,3.64,3.64,0,0,0-1.27.32,8,8,0,0,0-1.45.89,10.78,10.78,0,0,0-.9.77l-.35.33a5.07,5.07,0,0,1,1-9.46,3.14,3.14,0,0,1,2.92.9,1.46,1.46,0,0,0,1.05.45.9.9,0,0,0,.77-.57,1.11,1.11,0,0,0-.24-1.14A4.8,4.8,0,0,0,27,33.91h-.24c-.49,0-.59-.14-.66-.54a4.14,4.14,0,0,1,2.05-4.29,4,4,0,0,1,4.67.37,3.17,3.17,0,0,1,.52.62l.28.36a1,1,0,0,0,1.1.42,1,1,0,0,0,.72-.56,1.06,1.06,0,0,0-.1-.92,6,6,0,0,0-2.47-2.32l-.29-.15,0,0a3,3,0,0,1,3.36-1.69,3.17,3.17,0,0,1,2.67,2.72q0,.36,0,.78,0,12.21,0,24.42a3.21,3.21,0,0,1-2.05,3.35,3.34,3.34,0,0,1-3.14-.4,3.06,3.06,0,0,1-1.25-2.67,1.53,1.53,0,0,1,.93-1.45,1,1,0,0,0,.7-1.13,1,1,0,0,0-.46-.72.9.9,0,0,0-.49-.13,1.58,1.58,0,0,0-.55.11,3.42,3.42,0,0,0-2.14,2.82,2.89,2.89,0,0,0,0,.29v0a3.83,3.83,0,0,1-3.65-2.28A4.14,4.14,0,0,1,26.38,47.58ZM48.5,61.21h-16a1.34,1.34,0,0,1-1-.37,1.31,1.31,0,0,1-.3-1,1.16,1.16,0,0,1,1.07-1.11,2.55,2.55,0,0,1,.39,0H48.17a2.43,2.43,0,0,1,.77.07,1.23,1.23,0,0,1-.44,2.4ZM31.14,64.52a1.16,1.16,0,0,1,1-1.19,3.37,3.37,0,0,1,.7-.06H48.08c1.08,0,1.69.45,1.7,1.25a1.13,1.13,0,0,1-.32.83,1.84,1.84,0,0,1-1.36.45H38.18c-1.85,0-3.71,0-5.57,0a1.56,1.56,0,0,1-1.14-.4A1.22,1.22,0,0,1,31.14,64.52Zm14.47,3.35a1.82,1.82,0,0,1-.47,1.3,1.67,1.67,0,0,1-1.24.56c-2.29,0-4.61,0-6.9,0a1.83,1.83,0,0,1-1.77-1.86Z"/><path d="M54.14,26.9a1.51,1.51,0,0,1,.26.18l.06.05.08,0,.28-.16a1.83,1.83,0,0,0,.47-.31c1.3-1.28,2.64-2.61,4-3.95a1.17,1.17,0,0,0,.35-.94,1,1,0,0,0-.53-.72,1,1,0,0,0-1.3.24l-3.92,3.92,0,0a.42.42,0,0,0-.16.25l0,.21a1.16,1.16,0,0,0,0,.74A1.41,1.41,0,0,0,54.14,26.9Z"/><path d="M41.59,20.94a1,1,0,0,0,1,1.1h0a1,1,0,0,0,1-1.09c0-2,0-3.85,0-5.61a1.19,1.19,0,0,0-.3-.82,1,1,0,0,0-.73-.26h0a1,1,0,0,0-1,1.07c0,.65,0,1.31,0,2V19C41.58,19.65,41.58,20.29,41.59,20.94Z"/><path d="M65.19,36.87c-1.85,0-3.78,0-5.72,0a1,1,0,0,0-.78,1.72,1.12,1.12,0,0,0,.82.32l1.12,0h2.53c.66,0,1.34,0,2,0a1,1,0,1,0,0-2Z"/><path d="M55.3,49.16a2.39,2.39,0,0,0-.47-.31l-.29-.18-.08-.05-.07.06-.26.2a2,2,0,0,0-.53.51.93.93,0,0,0,.25,1.21L55.3,52l2.48,2.48a1.2,1.2,0,0,0,.84.41h0a1,1,0,0,0,.69-.34,1,1,0,0,0-.09-1.5C57.85,51.69,56.56,50.41,55.3,49.16Z"/><path d="M52.86,38.76H53a1,1,0,0,0,.93-1.07c0-.11,0-.23,0-.35v-.06l.09,0,0-.11c-.06-.28-.11-.57-.16-.86a15.91,15.91,0,0,0-.43-1.88,11,11,0,0,0-6.83-7.21,1,1,0,1,0-.74,1.9l.15.06.06,0a9.07,9.07,0,0,1,5.71,7.18,7.2,7.2,0,0,1,.07.8c0,.21,0,.43.06.65A1,1,0,0,0,52.86,38.76Z"/></svg>