<svg id="Layer_1" data-name="Layer 1" xmlns="http://www.w3.org/2000/svg" viewBox="0 0 85.04 85.04"><path d="M57.63,26.85a15.26,15.26,0,0,1-1,5.73A58.75,58.75,0,0,1,51.5,43.39C48.77,48,45.88,52.49,43.05,57c-.63,1-1.33,1-2,0a153,153,0,0,1-11.6-19.68,30.79,30.79,0,0,1-2.78-7.71,13.72,13.72,0,0,1,2.08-10.06A15,15,0,0,1,42.5,12.23,15.37,15.37,0,0,1,57.4,24.92C57.53,25.6,57.56,26.3,57.63,26.85ZM42,55.07c.18-.26.32-.43.44-.62,2.42-3.92,4.89-7.81,7.23-11.78A60.1,60.1,0,0,0,54.79,32a12.88,12.88,0,0,0,.8-6.33,13.73,13.73,0,0,0-25.79-4A11.92,11.92,0,0,0,28.51,29a24.9,24.9,0,0,0,2,6.16,125.38,125.38,0,0,0,8.9,16C40.28,52.42,41.14,53.71,42,55.07Z"/><path d="M61.76,68.87H45.24c-1.23,0-1.49-.25-1.49-1.45v-6c0-1,.29-1.24,1.25-1.24H61.76c0-.88,0-1.71,0-2.54a1.09,1.09,0,0,1,.6-1.17c.49-.23.86,0,1.22.32l8.21,6.78c.81.67.82,1.22,0,1.91l-8.29,7a1,1,0,0,1-1.75-.82C61.77,70.71,61.76,69.83,61.76,68.87ZM45.68,66.93H62.31c1.11,0,1.4.3,1.4,1.43v1.37l6.22-5.24-6.22-5.13V60.6c0,1.16-.27,1.43-1.4,1.43H45.68Z"/><path d="M22.34,68.87c0,1,0,1.86,0,2.74,0,.48-.13.94-.59,1a1.49,1.49,0,0,1-1.11-.24c-2.79-2.32-5.54-4.69-8.3-7-.7-.61-.67-1.18.05-1.78l8.11-6.81c.37-.31.75-.59,1.27-.33a1.11,1.11,0,0,1,.57,1.19c0,.81,0,1.63,0,2.51H39c1.09,0,1.34.25,1.34,1.33v6.09c0,1-.31,1.31-1.33,1.31H22.34Zm-1.95-9.5L14.28,64.5l6.11,5.21V68.29c0-1.05.32-1.36,1.36-1.36H38.4V62H21.62c-.9,0-1.22-.33-1.23-1.23Z"/><path d="M24.64,40.9c.12-1,.13-1-.78-1.19a1.58,1.58,0,0,1-1.43-1.41,9.47,9.47,0,0,0-1.07-2.52,1.27,1.27,0,0,1,0-1.62c.24-.28.43-.6.67-.93l-.66-.86-1,.7a1.13,1.13,0,0,1-1.21,0c-1-.47-2.09-.9-3.15-1.3a1.21,1.21,0,0,1-.9-1A7.56,7.56,0,0,1,15,30c0-.35-.2-.45-.52-.43s-.9,0-1.36,0a.92.92,0,0,1-1-.94.89.89,0,0,1,.92-.94c.9,0,1.81,0,2.71,0a.87.87,0,0,1,.92.89c0,1,.56,1.46,1.49,1.87,1.13.49,2,.7,3-.23a.81.81,0,0,1,1.21.18c.59.72,1.14,1.45,1.68,2.2a.9.9,0,0,1-.08,1.24,1.54,1.54,0,0,0-.2,2.24,2.77,2.77,0,0,1,.41,1.09A.81.81,0,0,0,25,38a7.9,7.9,0,0,1,.84.2,1,1,0,0,1,.82,1q0,1.2,0,2.4a1,1,0,0,1-.95,1,1.7,1.7,0,0,0-1.78,1.59.14.14,0,0,1,0,.06,2,2,0,0,0,.16,2.8.85.85,0,0,1-.13,1.22c-.56.57-1.13,1.14-1.7,1.69a.88.88,0,0,1-1.28.12c-.88-.85-1.68-.67-2.71-.22s-1.76.78-1.72,2a.85.85,0,0,1-.89.8c-.86,0-1.72,0-2.58,0a.9.9,0,0,1-.92-1c0-.55.4-.88,1-.91h.18c.45,0,1,.15,1.32-.07s.17-.85.37-1.23a1.56,1.56,0,0,1,.8-.8,9.9,9.9,0,0,0,3.26-1.38.92.92,0,0,1,1.14,0l1.18.78.59-.66c-.23-.33-.46-.67-.7-1a1.15,1.15,0,0,1-.05-1.27,32.46,32.46,0,0,0,1.27-3c.2-.53.44-.9,1-1A10,10,0,0,0,24.64,40.9Z"/><path d="M62.77,32.33l-.68.7c1.36,1,.94,2.08.18,3.26a5.26,5.26,0,0,0-.63,1.78,1.38,1.38,0,0,1-1.25,1.23c-.3.05-.6.13-.94.21v1a6,6,0,0,1,1.26.34,1.56,1.56,0,0,1,.79.81,9.87,9.87,0,0,0,1.39,3.25.93.93,0,0,1,0,1.15l-.76,1.07.7.56c.33-.21.71-.45,1.08-.71a1.15,1.15,0,0,1,1.26,0c1,.47,2,.9,3.1,1.28a1.2,1.2,0,0,1,.92,1,4.17,4.17,0,0,1,.1.6c0,.52.26.61.7.58a8.22,8.22,0,0,1,1.11,0,.9.9,0,0,1,.94.85.86.86,0,0,1-.83,1,24.32,24.32,0,0,1-2.7,0,.88.88,0,0,1-.89-.93,1.59,1.59,0,0,0-1.48-1.78,1.37,1.37,0,0,1-.62-.26,1.41,1.41,0,0,0-1.95.16c-.88.67-1.15.6-1.94-.19L60.28,48c-.49-.51-.58-1-.11-1.46a1.57,1.57,0,0,0,.19-2.25,1.52,1.52,0,0,1-.3-.73c-.08-.85-.59-1.12-1.35-1.26-1.1-.2-1.24-.43-1.24-1.52,0-.6,0-1.19,0-1.79s.25-1.14,1-1.2a1.72,1.72,0,0,0,1.78-1.6.18.18,0,0,1,0-.11,1.91,1.91,0,0,0-.19-2.74.85.85,0,0,1,.13-1.22c.56-.58,1.13-1.14,1.7-1.7a.9.9,0,0,1,1.33-.08,2,2,0,0,0,2.55.23c1-.46,1.88-.8,1.85-2.12a.78.78,0,0,1,.87-.72c.86,0,1.72,0,2.58,0a.89.89,0,0,1,.93.94.93.93,0,0,1-1,.94H71c-.49,0-1.11-.16-1.44.07s-.29.87-.41,1.32a1.09,1.09,0,0,1-.92.8,7.28,7.28,0,0,0-3,1.25,1,1,0,0,1-1.31,0Z"/><path d="M17.91,40.57A3.32,3.32,0,0,1,16,43.39a3.3,3.3,0,0,1-3.54-.29,1.07,1.07,0,0,1-.48-1.38c.29-.57.92-.66,1.56-.21a1.5,1.5,0,0,0,1.68.12A1.47,1.47,0,0,0,16,40.15a1.51,1.51,0,0,0-2.19-1.26c-.17.09-.31.2-.47.29a.93.93,0,0,1-1.3-.27,1,1,0,0,1,.23-1.31,3.37,3.37,0,0,1,3.69-.47A3.61,3.61,0,0,1,17.91,40.57Z"/><path d="M66.3,40.18a3.46,3.46,0,0,1,2-3.19,3.3,3.3,0,0,1,3.58.42.89.89,0,0,1,.4,1.07,1.2,1.2,0,0,1-.63.66,1.28,1.28,0,0,1-.9-.19,1.56,1.56,0,0,0-2.21,2.18,1.54,1.54,0,0,0,2.15.23,1.28,1.28,0,0,1,.84-.24,1.12,1.12,0,0,1,.72.63,1.25,1.25,0,0,1-.3,1,3.23,3.23,0,0,1-3.61.55A3.46,3.46,0,0,1,66.3,40.18Z"/><path d="M42,34.9a7.64,7.64,0,1,1,7.65-7.57A7.6,7.6,0,0,1,42,34.9Zm5.72-7.57A5.7,5.7,0,1,0,42,33,5.64,5.64,0,0,0,47.75,27.33Z"/></svg>