<svg id="Layer_1" data-name="Layer 1" xmlns="http://www.w3.org/2000/svg" viewBox="0 0 85.04 85.04"><path d="M28.77,57.22a3.59,3.59,0,0,1-.37.59q-4.53,4.56-9.09,9.1A1.36,1.36,0,1,1,17.4,65l4.07-4.07L27,55.37c-.44-.38-.88-.71-1.27-1.1a3.72,3.72,0,0,1,0-5.63c.68-.69,1.36-1.38,2.06-2a.69.69,0,0,0,.22-.73,14.31,14.31,0,0,1,4-14.17q5-5.06,10.08-10.08c.93-.94,1.58-.94,2.51,0l2,2,.19.09c.36-.38.73-.8,1.12-1.19L52,18.39A3.6,3.6,0,0,1,56,17.46a3.52,3.52,0,0,1,2.43,3.19,3.69,3.69,0,0,1-1.21,3.06c-1.6,1.57-3.17,3.16-4.75,4.75-.14.14-.27.29-.37.4L55.17,32c.33-.35.71-.79,1.11-1.2C57.64,29.38,59,28,60.39,26.64a3.6,3.6,0,0,1,3.77-.9,3.45,3.45,0,0,1,2.49,2.82,3.61,3.61,0,0,1-1.05,3.37l-4.83,4.82a6.17,6.17,0,0,1-.57.44l2.43,2.38c1,1,1,1.61,0,2.64-3.31,3.32-6.65,6.63-9.95,10a14.81,14.81,0,0,1-8.84,4.46,13.53,13.53,0,0,1-5.26-.34.87.87,0,0,0-1,.28c-.64.68-1.31,1.33-2,2a3.72,3.72,0,0,1-5.55,0C29.68,58.19,29.3,57.78,28.77,57.22Zm14.6-32.95a1.62,1.62,0,0,0-.22.19C40,27.62,36.79,30.75,33.67,34a11.48,11.48,0,0,0-3.19,10.57A11.93,11.93,0,0,0,40.78,54a11.61,11.61,0,0,0,9.66-3.44c3.11-3.08,6.2-6.19,9.3-9.28.11-.12.22-.24.29-.33Zm-8.09,30.8a14.85,14.85,0,0,1-6-6c-.63.6-1.28,1.16-1.85,1.79a.86.86,0,0,0,.08,1.26q2.32,2.35,4.66,4.67a.89.89,0,0,0,1.35,0C34.1,56.29,34.66,55.69,35.28,55.07ZM50.07,27c.82-.82,1.59-1.6,2.37-2.37l2.92-2.93a1,1,0,0,0-.15-1.62c-.43-.26-.87-.17-1.34.3l-4.94,4.94c-.09.09-.16.2-.22.27Zm8.32,8.31,5.25-5.26a1,1,0,1,0-1.41-1.39c-1.31,1.3-2.6,2.61-3.91,3.9-.45.45-.92.86-1.37,1.27Z"/><path d="M43.45,34.86a6,6,0,1,1-6.09,6A6,6,0,0,1,43.45,34.86Zm-3.37,6a3.34,3.34,0,1,0,6.67,0,3.34,3.34,0,1,0-6.67,0Z"/></svg>