<svg id="Layer_1" data-name="Layer 1" xmlns="http://www.w3.org/2000/svg" viewBox="0 0 85.04 85.04"><path d="M70.89,14a1.48,1.48,0,0,0-1.15-.35c-3.27.21-6.59.37-9.8.53l-3.1.15-3.24.16-3.47.17-1.78.1a73.58,73.58,0,0,1-8.92.13c-2.59-.17-5.23-.29-7.78-.41l-3.72-.17-3.8-.19L21.5,14h0L16,13.68a1.32,1.32,0,0,0-1.46.83,2.62,2.62,0,0,0-.08.8q0,9.2,0,18.35V58.37a1.4,1.4,0,0,0,.38,1,1.38,1.38,0,0,0,1,.32c2.25-.1,4.54-.23,6.51-.34h.25c.35,0,.41.09.56.48l.22.59a20.9,20.9,0,0,0,1.13,2.62,14,14,0,0,0,4.94,5.22,15,15,0,0,0,5.65,2.16,14.3,14.3,0,0,0,5.69-.22A14.78,14.78,0,0,0,50.41,63a13.23,13.23,0,0,0,1.43-3.65.54.54,0,0,1,.67-.48,10.17,10.17,0,0,0,1.1.08h.16l6.36.32,5.23.27,4.5.22a1.62,1.62,0,0,0,.67-.08,1.28,1.28,0,0,0,.81-1.32V32.67c0-5.73,0-11.64,0-17.46A1.67,1.67,0,0,0,70.89,14ZM22.71,46.19c0,2.8,0,5.64,0,8.39v1.9c0,.19,0,.41-.38.43l-5,.24h0a.41.41,0,0,1-.31-.1.54.54,0,0,1-.11-.42v0c0-2.86,0-5.71,0-8.57V22.9q0-3,0-6.11a.65.65,0,0,1,.13-.46.58.58,0,0,1,.45-.11c4.71.25,9.37.49,12.9.66l5.72.28,3.65.18.57,0,.9.05c.33,0,.46.15.46.48V27c0,1.79,0,3.58,0,5.36a.74.74,0,0,1-.45.77A3.86,3.86,0,0,0,39,37.07c0,.25,0,.5,0,.77v.54l-.15,0a4.16,4.16,0,0,0-3.56.54,5.5,5.5,0,0,0-.89.85.49.49,0,0,1-.65.17,3.86,3.86,0,0,0-5.34,2.23,2.12,2.12,0,0,1-.11.21l-.06.1-.05.08-.09,0a3.88,3.88,0,0,0-3,.09A3.79,3.79,0,0,0,22.71,46.19Zm26.82,1.1v2.6c0,2.13,0,4.33,0,6.5v.19A10.19,10.19,0,0,1,49,60.15a12.47,12.47,0,0,1-11.51,8A12.94,12.94,0,0,1,35.65,68a12.41,12.41,0,0,1-10.08-8.9,14.46,14.46,0,0,1-.44-3.42c-.05-2.26,0-4.56,0-6.79,0-.84,0-1.68,0-2.52a1.45,1.45,0,0,1,1.43-1.59,1.42,1.42,0,0,1,1,.4A1.69,1.69,0,0,1,28,46.37V53a1.23,1.23,0,0,0,.8,1.23A1.28,1.28,0,0,0,30,54.09a1.23,1.23,0,0,0,.51-1c0-1.4,0-2.8,0-4.19V43.59A1.47,1.47,0,0,1,31.93,42h0a1.41,1.41,0,0,1,1,.4,1.61,1.61,0,0,1,.44,1.16v8a1.28,1.28,0,0,0,.57,1.1,1.22,1.22,0,0,0,1.16.08,1.17,1.17,0,0,0,.73-1.16V42.21a1.44,1.44,0,0,1,1.45-1.52h0a1.42,1.42,0,0,1,1,.4,1.54,1.54,0,0,1,.43,1.11v3.3q0,3.07,0,6.13a1.3,1.3,0,0,0,.61,1.14,1.23,1.23,0,0,0,1.22,0,1.2,1.2,0,0,0,.62-1.16V42.34c0-1.83,0-3.72,0-5.58A1.5,1.5,0,0,1,42,35.43a1.38,1.38,0,0,1,1.44,0,1.41,1.41,0,0,1,.7,1.3V54.4a1.22,1.22,0,0,0,1.22,1.26h0a1.23,1.23,0,0,0,.85-.35,1.26,1.26,0,0,0,.37-.92V53c0-.86,0-1.75,0-2.62a4.14,4.14,0,0,1,2.52-3.82l.14,0,.13,0,.15,0ZM68.94,46q0,5.13,0,10.26v.31c0,.25,0,.38-.08.48a.42.42,0,0,1-.33.09l-.33,0H68l-6.82-.35-4.29-.22c-1.3-.07-2.64-.14-4-.18-.52,0-.61-.26-.61-.69q0-4.7,0-9.4V45.13A1.52,1.52,0,0,0,52,44a1.55,1.55,0,0,0-1.18-.32,6.62,6.62,0,0,0-3.36,1.08l-.17.09-.16.07-.17.09V42.21c0-.58,0-1.16,0-1.74,0-1.39,0-2.83-.07-4.23a3.47,3.47,0,0,0-2.24-3.12.6.6,0,0,1-.44-.6c0-5.63,0-10.22,0-14.48,0-.5.23-.61.61-.63L53.11,17l5.33-.27,9.83-.49c.29,0,.46,0,.56.08s.11.25.11.56Z"/><path d="M51.57,29.64l1.62-.09,3.22-.16L63.33,29a1.25,1.25,0,0,0,1.29-1.28,1.22,1.22,0,0,0-.38-.89,1.41,1.41,0,0,0-1-.34h-.07l-1.55.08-1,.06-4.38.22-6.58.34a1.28,1.28,0,0,0-1.26,1.28,1.26,1.26,0,0,0,1.31,1.22h0l.76,0,.43,0h0Z"/><path d="M53.84,32.48l-4.22.22a1.22,1.22,0,0,0-1.15,1.24,1.27,1.27,0,0,0,1.21,1.25,5.61,5.61,0,0,0,.58,0h.27l4.84-.25,7.92-.41a1.25,1.25,0,0,0,1.32-1.28,1.22,1.22,0,0,0-.38-.89,1.37,1.37,0,0,0-.94-.34H63.2L56,32.37Z"/><path d="M58.87,21.32l-9,.45a3.54,3.54,0,0,0-.47.07,1.2,1.2,0,0,0-.74.55,1.27,1.27,0,0,0,1.14,1.9c1.11,0,2.24-.1,3.33-.16l1.58-.08L58,23.88l5.32-.26a1.25,1.25,0,0,0,1.27-1.3,1.23,1.23,0,0,0-.39-.89,1.32,1.32,0,0,0-1-.33l-.82,0-.53,0v0Z"/><path d="M22.46,34.51l7.47.39,2.8.14.94.05,2.29.1H36a1.17,1.17,0,0,0,1.3-1.07,1.23,1.23,0,0,0-1.21-1.42c-.67-.05-1.35-.08-2-.11l-1,0-3.23-.17L22.59,32a1.35,1.35,0,0,0-1,.33,1.27,1.27,0,0,0-.4.87A1.31,1.31,0,0,0,22.46,34.51Z"/><path d="M21.51,28.55a1.38,1.38,0,0,0,.93.47l3.44.19,8.31.43.43,0a15,15,0,0,0,1.64,0,1.14,1.14,0,0,0,1.08-1.31,1.21,1.21,0,0,0-1.15-1.16l-7.69-.4L25,26.64l-2.45-.11H22.5a1.26,1.26,0,0,0-1.31,1.15A1.21,1.21,0,0,0,21.51,28.55Z"/><path d="M21.34,22.88a1.4,1.4,0,0,0,1.31.7l9.38.5,2.51.15.37,0,1.19.05h0a1.17,1.17,0,0,0,1.2-1,1.23,1.23,0,0,0-1-1.46c-.41-.06-.84-.08-1.25-.1h-.17l-4.76-.25-2.36-.12L26,21.26l-3.46-.17a1.3,1.3,0,0,0-1.2.59A1.2,1.2,0,0,0,21.34,22.88Z"/></svg>