<svg id="Layer_1" data-name="Layer 1" xmlns="http://www.w3.org/2000/svg" viewBox="0 0 85.04 85.04"><path d="M59.63,68.79c-.61,1.55-1.19,3.09-1.81,4.61A2.79,2.79,0,0,1,53.93,75a3.82,3.82,0,0,1-1.43-1.42c-2.4-4-4.74-8.13-7.08-12.22a2.4,2.4,0,0,0-1.21-1,5.17,5.17,0,0,0-4.63.22,1.53,1.53,0,0,0-.57.61c-2.4,4.15-4.81,8.3-7.19,12.46a2.9,2.9,0,0,1-2.7,1.66,2.76,2.76,0,0,1-2.65-1.9c-.6-1.51-1.19-3-1.8-4.58-1.59.24-3.18.45-4.76.71a2.9,2.9,0,0,1-3.05-4.39q3.34-5.79,6.69-11.59c.22-.39.6-.89.5-1.23a5.68,5.68,0,0,0-1-2,4.63,4.63,0,0,0-1.39-1,5.57,5.57,0,0,1-3-6.51A4.49,4.49,0,0,0,17.86,39c-.15-.19-.27-.4-.41-.61A5.38,5.38,0,0,1,17.53,32a5.94,5.94,0,0,0,1.07-4.65,5.28,5.28,0,0,1,3-6.1,5.06,5.06,0,0,0,2.56-3.33,5.19,5.19,0,0,1,5.15-4.34,5.68,5.68,0,0,0,4.15-2.07C35.37,9.4,37.22,9,39.84,10a5.7,5.7,0,0,0,4.63,0C47.09,9,48.94,9.4,50.8,11.5A5.75,5.75,0,0,0,55,13.56a5.13,5.13,0,0,1,5.1,4.22,5.43,5.43,0,0,0,2.72,3.52c2.71,1.57,3.32,3.36,2.9,6.24a5.31,5.31,0,0,0,.88,4.11,5.53,5.53,0,0,1,0,7.17,5.11,5.11,0,0,0-.87,4.11,5.47,5.47,0,0,1-2.95,6.29,4.56,4.56,0,0,0-2.42,2.64A1.27,1.27,0,0,0,60.41,53c2.34,4,4.64,8,7,12.05A2.93,2.93,0,0,1,67.6,68a2.87,2.87,0,0,1-3,1.58ZM62.9,26.33a2.39,2.39,0,0,0-1.52-2.51,8,8,0,0,1-4.12-5.25c-.51-1.78-.9-2.05-2.71-2.16a7.71,7.71,0,0,1-5.7-2.78c-1.18-1.37-2-1.54-3.6-.81a7.37,7.37,0,0,1-6.21,0c-1.64-.72-2.38-.51-3.61.82,0,0-.09.09-.13.15a7,7,0,0,1-5.5,2.6,2.6,2.6,0,0,0-2.75,2.07,3.88,3.88,0,0,0-.14.45,7.28,7.28,0,0,1-3.77,4.79c-1.61.88-2,1.58-1.65,3.39A7.79,7.79,0,0,1,20,33.39a2.81,2.81,0,0,0,0,3.7,7.84,7.84,0,0,1,1.43,6.39c-.32,1.81.06,2.39,1.51,3.2a8.09,8.09,0,0,1,4,5.16c.47,1.68.88,2.1,2.81,2.22a7.44,7.44,0,0,1,5.45,2.59c1.41,1.63,2,1.72,4,.94A6.49,6.49,0,0,1,43,57a18.71,18.71,0,0,1,2.42.73,2.52,2.52,0,0,0,3.33-.8c.08-.08.15-.17.22-.25a7.34,7.34,0,0,1,5.5-2.64c1.93-.13,2.3-.51,2.77-2.17a8,8,0,0,1,4.13-5.24,2.64,2.64,0,0,0,1.46-3.12,6.86,6.86,0,0,1,1-5.76,3.67,3.67,0,0,0,0-5.08,5.71,5.71,0,0,1-1.17-4C62.73,27.88,62.82,27.11,62.9,26.33ZM25.75,55.52,19.31,66.68l5.76-.87a1.53,1.53,0,0,1,2,1.11c.62,1.57,1.23,3.15,1.85,4.73.08.21.19.41.32.69L35.8,60.92c-1-.91-2-1.68-2.87-2.56A4.34,4.34,0,0,0,29.84,57,6.58,6.58,0,0,1,25.75,55.52Zm32.8,0A6.77,6.77,0,0,1,54.29,57a4.09,4.09,0,0,0-2.8,1.24c-.93.91-1.93,1.74-3,2.68,2.12,3.68,4.34,7.51,6.6,11.44.13-.31.23-.52.32-.74.63-1.6,1.24-3.2,1.88-4.79a1.5,1.5,0,0,1,1.9-1c1.89.3,3.79.57,5.79.87C62.82,62.91,60.7,59.23,58.55,55.52Z"/><path d="M42.13,18.05A17.19,17.19,0,1,1,25,35.63,17.29,17.29,0,0,1,42.13,18.05ZM27.88,35.2A14.28,14.28,0,1,0,42.43,21,14.25,14.25,0,0,0,27.88,35.2Z"/><path d="M41.91,37.28l3.47-5.2c.41-.62.8-1.24,1.23-1.84a1.43,1.43,0,0,1,2.09-.47,1.46,1.46,0,0,1,.3,2.08Q46.22,36,43.43,40.2a1.44,1.44,0,0,1-2.39.25Q39,38.44,37,36.38a1.45,1.45,0,1,1,2-2C40,35.29,40.91,36.26,41.91,37.28Z"/></svg>