<svg id="Layer_1" data-name="Layer 1" xmlns="http://www.w3.org/2000/svg" viewBox="0 0 85.04 85.04"><path d="M73.87,43V73.12c0,1.11-.26,1.38-1.38,1.38-1.52,0-3,0-4.55,0a3.07,3.07,0,0,1-1.08-.23c-2.84-1.2-5.66-2.43-8.5-3.63a2.84,2.84,0,0,0-1-.14H12.65c-.31,0-.62,0-.92,0a.92.92,0,0,1-.94-1c0-.1,0-.2,0-.3V16.85c0-1.18.22-1.4,1.41-1.4H56.66A6.1,6.1,0,0,0,59.22,15c2.59-1.16,5.22-2.26,7.83-3.37a1.88,1.88,0,0,1,.74-.15h4.86c.88,0,1.22.35,1.22,1.24Zm-61.19,0v25c0,.72,0,.72.73.72H56.69c.68,0,.68,0,.68-.68V18c0-.7,0-.7-.71-.7H13.48c-.8,0-.8,0-.8.81ZM66.62,13.84l-.93.38c-1.92.83-3.84,1.68-5.77,2.47a1,1,0,0,0-.73,1.08q0,23.07,0,46.14c0,1.5,0,3,0,4.5a.65.65,0,0,0,.47.72c1.59.66,3.16,1.35,4.74,2l2.21.94ZM68.56,43V71.73a1.45,1.45,0,0,0,0,.51c.06.14.22.35.34.35.91,0,1.81,0,2.71,0,.13,0,.3-.21.35-.36a1.74,1.74,0,0,0,0-.56V15.43c0-.51,0-1,0-1.53s-.12-.62-.58-.6a21.11,21.11,0,0,1-2.25,0c-.51,0-.61.17-.61.65Q68.57,28.46,68.56,43Z"/><path d="M35,65.16H17.36c-.94,0-1.25-.3-1.25-1.25V55.27c0-.89.21-1.14,1.09-1.27a1.82,1.82,0,0,0,1.6-1.72c0-.44,0-.89,0-1.33s-.13-.43-.43-.42H17.05a.89.89,0,0,1-.94-.93c0-3.52,0-7.05,0-10.58a1,1,0,0,1,.87-1,1.85,1.85,0,0,0,1.83-2.18c0-1.29,0-1.29-1.3-1.29s-1.4-.24-1.4-1.4V22c0-1,.28-1.27,1.24-1.27H52.76c.85,0,1.12.29,1.12,1.15V33.37c0,1-.24,1.2-1.2,1.2-.31,0-.62,0-.92,0s-.55.1-.53.49,0,.92,0,1.37A1.67,1.67,0,0,0,52.76,38c1,.19,1.12.34,1.12,1.34q0,5,0,10c0,.89-.27,1.16-1.16,1.17h-1c-.31,0-.48.09-.47.43s0,1,0,1.43A1.7,1.7,0,0,0,52.81,54c.91.15,1.07.33,1.07,1.27q0,4.37,0,8.74c0,.88-.28,1.16-1.16,1.16Zm0-16.47H51.58c.35,0,.48-.14.48-.49,0-2.66,0-5.31,0-8a.51.51,0,0,0-.4-.56,3.49,3.49,0,0,1-1.84-1.61,4.76,4.76,0,0,1-.44-2.68c0-.8,0-.8-.82-.8h-27c-.88,0-.88,0-.88.85,0,.29,0,.58,0,.87a3.44,3.44,0,0,1-2.18,3.33.64.64,0,0,0-.47.71c0,2.54,0,5.08,0,7.62,0,.73,0,.73.72.73Zm0,14.63c5.45,0,10.9,0,16.35,0,.49,0,.68-.12.68-.65q0-3.19,0-6.39a.68.68,0,0,0-.49-.71,3.45,3.45,0,0,1-2.19-3.22c0-.36,0-.72,0-1.07,0-.76,0-.76-.77-.76H21.13c-.35,0-.5.13-.48.48s0,.85,0,1.27a3.45,3.45,0,0,1-2.22,3.31.61.61,0,0,0-.44.68q0,3.19,0,6.39c0,.66,0,.66.69.66Zm0-40.71H18.63c-.48,0-.65.12-.65.63,0,2.86,0,5.72,0,8.58,0,.95-.16.92.89.92H51.38c.67,0,.67,0,.67-.7V23.35c0-.74,0-.74-.73-.74Z"/></svg>