<svg id="Layer_1" data-name="Layer 1" xmlns="http://www.w3.org/2000/svg" viewBox="0 0 85.04 85.04"><path d="M13.58,72.6a1.78,1.78,0,0,1-.81-1.74c.05-1.3,0-2.6,0-3.9,0-1.13.15-1.35,1.2-1.79v-.66c0-5.31,0-10.63,0-15.94a8.81,8.81,0,0,1,2.13-6.07,8.62,8.62,0,0,1,5.22-2.86V38.9c0-6.94,0-13.88,0-20.82A5.3,5.3,0,0,1,21.7,16,3.44,3.44,0,0,1,25,13.88c1.14,0,2.29,0,3.44,0,11,0,21.94,0,32.91,0a3.9,3.9,0,0,1,4.07,4.09c0,9.44,0,18.88,0,28.33v.6h-2.5V18c0-1.34-.35-1.7-1.68-1.7H25.51c-1.31,0-1.72.4-1.72,1.7V57.36l.48-.44c1.56-1.56,3.1-3.13,4.67-4.66a4.64,4.64,0,0,1,7.06.29,4.48,4.48,0,0,1,.63,4.84c-.06.16-.14.31-.23.52H47v2.48H34.69a1.29,1.29,0,0,0-1,.4c-1.32,1.36-2.66,2.68-4,4l-.35.37c.05,0,.08.08.11.08,1.39,0,1.69.37,1.69,1.76s0,2.57,0,3.85a1.77,1.77,0,0,1-.82,1.74Zm7.75-30.42a6,6,0,0,0-3.65,2.33,6.27,6.27,0,0,0-1.22,3.91q0,8.14,0,16.29v.51a2.2,2.2,0,0,0,.27,0c2.89,0,5.78,0,8.66,0A1.06,1.06,0,0,0,26,65c1.35-1.33,2.68-2.67,4-4s2.58-2.55,3.85-3.85a2.2,2.2,0,0,0,0-3.18,2.26,2.26,0,0,0-3.27.19l-7,7a1.3,1.3,0,0,1-1.49.43,1.33,1.33,0,0,1-.79-1.34c0-.17,0-.34,0-.52V42.18Zm7.31,25.6H15.3v2.31H28.64Z"/><path d="M50.29,72.6a1.78,1.78,0,0,1-.81-1.74c0-1.74,0-3.48,0-5.22,0-1,.18-1.28,1.07-1.62-.28-.7-.62-1.37-.83-2.09a5.65,5.65,0,0,1-.23-1.69c0-5.62,0-11.24,0-16.86a3.66,3.66,0,0,1,7.26-.81,5,5,0,0,1,.08,1v4.52h.79c2.73,0,5.47,0,8.2.06a6,6,0,0,1,5.58,4.91,1.89,1.89,0,0,0,.11.25v7.92l-1,2.65,1,1V72.6ZM52,52.06h0c0,2.88,0,5.77,0,8.66A3.47,3.47,0,0,0,55.33,64c3.45,0,6.92,0,10.38,0A3.46,3.46,0,0,0,69,60.74c.07-2.15,0-4.31,0-6.47a3.44,3.44,0,0,0-.11-.91,3.67,3.67,0,0,0-3.79-2.78H56c-1.14,0-1.58-.44-1.59-1.6v-4.7a9.63,9.63,0,0,0,0-1.2,1.17,1.17,0,0,0-1.18-1A1.14,1.14,0,0,0,52,43.11a5.31,5.31,0,0,0,0,.69ZM69,66.55H52v3.53H69Z"/><path d="M42.15,31h2.43c0,.25,0,.49,0,.73q0,6.15,0,12.32a.81.81,0,0,0,.51.87,3.62,3.62,0,0,1,1.8,4.18,3.68,3.68,0,0,1-7.15-.17,3.65,3.65,0,0,1,1.91-4,.72.72,0,0,0,.48-.77c0-4.15,0-8.29,0-12.44Zm2.41,17.13a1.22,1.22,0,0,0-1.21-1.2,1.29,1.29,0,0,0-1.19,1.18,1.23,1.23,0,0,0,1.2,1.22A1.18,1.18,0,0,0,44.56,48.12Z"/><path d="M32.38,48.12H29.89c0-1.13,0-2.23,0-3.34a.72.72,0,0,0-.45-.74,3.66,3.66,0,0,1,0-6.52.64.64,0,0,0,.41-.69c0-1.72,0-3.44,0-5.16V31h2.49v1.73c0,1.38,0,2.75,0,4.13a.6.6,0,0,0,.4.64,3.52,3.52,0,0,1,2,3.22,3.48,3.48,0,0,1-2,3.3.74.74,0,0,0-.45.8C32.4,45.91,32.38,47,32.38,48.12Zm-.07-7.31A1.18,1.18,0,1,0,30,40.74a1.18,1.18,0,1,0,2.35.07Z"/><path d="M43.36,28.64a16.73,16.73,0,0,1-2.36-.3A3.52,3.52,0,0,1,38.48,25c0-.78,0-1.57,0-2.35A3.67,3.67,0,0,1,42,18.78a27.42,27.42,0,0,1,3.27,0,3.49,3.49,0,0,1,3,3.19,16.78,16.78,0,0,1-.12,3.82,3.43,3.43,0,0,1-3.51,2.71H43.37Zm-2.41-5c0,.37,0,.73,0,1.09,0,.91.44,1.33,1.34,1.36.73,0,1.45,0,2.18,0a1.23,1.23,0,0,0,1.34-1.37c0-.7,0-1.41,0-2.12a1.26,1.26,0,0,0-1.3-1.37,21.87,21.87,0,0,0-2.29,0A1.23,1.23,0,0,0,41,22.55C40.93,22.91,41,23.27,41,23.63Z"/><path d="M60.59,23.66a17.6,17.6,0,0,1-.32,2.42A3.49,3.49,0,0,1,57,28.54c-.8,0-1.61,0-2.41,0A3.67,3.67,0,0,1,50.73,25c0-.9,0-1.79,0-2.69a3.63,3.63,0,0,1,3.59-3.58,16.69,16.69,0,0,1,3.47.17,3.45,3.45,0,0,1,2.72,3.51v1.2Zm-2.59,0h0c0-.38,0-.76,0-1.15a1.23,1.23,0,0,0-1.33-1.31c-.73,0-1.45,0-2.18,0a1.25,1.25,0,0,0-1.34,1.32c0,.75,0,1.5,0,2.24a1.2,1.2,0,0,0,1.29,1.29c.82,0,1.65,0,2.47,0A1.06,1.06,0,0,0,58,25C58,24.56,58,24.12,58,23.68Z"/><path d="M31.11,28.5a10.83,10.83,0,0,1-1.89,0,3.54,3.54,0,0,1-2.95-3.28,17,17,0,0,1,0-3,3.59,3.59,0,0,1,3.47-3.39,32.19,32.19,0,0,1,3.26,0,3.51,3.51,0,0,1,3,3.34,17.26,17.26,0,0,1-.07,3.37,3.56,3.56,0,0,1-3.4,3H31.11Zm2.44-4.81h0V22.6a1.24,1.24,0,0,0-1.28-1.38,21.87,21.87,0,0,0-2.29,0,1.23,1.23,0,0,0-1.27,1.38c0,.74,0,1.49,0,2.23a1.14,1.14,0,0,0,1.15,1.23c.86,0,1.72,0,2.58,0a1.12,1.12,0,0,0,1.1-1.16C33.57,24.49,33.55,24.09,33.55,23.69Z"/><path d="M60.46,38.33H50.74V35.92h9.72Z"/><path d="M60.48,31v2.44H50.74V31Z"/></svg>