<svg id="Layer_1" data-name="Layer 1" xmlns="http://www.w3.org/2000/svg" viewBox="0 0 85.04 85.04"><path d="M10.54,43.51V13.38c0-1.15.29-1.45,1.42-1.45H72.42c1.1,0,1.42.3,1.42,1.39V73.84c0,1.06-.32,1.39-1.36,1.39H11.89c-1,0-1.35-.33-1.35-1.39ZM71.68,73.09v-59h-59v59Z"/><path d="M42.22,24.59a19,19,0,1,1-19,18.92A19,19,0,0,1,42.22,24.59ZM27.12,36.13a16.23,16.23,0,0,0,0,14.88l1.72-1,1.06,1.83-.88.53-.92.53a17.07,17.07,0,0,0,13,7.48v-2h2.1v2a17,17,0,0,0,13-7.48l-1.79-1.06L55.5,50l.93.53.88.49a16.93,16.93,0,0,0,0-14.95l-1.81,1-1-1.84,1.78-1.06a17,17,0,0,0-13-7.48v2H41.11V26.82c-5,.05-10.66,3.45-12.86,7.46l1.69,1-1.06,1.82Z"/><path d="M46.45,64.68a3.16,3.16,0,1,1-3.21,3.12A3.12,3.12,0,0,1,46.45,64.68Zm1,3.13a1.1,1.1,0,0,0-1.09-1,1.11,1.11,0,0,0-1,1,1,1,0,1,0,2.09,0Z"/><path d="M23.2,56.24a3.17,3.17,0,1,1,0,6.33,3.17,3.17,0,1,1,0-6.33Zm1,3.18a1.1,1.1,0,0,0-1-1.07,1.12,1.12,0,0,0-1.05,1,1,1,0,1,0,2.09.07Z"/><path d="M22.14,52.09A3.17,3.17,0,1,1,19,48.9,3.19,3.19,0,0,1,22.14,52.09Zm-2.11,0a1,1,0,0,0-1.09-1,1,1,0,1,0,1.09,1Z"/><path d="M63.23,52.55a3.16,3.16,0,1,1-.06,6.32,3.16,3.16,0,1,1,.06-6.32Zm-1,3.16a1.06,1.06,0,0,0,1,1,1.05,1.05,0,0,0,0-2.1A1.06,1.06,0,0,0,62.18,55.71Z"/><path d="M39.51,71a3.13,3.13,0,0,1,0-6.26Z"/><path d="M65.4,37.48a2.11,2.11,0,1,1,4.22,0,2.11,2.11,0,1,1-4.22,0Z"/><path d="M63.29,26.53a2.11,2.11,0,0,1-2.09,2.09,2.14,2.14,0,1,1,2.09-2.09Z"/><path d="M39,16.15a2.11,2.11,0,1,1-2.13,2.1A2.08,2.08,0,0,1,39,16.15Z"/><path d="M43.24,18.21a2.11,2.11,0,1,1,2.08,2.16A2.08,2.08,0,0,1,43.24,18.21Z"/><path d="M66.46,32a2.11,2.11,0,1,1-4.22,0,2.11,2.11,0,0,1,4.22,0Z"/><path d="M17.92,31.93A2.11,2.11,0,1,1,20,34.08,2.09,2.09,0,0,1,17.92,31.93Z"/><path d="M42.23,30.92A12.66,12.66,0,1,1,29.53,43.5,12.63,12.63,0,0,1,42.23,30.92ZM39,33.57c-4.84,1.31-8.05,6.55-7.24,11.7A10.54,10.54,0,0,0,52.71,44,10.33,10.33,0,0,0,45.35,33.6c0,1.17,0,2.34,0,3.5,0,.83-.38,1.2-1.21,1.2-1.28,0-2.55,0-3.83,0C39.36,38.3,39,38,39,37Zm2.15-.48v3.06h2V33.09Z"/><path d="M44.31,50.7a6.44,6.44,0,0,1,.71.54,1,1,0,0,1,.14,1.38.94.94,0,0,1-1.33.33c-1.15-.72-2.29-1.47-3.39-2.26a1,1,0,0,1-.2-1.36c.69-1.07,1.39-2.13,2.12-3.18a1,1,0,0,1,1.45-.3,1.07,1.07,0,0,1,.31,1.5c-.26.43-.56.85-.84,1.28a4.77,4.77,0,0,0,3.35-2.24,5.26,5.26,0,0,0-.29-6,2.49,2.49,0,0,1-.45-.85.93.93,0,0,1,.61-1.11,1,1,0,0,1,1.25.31,7,7,0,0,1,1.81,4.35,7.33,7.33,0,0,1-4.94,7.51Z"/></svg>