<svg id="Layer_1" data-name="Layer 1" xmlns="http://www.w3.org/2000/svg" viewBox="0 0 85.04 85.04"><defs><style>.cls-1{fill:#fff;}</style></defs><path d="M12.26,65.55a7.54,7.54,0,0,1,2.1-3c2.81-2.93,5.6-5.89,8.41-8.82A1,1,0,0,0,23,52.58a3,3,0,0,1,1.33-3.41,2.92,2.92,0,0,1,3.58.28c.54.48,1,1,1.6,1.51l3.56-3.72c.66-.7,1.32-1.41,2-2.1A3,3,0,0,1,39,44.59l16,9,3.63,2,5.37-5.6-1.36-1.42c-.5.46-1,.87-1.44,1.32a3.9,3.9,0,0,1-5.89.14q-11-10.43-22-20.86a3.85,3.85,0,0,1-.12-5.76,16.79,16.79,0,0,1,1.37-1.18c-.54-.63-.92-1.12-1.36-1.56a2,2,0,0,1-.09-3.1l1.26-1.32a2,2,0,0,1,2.86-.09c.49.44,1,.91,1.44,1.37.44-.43.87-.83,1.28-1.25,1.92-2,4.11-2,6.13-.14q10.17,9.6,20.31,19.22c.6.56,1.2,1.11,1.78,1.69a3.86,3.86,0,0,1,.14,5.39c-.48.56-1,1.08-1.55,1.66L68.74,46A5.07,5.07,0,0,1,69,53.71l-5.33,5.62a6.13,6.13,0,0,1-8.12,1.26L38.59,51.25,38,50.92,34.07,55c.52.57,1,1.13,1.48,1.64A2.87,2.87,0,0,1,36,60.18a3,3,0,0,1-3.44,1.49.77.77,0,0,0-.92.26c-3.1,3.29-6.22,6.55-9.32,9.84A5.42,5.42,0,0,1,20,73.18H18.52a5.82,5.82,0,0,1-2.73-1.73c-.46-.47-.95-.93-1.45-1.36a6,6,0,0,1-2.08-3Zm45.92-16,.09-.14a1.94,1.94,0,0,0,1.5-.69q3.46-3.64,6.94-7.31a1.94,1.94,0,0,0-.11-3.07l-22-20.82a2,2,0,0,0-3,.07l-6.82,7.19a1.94,1.94,0,0,0,.07,3.15l6.62,6.27q7.69,7.27,15.39,14.55A7.13,7.13,0,0,0,58.18,49.53ZM24.64,54.62a.7.7,0,0,0-.15.12q-4.84,5.1-9.69,10.2a2,2,0,0,0,.13,3c.88.85,1.79,1.69,2.69,2.53a2.09,2.09,0,0,0,3.32-.09q3.79-4,7.57-8l2.06-2.17ZM64,47.13c.49.46,1,.9,1.41,1.35a2,2,0,0,1,.08,3C63.76,53.28,62,55.1,60.3,56.91a2,2,0,0,1-2.72.39l-3.07-1.73Q46.32,51,38.12,46.34a1.12,1.12,0,0,0-1.7.26c-.62.64-1.23,1.29-1.84,1.94L31,52.33l1.53,1.43c1.24-1.32,2.44-2.58,3.65-3.84s1.79-1.27,3.2-.49L56.63,59A4.11,4.11,0,0,0,62,58.13l.94-1c1.57-1.65,3.15-3.3,4.71-5a2.93,2.93,0,0,0,.38-3.93,33.08,33.08,0,0,0-2.63-2.67ZM26,50.49a6.25,6.25,0,0,0-1,.95.75.75,0,0,0,.22,1l7.48,7.06a1,1,0,0,0,1.46-.07.92.92,0,0,0,0-1.44l-7.47-7.07A5,5,0,0,0,26,50.49Zm10-32.79L34.58,19,36,20.56l1.4-1.48Z"/><path class="cls-1" d="M26,50.49a5,5,0,0,1,.69.44L34.11,58a.92.92,0,0,1,0,1.44,1,1,0,0,1-1.46.07L25.2,52.45a.75.75,0,0,1-.22-1A6.25,6.25,0,0,1,26,50.49Z"/></svg>