<svg id="Layer_1" data-name="Layer 1" xmlns="http://www.w3.org/2000/svg" viewBox="0 0 85.04 85.04"><defs><style>.cls-1{fill:#fff;}</style></defs><path class="cls-1" d="M41.4,51.34v-28c0-.25,0-.5,0-.75a1.26,1.26,0,0,0-1.25-1.17,1.3,1.3,0,0,0-1.25,1.11,5.3,5.3,0,0,0,0,.69V51.35a8.68,8.68,0,1,0,2.52,0ZM27.75,60a1.33,1.33,0,0,0-1.28-1.29A1.36,1.36,0,0,0,25.19,60a1.31,1.31,0,0,0,1.26,1.25A1.29,1.29,0,0,0,27.75,60Z"/><path d="M38.63,74.92c-1.08-.26-2.18-.42-3.22-.78a14.72,14.72,0,0,1-9.11-8.53,1.32,1.32,0,0,1,.17-1.52,1,1,0,0,1,1.24-.34,2.2,2.2,0,0,1,1,1,12.85,12.85,0,0,0,4.24,5.35A12.4,12.4,0,1,0,46.37,49.28a1.72,1.72,0,0,1-1-1.67q0-14.56,0-29.13a5.28,5.28,0,1,0-10.55-.1c0,2,0,4.07,0,6.11,0,7.67,0,15.35,0,23a1.85,1.85,0,0,1-1,1.82,12.08,12.08,0,0,0-5.15,5.91c-.21.51-.48.94-1.06,1a1.26,1.26,0,0,1-1.35-1.84,14.64,14.64,0,0,1,4.11-5.77,5.36,5.36,0,0,1,1.05-.81,1.64,1.64,0,0,0,.92-1.76c0-9.18,0-18.37,0-27.55a7.8,7.8,0,0,1,15.45-1.82,11.22,11.22,0,0,1,.14,2q0,13.93,0,27.88a1,1,0,0,0,.5,1A14.52,14.52,0,0,1,55,58.51,14.93,14.93,0,0,1,42.42,74.77c-.22,0-.43.1-.65.15Z"/><path d="M60.39,41.82a2.3,2.3,0,0,1-1.81.61c-1.84,0-3.69,0-5.53,0a2.42,2.42,0,0,1-.8-.11,1.26,1.26,0,0,1,.06-2.37,2.29,2.29,0,0,1,.68-.1h5.9a1.59,1.59,0,0,1,1.5.72Z"/><path d="M60.39,24.33a1.86,1.86,0,0,1-1.6.64c-2,0-3.93,0-5.9,0-.92,0-1.45-.46-1.45-1.26s.53-1.25,1.46-1.25c2,0,4,0,6,0a1.78,1.78,0,0,1,1.54.64Z"/><path d="M60.39,30.11a1.61,1.61,0,0,1-1.4.67c-2.05,0-4.1,0-6.15,0a1.24,1.24,0,0,1-1.39-1.13,1.2,1.2,0,0,1,1.18-1.39c2.22,0,4.44,0,6.65,0,.38,0,.74.39,1.11.6Z"/><path d="M60.39,35.9a1.56,1.56,0,0,1-1.45.7h-6a1.32,1.32,0,0,1-1.45-.94,1.25,1.25,0,0,1,1.22-1.6c2.17,0,4.35,0,6.52,0,.4,0,.79.38,1.18.59Z"/><path d="M41.4,51.34a8.73,8.73,0,1,1-2.52,0V23.26a5.3,5.3,0,0,1,0-.69,1.3,1.3,0,0,1,1.25-1.11,1.26,1.26,0,0,1,1.25,1.17c0,.25,0,.5,0,.75v28Zm-1.25,2.5A6.14,6.14,0,1,0,46.3,60,6.19,6.19,0,0,0,40.15,53.84Z"/><path d="M27.75,60a1.29,1.29,0,0,1-1.3,1.26A1.31,1.31,0,0,1,25.19,60a1.36,1.36,0,0,1,1.28-1.3A1.33,1.33,0,0,1,27.75,60Z"/></svg>