<svg id="Layer_1" data-name="Layer 1" xmlns="http://www.w3.org/2000/svg" viewBox="0 0 85.04 85.04"><defs><style>.cls-1{fill:#fff;}</style></defs><path d="M47.55,76.18A8.11,8.11,0,0,1,46,75.25a2.9,2.9,0,0,1-.46-3.53,3,3,0,0,1,3.26-1.48A3,3,0,0,1,49.37,76c-.17.07-.32.16-.48.23Zm1.6-3a1,1,0,0,0-.94-1,1,1,0,0,0-1,1,1,1,0,0,0,1,1A.94.94,0,0,0,49.15,73.2Z"/><path d="M27.15,22.14V20.22h-3.8a2,2,0,0,1-2.17-2.14c0-.61,0-1.22,0-1.83a1.91,1.91,0,0,1,2-2h14A1.86,1.86,0,0,1,39.15,16a13.39,13.39,0,0,1,0,2.61,1.88,1.88,0,0,1-1.94,1.66c-1.31,0-2.61,0-4,0v1.92c.1,0,.23.09.37.12a2.05,2.05,0,0,1,1.6,2.09c0,.59,0,1.18,0,1.68a5.76,5.76,0,0,1,1.35.77,6.87,6.87,0,0,1,.84,1.39H38c2,.07,4.11,0,6.14.25a19.91,19.91,0,0,1,3.58,1.08A75.71,75.71,0,0,1,59.29,13.61c2.16,2.71,4.33,5.29,6.36,8A45.74,45.74,0,0,1,71.9,32.34a16,16,0,0,1,1.28,6.15A14,14,0,0,1,55.4,51.69l-.35-.11a.69.69,0,0,1-.17-.11l.58-1.78c.88.15,1.72.34,2.58.42A11.93,11.93,0,0,0,70.3,33.82,39.37,39.37,0,0,0,65,24.2c-1.83-2.54-3.78-5-5.74-7.55a71.17,71.17,0,0,0-9.94,14.2,11.35,11.35,0,0,1,3.05,4.2,12,12,0,0,1,.81,5.1,2.18,2.18,0,0,1,2,2.48c0,.5,0,1,0,1.52a2,2,0,0,1-2.1,2.05c-3.29,0-6.59,0-9.88,0a1.92,1.92,0,0,1-2-2c0-.59,0-1.18,0-1.77a2.06,2.06,0,0,1,2-2.24c0-.31,0-.63,0-1a.92.92,0,0,0-.95-1h-5a2,2,0,0,1-1,1.68A2.74,2.74,0,0,1,35,40.2c-3.13,0-6.27,0-9.4,0-1.55,0-2.08-.41-2.53-2H11.22v-10H23.11a2.25,2.25,0,0,1,2.05-2V24.88C25.16,23.12,25.5,22.66,27.15,22.14Zm-1.91,16h9.87V28.28H25.24Zm25.88,2a9.07,9.07,0,0,0-5.46-9.25c-2.74-1.14-5.61-.54-8.44-.73v5.94a.5.5,0,0,0,.15,0h4.7a3,3,0,0,1,3.14,3.1c0,.29,0,.59,0,.88Zm-37.88-4h9.87V30.25H13.24Zm30,8h9.93V42.27H43.22Zm-16-18h5.91V24.27H27.21Zm0-9.92h-3.7c-.11,0-.31.16-.32.26,0,.55,0,1.11,0,1.65h4Zm9.92.05h-4v1.92h3.64a2.73,2.73,0,0,0,.38,0Zm-6,5.87V20.25H29.25v1.91Zm0-4.93a1,1,0,0,0-1-1,1,1,0,1,0,0,1.94A1,1,0,0,0,31.17,17.23Z"/><path d="M61.37,59.32A5,5,0,1,1,58.93,69c-2.92-.78-4.2-3.31-3.42-6.77l-2.32-.33v6.25h-2c0-.21,0-.42,0-.63,0-2.11,0-4.23,0-6.34a1.39,1.39,0,0,0-.39-.87c-.42-.45-.93-.83-1.53-1.35v3.17h-2V58.32c-2.38-.46-3.75,1.08-5.24,2.43a3.12,3.12,0,0,1,1.2,2.16,3,3,0,0,1-.5,2A3,3,0,0,1,39.12,66c-1.46-.55-2.08-1.82-1.84-3.83-2.07,0-3.6-1.21-5-2.56a4.57,4.57,0,0,0-4.72-1.2,9,9,0,0,0-2.16,1.31,16.65,16.65,0,0,1-2.94,2,6.38,6.38,0,0,1-6.74-1.11c-.22-.18-.44-.36-.64-.55a5.14,5.14,0,0,0-3.85-1.85v-2a6.15,6.15,0,0,1,4.3,1.57c.54.45,1.06.94,1.62,1.38a4.58,4.58,0,0,0,5.79,0c.57-.45,1.1-1,1.67-1.43a6.6,6.6,0,0,1,8.56,0c.52.42,1,.88,1.53,1.31a4.6,4.6,0,0,0,6.08,0c.5-.41,1-.85,1.47-1.27a6.34,6.34,0,0,1,4.42-1.61c.15,0,.31,0,.53,0v-8h2v.73c0,2.39,0,4.79,0,7.19a.75.75,0,0,0,.47.8,16.56,16.56,0,0,1,1.49,1V48.23h2V49c0,3.33,0,6.66,0,10a.84.84,0,0,0,.68,1,4.62,4.62,0,0,0,4.29-.59c.53-.39,1-.83,1.49-1.26a6.71,6.71,0,0,1,9.42,0,12,12,0,0,0,2,1.54,12.09,12.09,0,0,0,2.13.7v1.83a5.57,5.57,0,0,1-3.71-1.11c-.73-.54-1.4-1.17-2.11-1.75A4.54,4.54,0,0,0,61.37,59.32Zm-1.22,7.85a3,3,0,1,0,.07-6,3,3,0,1,0-.07,6Zm-19-4a1,1,0,0,0-1-1,1,1,0,0,0-1,1,.93.93,0,0,0,1,.9A1,1,0,0,0,41.16,63.17Z"/><path d="M59.19,48.15V46.22a8.08,8.08,0,0,0,8-8h1.9C70.08,42.7,63.85,49,59.19,48.15Z"/><path d="M45.17,52.19h-2v-4h2Z"/><path d="M68.23,33.83l.7,2.14-2,.49-.62-1.89Z"/><path class="cls-1" d="M49.15,73.2a.94.94,0,0,1-1,1,1,1,0,0,1-1-1,1,1,0,0,1,1-1A1,1,0,0,1,49.15,73.2Z"/><path d="M15.21,34.19v-2h5.94v2Z"/></svg>