<svg id="Layer_1" data-name="Layer 1" xmlns="http://www.w3.org/2000/svg" viewBox="0 0 85.04 85.04"><defs><style>.cls-1{fill:#1d1e1b;}</style></defs><path class="cls-1" d="M73.17,58.51c-2-2-4-4-5.88-5.89a1.19,1.19,0,0,0-1.81,0,2.32,2.32,0,0,0-.37.5l-.08.13a8.3,8.3,0,0,1-2-4c-.36-2.2-.63-4.38-.8-6.46a10.94,10.94,0,0,0-3-7.31.08.08,0,0,0,0,0,.13.13,0,0,0,0-.06l.21-.18a5,5,0,0,0,.61-.61A1.72,1.72,0,0,1,61.6,34a8.07,8.07,0,0,0,1.8-.11,11.77,11.77,0,0,0,9.45-15.48c-.25-.7-.59-1.11-1-1.2s-.91.12-1.44.65l-1.48,1.49c-1.39,1.4-2.83,2.84-4.27,4.24a1.19,1.19,0,0,1-.75.3h0c-1.09-.09-2.17-.27-3-.41a.59.59,0,0,1-.35-.34c-.14-.82-.32-1.9-.41-3a1.2,1.2,0,0,1,.29-.81c1.29-1.31,2.6-2.63,3.88-3.9l2-1.94a1.52,1.52,0,0,0,.56-1.36,1.46,1.46,0,0,0-1.08-.94,11.39,11.39,0,0,0-12,2.54,11.45,11.45,0,0,0-3.68,9,1.3,1.3,0,0,1-.21.82c-1.09,1.13-2.18,2.21-3.34,3.35l-1,1L44.56,27c-.67-.7-1.36-1.43-2.08-2.1A4.31,4.31,0,0,0,35.28,27a3,3,0,0,1-.12.36l0,.07a4.38,4.38,0,0,0-4.86,6,4.41,4.41,0,0,0-2.67,1.89A4.59,4.59,0,0,0,27,38.64l-.05,0-.25.06a4.34,4.34,0,0,0-2.1,7.47l.87.83.4.37-.76.77c-.75.76-1.45,1.48-2.2,2.17a1.75,1.75,0,0,1-.94.3c-.3,0-.6,0-.9,0a7.88,7.88,0,0,0-1.08.05A11.73,11.73,0,0,0,14.73,71.9a11.75,11.75,0,0,0,6.85,2.26,10.83,10.83,0,0,0,2-.18,11.8,11.8,0,0,0,9.79-12,1.21,1.21,0,0,1,.2-.83c.75-.79,1.53-1.55,2.28-2.29l.66-.65,11.7,11.73-.1.1c-.15.16-.33.34-.49.53a1.09,1.09,0,0,0,0,1.49,19.18,19.18,0,0,0,1.68,1.7,1.15,1.15,0,0,0,1.61-.09,1.21,1.21,0,0,0,0-1.61,6.45,6.45,0,0,0-.5-.53l-.07-.08L66.56,55.18h0a3.5,3.5,0,0,0,.32.4c1.44,1.45,3,3,4.57,4.57a1.32,1.32,0,0,0,.94.41h0a1.12,1.12,0,0,0,.82-.35A1.18,1.18,0,0,0,73.17,58.51ZM39.22,55.39l2-2,1-1L49,45.6l0,0a2.64,2.64,0,0,0,.45-.55,1.18,1.18,0,0,0-1.67-1.56,2.42,2.42,0,0,0-.42.36l-.09.1-4.2,4.2C39.53,51.7,35.83,55.41,32.18,59a4,4,0,0,0-1.26,3.09A9.34,9.34,0,0,1,23,71.64a9.38,9.38,0,0,1-10.73-8.26,9.34,9.34,0,0,1,8.33-10.33,6.28,6.28,0,0,1,.75,0l.69,0h.17a3.45,3.45,0,0,0,2.57-1.13c.64-.66,1.28-1.29,2-2l.82-.81,1.07,1.08c.85.86,1.72,1.74,2.6,2.59a4.3,4.3,0,0,0,7.22-2,5.86,5.86,0,0,0,.15-1.41l0-.61a4.38,4.38,0,0,0,3.14-2.15A4.21,4.21,0,0,0,42,42.82L44,41.75l.94.22a11.16,11.16,0,0,0,2.17.4,5,5,0,0,0,3.66-1.49.94.94,0,0,1,1.36,0A1,1,0,0,1,52,42.21l-.36.36-.24.25A7.56,7.56,0,0,0,51,53.14a13.93,13.93,0,0,0,1.07,1.09,1.19,1.19,0,1,0,1.68-1.69l-.44-.45-.39-.4a5.1,5.1,0,0,1,0-7l.48-.5c.18-.18.35-.37.52-.56a3.28,3.28,0,0,0,0-4.43,3.38,3.38,0,0,0-4.37-.45c-.15.11-.29.23-.43.35l-.19.16a3,3,0,0,1-3.9,0,1.13,1.13,0,0,1-.43-.78,1,1,0,0,1,.34-.75c1.9-1.92,3.47-3.51,5.14-5.13a1.92,1.92,0,0,1,2.79,0c1.95,1.89,3.52,3.46,4.94,5a7.43,7.43,0,0,1,1.93,4.56l.07.68c.21,2.1.43,4.28.75,6.4a11,11,0,0,0,2.61,5.56L50,67.93,38.33,56.28Zm-6.38-25a2,2,0,0,1,1.4-.62h0a1.89,1.89,0,0,1,1.35.55C37.84,32.5,40,34.7,42.25,37a1.08,1.08,0,0,1,.08.55c0,.19,0,.4,0,.6a3.53,3.53,0,0,0,0,1.17c.17.61,0,.81-.52,1a3.13,3.13,0,0,1-.62.15l-.4.09a3.36,3.36,0,0,0-.33-.16,3.24,3.24,0,0,1-.88-.52c-2.38-2.32-4.71-4.67-6.67-6.66A2,2,0,0,1,32.84,30.41ZM57.62,20c.2,1.27.38,2.57.56,3.83l.08.59a1.33,1.33,0,0,0,1.28,1.31l1.27.18,3.23.47a2,2,0,0,0,1.88-.61c1.11-1.16,2.26-2.31,3.38-3.42L70.57,21l.32-.31,0,0a9,9,0,0,1-.45,4.81,9.17,9.17,0,0,1-8.53,6h-.11A4.53,4.53,0,0,0,58,33.18l-.55.68-2.78-2.79a4.27,4.27,0,0,0-3.05-1.41,4.44,4.44,0,0,0-.62.05,9.32,9.32,0,0,0-1.86.59c-.25.11-.5.21-.77.3l-1.14-1.16a2.51,2.51,0,0,1,.23-.25l1-1c.9-.91,1.84-1.86,2.78-2.77a3.77,3.77,0,0,0,1.18-2.93,9.29,9.29,0,0,1,7.32-9.45A8.53,8.53,0,0,1,63.29,13L62,14.34C60.7,15.61,59.5,16.82,58.26,18A2,2,0,0,0,57.62,20ZM43.93,35.21l-.15-.13-1.32-1.31c-1.42-1.42-2.89-2.88-4.32-4.34a1.89,1.89,0,0,1-.4-2.28,1.85,1.85,0,0,1,1.67-1.06l.26,0a1.93,1.93,0,0,1,1.11.46c1.53,1.49,3,3,4.51,4.53l1.37,1.38ZM40.1,44.38a2.28,2.28,0,0,1-1.3,1.87,1.84,1.84,0,0,1-2.17-.4c-1-1-2.08-2.07-3.09-3.08L31.81,41c-.61-.61-1.24-1.24-1.84-1.86a2,2,0,0,1,1.28-3.43h0a2,2,0,0,1,1.45.63c1.83,1.8,4.23,4.18,6.61,6.63a3.14,3.14,0,0,1,.55.93C40,44.09,40,44.24,40.1,44.38Zm-4.56,3.81a3.24,3.24,0,0,1,.59,1,2,2,0,0,0,.12.25c-.06,1.13-.42,1.75-1.18,2.06a1.89,1.89,0,0,1-2.18-.39c-.87-.86-1.74-1.73-2.6-2.6l-1.22-1.22-.89-.89c-.64-.64-1.28-1.27-1.91-1.91a2,2,0,0,1-.12-2.89A1.94,1.94,0,0,1,27.52,41h0a2.15,2.15,0,0,1,1.52.66l.3.3C31.39,44,33.51,46.08,35.54,48.19Z"/><path class="cls-1" d="M27.11,58A1.43,1.43,0,0,0,26,56.85c-2-.52-3.81-1-5.46-1.47a1.41,1.41,0,0,0-1.5.39l-1.29,1.3c-.91.9-1.85,1.84-2.76,2.77a2.26,2.26,0,0,0-.37.56,1.5,1.5,0,0,1-.09.18l0,0v0c0,.09,0,.17,0,.23a1.59,1.59,0,0,0,0,.26l.36,1.36c.39,1.47.79,3,1.24,4.47a1.62,1.62,0,0,0,1,.9c1.41.42,2.85.8,4.25,1.17l1.21.32a2,2,0,0,0,.52.07,1.25,1.25,0,0,0,.94-.4l2.2-2.2,1.95-2a1.34,1.34,0,0,0,.36-1.39C28,61.37,27.53,59.62,27.11,58Zm-1.23,5.87c-.94,1-1.9,1.93-2.84,2.83a.74.74,0,0,1-.56.14c-1.38-.34-2.64-.68-3.86-1a.78.78,0,0,1-.45-.44c-.37-1.23-.7-2.49-1-3.86a.72.72,0,0,1,.16-.56c.87-.91,1.77-1.8,2.65-2.67l.18-.18a1.65,1.65,0,0,1,.27-.19l.06,0,.94.25c1.16.31,2.26.6,3.36.91a.6.6,0,0,1,.24.35c.35,1.24.72,2.57,1.05,3.93A.72.72,0,0,1,25.88,63.85Z"/></svg>