<svg id="Layer_1" data-name="Layer 1" xmlns="http://www.w3.org/2000/svg" viewBox="0 0 85.04 85.04"><path d="M27.13,53.38H13.85c0-10.65,4.08-19.15,12.82-25.25a28.52,28.52,0,0,1,31.59-.5c9.24,6,13.61,14.72,13.6,25.75H58.58a15.68,15.68,0,0,0-6.21-13.8,15,15,0,0,0-10.14-3.2,15.28,15.28,0,0,0-11.15,5.29A15.71,15.71,0,0,0,27.13,53.38Zm-2.62-2.61a17.69,17.69,0,0,1,2.94-8.72L21.8,36.37a25.89,25.89,0,0,0-5.22,14.4ZM63.79,36.35,58.23,41.9c.66,1.42,1.43,2.81,2,4.29s.78,3,1.15,4.58H69A26.28,26.28,0,0,0,63.79,36.35Zm-14.54-9.8a25.2,25.2,0,0,0-12.79,0l2.2,7.69a15.47,15.47,0,0,1,8.4-.12ZM29.19,39.6c1-.86,2-1.79,3.14-2.56s2.34-1.35,3.5-2a.62.62,0,0,0,.19-.52c-.36-1.32-.75-2.64-1.13-3.95L34,27.3a26.6,26.6,0,0,0-10.27,6.8ZM62,34.17a27.17,27.17,0,0,0-10.26-6.78L49.56,35a19.15,19.15,0,0,1,6.89,4.78Z"/><path d="M48.89,43.75c-.55,2.29-1.08,4.52-1.61,6.76s-1.13,4.69-1.69,7A5.52,5.52,0,0,1,40.52,62a5.43,5.43,0,0,1-5.39-3.72,5.11,5.11,0,0,1,1.92-6.17c3.86-2.8,7.76-5.54,11.64-8.31A1.32,1.32,0,0,1,48.89,43.75Zm-4.28,6.37-.12-.07c-2,1.44-4,2.86-6,4.34a2.48,2.48,0,0,0-.75,3.13,2.88,2.88,0,0,0,2.68,1.79A2.68,2.68,0,0,0,43,57c.26-1.09.53-2.18.79-3.27S44.32,51.34,44.61,50.12Z"/></svg>