<svg id="Layer_1" data-name="Layer 1" xmlns="http://www.w3.org/2000/svg" viewBox="0 0 85.04 85.04"><path d="M15.9,34.72V25.64a1.32,1.32,0,0,1,1.51-1.51c2.58,0,5.17,0,7.76,0a1.62,1.62,0,0,1,1.63,1.62c-.05,1,0,1.92,0,2.88,0,.26.09.34.34.34h9.26a.73.73,0,0,0,.7-.48A3,3,0,0,1,38.74,27a4.39,4.39,0,0,1,1-.19c.18,0,.26-.08.26-.26,0-1.56,0-3.12,0-4.68,0-.15-.05-.23-.22-.23a1.09,1.09,0,0,0-.92.31,4.73,4.73,0,0,1-2.94,1.35,5.17,5.17,0,0,1-5.26-3.16,5.1,5.1,0,0,1,1.51-5.91,5,5,0,0,1,3.65-1.16,4.82,4.82,0,0,1,3.09,1.41.87.87,0,0,0,.65.26H48a.8.8,0,0,0,.6-.25A5.11,5.11,0,1,1,53.92,23a4.83,4.83,0,0,1-5.29-1.07,1.15,1.15,0,0,0-1-.26c-.06,0-.14.19-.14.29,0,1.15,0,2.29,0,3.44,0,.38,0,.76,0,1.15,0,.19.05.28.26.28a2.94,2.94,0,0,1,2.83,1.87,1,1,0,0,0,.77.59A24.88,24.88,0,0,1,60,32.84a19.45,19.45,0,0,1,7,7.84,18.1,18.1,0,0,1,1.48,4.2,23.93,23.93,0,0,1,.56,3.44,3.54,3.54,0,0,1-2.7,3.76,10.58,10.58,0,0,1-3.92.4,4.39,4.39,0,0,1-4.23-3.56,12,12,0,0,0-2.8-5.3,7.8,7.8,0,0,0-4.14-2.36c-.23,0-.47-.07-.69-.14a1,1,0,0,0-1,.3,9.62,9.62,0,0,1-4.08,2.29,6.56,6.56,0,0,1-5.44-1,17.88,17.88,0,0,1-1.85-1.53,1,1,0,0,0-.7-.29H27.18c-.4,0-.4,0-.41.4V44a1.22,1.22,0,0,1-1.34,1.33H17.37a1.29,1.29,0,0,1-1.46-1.46c0-1.64,0-3.28,0-4.91ZM32,31.64h-4.7c-.39,0-.39,0-.39.39v5.88c0,.44,0,.44.43.44H37.7a3.35,3.35,0,0,1,2.35.93c.27.25.53.52.81.76a4.52,4.52,0,0,0,4.63.92,7.88,7.88,0,0,0,3-2.05A1.67,1.67,0,0,1,50,38.36a12.67,12.67,0,0,1,3.54.77A11.56,11.56,0,0,1,59.68,45,19.76,19.76,0,0,1,61,48.5a1.66,1.66,0,0,0,1.41,1.28c1,0,2,0,2.94,0A1.61,1.61,0,0,0,66.75,48a19.83,19.83,0,0,0-1.14-4.55,17.12,17.12,0,0,0-3.89-6,19.74,19.74,0,0,0-5.12-3.65,22.51,22.51,0,0,0-6-2,3,3,0,0,1-2.43-1.91.58.58,0,0,0-.63-.37c-2.51,0-5,0-7.52,0a.84.84,0,0,0-.82.48,3,3,0,0,1-2.77,1.66Zm-7.77,3.17h0V27.06c0-.26-.06-.36-.34-.36-1.67,0-3.33,0-5,0-.27,0-.37.07-.37.36q0,7.77,0,15.54c0,.28.1.35.36.35h5c.42,0,.42,0,.42-.43Zm19.5-15.74h0c1.64,0,3.29,0,4.94,0a1.47,1.47,0,0,1,1.35.67,2.6,2.6,0,0,0,3,.85,2.52,2.52,0,0,0,1.59-2.94,2.45,2.45,0,0,0-2-2,2.51,2.51,0,0,0-2.52.94,1.37,1.37,0,0,1-1.1.57H38.48a1.14,1.14,0,0,1-1-.54,2.64,2.64,0,0,0-2.69-.91,2.54,2.54,0,1,0,1.41,4.88,2.76,2.76,0,0,0,1.24-.91,1.72,1.72,0,0,1,1.41-.64C40.44,19.08,42.08,19.07,43.72,19.07Zm-1.18,5.15c0,.77,0,1.53,0,2.29,0,.23.07.32.3.31.59,0,1.18,0,1.76,0,.23,0,.31-.08.31-.3q0-2.3,0-4.59c0-.21-.07-.29-.29-.29H42.83c-.22,0-.29.08-.29.29C42.55,22.7,42.55,23.46,42.54,24.22Z"/><path d="M59.31,66.07a12.67,12.67,0,0,1,1.06-4.47,29.89,29.89,0,0,1,2.76-5.1,1.3,1.3,0,0,1,2.24-.06,25.07,25.07,0,0,1,2.79,4.91,14.87,14.87,0,0,1,1,3.24,6,6,0,0,1-.4,4,4.49,4.49,0,0,1-3.09,2.32,5.41,5.41,0,0,1-4.21-.65,4.12,4.12,0,0,1-2-2.87C59.4,67,59.37,66.51,59.31,66.07Zm5.1-6.64-.16.23a20.14,20.14,0,0,0-1.82,3.84A7.29,7.29,0,0,0,62,66.2a2,2,0,0,0,1.13,1.85,3.06,3.06,0,0,0,2.39.13,1.78,1.78,0,0,0,1.23-1.31,4.74,4.74,0,0,0-.09-2.12,17.26,17.26,0,0,0-1.37-3.67C65,60.55,64.71,60,64.41,59.43Z"/></svg>