<svg id="Layer_1" data-name="Layer 1" xmlns="http://www.w3.org/2000/svg" viewBox="0 0 85.04 85.04"><path d="M67.26,36.64a23,23,0,0,0-21.9-17.52h-.08c-1.32,0-1.48.87-1.48,1.24s.13,1.24,1.45,1.28a21.47,21.47,0,0,1,5.23.75A20.31,20.31,0,0,1,64.89,46,20.22,20.22,0,0,1,37.63,60.75C30.69,57.93,26.45,52.66,25,45.08a15.52,15.52,0,0,1-.18-1.61v0a.53.53,0,0,0,0-.13l.68.49,2.8,2a1.29,1.29,0,0,0,2.05-1.18,1.25,1.25,0,0,0-.54-.86c-1.89-1.39-3.88-2.83-5.92-4.3a1.2,1.2,0,0,0-1.75.27c-1.4,1.91-2.81,3.86-4.32,6a1.2,1.2,0,0,0,.23,1.7,1.24,1.24,0,0,0,.93.3,1.47,1.47,0,0,0,1-.65c.6-.81,1.19-1.62,1.79-2.45l.55-.75.05.36c.11.77.22,1.57.37,2.35a22.59,22.59,0,0,0,10,14.49A22.82,22.82,0,0,0,45.1,64.75h0A21.94,21.94,0,0,0,50,64.19,22.79,22.79,0,0,0,67.26,36.64Z"/><path d="M34.28,24.55h0a1.32,1.32,0,0,0,1.26-1.32,1.27,1.27,0,0,0-.41-.93,1.23,1.23,0,0,0-.91-.33A1.31,1.31,0,0,0,33,23.32,1.28,1.28,0,0,0,34.28,24.55Z"/><path d="M26.32,32.41h.07a1.36,1.36,0,0,0,.88-.34,1.25,1.25,0,0,0,.07-1.78,1.36,1.36,0,0,0-.94-.42,1.27,1.27,0,0,0-1.31,1.18,1.24,1.24,0,0,0,.32.9A1.34,1.34,0,0,0,26.32,32.41Z"/><path d="M29.8,28h0a1.26,1.26,0,0,0,.9-.37,1.31,1.31,0,0,0,.38-.91,1.27,1.27,0,0,0-.38-.89,1.42,1.42,0,0,0-.94-.36,1.23,1.23,0,0,0-1.21,1.27A1.24,1.24,0,0,0,29.8,28Z"/><path d="M24.22,37.58h.05a1.23,1.23,0,0,0,1.21-1.27,1.28,1.28,0,0,0-1.23-1.26,1.17,1.17,0,0,0-.91.36,1.27,1.27,0,0,0-.38.93,1.23,1.23,0,0,0,.37.9A1.28,1.28,0,0,0,24.22,37.58Z"/><path d="M39.49,22.36a1.25,1.25,0,0,0,1.26-1.22,1.28,1.28,0,0,0-1.28-1.31,1.32,1.32,0,0,0-1.27,1.24,1.24,1.24,0,0,0,.35.9A1.33,1.33,0,0,0,39.49,22.36Z"/><path d="M37.88,47.47c1.5,0,3,0,4.5,0,.26,0,.51,0,.82.05-.08.31-.14.52-.2.72-.74,2.39-1.48,4.77-2.21,7.16-.28.91-.1,1.49.58,1.82s1.34,0,1.84-.57q6.57-7.78,13.14-15.54a1.42,1.42,0,0,0-1.17-2.53H49c.16-.4.27-.7.4-1,1-2.27,2-4.53,3-6.8.53-1.22,0-2.08-1.33-2.09-3,0-5.94,0-8.91,0a1.42,1.42,0,0,0-1.51,1.2c-1.39,5.22-2.81,10.43-4.21,15.65C36.09,46.75,36.62,47.44,37.88,47.47ZM43,31.39H49.2l-2.06,4.75c-.43,1-.86,1.94-1.27,2.91-.6,1.39-.06,2.22,1.47,2.23,1.72,0,3.43,0,5.38,0L45.5,49.83l-.16-.09c.29-1,.59-1.9.88-2.86.4-1.33-.13-2.07-1.51-2.08H39.36C40.58,40.29,41.77,35.85,43,31.39Z"/></svg>