<svg id="Layer_1" data-name="Layer 1" xmlns="http://www.w3.org/2000/svg" viewBox="0 0 85.04 85.04"><path d="M30.28,69.28a1.17,1.17,0,0,1-.51-1.09c0-3.11,0-6.22,0-9.33a.71.71,0,0,0-.42-.72c-.69-.35-1.36-.74-2-1.12s-.69-.71-.46-1.13.7-.55,1.24-.25q7.11,4,14.22,8a.92.92,0,0,0,1,0Q54.67,57.25,66,50.94l.64-.38L64.87,47.4,60.28,50q-8.4,4.7-16.79,9.4a1.21,1.21,0,0,1-1.34,0L21.33,47.67l-.49-.27-1.77,3.17,5.73,3.21.36.2a.79.79,0,0,1,.36,1.13.81.81,0,0,1-1.17.24c-.72-.39-1.43-.8-2.15-1.2l-4.31-2.41c-.78-.44-.88-.77-.45-1.53q1.13-2,2.26-4c.4-.72.74-.82,1.47-.41q10.59,5.93,21.17,11.86a.92.92,0,0,0,1,0q10.56-5.94,21.14-11.84c.76-.43,1.09-.34,1.5.4q1.15,2,2.29,4.09c.38.69.28,1-.41,1.42-3.83,2.15-7.65,4.3-11.49,6.42a.79.79,0,0,0-.47.84c0,3.06,0,6.12,0,9.18a1.27,1.27,0,0,1-.51,1.15Zm24-10-.53.27c-3.38,1.89-6.76,3.77-10.13,5.68a1.36,1.36,0,0,1-1.53,0c-3.16-1.79-6.34-3.56-9.51-5.33l-1.17-.64v8.35H54.29Z"/><path d="M36.17,31h-3a3.33,3.33,0,0,1-3.58-3.57V24.05H29c-1.35,0-2.71,0-4.07,0a6.77,6.77,0,0,1-6.57-6.51c0-.69.28-1,1-1H66.38c.69,0,1,.32,1,1a6.74,6.74,0,0,1-6.77,6.52c-1.45,0-2.91,0-4.45,0v.69c0,1,0,1.92,0,2.89A3.27,3.27,0,0,1,52.7,31c-1,0-2.06,0-3.16,0v3.83c0,.68-.28,1-.8,1s-.82-.34-.82-1v-3.8H37.79v.56q0,8.22,0,16.44a1.3,1.3,0,0,0,.34.92c1.57,1.8,3.13,3.61,4.72,5.45.16-.16.3-.31.43-.46q2.22-2.56,4.43-5.16a1.17,1.17,0,0,0,.21-.69c0-3.16,0-6.32,0-9.48a2.16,2.16,0,0,1,0-.51.77.77,0,0,1,.79-.68.76.76,0,0,1,.77.63,1.79,1.79,0,0,1,0,.46c0,3.33,0,6.67,0,10a1.82,1.82,0,0,1-.39,1.06c-1.8,2.12-3.62,4.22-5.45,6.32-.64.74-1,.74-1.66,0-1.82-2.1-3.65-4.2-5.44-6.33a1.76,1.76,0,0,1-.39-1.05c0-5.62,0-11.24,0-16.85ZM20,18.11a4.63,4.63,0,0,0,.11.56,5.21,5.21,0,0,0,5.29,3.82H58.67c.62,0,1.23,0,1.85,0a5.2,5.2,0,0,0,5.07-3.91c0-.14,0-.29.06-.46Zm11.16,6v3.53A1.63,1.63,0,0,0,33,29.41H52.75a1.59,1.59,0,0,0,1.73-1.36c.07-1.31,0-2.63,0-4Z"/><path d="M33,48.4c0,.72-.57,1.1-1.06.91a4.07,4.07,0,0,1-.55-.28L21.28,43.36c-.55-.31-.74-.72-.54-1.16s.7-.56,1.24-.27l6,3.36c1.48.82,3,1.64,4.43,2.49A2.93,2.93,0,0,1,33,48.4Z"/><path d="M53.36,49.47c-.21-.22-.54-.4-.62-.65A1.28,1.28,0,0,1,53,48c.08-.15.3-.22.47-.31l10.09-5.64.27-.16a.8.8,0,0,1,1.15.29.77.77,0,0,1-.37,1.09c-1,.58-2,1.13-3,1.69l-7.44,4.16C53.91,49.23,53.69,49.32,53.36,49.47Z"/><path d="M61.61,40c.19.16.49.29.59.51a1.52,1.52,0,0,1-.05.81c0,.11-.18.2-.3.27-1.58.89-3.16,1.78-4.76,2.65a.81.81,0,0,1-.62.07,1.28,1.28,0,0,1-.57-.65c-.11-.38.17-.66.51-.85L61,40.29A5.56,5.56,0,0,1,61.61,40Z"/><path d="M29.79,43.39c0,.81-.57,1.2-1.14.92s-1-.54-1.48-.82L24,41.71c-.59-.33-.77-.76-.51-1.2s.69-.51,1.26-.2c1.49.83,3,1.66,4.47,2.51A2.85,2.85,0,0,1,29.79,43.39Z"/></svg>