<svg id="Layer_1" data-name="Layer 1" xmlns="http://www.w3.org/2000/svg" viewBox="0 0 85.04 85.04"><path d="M36.29,75.66c-.7-.17-1.41-.31-2.1-.52a11.36,11.36,0,0,1-8-10.55c-.08-4.53,0-9.06,0-13.6a1.49,1.49,0,0,0-.41-1.14,3.18,3.18,0,0,1-.83-2.6c.06-.65-.14-.88-.8-1.06a8.49,8.49,0,0,1-6.39-8.35c0-2.87,0-5.73,0-8.6v-.6a8.09,8.09,0,0,1-1.37-1,2.13,2.13,0,0,1-.43-1.17c-.06-.74,0-1.49,0-2.24A2.07,2.07,0,0,1,18.09,22c.23,0,.46,0,.75,0v-.76c0-2.8,0-5.6,0-8.4a2.85,2.85,0,0,1,2.88-2.94c2.71-.18,4,1.21,3.79,3.77,0,.32,0,.64,0,1a1,1,0,1,1-2,0c0-.57,0-1.15,0-1.73,0-.76-.25-1-1-1h-.12c-1.43,0-1.55.09-1.55,1.5V22h2.69c0-.82,0-1.63,0-2.43a1.51,1.51,0,0,1,.37-1,1,1,0,0,1,1-.17,1.25,1.25,0,0,1,.61.86c.08.88,0,1.78,0,2.7h7.1v-.77q0-4.11,0-8.21a2.71,2.71,0,0,1,2.08-2.93,6.53,6.53,0,0,1,2.53,0A2.72,2.72,0,0,1,39.34,13q0,4.14,0,8.28V22c.3,0,.55,0,.8,0a2.11,2.11,0,0,1,2.15,2.09c0,.62,0,1.24,0,1.86a2.27,2.27,0,0,1-1.88,2.53c0,.87,0,1.76,0,2.65s-.4,1.24-1,1.23-1-.46-1-1.25V28.49H19.76c0,.21,0,.42,0,.62,0,2.91,0,5.82,0,8.73a6.49,6.49,0,0,0,6.58,6.64c1.84,0,3.68,0,5.52,0a6.55,6.55,0,0,0,6.64-6.62c0-.66,0-1.33,0-2A.89.89,0,0,1,39.4,35a.87.87,0,0,1,1,.8c.24,2.93-.08,5.73-2.25,8a8.29,8.29,0,0,1-4.32,2.48c-.45.09-.6.28-.57.73a3.75,3.75,0,0,1-1,3.17.73.73,0,0,0-.15.52c0,4.58,0,9.16,0,13.73a5.56,5.56,0,0,0,11,.62,12.1,12.1,0,0,0,.1-1.47c0-10.72,0-21.43,0-32.15A11.49,11.49,0,0,1,66,29.61a8.83,8.83,0,0,1,.2,1.78q0,21.53,0,43.05a1.32,1.32,0,0,1-.65,1.22h-.78a1.81,1.81,0,0,1-.57-1.53q0-7.51,0-15c0-9-.06-18,0-26.94a9.53,9.53,0,1,0-19,0q0,15.64,0,31.31c0,.45,0,.9,0,1.34A7.58,7.58,0,0,1,30,64c0-4.06,0-8.13,0-12.19v-.72H28.09v.73q0,5.84,0,11.67c0,.56,0,1.11.08,1.67A9.45,9.45,0,0,0,41.4,72.87a9.19,9.19,0,0,0,5.71-9q0-15.58,0-31.18c0-.58,0-1.15.08-1.73a7.58,7.58,0,0,1,15.09,1.29q0,20.94,0,41.89a1.73,1.73,0,0,1-.6,1.53h-.77a1.4,1.4,0,0,1-.65-1.35q0-18.68,0-37.34c0-1.73,0-3.46,0-5.2a5.58,5.58,0,1,0-11.16.14q0,16.17,0,32.34A11.43,11.43,0,0,1,41.38,75c-.78.27-1.6.43-2.39.64Zm4-51.58H17.92v2.36H40.24ZM37.32,22c0-3.13,0-6.2,0-9.28a.72.72,0,0,0-.72-.75,5.71,5.71,0,0,0-.83,0c-.9,0-1.14.25-1.14,1.15v8.39c0,.17,0,.33,0,.52ZM26.91,46.54c0,.43,0,.8,0,1.16A1.24,1.24,0,0,0,28.19,49q.9,0,1.8,0a1.2,1.2,0,0,0,1.24-1.07,9.06,9.06,0,0,0,0-1.38Z"/><path d="M29,38.48A3.55,3.55,0,1,1,32.63,35,3.55,3.55,0,0,1,29,38.48Zm.05-5.07A1.49,1.49,0,0,0,27.54,35a1.57,1.57,0,0,0,1.57,1.54,1.62,1.62,0,0,0,1.53-1.59A1.54,1.54,0,0,0,29.05,33.41Z"/></svg>