<svg id="Layer_1" data-name="Layer 1" xmlns="http://www.w3.org/2000/svg" viewBox="0 0 85.04 85.04"><path d="M62.92,12.44H23.17c-.78,0-1.16.34-1.16,1,0,2.79,0,5.7,0,8.91a1,1,0,0,0,1.08,1.05c.47,0,.86,0,1.22,0s.34.06.4.35c.16.81.34,1.63.52,2.42l.36,1.64a4.29,4.29,0,0,0,2.65,3.29.68.68,0,0,1,.3.47c0,.53,0,1.07,0,1.59s0,1.17,0,1.76a9.55,9.55,0,0,0,5.9,8.7,19.12,19.12,0,0,0,7.71,1.57h1.07a21.12,21.12,0,0,0,7.9-1.32c3.55-1.43,5.66-3.87,6.26-7.26A22.24,22.24,0,0,0,57.68,33c0-.44,0-.89,0-1.33s.07-.49.41-.62a3.86,3.86,0,0,0,2.46-2.83c.18-.79.36-1.59.52-2.37.09-.38.17-.76.25-1.14.28-1.26.28-1.26,1.56-1.27,1,0,1.37-.35,1.37-1.37V13.79C64.28,12.74,64,12.44,62.92,12.44Zm-28.2,19v2.74c0,.22,0,.44,0,.66a1.36,1.36,0,0,0,.39,1,.9.9,0,0,0,.63.24h0c.61,0,1-.5,1-1.23s0-1.34,0-2V31.41h2.84v2.65c0,.28,0,.57,0,.85a1.09,1.09,0,0,0,1,1.12h0a1.07,1.07,0,0,0,1-1.15c0-.83,0-1.65,0-2.52v-1h2.83v3.05c0,.17,0,.34,0,.51a1.07,1.07,0,0,0,1,1.07h0a1.06,1.06,0,0,0,1-1.07c0-.58,0-1.16,0-1.73V31.4h2.84v3c0,.15,0,.3,0,.45a1.07,1.07,0,0,0,1,1.15h0a1.06,1.06,0,0,0,1-1.12c0-.66,0-1.34,0-2v-1.5h4.08v.49c.08,2.76.15,5.37-1.74,7.63a9.24,9.24,0,0,1-5.31,3,22.3,22.3,0,0,1-12.31-.42c-3.14-1-5-3.08-5.47-6a22.19,22.19,0,0,1-.24-3.3c0-.46,0-.94,0-1.42Zm24.82-7.95c-.09.4-.18.79-.26,1.18-.22,1-.46,2.08-.71,3.11a1.87,1.87,0,0,1-1.92,1.53c-.8,0-1.6,0-2.38,0H30.12c-1.65,0-2.2-.45-2.56-2.09-.18-.85-.37-1.71-.56-2.57l-.26-1.17Zm2.65-8.95v6.84H24.06V14.5Z"/><path d="M57.6,65.69l-.32.23-.29.21c-7.41,5-15.31,5.8-23.48,2.39a23.81,23.81,0,0,1-3.35-1.86l-1.22-.76a1.46,1.46,0,0,0-1.17-.22.9.9,0,0,0-.54.54c-.28.67.11,1.07.58,1.41,4.2,3,9.28,4.93,13.26,5h.07c6.07,0,10.18-.88,14.16-3,1-.54,2-1.19,2.91-1.82l.56-.38a1.16,1.16,0,0,0,.52-.72,1,1,0,0,0-.18-.76A1,1,0,0,0,57.6,65.69Z"/><path d="M31.44,61a1,1,0,0,0-.64.44c-.36.51-.21,1.08.4,1.52a19.9,19.9,0,0,0,11.68,3.89h0a19.47,19.47,0,0,0,8.43-1.76,31.27,31.27,0,0,0,3.27-1.9l.75-.47a1,1,0,1,0-1.18-1.65l-.19.13-.12.09a18,18,0,0,1-16.62,2.51,16.67,16.67,0,0,1-4.81-2.5A1.31,1.31,0,0,0,31.44,61Z"/><path d="M34.3,56.82a.93.93,0,0,0-.2.72,1.42,1.42,0,0,0,.65.88,14.78,14.78,0,0,0,8.58,2.69h0l.38,0c.34,0,.78-.06,1.21-.11a14,14,0,0,0,7-2.88A1.29,1.29,0,0,0,52.28,57a1.23,1.23,0,0,0-.83-.73,1.33,1.33,0,0,0-.94.33,12.41,12.41,0,0,1-14.59.13C35.26,56.29,34.67,56.32,34.3,56.82Z"/><path d="M43,55.31h.23a8.39,8.39,0,0,0,5.16-1.76,1.29,1.29,0,0,0,.54-.81A1,1,0,0,0,48.7,52a1,1,0,0,0-1.51-.13,6.66,6.66,0,0,1-7.92.17,1,1,0,0,0-1.55.22,1,1,0,0,0,.45,1.5A8.43,8.43,0,0,0,43,55.31Z"/><path d="M53.15,17.49h3c.55,0,1.1,0,1.66,0a1.14,1.14,0,0,0,.84-.31.93.93,0,0,0,.26-.71,1,1,0,0,0-1.07-1H53.12a1,1,0,0,0-1.09,1,.9.9,0,0,0,.26.69A1.16,1.16,0,0,0,53.15,17.49Z"/></svg>