<svg id="Layer_1" data-name="Layer 1" xmlns="http://www.w3.org/2000/svg" viewBox="0 0 85.04 85.04"><path d="M23.41,33v-.85c0-2.1,0-4.19,0-6.28,0-1.07.37-1.44,1.44-1.44H60.14c1.11,0,1.47.36,1.47,1.46q0,3.12,0,6.22V33H71a3.72,3.72,0,0,1,4,4V59.6a3.85,3.85,0,0,1,0,.59,1,1,0,0,1-1.07.88,1,1,0,0,1-1-.87,2.92,2.92,0,0,1,0-.66V37.26c0-1.55-.51-2.07-2-2.08H61.65c0,.31,0,.55,0,.78v6.21c0,1.24-.3,1.54-1.51,1.54H24.88c-1.16,0-1.47-.31-1.47-1.5v-7l-.7,0H14.06c-1.4,0-2,.57-2,2q0,11.18,0,22.35a4.85,4.85,0,0,1,0,.66,1,1,0,0,1-1,.91A1.06,1.06,0,0,1,10,60.16a4.51,4.51,0,0,1,0-.52V37a3.72,3.72,0,0,1,4-4h9.44Zm2.22-6.36V41.56h21V26.65ZM59.41,41.56V26.66H55v14.9ZM48.89,26.64v14.9h3.9V26.64Z"/></svg>