<svg id="Layer_1" data-name="Layer 1" xmlns="http://www.w3.org/2000/svg" viewBox="0 0 85.04 85.04"><path d="M63.18,26.06c0-3-1.72-4.75-4.71-4.75H25.74c-3.08,0-4.79,1.72-4.8,4.83v21c0,3.9,0,7.8,0,11.7,0,2.92,1.73,4.67,4.62,4.67,10.15,0,20.91,0,32.9,0,3,0,4.71-1.73,4.71-4.75Q63.21,42.43,63.18,26.06Zm-2,32.3c0,2.55-.64,3.18-3.23,3.18H26.21c-2.64,0-3.24-.63-3.25-3.34V26.66c0-2.79.55-3.31,3.41-3.31H57.91c2.64,0,3.25.59,3.25,3.13Q61.18,42.43,61.16,58.36Z"/><path d="M56.24,26.32q-14.19,0-28.36,0c-1.8,0-1.92.13-1.92,2q0,11.59,0,23.18c0,1.89.12,2,2.1,2h28c2,0,2.09-.14,2.09-2q0-11.58,0-23.18C58.17,26.45,58,26.32,56.24,26.32Zm-.23,25H28.1V40.78l.31.09c2.92.82,3.41-.88,4.09-3.23.13-.45.26-.91.42-1.35l.23-.7,3,8.85c.13.41.27.81.41,1.21s.31.87.45,1.31c0,.1.07.2.1.29.23.77.4,1.2,1.06,1.2h0c.63,0,1-.78,1.2-1.35l0-.08c.45-1.07.83-2.19,1.2-3.28.19-.57.39-1.15.59-1.71.29-.8.73-1.17,1.33-1.1,1.37.13,1.84-.59,2.14-1.77a15.31,15.31,0,0,1,.56-1.71c.12-.32.26-.68.4-1.09l.24-.68.23.68,1,2.84c.77,2.32,1.5,4.5,2.27,6.66,0,.16.11.33.16.5.3.94.65,2,1.38,2h0c.78,0,1.07-.79,1.46-2.08l.11-.37A36.86,36.86,0,0,1,53.87,42c.2-.46.58-1.31,1.5-1.33a.59.59,0,0,1,.46.13.56.56,0,0,1,.18.42Zm0-12.83h-.24a4.37,4.37,0,0,0-3,1.25,8.11,8.11,0,0,0-1.39,2.89l-.31.86-.24.66-2.69-7.9c-.13-.4-.26-.79-.38-1.19-.29-.9-.59-1.84-1-2.72-.24-.56-.43-.92-1-.92h0c-.59,0-.84.44-1,.91-.34.85-.63,1.74-.91,2.6s-.61,1.84-1,2.73a2.12,2.12,0,0,1-1.55,1.2,1.63,1.63,0,0,0-1.78,1.38c-.19.69-.45,1.35-.74,2.12-.13.36-.28.74-.43,1.16l-.24.68L38,43.53l-1-2.91C36.14,38,35.32,35.51,34.43,33c0-.1-.07-.21-.11-.33-.24-.77-.46-1.31-1.09-1.34s-1,.69-1.25,1.55l-.05.16a49.86,49.86,0,0,1-1.68,4.71l-.05.11c-.19.5-.53,1.31-1.46,1.24a.8.8,0,0,1-.47-.22.65.65,0,0,1-.17-.48v-10H56Z"/><path d="M45.58,56.57l-2.18,0H42.26c-.25,0-1.08.06-1.1.76a.94.94,0,0,0,.94,1.1c.93,0,1.74,0,2.47,0s1.46,0,2.47,0a.9.9,0,0,0,1-1c0-.76-.43-.88-.86-.89Z"/><path d="M57.1,56.57H54.9l-2.76,0a1.08,1.08,0,0,0-.78.27,1,1,0,0,0-.23.74c.07.54.46.83,1.17.88s1.33.05,2,.05h.34c.82,0,1.9,0,2.46-.05.19,0,1.09-.08,1.1-.94A.92.92,0,0,0,57.1,56.57Z"/><path d="M36.31,58.34a.81.81,0,0,0,.64.29c.87,0,1-.55,1-1.12a.86.86,0,0,0-.83-.88H37c-.59,0-.84.57-.9.89A1.13,1.13,0,0,0,36.31,58.34Z"/><path d="M27.1,56.56h0a.84.84,0,0,0-.88.85c0,.73.28,1.1.85,1.12a1.09,1.09,0,0,0,.81-.26,1,1,0,0,0,.28-.76C28.15,57.27,28.13,56.56,27.1,56.56Z"/><path d="M32,56.62h0a.86.86,0,0,0-.86.85c0,1.12.62,1.13.82,1.13h0a1,1,0,0,0,.75-.25,1.08,1.08,0,0,0,.26-.75A.91.91,0,0,0,32,56.62Z"/></svg>