<svg id="Layer_1" data-name="Layer 1" xmlns="http://www.w3.org/2000/svg" viewBox="0 0 85.04 85.04"><path d="M38.09,42.14V56.86c0,.26,0,.52,0,.77a1,1,0,1,1-2.07,0A5.15,5.15,0,0,1,36,57V27.18c0-.21,0-.42,0-.63a1,1,0,1,1,2.07,0c0,.26,0,.51,0,.77Z"/><path d="M46.44,42.11V29.79c0-1.09.34-1.6,1-1.6s1.06.52,1.06,1.59V54.5c0,1-.36,1.53-1,1.53s-1.05-.5-1.05-1.52Z"/><path d="M32.85,42.18c0,3,0,6,0,9a1.67,1.67,0,0,1-.16.94,1.29,1.29,0,0,1-.92.49,1.57,1.57,0,0,1-.89-.65,1.71,1.71,0,0,1-.11-.89q0-8.91,0-17.83c0-.14,0-.28,0-.42,0-.71.47-1.17,1.07-1.16s1,.46,1,1.2C32.85,35.93,32.85,39.06,32.85,42.18Z"/><path d="M43.31,42.18v8.67c0,.21,0,.42,0,.63a1,1,0,1,1-2.08,0,5.19,5.19,0,0,1,0-.56V33.26c0-1.14.34-1.66,1.07-1.65s1,.53,1,1.69Z"/><path d="M56.9,42.07q0-4,0-8c0-.56.1-1,.69-1.26a1,1,0,0,1,1.32.68,2.86,2.86,0,0,1,.08.83q0,7.81,0,15.62a4.17,4.17,0,0,1,0,.5,1.08,1.08,0,0,1-1.07,1.08,1,1,0,0,1-1-1.13c0-2.77,0-5.53,0-8.3Z"/><path d="M22.4,42.11v5.42c0,.93-.34,1.37-1,1.38s-1.07-.47-1.07-1.36V36.65c0-.91.44-1.41,1.15-1.35s.93.45.94,1.18C22.41,38.36,22.4,40.23,22.4,42.11Z"/><path d="M51.67,42.07c0-1.87,0-3.75,0-5.62a1,1,0,0,1,1-1.15,1.06,1.06,0,0,1,1.11,1.11c0,.18,0,.37,0,.56,0,3,0,6,0,8.93,0,.63,0,1.27,0,1.9a1,1,0,0,1-1.09,1.11c-.62,0-1-.45-1-1.21C51.66,45.82,51.67,44,51.67,42.07Z"/><path d="M25.53,42c0-1,0-2,0-3s.38-1.31,1-1.32,1.05.43,1.05,1.28c0,2,0,4.09,0,6.13,0,.85-.38,1.3-1,1.29s-1-.47-1-1.32C25.53,44.11,25.53,43.07,25.53,42Z"/><path d="M64.21,42.12c0,.66,0,1.31,0,2a1.05,1.05,0,0,1-1.06,1.16c-.63,0-1-.42-1-1.17,0-1.32,0-2.63,0-3.95,0-.74.4-1.16,1-1.15s1,.44,1,1.17v2Z"/></svg>