<svg id="Layer_1" data-name="Layer 1" xmlns="http://www.w3.org/2000/svg" viewBox="0 0 85.04 85.04"><path d="M54.48,62.21a1.36,1.36,0,0,0,1.67.36A1.32,1.32,0,0,0,57,61.12a2.34,2.34,0,0,0-.52-1C54.72,58.05,53,56,51.23,54l-3-3.56c-1.5-1.75-3-3.5-4.5-5.24a1.42,1.42,0,0,0-1.81-.47,4.31,4.31,0,0,0-1,1c-1.24,1.42-2.46,2.85-3.74,4.35l-2,2.32-.54-.83a3,3,0,0,1-.17-.28A2.57,2.57,0,0,0,34.2,51l-3-3-2.89-2.89c-.64-.65-1-.54-1.15-.51a2.62,2.62,0,0,0-1.22.7c-2.25,2.56-4.46,5.15-6.68,7.75l-3,3.46c-1.1,1.29-2.21,2.58-3.3,3.87A1.37,1.37,0,0,0,12.85,62a1.5,1.5,0,0,0,1.49.72c.49-.07.81-.41,1.28-1l10.28-12,.58-.66.85-1,6,6.31L31,57.18c-.9,1-1.8,2.09-2.69,3.15A1.35,1.35,0,0,0,28.11,62a1.19,1.19,0,0,0,1.35.72,2.5,2.5,0,0,0,1.18-.7c2-2.26,3.94-4.55,5.9-6.84l5.88-6.86.69.72.19.21,8.35,9.73C52.59,60,53.53,61.13,54.48,62.21Z"/><path d="M70,70.06a1.44,1.44,0,1,0,1.66-2.36,6.58,6.58,0,0,0-7.82-.08,3.6,3.6,0,0,1-4.7.13,6.53,6.53,0,0,0-8.08,0,3.58,3.58,0,0,1-4.53,0,6.53,6.53,0,0,0-8.07,0,3.61,3.61,0,0,1-4.54,0,6.46,6.46,0,0,0-8,0,3.63,3.63,0,0,1-4.66,0,6,6,0,0,0-3.44-1.33h0a6.64,6.64,0,0,0-4.57,1.41,1.4,1.4,0,0,0-.26,2,1.43,1.43,0,0,0,2,.32,4.22,4.22,0,0,1,2.32-.82,4.18,4.18,0,0,1,2.46,1,6.47,6.47,0,0,0,7.69,0,3.65,3.65,0,0,1,4.86,0,6.56,6.56,0,0,0,7.75,0,3.66,3.66,0,0,1,4.86,0,6.53,6.53,0,0,0,7.74,0,3.67,3.67,0,0,1,4.87,0,6.5,6.5,0,0,0,7.74,0A3.65,3.65,0,0,1,70,70.06Z"/><path d="M63.31,62.32a1.34,1.34,0,0,0,1.91,0c1.58-1.53,3.1-3.05,4.51-4.52a1.36,1.36,0,0,0-.08-2,1.42,1.42,0,0,0-2,0c-.14.11-.27.24-.41.37l-1.48,1.41V26.38l1,.35a1.72,1.72,0,0,1,.75.53l.08.08a1.41,1.41,0,0,0,2.06,0,1.39,1.39,0,0,0,0-2c-1.55-1.59-3-3-4.42-4.42a1.36,1.36,0,0,0-2,0c-1.53,1.5-3,3-4.41,4.42a1.4,1.4,0,0,0,0,2,1.45,1.45,0,0,0,2,0l.41-.38,1.51-1.41V56.25l-1.09.55-.55-.64a3.85,3.85,0,0,0-.27-.3,1.52,1.52,0,0,0-1-.41,1.45,1.45,0,0,0-1,2.45C60.39,59.44,61.88,60.93,63.31,62.32Z"/><path d="M58.45,11.83h-.74a1.43,1.43,0,0,0,0,2.86h1.23a6.27,6.27,0,0,1,4.14,1.59c.94.84,1.49.84,2.43,0a5.58,5.58,0,0,1,3.2-1.49c.48-.05,1-.07,1.46-.08l.81,0a1.44,1.44,0,0,0,.13-2.85A9.87,9.87,0,0,0,65,13a1.58,1.58,0,0,1-1.48,0,8.83,8.83,0,0,0-4.8-1.21h-.3Z"/></svg>