<svg id="Layer_1" data-name="Layer 1" xmlns="http://www.w3.org/2000/svg" viewBox="0 0 85.04 85.04"><path d="M49.64,41.88H46.83c-.83,0-1.17-.52-.83-1.29a6,6,0,0,0,.24-4.38.49.49,0,0,0-.57-.41c-1.16,0-2.31,0-3.47,0-.59,0-.88-.24-.89-.74s.28-.78.9-.78c4.9,0,9.8,0,14.7,0a6.82,6.82,0,0,0,3.29-13l-.3-.14a.74.74,0,0,1-.37-1,.72.72,0,0,1,1-.36,10.93,10.93,0,0,1,2.12,1.32,8,8,0,0,1,2.6,8.56,8.05,8.05,0,0,1-6.57,6l-.6.12c.13,1,.27,2,.41,3,.2,1.42.41,2.84.61,4.26a.93.93,0,0,1,0,.47.77.77,0,0,1-.8.6.71.71,0,0,1-.68-.67q-.24-1.54-.45-3.09c-.21-1.5-.41-3-.61-4.54h-6c.07.66.13,1.33.21,2q.41,3.72.83,7.43c.11,1,.21,1.95.34,2.92S52,49.3,51,49.58a.71.71,0,0,0-.57.77.68.68,0,0,0,.62.68,3.59,3.59,0,0,0,.47,0h5.36c1.09,0,1.54-.44,1.59-1.54a.82.82,0,0,1,.72-.81.86.86,0,0,1,.81.83,2.72,2.72,0,0,1-1.48,2.65.49.49,0,0,0-.31.58,2.38,2.38,0,0,1-.74,2.32c-.07,0-.08.23,0,.33.25,1,.5,2.08.79,3.11a2.18,2.18,0,0,0,2.14,1.56h2.18a3.06,3.06,0,0,1,3.06,2.63,3,3,0,0,1-2.32,3.33,3.39,3.39,0,0,1-.84.1h-43c-.62,0-.91-.25-.91-.77s.3-.75.93-.75H62.26A1.64,1.64,0,0,0,64,63.71a1.55,1.55,0,0,0-1.53-2.1c-.74,0-1.48,0-2.23,0A3.59,3.59,0,0,1,56.78,59c-.3-1.06-.55-2.14-.85-3.2a.52.52,0,0,0-.31-.32,2.46,2.46,0,0,1-1.79-2c-.07-.32-.15-.64-.24-1H51.38A2.36,2.36,0,0,1,49,50.81a2.31,2.31,0,0,1,1.14-2.61.44.44,0,0,0,.19-.36C50.09,45.86,49.87,43.89,49.64,41.88Zm-1.86-6.07a7.94,7.94,0,0,1,0,4.53h1.7L49,35.83l-.32,0ZM55.23,52.5c.05.24.08.44.13.63.15.69.47.94,1,.8s.52-.49.31-1.15a.46.46,0,0,0-.29-.27C56,52.48,55.65,52.5,55.23,52.5Z"/><path d="M36.85,32.77c-1.13,0-2.18,0-3.24,0A1.79,1.79,0,0,1,32,32.08a2,2,0,0,0-2-.84,7.88,7.88,0,0,1-2.17,0,3.8,3.8,0,0,1-3.13-3H20.13c-.26,0-.51,0-.76,0-.54,0-.82-.27-.83-.75s.28-.76.82-.76c1.66,0,3.32,0,5,0l.33,0a3.9,3.9,0,0,1,1.6-2.39c.52-.34.92-.31,1.21.09s.2.82-.33,1.19A2.16,2.16,0,0,0,26.23,28a2.43,2.43,0,0,0,2.14,1.75c.75.06,1.51,0,2.29,0V25.19H29.47a.73.73,0,0,1-.77-.78.67.67,0,0,1,.75-.72,2.85,2.85,0,0,0,2.84-1.14,1.53,1.53,0,0,1,1-.38c1.15,0,2.31,0,3.54,0,0-.32,0-.61,0-.9a2.15,2.15,0,0,1,2.21-2.13H57.11c.62,0,.91.26.9.78s-.3.74-.89.74H39.48c-.94,0-1.11.17-1.11,1.09V33.34c0,.68.12.83.77,1a.75.75,0,0,1,.65.84.7.7,0,0,1-.76.67,2.18,2.18,0,0,1-2.18-2C36.83,33.51,36.85,33.16,36.85,32.77Zm0-9.1c-.82,0-1.59.06-2.36,0a2,2,0,0,0-2,.84,1.22,1.22,0,0,0-.26.61c0,1.56,0,3.13,0,4.69,0,.37.83,1.44,1.19,1.45,1.13,0,2.26,0,3.42,0Z"/><path d="M55.72,22.15h3c.54,0,.82.27.82.76s-.29.75-.83.75H52.78c-.55,0-.83-.26-.84-.74s.27-.77.85-.77Z"/><path d="M55.71,26.71H52.77c-.54,0-.82-.26-.83-.74s.27-.77.85-.77h5.88c.57,0,.86.26.86.77s-.3.74-.88.74Z"/><path d="M55.76,28.22h2.93c.55,0,.83.26.84.74a.71.71,0,0,1-.81.77h-6c-.54,0-.82-.28-.81-.77s.29-.74.83-.74Z"/><path d="M55.74,32.77h-3c-.54,0-.82-.27-.82-.75s.28-.76.82-.76h6a.7.7,0,0,1,.8.73.71.71,0,0,1-.8.78Z"/><path d="M41.31,23.67c0,.31,0,.54,0,.78a.71.71,0,0,1-.75.74.69.69,0,0,1-.76-.72c0-.53,0-1.07,0-1.61a.67.67,0,0,1,.73-.7q.78,0,1.56,0a.69.69,0,0,1,.74.74.71.71,0,0,1-.76.77Z"/><path d="M41.31,28.25c0,.26,0,.51,0,.76a.7.7,0,0,1-.75.73A.69.69,0,0,1,39.8,29c0-.54,0-1.07,0-1.61a.76.76,0,0,1,1.51,0v.85Z"/><path d="M58,46.42a.92.92,0,0,1,.73-1,.77.77,0,0,1,.8.7c.06.33.11.65.15,1A.87.87,0,0,1,59,48a.7.7,0,0,1-.81-.56A9.43,9.43,0,0,1,58,46.42Z"/></svg>