<svg id="Layer_1" data-name="Layer 1" xmlns="http://www.w3.org/2000/svg" viewBox="0 0 85.04 85.04"><path d="M18.61,77.28A3.39,3.39,0,0,1,16.41,75a4.21,4.21,0,0,1-.08-.87q0-11.41,0-22.84A3,3,0,0,1,19.47,48H56.33c.59,0,1.07.13,1.25.77a1,1,0,0,1-.86,1.25c-.25,0-.5,0-.74,0H20.06c-1.46,0-1.7.24-1.7,1.73v1.49h6.57A1.64,1.64,0,0,1,26.73,55c0,2.68,0,5.35,0,8,0,.74-.41,1.17-1,1.16a1,1,0,0,1-1-1.17c0-2.54,0-5.08,0-7.66H18.4V70h6.28c0-.63,0-1.25,0-1.87,0-.78.39-1.2,1-1.19s1,.4,1,1.18,0,1.3,0,2c0,1.42-.6,2-2,2H18.42a14.81,14.81,0,0,0,0,2.41c.05.3.54.56.88.77.17.1.44,0,.66,0H65c1.34,0,1.62-.28,1.62-1.61v-22c0-1.24-.3-1.55-1.54-1.55H61.46c-.72,0-1.18-.43-1.17-1a1.07,1.07,0,0,1,1.19-1c1.37,0,2.74,0,4.11,0a3,3,0,0,1,3,3q0,11.63,0,23.25A2.93,2.93,0,0,1,66.84,77l-.52.27Z"/><path d="M42.5,35.46H31.12a3.57,3.57,0,0,1-3.05-1.27,3.22,3.22,0,0,1-.36-3.71c.73-1.37,1.53-2.69,2.31-4a1,1,0,0,1,1.41-.5,1,1,0,0,1,.37,1.51c-.7,1.23-1.37,2.48-2.13,3.66A1.43,1.43,0,0,0,31,33.4q11.48-.09,23,0a1.43,1.43,0,0,0,1.32-2.27c-3.86-6.62-7.68-13.27-11.52-19.9C43,10,41.88,10,41.16,11.25Q37.77,17.1,34.4,23a3.25,3.25,0,0,1-.41.61.93.93,0,0,1-1.28.14,1,1,0,0,1-.38-1.24l.18-.36c2.33-4,4.64-8,7-12a3.35,3.35,0,0,1,4.08-1.62,3.69,3.69,0,0,1,2,1.8Q51.16,20,56.8,29.7a4.21,4.21,0,0,1,.77,3,3.32,3.32,0,0,1-2.81,2.69,15.73,15.73,0,0,1-1.82.08Z"/><path d="M49.75,62.63A10.44,10.44,0,1,1,39.22,52.22,10.42,10.42,0,0,1,49.75,62.63Zm-2,0a8.39,8.39,0,1,0-8.4,8.4A8.46,8.46,0,0,0,47.72,62.67Z"/><path d="M51.91,62.61c0-2.45,0-4.9,0-7.34a1.73,1.73,0,0,1,2-2h8.56a1.73,1.73,0,0,1,2,2V70.07a1.73,1.73,0,0,1-2,2q-4.28,0-8.55,0c-1.39,0-2-.64-2-2C51.9,67.55,51.91,65.08,51.91,62.61ZM54,55.35V70h8.36V55.35Z"/><path d="M42.27,27.41l.85-2.57c-.88,0-1.68,0-2.49,0-1.05,0-1.47-.6-1.15-1.58.64-2,1.28-3.91,1.94-5.86.24-.73.77-1,1.36-.85a1.07,1.07,0,0,1,.6,1.49c-.44,1.34-.89,2.67-1.34,4l-.21.71c.82,0,1.56,0,2.29,0,1.3,0,1.69.55,1.27,1.8s-.76,2.29-1.17,3.5l.4-.06a1,1,0,0,1,1.09.7.9.9,0,0,1-.4,1.17,24.61,24.61,0,0,1-2.44,1.28,1,1,0,0,1-1.35-.53l-1.07-2a1.05,1.05,0,0,1,.18-1.45,1,1,0,0,1,1.43.14A1.19,1.19,0,0,0,42.27,27.41Z"/><path d="M42.66,39.65A9.33,9.33,0,0,0,36,42.17a1.9,1.9,0,0,1-.66.45.93.93,0,0,1-1.16-.44,1,1,0,0,1,.25-1.33,11,11,0,0,1,6.27-3.14,11.25,11.25,0,0,1,9.61,3,2.65,2.65,0,0,1,.29.29,1,1,0,0,1,0,1.4,1,1,0,0,1-1.4.06c-.44-.35-.84-.75-1.3-1.08A8.83,8.83,0,0,0,42.66,39.65Z"/><path d="M48.05,44.72c-.26.29-.45.72-.74.79a1.86,1.86,0,0,1-1.16-.21A16,16,0,0,0,43.83,44,5,5,0,0,0,39,45.16a2.73,2.73,0,0,1-.25.23,1.06,1.06,0,0,1-1.45-.1,1,1,0,0,1,.07-1.4,7.33,7.33,0,0,1,10.27,0A4.79,4.79,0,0,1,48.05,44.72Z"/><path d="M22.66,66.9a1,1,0,0,1-1,1,1,1,0,0,1-1-1,1,1,0,0,1,1.05-1A1,1,0,0,1,22.66,66.9Z"/><path d="M21.69,57.47a1,1,0,0,1,1,1.05,1,1,0,0,1-1,1,1,1,0,0,1-1-1A1,1,0,0,1,21.69,57.47Z"/><path d="M22.66,62.65a1,1,0,0,1-1,1,1,1,0,0,1-1-1,1,1,0,0,1,1-1A1,1,0,0,1,22.66,62.65Z"/><path d="M45.57,62.73a6.26,6.26,0,0,1-12.52-.09,6.26,6.26,0,1,1,12.52.09Zm-10.43,0a4.22,4.22,0,0,0,4.19,4.2,4.21,4.21,0,1,0,0-8.42A4.19,4.19,0,0,0,35.14,62.68Z"/><path d="M58.13,63.67a10.81,10.81,0,0,1-1.14,0,1,1,0,0,1,0-2,18.43,18.43,0,0,1,2.35,0,1,1,0,0,1,0,2C58.94,63.7,58.53,63.67,58.13,63.67Z"/><path d="M58.14,57.47a1,1,0,0,1,1,1,1,1,0,0,1-2,0A1,1,0,0,1,58.14,57.47Z"/><path d="M59.18,66.85a1,1,0,0,1-1,1,1,1,0,0,1-1-1,1,1,0,0,1,1-1A1,1,0,0,1,59.18,66.85Z"/><path d="M40.33,62.72c0,.35,0,.71,0,1.07a.94.94,0,0,1-1,.94,1,1,0,0,1-1.06-.91,21.67,21.67,0,0,1,0-2.28,1,1,0,0,1,2,0c0,.37,0,.76,0,1.14Z"/></svg>