<svg id="Layer_1" data-name="Layer 1" xmlns="http://www.w3.org/2000/svg" viewBox="0 0 85.04 85.04"><path d="M19.16,28.11c-.78,0-1,.19-1,1V58.71a.92.92,0,0,0,.33.8.84.84,0,0,0,.82,0,31,31,0,0,1,11.07-2.85,34.74,34.74,0,0,1,10.4.73l.23,0a4,4,0,0,0,1.93.12,32.48,32.48,0,0,1,6.8-1c.54,0,1.08,0,1.62,0a34.66,34.66,0,0,1,6.41.59A28.26,28.26,0,0,1,65,59.38c.71.35.9.33,1.32-.24V28.6a.92.92,0,0,0-1-.49c-.67,0-1.33,0-2,0H62.18v-.25c0-.14,0-.26,0-.39s0-.49,0-.72a.69.69,0,0,0-.64-.73,25.05,25.05,0,0,0-10.06-.56,16.09,16.09,0,0,0-7.42,3c-.39.29-.77.62-1.14.93l-.53.45-.15.13-.16-.12-.18-.14a15.52,15.52,0,0,0-9.33-4.28A25.43,25.43,0,0,0,23,26c-.56.14-.72.34-.73.93,0,.2,0,.4,0,.61v.54H19.16Zm42,26a1,1,0,0,0,.79-.15,1,1,0,0,0,.24-.77V29.54h2.68V57.77l-.34-.14a34.77,34.77,0,0,0-16.68-2.36l-.23,0-.11-.62.24,0,1.26-.25c.9-.19,1.84-.39,2.77-.53a29.36,29.36,0,0,1,6.54-.1c.88.06,1.76.17,2.61.28ZM43,53.18q0-10.63,0-21.27a1.27,1.27,0,0,1,.33-.82A13.92,13.92,0,0,1,51.35,27a23.94,23.94,0,0,1,9.21.31l.19,0V52.57l-.27,0C55.19,52,49,51.86,43.36,55.13l-.34.2,0-.52c0-.1,0-.2,0-.3ZM23.71,27.33l.19,0a24.11,24.11,0,0,1,6.56-.61,15.62,15.62,0,0,1,10.16,3.8,2.62,2.62,0,0,1,.93,2.1c0,5.56,0,11.22,0,16.68v6.12l-.38-.22C35.59,51.89,29.61,52,24,52.54l-.27,0Zm-1.41,2.2V53a1.23,1.23,0,0,0,.3.93.71.71,0,0,0,.57.14l.7-.09.9-.12a34.46,34.46,0,0,1,7.53-.08,22.32,22.32,0,0,1,4.41.95l2.07.7-2.17-.21A35.14,35.14,0,0,0,20,57.62l-.34.14V29.53Z"/></svg>