<svg id="Layer_1" data-name="Layer 1" xmlns="http://www.w3.org/2000/svg" viewBox="0 0 85.04 85.04"><path d="M37.86,62c0-.32-.1-.65-.16-1a23.65,23.65,0,0,1-.39-3.55c-.05-4.27,0-8.61,0-12.8,0-1.59,0-3.17,0-4.76,0-1.77.76-2.53,2.53-2.53h18A1.45,1.45,0,0,0,58.88,37a1.06,1.06,0,0,0,.3-.81,1.19,1.19,0,0,0-1.35-1.12H50.42c0-.22,0-.43,0-.64.05-.61.1-1.18.11-1.76,0-5.39,0-11.78,0-18.33a4.36,4.36,0,0,0-2.41-4,5.94,5.94,0,0,0-.78-.34l-.34-.13H17.87l-.09,0-.09.05-.15.07a4.33,4.33,0,0,0-3.23,4.13c-.05,1.3,0,2.62,0,3.89V19c0,.84.46,1.39,1.16,1.39a1.06,1.06,0,0,0,.79-.31A1.56,1.56,0,0,0,16.65,19V14.37a2.47,2.47,0,0,1,.08-.7A2.14,2.14,0,0,1,19,12.14h27.1a2,2,0,0,1,2.06,2.11c0,7.1,0,13.37,0,19.16a10.05,10.05,0,0,1-.11,1.22c0,.13,0,.26,0,.4H42.3c.06-.28.13-.56.19-.83.21-.85.41-1.73.56-2.61a1.25,1.25,0,0,0-.2-1,1.09,1.09,0,0,0-.81-.41c-.73-.07-1.19.38-1.3,1.24a8.18,8.18,0,0,1-1.09,3.35.67.67,0,0,1-.39.29,4.49,4.49,0,0,0-4.18,3.2.73.73,0,0,1-.4.39,8.4,8.4,0,0,1-8.55-2.56,8.64,8.64,0,0,1-2-4.83,1.16,1.16,0,1,0-2.31.16,9,9,0,0,0,.13,1.16,10.73,10.73,0,0,0,9.33,8.65,23,23,0,0,0,2.62,0l1,0v1.52c0,1.62,0,3.3,0,5a.54.54,0,0,1-.1.38c-.06.07-.18.09-.37.09H33.11A21.76,21.76,0,0,1,29.88,48,15.7,15.7,0,0,1,16.66,32.85c0-1.63,0-3.26,0-4.88V25.11c0-.45,0-.91,0-1.37a1,1,0,0,0-1-1.12h0a1.8,1.8,0,0,0-1.14.51,1.3,1.3,0,0,0-.21.91v.08c0,1.63,0,3.26,0,4.89,0,1.08,0,2.17,0,3.25a19,19,0,0,0,1,6.16A18.36,18.36,0,0,0,33.81,50.57l.87-.09.21,0V51c0,.65,0,1.3,0,1.95,0,1.48,0,3,0,4.53a38.92,38.92,0,0,0,.6,4.59l.08.48a1.26,1.26,0,0,0,.54.9,1.15,1.15,0,0,0,.58.16.93.93,0,0,0,.32,0C37.5,63.46,38,63.08,37.86,62Z"/><path d="M71.18,52.1c0-.9,0-1.8,0-2.69h0v-1.8c0-.86,0-1.71,0-2.57,0-2,0-4-.06-6a4.27,4.27,0,0,0-4.2-4h-4.3a1.19,1.19,0,0,0-1.34,1.14,1.11,1.11,0,0,0,.3.79,1.48,1.48,0,0,0,1.07.39h3.78a2.12,2.12,0,0,1,2.38,2.36v3.56q0,7.13,0,14.25a17.55,17.55,0,0,1-.24,2.9A15.82,15.82,0,0,1,45.93,71.82a15.81,15.81,0,0,1-6.09-5.47l-.07-.1c0-.06-.07-.12-.11-.17a1.22,1.22,0,0,0-1.74-.48,1.21,1.21,0,0,0-.21,1.79,18.07,18.07,0,0,0,25.52,5.32,17.4,17.4,0,0,0,7.91-14.2C71.23,56.37,71.21,54.2,71.18,52.1Z"/><path d="M58.49,66.87a4.9,4.9,0,0,0,2,.45,4.79,4.79,0,0,0,4.3-6.86C64,58.71,63,57,62.11,55.27l-.11-.2a1.75,1.75,0,0,0-1-.87,1.55,1.55,0,0,0-1.19.15,2.42,2.42,0,0,0-.89.93c-.59,1.07-1.14,2.13-1.73,3.26l-.53,1a7.21,7.21,0,0,0-4.79-.77,7.13,7.13,0,0,0-3.68,1.92,1.17,1.17,0,0,0-.09,1.65,1.15,1.15,0,0,0,1.65.1l.21-.19.13-.12a4.86,4.86,0,0,1,5.4-.55.45.45,0,0,1,.28.52A4.75,4.75,0,0,0,58.49,66.87Zm-.18-5.43c.52-1,1.06-2.06,1.62-3.14l.57-1.06.59,1.12c.56,1.06,1.09,2.06,1.59,3.09a2.39,2.39,0,0,1-.66,3,2.49,2.49,0,0,1-3.06,0A2.42,2.42,0,0,1,58.31,61.44Z"/><path d="M22.23,25.2a1.23,1.23,0,0,0,1.16-1.1,1.33,1.33,0,0,0,0-.28c0-.06,0-.12,0-.18a2.21,2.21,0,0,1,2.45-1.83,2.21,2.21,0,0,1,1.94,2.11c.09.81.62,1.33,1.3,1.27a1.24,1.24,0,0,0,1.08-1.4,4.62,4.62,0,0,0-4.57-4.35h0A4.63,4.63,0,0,0,21,23.82a1.26,1.26,0,0,0,1,1.37Z"/><path d="M35.76,25.19c.59.06,1.11-.42,1.28-1.19a3.8,3.8,0,0,1,.48-1.35,2,2,0,0,1,2.33-.76,2.13,2.13,0,0,1,1.6,2c.09.86.53,1.35,1.16,1.35h.13a1.27,1.27,0,0,0,1.08-1.47,4.62,4.62,0,0,0-4.62-4.28h-.07a4.57,4.57,0,0,0-4.47,4.37A1.23,1.23,0,0,0,35.76,25.19Z"/><path d="M51.42,48.33a1.11,1.11,0,0,0-.29-.9,1.2,1.2,0,0,0-1.76,0,4.75,4.75,0,0,1-6.63,0,1.18,1.18,0,0,0-1.74,0,1.11,1.11,0,0,0-.34.81,1.45,1.45,0,0,0,.52,1,7.64,7.64,0,0,0,5.57,1.92h0a6.74,6.74,0,0,0,4.13-1.91A1.46,1.46,0,0,0,51.42,48.33Z"/><path d="M65.12,47.42a1.17,1.17,0,0,0-.81-.38h0a1.3,1.3,0,0,0-.88.39,4.83,4.83,0,0,1-6.72,0,1.26,1.26,0,0,0-.9-.38,1.18,1.18,0,0,0-.64,2.13A6.91,6.91,0,0,0,60,51.12h0A6.94,6.94,0,0,0,65,49.17a1.4,1.4,0,0,0,.47-1A1.09,1.09,0,0,0,65.12,47.42Z"/></svg>