<svg id="Layer_1" data-name="Layer 1" xmlns="http://www.w3.org/2000/svg" viewBox="0 0 85.04 85.04"><path d="M72,40.61a8.33,8.33,0,0,0-7.85-7c-3.83-.06-7.66,0-11.48,0H52v-.69c0-1.81,0-3.62,0-5.43a8.32,8.32,0,0,0-8.3-8q-11.16,0-22.33,0A8.35,8.35,0,0,0,13,27.73c0,3.36,0,6.73,0,10.1a8.12,8.12,0,0,0,3.82,6.92,8.65,8.65,0,0,0,4.39,1.38c-.11,1-.2,1.95-.33,2.9a2.35,2.35,0,0,0,.79,2.33,2.2,2.2,0,0,0,2.38.3,10,10,0,0,0,5.58-5.06.79.79,0,0,1,.84-.5c2.37,0,4.73,0,7.1,0l.61,0c0,1.48,0,2.92,0,4.36a17.09,17.09,0,0,0,.17,2.87,8.37,8.37,0,0,0,8.37,6.93c2.63,0,5.27,0,7.9,0a.78.78,0,0,1,.84.49,10,10,0,0,0,5.48,5,2.27,2.27,0,0,0,2.44-.24,2.4,2.4,0,0,0,.82-2.43c-.14-.93-.21-1.86-.31-2.79l.24-.05.46-.07a8.19,8.19,0,0,0,6.74-4.85,18.35,18.35,0,0,0,.77-2.45v-12A1.63,1.63,0,0,1,72,40.61ZM69.81,52a6.07,6.07,0,0,1-6.12,6,8.88,8.88,0,0,0-1,0,1.07,1.07,0,0,0-1,1.17c0,1.17.13,2.34.19,3.51,0,.28,0,.57.07.93A7,7,0,0,1,59.21,62a7.64,7.64,0,0,1-1.94-2.9c-.4-1-.64-1.15-1.73-1.15-3.13,0-6.27,0-9.41-.05a5.93,5.93,0,0,1-5.52-5.59q-.09-5.28,0-10.56a9.36,9.36,0,0,1,.68-2.59c.23-.71.14-1.31-.39-1.63a1.17,1.17,0,0,0-1.69.55,8.93,8.93,0,0,0-1,4.21c0,.48,0,1,0,1.5H29.79c-1.4,0-1.47.05-2,1.34a7.59,7.59,0,0,1-4,4.11,4.94,4.94,0,0,1-.52.19c.09-1.12.18-2.19.25-3.26a10.07,10.07,0,0,0,0-1.1,1.17,1.17,0,0,0-1.29-1.28c-.42,0-.85,0-1.27,0a6.08,6.08,0,0,1-5.64-6.17c0-3.2,0-6.39,0-9.59a6.1,6.1,0,0,1,4.73-6,7,7,0,0,1,1.65-.18H43.25a6.14,6.14,0,0,1,6.37,6.4v5.48c-.51,0-1,0-1.42,0-.86,0-1.36.45-1.35,1.16S47.38,36,48.22,36c4.72,0,9.43,0,14.14,0a12.56,12.56,0,0,1,2.75.18A6,6,0,0,1,69.81,42C69.86,45.29,69.87,48.62,69.81,52Z"/><path d="M35.67,29.79c.14-.61.36-.84,1-.82a2,2,0,0,0,1.18-.44A1,1,0,0,0,38,27.3a1.26,1.26,0,0,0-1.25-.66c-1.17,0-2.34,0-3.52,0h-.6a11,11,0,0,0-.15-2,1.27,1.27,0,0,0-.78-.79,1.44,1.44,0,0,0-1.12.31,1.81,1.81,0,0,0-.35,1.05,13,13,0,0,0,0,1.4H26.36c-1.07,0-1.66.43-1.66,1.18S25.3,29,26.36,29h7.13a11.39,11.39,0,0,1-2.1,4.22c-.45-.76-.84-1.49-1.31-2.17a2.15,2.15,0,0,0-.88-.73,1,1,0,0,0-1.12.39A1.11,1.11,0,0,0,28,32.05c.58,1,1.17,2,1.78,3a2.41,2.41,0,0,1-.27.23c-1.25.91-2.52,1.81-3.76,2.75a2.44,2.44,0,0,0-.81,1,1,1,0,0,0,.44,1.15,1.14,1.14,0,0,0,1.35,0l4.83-3.31a3.06,3.06,0,0,0,.25.21c1.42,1,2.82,2.07,4.26,3.06a1.15,1.15,0,0,0,1.72-.27,1.19,1.19,0,0,0-.52-1.71c-.34-.23-.7-.4-1-.64-1.09-.79-2.18-1.61-3.28-2.42l.54-.73A12.46,12.46,0,0,0,35.67,29.79Z"/><path d="M57,41.49a1.69,1.69,0,0,0-1.92-1.27c-1.1,0-1.66.35-1.93,1.26q-1.55,5.06-3.08,10.11c-.21.72-.08,1,.58,1.34a3.45,3.45,0,0,0,1,.26.86.86,0,0,0,1.06-.72c.16-.65.35-1.29.53-2,1.12,0,2.16,0,3.19,0,.42,0,.58.13.65.53s.25.92.38,1.38c.2.7.44.87,1.17.78a2.9,2.9,0,0,0,.87-.25.92.92,0,0,0,.61-1.33Q58.55,46.54,57,41.49Zm-3.18,6.82c.4-1.48.79-2.92,1.19-4.37l.13,0,1.18,4.34Z"/><path d="M43.31,34.42a1.13,1.13,0,0,0-1.1,1.16,1.18,1.18,0,0,0,1.13,1.16,1.24,1.24,0,0,0,1.18-1.18A1.19,1.19,0,0,0,43.31,34.42Z"/></svg>