<svg id="Layer_1" data-name="Layer 1" xmlns="http://www.w3.org/2000/svg" viewBox="0 0 85.04 85.04"><path d="M54.42,21a1.88,1.88,0,0,0-1.37-.51H26.25a5.23,5.23,0,0,0-5.45,5.48q0,16.76,0,33.5A5.21,5.21,0,0,0,21,60.72a5.13,5.13,0,0,0,5.14,4q10.05,0,20.12,0H54a.88.88,0,0,0,.23,0,.75.75,0,0,0,.56-.41.71.71,0,0,0,0-.68,1.94,1.94,0,0,0-.23-.33l-.12-.16c-1.72-2.39-1.77-4.75-.14-7a3.81,3.81,0,0,0,.57-2.64.73.73,0,0,0-.7-.66h0a.73.73,0,0,0-.7.59c0,.13,0,.27-.06.42s0,.14,0,.21l0,.18H27.74V22H53.32l0,.27a1.16,1.16,0,0,0,0,.18.78.78,0,0,0,.78.7.81.81,0,0,0,.7-.88A1.76,1.76,0,0,0,54.42,21ZM22.3,25.82A3.7,3.7,0,0,1,25.24,22a2.63,2.63,0,0,1,.49-.06l.22,0,.23,0V54.31H26a5.56,5.56,0,0,0-3.32,1.24l-.31.24,0-.58c0-.13,0-.24,0-.34Zm22.9,30h7.08l.41,0-.13.26a7.59,7.59,0,0,0-.91,3.42A7.5,7.5,0,0,0,52.57,63l.14.29H26.28a3.69,3.69,0,0,1-3.8-2.53,3.79,3.79,0,0,1,.53-3.4,3.57,3.57,0,0,1,2.91-1.53Q35.57,55.79,45.2,55.8Z"/><path d="M39.78,44.44c0,1.1,0,2.2,0,3.3a2.61,2.61,0,0,0,2.86,2.89h19a2.63,2.63,0,0,0,2.85-2.86V34.9c0-1.45-.6-2-2.06-2H48.78l1.59-.47a2,2,0,0,1,.33-.1l4.19-.85,7.58-1.55a1.6,1.6,0,0,0,1.38-1.94,27.48,27.48,0,0,0-.57-2.81,1.59,1.59,0,0,0-1.57-1.22l-.34,0-5.6,1.14-5.91,1.21-9.15,1.86a2.06,2.06,0,0,0-1.4.79,2,2,0,0,0-.15,1.57,22.76,22.76,0,0,1,.64,5.76C39.76,39,39.77,41.76,39.78,44.44ZM63,47.76c0,1-.4,1.41-1.42,1.41H42.68c-1,0-1.4-.4-1.4-1.38V38.91H63ZM41.3,37.33v-3h3.47l-.27.34-.57.68c-.45.54-.88,1-1.28,1.58a1,1,0,0,1-.85.48,1.14,1.14,0,0,1-.35-.05ZM60.67,36c.34-.41.69-.82,1-1.25a1,1,0,0,1,1.19-.41l.14.05v3H59.57l.38-.5c.09-.11.16-.21.24-.3Zm-4-1.37a1,1,0,0,1,.7-.33c.54,0,1.08,0,1.65,0h1.13l-.79,1-1.59,1.91a.74.74,0,0,1-.52.23H54.41L55.59,36C55.94,35.53,56.3,35.08,56.68,34.66ZM50.35,36.1c.38-.46.77-.94,1.18-1.4a1.2,1.2,0,0,1,.77-.37c.52,0,1.05,0,1.6,0H55l-.79,1c-.55.68-1.08,1.32-1.61,1.95a.61.61,0,0,1-.44.19H49.31l.42-.53c.08-.11.15-.21.23-.3Zm-1.44-1.77.57,0h.43l-.81,1-1.56,1.9a.71.71,0,0,1-.48.21H44.17l.27-.34.51-.61c.36-.42.7-.82,1-1.25a1.9,1.9,0,0,1,2-.92A5.4,5.4,0,0,0,48.91,34.33Zm12.93-9,.59,2.9-.12.07a1,1,0,0,1-.56.18,1.24,1.24,0,0,1-.8-.37c-.5-.43-1-.84-1.54-1.27l-1-.82ZM54.5,26.86l1.71-.35a.63.63,0,0,1,.48.09l2,1.64.89.72-1,.2c-.69.13-1.31.26-1.94.37h-.07a.68.68,0,0,1-.39-.15l-1.91-1.54-.93-.76Zm-5,1,1.72-.33a.76.76,0,0,1,.55.13c.62.5,1.24,1,1.89,1.54l.93.76-1,.2-1.88.39h-.09a.65.65,0,0,1-.38-.13l-2.09-1.68-.82-.67Zm-5.05,1,1.78-.37a.61.61,0,0,1,.44.1l1.89,1.52,1,.82-.7.17-.44.1a5.54,5.54,0,0,0-.55.14,4.3,4.3,0,0,1-1,.19,1.34,1.34,0,0,1-.35,0,2.83,2.83,0,0,1-1.17-.79c-.14-.13-.28-.27-.43-.39l-.74-.6-.78-.63Zm-3.77.81a1,1,0,0,1,1.23.12c.5.44,1,.87,1.59,1.32l.74.59.33.27-3.45.71-.59-2.94Z"/><path d="M48.34,59.76a.59.59,0,0,0,0-.58.92.92,0,0,0-.79-.36H26.23a.73.73,0,1,0-.07,1.46H47.43a.79.79,0,0,0,.32,0A1.52,1.52,0,0,0,48.34,59.76Z"/></svg>