<svg id="Layer_1" data-name="Layer 1" xmlns="http://www.w3.org/2000/svg" viewBox="0 0 85.04 85.04"><path d="M73.4,44.87a5.41,5.41,0,0,0-3.35-4,16.78,16.78,0,0,0-6.86-1.18H32.4a16.24,16.24,0,0,0-.63-1.58,7,7,0,0,0-.94-1.4c-1.41-1.61-2.86-3.19-4.29-4.78a6.74,6.74,0,0,0-3.39-2.05,5.69,5.69,0,0,0-3.09,0c-.14-1.54.41-3.61-1-4.95a4.31,4.31,0,1,0-6.68,0,3.27,3.27,0,0,0-.94,2.22V65.85a1.18,1.18,0,0,0,1.31,1.32c1.32,0,2.63,0,3.94,0a1.27,1.27,0,0,0,1.4-1.27c.08-.53.15-1.08.26-1.61a13.31,13.31,0,0,1,2.12-5.22,1.26,1.26,0,0,1,1.16-.58,24.87,24.87,0,0,0,2.73,0,1.19,1.19,0,0,0,1.12-1.21A1.28,1.28,0,0,0,24.32,56a4.87,4.87,0,0,0-.54,0H13.89V45.43H30c0,1,0,2,0,3a3.43,3.43,0,0,0,1.59,3A4.12,4.12,0,0,0,34,52H69.55c.5,0,1-.05,1.48-.08V56H35.47a4,4,0,0,0-.78,0,1.22,1.22,0,0,0-1,1.25,1.2,1.2,0,0,0,1,1.15,5.23,5.23,0,0,0,.79,0c9,0,18,0,27,0a2.5,2.5,0,0,1,2.62,1.6c0,.09.1.18.14.27a16.82,16.82,0,0,1,1.58,5.42c.13,1,.52,1.42,1.57,1.42s2.26,0,3.39,0a1.77,1.77,0,0,0,1.71-.75V45.09A.62.62,0,0,1,73.4,44.87ZM13.89,58.53h3.75l-2.07,6.18H13.89Zm1.84-38.17a1.88,1.88,0,0,1,1.84,1.86A1.84,1.84,0,0,1,15.7,24a1.86,1.86,0,0,1-1.84-1.85A1.9,1.9,0,0,1,15.73,20.36Zm1.85,22c0,.14,0,.28,0,.49H13.88c0-.21,0-.4,0-.6q0-7.29,0-14.6c0-1,.19-1.17,1.15-1.17h1.7a.76.76,0,0,1,.86.79c0,.11,0,.21,0,.31Zm2.46.48V39.33l3.2,3.56ZM30,42a1,1,0,0,1-1.06,1,4.45,4.45,0,0,1-3.75-1.57c-1.25-1.45-2.53-2.88-3.85-4.27A4.75,4.75,0,0,1,20,33.19a1.4,1.4,0,0,1,1.33-1.14c1.53-.22,2.51.51,3.48,1.65,1.32,1.53,2.7,3,4,4.51A4,4,0,0,1,30,41.31,6.29,6.29,0,0,1,30,42ZM71,64.69H69.35c-.7-2.08-1.38-4.13-2.06-6.16H71ZM69.86,49.47h-36c-1.14,0-1.37-.23-1.37-1.39V42.19l.54,0q15.61,0,31.21,0a12.1,12.1,0,0,1,4.89,1,3,3,0,0,1,1.94,2.94c0,.72,0,1.45,0,2.18S70.73,49.47,69.86,49.47Z"/><path d="M29.57,56a1.25,1.25,0,0,0-1.22,1.18,1.22,1.22,0,0,0,1.18,1.27,1.26,1.26,0,0,0,1.27-1.2A1.29,1.29,0,0,0,29.57,56Z"/></svg>