<svg id="Layer_1" data-name="Layer 1" xmlns="http://www.w3.org/2000/svg" viewBox="0 0 85.04 85.04"><path d="M73.83,36.86c-.47.52-.92,1.07-1.42,1.57-1,1-2,2-3,3-.82.81-1.1.87-2.19.4v1q0,4.23,0,8.46a1.19,1.19,0,0,1-1,1.25,1.21,1.21,0,0,1-1.35-.79,2.48,2.48,0,0,1-.06-.72q0-5.35,0-10.71a.91.91,0,0,0-.37-.83Q53.77,31.16,43.07,22.8a.54.54,0,0,0-.82,0Q31.57,31.17,20.88,39.52a1.07,1.07,0,0,0-.36.75q0,15.51,0,31v.45h3.41v-.67c0-3.55,0-7.11,0-10.66a1.18,1.18,0,0,1,.75-1.2,1,1,0,0,1,1.28.24,1.88,1.88,0,0,1,.39,1.09c0,3.51,0,7,0,10.53v.68H64.82V60.54a1.22,1.22,0,0,1,2.36-.5,2.45,2.45,0,0,1,.07.72c0,3.43,0,6.85,0,10.28v.76h.85c1.38,0,2.76,0,4.14,0a1.48,1.48,0,0,1,1.58.86v.73a1.52,1.52,0,0,1-1.58.86H12.6a1.22,1.22,0,0,1,0-2.43c.28,0,.57,0,.85,0H18v-30c-1.09.46-1.33.41-2.2-.46-1.26-1.26-2.53-2.52-3.79-3.79a1.29,1.29,0,0,1,.15-2.23q11.06-8.63,22.1-17.26c2.63-2,5.25-4.12,7.88-6.18h1s0,0,0,.06l12.8,10c.16.13.34.24.53.38a1,1,0,0,0,0-.18V17.81A1.24,1.24,0,0,1,58,16.4h6.57c1.1,0,1.51.4,1.51,1.49q0,5.68,0,11.38a1,1,0,0,0,.42.86c2.11,1.63,4.23,3.27,6.32,4.93a13.25,13.25,0,0,1,1.06,1.06ZM17.27,39.18c.12-.08.24-.16.35-.25l24-18.72c.88-.69,1.26-.69,2.14,0L66.6,38.06,68,39.16l2.63-2.63-28-21.85-28,21.87ZM59,18.86c0,1.77,0,3.49,0,5.21a.69.69,0,0,0,.27.43c1.35,1.07,2.71,2.12,4.07,3.18a1.75,1.75,0,0,0,.24.11V18.86Z"/><path d="M55.57,51.36V62.74c0,1.1-.41,1.51-1.5,1.51H31.25c-1.09,0-1.49-.41-1.49-1.51V39.92c0-1.06.41-1.48,1.46-1.48H54.11c1,0,1.46.42,1.46,1.48ZM32.24,40.89v9.2H41.4v-9.2Zm20.87,0H43.93v9.17h9.18ZM32.23,52.59v9.18H41.4V52.59Zm20.86,9.2V52.61H43.91v9.18Z"/><path d="M26.35,55.54a1.25,1.25,0,0,1-1.2,1.26,1.25,1.25,0,1,1,1.2-1.26Z"/><path d="M67.26,56.24a1.22,1.22,0,1,1-2.44-.08,1.22,1.22,0,0,1,2.44.08Z"/></svg>