<svg id="Layer_1" data-name="Layer 1" xmlns="http://www.w3.org/2000/svg" viewBox="0 0 85.04 85.04"><path d="M42.3,63.56c-5.29,0-10.58,0-15.87,0a8.28,8.28,0,0,1-7.85-7,13.41,13.41,0,0,1-.11-1.68q0-9.27,0-18.55a8.29,8.29,0,0,1,6.46-8.23,10.83,10.83,0,0,1,2.13-.21c1.51,0,3,0,4.53,0a.57.57,0,0,0,.62-.38c.21-.48.45-.95.7-1.41a5.24,5.24,0,0,1,4.82-3q4.58,0,9.13,0a5.25,5.25,0,0,1,4.83,3c.32.58.47,1.4,1,1.68s1.32.08,2,.1a42.07,42.07,0,0,1,4.64.16A8.17,8.17,0,0,1,66,35a13.61,13.61,0,0,1,.1,1.56q0,9.32,0,18.61a8.3,8.3,0,0,1-6.52,8.24,9.59,9.59,0,0,1-2.08.2Zm0-2.26h1c5,0,10.08,0,15.12,0a5.81,5.81,0,0,0,5.49-5.6q.06-9.93,0-19.87a5.85,5.85,0,0,0-5.42-5.61c-2.09-.08-4.18-.05-6.27-.05a1.47,1.47,0,0,1-1.48-.92c-.34-.74-.72-1.47-1.1-2.19a2.87,2.87,0,0,0-2.67-1.68c-3.09,0-6.18,0-9.26,0A2.86,2.86,0,0,0,35,27c-.36.69-.73,1.37-1,2.09a1.62,1.62,0,0,1-1.69,1.06c-2,0-4-.05-6,0A5.85,5.85,0,0,0,20.73,36q0,9.73,0,19.46A6,6,0,0,0,27,61.31C32.06,61.27,37.15,61.3,42.25,61.3Z"/><path d="M54.23,44.53A11.93,11.93,0,1,1,42.6,32.61,12,12,0,0,1,54.23,44.53ZM42.32,34.86A9.66,9.66,0,1,0,52,44.5,9.67,9.67,0,0,0,42.32,34.86Z"/></svg>