<svg id="Layer_1" data-name="Layer 1" xmlns="http://www.w3.org/2000/svg" viewBox="0 0 85.04 85.04"><path d="M56.08,24.47a1.15,1.15,0,0,0-1.27-1l-4.32.57a1.11,1.11,0,0,0-.76.47,1,1,0,0,0-.2.8,1.13,1.13,0,0,0,1.26,1l1.63-.21L36.83,46.4l-1.51,2-1.5,2L32.52,52c-.52.66-1.05,1.33-1.57,2-.06-.53-.13-1-.2-1.58a1.15,1.15,0,0,0-.47-.77,1,1,0,0,0-.8-.2,1.15,1.15,0,0,0-1,1.26l.57,4.33a1.14,1.14,0,0,0,1.12,1h.14l4.32-.57a1.18,1.18,0,0,0,.77-.46,1.07,1.07,0,0,0,.2-.8,1.16,1.16,0,0,0-1.27-1l-1.62.22,2.1-2.75,1.34-1.74,1.33-1.74L51.7,30.71,53,29l1.19-1.51.21,1.57a1.18,1.18,0,0,0,.46.77,1,1,0,0,0,.8.2,1.15,1.15,0,0,0,1-1.26Z"/><path d="M66.65,19.4c0-.51,0-1-.05-1.55A6.41,6.41,0,0,0,60.44,12q-18,0-35.93,0a6.4,6.4,0,0,0-6.16,5.85c0,.51-.06,1-.06,1.55q0,23.4,0,46.8A6.44,6.44,0,0,0,21,71.9a16.45,16.45,0,0,0,2.81,1.22H62.41a6.05,6.05,0,0,0,2.91-1.64,5.76,5.76,0,0,0,1.34-4.08Q66.65,43.4,66.65,19.4Zm-3,50.67A3.18,3.18,0,0,1,61.3,71h-29c-2.48,0-5,0-7.46,0a4.28,4.28,0,0,1-4.3-3.41,5.27,5.27,0,0,1-.1-1.19V18.74a4.31,4.31,0,0,1,4.64-4.61h34.8a4.29,4.29,0,0,1,4.44,3.4,6.14,6.14,0,0,1,.1,1.36q0,12.15,0,24.29t0,24.42A3.25,3.25,0,0,1,63.68,70.07Z"/><path d="M59.53,17.16H25.26c-1.28,0-1.64.36-1.64,1.62v43.1c0,1.31.35,1.66,1.67,1.66h34.2c1.36,0,1.7-.33,1.7-1.68v-43C61.19,17.51,60.84,17.16,59.53,17.16Zm-.41,44H25.83V19.4H59.12Z"/><path d="M44.19,66.06c-.57,0-1.15,0-1.73,0h0c-.55,0-1.11,0-1.66,0a1,1,0,0,0-1.07,1,1,1,0,0,0,.88,1.09,35.89,35.89,0,0,0,3.74,0,1,1,0,0,0,.86-1.1A1,1,0,0,0,44.19,66.06Z"/></svg>