<svg id="Layer_1" data-name="Layer 1" xmlns="http://www.w3.org/2000/svg" viewBox="0 0 85.04 85.04"><path d="M44.8,48.27h.74l1.38,0a6.41,6.41,0,0,0,3.79-.84,4.77,4.77,0,0,0,2.11-2.22,5.68,5.68,0,0,0-.23-4.93,5,5,0,0,0-3.71-2.51,20.58,20.58,0,0,0-2.72-.16L45,37.6h-.2a1.1,1.1,0,0,0-.67.26,1,1,0,0,0-.29.69v8.77a1,1,0,0,0,.95,1Zm1-8.24a.89.89,0,0,1,.88-.88h.17c1.34,0,2.85,0,3.73,1.54a4.25,4.25,0,0,1-.05,4.39,3.59,3.59,0,0,1-3.34,1.66l-.57,0a.88.88,0,0,1-.82-.88Z"/><path d="M40,37.81h0a.94.94,0,0,0-.94.92l0,1.66a1.52,1.52,0,0,1-1.88,1.84h-1.4a1.85,1.85,0,0,1-1.85-1.86V38.78a1,1,0,0,0-1.91,0V47.3a1,1,0,0,0,1.93,0V45.5a1.86,1.86,0,0,1,1.85-1.86h1.41A1.86,1.86,0,0,1,39,45.5v1.79a.94.94,0,0,0,.95,1,1,1,0,0,0,1-1l0-8.47A1,1,0,0,0,40,37.81Z"/><path d="M56.09,59.92l-1.49,0c-.87,0-1.74,0-2.61,0a.67.67,0,0,0-.61.56,1.13,1.13,0,0,0,.1,1,1.12,1.12,0,0,0,.91.35c1.54,0,2.8,0,3.94,0a4.75,4.75,0,0,0,4.84-3.7,11.77,11.77,0,0,0,.21-2l-.06-1c0-.28,0-.57,0-.86,0-.63,0-1.23,0-1.82s-.55-.66-.85-.69h-.08a.85.85,0,0,0-.89.6,3.71,3.71,0,0,0-.05.7c0,.49,0,1,0,1.45,0,.87,0,1.74,0,2.61a2.82,2.82,0,0,1-2.19,2.65A5,5,0,0,1,56.09,59.92Z"/><path d="M59.43,29.19v1.42c0,.74,0,1.48.05,2.22a.67.67,0,0,0,.58.59,1.1,1.1,0,0,0,1-.11,1,1,0,0,0,.32-.79c0-1.77,0-3.21,0-4.52a4.65,4.65,0,0,0-3.7-4.39,10.5,10.5,0,0,0-1.91-.18v0H53.85c-.6,0-1.17,0-1.72,0a.8.8,0,0,0-.8.92.82.82,0,0,0,.83.95c.3,0,.6,0,.89,0h.4c1.09,0,2.18,0,3.27.05a2.81,2.81,0,0,1,2.68,2.64C59.43,28.42,59.43,28.81,59.43,29.19Z"/><path d="M26.66,61.66a12.54,12.54,0,0,0,1.92.21V61.8h1.89c.65,0,1.27,0,1.88,0,.41,0,.54-.43.58-.56a.93.93,0,0,0-1-1.3c-1,0-2.19,0-3.39,0a3.6,3.6,0,0,1-2.81-.88,3.57,3.57,0,0,1-.89-2.83c0-1.08,0-2.27,0-3.75a.68.68,0,0,0-.57-.61,1.51,1.51,0,0,0-.41-.06.91.91,0,0,0-.54.16,1.12,1.12,0,0,0-.34.87c0,1.64,0,2.89,0,4.07A4.72,4.72,0,0,0,26.66,61.66Z"/><path d="M28.58,25.37H30c.78,0,1.55,0,2.31-.05s.7-.7.7-.9a.81.81,0,0,0-.72-.92c-.57,0-1.14,0-1.75,0h-.83l-1.09,0H28a4.77,4.77,0,0,0-5,4.13A27,27,0,0,0,23,31.81l0,1c0,.54.59.64.84.66a.83.83,0,0,0,.95-.56,3,3,0,0,0,.07-.76c0-.5,0-1,0-1.49,0-.85,0-1.69,0-2.53a2.8,2.8,0,0,1,2.69-2.73C27.93,25.37,28.26,25.37,28.58,25.37Z"/></svg>