<svg id="Layer_1" data-name="Layer 1" xmlns="http://www.w3.org/2000/svg" viewBox="0 0 85.04 85.04"><path d="M45.09,30.5l0-.05h0a1.12,1.12,0,0,0-.81-.32H40.76a1,1,0,0,0-1,1c0,.14,0,.27,0,.43a3.38,3.38,0,0,1,0,.45.47.47,0,0,0,0,.09L38,32.77l-.36.14-.08-.09c-.14-.16-.3-.34-.47-.5a1,1,0,0,0-1.57,0c-.8.78-1.57,1.55-2.37,2.36a1,1,0,0,0,0,1.57,7.23,7.23,0,0,0,.59.54l0,0-.09.19,0,.07a3.62,3.62,0,0,0-.4,1c-.16.75-.46,1-1.18.87a.87.87,0,0,0-.75.19,1.16,1.16,0,0,0-.36.85c0,1.1,0,2.25,0,3.44a1.05,1.05,0,0,0,1,1.07,2.72,2.72,0,0,0,.7,0c.14,0,.23,0,.28,0s.09.13.11.28a2.35,2.35,0,0,0,.36.91c.43.61.37,1-.21,1.4a.91.91,0,0,0-.4.68,1.11,1.11,0,0,0,.32.85c.82.84,1.65,1.67,2.47,2.46a1,1,0,0,0,1.45,0,3.83,3.83,0,0,0,.29-.28l0,0a3.11,3.11,0,0,1,.32-.31l.08,0c.54.23,1.08.46,1.58.69l.37.16v.09c0,.24,0,.5,0,.75a1.06,1.06,0,0,0,1.11,1.11h3.35a1.06,1.06,0,0,0,1.12-1.1c0-.24,0-.48,0-.76v-.12l.18-.06h.05a3.75,3.75,0,0,0,.94-.4,1.24,1.24,0,0,1,.87-.27,1,1,0,0,1,.53.47.37.37,0,0,0,.1.11,1,1,0,0,0,1.45,0c.83-.81,1.66-1.64,2.47-2.46a1,1,0,0,0,0-1.5l-.24-.24a2.54,2.54,0,0,1-.32-.34.27.27,0,0,1,0-.15c0-.12.12-.26.19-.39a2.57,2.57,0,0,0,.29-.71,1.11,1.11,0,0,1,.39-.76,1,1,0,0,1,.72,0,.84.84,0,0,0,.36,0,1,1,0,0,0,.81-1c0-1.28,0-2.4,0-3.53a1,1,0,0,0-1-1,3,3,0,0,0-.6,0,.54.54,0,0,1-.38,0,.47.47,0,0,1-.12-.3,2.14,2.14,0,0,0-.36-.92c-.41-.58-.35-.94.23-1.36a1,1,0,0,0,.41-.7,1.23,1.23,0,0,0-.38-.9c-.8-.8-1.57-1.58-2.37-2.36a1,1,0,0,0-1.56,0l-.54.56-.06.07h0l-.41-.21-.17-.08a1.72,1.72,0,0,0-.52-.21c-.82-.16-1.06-.48-.93-1.22A.82.82,0,0,0,45.09,30.5ZM49.23,36a1,1,0,0,0-.15,1.36,8.26,8.26,0,0,1,1.16,2.79,1,1,0,0,0,1,.83H52v1.43h-.57a1.13,1.13,0,0,0-1.17.9c-.38,1-.73,1.89-1.08,2.63s-.38,1,.23,1.61l.3.26-1.08,1.07a3.61,3.61,0,0,0-.33-.39,1,1,0,0,0-1.45-.18,8,8,0,0,1-2.68,1.11,1.07,1.07,0,0,0-.91,1.11v.62H41.78V50.6c0-.77-.29-1-.94-1.23-.84-.31-1.71-.68-2.66-1.12a1.09,1.09,0,0,0-1.46.22,6,6,0,0,0-.42.44h0a6.3,6.3,0,0,0-.48-.55l-.55-.49,0,0h0c.2-.15.37-.29.53-.43a1,1,0,0,0,.17-1.4,8.07,8.07,0,0,1-1.14-2.75,1.07,1.07,0,0,0-1.09-.88H33V40.93h.68a1,1,0,0,0,1.06-.85,8.07,8.07,0,0,1,1.14-2.76,1,1,0,0,0-.17-1.39c-.14-.13-.28-.26-.45-.39l1.09-1.07.37.42a1,1,0,0,0,1.4.19,8,8,0,0,1,2.79-1.16,1,1,0,0,0,.83-1c0-.23,0-.46,0-.69h1.44v.58a1.12,1.12,0,0,0,.9,1.17c1,.37,1.88.72,2.64,1.08h0a1.12,1.12,0,0,0,1.55-.23l.31-.35,1.06,1.06Z"/><path d="M58.2,39.16a15.73,15.73,0,0,0-5.7-9.87,15.1,15.1,0,0,0-4.27-2.46,1,1,0,1,0-.78,1.91l.1,0,.07,0A13.85,13.85,0,0,1,55.93,45a12,12,0,0,1-.84,2.43,1,1,0,0,0-1.82-.53,1,1,0,0,0-.22.78c.11,1,.22,2,.36,2.93a1.08,1.08,0,0,0,.45.82.92.92,0,0,0,.55.16,1.31,1.31,0,0,0,.39,0c1-.23,1.89-.48,2.76-.72a1,1,0,1,0-.47-2,3.15,3.15,0,0,0-.42.09A15.54,15.54,0,0,0,58.2,39.16ZM47.62,28.67Z"/><path d="M32.58,49.17h0a1.06,1.06,0,0,0,0-.78,1.11,1.11,0,0,0-.62-.62c-1-.43-1.87-.8-2.71-1.14a1.1,1.1,0,0,0-.89,0,1.06,1.06,0,0,0-.53.69c-.27.89-.52,1.82-.79,2.83a1.11,1.11,0,0,0,.11.88,1,1,0,0,0,1.88-.33c0-.12.07-.24.11-.37a15.86,15.86,0,0,0,20.45,5.53,18.81,18.81,0,0,0,2.27-1.42l.53-.36a1.11,1.11,0,0,0,.5-.75,1,1,0,0,0-.23-.78,1,1,0,0,0-1.52-.1l-.11.08-.07.06a13.81,13.81,0,0,1-18.27-1.16,20.26,20.26,0,0,1-1.41-1.64l0,0-.05-.06A1,1,0,0,0,32.58,49.17Z"/><path d="M40.17,25.94a15.93,15.93,0,0,0-13.4,18c.1.7.48,1.11,1,1.11h.08a1,1,0,0,0,.7-.35,1.19,1.19,0,0,0,.22-1A13.26,13.26,0,0,1,28.93,39,13.7,13.7,0,0,1,39.35,28.2a15.18,15.18,0,0,1,1.83-.31h0a0,0,0,0,1,0,0,1,1,0,0,0,1.27,1.62c.85-.63,1.63-1.22,2.38-1.81a1,1,0,0,0,.44-.76,1.08,1.08,0,0,0-.33-.82c-.67-.69-1.34-1.38-2.07-2.1A1,1,0,0,0,41.38,24a1,1,0,0,0-.34.74,1.18,1.18,0,0,0,.35.76c.09.1.19.19.3.29h-.08C41.14,25.83,40.64,25.87,40.17,25.94Z"/><path d="M42.51,35.15h-.06a6.5,6.5,0,0,0,.06,13h0a6.44,6.44,0,0,0,4.58-1.94A6.36,6.36,0,0,0,49,41.63,6.48,6.48,0,0,0,47,37,6.4,6.4,0,0,0,42.51,35.15Zm4.41,6.47h0a4.44,4.44,0,0,1-4.41,4.47,4.43,4.43,0,1,1,4.41-4.47Z"/><path d="M67.87,15.24a5.72,5.72,0,0,0-1.16-3.43A6.25,6.25,0,0,0,63,9.5H21.85l-.1.05-.17.07a5.54,5.54,0,0,0-4.46,4.71A17.64,17.64,0,0,0,17,17.41c0,.4,0,.8,0,1.19a1.09,1.09,0,0,0,1.07,1.2,1,1,0,0,0,.75-.28,1.3,1.3,0,0,0,.36-.95c0-.63,0-1.25,0-1.88V15.8c0-2.66,1.45-4.12,4.1-4.12H61.59c2.63,0,4.08,1.44,4.08,4.07q0,26.91,0,53.84a3.71,3.71,0,0,1-4.07,4.08H23.31c-2.65,0-4.11-1.46-4.11-4.1V54.85q0-16,0-32a1.47,1.47,0,0,0-.34-1.08,1,1,0,0,0-.74-.27h0c-.69,0-1.08.49-1.08,1.32v10q0,18.69,0,37.36a5.76,5.76,0,0,0,5.76,5.73H62.1a5.76,5.76,0,0,0,5.77-5.73V15.24Z"/><path d="M20.87,18.05V53.79a2.68,2.68,0,0,0,0,.49,1,1,0,0,0,1,.94H22a1,1,0,0,0,1.06-.9,2,2,0,0,0,0-.49V18.68H61.81v8.66c0,1.46,0,2.92,0,4.38a1.07,1.07,0,0,0,1.09,1.17h0A1.07,1.07,0,0,0,64,31.72V18c0-1.21-.3-1.5-1.53-1.5h-40C21.13,16.46,20.87,16.73,20.87,18.05Z"/><path d="M64,65V36a2.26,2.26,0,0,0,0-.45h0a1,1,0,0,0-1-.94H62.9a1,1,0,0,0-1.07.92,2.72,2.72,0,0,0,0,.49V64.22H23.06V58.36c0-1.25-.68-1.45-1.08-1.46h0a1,1,0,0,0-.7.26,1.69,1.69,0,0,0-.38,1.23V65c0,1.22.34,1.55,1.59,1.55h40C63.66,66.52,64,66.19,64,65Z"/><path d="M42.43,66.76a3.09,3.09,0,0,0-2.15,5.3,3.11,3.11,0,0,0,2.15.87h0a3.09,3.09,0,0,0,0-6.17Zm.88,3.1h0a.88.88,0,0,1-.88.85.84.84,0,0,1-.63-.28.81.81,0,0,1-.24-.62.85.85,0,0,1,.88-.81h0A.86.86,0,0,1,43.31,69.86Z"/><path d="M44.44,15.17l2.14,0a1.13,1.13,0,0,0,.84-.34A1.1,1.1,0,0,0,46.58,13H45.09c-.44,0-.87,0-1.31,0H42.25a1,1,0,0,0-1.13,1.13,1.07,1.07,0,0,0,1.13,1.06Z"/><path d="M38.52,15.16a1.1,1.1,0,1,0,0-2.2h0a1.1,1.1,0,0,0-.79.33,1,1,0,0,0-.3.77,1.12,1.12,0,0,0,1.1,1.1Z"/></svg>