<svg id="Layer_1" data-name="Layer 1" xmlns="http://www.w3.org/2000/svg" viewBox="0 0 85.04 85.04"><path d="M42.25,61.8H28.35a5.86,5.86,0,0,1-6-6q0-8.09,0-16.16a5.86,5.86,0,0,1,6-6H46.81a1.18,1.18,0,0,1,1.33,1.19A1.11,1.11,0,0,1,47.2,36a4.46,4.46,0,0,1-.82.05H28.53a3.47,3.47,0,0,0-3.6,2.33,3.52,3.52,0,0,0-.2,1.12c0,5.51,0,11,0,16.54a3.43,3.43,0,0,0,3.16,3.4c.26,0,.51,0,.77,0H55.91a3.89,3.89,0,0,0,2.54-.71,3.33,3.33,0,0,0,1.36-2.46,4.93,4.93,0,0,0,0-.55c0-5.33,0-10.66,0-16A3.45,3.45,0,0,0,56.51,36a3.84,3.84,0,0,1-.59-.11,1.16,1.16,0,0,1-.73-1.33,1.18,1.18,0,0,1,1.13-.94,5.84,5.84,0,0,1,5.77,4.68,7.66,7.66,0,0,1,.11,1.26q0,8.13,0,16.26a5.82,5.82,0,0,1-5.94,5.94Z"/><path d="M38.73,47.22a18,18,0,0,0,.19,2.56,3.37,3.37,0,0,0,3.69,2.59,3.43,3.43,0,0,0,3.14-3.13c.09-1,.44-1.48,1.16-1.51a1.16,1.16,0,0,1,1.23,1.19,5.87,5.87,0,1,1-11.74-.06c0-1.15,0-2.31,0-3.46a2.32,2.32,0,1,0-4.63,0c0,1.1,0,2.2,0,3.3,0,.85-.49,1.39-1.22,1.37a1.21,1.21,0,0,1-1.17-1.37,37.4,37.4,0,0,1,.12-4.11,4.66,4.66,0,0,1,9.2,0c.12.87.1,1.75.15,2.63Z"/><path d="M57.52,25.57a4.43,4.43,0,0,1-.21.6L48.13,44.54a1.2,1.2,0,0,1-1.7.71,1.23,1.23,0,0,1-.41-1.8q4.57-9.14,9.14-18.29a1.31,1.31,0,0,1,1.09-.87A1.19,1.19,0,0,1,57.52,25.57Z"/></svg>