<svg id="Layer_1" data-name="Layer 1" xmlns="http://www.w3.org/2000/svg" viewBox="0 0 85.04 85.04"><path d="M24.45,73.12a16.35,16.35,0,0,1-2.8-1.22,6.4,6.4,0,0,1-2.76-5.7q0-23.4,0-46.8c0-.52,0-1,.05-1.55A6.41,6.41,0,0,1,25.11,12q18,0,35.94,0a6.4,6.4,0,0,1,6.15,5.85c0,.52,0,1,0,1.55q0,24,0,48a5.72,5.72,0,0,1-1.34,4.08A6,6,0,0,1,63,73.12ZM65.07,43.18q0-12.13,0-24.29a6.14,6.14,0,0,0-.1-1.36,4.29,4.29,0,0,0-4.44-3.4H25.72a4.31,4.31,0,0,0-4.64,4.61V66.37a5.27,5.27,0,0,0,.1,1.19A4.28,4.28,0,0,0,25.48,71c2.49,0,5,0,7.47,0H61.9a3,3,0,0,0,3.17-3.38Q65.06,55.39,65.07,43.18Z"/><path d="M61.79,40.37V61.86c0,1.35-.34,1.68-1.7,1.68H25.89c-1.32,0-1.67-.35-1.67-1.66V18.78c0-1.26.36-1.62,1.64-1.62H60.13c1.31,0,1.66.35,1.66,1.66Zm-35.35-21V61.17H59.72V19.4Z"/><path d="M43.07,66.06c.57,0,1.15,0,1.72,0a1,1,0,0,1,1,1,1,1,0,0,1-.86,1.1,33.33,33.33,0,0,1-3.74,0,1,1,0,0,1-.88-1.08,1,1,0,0,1,1.07-1c.55,0,1.11,0,1.67,0Z"/><path d="M44.15,43.41v3.33c0,.77-.42,1.26-1,1.28S42,47.53,42,46.74V43.42H33.28c0,.22-.07.45-.07.67,0,.9,0,1.79,0,2.69S32.74,48,32.12,48A1.15,1.15,0,0,1,31,46.77c0-1,0-2.07,0-3.11a2.35,2.35,0,0,1,2.51-2.44c2.57,0,5.13,0,7.7,0H42V39.78c-1.11,0-2.21,0-3.32,0a11.47,11.47,0,0,1-2.42-.21A5,5,0,0,1,33,32.65a5.76,5.76,0,0,1,3.66-3.42,1.13,1.13,0,0,0,.59-.51,6.56,6.56,0,0,1,12.18.93,1.22,1.22,0,0,0,1,1.05,4.46,4.46,0,0,1,2.23,7,5.08,5.08,0,0,1-4.23,2.05c-1.39,0-2.78,0-4.22,0v1.43h8.17A2.46,2.46,0,0,1,55.12,44c0,.94,0,1.88,0,2.81s-.84,1.53-1.6,1.11a1.18,1.18,0,0,1-.57-1.16c0-.92,0-1.83,0-2.75,0-.4-.08-.61-.56-.6-2.62,0-5.25,0-7.87,0Zm-1.08-5.82c1.75,0,3.5,0,5.25,0a4.68,4.68,0,0,0,1.35-.18,2.72,2.72,0,0,0,1.75-2.65,2.21,2.21,0,0,0-2-2.07,5.63,5.63,0,0,0-.71,0,1,1,0,0,1-1.2-1c-.06-.33,0-.67-.12-1A4.37,4.37,0,0,0,39,30.1a1.64,1.64,0,0,1-1.31,1.12,4.54,4.54,0,0,0-1.55.7,3.55,3.55,0,0,0-1.27,3.83C35.3,37,36.31,37.59,38,37.59Z"/><path d="M31.87,54.75a3,3,0,0,1,0-6,3,3,0,1,1,0,6Zm.85-3a.8.8,0,0,0-.81-.84.86.86,0,0,0-.89.84.88.88,0,0,0,.89.85A.82.82,0,0,0,32.72,51.74Z"/><path d="M54.29,54.75a3,3,0,1,1,3-3A3,3,0,0,1,54.29,54.75Zm0-2.16a.88.88,0,0,0,.86-.81.86.86,0,0,0-.86-.88.8.8,0,0,0-.84.81A.82.82,0,0,0,54.27,52.59Z"/><path d="M46.09,51.72a3,3,0,1,1-3.05-3A3,3,0,0,1,46.09,51.72Zm-2.17,0a.85.85,0,1,0-1.69,0,.85.85,0,1,0,1.69,0Z"/></svg>