<svg id="Layer_1" data-name="Layer 1" xmlns="http://www.w3.org/2000/svg" viewBox="0 0 85.04 85.04"><path d="M26.18,52.8a6.24,6.24,0,0,1,2.66-5.22,8.69,8.69,0,0,1,2.12-1c.38-.13.5-.27.49-.65q0-3.5,0-7a3,3,0,0,1,3.17-3.15h1.43V31.09H34.81c-2,0-4.05,0-6.07,0a3.44,3.44,0,0,1-3.31-4.58c.24-.72.52-1.44.81-2.14a3.38,3.38,0,0,1,3.47-2.2c2,.14,4,.37,6,.56.4,0,.8.05,1.21.1.94.13,1.2.42,1.2,1.38V35.79h2.34v-17c0-1.46.15-1.63,1.6-1.78,2.25-.22,4.49-.44,6.74-.63a3.34,3.34,0,0,1,3.53,2.17,14.36,14.36,0,0,1,1,2.76,3.44,3.44,0,0,1-3.5,4c-2.15,0-4.31,0-6.46,0h-.72V35.79h2.65v-8c0-.9.25-1.2,1.12-1.29,2.44-.25,4.87-.52,7.31-.71a3,3,0,0,1,3,1.53A12.86,12.86,0,0,1,58,30.73a3.27,3.27,0,0,1-3.07,3.95c-2.28.1-4.56,0-6.84.06h-.78v1.09c1.24,0,2.47.07,3.69,0a3.17,3.17,0,0,1,3.45,3.44,17.35,17.35,0,0,0,0,2,.68.68,0,0,0,.25.51c2.73,1.26,4.35,3.53,5.62,6.13a25.65,25.65,0,0,1,2,6.23,2.38,2.38,0,0,1-1.05,2.61,1,1,0,0,0-.47.94,34.82,34.82,0,0,1-.13,4.46A4.93,4.93,0,0,1,56,66.25h-.19a3.18,3.18,0,0,0-3.25,1.21,4,4,0,0,1-3.13,1.37c-.27,0-.55,0-.83,0H24c-.32,0-.72,0-.93-.12a1.44,1.44,0,0,1-.59-.95c0-3.88-.05-7.75,0-11.63C22.53,54.32,24,53,26.18,52.8ZM45.63,37.87v.83q0,8.09,0,16.18a6.35,6.35,0,0,1-4.55,6.17c-.3.1-.6.17-.87.25v5.48h8.67a3.29,3.29,0,0,0,3.5-3.47q0-6.56,0-13.11a1,1,0,0,0-.37-.72c-.61-.46-1.27-.85-1.91-1.27-.4-.25-.74-.56-.68-1.07.2-1.69.4-3.38.64-5.06a1.06,1.06,0,0,1,1.2-1c.36,0,.71,0,1.12,0,0-.79,0-1.56,0-2.32a.94.94,0,0,0-1-.94C49.47,37.86,47.59,37.87,45.63,37.87ZM40.14,59.12c.21,0,.35-.06.49-.1a4.29,4.29,0,0,0,2.91-4.34q0-8.1,0-16.22c0-.19,0-.37,0-.59H34.9c-1.07,0-1.41.34-1.41,1.42v7.79c0,1.05-.28,1.34-1.35,1.4a4.15,4.15,0,0,0-3.82,4.35h8.22a3.59,3.59,0,0,1,3.6,3.55C40.16,57.28,40.14,58.17,40.14,59.12ZM24.56,66.73H38.05a.9.9,0,0,0,0-.16c0-3-.06-6,0-9.07.07-2.49-.93-2.66-2.66-2.63-3,.05-6,0-9.07,0-1,0-1.75.49-1.82,1.33s0,2,0,3h8.93c1.11,0,1.43.32,1.44,1.44s0,2.35,0,3.52-.33,1.39-1.42,1.39H24.56ZM52,43.22c-.12,1-.22,2-.37,2.93A.69.69,0,0,0,52,47a15.37,15.37,0,0,1,6.48,8c.39,1.08.39,1.08,1.32.38.27-.21.63-.35.49-.85-.35-1.18-.6-2.39-1-3.55A14,14,0,0,0,55.79,45,6.44,6.44,0,0,0,52,43.22ZM36,24.85l-6.35-.6a1.35,1.35,0,0,0-1.48.87c-.24.56-.46,1.14-.68,1.72-.5,1.32.09,2.2,1.5,2.21h6.51c.17,0,.33,0,.5,0Zm11.29,7.79c2.53,0,5,0,7.45,0a1.35,1.35,0,0,0,1.15-1.91c-.21-.62-.45-1.23-.7-1.84a1.36,1.36,0,0,0-1.58-1c-1.16.08-2.32.19-3.49.3l-2.83.29ZM42.58,23.2c2.52,0,5,0,7.41,0a1.32,1.32,0,0,0,1.19-1.78c-.19-.59-.43-1.16-.65-1.73-.42-1.09-.88-1.35-2.06-1.22-.82.09-1.65.15-2.48.23l-3.41.36Zm11.9,41a13.3,13.3,0,0,0,1.55,0,2.86,2.86,0,0,0,2.71-2.73c.09-1,0-2.12,0-3.19a.53.53,0,0,0-.3-.38,2.59,2.59,0,0,1-1.85-1.93,12.45,12.45,0,0,0-2.14-4ZM32.83,61.4H24.58v2.06h8.25Z"/></svg>