<svg id="Layer_1" data-name="Layer 1" xmlns="http://www.w3.org/2000/svg" viewBox="0 0 85.04 85.04"><path d="M67.49,69.76c-.11-1.91-.21-3.81-.32-5.72l-.6-10.12,0-.54c-.05-.78-.1-1.59-.2-2.39-.06-.54-.14-1.08-.22-1.63A28.48,28.48,0,0,1,65.7,44a2.42,2.42,0,0,0-.63-1.81,2.61,2.61,0,0,0-1.92-.75H48.3V35.18c0-.2,0-.21.2-.28,1.5-.48,3-1,4.49-1.5a3.1,3.1,0,0,0,2.09-4l-1.66-5.87c-.12-.44-.24-.88-.38-1.32a1.1,1.1,0,0,0-.51-.67,1,1,0,0,0-.76-.05,1,1,0,0,0-.67,1.28l.06.23,1.58,5.55L48.31,30V28.7A1.52,1.52,0,0,0,48,27.59a.94.94,0,0,0-.68-.26c-.37,0-1,.21-1,1.39V41.41H39.74A2.43,2.43,0,0,0,37.15,44c0,.25,0,.5,0,.75a19.86,19.86,0,0,1-.06,2c-.08.72-.18,1.44-.29,2.17H27.22a2.23,2.23,0,0,0-.37,0h0a1,1,0,0,0,0,2h9.67c0,.26-.07.52-.1.78H22.93a.91.91,0,0,1-.7-.25.79.79,0,0,1-.18-.53h1.84a1,1,0,0,0,1-.75,1,1,0,0,0-.15-.86,1,1,0,0,0-.83-.39H22V28.61a1.84,1.84,0,0,0,0-.46,1,1,0,0,0-1-.81h0a1,1,0,0,0-1,.9,4.39,4.39,0,0,0,0,.56V30l-4.42-1.49.71-2.5c.61-2.14,1.22-4.27,1.8-6.41a3.73,3.73,0,0,1,2.78-2.85c1.12-.31,2.23-.64,3.32-1l1.19-.36.74.94,1.74,2.23a2.72,2.72,0,0,0,3.17,1l.52-.17v4.46a1.61,1.61,0,0,0,1.71,1.7h1.84a1.6,1.6,0,0,0,1.68-1.68c0-.64,0-1.29,0-1.93V19.41l.58.19a2.74,2.74,0,0,0,3.07-.93c.64-.8,1.26-1.6,1.9-2.42l.63-.81,1.33.39c1.18.35,2.37.71,3.55,1.08a3.39,3.39,0,0,1,2.3,2.37l.05.18a2,2,0,0,0,.17.49,1,1,0,0,0,1.89-.65A5.51,5.51,0,0,0,48.42,15c-1.35-.43-2.83-.88-4.67-1.4-.37-.1-.45-.18-.48-.47a3.1,3.1,0,0,0-.5-1.21,6.32,6.32,0,0,0-.47-.68c-.13-.18-.26-.36-.38-.55A4.62,4.62,0,0,0,39,8.41H29.26l-.2,0,0,0c-2,.64-2.82,2.25-3.66,3.81l-.29.54a1.08,1.08,0,0,0-.1.45c0,.12,0,.15-.19.21-1.87.53-3.42,1-4.88,1.46a5.26,5.26,0,0,0-3.64,3.66c-1.17,4-2.27,7.93-3.1,10.9a3.14,3.14,0,0,0,2.1,3.88l.87.29c1.21.41,2.41.81,3.63,1.2.2.06.22.09.22.34q0,6.54,0,13.08v2.18c0,.23,0,.45,0,.68a2.75,2.75,0,0,0,2.79,2.56H36.31l-.06,1.1c0,.46,0,.92-.07,1.37l-.54,8.92c-.06,1.07-.13,2.13-.19,3.2l-.07,1.16c-.08,1.44-.17,2.88-.22,4.32a2.31,2.31,0,0,0,.65,1.7,2.4,2.4,0,0,0,1.75.74c3.53,0,7,0,10.58,0a2.4,2.4,0,0,0,2.4-2c.2-1.29.38-2.58.56-3.87L51.43,68l.17,1.18c.24,1.67.47,3.33.72,5a2.42,2.42,0,0,0,2.38,2H65.32a2.38,2.38,0,0,0,1.69-.7,2.42,2.42,0,0,0,.7-1.71c0-.39,0-.78-.06-1.17Zm-18.87,3,0,.1c-.05.36-.1.71-.18,1.06,0,.08-.06.21-.48.21H37.84a.76.76,0,0,1-.5-.12.79.79,0,0,1-.08-.53l.06-.72Zm-9.37-27.5c0-.5,0-1,0-1.47,0-.08,0-.3.5-.3h7.11v2.07H39.25Zm9.77.28v-2h4.81v2Zm7,0V43.51h7c.57,0,.64.08.64.64v1.44ZM40.34,48c-.12.57-.22,1.13-.34,1.68l-.18.91c-.14.64-.27,1.27-.38,1.91a1.09,1.09,0,0,1-.49.83c-.2.12-.38.26-.57.4l.69-6h1.32ZM37.45,70.46l.06-1.28.2-3.36c.17-2.83.34-5.67.49-8.5a1.46,1.46,0,0,1,.74-1.41A8.42,8.42,0,0,0,40,55.14l.42-.33a2.46,2.46,0,0,0,1-1.53c.32-1.59.64-3.17,1-4.76l.15-.77a.09.09,0,0,0,0,0H49v6a3.05,3.05,0,0,0,1.68,2.82c.48.27,1,.51,1.48.75l.09,0a1.06,1.06,0,0,0,1.63-1V47.71h6.39l.32,1.58c.32,1.57.64,3.15,1,4.73a2.56,2.56,0,0,0,1,1.6l.22.17q.87.63,1.71,1.29a.6.6,0,0,1,.17.31Q65,62.7,65.28,68l.07,1.11q0,.59.06,1.2v.32H54l-.61-4.26c-.29-1.95-.57-3.9-.86-5.85a1,1,0,0,0-1.07-1,1,1,0,0,0-1,1c-.26,1.77-.51,3.54-.77,5.31l-.69,4.82H37.44Zm13.64-17V47.7h.66v7A1.16,1.16,0,0,1,51.09,53.44Zm12.6.38-.06-.09c-.33-1.65-.66-3.3-1-5l-.21-1.06h1.39l.72,6.75ZM62.53,74.15H55.05c-.56,0-.6,0-.68-.57l-.12-.81H65.54a.49.49,0,0,1,0,.12c0,.31.06.63.06.94s-.16.32-.47.32ZM48.31,32.84c0-.23,0-.45,0-.67l4.89-1.64a1,1,0,0,1-.06.22,1.28,1.28,0,0,1-.69.7c-.89.28-1.78.58-2.67.88ZM20,32.28a3.35,3.35,0,0,0,0,.55l-2.68-.9-1.5-.5a1.17,1.17,0,0,1-.65-.66,1.2,1.2,0,0,1-.06-.24l.26.08,1.44.47,1,.34,2.05.68a.43.43,0,0,1,.15.07A.29.29,0,0,1,20,32.28Zm9.54-20.91c0-.3,0-.6,0-.89a2.69,2.69,0,0,1,.53-.06h8.66a3.12,3.12,0,0,1,0,.63v.32Zm2.66,5.68-.22.07c-.62.21-1.2.41-1.79.58a.59.59,0,0,1-.67-.25c-.78-1-1.55-1.95-2.3-2.94a1.14,1.14,0,0,1-.12-1.27,7.92,7.92,0,0,1,.56-.87,3.91,3.91,0,0,0,1.28,1.79c.86.74,1.7,1.5,2.56,2.27Zm4.9-3.59L34.15,16.1l-2.94-2.64Zm-3.55,8.36V19c0-.12,0-.21,0-.27a3.25,3.25,0,0,1,.52-.14l.18,0a2.87,2.87,0,0,1,.47.15,2.3,2.3,0,0,1,0,.54v4.23H33.54Zm3.13-5.27c.9-.79,1.77-1.57,2.64-2.35a3.82,3.82,0,0,0,1.35-1.82,8.9,8.9,0,0,1,.51.8,1.18,1.18,0,0,1-.11,1.37Q40.11,15.8,39.14,17l-.3.38a.73.73,0,0,1-.89.28l-1.74-.59-.09,0Z"/><path d="M33.56,73.39a3.57,3.57,0,0,0-.54-.85,1.16,1.16,0,0,1-.3-1c0-1.1,0-2.27-.08-3.8a20.23,20.23,0,0,0-.74-4.5,4.34,4.34,0,0,0-1.61-2.48,11,11,0,0,0-1.19-.74,18.13,18.13,0,0,0-5.41-2,1.59,1.59,0,0,0-1.52-1.39c-.7,0-1.44,0-2.32,0A1.5,1.5,0,0,0,18.45,58v.1l-.23.06a17.79,17.79,0,0,0-5.54,2.13,5.69,5.69,0,0,0-1.52,1.17A6.17,6.17,0,0,0,10,64.3a.79.79,0,0,0,.11.62,1.15,1.15,0,0,0,.14.17.58.58,0,0,0-.19.1,1,1,0,0,0-.36.69c-.05.39-.11.77-.14,1.16A36.52,36.52,0,0,0,9.4,72.1a.42.42,0,0,1-.05.1l-.28.36c-.15.18-.29.36-.42.55a2.11,2.11,0,0,0,1.76,3.26,2.06,2.06,0,0,0,1.7-.89A5.1,5.1,0,0,1,13.73,74a13.74,13.74,0,0,1,5.86-1.66,17.67,17.67,0,0,1,3.77.09,14.13,14.13,0,0,1,3.86,1c.33.15.66.33,1,.51l.39.21a.89.89,0,0,0,.74.08.9.9,0,0,0,.21.7l.46.58A2.1,2.1,0,0,0,33.68,75l.06-.14.06-1-.07-.11Zm-4.39-3.67a12.25,12.25,0,0,0,.2-3.77,8.57,8.57,0,0,0-2.18-5,18.72,18.72,0,0,1,1.86,1,2.88,2.88,0,0,1,1.28,1.91,18.4,18.4,0,0,1,.61,3.69c0,.89.06,1.8.08,2.68v.48C30.49,70.43,29.86,70.07,29.17,69.72Zm-1.58-.65a22.39,22.39,0,0,0-13.07,0h0c0-.32-.1-.64-.13-1a8.91,8.91,0,0,1,.28-3.36,6.88,6.88,0,0,1,3.39-4.14,9.08,9.08,0,0,1,2.88-1.06H21a1.61,1.61,0,0,1,.41.06A8.79,8.79,0,0,1,25.84,62a6.7,6.7,0,0,1,1.85,4A11.22,11.22,0,0,1,27.59,69.07ZM12.67,67a13.27,13.27,0,0,0,.26,2.76c-.43.2-.83.4-1.2.61l-.69.44a32.41,32.41,0,0,1,.29-4.7,1,1,0,0,0-.26-.82.85.85,0,0,0,.51-.58l.18-.7.07-.25a2.86,2.86,0,0,1,1.41-1.85A18.43,18.43,0,0,1,14.92,61,8.76,8.76,0,0,0,12.67,67Zm6.71,3.75a16.62,16.62,0,0,0-4.81,1.06,7.93,7.93,0,0,0-3.85,2.79.3.3,0,0,1-.26.13.37.37,0,0,1-.42-.21.39.39,0,0,1,0-.47,7.4,7.4,0,0,1,2.63-2.31,16.69,16.69,0,0,1,7.72-1.92,20.7,20.7,0,0,1,4.15.28,15.4,15.4,0,0,1,4.69,1.54A7.51,7.51,0,0,1,32,74a.44.44,0,0,1-.07.65c-.22.15-.46.08-.64-.18s-.33-.42-.49-.6a.86.86,0,0,0-.64-.3.84.84,0,0,0-.27,0,.77.77,0,0,0-.16-.59,1.22,1.22,0,0,0-.35-.3,14.73,14.73,0,0,0-6.09-1.93A19,19,0,0,0,19.38,70.7Z"/><path d="M21.06,61.21a3.25,3.25,0,0,0-2.31,1,3.18,3.18,0,0,0-.93,2.28A3.23,3.23,0,0,0,21,67.66h0a3.23,3.23,0,1,0,0-6.45Zm.87,2.48a.36.36,0,0,0,.33-.23,1.41,1.41,0,0,1,.21.35h-.06a.35.35,0,0,0-.35.37.34.34,0,0,0,.33.38.36.36,0,0,0,.21,0,1.57,1.57,0,0,1-.47,1,1.5,1.5,0,0,1-1.08.44,1.55,1.55,0,0,1-1.55-1.56h0a1.56,1.56,0,0,1,1.55-1.55,1.6,1.6,0,0,1,.66.15.37.37,0,0,0-.14.3A.36.36,0,0,0,21.93,63.69Z"/><path d="M21.16,64.16a.37.37,0,0,0,.35.37.36.36,0,0,0,.37-.37.35.35,0,0,0-.35-.37A.35.35,0,0,0,21.16,64.16Z"/><path d="M76.82,28.36h0a1.89,1.89,0,0,0-1.53-1.09,2.1,2.1,0,0,0-1.59.59c-.5.41-1.15.94-1.84,1.42a3.35,3.35,0,0,1-.45.27,16.12,16.12,0,0,1,1.42-3.42c.42-.78.88-1.57,1.29-2.27L75,22.35a2.3,2.3,0,0,0,.27-.89A1.83,1.83,0,0,0,74,19.58a1.89,1.89,0,0,0-2.24.68l-1.16,1.58,1-2.95a1.82,1.82,0,0,0-.18-1.65,2.51,2.51,0,0,0-.44-.48.8.8,0,0,1-.13-.13l-.74-.29-.19,0-.08,0a1.86,1.86,0,0,0-1.71,1.05c-.07.13-.13.26-.19.39L66.8,20.23l.21-2a1.86,1.86,0,0,0-1.65-2,1.89,1.89,0,0,0-2.06,1.59c-.06.34-.13.69-.19,1L62.69,21l-.22-1.37a1.68,1.68,0,0,0-1.36-1.41,1.67,1.67,0,0,0-2,1.77l0,.82c0,1.29.11,2.57.19,3.85a42.36,42.36,0,0,1-.12,7.08l-.05.52c-.13,1.27-.26,2.53-.38,3.8a2,2,0,0,0,1.39,2.06l.43.14L66,40a1.81,1.81,0,0,0,.61.1,2,2,0,0,0,1.77-1.06l.22-.47.21-.42a1.74,1.74,0,0,0,.1-.19,1.13,1.13,0,0,1,.17-.3,26.91,26.91,0,0,0,4.62-3.93,32.23,32.23,0,0,0,2.94-3.58A1.83,1.83,0,0,0,76.82,28.36ZM65.61,35.53c-.17.45-.31.9-.45,1.35l-.21.64c-.07.23-.2.31-.43.24l-3.74-1.21c-.22-.07-.27-.15-.25-.37.06-.74.14-1.49.21-2.24l0-.39,1.2.39q1.68.56,3.36,1.08a.42.42,0,0,1,.27.19A.44.44,0,0,1,65.61,35.53ZM65.3,18.17c-.17,1.53-.33,3.06-.5,4.59l-.26,2.44a.85.85,0,0,0,.6.94.82.82,0,0,0,1-.45c.21-.44.42-.88.62-1.32l2.79-6a1.24,1.24,0,0,1,.1-.2.18.18,0,0,1,.19-.07.15.15,0,0,1,.11.17c-.09.31-.19.62-.29.93l-1.8,5.59c-.32,1-.64,2-1,3a5,5,0,0,0,0,3.52,5.34,5.34,0,0,1,.18.52l-4.79-1.55-1-.34-.16,0v-.16A46.49,46.49,0,0,0,61,24L61,22.79c0-.73-.07-1.46-.1-2.21l.51,3.08L61.77,26c.12.67.52.83.83.85s.76-.07.9-.82.24-1.23.35-1.84l.9-4.85L65,18.1c0-.22.14-.21.2-.2S65.3,18.12,65.3,18.17Zm1.34,19.68c.1-.28.19-.56.28-.84l0-.1q.12-.42.27-.84a2,2,0,0,0-.06-1.62,2.15,2.15,0,0,0-1.31-1.08l-3.29-1.06L61,31.79l0-.19,6,1.94a1.47,1.47,0,0,0,1.82-.73,1.41,1.41,0,0,0,.07-1.19l-.16-.49c-.1-.27-.19-.55-.28-.83a2.67,2.67,0,0,1,0-1.63c.17-.53.35-1.07.53-1.61a.34.34,0,0,1,.06-.12l4.13-5.61c0-.07.18-.23.31-.15a.21.21,0,0,1,0,.32l-.54.92c-.45.76-.92,1.55-1.36,2.34a20.68,20.68,0,0,0-1.77,4.07,6.29,6.29,0,0,0-.31,2,.87.87,0,0,0,1.26.84,11.66,11.66,0,0,0,3.89-2.39A3.18,3.18,0,0,1,75,29a.14.14,0,0,1,.21,0,.14.14,0,0,1,0,.21,27.16,27.16,0,0,1-7.18,7.07,1.6,1.6,0,0,0-.61.8,2,2,0,0,1-.1.21,6.45,6.45,0,0,0-.29.59c-.06.11-.11.23-.17.34a.3.3,0,0,1-.38.16l-.08,0A4.77,4.77,0,0,0,66.64,37.85Z"/></svg>