<svg id="Layer_1" data-name="Layer 1" xmlns="http://www.w3.org/2000/svg" viewBox="0 0 85.04 85.04"><path d="M58.82,58.35a7.74,7.74,0,0,0-3.11-5.21,7.63,7.63,0,0,0-5.89-1.39A7.82,7.82,0,0,0,46,65.38a9.45,9.45,0,0,1,1.77,2.08,2.4,2.4,0,0,0,.18.26,3.66,3.66,0,0,1,1,3.19A4.45,4.45,0,0,0,50,74.66l.39.45.31.36h.72l.23-.27a3.36,3.36,0,0,0,.34-.41l.08-.11c.3-.42.6-.86.87-1.32a2.16,2.16,0,0,0,.28-1c0-.57,0-1.14,0-1.71s0-.87,0-1.3a.8.8,0,0,1,.11-.38c.61-1,1.24-1.88,1.87-2.81a1.32,1.32,0,0,1,.29-.29A7.66,7.66,0,0,0,58.82,58.35ZM50.76,70.19v-.33h.63v.07c0,.19,0,.38,0,.57a9.3,9.3,0,0,0,0,1.29,1.53,1.53,0,0,1-.33,1.08,1.75,1.75,0,0,1-.34-1.24A13.84,13.84,0,0,0,50.76,70.19ZM51.59,68l-.49,0a1.34,1.34,0,0,1-.74,0,2.3,2.3,0,0,1-.58-.74,7.53,7.53,0,0,0,2.55,0,9.09,9.09,0,0,1-.55.75A.53.53,0,0,1,51.59,68Zm5.46-8.49a6,6,0,0,1-5.94,6h0a6,6,0,0,1,0-11.93h0a6,6,0,0,1,6,5.94Z"/><path d="M70.82,37.28a2.8,2.8,0,0,0-3,2.16c-.08.32-.13.65-.18,1l-.32,1.95c-.23,1.46-.47,2.93-.72,4.39a.9.9,0,0,1-.22.4,3.86,3.86,0,0,0-1,1.91l-.24,1.44c-.08.46-.15.92-.24,1.38s-.15.46-.19.49-.18,0-.55-.11l-3.49-1.41q-5.18-2.11-10.36-4.2A7.75,7.75,0,0,0,40.17,51a13.42,13.42,0,0,0-.9,4.62v0l.06.68c0,.51.09,1,.16,1.56a10.84,10.84,0,0,0,1.66,4.37,1.06,1.06,0,0,0,.66.45.86.86,0,0,0,.68-.14,1,1,0,0,0,.24-1.31c0-.1-.11-.19-.17-.29a6,6,0,0,1-.31-.55,10.74,10.74,0,0,1-.35-8.66A5.77,5.77,0,0,1,45,48.49a5.87,5.87,0,0,1,4.58-.09l4.53,1.83,4.19,1.7c1.77.72,3.55,1.45,5.33,2.16a2.27,2.27,0,0,0,2-.08,2.21,2.21,0,0,0,1.09-1.62c.08-.41.14-.83.21-1.24.1-.6.2-1.2.31-1.79A1.83,1.83,0,0,1,68,48.2a1.85,1.85,0,0,1,1.38-.28,1.9,1.9,0,0,1,1.49,2.19c-.37,2-.72,4-1.07,5.92a9.54,9.54,0,0,1-1,3.38,10.16,10.16,0,0,1-5.26,4.24,19.94,19.94,0,0,1-5.35,1.15.91.91,0,0,0-.93,1,.84.84,0,0,0,.3.62.91.91,0,0,0,.64.22h.14c.87-.09,1.65-.18,2.38-.3a15.16,15.16,0,0,0,6.54-2.59,10,10,0,0,0,4.26-6.45c.16-.93.33-1.85.49-2.78.23-1.3.46-2.6.7-3.89a3.76,3.76,0,0,0-.47-2.82.29.29,0,0,1,0-.14c.09-.63.2-1.25.3-1.88l.23-1.41.18-1.09c.17-1,.34-2,.45-3A2.72,2.72,0,0,0,70.82,37.28Zm.63,2.88c-.24,1.59-.5,3.17-.77,4.77l-.22,1.39A3.75,3.75,0,0,0,69,46a2.69,2.69,0,0,0-.4,0l.67-4.16c.1-.58.2-1.17.29-1.76.06-.4.29-1.08,1.06-1a1,1,0,0,1,.67.35A.86.86,0,0,1,71.45,40.16Z"/><path d="M60.61,63.78l.33,0a13.39,13.39,0,0,0,3.51-1.25,8.49,8.49,0,0,0,4.08-4.13,10.33,10.33,0,0,0,.34-1c0-.16.09-.31.13-.46l0-.07,0-.07a1,1,0,0,0-.78-.89.94.94,0,0,0-1.06.58.87.87,0,0,0,0,.19,5.82,5.82,0,0,1-2.74,3.76,11.44,11.44,0,0,1-3.86,1.55,1.14,1.14,0,0,0-.77.48.84.84,0,0,0-.1.64A.92.92,0,0,0,60.61,63.78Z"/><path d="M55.6,47.06a1,1,0,0,0,0,.94.93.93,0,0,0,.83.43h0a1,1,0,0,0,.83-.61l3.33-6,1-1.81.1-.21a.93.93,0,0,0-.41-1.2.91.91,0,0,0-1.19.28,2.9,2.9,0,0,0-.21.35L56,46.32C55.87,46.56,55.73,46.81,55.6,47.06Z"/><path d="M52.73,47.18a1,1,0,0,0,.81-.59l2.18-3.92.85-1.52a1.07,1.07,0,0,0,.06-.95.9.9,0,0,0-.66-.5.92.92,0,0,0-1,.56L52.45,44.7c-.2.36-.4.71-.59,1.07a1,1,0,0,0,0,1A1,1,0,0,0,52.73,47.18Z"/><path d="M43.76,52.93a1.09,1.09,0,0,0,.61-.57,3.45,3.45,0,0,1,4.12-1.7.93.93,0,0,0,.75,0,.88.88,0,0,0,.49-.53.9.9,0,0,0,0-.74,1,1,0,0,0-.61-.49c-.37-.1-.75-.18-1.05-.24l-.34-.07h0a5.48,5.48,0,0,0-4.93,2.88,1.11,1.11,0,0,0-.13.85.87.87,0,0,0,.46.54.88.88,0,0,0,.44.12A1.17,1.17,0,0,0,43.76,52.93Z"/><path d="M61.49,44.49c-.17.29-.33.58-.49.87l-.53,1-1.08,2a.93.93,0,0,0,0,.94,1,1,0,0,0,.93.48h.12l.08-.08.08,0a1.43,1.43,0,0,0,.44-.42c.65-1.14,1.28-2.28,1.91-3.43l.19-.35a1,1,0,0,0,.12-.82A.87.87,0,0,0,62.8,44,.94.94,0,0,0,61.49,44.49Z"/><path d="M46.9,59.26a.79.79,0,0,0,.82-.8.82.82,0,1,0-1.63-.05.79.79,0,0,0,.81.85Z"/><path d="M49,56.58h0a.82.82,0,0,0,0,1.64h0a.8.8,0,0,0,.82-.85A.8.8,0,0,0,49,56.58Z"/><path d="M51.08,61.79h0a.85.85,0,0,0-.83.82.86.86,0,0,0,.25.6.83.83,0,0,0,.58.24h0a.82.82,0,0,0,.8-.84h0A.83.83,0,0,0,51.08,61.79Z"/><path d="M54.65,57.89a.75.75,0,0,0-.22.6.82.82,0,0,0,.83.77h0a.82.82,0,0,0,.8-.84h0a.84.84,0,0,0-.83-.8A1,1,0,0,0,54.65,57.89Z"/><path d="M55.29,59.7a.88.88,0,0,0-.6.24.8.8,0,0,0-.26.59.82.82,0,0,0,.82.82h0a.82.82,0,0,0,.83-.79A.84.84,0,0,0,55.29,59.7Z"/><path d="M53.15,58.22h0a.83.83,0,0,0,.83-.79.86.86,0,0,0-.23-.6.81.81,0,0,0-.6-.25.82.82,0,1,0,0,1.64Z"/><path d="M53.19,58.66h0a.83.83,0,0,0-.59.25.81.81,0,0,0-.24.6.83.83,0,0,0,.83.8h0a.83.83,0,0,0,0-1.65Z"/><path d="M53.19,60.75a.91.91,0,0,0-.6.24.78.78,0,0,0-.25.6.83.83,0,0,0,.83.81h0a.83.83,0,0,0,0-1.65Z"/><path d="M49,58.66h0a.83.83,0,0,0-.59,1.41.87.87,0,0,0,.59.24h0a.83.83,0,0,0,0-1.65Z"/><path d="M51.08,59.7h0a.85.85,0,0,0-.83.87.82.82,0,0,0,.83.78h0a.8.8,0,0,0,.8-.83A.83.83,0,0,0,51.08,59.7Z"/><path d="M49,60.75h0a.84.84,0,0,0-.82.82.82.82,0,0,0,.8.83h0a.81.81,0,0,0,.82-.79.84.84,0,0,0-.24-.62A.78.78,0,0,0,49,60.75Z"/><path d="M51.1,55.54a.85.85,0,0,0-.61.24.79.79,0,0,0-.24.59.84.84,0,0,0,.83.81.81.81,0,0,0,.82-.81A.8.8,0,0,0,51.1,55.54Z"/><path d="M51.09,57.62a1,1,0,0,0-.6.25.81.81,0,0,0,.59,1.39h0a.79.79,0,0,0,.81-.81A.82.82,0,0,0,51.09,57.62Z"/><path d="M46.92,59.7h0a.83.83,0,0,0-.82.81.81.81,0,0,0,.79.84h0a.87.87,0,0,0,.57-.22.81.81,0,0,0,.24-.6A.83.83,0,0,0,46.92,59.7Z"/><path d="M48.84,40.39a3,3,0,0,0,1.53-2.68A3.21,3.21,0,0,0,48.57,35a5,5,0,0,0-2.24-.5,3.56,3.56,0,0,1-2.31-.7.93.93,0,0,1-.43-.72c0-.21.23-.42.56-.58a13.06,13.06,0,0,1,1.58-.6,6,6,0,0,0,2.73-1.73,2.28,2.28,0,0,0,.62-1.71,2.18,2.18,0,0,0-.89-1.5,7.1,7.1,0,0,0-1.59-.94A22.57,22.57,0,0,0,41,24.48a55.8,55.8,0,0,0-5.69-.62c-1.48-.08-3-.06-4.45,0H29.69c-.54,0-1.07.05-1.63.1l-.46,0V21.77c0-.11,0-.23,0-.34a1.15,1.15,0,0,1,0-.5,1.22,1.22,0,0,1,.5-.24l.31-.11L34.73,18a1.64,1.64,0,0,0,1-1,1.56,1.56,0,0,0-.95-2l-7-2.87c-.16-.06-.16-.07-.17-.2a2.2,2.2,0,0,0-2.88-2,2.26,2.26,0,0,0-1.53,2.3q0,6.12,0,12.23a.38.38,0,0,1,0,.17.58.58,0,0,1-.15.05A20.47,20.47,0,0,0,16.64,27a9.23,9.23,0,0,0-4.36,5A12.17,12.17,0,0,0,12,33.24c0,.19-.08.37-.13.56v1.77l.06.18a5.82,5.82,0,0,0,1.79,3.41,11.5,11.5,0,0,0,4.74,2.63A37.16,37.16,0,0,0,28,43.27c1.1.06,2.24.08,3.39.08,1.87,0,3.8-.07,5.75-.21a44.9,44.9,0,0,0,7.28-1.06A15.23,15.23,0,0,0,48.84,40.39Zm-25.66-10s0,0-.13.07l-.3.14a7,7,0,0,0-1.61.87A2.71,2.71,0,0,0,20,33.56a2.84,2.84,0,0,0,1.19,2.2A6.09,6.09,0,0,0,24.29,37a7.44,7.44,0,0,0,4.32-.61A5,5,0,0,0,30,35.4a2.51,2.51,0,0,0,0-3.72,5.55,5.55,0,0,0-2.26-1.28s0,0-.06,0c0-1.27,0-2.55,0-3.84v-.64h.07c.26,0,.51-.06.76-.07a52.6,52.6,0,0,1,8.61.05,34.7,34.7,0,0,1,7.89,1.56c.49.17,1,.39,1.4.58a2.93,2.93,0,0,1,.64.42c.13.11.21.2.21.27s0,.17-.17.31a4.12,4.12,0,0,1-1.83,1.13c-.48.17-1.12.39-1.74.66a3.54,3.54,0,0,0-.89.57,2.32,2.32,0,0,0-.36,3.25,4.29,4.29,0,0,0,3,1.7,6.54,6.54,0,0,0,.88.08,9,9,0,0,1,.92.09,2.53,2.53,0,0,1,1,.42,1.12,1.12,0,0,1,.5.93,1.06,1.06,0,0,1-.53.87,10.82,10.82,0,0,1-2,1,27.3,27.3,0,0,1-5.59,1.26,68.15,68.15,0,0,1-11.7.49A34.86,34.86,0,0,1,18.93,40a11.68,11.68,0,0,1-3-1.41,4.58,4.58,0,0,1-2-5.53,7.3,7.3,0,0,1,3.34-4.18,18.16,18.16,0,0,1,5.92-2.28v3.8Zm0,2v2.33A2.16,2.16,0,0,1,22,33.83c-.1-.17-.17-.42.14-.77A2.56,2.56,0,0,1,23.16,32.39Zm4.47,0a2.5,2.5,0,0,1,1,.66.65.65,0,0,1,0,1,2.5,2.5,0,0,1-1,.66Zm0-13.53V14.1l5.81,2.38ZM25.69,12a1.19,1.19,0,0,1,0,.33V35.12h-.64V12.22a1.48,1.48,0,0,1,0-.21.27.27,0,0,1,.29-.27A.25.25,0,0,1,25.69,12Z"/><path d="M36.77,32.6h0a2.85,2.85,0,0,0,2.83-2.84,2.85,2.85,0,0,0-2.83-2.85h0a2.87,2.87,0,0,0-2.83,2.83,2.85,2.85,0,0,0,2.83,2.86Zm-.94-2.84a.91.91,0,0,1,.94-.94h0a1,1,0,0,1,1,.93.94.94,0,0,1-.27.67,1,1,0,0,1-.69.28h0A.92.92,0,0,1,35.83,29.76Z"/><path d="M18.78,37.22l-.32-.16a11.08,11.08,0,0,1-1.22-.7,2,2,0,0,1-1-2.19,5,5,0,0,1,.55-1.44,5.67,5.67,0,0,1,2-1.92,1.05,1.05,0,0,0,.51-.66.89.89,0,0,0-.15-.7.94.94,0,0,0-.62-.41.92.92,0,0,0-.75.2l-.26.2a14.86,14.86,0,0,0-1.73,1.46,5.39,5.39,0,0,0-1.51,3.62h0a3.83,3.83,0,0,0,.76,2.33A6.56,6.56,0,0,0,18.17,39a.85.85,0,0,0,.31.06.83.83,0,0,0,.48-.15,1,1,0,0,0,.42-.8A1,1,0,0,0,18.78,37.22Z"/></svg>