<svg id="Layer_1" data-name="Layer 1" xmlns="http://www.w3.org/2000/svg" viewBox="0 0 85.04 85.04"><defs><style>.cls-1{stroke:#000;stroke-miterlimit:10;stroke-width:0.4px;}</style></defs><path class="cls-1" d="M73.93,61.25c-.17.58-.31,1.17-.52,1.73a7.64,7.64,0,0,1-2.65,3.51c-2.23,1.65-4.46,3.29-6.71,4.89A11.14,11.14,0,0,1,48.59,69c-.9-1.17-1.77-2.38-2.64-3.59A3.46,3.46,0,0,1,45.47,62a.59.59,0,0,0,0-.49c-.89-1.26-1.82-2.5-2.84-3.89a3,3,0,0,1-.24.42c-.8,1.1-1.62,2.19-2.41,3.31a1,1,0,0,0-.1.75,3.06,3.06,0,0,1-.21,2.77,28.45,28.45,0,0,1-4.76,6,11,11,0,0,1-13.38.67q-3.57-2.5-7.06-5.14a7.86,7.86,0,0,1-1.71-10.75,14.83,14.83,0,0,1,2.75-3.15,7.81,7.81,0,0,1,10.4.75c1.95,1.91,3.87,3.85,5.79,5.79a4.56,4.56,0,0,1,.4.55,3.85,3.85,0,0,1,2.82-1.17.57.57,0,0,0,.42-.16c1.3-1.74,2.59-3.5,3.89-5.26L31.57,42.66c-1.75-2.37-3.49-4.75-5.26-7.12a3,3,0,0,0-.69-.5A6.33,6.33,0,0,1,24,33.9C20,28.42,16,22.9,11.94,17.39a2.7,2.7,0,0,1,.61-4c.48-.37,1-.74,1.48-1.08a2.68,2.68,0,0,1,3.8.61Q24,21.29,30,29.68a5.78,5.78,0,0,1,.52,1.71,3,3,0,0,0,.28.88c1.11,1.54,2.24,3.06,3.36,4.59.28.38.42.83,0,1.16a1.55,1.55,0,0,1-1,.33c-.22,0-.46-.31-.62-.52-1.07-1.42-2.11-2.85-3.2-4.32l-1.48,1.06q9.49,12.87,19,25.75l1.44-1c-.13-.2-.24-.38-.37-.55Q41.78,50.31,35.58,41.9l-.11-.15c-.48-.66-.47-1.18,0-1.54s1-.23,1.49.44l5.17,7,.49.63.56-.74q5.63-7.63,11.25-15.3a3,3,0,0,0,.29-.88,6.41,6.41,0,0,1,.59-1.81c4-5.55,8-11.06,12.08-16.58a2.71,2.71,0,0,1,3.93-.61c.25.17.49.37.75.53A4.22,4.22,0,0,1,73.93,15v1.35c-.19.32-.35.67-.57,1-4,5.53-8,11.07-12.12,16.56A6,6,0,0,1,59.69,35a2.94,2.94,0,0,0-.74.54Q55,40.83,51.15,46.13a2.52,2.52,0,0,1-.38.47.88.88,0,0,1-1.18.06.86.86,0,0,1-.26-1.14,2.27,2.27,0,0,1,.3-.46l4.2-5.7,3.52-4.79L55.88,33.5l-4.41,6q-3.66,5-7.31,9.94c-.13.18-.28.52-.2.66a12.22,12.22,0,0,0,1,1.35c.66-.9,1.26-1.72,1.87-2.53a.91.91,0,0,1,1.54-.09,1,1,0,0,1-.08,1.24l-2.18,3c1.3,1.76,2.58,3.49,3.87,5.22a.53.53,0,0,0,.4.19,3.79,3.79,0,0,1,2.77,1.08l.46-.44c1.93-1.93,3.85-3.87,5.8-5.79a8,8,0,0,1,12.17,1,11.64,11.64,0,0,1,2.38,4.81ZM20.27,52.79a5.37,5.37,0,0,0-3.83,1.33,15,15,0,0,0-2,2.31,6,6,0,0,0,1.37,8.72c2.14,1.58,4.3,3.15,6.46,4.7a9.24,9.24,0,0,0,12.62-1.61c1-1.27,2-2.63,2.94-4A1.6,1.6,0,0,0,37.5,62c-.53-.41-1.08-.8-1.62-1.19a1.69,1.69,0,0,0-2.67.41c-.65.87-1.12.9-1.88.14-2.27-2.26-4.52-4.53-6.79-6.78A5.88,5.88,0,0,0,20.27,52.79ZM57,71.64a9.06,9.06,0,0,0,5.44-1.45c2.51-1.77,5-3.54,7.44-5.44A5.69,5.69,0,0,0,72,59.37a8.36,8.36,0,0,0-2.59-4.73,6,6,0,0,0-8.65-.11c-2.32,2.29-4.61,4.61-6.92,6.91-.65.65-1.17.6-1.72-.13l-.14-.2a1.65,1.65,0,0,0-2.5-.38c-.53.38-1.06.76-1.58,1.15a1.64,1.64,0,0,0-.4,2.54c.8,1.11,1.59,2.22,2.42,3.3A9.35,9.35,0,0,0,57,71.64ZM62.6,22.76l-.63.86-5,6.85c-.57.79-.51,1.12.29,1.71.36.26.72.54,1.08.79a.92.92,0,0,0,1.51-.24c.56-.74,1.1-1.51,1.65-2.26l4.06-5.56ZM19.73,24.91l1.36,1.87c1.41,1.92,2.81,3.85,4.21,5.77.64.87,1,.92,1.85.27.32-.22.63-.45.94-.68.72-.53.78-.9.26-1.63l-3.64-5-2-2.77Zm-3.79-5.18,3-2.16c-.87-1.19-1.7-2.35-2.55-3.48a.83.83,0,0,0-1.28-.2c-.51.34-1,.7-1.48,1.07a.83.83,0,0,0-.21,1.24C14.22,17.37,15.07,18.53,15.94,19.73Zm53.4,0c.86-1.19,1.7-2.32,2.51-3.46A.83.83,0,0,0,71.71,15c-.5-.4-1-.78-1.58-1.14A.75.75,0,0,0,69,14c-.9,1.17-1.76,2.37-2.66,3.58ZM38.39,60.32c1-1.34,2-2.64,2.9-4a.49.49,0,0,0,0-.47c-.28-.43-.6-.83-.94-1.29l-3.43,4.65ZM65.28,19.08,63.7,21.25l3,2.15,1.59-2.17ZM21.59,21.25,20,19.08l-2.95,2.15,1.58,2.18Z"/><path class="cls-1" d="M42.64,33.92a9.22,9.22,0,0,1-9.21-9.2,9.21,9.21,0,1,1,18.41.06A9.22,9.22,0,0,1,42.64,33.92Zm-7.34-9.2A7.3,7.3,0,0,0,42.56,32,7.2,7.2,0,0,0,50,24.69a7.23,7.23,0,0,0-7.36-7.33A7.33,7.33,0,0,0,35.3,24.72Z"/><path class="cls-1" d="M29.76,64.28c-.26.33-.41.71-.64.78A1.41,1.41,0,0,1,28.05,65c-1-.66-2-1.41-3-2.13L19.4,58.68c-.42-.3-.73-.66-.51-1.23s.9-.78,1.57-.3c1.69,1.22,3.38,2.46,5.08,3.7,1.15.83,2.31,1.66,3.45,2.52A5.78,5.78,0,0,1,29.76,64.28Z"/><path class="cls-1" d="M25.68,67c-.24.33-.37.7-.61.8a1.36,1.36,0,0,1-1,0,15.37,15.37,0,0,1-1.59-1.13l-4.42-3.23c-.6-.44-.74-.92-.41-1.39s.9-.54,1.49-.11Q22,64,24.94,66.12A5,5,0,0,1,25.68,67Z"/><path class="cls-1" d="M56.53,65.32c-.27-.23-.63-.39-.73-.65a1.58,1.58,0,0,1,.11-1c0-.14.26-.24.41-.35l8.38-6.12a2.2,2.2,0,0,1,.25-.17A.92.92,0,1,1,66,58.55c-.44.36-.91.68-1.37,1-2.42,1.77-4.83,3.53-7.26,5.29A8.47,8.47,0,0,1,56.53,65.32Z"/><path class="cls-1" d="M67.94,62.47a3.87,3.87,0,0,1-.59.82q-3,2.24-6.06,4.42a.92.92,0,1,1-1.11-1.47c2-1.5,4.05-3,6.11-4.44a1.22,1.22,0,0,1,1-.08C67.55,61.8,67.7,62.17,67.94,62.47Z"/><path class="cls-1" d="M42.62,20.09a.94.94,0,0,1,0,1.87,1,1,0,0,1-1-.92A1,1,0,0,1,42.62,20.09Z"/><path class="cls-1" d="M42.63,23.79a.92.92,0,0,1,.94.91,1,1,0,0,1-.92.95,1,1,0,0,1-.95-.93A.93.93,0,0,1,42.63,23.79Z"/><path class="cls-1" d="M39.44,23.81a1,1,0,0,1-.93-.95,1,1,0,0,1,.94-.92.93.93,0,0,1,.93.93A1,1,0,0,1,39.44,23.81Z"/><path class="cls-1" d="M46.77,22.88a1,1,0,0,1-1,.93,1,1,0,0,1-.92-1,.93.93,0,0,1,.94-.91A1,1,0,0,1,46.77,22.88Z"/><path class="cls-1" d="M40.38,26.55a.94.94,0,1,1-1.87,0,.93.93,0,0,1,.94-.92A.91.91,0,0,1,40.38,26.55Z"/><path class="cls-1" d="M46.76,26.53a.94.94,0,1,1-1.87,0,.94.94,0,0,1,1.87,0Z"/><path class="cls-1" d="M43.58,28.4a.94.94,0,1,1-1.88,0,.94.94,0,0,1,1.88,0Z"/></svg>