<svg id="Layer_1" data-name="Layer 1" xmlns="http://www.w3.org/2000/svg" viewBox="0 0 85.04 85.04"><defs><style>.cls-1{fill:#fff;}</style></defs><path d="M10.52,20.64a.85.85,0,0,0,.14-.19,3.15,3.15,0,0,1,3.23-2.22H58a3.17,3.17,0,0,1,3.32,2.51,3.13,3.13,0,0,1-2.66,3.8c-1,.09-2,0-3.13,0,.07.28.1.45.16.62Q58.3,32.59,60.93,40c.06.19.3.44.47.44a7.23,7.23,0,0,1,4.91,2.42,19.45,19.45,0,0,1,3.77,5.92,1.09,1.09,0,0,0,.74.66,8,8,0,0,1,1.73.73,3.1,3.1,0,0,1,1.39,4,8,8,0,0,1-2.16,3.06l-.5.47a6.52,6.52,0,0,1-.85,7.16h2.34c.82,0,1.35.43,1.35,1.09s-.52,1-1.37,1H22.2c-3.4,0-6.81,0-10.22,0a1.57,1.57,0,0,1-1.46-.65v-.88a1.87,1.87,0,0,1,1.67-.63c1.15,0,2.31,0,3.46,0,.19,0,.39,0,.55,0-.35-.66-.69-1.26-1-1.87-.2-.4-.23-1-.53-1.2a2.37,2.37,0,0,0-1.36,0,2.5,2.5,0,0,1-2.79-1.53V53.71A6,6,0,0,1,12.26,51a1.1,1.1,0,0,0,.36-.77c.05-1.2,0-2.4,0-3.6a3.1,3.1,0,0,1,2.21-2.84c.3-.09.61-.13.92-.2v-19H13.87a3.22,3.22,0,0,1-2.81-1.41,11.51,11.51,0,0,1-.54-1.05ZM58.89,40.79c0-.06-.07-.24-.13-.41C57,35.32,55.19,30.26,53.43,25.19a.76.76,0,0,0-.86-.59q-16.95,0-33.89,0H18V36.23h5.38A10.54,10.54,0,0,1,33.8,44.62c.34,1.53.49,3.11.7,4.67,0,.42.19.66.65.66s.92.06,1.38.07c1.33,0,2.65,0,4,0a5.19,5.19,0,0,1,4.87,4.2c.07.34.11.68.17,1,1.71.19,1.74.17,3-.87l3.65-3a1.05,1.05,0,0,1,1.57.08A1.07,1.07,0,0,1,53.57,53c-.19.18-.39.33-.58.49l-2,1.68a24.7,24.7,0,0,0,3.19.12.48.48,0,0,0,.32-.15c.78-.93,1.54-1.87,2.37-2.89L54.73,50.2a2.16,2.16,0,0,1-.65-2.12c.07-.31.15-.61.23-.92.19-.69.67-1.46.5-2s-1-1.08-1.47-1.59l-3.12-3.06c-.93.93-1.86,1.87-2.81,2.8a1.08,1.08,0,1,1-1.52-1.52q3.61-3.62,7.24-7.22a1.37,1.37,0,0,1,.64-.36,1,1,0,0,1,1.15.55A1.06,1.06,0,0,1,54.65,36l-2.78,2.8,4.21,4.26ZM70,56c.48-.55,1-1.06,1.43-1.65,1-1.42.7-2.34-1-2.73a17.83,17.83,0,0,0-4.11-.49,11.63,11.63,0,0,0-10.2,5.48,1.8,1.8,0,0,1-1.71.9c-5.07,0-10.14,0-15.21,0H32.07a1.38,1.38,0,0,1-1.34-.65,11.57,11.57,0,0,0-9.43-5.69A14,14,0,0,0,15,51.9c-1.81.72-2.32,1.51-2.32,3.43v4.2c.6,0,1.12,0,1.64,0s.57-.09.68-.52a6.34,6.34,0,0,1,12.24-.11.72.72,0,0,0,.84.64q15.35,0,30.67,0h.6A6.46,6.46,0,0,1,70,56Zm-10.87,5.7H28a.8.8,0,0,0-.31,0c-.14.06-.31.14-.36.26-.41,1-.8,1.91-1.18,2.85H60.64ZM43.3,55.31a3,3,0,0,0-2.89-3.12c-1.51,0-3,0-4.53,0a5.89,5.89,0,0,1-4.29-1.82c-1.13-1.15-2.3-2.28-3.43-3.44a3.63,3.63,0,0,0-2.76-1.14c-2.12,0-4.24,0-6.37,0H16c-.7,0-1.17.32-1.19.88,0,1,0,2,0,3a18.38,18.38,0,0,1,5.58-.73,14.12,14.12,0,0,1,11.66,6,1.16,1.16,0,0,0,.81.41c2.82,0,5.63,0,8.45,0ZM36,22.44H57.61a5.3,5.3,0,0,0,.69,0,1,1,0,0,0,1-1,1.05,1.05,0,0,0-1-1.05H14.17c-1,0-1.49.3-1.5,1s.45,1.05,1.53,1.05ZM18,43.63h.72c1.75,0,3.5.11,5.24,0a7.33,7.33,0,0,1,6.77,2.82,17.24,17.24,0,0,0,1.42,1.41c-.15-1-.27-1.83-.41-2.66A8.37,8.37,0,0,0,24,38.43c-1.85-.06-3.7,0-5.55,0a3.41,3.41,0,0,0-.43.06Zm49.82,5.31c-.24-.47-.41-.83-.6-1.17a12.64,12.64,0,0,0-3.5-4.31,3.92,3.92,0,0,0-5.32.43,9,9,0,0,0-2.15,4.41.5.5,0,0,0,.11.39c.78.78,1.58,1.55,2.38,2.34A15.48,15.48,0,0,1,67.81,48.94ZM65.6,64.83a4.23,4.23,0,1,0-4.21-4.22A4.23,4.23,0,0,0,65.6,64.83ZM25.32,60.64a4.21,4.21,0,1,0-4.21,4.19A4.21,4.21,0,0,0,25.32,60.64Z"/><path class="cls-1" d="M10.52,60.15a2.5,2.5,0,0,0,2.79,1.53,2.37,2.37,0,0,1,1.36,0c.3.2.33.8.53,1.2.31.61.65,1.21,1,1.87-.16,0-.36,0-.55,0-1.15,0-2.31,0-3.46,0a1.87,1.87,0,0,0-1.67.63Z"/></svg>