<svg id="Layer_1" data-name="Layer 1" xmlns="http://www.w3.org/2000/svg" viewBox="0 0 85.04 85.04"><path d="M26.29,29.21a19.78,19.78,0,0,0-4.78-7.14,2.3,2.3,0,0,0-3.39,0A18.88,18.88,0,0,0,14,27.74a34.51,34.51,0,0,0-3.35,13.83,88.61,88.61,0,0,0,.68,15.58,100.72,100.72,0,0,0,2.18,11.77,2.46,2.46,0,0,0,1.56,2h1a8.11,8.11,0,0,0,2.95-1.59l.7-.63.12-.11a7.79,7.79,0,0,0,3.58,2.33h1.07l0,0A2.1,2.1,0,0,0,26,69.31c.2-1,.4-2,.61-2.92.5-2.4,1-4.89,1.4-7.36.46-3.13.69-6.3.9-9.55a58.67,58.67,0,0,0-.17-10.61A34.53,34.53,0,0,0,26.29,29.21Zm-8.93,33.2-2.73.77-.22,0L14,60.6l12.23-3.43,0,.16c-.06.47-.11.92-.17,1.36a1.65,1.65,0,0,1-.06.32,3.09,3.09,0,0,0-.08.61c0,.34-.09.45-.5.57C22.68,60.92,20,61.67,17.36,62.41ZM24,68.62c0,.15-.07.17-.07.17s0,0-.2,0a4.91,4.91,0,0,1-2.9-2.41,1.08,1.08,0,0,0-2.08,0,4.84,4.84,0,0,1-3.13,2.46l-.85-3.54h0l10.59-3,0,.21c-.07.38-.13.75-.21,1.12l-.45,2C24.48,66.62,24.26,67.62,24,68.62ZM27,44.89A.28.28,0,0,1,27,45L12.79,49v-.2c0-.29,0-.56,0-.83a45.86,45.86,0,0,1,1.48-15.06,21.77,21.77,0,0,1,4.54-8.51c.2-.22.41-.43.63-.64s.35-.32.46-.32h0c.11,0,.26.16.39.3l.23.26a26.25,26.25,0,0,1,2,2.38,24.69,24.69,0,0,1,3.68,9.14A42.12,42.12,0,0,1,27,44.89Zm-.28,7.22-.05.46c-.07.8-.14,1.57-.22,2.31a.45.45,0,0,1-.24.14L19,57l-5.38,1.5-.34-2.68ZM13.11,51l7.69-2.15L27,47.12l0,.43c0,.81-.07,1.56-.13,2.33a.83.83,0,0,1-.25.12c-2.05.59-4.11,1.16-6.17,1.74l-7.22,2-.06,0L13,53.12c0-.66-.1-1.3-.16-1.95C12.87,51.07,12.87,51.06,13.11,51Z"/><path d="M20.85,31.39c0-.55,0-1.09,0-1.63a1,1,0,0,0-1.11-1,1,1,0,0,0-.93,1.13V40.73c0,.71,0,1.41,0,2.12a1,1,0,0,0,.44.85,1,1,0,0,0,.92.1,1.09,1.09,0,0,0,.67-1.15V31.39Z"/><path d="M49.24,56.42a.4.4,0,0,1-.12-.26c.09-.55.19-1.1.29-1.64s.2-1.08.29-1.62.17-1,.26-1.49a29.76,29.76,0,0,0,.55-3.9c.11-1.84.08-3.71.05-5.52,0-.61,0-1.22,0-1.83,0-.92,0-1.77-.14-2.58A26.54,26.54,0,0,0,50,34.72c-.43-2-.92-4.2-1.52-6.78a1.11,1.11,0,0,0-.52-.75,1,1,0,0,0-.78-.05c-.59.19-.8.65-.63,1.36.31,1.22.6,2.45.89,3.68l.24,1L42.17,36l.19-17.79,0,.07c.53,1.08,1.06,2.16,1.58,3.24.34.7.86,1,1.42.78s.68-.76.5-1.47a1.06,1.06,0,0,0-.09-.25c-.2-.39-.39-.78-.58-1.17-.42-.86-.85-1.75-1.35-2.59a2.86,2.86,0,0,0-2.5-1.43h-.11A3,3,0,0,0,38.67,17c-1.37,2.71-2.42,4.94-3.3,7a53.71,53.71,0,0,0-2.67,8.93,48.4,48.4,0,0,0-1.18,10.43,52.1,52.1,0,0,0,.23,5.72,47.33,47.33,0,0,0,.89,6.36c.58,2.49,1.35,5.16,2.42,8.4a31,31,0,0,0,1.55,3.65c.18.37.35.74.52,1.11a4.27,4.27,0,0,0,3.74,2.3,4.09,4.09,0,0,0,3.6-2.13c.65-1.23,1.23-2.47,1.9-4,.3-.68.57-1.36.84-2.08L47.5,62l1.33.8a1.73,1.73,0,0,0,2-.09,1.85,1.85,0,0,0,.69-2A10.94,10.94,0,0,0,49.24,56.42Zm-1.48-4.2c-.14.83-.28,1.65-.4,2.47l-.59-.33a13.39,13.39,0,0,0-1.92-1,14,14,0,0,0-2.07-.61l-.72-.18V52c0-.91,0-1.85,0-2.76a.67.67,0,0,1,.21-.19c1.52-.82,3.15-1.7,4.8-2.57.37-.19.77-.36,1.18-.54l.34-.15A58.74,58.74,0,0,1,47.76,52.22ZM42,54.76h.1c2.16,0,6.35,2.35,7.29,5.93a8.41,8.41,0,0,0-4.47-1.31,10.25,10.25,0,0,0-2.92.46ZM33.54,43a.56.56,0,0,1,.26-.28c2-1.07,4.05-2.17,6.35-3.38q3.14-1.65,6.27-3.27l1.22-.59.38-.17c.24,1.09.19,1.11-.88,1.68L45,38.09l-3.1,1.65c-2.42,1.28-4.84,2.54-7.26,3.8-.31.16-.62.29-1,.44l-.19.08v-.12A7.81,7.81,0,0,1,33.54,43Zm.21,3.32c2.93-1.54,5.86-3.09,8.8-4.62l3.92-2,1.66-.86.33-.17v.17a7.39,7.39,0,0,1,0,1.06s0,.08-.32.23l-3.61,1.88L40.9,43.81l-1.79.95c-.68.37-1.35.73-2,1.08-.86.45-1.72.88-2.6,1.31l-.86.44v-.1c0-.35,0-.69,0-1A.44.44,0,0,1,33.75,46.29ZM34,49.73l9.6-5c1.06-.56,2.13-1.1,3.2-1.65l1.44-.74.33-.16c.16.94-.16,1.48-1.14,1.94-1.77.83-3.52,1.76-5.21,2.67l-2.58,1.36L35.59,50.2,34,51s0-.08,0-.12a7.9,7.9,0,0,1-.12-.93A.49.49,0,0,1,34,49.73Zm6.28-24.34c0,2.42,0,4.84-.07,7.26l0,3.8a.87.87,0,0,1-.52.92c-1.38.69-2.77,1.41-4.11,2.1L34,40.3l-.3.14a53.16,53.16,0,0,1,6.64-22.08v1.77C40.32,21.88,40.33,23.63,40.31,25.39Zm1.54,43.2V66.15c0-1.13,0-2.27,0-3.4a.86.86,0,0,1,.6-.93,5.9,5.9,0,0,1,2.14-.42,5.18,5.18,0,0,1,1,.08l-.32.84c-.32.82-.62,1.6-1,2.37s-.68,1.42-1,2.11l-.41.79A1.92,1.92,0,0,1,41.85,68.59Zm-2-18.37V68.56a1.87,1.87,0,0,1-1-1c-.21-.49-.43-1-.65-1.44a33.49,33.49,0,0,1-1.44-3.45c-.68-2-1.25-4.18-1.81-6.25L34.59,55a7.55,7.55,0,0,1-.22-1.29l-.06-.5Z"/><path d="M45.3,24.68a1,1,0,0,0,.3.73,1,1,0,0,0,.7.28h0a1,1,0,0,0,1-1,1,1,0,0,0-.94-1,1,1,0,0,0-.71.28A1,1,0,0,0,45.3,24.68Z"/><path d="M73.3,43.14l-.12-.54a83.74,83.74,0,0,0-2.05-8.15c-.79-2.46-1.79-4.88-2.76-7.23-.26-.63-.52-1.25-.77-1.88a37.46,37.46,0,0,0-3.84-7.08,2,2,0,0,0-1.57-1,1.64,1.64,0,0,0-1.34,1l-.51.9a31.69,31.69,0,0,0-1.72,3.39c-.91,2.21-1.76,4.56-2.53,7a63.49,63.49,0,0,0-2.85,13,50.2,50.2,0,0,0-.35,7.22,69,69,0,0,0,.83,7.51l0,.29a25.59,25.59,0,0,0,3.16,9.26,10.13,10.13,0,0,0,3.56,3.67,2.27,2.27,0,0,0,1.14.37,1.68,1.68,0,0,0,1.44-1c.3-.5.57-1,.85-1.53l.24-.43a2.33,2.33,0,0,1,.17.26l.37.59A13.34,13.34,0,0,0,65.48,70a1.54,1.54,0,0,0,2.16.37A9.5,9.5,0,0,0,71.4,66c2-4.16,2.4-8.65,2.56-12.49A39.71,39.71,0,0,0,73.3,43.14ZM70.76,56.29a2.41,2.41,0,0,1,.68,2.48A21.42,21.42,0,0,1,69,66a7.45,7.45,0,0,1-2.23,2.41l-1.08-1.88a3,3,0,0,1-.16-.31,3.43,3.43,0,0,0-.44-.7c-.48-.53-.8-.73-1.07-.69a1.87,1.87,0,0,0-1.13.86c-.33.58-.61,1.2-.88,1.8l-.38.84c0,.09-.11.18-.17.27a10.06,10.06,0,0,1-3.86-4.9,31.52,31.52,0,0,1-2.38-9.81c-.14-1.44-.24-2.85-.35-4.35,0-.52-.07-1-.11-1.59l.7.54A14,14,0,0,0,57.65,50a13.81,13.81,0,0,0,4,1.46A16.38,16.38,0,0,1,70.76,56.29ZM55.14,45.23C55,45.07,55,45,55,45c.18-1.51.37-3,.57-4.65l.06-.45a16.66,16.66,0,0,0,3.81,4.31,13.35,13.35,0,0,0,5.39,2.29,23.46,23.46,0,0,1,6,2.21A1.73,1.73,0,0,1,72,50.57a23.39,23.39,0,0,0-.1,2.77c0,.43,0,.85,0,1.27a18.63,18.63,0,0,0-4.16-3.15A17.77,17.77,0,0,0,62,49.53,10.69,10.69,0,0,1,55.14,45.23ZM65.63,31.54c-2.6-1.63-4.25-4.19-5-7.83A2.8,2.8,0,0,1,61,22.28l.1-.2c.26-.61.57-1.21.9-1.84l.3-.56a59.71,59.71,0,0,1,6.1,12.83A6.28,6.28,0,0,1,65.63,31.54Zm-2,1a9,9,0,0,0,4.87,2c.46,0,.64.12.76.5a59.68,59.68,0,0,1,2.46,11.23c0,.21.06.41.1.64l-.47-.24a12,12,0,0,0-1.69-.75c-1.91-.63-3.88-1.2-5.78-1.75l-.2-.06a10.37,10.37,0,0,1-5.62-4.19c-.35-.5-.67-1-1-1.54l-.51-.83a1.43,1.43,0,0,1-.24-1.22c.29-1,.56-2,.84-3,.4-1.44.8-2.89,1.22-4.33.19-.66.44-1.32.71-2,.06-.17.13-.35.2-.53A13.45,13.45,0,0,0,63.62,32.57Z"/></svg>