<svg id="Layer_1" data-name="Layer 1" xmlns="http://www.w3.org/2000/svg" viewBox="0 0 85.04 85.04"><path d="M70.78,70.42a1.42,1.42,0,0,1-1.46.79H14.76c-1.12,0-1.46-.34-1.46-1.48,0-8.81,0-17.62,0-26.43a7,7,0,0,1,.34-2.19C15,37,17.63,34,21.92,32.92a13.44,13.44,0,0,1,12.74,2.86A4.44,4.44,0,0,1,36.32,39a3.67,3.67,0,0,1-3.09,3.81,3.82,3.82,0,0,0-1,.23l-1.17,1.91a.85.85,0,0,0-.15.34,12.12,12.12,0,0,0,2.37,8.27A9.52,9.52,0,0,0,39.48,57c.43.07.86.08,1.28.15a4.18,4.18,0,0,0,3.31-.81,4.37,4.37,0,0,1,5.15,0l.28.19c1.42,1,2.07.93,3.52,0a6.92,6.92,0,0,1,1.81-.84,4.23,4.23,0,0,1,3.53.62l.61.4a2.36,2.36,0,0,0,3,0,8.35,8.35,0,0,1,2-1,4.24,4.24,0,0,1,3.74.64,4.4,4.4,0,0,0,2.24.94c.31,0,.6.48.9.74ZM27.71,46A4.53,4.53,0,0,1,26,49.07a.65.65,0,0,0-.15.51,12.53,12.53,0,0,0,1.59,5.09,1.09,1.09,0,0,1-.4,1.47,1.14,1.14,0,0,1-1.54-.32c-.1-.15-.19-.32-.28-.48a13.87,13.87,0,0,1-1.56-4.93c-.05-.37-.12-.57-.55-.59a13.12,13.12,0,0,1-1.41-.25,4.51,4.51,0,0,1-2.11,2,.51.51,0,0,0-.2.44,18,18,0,0,0,.28,2.22,8.61,8.61,0,0,0,2.29,4A1.19,1.19,0,0,1,22.09,60c-.51.5-1.2.42-1.81-.23a13,13,0,0,1-.91-1.06,10.82,10.82,0,0,1-2.27-6.27c0-.19-.1-.49-.24-.54a8.89,8.89,0,0,0-1.28-.33V63.66l.61-.42a4.61,4.61,0,0,1,5.86,0,4.69,4.69,0,0,0,1,.56,2.57,2.57,0,0,0,2.39-.62,4.52,4.52,0,0,1,5.62,0c1.47,1,2.09,1,3.55,0a4.54,4.54,0,0,1,5.67,0c1.39,1,2.07,1,3.46,0a4.56,4.56,0,0,1,5.71,0c1.38,1,2.06,1,3.46,0a4.57,4.57,0,0,1,5.72,0,4.7,4.7,0,0,0,1,.58,2.24,2.24,0,0,0,2.25-.47,4.71,4.71,0,0,1,6.05,0,4.69,4.69,0,0,0,.54.34V59.42c-.64-.36-1.26-.67-1.83-1.05a2.42,2.42,0,0,0-3.28,0,4.64,4.64,0,0,1-5.95,0,2.38,2.38,0,0,0-3.23,0,4.65,4.65,0,0,1-6,0,2.32,2.32,0,0,0-3.18,0,5.06,5.06,0,0,1-3.51,1c-.78-.07-1.57-.11-2.34-.22A11.85,11.85,0,0,1,28.92,49c-.16-1-.24-2-.35-3.06ZM15.56,68.92h53V66.2c-.71-.4-1.36-.71-2-1.11a2.4,2.4,0,0,0-3.23,0,4.59,4.59,0,0,1-5.9,0,2.38,2.38,0,0,0-3.27,0,4.62,4.62,0,0,1-5.91,0,2.37,2.37,0,0,0-3.27,0,4.59,4.59,0,0,1-5.85,0,2.43,2.43,0,0,0-3.37,0,4.58,4.58,0,0,1-5.76,0c-1.38-1-2.05-.92-3.47,0a6.42,6.42,0,0,1-1.75.84,4.66,4.66,0,0,1-4.15-1,2.3,2.3,0,0,0-3,0c-.64.41-1.31.76-2,1.17Zm.34-27.18.22,0a5.4,5.4,0,0,1,3.86.76,1.59,1.59,0,0,1,.59.7,1,1,0,0,1-.35,1.21,1.11,1.11,0,0,1-1.35.06,3.27,3.27,0,0,0-2.9-.34.52.52,0,0,0-.43.59c0,1.18,0,2.36,0,3.54a1,1,0,0,0,.09.48,2.43,2.43,0,0,0,2.48.91,2,2,0,0,0,1.69-1.71A1.13,1.13,0,0,1,21.56,47a7.8,7.8,0,0,0,1.24.49,1.91,1.91,0,0,0,2.51-2.35c-.33-1.2.31-1.83,1.52-1.61a7.39,7.39,0,0,0,2.1,0c.64-.08.9-.52.88-1.17,0-.33-.1-.66-.12-1a1.11,1.11,0,0,1,1.53-1.15c.16.06.31.15.46.21A1.92,1.92,0,0,0,33.79,40a1.41,1.41,0,0,0-.18-1.94,8.91,8.91,0,0,0-2.07-1.76,11.8,11.8,0,0,0-7.89-1.44,8.65,8.65,0,0,0-3.08,1,8.58,8.58,0,0,1,3.59,1.28,1.15,1.15,0,0,1,.37,1.53,1.13,1.13,0,0,1-1.51.42c-.18-.09-.35-.21-.54-.3C19.92,37.56,16.56,38,15.9,41.74Z"/><path d="M70.78,39.88c-.1.3-.18.59-.29.88a5.48,5.48,0,0,1-3.84,3.62Q58.13,46.69,49.59,49a1.18,1.18,0,0,0-.83.69,31.52,31.52,0,0,1-1.93,3.27,3.19,3.19,0,0,1-2.26,1.43,2.79,2.79,0,0,1-2.82-1.55A16.39,16.39,0,0,1,41,51.29c-.53.12-1.08.27-1.64.39a3.37,3.37,0,0,1-1.68-6.52c1-.3,2-.57,3.08-.82.37-.09.51-.24.49-.64-.08-1.78-.1-3.56-.19-5.33a3.62,3.62,0,0,1,1.47-3.32c.84-.63,1.65-1.3,2.45-2a.87.87,0,0,0,.28-.59c0-1.22-.11-2.43-.21-3.64a.55.55,0,0,0-.34-.4,27.1,27.1,0,0,1-6.54-2.7,3.36,3.36,0,0,1,.61-6.34,3.25,3.25,0,0,1,2.19.2l2.21,1.08a8.74,8.74,0,0,0,1.31.63c.75.21,1.52.32,2.35.49a5.84,5.84,0,0,1-.46-3.36,5.57,5.57,0,0,1,4.27-4.6,2.09,2.09,0,0,0,.35-.13h1.8a1.12,1.12,0,0,0,.25.11,5.62,5.62,0,0,1,4.22,7.24,6,6,0,0,1-1.92,2.75c1,.46,1.87.9,2.79,1.31a1.27,1.27,0,0,0,.55,0c1-.1,1.92-.27,2.89-.29a3.31,3.31,0,0,1,3.32,3,3.39,3.39,0,0,1-2.56,3.6,7.1,7.1,0,0,1-1.11.17c-1.75.09-3.48.82-5.3.1,0,.19.14.36.28.4.7.25,1.41.48,2.13.68a3.64,3.64,0,0,1,2.09,1.58c.8,1.2,1.62,2.38,2.41,3.58a.5.5,0,0,0,.67.26c1.61-.45,3.24-.86,4.86-1.3s1.79-.4,2.39,1.16ZM47.56,32.12c.29,0,.53,0,.77,0,1.34-.09,2.68-.2,4-.3s1.35-.09,1.47-1.36.9-1.94,2.17-1.27a8.51,8.51,0,0,0,1.09.43,1.71,1.71,0,0,0,.65.15c1.34-.15,2.67-.3,4-.51A1,1,0,0,0,62.62,28a1.08,1.08,0,0,0-1.22-.9,10.08,10.08,0,0,0-1.33.17,5.09,5.09,0,0,1-3.92-.53,9.36,9.36,0,0,0-2.45-1.07c-2.06-.52-4.13-1-6.22-1.37a20.62,20.62,0,0,1-7.09-2.45,1.4,1.4,0,0,0-.46-.19,1.69,1.69,0,0,0-.71,0,1,1,0,0,0-.72,1,1.14,1.14,0,0,0,.72,1.1,27.87,27.87,0,0,0,7.1,2.8c.73.16,1,.54,1,1.28C47.39,29.23,47.47,30.65,47.56,32.12ZM68.47,39.3a2.87,2.87,0,0,0-.42.08l-26,6.95-3.61,1a1.1,1.1,0,0,0-.86,1.3,1.07,1.07,0,0,0,1.36.84c.13,0,.25-.06.38-.09l19.06-5.1q3.75-1,7.5-2A3.3,3.3,0,0,0,68.47,39.3Zm-13.18-20A3.36,3.36,0,1,0,52,22.7,3.39,3.39,0,0,0,55.29,19.33Zm.86,20.88a2.58,2.58,0,0,0-2-1.75c-.76-.13-1.5-.43-2.26-.62a1,1,0,0,0-.62,0c-1,.48-2.06,1-3.08,1.48a.57.57,0,0,0-.27.41c0,.85,0,1.71,0,2.66Zm-.23-5.87a11.27,11.27,0,0,0-2-.3c-1.94.07-3.88.26-5.82.33a3.12,3.12,0,0,0-2.51,1.23L47,37.36c1.19-.57,2.36-1.11,3.5-1.7a2,2,0,0,1,1.61-.13c1,.32,2,.6,3.09.91ZM45.62,43c0-1.22,0-2.34,0-3.46a1,1,0,0,0-.13-.48c-.54-.71-1.11-1.4-1.79-2.25a5.56,5.56,0,0,0-.32,1.08c0,.75,0,1.5,0,2.25,0,1.13.09,2.26.13,3.43Zm12.59-7.88L58,35.2c-.25.75-.49,1.5-.72,2.26a.52.52,0,0,0,0,.37c.33.52.67,1,1,1.53a.46.46,0,0,0,.36.14c.67-.16,1.32-.35,2-.55Zm-15,15.54c.2.38.35.72.54,1s.6.52.94.14c.5-.57,1-1.19,1.43-1.78L46,49.93Z"/></svg>