<svg id="Layer_1" data-name="Layer 1" xmlns="http://www.w3.org/2000/svg" viewBox="0 0 85.04 85.04"><defs><style>.cls-1{stroke:#000;stroke-miterlimit:10;stroke-width:0.5px;}</style></defs><path d="M17.13,71.14a1,1,0,1,0-1.41-1.41L14.35,71.1V18.46c0-1.45,0-2.91,0-4.37l1.34,1.34a1,1,0,0,0,1.41,0,1,1,0,0,0,0-1.42l-3.08-3.08a1,1,0,0,0-1.41,0L9.56,14A1,1,0,0,0,11,15.43l1.38-1.38V66.11c0,1.65,0,3.31,0,5L11,69.73a1,1,0,0,0-1.41,1.41l3.08,3.09a1,1,0,0,0,1.41,0Z"/><path d="M75.57,71.7a1,1,0,0,0-1.41-1.41l-1.38,1.37V32c0-1.46,0-2.92,0-4.37L74.16,29a1,1,0,1,0,1.41-1.42l-3.08-3.08a1,1,0,0,0-1.41,0L68,27.57A1,1,0,1,0,69.41,29l1.37-1.38V66.67c0,1.65,0,3.31,0,5l-1.34-1.34A1,1,0,0,0,68,71.7q1.53,1.55,3.08,3.08a1,1,0,0,0,1.41,0Q74,73.25,75.57,71.7Z"/><path class="cls-1" d="M24.54,74.67A4.18,4.18,0,0,1,24,73.56c-.69-3.72-1.46-7.43-2-11.18a90.79,90.79,0,0,1-.7-16.73,78.37,78.37,0,0,1,2.88-17.94A56.24,56.24,0,0,1,30.6,13c.28-.43.57-.86.88-1.27.48-.65,1.05-.67,1.5,0,.89,1.36,1.8,2.71,2.56,4.14A65,65,0,0,1,42,35.15a84.35,84.35,0,0,1,1.17,17.74,105,105,0,0,1-3,20.87,3.54,3.54,0,0,1-.57.91H39c-2.19-1.37-4.38-2.74-6.58-4.09a.6.6,0,0,0-.49,0c-2.27,1.35-4.53,2.72-6.8,4.08ZM31.44,15l-.13-.05c-.11.17-.23.34-.33.51A56,56,0,0,0,25.9,27.54,78.09,78.09,0,0,0,23,44.17a84.61,84.61,0,0,0,.22,14.59c.38,3.66,1,7.29,1.57,10.94.15,1,.4,1.9.62,2.9,1.84-1.09,3.58-2.16,5.35-3.16a1.2,1.2,0,0,0,.69-1.22q0-26.28,0-52.56Zm1.62,0V38.12q0,15.14,0,30.28a1,1,0,0,0,.53,1c1.58.93,3.13,1.91,4.69,2.87.17.11.35.2.51.29l.08-.06a105,105,0,0,0,2.63-17.64A86.37,86.37,0,0,0,41,39.34a70.47,70.47,0,0,0-3.38-14.77A44.19,44.19,0,0,0,33.06,15Z"/><path class="cls-1" d="M47.94,74.67a5.25,5.25,0,0,1-.53-1.06A79.7,79.7,0,0,1,45,53a56.2,56.2,0,0,1,4.29-21,34.36,34.36,0,0,1,4.34-7.67c.61-.79,1.12-.79,1.71,0a40.37,40.37,0,0,1,5.7,11.52,55.48,55.48,0,0,1,2.5,11.69,69.33,69.33,0,0,1,0,13.89A85.53,85.53,0,0,1,61.4,73.7a3.9,3.9,0,0,1-.58,1H60.2c-1.83-1.08-3.67-2.17-5.51-3.24a.64.64,0,0,0-.5,0l-5.63,3.19Zm5.75-47.18-.15,0c-.43.75-.88,1.48-1.27,2.24A53.66,53.66,0,0,0,46.72,52.3a73.38,73.38,0,0,0,1.22,16.06c.26,1.41.56,2.81.86,4.29C50.27,71.83,51.64,71,53,70.3a1.11,1.11,0,0,0,.66-1.15q0-20.51,0-41ZM60,72.63a78.18,78.18,0,0,0,2-12.19,63.27,63.27,0,0,0-.58-16.26,49.88,49.88,0,0,0-4.69-14.44c-.41-.79-.86-1.56-1.29-2.33l-.16,0V69.14a1.61,1.61,0,0,0,0,.44.91.91,0,0,0,.27.49C57,70.92,58.48,71.75,60,72.63Z"/></svg>