<svg id="Layer_1" data-name="Layer 1" xmlns="http://www.w3.org/2000/svg" viewBox="0 0 85.04 85.04"><path d="M51.47,13.65c.56.13,1.13.25,1.68.4a10,10,0,0,1,6.42,5.36c2.88,5.77,5.7,11.58,8.54,17.37a1.17,1.17,0,0,1-.37,1.64l-4.41,3.79c-.84.72-1.47.62-2.1-.28q-3.18-4.56-6.37-9.1c-.14-.21-.32-.4-.52-.65a14.47,14.47,0,0,0,.23,9.13A42.24,42.24,0,0,1,57,50.41c.27,2.1.52,4.22.61,6.33.19,4.38.26,8.76.38,13.13,0,1.21-.31,1.54-1.53,1.54H48.88c-1.13,0-1.41-.33-1.57-1.45-.35-2.47-.66-4.95-1.16-7.38a24.77,24.77,0,0,0-3.28-8.39l-.36-.51a2.19,2.19,0,0,0-.2-.23c-.3.46-.61.88-.87,1.32a27.13,27.13,0,0,0-3.15,8.8c-.41,2.11-.66,4.26-.94,6.39-.15,1.13-.44,1.45-1.57,1.45H28c-1,0-1.38-.39-1.36-1.37.12-4.47.21-8.94.38-13.41A45.84,45.84,0,0,1,28.58,46c.25-.91.8-1.31,1.52-1.07a1.1,1.1,0,0,1,.77,1.32c-.18.77-.39,1.53-.55,2.3a.62.62,0,0,0,.16.51,19,19,0,0,1,6.84,9.25c.34-.83.63-1.59,1-2.34A18.75,18.75,0,0,1,41.2,51.2c.82-1,1.45-.94,2.28,0a21,21,0,0,1,3.59,6.4c.07.19.15.38.23.58.49-1,.93-2.06,1.45-3a17.5,17.5,0,0,1,5.28-6,.6.6,0,0,0,.3-.78c-.57-1.84-1-3.75-1.67-5.54a18.42,18.42,0,0,1-.45-11.69A13,13,0,0,0,49.47,19a6,6,0,0,0-.43-.45l-.19-.12A6.9,6.9,0,0,1,42.33,22a7,7,0,0,1-6.54-3.59c-.32.34-.63.63-.89.95A13.32,13.32,0,0,0,32,26.63a17.77,17.77,0,0,0,.71,5.94,33.58,33.58,0,0,1,.49,3.34,1.11,1.11,0,0,1-1,1.32A1.16,1.16,0,0,1,31,36.07c-.11-1-.24-1.93-.38-2.9,0-.31-.15-.61-.25-1-.78,1-1.52,2-2.2,3-1.56,2.24-3.09,4.49-4.62,6.74-.71,1-1.3,1.13-2.26.3L17,38.46a1.22,1.22,0,0,1-.37-1.78C19.39,31,22.16,25.28,25,19.61a10.07,10.07,0,0,1,8-5.86.69.69,0,0,0,.19-.1h2.49a1.71,1.71,0,0,1,1.07,1.19c.17.53.41,1,.61,1.57a4.81,4.81,0,0,0,4.89,3.32,4.79,4.79,0,0,0,5-3.22,17,17,0,0,0,.65-1.67A1.72,1.72,0,0,1,49,13.65ZM22.08,39.83c.52-.77,1-1.54,1.53-2.26q2.82-3.85,5.7-7.69a1.65,1.65,0,0,0,.41-1.1,17.14,17.14,0,0,1,1.43-7.73,13.65,13.65,0,0,1,3.38-4.59,1.36,1.36,0,0,0,.23-.41,1.19,1.19,0,0,0-.44-.14,11.88,11.88,0,0,0-1.45.15,8,8,0,0,0-5.8,4.48c-1.3,2.57-2.6,5.15-3.88,7.74q-2.06,4.19-4.06,8.41a.7.7,0,0,0,0,.62C20.1,38.16,21.08,39,22.08,39.83Zm40.55,0c.92-.78,1.82-1.58,2.75-2.33a.56.56,0,0,0,.16-.81c-1.39-2.82-2.74-5.67-4.13-8.49-1.27-2.58-2.54-5.15-3.86-7.7a8,8,0,0,0-7.12-4.55,1.7,1.7,0,0,0-.52.12,1.92,1.92,0,0,0,.29.48,14,14,0,0,1,3.55,5.08A18.54,18.54,0,0,1,55,28.92a1.48,1.48,0,0,0,.32.84c.62.82,1.33,1.58,1.94,2.41C59,34.69,60.81,37.22,62.63,39.79ZM35.05,69.13c.21-1.43.42-2.8.62-4.17A9.37,9.37,0,0,0,36,62.58a16.86,16.86,0,0,0-3.63-8.65c-.74-.9-1.61-1.7-2.41-2.55l-.19.1c-.69,5.85-.65,11.74-.84,17.65Zm14.6,0h6.11c-.2-5.91-.15-11.79-.86-17.75l-.78.64a17,17,0,0,0-5.22,9.25,5.94,5.94,0,0,0-.21,2C49,65.2,49.32,67.13,49.65,69.11Z"/><path d="M32.5,41.14a1.19,1.19,0,0,1-1.16,1.15,1.16,1.16,0,0,1-1.12-1.17A1.11,1.11,0,0,1,31.34,40,1.14,1.14,0,0,1,32.5,41.14Z"/></svg>