<svg id="Layer_1" data-name="Layer 1" xmlns="http://www.w3.org/2000/svg" viewBox="0 0 85.04 85.04"><path d="M10.64,18.85c.85-.88,1.7-1.76,2.56-2.62,1.82-1.83,3.65-3.64,5.46-5.48a1.65,1.65,0,0,1,1.27-.52H59.22c1,0,1.32.29,1.32,1.34V30.85a4,4,0,0,1,0,.49,1,1,0,0,1-2,0,3.51,3.51,0,0,1,0-.56V12.28H20.62v.65c0,2,0,4,0,6.05,0,.91-.32,1.24-1.23,1.24H12.67V72.11h.73q17,0,34.05,0c.92,0,1.45.62,1.22,1.27-.1.29-.4.5-.6.75H10.64Zm7.93-.65V14L14.33,18.2Z"/><path d="M59.29,74.11c-1.37-.38-2.78-.66-4.11-1.16A35.74,35.74,0,0,1,42.3,64.89a7.94,7.94,0,0,1-2.36-3.74,2.35,2.35,0,0,1,.26-1.8c1.23-2.14,2.46-4.29,3.71-6.41a3.12,3.12,0,0,1,3.33-1.33,31.6,31.6,0,0,1,4.07.84,1.4,1.4,0,0,0,1.15-.14A13.69,13.69,0,0,0,59.15,43c.36-1.55.51-3.14.77-4.72a7.35,7.35,0,0,1,14.46-.08,7.14,7.14,0,0,1-3.12,7.48,21.06,21.06,0,0,0-6.07,6.26,12.93,12.93,0,0,0-1.7,7,1.37,1.37,0,0,0,.38.72c.91,1,1.92,2,2.74,3.13A3.37,3.37,0,0,1,66.77,67c-1,1.53-1.88,3.13-2.74,4.74a4,4,0,0,1-2.61,2.35Zm2.15-16.55c0-.14.07-.34.09-.55a14.57,14.57,0,0,1,3.09-7.87A24.77,24.77,0,0,1,70,44a5.24,5.24,0,0,0,2.37-5.43,5.32,5.32,0,0,0-10.51.1c-.2,1.4-.33,2.81-.64,4.18a16.4,16.4,0,0,1-3.83,8c-.93,1-2,1.85-2.94,2.69Zm1.64,11.75c.65-1.13,1.34-2.38,2.09-3.59a1.11,1.11,0,0,0,0-1.33,15.4,15.4,0,0,0-1.65-2.18,33.78,33.78,0,0,0-12.09-7.57,12.19,12.19,0,0,0-4.91-1,1.18,1.18,0,0,0-1.1.65c-.6,1.11-1.25,2.2-1.88,3.3-.09.15-.16.31-.18.35A34.36,34.36,0,0,1,63.08,69.31ZM43.25,60.13h-.31c-1.07,0-1.3.36-.74,1.29a10.11,10.11,0,0,0,1.53,2,33.8,33.8,0,0,0,13.73,8.13,7.39,7.39,0,0,0,3.61.45c.65-.13.8-.32.46-.89a12.68,12.68,0,0,0-1.78-2.45,33.41,33.41,0,0,0-10.88-7.08A16.36,16.36,0,0,0,43.25,60.13Z"/><path d="M24.94,29.14A10.88,10.88,0,1,1,35.86,40,10.89,10.89,0,0,1,24.94,29.14ZM35.83,38A8.86,8.86,0,1,0,27,29.1,8.87,8.87,0,0,0,35.83,38Z"/><path d="M35.77,46.58H18.5c-.23,0-.46,0-.69,0a1,1,0,0,1-.92-.93,1,1,0,0,1,.86-1.06,3.5,3.5,0,0,1,.56,0h35a4.13,4.13,0,0,1,.5,0,1.07,1.07,0,0,1,1,1,1,1,0,0,1-1,1c-.23,0-.46,0-.69,0Z"/><path d="M27.83,66.57c-3.12,0-6.24,0-9.36,0-.2,0-.41,0-.62,0a1,1,0,0,1,0-2,2.07,2.07,0,0,1,.43,0H37.35a2.56,2.56,0,0,1,.62.06,1,1,0,0,1,0,2,4,4,0,0,1-.69,0C34.11,66.58,31,66.57,27.83,66.57Z"/><path d="M28.41,51.16H38.58a4,4,0,0,1,.49,0,1,1,0,0,1,.88,1,.92.92,0,0,1-.88,1,4.24,4.24,0,0,1-.62,0H17.81a1,1,0,0,1-.92-1,1,1,0,0,1,.92-1h10.6Z"/><path d="M26.85,57.75h8.78a1,1,0,0,1,1.09.55,1,1,0,0,1-.78,1.45,4.21,4.21,0,0,1-.5,0H17.93a1,1,0,0,1-1-1,1,1,0,0,1,1.05-1c1.91,0,3.82,0,5.73,0Z"/><path d="M34.6,32.15l3.74-4.32c.42-.49.83-1,1.26-1.46a1,1,0,0,1,1.49-.16,1,1,0,0,1,0,1.49q-2.73,3.19-5.49,6.37a1,1,0,0,1-1.58.16c-1-.66-1.91-1.33-2.85-2-.62-.44-.74-1-.39-1.49a1,1,0,0,1,1.58-.14C33.11,31.09,33.82,31.6,34.6,32.15Z"/></svg>