<svg id="Layer_1" data-name="Layer 1" xmlns="http://www.w3.org/2000/svg" viewBox="0 0 85.04 85.04"><path d="M73.62,13.9v7a1.54,1.54,0,0,1-1.51.66c-.5,0-1,0-1.51,0v51.8c.53,0,1,0,1.49,0a1.6,1.6,0,0,1,1.53.62v1.46H12.08c-.38-.39-.8-.78-.54-1.4s.82-.7,1.41-.68,1,0,1.57,0V21.59c-.67,0-1.32,0-2,0a1,1,0,0,1-1.08-1.11q0-3,0-6.07a1,1,0,0,1,1.09-1.11H13q29.55,0,59.1,0A1.74,1.74,0,0,1,73.62,13.9Zm-5.24,7.74H16.71V73.35h2V25.43c0-.28,0-.57,0-.85a.93.93,0,0,1,.78-.88,3.43,3.43,0,0,1,.78-.07H64.79a5,5,0,0,1,.55,0,1.05,1.05,0,0,1,1,1.06c0,.24,0,.49,0,.73V73.36h2ZM20.87,34.06V40.2H64.24V34.06Zm0,14.4H64.23V42.34H20.84Zm43.42,2.17H20.84v6.1H64.26ZM20.84,31.86H64.23V25.79H20.84Zm0,33.17h43.4V59H20.84Zm43.41,2.2H20.87v6.13H64.25ZM13.56,19.44h58v-4h-58Z"/><path d="M42.59,70.25c1,0,1.94,0,2.91,0a1.06,1.06,0,0,1,1.18,1.09,1,1,0,0,1-.72.94,2.92,2.92,0,0,1-.66.09H39.78a1.27,1.27,0,0,1-1.22-.53,1,1,0,0,1,1-1.59C40.56,70.23,41.57,70.25,42.59,70.25Z"/></svg>