<svg id="Layer_1" data-name="Layer 1" xmlns="http://www.w3.org/2000/svg" viewBox="0 0 85.04 85.04"><path d="M14.94,44.25l-.28,0c-1.61.12-1.84-.38-1.78-1.8,0-1,0-2,0-3s.31-1.35,1.33-1.35H17c-.19-2,.4-3.48,2.51-4.1-.91-1.37-1.77-2.69-2.68-4-.11-.16-.53-.14-.8-.14a3.1,3.1,0,0,1-1.68-5.73,2.88,2.88,0,0,1,2.28-.37.77.77,0,0,0,.89-.26c1.58-1.78,3.18-3.53,4.75-5.32a.88.88,0,0,0,.13-.71,3.1,3.1,0,0,1,4.74-3.5,3.45,3.45,0,0,0,2,.8A4.35,4.35,0,0,1,32,16.11a1,1,0,0,1,.34.83.84.84,0,0,0,.32.92,3.08,3.08,0,0,1-3.47,4.95.91.91,0,0,0-.93,0,1.15,1.15,0,0,1-1,0,4.92,4.92,0,0,1-2.47-2.66c-.11-.31-.43-.54-.78-1a8.75,8.75,0,0,1-.52.72c-1.5,1.67-3,3.35-4.52,5a.64.64,0,0,0-.14.78,3,3,0,0,1-.18,2.54.92.92,0,0,0,0,.73q1.51,2.34,3.1,4.64a.84.84,0,0,0,.61.32c.58,0,1.16,0,1.74,0a3,3,0,0,1,3.11,3.12c0,.3,0,.6,0,1H47.83a1.3,1.3,0,0,0,1-.42,6.47,6.47,0,0,0,2-3.7H42.74a2,2,0,0,1-2.1-2.1V15.45a2,2,0,0,1,2.06-2.07q12.35,0,24.67,0a2,2,0,0,1,2,2V31.91a2,2,0,0,1-2,2H59.25a6.36,6.36,0,0,0,2.32,4,1.07,1.07,0,0,0,.61.1h9c1,0,1.33.31,1.33,1.34s0,2.32,0,3.47-.3,1.35-1.38,1.36h-.67V71.58c0,1.15-.28,1.42-1.45,1.42H65.66c-1.08,0-1.38-.29-1.38-1.35V56.59H37.55v15c0,1.06-.3,1.36-1.37,1.36H32.77c-1.08,0-1.38-.29-1.38-1.35V71H21.1c0,.37,0,.71,0,1a1,1,0,0,1-1,1c-1.39,0-2.79,0-4.18,0a1,1,0,0,1-1-1c0-.17,0-.34,0-.51V44.25ZM67.32,27.74V15.48H42.73V27.74ZM19.05,70.93V47.58c0-1,.32-1.3,1.31-1.3H32.05c1.1,0,1.39.29,1.39,1.41V70.92H35.5V47.65c0-1.08.3-1.37,1.36-1.37H64.94c1.11,0,1.4.28,1.4,1.4V70.9h2V44.26H17V70.93ZM64.23,54.47V48.36H37.59v6.11ZM70.4,42.14v-2H15v2ZM21.15,56.58V68.84h10.2V56.58Zm10.21-8.2H21.16v6.09h10.2Zm36-18.51H42.75v2H67.34ZM53.15,34l-1.63,4h7l-1.61-4ZM19.05,38h6.17c0-.35,0-.67,0-1a1,1,0,0,0-1.08-1c-1.33,0-2.66,0-4,0a1,1,0,0,0-1.09,1.1C19,37.39,19.05,37.69,19.05,38Zm10.8-20.87A2,2,0,0,0,27,17.7a2,2,0,0,0,.56,2.72ZM16,25.72a1.06,1.06,0,0,0-1,1,1,1,0,0,0,2,0A1.11,1.11,0,0,0,16,25.72Zm10-10.06c-.66-.3-1.18-.19-1.46.3a.93.93,0,0,0,.34,1.31Zm3.91,5.17c.65.26,1.11.17,1.42-.35A.92.92,0,0,0,31,19.19Z"/><path d="M36.51,23.3A1.1,1.1,0,0,1,35,24.4a6.81,6.81,0,0,1-1-.7.93.93,0,0,1-.15-1.37A1,1,0,0,1,35.16,22a5.13,5.13,0,0,1,.94.66A2.56,2.56,0,0,1,36.51,23.3Z"/><path d="M33,26.18a3.85,3.85,0,0,1-.89.76.86.86,0,0,1-1.16-.52A5,5,0,0,1,30.56,25a.9.9,0,0,1,.75-1,.91.91,0,0,1,1.19.49A12.59,12.59,0,0,1,33,26.18Z"/><path d="M36.31,18.21a1,1,0,0,1,1.21.84,1,1,0,0,1-.74,1.18,5.38,5.38,0,0,1-1.26.17.94.94,0,0,1-1-.92.9.9,0,0,1,.66-1.1A9,9,0,0,1,36.31,18.21Z"/><path d="M50.87,52.44c-.64,0-1.28,0-1.92,0a1,1,0,0,1-1.11-1,1,1,0,0,1,1.07-1h4a1,1,0,1,1,0,2C52.24,52.45,51.55,52.44,50.87,52.44Z"/><path d="M23.16,62.66c0-1,0-1.93,0-2.89,0-.72.37-1.14,1-1.16s1.05.42,1.06,1.16v5.9c0,.72-.38,1.15-1,1.16s-1-.41-1-1.16C23.16,64.67,23.16,63.66,23.16,62.66Z"/><path d="M26.28,50.39h2a1,1,0,1,1,0,2c-1.34,0-2.69,0-4,0a1,1,0,1,1,0-2Z"/></svg>