<svg id="Layer_1" data-name="Layer 1" xmlns="http://www.w3.org/2000/svg" viewBox="0 0 85.04 85.04"><path d="M36,25V22c0-1,.4-1.35,1.38-1.37h2.27c0-.28,0-.54,0-.79V14.7c0-1.17.41-1.56,1.59-1.56h3c1,0,1.45.42,1.46,1.47,0,1.7,0,3.4,0,5.09v.89h1.78c1.67,0,1.91.24,1.91,1.87v2.68l1,.32C60.63,28.73,67.07,35.69,70.39,45.7a31.41,31.41,0,0,1,1.45,9.09c0,1.29-.32,1.65-1.6,1.65q-9,0-18.07,0h-.82c-.28.85-.47,1.65-.8,2.39a8.56,8.56,0,0,1-16.21-1.77c-.12-.57-.35-.62-.82-.62q-9.06,0-18.13,0c-1.49,0-1.84-.3-1.76-1.78.59-12,5.77-21.26,16.4-27.16A56,56,0,0,1,36,25ZM69.56,54.17c-.07-.85-.1-1.63-.2-2.4a29.59,29.59,0,0,0-7.83-16.91,25.55,25.55,0,0,0-36-1.5,29,29,0,0,0-9.24,17.36c-.19,1.13-.24,2.28-.36,3.45Zm-32.9,2.32c-.1,2.47,3,5.13,6,5.15s6.21-2.58,6.16-5.15Zm1.66-33.58v1.58h8.83V22.91Zm3.73-7.43v5.07h1.36V15.48Z"/><path d="M33.31,69.65c-.33-.28-.75-.48-.87-.8a1.28,1.28,0,0,1,.09-1.12c1.27-1.36,2.59-2.68,3.93-4a1.07,1.07,0,0,1,1.5.12,1.14,1.14,0,0,1,0,1.58c-.84.87-1.7,1.72-2.56,2.57-.36.36-.7.74-1.08,1.07A6.31,6.31,0,0,1,33.31,69.65Z"/><path d="M48.23,63.38a4.69,4.69,0,0,1,.92.5c1.23,1.2,2.44,2.41,3.65,3.64a1.09,1.09,0,0,1,.08,1.62,1.11,1.11,0,0,1-1.68,0c-1.23-1.2-2.46-2.39-3.61-3.66a1.65,1.65,0,0,1-.23-1.31C47.43,63.85,47.91,63.65,48.23,63.38Z"/><path d="M56.9,62.55c0,1-.74,1.59-1.45,1.27-1.37-.6-2.7-1.28-4-2a1,1,0,0,1-.36-1.46,1,1,0,0,1,1.42-.49c1.29.62,2.57,1.24,3.82,1.92C56.62,62,56.78,62.4,56.9,62.55Z"/><path d="M29.54,64.05a4.08,4.08,0,0,1-.9-.91.93.93,0,0,1,.4-1.27q2-1.08,4.08-2a1,1,0,0,1,1.28.54.9.9,0,0,1-.21,1.3c-1.43.8-2.92,1.49-4.38,2.22a.68.68,0,0,1-.15,0Z"/><path d="M43.88,68.31c0,.6,0,1.21,0,1.82a1.15,1.15,0,1,1-2.29,0c0-1.16,0-2.33,0-3.49a1.12,1.12,0,0,1,1.15-1.23,1.14,1.14,0,0,1,1.14,1.24C43.9,67.19,43.88,67.75,43.88,68.31Z"/></svg>