<svg id="Layer_1" data-name="Layer 1" xmlns="http://www.w3.org/2000/svg" viewBox="0 0 85.04 85.04"><defs><style>.cls-1{fill:#1d1d1b;}</style></defs><path class="cls-1" d="M70.23,68.43H67.82v-1.7h2.1a2.32,2.32,0,0,0,2-1A2.29,2.29,0,0,0,72,63.46c-.51-1.08-1-2.14-1.58-3.23L70,59.35a2.34,2.34,0,0,0,1.44-1.2,2.53,2.53,0,0,0-.24-2.4l-2.43-4.14a2.55,2.55,0,0,0,1.42-1.22,2.11,2.11,0,0,0-.11-2c-1.29-2.39-2.49-4.53-3.66-6.55a2.24,2.24,0,0,0-2-1.16h0a2.28,2.28,0,0,0-2,1.16c-1.15,2-2.36,4.16-3.68,6.6a2.22,2.22,0,0,0,1.31,3.17h0l-.83,1.42c-.56,1-1.12,1.9-1.67,2.85a2.21,2.21,0,0,0,.44,3,2.89,2.89,0,0,0,.78.44l-.4.73-1.77,3.22a2.21,2.21,0,0,0,2.06,3.45H61.3v1.66H20.78V65.81h.44c.69,0,1.36,0,2,0a3.85,3.85,0,0,0,3.6-2.64,3.7,3.7,0,0,0-1.28-4.31c-.73-.45-.83-.92-.75-1.79,0-.2,0-.4,0-.59a3.89,3.89,0,0,0-3.71-3.9,17.83,17.83,0,0,0-3,0,3.81,3.81,0,0,0-3.38,3.7v.86c0,.35,0,.71,0,1a.36.36,0,0,1-.05.09,4.06,4.06,0,0,0-2.08,4.54,3.89,3.89,0,0,0,4,3h2.13v2.62H14.41a1.84,1.84,0,0,0-1.93,1.91c0,.44,0,.88,0,1.32v.45c0,1.69.66,2.35,2.35,2.35H70.43a1.86,1.86,0,0,0,1.88-1.89c0-.69,0-1.38,0-2.07A1.88,1.88,0,0,0,70.23,68.43ZM14.4,70.49a.52.52,0,0,0,0-.13.63.63,0,0,1,.14,0,2.16,2.16,0,0,0,.36,0H70.37c0,.11,0,.29,0,.42v.51c0,.37,0,.73,0,1.09,0,.08,0,.12,0,.13h-56c0-.12,0-.31,0-.49v-.49C14.41,71.19,14.42,70.84,14.4,70.49Zm44-6.29c.59-1.09,1.19-2.17,1.79-3.26l.8-1.45c.32-.58.54-1.05.3-1.48s-.79-.47-1.48-.48a1.07,1.07,0,0,1-.41-.06c-.14-.07-.16-.14-.17-.17a.63.63,0,0,1,.12-.47c.63-1.09,1.27-2.17,1.9-3.25L62.14,52l.35-.61a1.1,1.1,0,0,0,.09-1.11,1.13,1.13,0,0,0-1-.5h-.7a.44.44,0,0,1-.35-.15.36.36,0,0,1,0-.34c.23-.46.49-.92.75-1.38l.89-1.6c.6-1.08,1.2-2.15,1.83-3.21a1.08,1.08,0,0,1,.58-.43c.06,0,.16.16.29.4l1.38,2.48,1.95,3.49c.19.35.19.54.16.59s-.19.15-.58.15h-.42a1,1,0,0,0-1,1.67c1,1.72,2,3.43,3,5.15.23.39.28.53.19.71s-.2.19-.72.2-1,.05-1.25.44a1.4,1.4,0,0,0,.15,1.37l2.32,4.72c.17.36.17.55.14.59s-.19.14-.6.14h-11c-.3,0-.45-.07-.48-.12S58.23,64.46,58.37,64.2Zm4.94,4.21V66.76h2.53v1.65ZM14.42,62.17A2,2,0,0,1,15.59,60a1.42,1.42,0,0,0,1.07-1.62c0-.54,0-1.1,0-1.64v-.31a1.94,1.94,0,0,1,1.81-2,21,21,0,0,1,2.63,0,1.78,1.78,0,0,1,1.73,1.66,22.85,22.85,0,0,1,.05,2.34v.13A1.26,1.26,0,0,0,23.79,60a2,2,0,0,1,1.33,2.17,2,2,0,0,1-2,1.72H20.74v-.05c0-.45,0-.87,0-1.27a.66.66,0,0,1,.14-.19L22,61.22l.48-.48a1.25,1.25,0,0,0,.48-.86,1.07,1.07,0,0,0-1-1h0a1.3,1.3,0,0,0-.88.5l.36.35h0L21,59.53l-.27.26V58.32c0-.14,0-.29,0-.43v-.21a1,1,0,0,0-1.06-1c-.36.06-.79.28-.83,1.07s0,1.36,0,2v.08l-.38-.39a1.39,1.39,0,0,0-.92-.53.86.86,0,0,0-.69.31c-.44.45-.37,1,.21,1.55l.52.53c.33.33.65.66,1,1a.72.72,0,0,1,.28.67c0,.3,0,.6,0,.91h-.58a18.09,18.09,0,0,1-2.34,0A1.83,1.83,0,0,1,14.42,62.17Z"/><path class="cls-1" d="M15.57,30.8a4.43,4.43,0,0,0,1.36-.06h0V50.29a1.55,1.55,0,0,0,.11.74,1,1,0,0,0,.85.6H18a1.21,1.21,0,0,0,.8-.67,1.31,1.31,0,0,0,.08-.66V38.18h47v.48a9.88,9.88,0,0,0,0,1.21.94.94,0,0,0,.93,1c.83,0,.91-.58,1-1a4,4,0,0,0,0-.53V30.73a2.81,2.81,0,0,0,2.28-.26,2.86,2.86,0,0,0,1.32-2.24c0-.51,0-1,0-1.51V26.2A2.91,2.91,0,0,0,69.16,23L59.05,19.76l-15.54-5a3.54,3.54,0,0,0-2.25,0l-7,2.27-4.93,1.6V18.4c0-.67,0-1.3,0-1.94a1.87,1.87,0,0,0-2-2H22.81a2,2,0,0,0-2.22,2.21v.74c0,1.32,0,2.64,0,4,0,.07,0,.1,0,.11a.48.48,0,0,1-.13.05c-1.54.48-3.06,1-4.59,1.48l-.47.15a2.7,2.7,0,0,0-2,2.47,21.13,21.13,0,0,0,0,2.76A2.6,2.6,0,0,0,15.57,30.8Zm53.9-3.41c0,.27,0,.55,0,.82a.78.78,0,0,1-.85.73.81.81,0,0,1-.78-.81c0-.6,0-1.09,0-1.53a1.31,1.31,0,0,0-1-1.43q-6.49-2.13-13-4.3l-6.09-2c-1.55-.52-3.09-1-4.64-1.51a2.33,2.33,0,0,0-1.36,0L28.87,21.58,18,25.15A1.36,1.36,0,0,0,17,26.66a10.26,10.26,0,0,1,0,1.24v.17a.82.82,0,1,1-1.64.06c0-.78,0-1.56,0-2.36,0-.32.1-.64.78-.86l6.63-2.14,6.94-2.24q6-2,12.08-3.92a2.22,2.22,0,0,1,.65-.11,1.91,1.91,0,0,1,.62.1q11.16,3.63,22.33,7.23l3,1c1.19.38,1.19.38,1.16,2.19h0C69.46,27.11,69.46,27.25,69.47,27.39Zm-3.59-.47q0,3.39,0,6.78v2.47H18.93V26.9l1.31-.43,4.05-1.35.95-.31Q33.63,22,42,19.28a1.28,1.28,0,0,1,.75,0q7.92,2.6,15.83,5.22l7.16,2.37C65.86,26.89,65.9,26.91,65.88,26.92Zm-38.5-10.5v1c0,.58,0,1.17,0,1.79-1.47.5-3,1-4.48,1.47l-.33.1v-.69c0-1.25,0-2.48,0-3.75a.24.24,0,0,1,.12,0H25l2.39,0A.36.36,0,0,1,27.38,16.42Z"/><path class="cls-1" d="M35.8,45.18H35a2.85,2.85,0,0,0-2.85,2.52,18,18,0,0,0-.07,2.64v.31a.89.89,0,0,0,1,.9h0c.55,0,1.09,0,1.65,0H36.1c.55,0,1.09,0,1.64,0h0c.93,0,1.08-.56,1.09-.9a.84.84,0,0,0-.24-.64,1.11,1.11,0,0,0-.85-.28H34.68a1.5,1.5,0,0,1-.71-.06c-.12-.12-.08-.7-.06-1.17a1.49,1.49,0,0,1,1.35-1.46c.25,0,.49,0,.75,0h.52a2.45,2.45,0,0,0,2.33-2.42q0-.65,0-1.29v-.36A1.65,1.65,0,0,0,37,41.1H33.52a4.35,4.35,0,0,0-.61,0,.9.9,0,0,0,0,1.79,3.68,3.68,0,0,0,.49,0h2.39a1.31,1.31,0,0,1,1,.38,1,1,0,0,1,.28.75A1.16,1.16,0,0,1,35.8,45.18Z"/><path class="cls-1" d="M56.43,54.48h.24a1.06,1.06,0,0,0,.76-.25,1,1,0,0,0,.28-.75,1,1,0,0,0-.29-.72,1.28,1.28,0,0,0-1-.24H26.56a1.37,1.37,0,0,0-1,.28,1,1,0,0,0-.27.72,1,1,0,0,0,.28.7,1.35,1.35,0,0,0,1,.25H56.43Z"/><path class="cls-1" d="M35.53,67.25a.79.79,0,0,0,.55.21h.1c.6-.06.9-.45.89-1.17,0-.88,0-1.77,0-2.65V61.47c0-1,0-2,0-3a1.22,1.22,0,0,0-.48-.86.9.9,0,0,0-.93.15c-1,1-2,1.94-3,2.9l-.28.28a.76.76,0,0,0,0,1.17.75.75,0,0,0,.56.26h0a.89.89,0,0,0,.62-.3c.25-.26.54-.5.82-.74l.34-.29.23-.22.27-.27c0,.22,0,.46,0,.61,0,1.23,0,2.46,0,3.68v1.48A1.27,1.27,0,0,0,35.53,67.25Z"/><path class="cls-1" d="M41,41.66h0a.9.9,0,0,0-.72.43,1.74,1.74,0,0,0-.2.88q0,3.21,0,6.42v1.15a1,1,0,0,0,.15.62,1.29,1.29,0,0,0,.85.55,1.1,1.1,0,0,0,.87-.67,1.31,1.31,0,0,0,.08-.66V45.82l.5.76q1.5,2.25,3,4.49a1.26,1.26,0,0,0,1,.65h.11a.81.81,0,0,0,.53-.2,1.3,1.3,0,0,0,.26-1c0-1.87,0-3.75,0-5.63v-2a1.23,1.23,0,0,0-.3-.94,1,1,0,0,0-.69-.27h0a.87.87,0,0,0-.84.52,1.35,1.35,0,0,0-.1.66v4.75L42,42.29A1.24,1.24,0,0,0,41,41.66Z"/><path class="cls-1" d="M44.69,61a1.16,1.16,0,0,0,.87.66h0a1.09,1.09,0,0,0,.92-.82,2.76,2.76,0,0,0-2-3.22,6,6,0,0,0-1.1-.13l-.43,0-.57,0a2.85,2.85,0,0,0-3.17,3.34,2.77,2.77,0,0,0,2.75,2.69h1.65c.89,0,1,.53,1,.92,0,1-.43,1.21-1,1.24-.32,0-.64,0-1,0h-.35c-.94,0-1.16-.22-1.22-1.22a.87.87,0,0,0-.19-.59c-.15-.16-.5-.54-.92-.44a1.11,1.11,0,0,0-.79.78,2.74,2.74,0,0,0,.39,2.1,2.61,2.61,0,0,0,1.69,1.17,8.54,8.54,0,0,0,1.74.12h.31a2.86,2.86,0,0,0,3.18-3.29,2.74,2.74,0,0,0-2.72-2.73h-.74c-.37,0-.74,0-1.12,0s-.83-.17-.82-1.11.63-1,.83-1c.66,0,1.25,0,1.83,0a.85.85,0,0,1,.81.87v.1A.83.83,0,0,0,44.69,61Z"/><path class="cls-1" d="M48.62,51.45a1.14,1.14,0,0,0,.85.3h.08c.49,0,1,0,1.46,0s.7,0,1.05,0a3.5,3.5,0,0,0,3.54-3.12,18.92,18.92,0,0,0,0-3.6A3.57,3.57,0,0,0,52,41.66H49.57a1.13,1.13,0,0,0-1.28,1.27c0,.89,0,1.78,0,2.67v2.18c0,.9,0,1.8,0,2.69A1.34,1.34,0,0,0,48.62,51.45ZM53.67,45a23.11,23.11,0,0,1,0,3.43,1.59,1.59,0,0,1-1.59,1.39c-.53,0-1.06,0-1.6,0h-.23V43.66h.4a8.77,8.77,0,0,1,1.86.05A1.33,1.33,0,0,1,53.67,45Z"/><path class="cls-1" d="M50.13,65.5a7.66,7.66,0,0,0,0,1.17c.1.86.62,1,.9,1h.06a.94.94,0,0,0,.93-.92,4.2,4.2,0,0,0,0-.55V59.46h1.51a1.23,1.23,0,0,0,.91-.29,1,1,0,0,0,0-1.35,1.17,1.17,0,0,0-.91-.3h-5c-1,0-1.16.6-1.17.95a1,1,0,0,0,.25.7,1.18,1.18,0,0,0,.91.29h1.54v6Z"/><path class="cls-1" d="M38.85,28.27a9.85,9.85,0,0,0,0-1.08,2.48,2.48,0,0,0-2.43-2.4H33.51a1,1,0,0,0-.74.26.88.88,0,0,0-.25.64.91.91,0,0,0,.25.65,1,1,0,0,0,.74.26c.65,0,1.32,0,2,0a1.38,1.38,0,1,1,0,2.73c-.17,0-.34,0-.51,0a5.44,5.44,0,0,0-.89,0c-.17,0-.69.08-.68.61,0,.36.25.62.7.7a5.06,5.06,0,0,0,.95,0h.37a1.78,1.78,0,0,1,1.17.4,1.24,1.24,0,0,1,.43,1,1.42,1.42,0,0,1-1.56,1.35c-.62,0-1.25,0-1.87,0a1.12,1.12,0,0,0-.86.27.88.88,0,0,0-.24.64c0,.58.42.93,1.1.93h2.7a2.5,2.5,0,0,0,2.49-2,4.45,4.45,0,0,0,0-1v-.24a2.09,2.09,0,0,0-1.29-2,1.65,1.65,0,0,0,.25-.15A1.9,1.9,0,0,0,38.85,28.27Z"/><path class="cls-1" d="M47.17,27a2.71,2.71,0,0,0-2.71-1.65h-.07c-.65,0-1.3,0-1.94,0h-1c-1.08,0-1.42.33-1.42,1.4,0,2.4,0,4.81,0,7.21v.15a1.38,1.38,0,0,0,.27,1,1.06,1.06,0,0,0,1.43,0,1.28,1.28,0,0,0,.25-1c0-.07,0-.13,0-.19,0-.73,0-1.45,0-2.17v-.4h2.44c.75,0,1.06.31,1.07,1.05,0,.23,0,.46,0,.68,0,.43,0,.86,0,1.32.06.81.5,1,.87,1h.06c.41,0,.87-.18,1-1a6.2,6.2,0,0,0,0-1c0-.21,0-.42,0-.63a3.22,3.22,0,0,0-.7-2.34A3.17,3.17,0,0,0,47.17,27ZM42,27.25h.49c.76,0,1.49,0,2.21,0s.78.82.78,1.06c0,.5-.21,1-.77,1.07-.74,0-1.47,0-2.22,0H42Z"/><path class="cls-1" d="M51.82,25.31H49.59c-.94,0-1.29.35-1.29,1.28v7.6a1.2,1.2,0,0,0,.32.93,1.25,1.25,0,0,0,.92.31h2.52a3.59,3.59,0,0,0,3.55-3.19,19.08,19.08,0,0,0,0-3.54A3.6,3.6,0,0,0,51.82,25.31ZM50.5,33.5h-.24V27.22h.35a12.24,12.24,0,0,1,1.85.12,1.44,1.44,0,0,1,1.23,1.4,24.66,24.66,0,0,1,0,3.09A1.69,1.69,0,0,1,52,33.49C51.49,33.51,51,33.51,50.5,33.5Z"/></svg>