<svg id="Layer_1" data-name="Layer 1" xmlns="http://www.w3.org/2000/svg" viewBox="0 0 85.04 85.04"><path d="M22.48,73.93V14.2c0-.62-.08-.55.53-.55H62.93c.46,0,.46,0,.46.46V73.92H67.7v1.47c0,.71,0,.71-.7.71H18.48c-.23,0-.32,0-.31-.3,0-.52,0-1,0-1.57,0-.24.08-.3.31-.3h4Zm33.34,0V21.22H30.05V73.91Zm5.41,0v-.36q0-28.68,0-57.37c0-.3-.09-.38-.38-.38H25c-.3,0-.37.1-.37.38q0,28.7,0,57.38v.37c1,0,2,0,3,0,.06,0,.15-.11.17-.19a1.36,1.36,0,0,0,0-.35V19.58c0-.63-.08-.55.57-.55h29c.69,0,.6-.09.6.59V73.45c0,.15,0,.31,0,.46Z"/><path d="M34.88,53.49a2.7,2.7,0,1,1,2.67-2.65A2.7,2.7,0,0,1,34.88,53.49Zm0-2.17a.55.55,0,0,0,.53-.52.55.55,0,0,0-.52-.53.53.53,0,1,0,0,1Z"/></svg>