<svg id="Layer_1" data-name="Layer 1" xmlns="http://www.w3.org/2000/svg" viewBox="0 0 85.04 85.04"><defs><style>.cls-1{fill:#1d1d1b;}</style></defs><path class="cls-1" d="M65.78,23.55a4,4,0,0,0-2.9-1.34c-.31-2.52-1.37-3.82-3.18-3.93a3.41,3.41,0,0,0-2.41.69,3.55,3.55,0,0,0-1.39,3.22H54c-.12-2.3-1.28-3.75-3.09-3.91a3.51,3.51,0,0,0-2.47.68A3.55,3.55,0,0,0,47,22.2h-2c-.15-2.38-1.34-3.82-3.19-3.92a3.45,3.45,0,0,0-2.44.74A3.53,3.53,0,0,0,38.1,22.2H36.16c-.21-2.44-1.38-3.84-3.24-3.93A3.52,3.52,0,0,0,29.2,22.2H27.26c-.26-2.55-1.43-3.9-3.38-3.92-2.14,0-3.29,1.21-3.62,3.93a4,4,0,0,0-3.91,3.95q0,19.33,0,38.67a3.91,3.91,0,0,0,3.9,3.89H62.88a3.91,3.91,0,0,0,3.91-3.89V26.11A3.72,3.72,0,0,0,65.78,23.55Zm-7.89-1.74a1.48,1.48,0,1,1,3,0c0,1,0,1.91,0,2.87a1.52,1.52,0,0,1-1.49,1.53,1.54,1.54,0,0,1-1.47-1.56c0-.48,0-1,0-1.44S57.88,22.27,57.89,21.81Zm-8.9,0a1.48,1.48,0,1,1,3,0c0,.49,0,1,0,1.48s0,.92,0,1.38a1.48,1.48,0,1,1-3,0C49,23.68,49,22.73,49,21.77Zm-8.9.06a1.51,1.51,0,0,1,1.49-1.57,1.52,1.52,0,0,1,1.47,1.55c0,.48,0,1,0,1.44s0,.89,0,1.33a1.48,1.48,0,1,1-3,0C40.07,23.68,40.07,22.76,40.09,21.83Zm-8.9,0a1.48,1.48,0,1,1,2.95,0c0,.49,0,1,0,1.48s0,.93,0,1.39a1.55,1.55,0,0,1-1.48,1.55,1.52,1.52,0,0,1-1.48-1.54C31.17,23.69,31.17,22.74,31.19,21.78Zm-8.91,0a1.48,1.48,0,1,1,3,0c0,.49,0,1,0,1.48s0,.93,0,1.39a1.48,1.48,0,1,1-3,0C22.27,23.69,22.26,22.74,22.28,21.78ZM64.81,33.66V64.42a2.07,2.07,0,0,1-2.35,2.33H20.67a2.07,2.07,0,0,1-2.35-2.33V33.14h2V63.46c0,1,.3,1.31,1.29,1.31h40c1,0,1.28-.31,1.28-1.31V33.14h2ZM22.32,62.76V33.15H60.83V62.76ZM64.8,31.11H18.39s-.05,0-.05-.06c0-1.65,0-3.3,0-4.95a1.91,1.91,0,0,1,2-1.86,3.5,3.5,0,0,0,1.24,3.12,3.44,3.44,0,0,0,2.42.81c1.9-.06,3.1-1.48,3.29-4H29.2a3.55,3.55,0,0,0,1.32,3.21,3.46,3.46,0,0,0,2.44.75c1.84-.11,3-1.54,3.19-4h2a3.57,3.57,0,0,0,1.35,3.24,3.46,3.46,0,0,0,2.46.71c1.83-.12,3-1.57,3.14-3.91h2a3.53,3.53,0,0,0,1.39,3.23,3.46,3.46,0,0,0,2.47.68c1.82-.16,3-1.6,3.09-3.93l.32,0H55.9a3.61,3.61,0,0,0,1.35,3.24,3.52,3.52,0,0,0,2.41.72c1.82-.1,2.9-1.4,3.21-3.92a1.88,1.88,0,0,1,1.92,1.8C64.85,27.72,64.8,29.4,64.8,31.11Z"/><path class="cls-1" d="M51.59,45.39H51a8.51,8.51,0,0,0-.67-1.62l.57-.57a1.3,1.3,0,0,0,0-1.9c-.64-.66-1.29-1.31-1.95-2a1.32,1.32,0,0,0-1.91,0l-.57.57a8.25,8.25,0,0,0-1.62-.67v-.8a1.3,1.3,0,0,0-1.34-1.35H40.78a1.3,1.3,0,0,0-1.35,1.35v.8a9.34,9.34,0,0,0-1.62.67l-.34-.33-.16-.16a1.34,1.34,0,0,0-2.06,0L33.47,41.2a1.34,1.34,0,0,0,0,2.08l.48.48-.67,1.63h-.8a1.31,1.31,0,0,0-1.35,1.35v2.73a1.33,1.33,0,0,0,1.35,1.36h.8L34,52.45l-.54.54a1.33,1.33,0,0,0,0,2l1.87,1.88a1.32,1.32,0,0,0,2,0l.55-.55h0c.26.13.52.26.79.37s.54.2.81.29h0a8.81,8.81,0,0,0,0,.89,1.58,1.58,0,0,0,.29.78,1.33,1.33,0,0,0,.43.35l.23.14H43.9l.23-.14a1.37,1.37,0,0,0,.43-.36,1.52,1.52,0,0,0,.29-.79c0-.29,0-.58,0-.85l1.62-.68.54.54a1.31,1.31,0,0,0,2,0l1.9-1.9a1.33,1.33,0,0,0,0-1.94l-.55-.55L51,50.82h.55a1.45,1.45,0,0,0,1.55-.93l0-3.39,0-.19A1.4,1.4,0,0,0,51.59,45.39ZM49.38,49.8A7.33,7.33,0,0,1,48.47,52a.93.93,0,0,0,.17,1.33l.6.6L48,55.2l-.48-.47c-.6-.61-.86-.64-1.61-.21a7.28,7.28,0,0,1-2.06.82.92.92,0,0,0-.79,1v.94H41.25v-1a.91.91,0,0,0-.73-.93,7.65,7.65,0,0,1-2.33-1,.9.9,0,0,0-1.21.15l-.65.66-1.27-1.27.62-.62a.92.92,0,0,0,.15-1.3,7.56,7.56,0,0,1-.92-2.23.91.91,0,0,0-1-.77H33v-1.8h.81c.7,0,1-.17,1.2-1a6.86,6.86,0,0,1,.84-2,.94.94,0,0,0-.17-1.35l-.6-.6L36.31,41l.58.59a1,1,0,0,0,1.38.18,7.3,7.3,0,0,1,2.19-.9.93.93,0,0,0,.79-1v-1H43v.91a.93.93,0,0,0,.82,1,7.34,7.34,0,0,1,2.17.9.94.94,0,0,0,1.36-.17L48,41l1.26,1.26-.58.58a1,1,0,0,0-.17,1.38,7.26,7.26,0,0,1,.89,2.18.93.93,0,0,0,1,.8h.93V49h-.94A.94.94,0,0,0,49.38,49.8Z"/><path class="cls-1" d="M47.24,47.21a4.79,4.79,0,0,0-.46-1.4.84.84,0,0,0-.72-.47.8.8,0,0,0-.72.4.86.86,0,0,0,0,.85,3.38,3.38,0,0,1,.26,2.27,3.49,3.49,0,0,1-4.09,2.71,3.48,3.48,0,0,1-2.79-4.2,3.5,3.5,0,0,1,4.12-2.72,3.58,3.58,0,0,1,1,.37.85.85,0,0,0,.76,0,.8.8,0,0,0,.46-.55.81.81,0,0,0-.44-.94,5.07,5.07,0,0,0-3.63-.5,5.14,5.14,0,0,0-4,5.87,5.17,5.17,0,0,0,5.08,4.34,6,6,0,0,0,.84-.07,5.19,5.19,0,0,0,4.37-5.09l0-.31C47.29,47.61,47.27,47.41,47.24,47.21Z"/></svg>