<svg id="Layer_1" data-name="Layer 1" xmlns="http://www.w3.org/2000/svg" viewBox="0 0 85.04 85.04"><path d="M72.42,68.72a1.45,1.45,0,0,1-1.36.59H20.93a8.46,8.46,0,0,1-8.7-8.72q0-17.79,0-35.56a8.48,8.48,0,0,1,8.15-8.39c.91,0,1.24.31,1.25,1.22v6.31H71.07a1.42,1.42,0,0,1,1.35.59ZM21.64,26.06V41.62a2.33,2.33,0,0,1,0,.53.93.93,0,0,1-1.85,0,2.81,2.81,0,0,1,0-.58v-23c-.24,0-.41.06-.58.1A6.55,6.55,0,0,0,14.12,25q0,15,0,30a3.6,3.6,0,0,0,.07.42,8.6,8.6,0,0,1,5.55-3c0-.17,0-.28,0-.4,0-2,0-4,0-6.05,0-.68.32-1.08.87-1.12s1,.39,1,1.1c0,2.33,0,4.67,0,7,0,1-.26,1.27-1.28,1.31A6.59,6.59,0,0,0,21,67.42q24.48,0,49,0h.59V26.06Z"/><path d="M38.52,52.37c-.88,0-1.72,0-2.56,0s-1.16-.35-1.15-.95.42-.92,1.12-.93H43.1c.69,0,1.11.37,1.11.95s-.42.93-1.12.93c-.85,0-1.71,0-2.61,0v9.38H57.33V54.29H49.85v4.17a3.85,3.85,0,0,1,0,.59.91.91,0,0,1-1,.84.84.84,0,0,1-.89-.84q0-2.91,0-5.82c0-.56.43-.85,1.12-.85h8.24V44.85h-25a3.84,3.84,0,0,1-.59,0,.94.94,0,0,1,0-1.85,3.11,3.11,0,0,1,.53,0H44.21V42c0-1.2,0-2.39,0-3.59,0-.65.37-1.05.93-1.05a.94.94,0,0,1,1,1V43H58c1,0,1.29.29,1.29,1.29V62.37c0,1-.3,1.29-1.29,1.29H35.16c-.11,0-.23,0-.35,0a.93.93,0,0,1-.94-.93.91.91,0,0,1,1-.94c1.22,0,2.43,0,3.68,0Z"/><path d="M44.21,31.7H27.31V61.78h3.47c.78,0,1.22.36,1.2,1s-.44.91-1.2.91H26.55c-.81,0-1.15-.34-1.15-1.13V30.9c0-.76.35-1.1,1.12-1.1H45c.77,0,1.11.35,1.12,1.11v3.47a.95.95,0,1,1-1.88,0C44.2,33.52,44.21,32.64,44.21,31.7Z"/><path d="M64.86,31.68H62.24c-.69,0-1.11-.37-1.1-.95s.42-.93,1.12-.93c1.14,0,2.27,0,3.41,0,.76,0,1.11.35,1.11,1.12V62.54c0,.77-.35,1.11-1.11,1.12-1.13,0-2.27,0-3.41,0-.7,0-1.11-.35-1.12-.93s.41-.94,1.15-.95h2.57Z"/></svg>