<svg id="Layer_1" data-name="Layer 1" xmlns="http://www.w3.org/2000/svg" viewBox="0 0 85.04 85.04"><path d="M11.47,30.28a1.09,1.09,0,0,0,.13-.17A3,3,0,0,1,14.51,28c.3,0,.6,0,.9,0H67a3.07,3.07,0,0,1,3.37,2.57c.07.39.15.78.23,1.17q1.05,5.34,2.08,10.66a4.41,4.41,0,0,1,.09.89c0,3.69,0,7.38,0,11.08a3.32,3.32,0,0,1-3.56,3.54h-2A18.94,18.94,0,0,1,66,60.41a5.85,5.85,0,0,1-10.45-1.83c-.15-.53-.36-.65-.89-.65-6.25,0-12.49,0-18.74,0a2.83,2.83,0,0,1-.71,0A.85.85,0,0,1,34.5,57a.83.83,0,0,1,.81-.82c.23,0,.47,0,.71,0q9.31,0,18.62,0a.75.75,0,0,0,.88-.68,5.87,5.87,0,0,1,11.33,0c.14.54.35.71.88.66s1.16,0,1.73,0A1.5,1.5,0,0,0,71,54.56c0-2,0-3.91,0-5.93-1.17-.09-2.31-.16-3.45-.27a31.51,31.51,0,0,1-8.9-1.9c-.48-.2-.94-.44-1.4-.67a3.42,3.42,0,0,1-1.93-3.36c0-2.92,0-5.83,0-8.74,0-1.36.62-2,2-2H68.71c-.08-.38-.13-.7-.22-1a1,1,0,0,0-1-.79H15c-1.45,0-1.73.3-1.73,1.77v22.8c0,1.28.36,1.65,1.62,1.65h2.3l.22-.76a5.91,5.91,0,0,1,5.73-4.23,5.83,5.83,0,0,1,5.58,4.32c.14.56.39.74.94.68a10.6,10.6,0,0,1,1.49,0,.88.88,0,0,1,1,.91.94.94,0,0,1-1,.9q-.87,0-1.74,0c-.32,0-.47.06-.57.42a5.79,5.79,0,0,1-5.64,4.56,5.85,5.85,0,0,1-5.8-4.38l-.16-.6c-.66,0-1.3,0-1.93,0a3.35,3.35,0,0,1-3.8-2.28ZM70.86,46.76a37,37,0,0,0,0-4.22c-.21-1.73-.66-3.43-1-5.15l-.75-3.83H57.18c0,3.17,0,6.3,0,9.43a1.39,1.39,0,0,0,.63,1,13.87,13.87,0,0,0,2.47,1.15A39.46,39.46,0,0,0,70.86,46.76ZM23.09,61.08A4.08,4.08,0,0,0,27.16,57a4.17,4.17,0,0,0-4.08-4.09A4.12,4.12,0,0,0,19,57.06,4,4,0,0,0,23.09,61.08Zm38.07,0a4,4,0,0,0,4.09-4,4.12,4.12,0,0,0-4.09-4.13A4.16,4.16,0,0,0,57.09,57,4.08,4.08,0,0,0,61.16,61.08Z"/><path d="M24.4,44.7H17.34c-1.4,0-1.91-.52-1.91-1.91V33.57c0-1.33.52-1.86,1.83-1.86h14.3c1.3,0,1.82.52,1.82,1.81v9.34c0,1.31-.53,1.83-1.86,1.84ZM17.31,33.53v9.3h6.12v-9.3Zm8.07,0v9.29h6.15V33.55Z"/><path d="M44.14,31.71c2.39,0,4.79,0,7.18,0,1.23,0,1.79.55,1.79,1.78q0,4.69,0,9.4c0,1.23-.55,1.8-1.77,1.81H36.92c-1.22,0-1.74-.55-1.74-1.76V33.42c0-1.18.53-1.71,1.72-1.71C39.31,31.7,41.72,31.71,44.14,31.71ZM45,42.83h6.18V33.55h-6.1a.62.62,0,0,0-.06.14c0,.46,0,.92,0,1.38,0,.75-.36,1.15-.94,1.13s-.88-.44-.89-1.14c0-.5,0-1,0-1.51H37v9.28h6.2v-.74c0-.86,0-1.72,0-2.58a.91.91,0,1,1,1.81,0c0,.24,0,.48,0,.72Z"/><path d="M57,50a8.62,8.62,0,0,1-.91-.07.85.85,0,0,1-.78-.91.8.8,0,0,1,.77-.84,16,16,0,0,1,1.83,0,.8.8,0,0,1,.77.84A.83.83,0,0,1,58,50C57.64,50,57.32,50,57,50Z"/></svg>