<svg id="Layer_1" data-name="Layer 1" xmlns="http://www.w3.org/2000/svg" viewBox="0 0 85.04 85.04"><path d="M50.12,16.51a2.57,2.57,0,0,1,2,1.9c.13.72.48.73,1,.73,2.23,0,4.46,0,6.68.07a4.26,4.26,0,0,1,3.81,3.89c0,.26,0,.52,0,.77q0,20.31,0,40.6a4.46,4.46,0,0,1-2.19,4.14,4,4,0,0,1-2.15.59H27.56a4.34,4.34,0,0,1-4.31-4.07c0-.23,0-.47,0-.71q0-20.25,0-40.49a4.54,4.54,0,0,1,2.2-4.19,4.62,4.62,0,0,1,2.52-.61h6.12c.39,0,.58-.05.66-.52a2.49,2.49,0,0,1,1.7-2l.33-.14ZM28.53,24.43V63.89H58.32V24.47l-.17,0q-3.81,0-7.62,0a.72.72,0,0,0-.47.22,1.83,1.83,0,0,1-1.45.65c-3.45,0-6.9,0-10.35,0a2.3,2.3,0,0,1-1.29-.5,1.18,1.18,0,0,0-.94-.36c-.26,0-.51,0-.77,0Zm7.75-1.78A14.52,14.52,0,0,1,35,21.31a.73.73,0,0,0-.67-.39c-2.2,0-4.4,0-6.59,0A2.59,2.59,0,0,0,25,23.67v41a2.62,2.62,0,0,0,2.73,2.77q15.69,0,31.39,0a2.62,2.62,0,0,0,2.74-2.76v-41a2.6,2.6,0,0,0-2.73-2.75c-2,0-3.92,0-5.87,0-.7,0-1.3,0-1.67.77-.18.38-.68.6-1.12,1h.64c2.3,0,4.6,0,6.9,0a1.92,1.92,0,0,1,2.12,2.1q0,19.44,0,38.89A1.81,1.81,0,0,1,58,65.7H28.82c-1.43,0-2.08-.64-2.08-2.06V24.69c0-1.39.65-2,2.05-2h7.49Zm12.4.85V22.15c0-.91.14-1.09,1-1.28a.83.83,0,0,0,.72-.86c0-.26,0-.52,0-.77a.87.87,0,0,0-1-1H37.4a.9.9,0,0,0-1,1v.57c0,.68.2.91.86,1.05s.89.4.89,1.1c0,.5,0,1,0,1.51Z"/><path d="M38.74,43.77l-6.05-6c-.94-.93-.93-1.61,0-2.54L34.83,33c1-1,1.65-1,2.62,0l6,6,.41-.39,5.67-5.67a1.47,1.47,0,0,1,2.4,0q1.22,1.19,2.4,2.4a1.42,1.42,0,0,1,0,2.28l-5.72,5.71a5.12,5.12,0,0,1-.47.39l3.23,3.21,2.91,2.91a1.47,1.47,0,0,1,0,2.4l-2.33,2.33a1.47,1.47,0,0,1-2.39,0l-6.08-6.07-.41.39-5.68,5.67a1.46,1.46,0,0,1-2.39,0c-.8-.8-1.61-1.6-2.4-2.4a1.44,1.44,0,0,1,0-2.29l5.71-5.71C38.41,44,38.56,43.92,38.74,43.77Zm-4.43-7.39.34.36,5.89,5.89a1.34,1.34,0,0,1,.09,2.11q-3,3-5.93,5.92a1.69,1.69,0,0,1-.42.24c.84.84,1.07,1.11,1.89,1.94a2.15,2.15,0,0,1,.28-.44l5.88-5.89a1.45,1.45,0,0,1,2.23,0l5.89,5.89a2.45,2.45,0,0,1,.29.42c.81-.81,1-1,1.76-1.71l-.34-.36-5.92-5.93a1.37,1.37,0,0,1,.07-2.09q3-3,6-6a1.66,1.66,0,0,1,.43-.23c-.85-.85-1.19-1.18-1.91-1.91l-.37.35q-3,3-5.93,5.92a1.41,1.41,0,0,1-2.11.13l-5.92-5.92a2.5,2.5,0,0,1-.29-.43C35.37,35.43,35.05,35.64,34.31,36.38Z"/></svg>