<svg id="Layer_1" data-name="Layer 1" xmlns="http://www.w3.org/2000/svg" viewBox="0 0 85.04 85.04"><path d="M71.32,30.6a1.33,1.33,0,0,1-1.32.65c-4.13,0-8.27,0-12.4,0h-.77v11.5a2.77,2.77,0,0,1,0,.5.91.91,0,0,1-.81.81.85.85,0,0,1-1-.6,2.46,2.46,0,0,1-.09-.77q0-12.72,0-25.43a3.46,3.46,0,0,1,0-.56.94.94,0,0,1,1-.8.92.92,0,0,1,.88.92.43.43,0,0,1,0,.16,2.54,2.54,0,0,0,1.31,2.71c4.23,3.17,8.4,6.44,12.58,9.67a6.5,6.5,0,0,1,.6.57Zm-3.7-1.27L56.87,21.05v8.28Z"/><path d="M31.09,45a4.61,4.61,0,0,0,.23-2.63A.91.91,0,0,0,31,42a10.77,10.77,0,0,1-3.91-6.23,1,1,0,0,0-.45-.62A5,5,0,0,1,25,27.78a.74.74,0,0,0,.14-.55,9.29,9.29,0,0,1,5.41-10.92,19.39,19.39,0,0,1,9-1.64,10,10,0,0,1,2.31.38,3.6,3.6,0,0,1,2.51,2.21,4.84,4.84,0,0,0,1.9,2.28,9.54,9.54,0,0,1,2.16,2,4.28,4.28,0,0,1,.52,4.06c-.12.44-.32.87-.44,1.32a.65.65,0,0,0,.09.52,4.16,4.16,0,0,1,1,4.31A5.12,5.12,0,0,1,47.1,35.2a.65.65,0,0,0-.27.39,12.28,12.28,0,0,1-4.09,6.48,1.58,1.58,0,0,0-.34,1.17c.07.82.29,1.64.47,2.61.72-.64,1.28-1.19,1.9-1.66a2,2,0,0,1,1.1-.42c5.56,0,9.83,2.37,12.58,7.25a19,19,0,0,1,1.86,6.37,78.88,78.88,0,0,1,.85,12.19c0,1-.28,1.24-1.24,1.24H15.06c-1,0-1.23-.27-1.24-1.23a75.57,75.57,0,0,1,.81-12,21.33,21.33,0,0,1,1.59-5.93,13.33,13.33,0,0,1,9.42-7.52,27.27,27.27,0,0,1,3.16-.38,1.78,1.78,0,0,1,1.64.65C30.62,44.6,30.84,44.77,31.09,45ZM24.49,68.9H51.23V59.6a2.9,2.9,0,0,1,0-.51.91.91,0,0,1,.85-.83.87.87,0,0,1,.95.63,2.44,2.44,0,0,1,.08.66V68.9h6.15c0-.26,0-.49,0-.71-.05-1.44-.1-2.88-.18-4.31A50.45,50.45,0,0,0,58,55.22,11.7,11.7,0,0,0,49.35,46a.68.68,0,0,0-.93.37c-1.71,2.9-3.45,5.77-5.17,8.67a1.72,1.72,0,0,0-.22.83c0,3.43,0,6.85,0,10.28,0,1-.28,1.28-1.31,1.29H32.84c-1.11,0-1.37-.27-1.37-1.41,0-3.37,0-6.73,0-10.1a2.06,2.06,0,0,0-.28-1c-1.68-2.84-3.39-5.67-5.09-8.51-.09-.16-.2-.31-.31-.48-4.32,1.32-7.31,3.93-8.53,8.36a54.43,54.43,0,0,0-1.52,12.26c0,.76,0,1.52,0,2.31H22.6V59.68c0-1,.33-1.44,1-1.43s.93.47.93,1.39V68.9ZM42.4,22.71c-.37.32-.63.57-.91.78a5,5,0,0,1-2.8.83c-2.69.08-5.38.14-8.06.35a3.26,3.26,0,0,0-3.19,2.9,1.72,1.72,0,0,1-.46.86,3.08,3.08,0,0,0,.91,5.16,1.4,1.4,0,0,1,1,1.28,8.49,8.49,0,0,0,1.36,3.52c2.71,4.06,8.52,5.5,12.52,1.08a11.39,11.39,0,0,0,2.43-5,1.27,1.27,0,0,1,.59-.8,3.17,3.17,0,0,0,2.08-2.87,1.86,1.86,0,0,0-1.22-2.34c-.24-.08-.41-.41-.57-.65-.62-1-1.17-2-1.84-3A26,26,0,0,0,42.4,22.71ZM47,25.45c.62-1.77.32-2.8-1.11-3.89-.34-.26-.73-.47-1-.76a16.91,16.91,0,0,1-1.61-1.67c-.31-.39-.45-.91-.72-1.33a1.94,1.94,0,0,0-.72-.73A5.86,5.86,0,0,0,40,16.58a19,19,0,0,0-6.87.77,8.73,8.73,0,0,0-5.74,4.57,5.86,5.86,0,0,0-.61,2.66,7.1,7.1,0,0,1,4.93-2q3.59-.12,7.17-.2A2.62,2.62,0,0,0,41,21.29c.57-.78,1.13-.93,1.9-.34a16.53,16.53,0,0,1,2.22,2C45.82,23.74,46.36,24.6,47,25.45ZM27.88,45.7a1,1,0,0,0,.07.19c1.6,2.67,3.2,5.35,4.83,8a1,1,0,0,0,.68.32c2.52,0,5,0,7.57,0a.82.82,0,0,0,.8-.46c1.51-2.56,3.05-5.1,4.57-7.65.09-.14.15-.28.23-.43l-.1-.15a3.3,3.3,0,0,0-.9.38c-2.51,2.22-5,4.45-7.5,6.68-.67.6-1.05.6-1.69,0-2.25-2.11-4.52-4.2-6.74-6.35A1.77,1.77,0,0,0,27.88,45.7ZM41.09,65.56V56.15H33.4v9.41ZM33.41,43.34c-.22.92-.41,1.81-.66,2.68a.59.59,0,0,0,.17.72c1.32,1.22,2.62,2.46,3.93,3.69l.45.4c1.35-1.21,2.67-2.37,4-3.55a.49.49,0,0,0,.14-.42c-.34-1.13-.71-2.25-1.08-3.42A9.31,9.31,0,0,1,33.41,43.34Z"/><path d="M37.26,64.53c-.56,0-1.12,0-1.68,0a.92.92,0,0,1-1-.88.89.89,0,0,1,.83-1c1.19,0,2.39,0,3.58,0a.89.89,0,0,1,.84,1,.93.93,0,0,1-1,.85H37.26Z"/><path d="M37.23,61.81H35.67a1,1,0,0,1-1.06-.94,1,1,0,0,1,1.09-.95c1,0,2.09,0,3.13,0a.94.94,0,0,1,1,.93,1,1,0,0,1-1,1C38.32,61.83,37.77,61.81,37.23,61.81Z"/><path d="M37.2,59.05c-.54,0-1.08,0-1.62,0a.93.93,0,0,1-1-.9.92.92,0,0,1,1-.95c1.12,0,2.25,0,3.37,0a.89.89,0,0,1,.92.92.92.92,0,0,1-.93.93H37.2Z"/></svg>