<svg id="Layer_1" data-name="Layer 1" xmlns="http://www.w3.org/2000/svg" viewBox="0 0 85.04 85.04"><path d="M51.28,47a1.3,1.3,0,0,0-1.24,0,1.58,1.58,0,0,0-.66,1.15c0,2.11,0,4.24,0,6.31v2.26l0,0-1.61-2-3.08-3.9a4.34,4.34,0,0,0-3.34-1.75h0a4.46,4.46,0,0,0-3.4,1.7l-2,2.41L35,54c-1.14,1.35-2.29,2.7-3.42,4.05-.28.34-.4.39-.73.11-1.07-.87-2.16-1.74-3.22-2.57l-.3-.25-1.49-1.17a4.14,4.14,0,0,0-6,.36c-.76.76-1.51,1.49-2.31,2.26l-.33.31-.56.55V41.2c0-1.61.69-2.3,2.3-2.31H31.8c.89,0,1.43-.45,1.45-1.22a1.2,1.2,0,0,0-.32-.9,1.54,1.54,0,0,0-1.15-.39h-2c-3.73,0-7.47,0-11.21,0a4.31,4.31,0,0,0-4.34,4.37q0,13.45,0,26.9A4.32,4.32,0,0,0,18.55,72h29a4.26,4.26,0,0,0,4.28-4.1c0-6,0-12.51,0-19.85A1.45,1.45,0,0,0,51.28,47Zm-27,9.19,5,3.93c1.59,1.26,3,1.12,4.3-.41q3.16-3.77,6.34-7.5a1.81,1.81,0,0,1,1.36-.71h0a1.74,1.74,0,0,1,1.32.73c2.19,2.75,4.39,5.55,6.55,8.32a1.1,1.1,0,0,1,.21.62c0,2.2,0,4.4,0,6.27a1.92,1.92,0,0,1-2.11,2.09H19.05c-1.69,0-2.35-.66-2.35-2.38V65.76c0-1.27,0-2.59,0-3.89a1.41,1.41,0,0,1,.36-.84c1.34-1.41,2.79-2.87,4-4.05l.69-.7A1.87,1.87,0,0,1,23,55.6,2.07,2.07,0,0,1,24.28,56.14Z"/><path d="M68.07,13.62H39.36a4.29,4.29,0,0,0-4.49,4.49v22.5a4.3,4.3,0,0,0,4.49,4.49h28.7a4.3,4.3,0,0,0,4.5-4.49V18.11A4.3,4.3,0,0,0,68.07,13.62Zm2,4.8V40.33c0,1.54-.71,2.25-2.22,2.25H39.64c-1.54,0-2.25-.71-2.25-2.23v-22c0-1.56.71-2.25,2.28-2.25H67.72C69.35,16.14,70,16.82,70,18.42Z"/><path d="M22.62,40.91a3.91,3.91,0,0,0-3.9,3.87,3.84,3.84,0,0,0,1.14,2.74,3.88,3.88,0,0,0,2.73,1.18h0a4,4,0,0,0,3.89-3.88,3.94,3.94,0,0,0-3.88-3.91Zm0,2.57a1.3,1.3,0,0,1,1.31,1.31,1.28,1.28,0,0,1-.36,1,1.31,1.31,0,0,1-.95.37,1.32,1.32,0,0,1,0-2.63Z"/><path d="M61,27.32c-3.82-2.21-7.59-4.37-11.2-6.4a2.32,2.32,0,0,0-2.38-.06A2.41,2.41,0,0,0,46.25,23V35.8a2.38,2.38,0,0,0,1.15,2.06,2.18,2.18,0,0,0,1.11.3,2.29,2.29,0,0,0,1.16-.31c3.91-2.2,7.71-4.37,11.31-6.46a2.29,2.29,0,0,0,0-4.07Zm-1.55,2-10.6,6.06V23.3Z"/></svg>