<svg id="Layer_1" data-name="Layer 1" xmlns="http://www.w3.org/2000/svg" viewBox="0 0 85.04 85.04"><path d="M29.87,27.88H23.61A5.48,5.48,0,0,0,18.15,32a5.08,5.08,0,0,0-.16,1.2c0,10.32,0,19.45,0,27.92a5.41,5.41,0,0,0,5.33,5.35H61.68a5.46,5.46,0,0,0,5.26-4.35,2.33,2.33,0,0,1,.07-.25l0-.1V32.57c-.05-.15-.09-.3-.13-.45a7.76,7.76,0,0,0-.33-1,5.39,5.39,0,0,0-5.17-3.27c-1.44,0-2.9,0-4.31,0H54.5V26.29c0-.36,0-.72,0-1.08,0-.85,0-1.72-.08-2.57A3.49,3.49,0,0,0,51,19.59c-6.19,0-11.73,0-16.94,0a3.61,3.61,0,0,0-3.51,3.71c0,1,0,2,0,3.06,0,.46,0,.92,0,1.4v.12Zm3.54-4.6a.77.77,0,0,1,.81-.85H50.45c1,0,1.16.21,1.16,1.15v4.28H33.41V23.28Zm4,7.49h9.48c4.81,0,9.63,0,14.44,0h0a2.66,2.66,0,0,1,2.42,1.14,2.87,2.87,0,0,1,.47,1.76V60.84a2.64,2.64,0,0,1-2.83,2.83H23.64a2.62,2.62,0,0,1-2.82-2.83V53.06c0-6.36,0-12.94,0-19.42a3,3,0,0,1,.82-2.11,2.82,2.82,0,0,1,2-.78h0C28.25,30.77,32.9,30.77,37.39,30.77Z"/><path d="M52,52.27a1.4,1.4,0,0,0,1.54-1.55V43.79c0-1.14-.54-1.67-1.69-1.67H47.58V40.33c0-.9,0-1.81,0-2.71a1.41,1.41,0,0,0-1.45-1.47H38.87a1.4,1.4,0,0,0-1.43,1.44v4.53h-4.5a1.4,1.4,0,0,0-1.47,1.48v7.17a1.38,1.38,0,0,0,1.46,1.48h4.51v4.42a1.41,1.41,0,0,0,1.5,1.56h7.17a1.39,1.39,0,0,0,1.47-1.53c0-.88,0-1.77,0-2.66V52.27H52Zm-5.77-2.84a1.39,1.39,0,0,0-1.5,1.5c0,.88,0,1.77,0,2.66v1.78H40.28V51a1.41,1.41,0,0,0-1.53-1.52H34.32V45h.28c.32,0,.66,0,1,0h3c1.15,0,1.67-.53,1.67-1.68V39h4.46v2.86c0,.52,0,1,0,1.56A1.39,1.39,0,0,0,46.31,45c.86,0,1.74,0,2.59,0h1.83v4.44H46.25Z"/></svg>