<svg id="Layer_1" data-name="Layer 1" xmlns="http://www.w3.org/2000/svg" viewBox="0 0 85.04 85.04"><path d="M26.87,44.09A15.3,15.3,0,1,1,42.1,59.38,15.28,15.28,0,0,1,26.87,44.09Zm1.92,0A13.38,13.38,0,1,0,42.15,30.71,13.45,13.45,0,0,0,28.79,44.09Z"/><path d="M60.19,20.2c.71-1.42,1.35-2.74,2-4a1.68,1.68,0,0,1,.67-.7c.47-.23.9,0,1.25.62q1.91,3.24,3.79,6.49c.88,1.51,1.77,3,2.64,4.53.57,1,.16,1.68-1,1.68H50.1c-1.15,0-1.54-.66-1-1.67q3.21-6,6.43-12a1.08,1.08,0,0,1,1-.67,1.07,1.07,0,0,1,1,.67C58.34,16.8,59.24,18.44,60.19,20.2Zm-8.74,6.65h10.1c-.41-.78-.83-1.48-1.17-2.21a1.88,1.88,0,0,0-1.07-.92,3.07,3.07,0,0,0-3.28.16c-.5.34-1,.15-1.33-.36-.27-.36-.51-.74-.82-1.19ZM61.85,23l-.09.12c.64,1.19,1.27,2.37,1.92,3.55a.43.43,0,0,0,.31.2c1.37,0,2.73,0,4.21,0l-2.46-4.21a5.24,5.24,0,0,1-.4.57c-1,1-1,1-2.31.35ZM56.5,17.46c-.53,1-1,1.87-1.47,2.76a.36.36,0,0,0,0,.32c.26.42.54.82.86,1.3a2.64,2.64,0,0,1,2.67-.53ZM64,21.87a7.29,7.29,0,0,0,.56-.65.43.43,0,0,0,.08-.35c-.45-.8-.92-1.6-1.43-2.46L62,21Z"/><path d="M30.7,64.82v4.83c0,.89-.48,1.28-1.34,1.08a9.26,9.26,0,0,0-6.63.89,1.22,1.22,0,0,1-1.25,0,9.21,9.21,0,0,0-6.69-.89c-.82.19-1.29-.22-1.29-1.07q0-4.83,0-9.67c0-.85.22-1.13,1.06-1.31a11.05,11.05,0,0,1,7.1.74.92.92,0,0,0,.88,0,10.93,10.93,0,0,1,7-.77c1,.21,1.2.43,1.2,1.43ZM15.44,68.63a11.82,11.82,0,0,1,5.68.67v-8a9,9,0,0,0-5.68-.81Zm13.3,0V60.5a9.08,9.08,0,0,0-5.66.82v8A11.66,11.66,0,0,1,28.74,68.62Z"/><path d="M58.78,71.79c-1.89,0-3.23-1-3.2-2.59A11.49,11.49,0,0,1,56,65.68a12.76,12.76,0,0,1,10.54-9.12,7.08,7.08,0,0,1,1.84,0,2.78,2.78,0,0,1,2.44,2.67,11.39,11.39,0,0,1-2.63,7.61,12.58,12.58,0,0,1-8.36,4.93,1.35,1.35,0,0,1-.29,0Zm9.46-8.9a3,3,0,0,0-.3-.37c-1-1-2.06-2.05-3.07-3.09a.61.61,0,0,0-.83-.16A11.43,11.43,0,0,0,58.31,65a.63.63,0,0,0,.14.83c1,1,2,2,3,3a.66.66,0,0,0,.88.17,11.37,11.37,0,0,0,5.69-5.7C68.12,63.22,68.16,63.09,68.24,62.89Zm.57-2.39c.1-.6.34-1.26-.18-1.78s-1.18-.27-1.74-.18Zm-9.14,9.23-1-1-1-1C57.16,69.58,57.75,70.17,59.67,69.73Z"/><path d="M21.83,21.15h4.11A2.83,2.83,0,0,1,28.78,24,2.79,2.79,0,0,1,26,26.87a2.1,2.1,0,0,0-1.61.64,4.42,4.42,0,0,1-5.07.89,4.55,4.55,0,0,1-2.9-4.27c0-.62,0-1.23,0-1.85,0-.8.33-1.13,1.11-1.13ZM24,23.09H18.32c-.25,2.15.89,3.71,2.74,3.79S24.1,25.43,24,23.09Zm1.93,1.84c.59-.1,1-.45.94-.92a.94.94,0,0,0-.94-.93Z"/><rect x="41.25" y="14.5" width="1.83" height="12.37" rx="0.92"/><rect x="13.54" y="42.22" width="11.39" height="1.84" rx="0.92"/><rect x="59.4" y="42.21" width="11.41" height="1.84" rx="0.92"/><rect x="41.25" y="61.32" width="1.84" height="10.44" rx="0.92"/><rect x="16.41" y="29.79" width="9.46" height="1.86" rx="0.92"/><path d="M22.59,20.19a2.51,2.51,0,0,1,1-1.91l-.47-.51a2.18,2.18,0,0,1,.41-3.2,1.43,1.43,0,0,1,.73-.11c.38,0,.76,0,1.18,0,.09.83-.44,1.33-.95,1.9.16.18.31.34.46.52a2.17,2.17,0,0,1-.4,3.2,1.48,1.48,0,0,1-.74.11Z"/><path d="M18.77,20.19a2.47,2.47,0,0,1,1-1.9c-.15-.18-.31-.35-.46-.52a2.17,2.17,0,0,1,.4-3.2,1.36,1.36,0,0,1,.68-.11c.41,0,.83,0,1.25,0a2.43,2.43,0,0,1-1,1.89c.16.19.32.35.47.53a2.18,2.18,0,0,1-.4,3.2,1.48,1.48,0,0,1-.74.11Z"/><path d="M38.7,43a5.76,5.76,0,1,1,6.95,0c.42.29.86.55,1.25.87a7.44,7.44,0,0,1,2.91,5.89c0,1,0,1.91,0,2.87a.93.93,0,0,1-1.07,1H35.6c-.62,0-1.07-.29-1.06-.8a30.59,30.59,0,0,1,.19-4.7,7.07,7.07,0,0,1,3.57-4.91Zm.67,1.9C37.1,46.1,36,48.66,36.49,51.7H47.85c.37-3.21-.67-5.68-2.88-6.83a2.92,2.92,0,0,1-5.6,0Zm2.86-7.47a7.1,7.1,0,0,0-3.46,1,.6.6,0,0,0-.32.72,3.78,3.78,0,0,0,7.44,0,.58.58,0,0,0-.31-.68A7,7,0,0,0,42.23,37.4ZM45.06,36a3.62,3.62,0,0,0-5.71,0A8.73,8.73,0,0,1,45.06,36Zm-3.81,8.2c.16.63.51.88,1,.85a.84.84,0,0,0,.82-.85Z"/><path d="M65.88,62.87l.56.59L65,64.74l-.53-.46-1.16,1.2.49.59-1.34,1.31-.59-.51-.56.49L60,66l.5-.56L60,64.85l1.39-1.27.54.46,1.16-1.2-.5-.59,1.34-1.32.6.52.57-.5L66.4,62.3Z"/></svg>