<svg id="Layer_1" data-name="Layer 1" xmlns="http://www.w3.org/2000/svg" viewBox="0 0 85.04 85.04"><path d="M72.66,57.37l-.08-1c-.24-3-.49-6.16-.87-9.23A57.5,57.5,0,0,0,68.48,33.9a29.8,29.8,0,0,0-6.63-11,3.63,3.63,0,0,0-2.68-1.12h-.05c-1.7,0-3.22,0-4.76,0A3.18,3.18,0,0,0,51.68,23c-.38.48-.74,1-1.09,1.48s-.58.82-.89,1.22a.84.84,0,0,1-.57.34c-4.43,0-8.91,0-13.29,0a.83.83,0,0,1-.53-.35c-.29-.44-.57-.91-.84-1.37s-.38-.65-.59-1A3.19,3.19,0,0,0,31,21.81H25.35a3.47,3.47,0,0,0-2.21.76A18.64,18.64,0,0,0,18.62,28C15.89,32.65,14.18,38,13.24,44.88c-.38,2.76-.59,5.58-.79,8.32,0,.59-.09,1.18-.13,1.76a19.78,19.78,0,0,0,0,3.71A6.6,6.6,0,0,0,15,62.88a6.33,6.33,0,0,0,4.53,1.3,5.83,5.83,0,0,0,4-1.93c1.36-1.59,2.81-3.15,4.21-4.67.84-.9,1.71-1.84,2.56-2.78a3.56,3.56,0,0,1,2.83-1.26h0c5.79,0,11.79,0,18.33,0h0a3.53,3.53,0,0,1,2.79,1.23c2.21,2.44,4.55,5,7,7.56a5.8,5.8,0,0,0,4.25,1.91A5.92,5.92,0,0,0,69,63.05c.39-.28.78-.59,1.15-.89l.38-.31A5,5,0,0,0,72.66,57.37Zm-2.41-.3a3,3,0,0,1-1.31,3c-.23.16-.46.35-.68.53a4.15,4.15,0,0,1-2.16,1.15,3.24,3.24,0,0,1-3-1q-1.47-1.62-3-3.22c-1.31-1.42-2.67-2.89-4-4.35a6.08,6.08,0,0,0-4.75-2.1h0c-6.15,0-12.22,0-18.06,0h0a6,6,0,0,0-4.75,2.08c-1,1.08-2,2.17-2.95,3.22-1.24,1.35-2.51,2.73-3.74,4.12A3.71,3.71,0,0,1,18,61.68a4.5,4.5,0,0,1-3.3-4.28,92.59,92.59,0,0,1,1.86-16.94,36.2,36.2,0,0,1,4.74-12.25,11.64,11.64,0,0,1,3.29-3.52,2.56,2.56,0,0,1,1.28-.42l1.55,0h.87c.77,0,1.56,0,2.35,0a1.4,1.4,0,0,1,1.49.86c.14.27.31.54.48.8a5.14,5.14,0,0,1,.6,1.1,8,8,0,0,1,.56,2.54A3.29,3.29,0,0,0,37.27,33H48a3.2,3.2,0,0,0,2.3-1,3.14,3.14,0,0,0,.86-2.25A6.76,6.76,0,0,1,52.4,26a3.21,3.21,0,0,1,3.54-1.79,10.85,10.85,0,0,0,1.8,0c.45,0,.91,0,1.36,0a1.8,1.8,0,0,1,1.08.45,25.88,25.88,0,0,1,5.68,9.19,57.24,57.24,0,0,1,3.48,13.95c.25,2,.44,4.1.62,6.11C70.05,55,70.15,56,70.25,57.07ZM48.58,30.32c-.24.26-.76.3-1.76.3H37.57c-1.21,0-1.34-.12-1.37-1.34a5.23,5.23,0,0,1,0-.56v-.2H48.76s0,0,0,0C48.83,29.54,48.82,30.06,48.58,30.32Z"/><path d="M29.81,35.62c-.36-2.93-1.39-4.19-3.43-4.21h0a4.13,4.13,0,0,0-2.16.69,3.69,3.69,0,0,0-1.47,3.51c-2.69.2-4.09,1.24-4.28,3.16A3.55,3.55,0,0,0,19,41.15a4.11,4.11,0,0,0,3.68,1.59c.23,2.78,1.4,4.2,3.49,4.24h.06a3.44,3.44,0,0,0,2.24-.83,4,4,0,0,0,1.27-3.41c2.9-.35,4.1-1.29,4.26-3.33a3.37,3.37,0,0,0-.61-2.24A4,4,0,0,0,29.81,35.62Zm-2.49,6.2c0,.19,0,.39,0,.58,0,.36,0,.73,0,1.09a1,1,0,0,1-1,1h0a1,1,0,0,1-1-1c0-.38,0-.77,0-1.14s0-.49,0-.73c0-1-.46-1.45-1.48-1.47H22a1,1,0,1,1,0-2.09c.36,0,.72,0,1.07,0h.47c1.32,0,1.7-.39,1.71-1.73,0-.16,0-.31,0-.47,0-.31,0-.62,0-.93,0-.76.44-1.22,1.06-1.22h0c.62,0,1,.48,1,1.22,0,.27,0,.53,0,.8s0,.59,0,.88a1.29,1.29,0,0,0,1.44,1.45h.8c.36,0,.72,0,1.08,0,.65,0,1,.49,1,1.25a.87.87,0,0,1-.87.81c-.42,0-.86,0-1.28,0h-.59C27.78,40.23,27.32,40.7,27.32,41.82Z"/><path d="M61.1,40.4a3.82,3.82,0,0,0-3.84,3.76,3.76,3.76,0,0,0,1.09,2.68A3.85,3.85,0,0,0,61.09,48h0a3.85,3.85,0,0,0,2.75-1.13,3.74,3.74,0,0,0,1.08-2.69A3.82,3.82,0,0,0,61.1,40.4Zm1.39,3.78a1.38,1.38,0,0,1-1.4,1.4h0a1.34,1.34,0,0,1-1.35-1.37,1.41,1.41,0,0,1,.4-1,1.34,1.34,0,0,1,1-.39h0A1.4,1.4,0,0,1,62.49,44.18Z"/><path d="M50.88,38.44h0a3.8,3.8,0,0,0-2.7,1.1A3.85,3.85,0,0,0,47,42.24h0A3.85,3.85,0,0,0,48.14,45a3.76,3.76,0,0,0,2.68,1.1h0a3.84,3.84,0,0,0,3.81-3.79,3.78,3.78,0,0,0-1.11-2.71A3.73,3.73,0,0,0,50.88,38.44Zm-1.45,3.81a1.49,1.49,0,0,1,.46-1,1.37,1.37,0,0,1,.92-.38h0a1.42,1.42,0,0,1,0,2.83h0a1.36,1.36,0,0,1-1-.42A1.47,1.47,0,0,1,49.43,42.25Z"/><path d="M61,36.06a3.85,3.85,0,0,0-3.8-3.81h0A3.8,3.8,0,0,0,53.35,36a3.89,3.89,0,0,0,1.12,2.78,3.68,3.68,0,0,0,2.64,1.1h0A3.86,3.86,0,0,0,61,36.06Zm-2.86,1a1.33,1.33,0,0,1-1,.41h0a1.31,1.31,0,0,1-.94-.41,1.42,1.42,0,0,1-.44-1,1.44,1.44,0,0,1,1.34-1.41h0a1.32,1.32,0,0,1,.91.37,1.47,1.47,0,0,1,.45,1A1.51,1.51,0,0,1,58.09,37.08Z"/><path d="M48.42,47.31a8.81,8.81,0,0,0-.89,0h-.79c-.31,0-.63,0-1,0a1.15,1.15,0,0,0-1.13,1.17,1.12,1.12,0,0,0,1,1.19c.41,0,.85,0,1.31,0s1,0,1.52,0a1.06,1.06,0,0,0,.72-.4,1.1,1.1,0,0,0,.27-.85A1.14,1.14,0,0,0,48.42,47.31Z"/><path d="M39,47.3c-.8,0-1.61,0-2.42,0a1.21,1.21,0,0,0-1.24,1.21,1.25,1.25,0,0,0,1.28,1.19H39a1.23,1.23,0,0,0,1.23-1.23A1.19,1.19,0,0,0,39,47.3Z"/></svg>