<svg id="Layer_1" data-name="Layer 1" xmlns="http://www.w3.org/2000/svg" viewBox="0 0 85.04 85.04"><path d="M71,23.21a3.8,3.8,0,0,0-1-2.6,3.93,3.93,0,0,0-3.12-1.32h0q-3.9,0-7.8,0H40.94a3.72,3.72,0,0,1-2.53-.88l-1.86-1.55-1-.81a5.84,5.84,0,0,0-3.81-1.44H18.46a4,4,0,0,0-1.29.23,3.94,3.94,0,0,0-2.63,3.58V36.24a1.16,1.16,0,0,0,.08.5,1.38,1.38,0,0,0,1,.74h.08a1.25,1.25,0,0,0,1.1-1.4c0-1.18,0-2.37,0-3.53v-.82A1.68,1.68,0,0,1,18,30.06a1.45,1.45,0,0,1,.44-.07H66.8a2.14,2.14,0,0,1,1,.17,1.66,1.66,0,0,1,.92,1.33,2.55,2.55,0,0,1,0,.39V61.34a1.72,1.72,0,0,1-1.07,1.75,2.83,2.83,0,0,1-1.24.13l-.21,0a.39.39,0,0,1,0-.13l0-.2c0-.4,0-.8-.08-1.19C66,60.35,65.88,59,65.75,58c-.16-1.27-.35-2.58-.6-4s-.51-2.69-.83-4-.62-2.45-1-3.6a37.7,37.7,0,0,0-2-5.08,8.81,8.81,0,0,0-6-4.92,8.22,8.22,0,0,0-2.14-.25H46.87c-4.77,0-9.7,0-14.54,0a8.65,8.65,0,0,0-7.68,4.31,18.08,18.08,0,0,0-1.36,2.93l-.08.19a44.91,44.91,0,0,0-1.62,5c-.34,1.28-.65,2.66-.93,4.09s-.51,2.8-.71,4.27c-.13.87-.22,1.77-.3,2.63l-.1,1c-.1.88-.16,1.68-.2,2.47,0,.07,0,.2,0,.21H19a2.53,2.53,0,0,1-1.17-.16,1.63,1.63,0,0,1-1-1.35,3.1,3.1,0,0,1,0-.43V40.2A1.16,1.16,0,0,0,16.09,39a1.08,1.08,0,0,0-.27-.07l-.14,0h0a1.19,1.19,0,0,0-1.1,1.38V61.39a4.05,4.05,0,0,0,.1,1A3.93,3.93,0,0,0,17,65.19a4.89,4.89,0,0,0,2.15.3h.09v.1a5.3,5.3,0,0,0,.68,2.61A5.65,5.65,0,0,0,25.8,71a5.51,5.51,0,0,0,3.71-2.5,15.41,15.41,0,0,0,1-1.94c.14-.31.27-.61.42-.91.06-.13.1-.16.23-.16h0q11.64,0,23.27,0c.14,0,.17,0,.21.12l.66,1.4.35.75a5.6,5.6,0,0,0,4.42,3.3,4.52,4.52,0,0,0,.74.06,5.05,5.05,0,0,0,2-.44,5.47,5.47,0,0,0,3.5-5.1.28.28,0,0,1,0-.08h.1a9.58,9.58,0,0,0,1.3-.06A4,4,0,0,0,71,61.57Zm-5.07,2A3.91,3.91,0,0,0,62.64,23c-.11,0-.23,0-.35,0H23.34a4,4,0,0,0-3.13,1.32,3.88,3.88,0,0,0-1,2.61V27c0,.21,0,.42,0,.62v.05a.11.11,0,0,1-.06,0,4.89,4.89,0,0,0-2.34.39V18.71a1.69,1.69,0,0,1,1-1.68,2,2,0,0,1,.84-.15H26.9c1.37,0,2.79,0,4.18,0a4.6,4.6,0,0,1,3.45,1.26c.74.68,1.53,1.31,2.3,1.93l.31.25a5.66,5.66,0,0,0,3.6,1.26H67a1.66,1.66,0,0,1,1.55.81,1.74,1.74,0,0,1,.26,1v4.73a4.54,4.54,0,0,0-1.92-.39h-.47a.79.79,0,0,1,0-.14A4.42,4.42,0,0,0,66,25.23Zm-44.28.95a1.66,1.66,0,0,1,1.43-.88H62.24a1.71,1.71,0,0,1,1.68.95,1.88,1.88,0,0,1,.15,1v.45a1.74,1.74,0,0,1-.38,0H21.93a1.91,1.91,0,0,1-.41,0,1.48,1.48,0,0,1,0-.44A2,2,0,0,1,21.68,26.18Zm10.44,37,.81-1.7.08-.16a.73.73,0,0,1,.73-.46H51.8a.77.77,0,0,1,.77.49l.57,1.19.33.7v0H32.09Zm19.69-4.61h-18a3,3,0,0,0-2.94,1.87l-.49,1c-.81,1.68-1.64,3.41-2.43,5.12a3.93,3.93,0,0,1-1.48,1.8,3.2,3.2,0,0,1-2.95.2,3.29,3.29,0,0,1-1.95-2.3,6.52,6.52,0,0,1,0-1.82c0-.15,0-.29,0-.44l0-.54c0-.3,0-.62.05-.92.07-.57.12-1.14.17-1.71,0-.37.06-.75.1-1.13.06-.58.13-1.15.2-1.72s.11-.9.16-1.35.1-.68.16-1c0-.15.05-.31.07-.46.14-.9.29-1.71.45-2.46.2-1,.43-1.92.67-2.88a40.56,40.56,0,0,1,1.17-4,31.45,31.45,0,0,1,1.6-3.86,6.52,6.52,0,0,1,3.53-3.14,6.06,6.06,0,0,1,2.21-.4H53.41A6.41,6.41,0,0,1,57.68,40a7.28,7.28,0,0,1,1.81,2.59c.48,1.07.93,2.21,1.33,3.38.28.82.52,1.64.74,2.42.29,1,.55,2.06.78,3.1.18.84.34,1.67.52,2.59.08.43.15.87.22,1.31s.11.7.17,1,.12.83.17,1.24l.09.83c.1.72.17,1.46.24,2.17l.1,1c0,.41.09.83.09,1.23s0,.76.06,1.13.07.85.07,1.28h0A3.39,3.39,0,0,1,62,68.57a3.35,3.35,0,0,1-3.82-1,6.4,6.4,0,0,1-.73-1.31c-.07-.17-.14-.33-.22-.49-.5-1-1-2-1.46-3L55,61.06c-.13-.28-.26-.55-.4-.82A3,3,0,0,0,51.81,58.53Z"/><path d="M35.25,45.46H32.71v-.07c0-.83,0-1.67,0-2.5a1.19,1.19,0,0,0-.37-.87,1.11,1.11,0,0,0-.8-.32,1.19,1.19,0,0,0-.82.4,1.13,1.13,0,0,0-.31.8c0,.28,0,.56,0,.83v.71c0,.3,0,.6,0,.9a.29.29,0,0,1,0,.11.25.25,0,0,1-.13,0H27.82a1,1,0,0,0-1,.64,1.11,1.11,0,0,0,.1,1.18,1.28,1.28,0,0,0,1,.48c.81,0,1.61,0,2.42,0h.05v.05c0,.59,0,1.19,0,1.78v.72a1,1,0,0,0,.07.43,1.2,1.2,0,0,0,1.09.74l.22,0a1.16,1.16,0,0,0,.91-1.18c0-.81,0-1.63,0-2.44v-.08h.08c.81,0,1.64,0,2.47,0a1.13,1.13,0,0,0,1-.57,1.14,1.14,0,0,0-1-1.73Z"/><path d="M47.5,54.82h-.68c-.4,0-.81,0-1.21,0a1,1,0,0,0-.82.32,1.14,1.14,0,0,0-.35.83,1.12,1.12,0,0,0,1.15,1.11h1.94a1.07,1.07,0,0,0,.73-.33,1.16,1.16,0,0,0,.34-.83A1.12,1.12,0,0,0,47.5,54.82Z"/><path d="M40.07,54.82H38a1.12,1.12,0,0,0-1,1.06,1.13,1.13,0,0,0,.3.84,1,1,0,0,0,.69.35H40.1a1.15,1.15,0,0,0,1-1.16A1.12,1.12,0,0,0,40.07,54.82Z"/><path d="M54.94,51a1.32,1.32,0,0,0,.21-.87v-.67A1.13,1.13,0,0,0,54,48.26a1.12,1.12,0,0,0-1.15,1.18c0,.31,0,.62,0,.93a1.15,1.15,0,0,0,.84,1.07,1.55,1.55,0,0,0,.29,0A1.2,1.2,0,0,0,54.94,51Z"/><path d="M51.7,45.56a1.34,1.34,0,0,0-.69-.1h-.79a1.16,1.16,0,0,0-1.07.86,1.1,1.1,0,0,0,.69,1.33,2.66,2.66,0,0,0,.85.14,3.58,3.58,0,0,0,.83-.11,1.09,1.09,0,0,0,.82-1.06A1.11,1.11,0,0,0,51.7,45.56Z"/><path d="M52.85,43.5c0,.14,0,.27,0,.4a1.14,1.14,0,0,0,.9,1l.23,0a1.09,1.09,0,0,0,1-.65,2.32,2.32,0,0,0,.12-1,2.32,2.32,0,0,1,0-.37,1.14,1.14,0,0,0-.32-.8A1.18,1.18,0,0,0,54,41.7h0a1.19,1.19,0,0,0-1.13,1.15v.65Z"/><path d="M56.82,47.76h.88a1.34,1.34,0,0,0,.9-.42,1.07,1.07,0,0,0,.27-.82,1.12,1.12,0,0,0-1.19-1.06h-.84a1.11,1.11,0,0,0-1.18,1.11A1.18,1.18,0,0,0,56.82,47.76Z"/></svg>