<svg id="Layer_1" data-name="Layer 1" xmlns="http://www.w3.org/2000/svg" viewBox="0 0 85.04 85.04"><path d="M40.92,36.69a5,5,0,0,0-.9-1.84,5.08,5.08,0,0,0-4.15-2c-3.52,0-7,0-10.55,0a5.58,5.58,0,0,1-1.95-.23,4.49,4.49,0,0,1-2.86-2.78,4.55,4.55,0,0,1,2-5.49,5.16,5.16,0,0,1,2.72-.64H48.64c.43,0,.43,0,.57-.39a5.24,5.24,0,0,1,4.85-3.52c1.31,0,2.63,0,3.94,0a1.31,1.31,0,0,1,1.33,1.06c.05.21.14.26.34.25h3.52a1.28,1.28,0,0,1,1.38,1.37c0,1.44,0,2.89,0,4.33,0,.27,0,.55,0,.82a1.29,1.29,0,0,1-1.34,1.31H59.66a.28.28,0,0,0-.34.25A1.29,1.29,0,0,1,58,30.2c-1.29,0-2.58,0-3.87,0a5.14,5.14,0,0,1-4.66-2.94,3.43,3.43,0,0,1-.28-.73.28.28,0,0,0-.32-.23c-.79,0-1.58,0-2.37,0-5.13,0-10.27,0-15.4,0H25a2,2,0,0,0-2.09,2.14,1.87,1.87,0,0,0,1.53,1.7,16.05,16.05,0,0,0,2,.07h9.47a7.62,7.62,0,0,1,6.4,3.23,7.15,7.15,0,0,1,1.3,2.89c.08.39.09.39.48.39.69,0,1.37,0,2,0a1.42,1.42,0,0,1,1.59,1.58c0,1.1,0,2.2,0,3.3,0,.34,0,.35.34.35H59.59c1.28,0,2.55,0,3.82,0a6.3,6.3,0,0,1,4.73,2.18,6.4,6.4,0,0,1,1.65,4.39c0,3.9,0,7.79,0,11.69a6.37,6.37,0,0,1-2.9,5.41,6.23,6.23,0,0,1-3.67,1.09H21.51a6.34,6.34,0,0,1-5.3-2.77A6.11,6.11,0,0,1,15,60.3c0-4,0-8.07,0-12.1a6.1,6.1,0,0,1,1.36-3.75,6.52,6.52,0,0,1,3-2.17,5.89,5.89,0,0,1,1.86-.35H36.17c.24,0,.48,0,.71,0s.3-.08.3-.3V38.1a1.25,1.25,0,0,1,.64-1.19,1.44,1.44,0,0,1,.7-.19c.69,0,1.38,0,2.07,0ZM42.4,64.08H55.07c2.74,0,5.49,0,8.23,0a3.32,3.32,0,0,0,1.09-.17,3.87,3.87,0,0,0,2.79-3.86c0-3.87,0-7.73,0-11.6a3.93,3.93,0,0,0-3.92-3.92H48.91c-4.47,0-8.94,0-13.41,0h-14a3.58,3.58,0,0,0-1.7.43,3.88,3.88,0,0,0-2.14,3.62v2.51c0,3,0,6.07,0,9.1a3.7,3.7,0,0,0,.5,1.9,4,4,0,0,0,3.59,2H42.4ZM56.73,25h0c0-.78,0-1.56,0-2.34,0-.21-.07-.27-.28-.27-.79,0-1.59,0-2.39,0a2.61,2.61,0,0,0-.77.14,2.59,2.59,0,0,0,.88,5c.76,0,1.51,0,2.27,0,.23,0,.29-.08.29-.3C56.72,26.51,56.73,25.75,56.73,25ZM39.81,40.6v1c0,.31,0,.33.32.33h4.6c.2,0,.28-.06.27-.27v-2c0-.22-.08-.3-.3-.29H40.25c-.44,0-.44,0-.44.43ZM60.68,26.28h1c.16,0,.24-.06.24-.23V23.91c0-.17-.06-.24-.23-.24H59.61c-.17,0-.23.07-.23.23q0,1.05,0,2.1c0,.22.08.28.29.28S60.35,26.28,60.68,26.28Z"/><path d="M48.92,53c0,1,0,2.07,0,3.11a1.36,1.36,0,0,1-1.47,1.46c-.31,0-.61,0-.91,0s-.23.06-.23.24c0,.34,0,.69,0,1A1.3,1.3,0,0,1,45,60.18H39.8a1.3,1.3,0,0,1-1.31-1.35c0-.33,0-.65,0-1s-.08-.27-.27-.27-.64,0-1,0a1.3,1.3,0,0,1-1.37-1.34q0-3.23,0-6.46a1.29,1.29,0,0,1,1.38-1.34H47.49a1.3,1.3,0,0,1,1.43,1.42C48.93,50.91,48.92,52,48.92,53Zm-8.41-2h0c-.57,0-1.14,0-1.7,0-.24,0-.32.08-.32.31,0,1.12,0,2.24,0,3.35,0,.21.08.26.26.25q.51,0,1,0A1.31,1.31,0,0,1,41.1,56.3c0,.34,0,.68,0,1s.07.26.26.26h2.09c.2,0,.26-.07.26-.26,0-.35,0-.71,0-1.06a1.23,1.23,0,0,1,1-1.23A8.47,8.47,0,0,1,46,55c.21,0,.29-.05.29-.28,0-1.08,0-2.16,0-3.25,0-.37,0-.37-.39-.37Z"/><path d="M26.74,48.44c1.7,0,3.4,0,5.1,0a1.32,1.32,0,0,1,1.38,1,5.25,5.25,0,0,1,.06,1c0,1.85,0,3.7,0,5.55a1.36,1.36,0,0,1-.71,1.42,1.6,1.6,0,0,1-.66.16,8,8,0,0,1-1,0c-.19,0-.27.05-.26.25,0,.35,0,.69,0,1a1.29,1.29,0,0,1-1.31,1.31H24.11a1.29,1.29,0,0,1-1.26-1.26c0-.36,0-.73,0-1.09,0-.2-.08-.25-.26-.25a10.09,10.09,0,0,1-1.35-.06,1.22,1.22,0,0,1-1-1.26c0-1.1,0-2.21,0-3.32s0-2,0-3a1.41,1.41,0,0,1,1.49-1.5c1.67,0,3.35,0,5,0Zm0,2.61H23.12c-.17,0-.28,0-.27.25v3.45c0,.16.06.21.22.21h1a1.34,1.34,0,0,1,1.37,1.36c0,.34,0,.68,0,1s.07.26.25.25h2.1c.2,0,.27-.08.27-.28,0-.39,0-.78,0-1.16A1.15,1.15,0,0,1,29,55,9.18,9.18,0,0,1,30.4,55c.21,0,.27-.06.27-.27,0-1.11,0-2.21,0-3.32,0-.26-.09-.32-.33-.32Z"/><path d="M58.06,48.44h5.17a1.3,1.3,0,0,1,1.34,1.31c0,2.18,0,4.35,0,6.53a1.28,1.28,0,0,1-1.3,1.3c-.36,0-.71,0-1.06,0-.18,0-.25.06-.25.24,0,.36,0,.71,0,1.06a1.3,1.3,0,0,1-1.31,1.3H55.44a1.3,1.3,0,0,1-1.3-1.3c0-.35,0-.69,0-1s-.07-.27-.27-.26-.66,0-1,0a1.31,1.31,0,0,1-1.35-1.36c0-2.12,0-4.24,0-6.35A1.38,1.38,0,0,1,53,48.43c1.69,0,3.39,0,5.08,0Zm0,2.61H54.44c-.23,0-.3.07-.3.3q0,1.66,0,3.33c0,.21.06.29.28.28s.65,0,1,0a1.3,1.3,0,0,1,1.34,1.34c0,.34,0,.69,0,1,0,.18.08.25.26.25h2.09c.21,0,.28-.08.27-.27s0-.68,0-1A1.31,1.31,0,0,1,60.71,55q.48,0,1,0c.23,0,.3-.06.3-.29q0-1.65,0-3.3c0-.24-.07-.32-.31-.32Z"/></svg>