<svg id="Layer_1" data-name="Layer 1" xmlns="http://www.w3.org/2000/svg" viewBox="0 0 85.04 85.04"><path d="M35.86,9.57h4.23c.7.1,1.4.18,2.09.3a27.82,27.82,0,0,1,17,9.27,27.87,27.87,0,0,1,6.84,23.19c-.12.84-.29,1.67-.43,2.49,3,1.06,4.46,2.29,5.62,5a50.46,50.46,0,0,1,3.51,14.63c.15,1.31.26,2.62.39,3.94v2.69a1.4,1.4,0,0,0-.09.17,5.14,5.14,0,0,1-9.79.93c-.8-1.58-1.61-3.15-2.38-4.75a1.38,1.38,0,0,0-1.41-.86q-7.12,0-14.25,0a1.43,1.43,0,0,0-1.46.88c-.8,1.64-1.62,3.25-2.44,4.87a5.13,5.13,0,0,1-9.79-2.6c.06-1.14.11-2.29.17-3.45-.86-.17-1.65-.31-2.44-.49a28.59,28.59,0,0,1-21.7-25,27.58,27.58,0,0,1,2.69-14.94A28,28,0,0,1,32.58,10.09C33.66,9.86,34.76,9.74,35.86,9.57ZM54.37,46.82c-3.1,0-6.2,0-9.31,0a5.49,5.49,0,0,0-5.44,3.55,51.65,51.65,0,0,0-2.07,6.11,63,63,0,0,0-1.81,13,4.63,4.63,0,0,0,.06,1.34,2.89,2.89,0,0,0,2.6,2.3,2.93,2.93,0,0,0,2.84-1.61c.86-1.67,1.72-3.34,2.53-5a3.48,3.48,0,0,1,3.41-2.14q7.17,0,14.32,0a3.47,3.47,0,0,1,3.37,2.1q1.25,2.53,2.53,5A2.89,2.89,0,0,0,70.86,73a2.93,2.93,0,0,0,2.07-3.1c-.27-2.92-.49-5.84-.88-8.74a40.16,40.16,0,0,0-2.93-10.63,5.75,5.75,0,0,0-5.7-3.69ZM23.73,36.89h13v-13c-.13,0-.22,0-.3,0a53.08,53.08,0,0,0-9.63,1.29A1.9,1.9,0,0,0,25.05,27a6.33,6.33,0,0,1-.19.75A41.83,41.83,0,0,0,23.73,36.89Zm15.32,0h13v-.6a43.85,43.85,0,0,0-1.48-10c-.14-.56-.35-.87-1-1C47,24.9,44.37,24.4,41.73,24a23.59,23.59,0,0,0-2.68-.13ZM23.79,39.23c0,.08-.06.11-.06.15a41.57,41.57,0,0,0,1.61,10.8.83.83,0,0,0,.5.47,43.65,43.65,0,0,0,10,1.58.77.77,0,0,0,.94-.74,3.43,3.43,0,0,0,0-.64V39.23Zm39-9.22a24.23,24.23,0,0,0-6.3-10.53A26.26,26.26,0,0,0,45.77,13c.26.29.39.45.54.6A25.59,25.59,0,0,1,52,23.3a1,1,0,0,0,.71.7,25.92,25.92,0,0,1,9.6,5.61Zm-49.82.09a1.11,1.11,0,0,0,.16-.11A26.43,26.43,0,0,1,23.3,23.92c.2-.06.38-.35.48-.58.63-1.44,1.16-2.93,1.86-4.34A23.83,23.83,0,0,1,30,13.09C23.29,14.26,14,23.53,12.93,30.1ZM29.78,62.93a.86.86,0,0,0-.1-.16,26,26,0,0,1-5.94-10.06,1,1,0,0,0-.62-.51A26.24,26.24,0,0,1,15,47.84c-.68-.55-1.34-1.13-2-1.69A25.51,25.51,0,0,0,29.78,62.93ZM52.13,39.24H39.07V47.1l.3-.27a8,8,0,0,1,5.69-2.21c2,0,3.93,0,5.9,0h.75ZM11.72,36.89h9.55l1.39-10.36a20.41,20.41,0,0,0-9,6.06A9.36,9.36,0,0,0,11.72,36.89Zm42.81,0H64c-.45-4.42-5.59-8.58-10.9-10.37Zm-17.78-25C32,12.54,28,18.12,26.43,22.81l10.32-1.38Zm-25,27.31c.48,4.44,5.76,8.6,10.88,10.32L21.27,39.22Zm37.68-16.4a21.37,21.37,0,0,0-5.75-8.69,9.27,9.27,0,0,0-4.63-2.24v9.54ZM64.22,39.23H54.37L54,44.6h9.46Zm-30.3,24,1.7-8.67-9.29-1.31C28,57.26,30.06,60.93,33.92,63.27Z"/><path d="M43.34,54.49c0-.69,0-1.31,0-1.92,0-.85.44-1.37,1.11-1.38s1.14.53,1.14,1.41c0,.6,0,1.19,0,1.89h2c.82,0,1.27.42,1.25,1.12s-.47,1.06-1.24,1.07-1.28,0-2,0c0,.66,0,1.27,0,1.88,0,.88-.44,1.43-1.13,1.42s-1.11-.55-1.12-1.44c0-.6,0-1.19,0-1.86-.71,0-1.37,0-2,0a1.09,1.09,0,0,1-1.22-1.1c0-.68.44-1.07,1.21-1.09h2Z"/><path d="M54.35,49c.37,0,.73,0,1.09,0a1.1,1.1,0,0,1,1.08,1.12,1,1,0,0,1-1,1.07,20.82,20.82,0,0,1-2.37,0,1,1,0,0,1-1-1,1.05,1.05,0,0,1,1-1.12c.4,0,.81,0,1.21,0Z"/><path d="M57.05,62.18c-1.09,0-1.67-.39-1.65-1.14s.58-1.1,1.64-1.1a4.06,4.06,0,0,1,.7,0,1.08,1.08,0,0,1,1,1.09,1.12,1.12,0,0,1-1,1.12A4.56,4.56,0,0,1,57.05,62.18Z"/><path d="M51.58,62.19c-.17,0-.34,0-.51,0A1.13,1.13,0,0,1,50,61.1,1.1,1.1,0,0,1,51.06,60a6.49,6.49,0,0,1,1.08,0,1.11,1.11,0,0,1,1.09,1.11,1.12,1.12,0,0,1-1.14,1.13C51.92,62.2,51.75,62.19,51.58,62.19Z"/><path d="M61.45,56.68a5.45,5.45,0,0,1-.7,0,1.12,1.12,0,0,1-1-1.11,1.09,1.09,0,0,1,1-1.06,11,11,0,0,1,1.15,0,1,1,0,0,1,1.15,1.07,1.08,1.08,0,0,1-1.19,1.12h-.44Z"/><path d="M65.27,52.84c0,.22,0,.43,0,.64a1.06,1.06,0,0,1-1.09,1,1.1,1.1,0,0,1-1.09-1,8.15,8.15,0,0,1,0-1.21,1.1,1.1,0,0,1,2.19,0c0,.19,0,.38,0,.57Z"/><path d="M65.27,58.28c0,.23,0,.47,0,.7a1.11,1.11,0,0,1-1,1,1.13,1.13,0,0,1-1.13-1,11,11,0,0,1,0-1.15,1.09,1.09,0,0,1,1.11-1.14,1.06,1.06,0,0,1,1.09,1.14c0,.15,0,.3,0,.45Z"/><path d="M67,54.5c1.1,0,1.61.34,1.63,1.07s-.54,1.12-1.66,1.12c-.17,0-.34,0-.51,0a1.12,1.12,0,0,1-1.15-1.12,1.09,1.09,0,0,1,1.11-1.07Z"/></svg>