<svg id="Layer_1" data-name="Layer 1" xmlns="http://www.w3.org/2000/svg" viewBox="0 0 85.04 85.04"><path d="M72.15,38a10,10,0,0,0-10-7.59c-.06,0-.08,0-.06,0a11.32,11.32,0,0,0-14.75-8.58l-.4.14a13.16,13.16,0,0,0-16.32-8.47,12.78,12.78,0,0,0-7.37,5.68,13.08,13.08,0,0,0-1.49,10.45,10.23,10.23,0,0,0-6.61,3.95,10.37,10.37,0,0,0,1.73,14.39,10.33,10.33,0,0,0,6.77,2.3h.17A25.26,25.26,0,0,0,21,55.89a23.16,23.16,0,0,0-1.48,10.44,8.69,8.69,0,0,0,1.2,3.78,4.2,4.2,0,0,0,5.37,1.79,9.3,9.3,0,0,0,3.62-2.73A21.07,21.07,0,0,0,33,64a1.11,1.11,0,0,1,1.29-.74,5,5,0,0,0,1.16,0A4.63,4.63,0,0,0,37.68,62a4.89,4.89,0,0,1,2.1-1.17,11.46,11.46,0,0,1,4.6-.26,6,6,0,0,1,3.55,1.58,3.73,3.73,0,0,0,3.14,1.16,1.11,1.11,0,0,1,1.36.79,22,22,0,0,0,2.85,4.65A10.43,10.43,0,0,0,59,71.77a5.11,5.11,0,0,0,2.09.48,4.26,4.26,0,0,0,3.73-2.34,9.43,9.43,0,0,0,1.14-4.12,19.8,19.8,0,0,0-.3-5.23,27.73,27.73,0,0,0-4-10.32h.69l.51,0A11.56,11.56,0,0,0,64.45,50a9.92,9.92,0,0,0,7.7-12ZM34.46,60.92A3.38,3.38,0,0,0,31,62.87a21.93,21.93,0,0,1-2.32,3.92A9.94,9.94,0,0,1,26,69.33a3.3,3.3,0,0,1-1.52.57,1.76,1.76,0,0,1-1.58-.74,5.6,5.6,0,0,1-1-2.68,19,19,0,0,1,.75-8.06,22.46,22.46,0,0,1,3.86-7.94A9.67,9.67,0,0,1,29,48.13a3.75,3.75,0,0,1,2.06-.6h0q11.61,0,23.22,0h0a4.36,4.36,0,0,1,3,1.26,15.45,15.45,0,0,1,3.56,4.79,25.89,25.89,0,0,1,2.56,7.89c.1.69.16,1.38.2,1.93,0,.2,0,.38,0,.52A10.64,10.64,0,0,1,63,68.21a4.14,4.14,0,0,1-.78,1.21,1.72,1.72,0,0,1-2,.32,6.24,6.24,0,0,1-2.36-1.69A18.26,18.26,0,0,1,54.5,63a3.34,3.34,0,0,0-3-2.06l-.36,0a2,2,0,0,1-1.72-.61,7.65,7.65,0,0,0-4.06-2,13.61,13.61,0,0,0-6.49.3,6.3,6.3,0,0,0-2.7,1.53,4.3,4.3,0,0,1-.51.4l-.08.07A1.42,1.42,0,0,1,34.46,60.92ZM56.72,45.65a5.62,5.62,0,0,0-2.27-.46H43.88V35.4a1.36,1.36,0,0,0-.37-1,1.17,1.17,0,0,0-1.93.56,2.19,2.19,0,0,0,0,.55v9.69H38.45c-2.31,0-4.7,0-7.05,0h-.11a6.83,6.83,0,0,0-4.5,1.67,11.5,11.5,0,0,0-.94.87.58.58,0,0,1-.42.17H24.35a14.36,14.36,0,0,1-2-.08,7.66,7.66,0,0,1-6.61-5.37,7.84,7.84,0,0,1,.66-6.64,8.08,8.08,0,0,1,5.65-3.86c.35-.05.74-.09,1.19-.11a1.27,1.27,0,0,0,1.09-.54,1.26,1.26,0,0,0,.06-1.17,10.78,10.78,0,0,1,2.31-11.62,10.51,10.51,0,0,1,8.52-3.21,10.75,10.75,0,0,1,9.68,8.32,1.39,1.39,0,0,0,.71,1,1.48,1.48,0,0,0,1.27-.08,9,9,0,0,1,13,7.14,1.31,1.31,0,0,0,.46.94,1.25,1.25,0,0,0,1,.21,7.57,7.57,0,0,1,2.53,14.92,11.32,11.32,0,0,1-1.49.13c-.79,0-1.59,0-2.48,0a.51.51,0,0,1-.31-.13A9.47,9.47,0,0,0,56.72,45.65Z"/><path d="M52.7,55.3h.84v.13c0,.27,0,.53,0,.79a1.26,1.26,0,0,0,.39.91,1.11,1.11,0,0,0,.79.3h.08A1.17,1.17,0,0,0,55.9,56.2v-.9h.9A1.16,1.16,0,0,0,58,54.12,1.17,1.17,0,0,0,56.78,53H55.9v-.53a2.94,2.94,0,0,0,0-.66,1.12,1.12,0,0,0-.73-.87,1.15,1.15,0,0,0-1.14.21,1.23,1.23,0,0,0-.44,1V53h-.83a1.35,1.35,0,0,0-1,.38,1.12,1.12,0,0,0-.32.81A1.17,1.17,0,0,0,52.7,55.3Z"/><path d="M34.09,53H33.2V52.1A1.18,1.18,0,0,0,32,50.83h0a1.18,1.18,0,0,0-1.16,1.27V53H30a1.19,1.19,0,0,0-.94.42,1.13,1.13,0,0,0-.18,1.2,1.09,1.09,0,0,0,1,.71h1v.9a1.17,1.17,0,1,0,2.33,0v-.9h.89a1.38,1.38,0,0,0,.94-.37,1.18,1.18,0,0,0-.94-2Z"/><path d="M41.82,55.84H43.6a1.18,1.18,0,0,0,1.18-1.15,1.14,1.14,0,0,0-1.15-1.18c-.6,0-1.22,0-1.84,0a1.16,1.16,0,0,0-1.16,1.17A1.18,1.18,0,0,0,41.82,55.84Z"/></svg>