<svg id="Layer_1" data-name="Layer 1" xmlns="http://www.w3.org/2000/svg" viewBox="0 0 85.04 85.04"><path d="M58.65,28.25c-.33,0-.66-.05-1-.09L57,28.09v-.21c-.2-3.92-1.59-5.59-4.63-5.6-8.79,0-17.64,0-26.32,0a4.18,4.18,0,0,0-4.47,4.41c0,8.38,0,17.06,0,26.52a4.21,4.21,0,0,0,4.27,4.45c.28,0,.56,0,.87,0h.74v.24c.22,4.06,1.56,5.73,4.65,5.73,8.94,0,17.79,0,26.31,0a4.18,4.18,0,0,0,4.47-4.42c0-8.52,0-17.44,0-26.52A4.21,4.21,0,0,0,58.65,28.25ZM26.87,55.17c-2.37,0-2.79-.43-2.8-2.89V40c0-1.2,0-2.4,0-3.59,0-2.93,0-6,0-8.94a2.71,2.71,0,0,1,.61-2.06,2.66,2.66,0,0,1,2.06-.63c5.57,0,11.22,0,16.69,0h8.35c2.25,0,2.71.47,2.71,2.79q0,12.44,0,24.86c0,2.29-.46,2.76-2.75,2.76H26.87Zm33.58,3.1c0,2.45-.42,2.88-2.81,2.88H32.8c-1.09,0-1.84-.1-2.27-.58s-.46-1.37-.3-2.69l0-.22H51.72c3.72,0,5.23-1.5,5.24-5.17V30.83h.24c1.42-.06,2.23,0,2.71.45s.54,1.15.54,2.33Q60.47,45.93,60.45,58.27Z"/><path d="M40.51,41.21h2.35c1.61,0,3.13,0,4.65,0s1.89-.31,1.92-1.2a1.23,1.23,0,0,0-.28-.92,2.39,2.39,0,0,0-1.7-.39c-1.56,0-3.13,0-4.72,0H40.51v-2.4c0-1.63,0-3.15,0-4.67a2.24,2.24,0,0,0-.37-1.56,1.17,1.17,0,0,0-.87-.29,1.06,1.06,0,0,0-.88.29A2.09,2.09,0,0,0,38,31.63c0,1.56,0,3.12,0,4.74v2.35H35.67c-1.62,0-3.18,0-4.74,0a2.14,2.14,0,0,0-1.53.38,1.17,1.17,0,0,0-.29.9,1,1,0,0,0,.52,1,2.91,2.91,0,0,0,1.35.21l2.78,0H38v2.3c0,1.6,0,3.13,0,4.65a2.43,2.43,0,0,0,.38,1.69,1.25,1.25,0,0,0,.93.28c1,0,1.21-.72,1.19-1.91,0-1.56,0-3.12,0-4.73Z"/></svg>