<svg id="Layer_1" data-name="Layer 1" xmlns="http://www.w3.org/2000/svg" viewBox="0 0 85.04 85.04"><path d="M34.27,32.94l1.19.16,1.19.15c.14,0,.18,0,.21.16a10.06,10.06,0,0,0,1.22,2.85.22.22,0,0,1,0,.32L36.9,38.12l-.28.38a1,1,0,0,0,.11,1.55l1.06,1.06,1.06,1.06a1.08,1.08,0,0,0,1.7.11c.72-.55,1.32-1,1.86-1.38a.28.28,0,0,1,.22,0,11.58,11.58,0,0,0,2.9,1.24.21.21,0,0,1,.19.23c0,.35.08.69.12,1l.06.43c.05.42.11.84.2,1.26a1,1,0,0,0,1,.8h3.27a1,1,0,0,0,1-.9c.14-.86.25-1.73.36-2.57,0-.13,0-.16.13-.2.52-.19,1-.4,1.55-.6l.48-.19a6.48,6.48,0,0,1,1.15-.55h0c.1,0,.25.14.44.3s.25.22.41.34l.24.19.74.56A1.2,1.2,0,0,0,58.75,42l.39-.39,1.56-1.56a1.06,1.06,0,0,0,.11-1.65l-.63-.84-.77-1c-.09-.13-.1-.19,0-.32a10.09,10.09,0,0,0,1.17-2.73.34.34,0,0,1,.37-.29c.84-.09,1.66-.22,2.44-.34a1,1,0,0,0,.92-1.08c0-1,0-2.1,0-3.19a1,1,0,0,0-.84-1.05c-.87-.16-1.75-.27-2.49-.35-.25,0-.35-.11-.4-.32a9.19,9.19,0,0,0-1.16-2.7c-.08-.13-.07-.19,0-.35a1.39,1.39,0,0,1,.21-.27l.2-.21h0c.38-.54,1.3-1.9,1.21-2.4a1.43,1.43,0,0,0-.37-.68c-.61-.64-1.24-1.26-1.85-1.87l-.21-.21A1,1,0,0,0,57,18.13l-.8.62-.24.18a2.66,2.66,0,0,1-.85.76c-.09,0-.22,0-.43-.17a3.23,3.23,0,0,0-.73-.38l-.59-.23c-.47-.18-.94-.37-1.42-.54-.12-.05-.14-.1-.16-.24-.09-.72-.21-1.63-.34-2.49a1.08,1.08,0,0,0-1.12-1H47.19a1.06,1.06,0,0,0-1,.66A2.22,2.22,0,0,0,46,16l-.27,2.18c0,.13-.06.18-.2.21a10.26,10.26,0,0,0-2.82,1.22.21.21,0,0,1-.29,0c-.61-.45-1.26-.92-2.11-1.52a1.1,1.1,0,0,0-1.52.14l-2,2.09a1.06,1.06,0,0,0-.09,1.65l.12.16c.42.57.85,1.14,1.28,1.7a.21.21,0,0,1,0,.29,10.85,10.85,0,0,0-1.22,2.85c0,.14-.08.16-.23.18-1,.13-1.77.23-2.49.34a1.07,1.07,0,0,0-1,1.1c0,1.15,0,2.17,0,3.11A1.21,1.21,0,0,0,34.27,32.94Zm6-8.23a1.25,1.25,0,0,0,0-1.6c-.46-.59-.92-1.18-1.39-1.76-.09-.11-.08-.14,0-.22l.49-.48c.09-.09.18-.19.28-.28a.39.39,0,0,1,.1-.08h0l.12.08.74.57,1.06.82a1,1,0,0,0,1.28,0,11.6,11.6,0,0,1,3.79-1.55,1.11,1.11,0,0,0,.93-1c.13-.82.25-1.62.35-2.38,0-.15,0-.15.16-.15h1.08c.14,0,.16,0,.18.14l.12,1c0,.35.1.7.14,1.05.1.86.41,1.17,1.41,1.42a11,11,0,0,1,3.19,1.39,1.18,1.18,0,0,0,1.49,0c.58-.42,1.2-.88,1.8-1.34.11-.08.15-.08.24,0s.47.49.77.77c.08.08.08.1,0,.18l-.76,1-.64.86a1,1,0,0,0-.06,1.32,11.49,11.49,0,0,1,1.58,3.8,1,1,0,0,0,.88.82c.39.08.8.14,1.19.19l.25,0,.39.05.65.1a.29.29,0,0,1,.1.09c0,.26,0,.53,0,.79v.4c0,.07,0,.1-.12.11l-1,.14-1,.13a1.66,1.66,0,0,0-1,.39,1.23,1.23,0,0,0-.33.56,12,12,0,0,1-1.48,3.61,1.29,1.29,0,0,0,.07,1.61l.23.32c.35.47.7,1,1.06,1.42.07.09.06.12,0,.2-.23.22-.51.48-.77.77-.08.09-.11.1-.24,0l-1.29-1-.55-.41a1,1,0,0,0-1.35-.05,11.28,11.28,0,0,1-3.75,1.56,1,1,0,0,0-.83.81c-.13.73-.25,1.51-.36,2.38,0,.17-.05.17-.17.17H48.15c-.1,0-.11,0-.13-.14-.1-.78-.21-1.62-.36-2.44a1.06,1.06,0,0,0-.87-.88,11,11,0,0,1-3.65-1.51,1.26,1.26,0,0,0-1.5.08l-.6.44L39.86,40c-.1.07-.13.07-.22,0-.25-.26-.5-.52-.77-.77-.08-.08-.09-.1,0-.2.27-.33.53-.67.79-1s.41-.54.62-.8a1.15,1.15,0,0,0,.08-1.34c-.37-.7-.78-1.51-1.16-2.33a4,4,0,0,1-.29-1c-.14-.86-.42-1.15-1.23-1.28-.63-.11-1.3-.2-2-.28-.22,0-.26-.06-.24-.25a9,9,0,0,0,0-1c0-.19,0-.23.24-.25.69-.09,1.51-.2,2.33-.36a1.08,1.08,0,0,0,.9-.95A8.08,8.08,0,0,1,40.3,24.71Z"/><path d="M72.47,47.06a3.44,3.44,0,0,0-3.85-1,8.59,8.59,0,0,0-1.57.87l-.18.12-8.11,5.3-3.28,2.14-2,1.33A1,1,0,0,0,53,57.23a1,1,0,0,0,.61.6,1.13,1.13,0,0,0,.95-.15l1.54-1,.22-.15L59,54.81l9.9-6.53a1.51,1.51,0,0,1,1.5-.17,1.83,1.83,0,0,1,1.16,1.65,2.2,2.2,0,0,1-.92,2.13c-.32.23-.66.45-1,.66l-.45.29-3.4,2.23-6,4-1,.65c-1.29.84-2.62,1.72-3.95,2.55-2.34,1.49-4.68,2.94-6.86,4.29-.15.1-.3.2-.46.29A7.23,7.23,0,0,1,44.84,68a5.29,5.29,0,0,1-2.66-.12c-.82-.28-1.64-.58-2.44-.87l-1-.37-2-.7L34.14,65l-1.41-.5c-.91-.33-1.83-.66-2.76-1l0,0a2.08,2.08,0,0,0-.88-.19c-.79,0-1.59.09-2.36.15l-1.25.09h-.26a1.57,1.57,0,0,1,0-.26q0-4.14,0-8.28V47c0-.44,0-.44.38-.5L26,46.4c.65-.11,1.32-.23,2-.31a13.61,13.61,0,0,1,5.37.25,6.28,6.28,0,0,1,3.34,2,3.48,3.48,0,0,0,2.82,1.33h.08c.88,0,1.77,0,2.63,0h7.68a1.63,1.63,0,0,1,1.34.66,2.43,2.43,0,0,1,.46,1.6,1.9,1.9,0,0,1-2,1.95h-10a2.74,2.74,0,0,0-1.38.34,3.13,3.13,0,0,0-1.58,2.07,3.49,3.49,0,0,0,.52,2.78,1,1,0,0,0,.62.36A1.06,1.06,0,0,0,39,59a1,1,0,0,0,0-1.18,1.48,1.48,0,0,1-.2-.88.93.93,0,0,1,.92-.9h4.92c1.76,0,3.52,0,5.28,0A3.41,3.41,0,0,0,52,55.29a4.42,4.42,0,0,0,1.48-4.86,4,4,0,0,0-3.84-2.88h-.08c-1.71,0-3.45,0-5.13,0H39.3A1.31,1.31,0,0,1,38.18,47a7.72,7.72,0,0,0-3.62-2.47,13.51,13.51,0,0,0-4.57-.7h-.12a24.79,24.79,0,0,0-4.56.5.36.36,0,0,1-.14,0s0,0,0-.15c0-.53,0-1.07,0-1.6a1,1,0,0,0-.64-1,2,2,0,0,0-.63-.07H13a1.15,1.15,0,0,0-.86.33,1.18,1.18,0,0,0-.33.88c0,2.89,0,5.82,0,8.66V58.5c0,2.8,0,5.59,0,8.39a1.23,1.23,0,0,0,.07.44A1.07,1.07,0,0,0,13,68H24a1,1,0,0,0,1.12-1.11c0-.31,0-.64,0-1,0-.09,0-.13,0-.14a.22.22,0,0,1,.15,0c1.06,0,2.19-.07,3.35-.14a2.41,2.41,0,0,1,1,.18l.48.19,3.94,1.39,2.53.9,2,.71,2.54.91a7.33,7.33,0,0,0,2.55.5h.17a7.05,7.05,0,0,0,3.55-1c1-.63,2.1-1.3,3.12-2l2.6-1.64c2.51-1.59,5.1-3.23,7.64-4.86,1.34-.86,2.68-1.75,4-2.61l2.32-1.53,2.09-1.36,2.7-1.77a3.89,3.89,0,0,0,1.67-2.72A4.14,4.14,0,0,0,72.47,47.06ZM14,43.93a.29.29,0,0,1,0-.18s.07,0,.19,0h8.56a.87.87,0,0,1,.28,0A1,1,0,0,1,23,44V65.68a1.43,1.43,0,0,1,0,.25H14a.66.66,0,0,1,0-.23V44.11A1.09,1.09,0,0,0,14,43.93Z"/><path d="M48.62,37.77h.1A7.47,7.47,0,0,0,54,35.61a7.58,7.58,0,0,0-5.2-13h-.1a7.63,7.63,0,0,0-7.59,7.51,7.63,7.63,0,0,0,7.53,7.67Zm.06-2.12h0a5.47,5.47,0,0,1,0-10.94h0a5.47,5.47,0,0,1,0,10.94Z"/></svg>