<svg id="Layer_1" data-name="Layer 1" xmlns="http://www.w3.org/2000/svg" viewBox="0 0 85.04 85.04"><path d="M72,24.09h-3.9V21.47c0-.54,0-1.09,0-1.63a1.26,1.26,0,0,0-1.4-1.36c-1.16,0-2.32,0-3.49,0h-.71V14.54c0-1.24-.37-1.61-1.61-1.61q-23.51,0-47,0a1.88,1.88,0,0,0-1.7.74V62.31a1.52,1.52,0,0,0,1.57.85c1.3,0,2.6,0,4,0V67c0,1.36.4,1.77,1.74,1.77H23.3v.6c0,1.22,0,2.45,0,3.67a1.21,1.21,0,0,0,1.27,1.29H72c1.33,0,1.68-.34,1.68-1.66V25.75C73.64,24.42,73.31,24.09,72,24.09ZM45.21,31.91,51.3,38l-14,14.14L31.19,46ZM21.36,52.2,15.21,46l14-14.11,6.13,6.25C30.76,42.74,26.06,47.48,21.36,52.2Zm24-4.32c2,2,4,4.07,6.15,6.18-.57.56-1.21,1.19-1.84,1.83-1.52,1.51-3,3-4.56,4.53a1,1,0,0,1-.59.31c-4,0-8,0-12,0ZM60,49.06V60.71H48.41Zm-.2-3.36c-2.13,2.19-4.3,4.36-6.41,6.49L47.24,46,60.05,33.12v.54q0,5.64,0,11.29A1.14,1.14,0,0,1,59.8,45.7ZM60,17.63q0,5.73,0,11.47a1.07,1.07,0,0,1-.25.68c-2.11,2.14-4.24,4.25-6.36,6.37a.45.45,0,0,1-.1.07c-2.07-2.07-4.12-4.14-6.15-6.16L60,17.14C60,17.35,60,17.49,60,17.63Zm-1.95-2.25L53.27,20.2l-4.79-4.82Zm-6.76,6.73-14,14.13-6.09-6.15L45.22,16Zm-9.2-6.75-4.91,4.91-4.88-4.91Zm-6.78,6.76-14,14.1-6.11-6.15,14-14.13ZM14.57,15.34h11.5L14.57,26.88Zm0,17.86,4.8,4.88-4.8,4.82Zm0,25.62V49.15L19.36,54Zm2,1.92-.1,0L29.33,47.79,35.49,54s-.1.13-.18.21q-3.12,3.12-6.25,6.23a1,1,0,0,1-.61.28C24.49,60.75,20.53,60.74,16.56,60.74ZM71.19,71.88H25.76V68.76h14a3.29,3.29,0,0,0,.83-.08,1.08,1.08,0,0,0,.9-1.12,1.09,1.09,0,0,0-.83-1.17,2.86,2.86,0,0,0-.83-.09H20.17V63.15H60.83c1.27,0,1.63-.37,1.63-1.65V21h3.11V66.3H51.48a2.5,2.5,0,0,0-.77.09,1.19,1.19,0,0,0,0,2.29,3.92,3.92,0,0,0,.84.08H66.31c1.36,0,1.76-.4,1.76-1.75V26.54h3.12Z"/><path d="M45.63,66.3a1.27,1.27,0,0,0-1.18,1.22,1.25,1.25,0,0,0,1.23,1.22,1.21,1.21,0,0,0,1.2-1.24A1.23,1.23,0,0,0,45.63,66.3Z"/></svg>