<svg id="Layer_1" data-name="Layer 1" xmlns="http://www.w3.org/2000/svg" viewBox="0 0 85.04 85.04"><defs><style>.cls-1{fill:#fff;}</style></defs><path d="M77.66,57.38c-.14-.25-.27-.52-.39-.79a6.44,6.44,0,0,0-1-1.71,7.65,7.65,0,0,0-1.74-1.27l-.85-.53c0-.31,0-.64,0-1,0-.83,0-1.77,0-2.69a6.56,6.56,0,0,0-6.38-6.33c-6,0-12.12,0-18,0H42.6a2,2,0,0,0-.42,0,1.12,1.12,0,0,0-.76.58,1.16,1.16,0,0,0-.05,1,1.21,1.21,0,0,0,1.27.74H66.82a4.19,4.19,0,0,1,4.45,4.06,34.25,34.25,0,0,1,0,3.51v.07c0,.1-.22.32-.4.38a5,5,0,0,0-3.2,3,8,8,0,0,0-.41,2.39c0,.78,0,1.59,0,2.36,0,.3,0,.6,0,.9H34.4V58.63a5.27,5.27,0,0,0-3.69-5.2.87.87,0,0,1-.34-.23q0-.63,0-1.26a19,19,0,0,1,.2-3.46,4,4,0,0,1,4-3.07h3.73a1.2,1.2,0,0,0,.84-.36,1.18,1.18,0,0,0-.73-1.94l-1.08,0a23.72,23.72,0,0,0-3.77.08A6.46,6.46,0,0,0,28,49.7q0,1.27,0,2.55v1a5.55,5.55,0,0,0-4,5.85c.07,3.16,0,6.38,0,9.49,0,1.35,0,2.7,0,4.05s.37,1.71,1.71,1.71H56.61A2,2,0,0,0,58,74a1.07,1.07,0,0,0,.28-.8c0-1.06-1-1.18-1.74-1.18H34.43V64.51H67.2V72H61.49c-.82,0-1.32.44-1.34,1.16s.47,1.19,1.33,1.24H76.07a1.82,1.82,0,0,0,1.58-.72l0,0V57.38Zm-8,11.86q0-5.44,0-10.9a2.79,2.79,0,0,1,2.11-2.7A2.83,2.83,0,0,1,75,57.15a3.19,3.19,0,0,1,.31,1.28c0,3.66,0,7.38,0,11v2.41s0,.06,0,.12v0H69.67v0a1.15,1.15,0,0,1,0-.26ZM26.3,58.56A3.09,3.09,0,0,1,27.64,56a2.77,2.77,0,0,1,2.62-.22A2.48,2.48,0,0,1,32,58c0,3.41,0,6.9,0,10.28,0,1.22,0,2.44,0,3.67H26.34s0,0,0-.06a1.69,1.69,0,0,1,0-.3V68.34C26.29,65.13,26.29,61.82,26.3,58.56Z"/><path d="M37,12.58c.5.47,1,1,1.52,1.4a1.13,1.13,0,0,0,.67.23H62.5a1,1,0,0,0,.62-.19c.53-.46,1-1,1.54-1.46l-.06-.18c-.88,0-1.76,0-2.63,0a3.86,3.86,0,0,1-1-.08.92.92,0,0,1-.73-1,.93.93,0,0,1,.74-.95,2.58,2.58,0,0,1,.68-.08H67c1.07,0,1.46.39,1.46,1.45V35.29c0,1.1-.34,1.45-1.44,1.45H34.66c-1.09,0-1.43-.35-1.43-1.46V11.73c0-1.13.37-1.5,1.48-1.5h22a1.37,1.37,0,0,1,.8.13,1.57,1.57,0,0,1,.62.94,1.45,1.45,0,0,1-.63.94,1.64,1.64,0,0,1-.93.13H37.07Zm2.44,14.11L40.92,25c.47-.51.92-1,1.39-1.53a2.69,2.69,0,0,1,3.67-.4,8.19,8.19,0,0,1,1,1l2.75,3.05.65-.73c1.59-1.76,3.16-3.53,4.77-5.27a2.9,2.9,0,0,1,4.43,0c.74.79,1.46,1.6,2.19,2.4.12.12.26.21.43.36V16.43H39.41Zm22.87,4c0-1.1,0-2.11,0-3.12a1.15,1.15,0,0,0-.32-.65c-1.24-1.39-2.49-2.76-3.74-4.14-.61-.67-1.05-.66-1.66,0l-3.27,3.64-2,2.26a3.35,3.35,0,0,0,3.91,2,10.4,10.4,0,0,1,1.58,0Zm-25.46,4h28c-.65-.62-1.15-1.12-1.69-1.58a1.2,1.2,0,0,0-.73-.26q-11.6,0-23.19,0a1.18,1.18,0,0,0-.73.26C38,33.48,37.46,34,36.82,34.6Zm13.08-4a.81.81,0,0,0-.09-.22c-1.63-1.81-3.25-3.62-4.89-5.43-.4-.43-.79-.36-1.17.06-1.36,1.52-2.74,3-4.08,4.57a3.34,3.34,0,0,0-.4,1ZM35.45,13.85V33.14c.57-.61,1-1.06,1.45-1.55a1.33,1.33,0,0,0,.31-.77q0-7.32,0-14.64a1.34,1.34,0,0,0-.31-.78C36.49,14.91,36,14.46,35.45,13.85ZM66.06,33l.15-.12V13.85c-.58.61-1,1.05-1.45,1.54a1.59,1.59,0,0,0-.34.84c0,4.85,0,9.71,0,14.57a1,1,0,0,0,.17.62C65.05,32,65.57,32.5,66.06,33Z"/><path d="M22.27,32.5v.84c0,3.47,0,6.95,0,10.43,0,.29,0,.67-.14.85a1.61,1.61,0,0,1-1,.6c-.31,0-.67-.4-.88-.71a1.79,1.79,0,0,1-.09-.88V32.55H17.57V68.32c.59.05,1.16.07,1.72.16A4.55,4.55,0,0,1,23.14,73a1.09,1.09,0,0,1-1.22,1.25H11c-.89,0-1.32-.53-1.25-1.44a4.69,4.69,0,0,1,4.68-4.44h.92V32.5H8.3C7,32.5,6.65,32,6.94,30.78q1.72-7.62,3.47-15.23c.19-.84.48-1.07,1.34-1.07h9.46a1.1,1.1,0,0,1,1.3,1Q24.28,23.27,26,31c.21.94-.2,1.46-1.17,1.49S23.17,32.5,22.27,32.5Zm1.46-2.15L20.59,16.59H12.34L9.19,30.35ZM20.78,72.09a2.15,2.15,0,0,0-1.92-1.53c-1.61,0-3.21,0-4.82,0a2,2,0,0,0-1.85,1.53Z"/><path class="cls-1" d="M36.82,34.6C37.46,34,38,33.48,38.5,33a1.18,1.18,0,0,1,.73-.26q11.6,0,23.19,0a1.2,1.2,0,0,1,.73.26c.54.46,1,1,1.69,1.58Z"/><path d="M49.71,23.33a2.93,2.93,0,0,1-2.92-2.94,3,3,0,0,1,3-2.93,2.94,2.94,0,1,1,0,5.87Zm-.78-3c0,.58.29.89.79.91a.77.77,0,0,0,.85-.8.75.75,0,0,0-.79-.84A.76.76,0,0,0,48.93,20.32Z"/></svg>