<svg id="Layer_1" data-name="Layer 1" xmlns="http://www.w3.org/2000/svg" viewBox="0 0 85.04 85.04"><path d="M7.64,57.13a6.71,6.71,0,0,1,1.08-3.49,5.76,5.76,0,0,1,3-2.07c.46-.13.61-.1.61-.58,0-3.23.05-6.46,0-9.69a3.74,3.74,0,0,1,3.9-3.9q16.1.08,32.18,0a3.71,3.71,0,0,1,3.89,3.9c-.05,3.23,0,6.46,0,9.7,0,.32,0,.63.4.74A5.86,5.86,0,0,1,57,57.65q0,9.08,0,18.15c0,1.12-.44,1.53-1.55,1.53H51.37c-1.07,0-1.49-.42-1.49-1.51s0-2,0-3.13H14.68v2.5c0,.34,0,.69,0,1a1.1,1.1,0,0,1-1.16,1.1c-1.56,0-3.12.05-4.67,0-.41,0-1.13,0-1.19-.66Zm46.89,6c0-2.16,0-4.28,0-6.41a2,2,0,0,0-.3-.9,3.7,3.7,0,0,0-3.69-2q-18.21,0-36.44,0c-.3,0-.6,0-.89,0a3.21,3.21,0,0,0-3.08,2.89c-.16,2-.09,4-.12,6a1.17,1.17,0,0,0,0,.32ZM12.32,75V72.11c0-1.51.3-1.82,1.79-1.82H50.49c1.46,0,1.77.31,1.77,1.77v2.88h2.25V65.66H10V75ZM49.88,51.45V41.52c0-1.4-.34-1.75-1.74-1.75H16.44c-1.38,0-1.76.37-1.76,1.75v9.21c0,.22,0,.45,0,.7H17c0-1.54,0-3,0-4.52a3.37,3.37,0,0,1,3.19-3.56,77.05,77.05,0,0,1,7.75,0,3.37,3.37,0,0,1,3.19,3.57c0,1.28,0,2.57,0,3.85,0,.22,0,.44,0,.66h2.27v-.87c0-1.35,0-2.7,0-4.05a3.23,3.23,0,0,1,3-3.14c2.56-.13,5.13-.16,7.69-.06A3.31,3.31,0,0,1,47.44,46a6.15,6.15,0,0,1,.1,1.43c0,1.34,0,2.69,0,4.05Zm-14,0h9.35c0-1.56,0-3.07,0-4.58A1.1,1.1,0,0,0,44,45.68c-2.34,0-4.67,0-7,0a1.08,1.08,0,0,0-1.15,1.11C35.82,48.32,35.84,49.85,35.84,51.43Zm-7.13,0c0-1.62,0-3.17,0-4.72a1,1,0,0,0-1.06-1c-2.38,0-4.77,0-7.15,0-.68,0-1.07.45-1.09,1.24,0,1.09,0,2.19,0,3.29v1.23Z"/><path d="M8.81,37.44h0a1.17,1.17,0,0,1-1.17-1.18V22.85A8.87,8.87,0,0,1,8.85,22Q25.37,14.59,41.91,7.19l.53-.29h.83c2.11,1,4.23,1.94,6.35,2.89Q63.26,15.93,76.91,22a1.73,1.73,0,0,1,1.18,1.83l0,12.36a1.17,1.17,0,0,1-1.17,1.17h0a1.17,1.17,0,0,1-1.17-1.17V24.7a.77.77,0,0,0-.52-.83L43.3,9.59a1.24,1.24,0,0,0-.89,0q-16,7.13-31.91,14.28a.89.89,0,0,0-.53.81V36.26A1.17,1.17,0,0,1,8.81,37.44Z"/><path d="M76.9,70.28h0a1.17,1.17,0,0,1-1.17-1.17V63.32h-14v5.77a1.17,1.17,0,0,1-1.17,1.17h-.08a1.18,1.18,0,0,1-1.17-1.17l0-15.9c0-1.49.56-1.81,2.4-1.68l13.63,0c2.27,0,2.79,0,2.79,1.62v16A1.17,1.17,0,0,1,76.9,70.28Zm-1.21-9.45v-6.9h-14v6.9Z"/><path d="M65.19,48v-.05a1.16,1.16,0,0,1,1.16-1.16h1.1V43.32h-3A1.47,1.47,0,0,1,63,41.26l2-6c.47-1.41.56-1.35,2.62-1.35.91,0,2,0,2.9,0s1.41.2,1.71,1.07q1.08,3.24,2.15,6.5c.38,1.17-.14,1.86-1.39,1.88h-3.1v3.47H71A1.16,1.16,0,0,1,72.18,48h0A1.15,1.15,0,0,1,71,49.11l-4.67,0A1.17,1.17,0,0,1,65.19,48Zm6.5-7.13c-.27-.81-.51-1.59-.77-2.36s-.67-2.09-.76-2.16-1.69,0-2.51,0a3.23,3.23,0,0,0-.44,0c0,.08-.07.16-.12.3-.49,1.4-.94,2.81-1.43,4.26Z"/><path d="M71,58.54H66.37V56.21H71Z"/></svg>