<svg id="Layer_1" data-name="Layer 1" xmlns="http://www.w3.org/2000/svg" viewBox="0 0 85.04 85.04"><path d="M71.53,59.77c.86-1.75,1.49-3.6,2.22-5.4.6-1.46,1.19-2.93,1.79-4.42a1.18,1.18,0,0,1,1.53-.66h0a1.18,1.18,0,0,1,.65,1.53L74.17,59.7H78.4a9.91,9.91,0,0,1-2.37,6A9.29,9.29,0,0,1,68.82,69H63.07a6,6,0,0,1-2.51,3.68,5.88,5.88,0,0,1-3.65,1A5.94,5.94,0,0,1,51.63,69H48.09v9.22H13.3c0-1.68,0-3.37,0-5a1.33,1.33,0,0,0-.75-1.35c-5.28-3.31-7.26-8.55-5.73-15.76A21.64,21.64,0,0,1,10.34,48a19.65,19.65,0,0,1,10-7.35c1.38-.45,1.38-.44,1.72-1.73a25.43,25.43,0,0,1-2.72-2,4.28,4.28,0,0,0-2.58-1.57,4.59,4.59,0,0,1-3.48-4.44c0-1.93,0-3.86,0-5.77C11.55,24.65,11,23.93,11,22.15v-1.3c0-1.89.62-2.63,2.5-2.92a13.82,13.82,0,0,1,5.66-9,14.2,14.2,0,0,1,7.71-2.55A14,14,0,0,1,41,17.94c1.8.26,2.45,1,2.45,2.84a11.43,11.43,0,0,0,0,1.31A2.51,2.51,0,0,1,41.12,25c0,1.9,0,3.8,0,5.71a4.62,4.62,0,0,1-4.57,4.65,1,1,0,0,0-.69.33,6.11,6.11,0,0,1-3.55,2.91,2,2,0,0,0,1.54,1.92,19.46,19.46,0,0,1,9,5.9l.34.38a1.68,1.68,0,0,0,.18.1V41.22h4.66V27.3h4.62V23.84a1.16,1.16,0,0,1,1.15-1.16h0A1.15,1.15,0,0,1,55,23.84v3.38h2.33V21.5a1.16,1.16,0,0,1,1.15-1.15h0a1.16,1.16,0,0,1,1.16,1.15v5.73H62V23.84a1.15,1.15,0,0,1,1.15-1.15h0a1.14,1.14,0,0,1,1.15,1.15v3.4h4.65V45.8h2.32V59.7Zm-50.14-17-.78.27A18.13,18.13,0,0,0,8.7,61.39a10.09,10.09,0,0,0,6.36,9.1c2.78,1.25,5.72.74,8.67.84,0-.78,0-1.47,0-2.17a.63.63,0,0,0-.4-.43c-1.1-.28-2.2-.5-3.31-.75a8,8,0,0,1-6.44-6A13.58,13.58,0,0,1,13.31,59c0-.9,0-1.81,0-2.71a1.17,1.17,0,0,1,1.16-1.15h0a1.15,1.15,0,0,1,1.16,1.16c0,1.24,0,2.46,0,3.67a5.81,5.81,0,0,0,5.76,5.77ZM50.45,29.63V41.2h9.23v4.57h6.91V29.63ZM42.87,59.18a3.19,3.19,0,0,0,.38.6l.19-.1c0-2.72,0-5.45,0-8.18a1.49,1.49,0,0,0-.25-.65A17.53,17.53,0,0,0,39,46a17.72,17.72,0,0,0-6-3.22V66.62c2.18.38,3.41,1.64,3.45,3.45a3.41,3.41,0,0,1-.77,2.28,3.57,3.57,0,0,1-2.66,1.34v2.24H38.8v-.81c0-2.72,0-5.45,0-8.18a2.66,2.66,0,0,0-.58-1.77,9.63,9.63,0,0,1-1.93-5.46h4.22L37,50.81a1.17,1.17,0,0,1,.66-1.52h0a1.16,1.16,0,0,1,1.51.65ZM20.25,25v7.76a3.55,3.55,0,0,0,3.8,3.8h6.3a3.56,3.56,0,0,0,3.82-3.86V25ZM57.3,59.7V43.56H45.79V59.7Zm18.13,2.39H39.27a6.56,6.56,0,0,0,5.33,4.44c2.26.19,4.53.13,6.8.14.18,0,.43-.24.54-.43a3.49,3.49,0,0,1,3.2-1.87c1.45,0,2.89,0,4.34,0a3.53,3.53,0,0,1,3.31,1.93.79.79,0,0,0,.51.38c2.26,0,4.54,0,6.79-.15A6.57,6.57,0,0,0,75.43,62.09ZM27.21,50c-1.1,1.37-2.13,2.63-3.13,3.93a1.72,1.72,0,0,0-.33,1c0,3.51,0,7,0,10.51v.86c.58.39.94.17,1.3-.24a4,4,0,0,1,2.7-1.66c1-.06,1.92,0,2.93,0,0,0,0-.07,0-.16q0-4.76,0-9.49a.92.92,0,0,0-.15-.54C29.46,52.83,28.37,51.48,27.21,50Zm32.51-1.86V59.68h9.19V48.17ZM41.09,20.37H13.36V22.6H41.09ZM38.5,18c-.79-4.65-4.91-8.08-7.76-8.57V18H38.1ZM23.71,9.34C19.58,10.43,16.32,14.55,16,18h7.73ZM41.14,75.92h4.57V69.23L41.14,68ZM27.21,46c.85-1.26,1.55-2.5,2.44-3.59A2.57,2.57,0,0,0,30,39.34a.68.68,0,0,0-.74-.48c-1.11,0-2.22,0-3.33,0-1.36,0-1.37,0-1.78,1.31-.1.32-.28.78-.14,1C25,42.78,26.1,44.35,27.21,46Zm3.47,23c0-.44,0-.78,0-1.11a1.14,1.14,0,0,0-1-1.17,2.92,2.92,0,0,0-1.64,0,4.28,4.28,0,0,0-1.91,1.71,8.21,8.21,0,0,0-.08,2.86c2.34,0,4.59,0,6.83,0a1.2,1.2,0,0,0,1.27-1.13A1.21,1.21,0,0,0,32.86,69C32.16,69,31.47,69,30.68,69Zm26.67-2.32H55.18a1.24,1.24,0,0,0-1.28,1.54,3.47,3.47,0,0,0,6.9,0,1.23,1.23,0,0,0-1.28-1.53C58.8,66.67,58.07,66.69,57.35,66.69ZM26.09,8.8V18h2.25V8.8ZM23.77,73.68v2.24h6.86V73.68ZM21.35,76V73.75l-5.68-.38V76ZM36.52,33a2.33,2.33,0,0,0,2.28-2.34,2.25,2.25,0,0,0-2.28-2.18Zm-18.6-4.56a2.31,2.31,0,0,0-2.29,2.42A2.24,2.24,0,0,0,17.92,33Zm7.83,19.6-2-2.94v5.41Zm4.92-3-2,3,2,2.5Zm8.09-18.47V25H36.53v1ZM15.66,25V26.6l2.23-.6V25Z"/><path d="M62,38.81V36.6h2.26v2.21Z"/><path d="M57.38,38.81V36.59h2.23v2.22Z"/><path d="M52.73,38.81V36.6H55v2.21Z"/><path d="M62.05,31.93h2.2v2.25h-2.2Z"/><path d="M59.63,34.2H57.4V32h2.23Z"/><path d="M52.74,34.17V32H55v2.22Z"/><path d="M64.26,43.47H62V41.24h2.23Z"/><path d="M55,57.38H52.75V45.88H55Z"/><path d="M48.11,57.38V45.88h2.24v11.5Z"/><path d="M66.59,50.51v2.23H62.05V50.51Z"/><path d="M66.58,57.38H62V55.14h4.54Z"/></svg>