<svg id="Layer_1" data-name="Layer 1" xmlns="http://www.w3.org/2000/svg" viewBox="0 0 85.04 85.04"><path d="M46.41,40.5c-2.18,0-4.44,0-6.7,0-1.27,0-1.65-.71-1.37-1.83a4.66,4.66,0,0,1,2.44-2.88,12.32,12.32,0,0,1,6-1.61c1.31,0,2.62.15,3.93.23h.45c0-.24-.05-.45-.07-.66a15.6,15.6,0,0,1,1.11-9.14,5,5,0,0,1,3.18-3c1-.28,1.89,0,1.85,1.41-.07,2.48,0,5,0,7.42,1.12-.93,2.18-1.92,3.35-2.75a8.48,8.48,0,0,1,5.55-1.91,4.83,4.83,0,0,1,2.06.71c.88.53.89,1.23.16,2l-5.31,5.32c-.14.14-.26.28-.52.56,1.56,0,3-.1,4.37,0a10.54,10.54,0,0,1,5.34,1.89,4,4,0,0,1,1.88,3c.05.85-.36,1.26-1.21,1.26H62.67c.26.65.52,1.24.75,1.84A35.53,35.53,0,0,1,65.68,54.7a.84.84,0,0,0,.54.89A16.37,16.37,0,0,1,74,64.33,1,1,0,0,1,73,65.83c-2.75,0-5.49,0-8.24,0H64c.35.39.65.67.9,1a3.35,3.35,0,0,1,0,4.36,7.51,7.51,0,0,1-3.74,2.35,14.5,14.5,0,0,1-4.85.74c-.73,0-1.17-.4-1.17-1s.41-1,1.15-1.07a13.38,13.38,0,0,0,4.88-.92,7.12,7.12,0,0,0,1.38-.76c1.33-1,1.38-2,0-2.93a9.9,9.9,0,0,0-3-1.28,16.59,16.59,0,0,0-3.78-.42q-21.54,0-43.06,0h-.82V63.72H37.06a1.2,1.2,0,0,0,1-.5,15.36,15.36,0,0,1,8.52-5.15c1.57-.37,3.2-.46,4.81-.69a1.37,1.37,0,0,0,.6-.19A13.78,13.78,0,0,1,59,54.3c.13,0,.25-.07.36-.09.24-2.35-1-8.33-2.07-10.25a3.42,3.42,0,0,1-2.57.75,3.36,3.36,0,0,1-2.25-1.41l-5,5c-.94.94-1.66.85-2.34-.32a4.41,4.41,0,0,1-.28-3.7C45.25,43,45.86,41.8,46.41,40.5ZM49.5,63.68H71.33c-1.66-3.5-5.62-7.33-10.91-7.33S51.23,60.07,49.5,63.68Zm5.07-25.31c-3.13-2.93-11.38-2.53-13.53,0Zm16.85,0c-2.9-2.84-11.16-2.61-13.51,0ZM59.94,44.8a34.83,34.83,0,0,1,1.66,9.43l1.95.33a33.73,33.73,0,0,0-1.87-10.68Zm-3.57-8.09A18.43,18.43,0,0,0,58.72,35c2.26-2.18,4.46-4.43,6.68-6.65l.46-.51C62.19,28,56.75,33.09,56.37,36.71ZM55.14,24.33l-.2-.1A16.56,16.56,0,0,0,54,26a14,14,0,0,0-.43,8.72.84.84,0,0,0,.87.75,7.08,7.08,0,0,0,.71-2C55.19,30.43,55.14,27.38,55.14,24.33ZM49.3,59.77c-2.65.09-7.22,2.06-8.61,3.95,2.05,0,4.06,0,6.08,0a.58.58,0,0,0,.39-.25C47.88,62.24,48.58,61,49.3,59.77ZM46.69,45.69l5.17-5.17c-2.59-.17-3,0-4.23,2.45A7.81,7.81,0,0,0,47,44.29C46.88,44.79,46.78,45.32,46.69,45.69Zm9.5-4.14a1.1,1.1,0,0,0-1.07-1,1.05,1.05,0,1,0,1.07,1Zm4.22,0a1.11,1.11,0,0,0-1.08-1,1.05,1.05,0,0,0,0,2.1A1.11,1.11,0,0,0,60.41,41.54Z"/><path d="M22.44,22.52a5.27,5.27,0,1,1,5.21,5.32A5.22,5.22,0,0,1,22.44,22.52Zm8.43,0a3.16,3.16,0,1,0-3.12,3.17A3.21,3.21,0,0,0,30.87,22.55Z"/><path d="M24.54,72.17h7.32a1,1,0,0,1,1.09.77,1,1,0,0,1-.42,1.15,1.43,1.43,0,0,1-.74.19q-7.24,0-14.49,0c-.77,0-1.21-.41-1.19-1.08s.45-1,1.19-1C19.71,72.16,22.13,72.17,24.54,72.17Z"/><path d="M26.65,43.36q2.31-1.45,4.05-.09a3,3,0,0,1,1.23,2.44,1.06,1.06,0,0,1-2.11.19c-.13-.76-.48-1.15-1-1.17s-.95.39-1.09,1.17a1,1,0,0,1-1.09.93,1,1,0,0,1-1-.92c-.14-.79-.52-1.19-1.08-1.18s-.9.41-1,1.16a1.06,1.06,0,0,1-2.11-.17A3.16,3.16,0,0,1,26,43C26.22,43.08,26.41,43.22,26.65,43.36Z"/><path d="M18.21,49.69c1.56-1,2.95-1,4.1,0A3.05,3.05,0,0,1,23.49,52a1,1,0,0,1-1,1.12,1,1,0,0,1-1.15-.93c-.14-.78-.52-1.19-1.09-1.16s-.89.4-1,1.16a1,1,0,0,1-1.08.93,1,1,0,0,1-1-.92c-.14-.79-.51-1.19-1.08-1.17s-.9.4-1,1.15a1.06,1.06,0,0,1-2.11-.16,3.16,3.16,0,0,1,4.62-2.76C17.77,49.41,18,49.55,18.21,49.69Z"/><path d="M31.93,67.94H37c.83,0,1.28.39,1.26,1.08s-.46,1-1.26,1H26.86c-.83,0-1.28-.39-1.26-1.08s.46-1,1.26-1Z"/><path d="M16,70.05c-1.33,0-2.67,0-4,0a1,1,0,0,1-1.19-1c0-.67.42-1.08,1.19-1.08q4.1,0,8.17,0c.74,0,1.17.38,1.19,1s-.43,1.08-1.2,1.08C18.8,70.06,17.42,70.05,16,70.05Z"/><path d="M47.73,70.05c-1.34,0-2.68,0-4,0-.78,0-1.22-.39-1.23-1s.44-1,1.22-1q4,0,8.1,0c.78,0,1.23.38,1.23,1s-.44,1.06-1.22,1.06C50.45,70.06,49.09,70.05,47.73,70.05Z"/><path d="M40.43,72.17c.68,0,1.36,0,2,0a1.05,1.05,0,1,1,0,2.1c-1.41,0-2.81,0-4.21,0a1.05,1.05,0,1,1,0-2.1C39,72.15,39.7,72.17,40.43,72.17Z"/><path d="M22.82,28.31c0,.88-2,2.88-2.59,2.78a1.38,1.38,0,0,1-.91-.61,1.21,1.21,0,0,1,.11-1.08,9.88,9.88,0,0,1,1.71-1.71,1.27,1.27,0,0,1,1.08-.08C22.52,27.74,22.7,28.15,22.82,28.31Z"/><path d="M22.89,16.73c-.19.24-.37.65-.67.78a1.24,1.24,0,0,1-1.08-.08,12.63,12.63,0,0,1-1.73-1.7.93.93,0,0,1,.06-1.32.88.88,0,0,1,1.24-.24,24.91,24.91,0,0,1,2,2C22.8,16.25,22.8,16.44,22.89,16.73Z"/><path d="M33.45,27.45c.87,0,2.84,1.92,2.76,2.54a1.3,1.3,0,0,1-.58.93,1.32,1.32,0,0,1-1.13-.11,8.07,8.07,0,0,1-1.62-1.63,1.39,1.39,0,0,1-.12-1.13C32.87,27.75,33.3,27.57,33.45,27.45Z"/><path d="M33.76,17.66a1.06,1.06,0,0,1-1-1.58,13,13,0,0,1,1.84-1.87.93.93,0,0,1,1.27.13.85.85,0,0,1,.22,1.18,25.92,25.92,0,0,1-2,2A.68.68,0,0,1,33.76,17.66Z"/><path d="M28.76,13.13c0,.35,0,.7,0,1a1.05,1.05,0,0,1-2.1,0c0-.74,0-1.49,0-2.23a1.05,1.05,0,0,1,2.1,0,.56.56,0,0,1,0,.13Z"/><path d="M18.21,23.62c-.37,0-.75,0-1.12,0a1,1,0,0,1-1-1.08,1,1,0,0,1,1-1c.74,0,1.49,0,2.23,0a1,1,0,0,1,1,1,1,1,0,0,1-1,1.08C19,23.63,18.58,23.62,18.21,23.62Z"/><path d="M37.19,23.62c-.35,0-.7,0-1,0a1,1,0,0,1,0-2.09c.72,0,1.44,0,2.17,0a1.05,1.05,0,0,1,0,2.1C37.93,23.63,37.56,23.62,37.19,23.62Z"/><path d="M28.76,32.08c0,.35,0,.7,0,1.05a1.05,1.05,0,0,1-2.1,0c0-.74,0-1.49,0-2.23a1,1,0,0,1,1-1,1,1,0,0,1,1.07,1C28.78,31.33,28.76,31.7,28.76,32.08Z"/></svg>