<svg id="Layer_1" data-name="Layer 1" xmlns="http://www.w3.org/2000/svg" viewBox="0 0 85.04 85.04"><defs><style>.cls-1{fill:#1d1d1b;}</style></defs><path class="cls-1" d="M77.31,65.45,75,54.94c-1.88-8.56-3.83-17.41-5.77-26.1a11.44,11.44,0,0,0-8.69-9.09c-3-.83-5.74-1.54-8.2-2.15-.5-.13-.58-.31-.57-.77,0-1.07,0-2.16,0-3.21V12.9c0-1.15-.43-1.57-1.57-1.58H35.08c-1.1,0-1.53.43-1.54,1.53v.77c0,1,0,2.06,0,3.09,0,.52-.07.76-.67.9-1.63.41-3.28.85-4.88,1.28-1,.27-2,.55-3,.81a11.43,11.43,0,0,0-8.87,9.08c-2,8.89-4,17.94-5.9,26.69Q9.08,60.52,8,65.54c-.2.88.14,1.39,1.07,1.61l9.61,2.19c1.17.26,1.59,0,1.85-1.15l.88-3.83L24.9,49c.13-.58.27-1.15.41-1.72L25.4,47V72.63c0,1.4.36,1.76,1.75,1.76h31c1.43,0,1.78-.35,1.78-1.8V46.9l3.52,15.4q.69,3,1.39,6.06a1.2,1.2,0,0,0,1.57,1q4.95-1.12,9.89-2.27C77.22,66.93,77.52,66.42,77.31,65.45ZM19.1,64l-.67,2.92-8-1.82.64-2.92Zm9-15.38a2.84,2.84,0,0,1-.31-1.24c0-2.6,0-5.24,0-7.79V37c0-.15,0-.3,0-.44a1.17,1.17,0,0,0-1.07-1.21h-.14a1.14,1.14,0,0,0-1.13,1c-.19.8-.37,1.61-.55,2.42-.12.56-.25,1.12-.38,1.68l-4.8,21a1,1,0,0,1-.07.17.25.25,0,0,1,0,.07l-8-1.81.84-3.82c.29-1.33.6-2.7.92-4a.78.78,0,0,1,.43-.46c3.24-1,5.25-3.39,6-7a8.45,8.45,0,0,0-1.67-7.49L18,37a.81.81,0,0,0-.26-.26c-.83-.47-.85-1.11-.59-2.12s.45-1.94.66-2.89.4-1.85.63-2.77a9.06,9.06,0,0,1,6.7-6.88c2.74-.78,5.56-1.49,8.28-2.18l.62-.15a1.26,1.26,0,0,1,.9.15c1.16.71,2.33,1.45,3.46,2.16.88.56,1.75,1.11,2.63,1.65a.82.82,0,0,1,.47.82q0,20.76,0,41.53v6H36.88c-1,0-1,0-1.22-1l-.47-2.64c-.53-2.93-1.07-6-1.62-8.92a4.26,4.26,0,0,0-.45-1.18c-.65-1.26-1.31-2.51-2-3.76C30.14,52.58,29.09,50.58,28.08,48.61ZM41.51,21.19h0a1.46,1.46,0,0,1-.28-.13l-.92-.57c-1.31-.82-2.66-1.67-4-2.53a1.14,1.14,0,0,1-.42-.75c0-.62,0-1.26,0-1.93,0-.21,0-.42,0-.64l.54.34,1.13.71,1.17.74,1.89,1.19a1.79,1.79,0,0,1,.88,1.53c0,.49,0,1,0,1.51ZM17.59,43.49C17.23,46.19,16.09,48,14,49l2.3-10.4A5.81,5.81,0,0,1,17.59,43.49Zm10.23,9.64c.31.59.62,1.18.94,1.77.85,1.58,1.73,3.21,2.45,4.88a10.33,10.33,0,0,1,.59,2.68c.05.42.11.85.18,1.26L33.49,72H27.82ZM46.4,13.75l-3.73,2.43-3.76-2.43ZM74.86,65.09l-8,1.82L66.21,64l8-1.83C74.44,63.19,74.64,64.11,74.86,65.09ZM53.46,63c0-.14.06-.29.08-.43.07-.35.14-.71.18-1.08A9.54,9.54,0,0,1,55,58c.65-1.17,1.27-2.38,1.88-3.55l.69-1.33V72H51.82C52.38,68.94,52.92,66,53.46,63ZM67.82,44A6.13,6.13,0,0,1,69,38.64L69.32,40c.28,1.26.57,2.52.84,3.77s.56,2.56.85,3.88l.27,1.27A6.42,6.42,0,0,1,67.82,44ZM57.56,39.18v2c0,2,0,4.18,0,6.27a2.44,2.44,0,0,1-.27,1c-.29.57-.58,1.15-.88,1.72-1,2.06-2.14,4.2-3.3,6.24a16.15,16.15,0,0,0-1.82,5.43c-.54,3.19-1.15,6.43-1.74,9.55l0,.16a.69.69,0,0,1-.32.39c-1.44,0-2.86,0-4.36,0h-1V64.65c0-13.09,0-26.62,0-39.93a1.16,1.16,0,0,1,.66-1.15c1.08-.66,2.17-1.35,3.23-2l2.74-1.72a1.1,1.1,0,0,1,.76-.13l1.45.37c2.52.64,5.12,1.3,7.66,2a9,9,0,0,1,6.63,7c.47,2,.9,4.06,1.32,6l.09.41a.69.69,0,0,1-.1.49c-2.54,2.16-3.4,5-2.63,8.69a8.33,8.33,0,0,0,6,6.81.53.53,0,0,1,.32.24c.52,2.3,1,4.55,1.54,6.94l.25,1.14-1.91.44-5.71,1.31a.42.42,0,0,1-.32,0c-.09,0-.13-.19-.18-.41q-2.22-9.72-4.45-19.45l-.9-4-.09-.38c-.07-.29-.14-.59-.2-.89-.16-.79-.58-1.19-1.26-1.19h0c-.66,0-1.1.55-1.12,1.41q0,.81,0,1.62ZM49.4,17.44a.51.51,0,0,1-.18.37c-1.49,1-3,1.89-4.54,2.87l-.86.54c0-.2,0-.39,0-.59a10.56,10.56,0,0,1,.05-1.7,1.87,1.87,0,0,1,.68-1.17c1.18-.81,2.38-1.57,3.66-2.37.4-.25.81-.5,1.22-.77v.63C49.42,16,49.42,16.73,49.4,17.44Z"/></svg>