<svg id="Layer_1" data-name="Layer 1" xmlns="http://www.w3.org/2000/svg" viewBox="0 0 85.04 85.04"><path d="M58.68,72.07,54.28,70c-.23-.12-.39-.19-.64,0a4.78,4.78,0,0,1-5.87.79l-19.7-9.85-8.65-4.32a4.58,4.58,0,0,1-2.87-4,3.28,3.28,0,0,0-1-2.52,2.87,2.87,0,0,1-.64-1.72,79.79,79.79,0,0,1-.36-12.07A24.66,24.66,0,0,1,17.18,26a.55.55,0,0,0-.05-.7c-.83-1.09-1.63-2.2-2.44-3.3-.68-.93-.54-1.59.47-2.13,1.28-.7,2.58-1.37,3.88-2a1.2,1.2,0,0,1,1.52.16,1.13,1.13,0,0,1-.39,1.85c-.86.47-1.75.91-2.63,1.36l-.41.21c.62.85,1.22,1.68,1.83,2.49,1.21,1.61,1.13,1.48.23,3.32a22.59,22.59,0,0,0-1.66,4.58,6.26,6.26,0,0,0,.26,2.69,21.3,21.3,0,0,0,3.48,7.36A67.78,67.78,0,0,0,34.38,55.54,53,53,0,0,0,43.61,62c5,2.6,10.11,5.08,15.16,7.62a1.64,1.64,0,0,0,1.42-.06A15.25,15.25,0,0,0,65,66a5.88,5.88,0,0,0,1.74-3.19L66,62.49c-5.16-2-10.32-4-15.27-6.53a41.7,41.7,0,0,1-9.43-6.15,27.78,27.78,0,0,1-5.14-6,10,10,0,0,1-1-9.41,6.2,6.2,0,0,1,7-3.87c2.33.47,4.61,1.21,6.89,1.89,3.33,1,6.64,2,10,3l.56.14c-.52-1.08-.91-2-1.43-3a27.43,27.43,0,0,0-8.23-8.72,44.33,44.33,0,0,0-14.21-6.65,21.4,21.4,0,0,0-3.58-.85,13.14,13.14,0,0,0-3,.33c-.52.07-1,.24-1.55.35a1.2,1.2,0,0,1-1.49-.81A1.11,1.11,0,0,1,27,14.9a55.44,55.44,0,0,1,5.54-1,44.25,44.25,0,0,1,6.09-.25C46.32,13.91,53.41,16,59.5,21A26.39,26.39,0,0,1,68.38,34.2a53.85,53.85,0,0,1,2.07,11,60.43,60.43,0,0,1,0,10.42,33.31,33.31,0,0,1-1.94,9.27,6.65,6.65,0,0,1-1.22,2,18.44,18.44,0,0,1-5.18,4.33c-.64.34-1.35.56-2,.84Zm8.66-11.54a2.54,2.54,0,0,0,.12-.37c.23-1.66.54-3.3.68-5a58.29,58.29,0,0,0-.51-14.15.76.76,0,0,0-.63-.71L54.83,36.6l-5.71-1.74c0,.21-.1.37-.13.54Q47.88,43,46.78,50.66a.65.65,0,0,0,.23.52c.58.4,1.18.76,1.79,1.11C54.69,55.64,61,58,67.34,60.53ZM44.56,49.48a1.19,1.19,0,0,0,.07-.23q.69-4.57,1.36-9.17c.27-1.82.54-3.64.79-5.46,0-.17-.1-.5-.21-.53-1.6-.47-3.19-1-4.82-1.3a4,4,0,0,0-4.56,2.77,7.65,7.65,0,0,0,.74,6.67,25.76,25.76,0,0,0,5,5.94C43.46,48.62,44,49,44.56,49.48ZM67,37.94c-.29-1-.54-2-.81-2.91A24.72,24.72,0,0,0,54.63,20.38a31.78,31.78,0,0,0-11.37-4c-1.13-.18-2.28-.27-3.42-.4a1.46,1.46,0,0,0,.64.39,43.68,43.68,0,0,1,13.19,7.53c3.89,3.31,7.06,7.12,8.38,12.2a.6.6,0,0,0,.33.38C63.88,37,65.38,37.43,67,37.94Zm-50.18.8c-.05.1-.08.13-.08.16q.21,4.62.4,9.22A1.29,1.29,0,0,0,18,49.24q6.12,3,12.21,6.09l.42.18C25.24,50.58,20.17,45.42,16.84,38.74Zm2,13.47c.05.29.06.47.11.65a2.74,2.74,0,0,0,1.62,1.72l17.63,8.81,10.65,5.33a2.61,2.61,0,0,0,2.85-.08Z"/><path d="M59.38,68.22a2.27,2.27,0,0,1-.43-.11c-1.4-.69-2.79-1.37-4.17-2.09a1.11,1.11,0,0,1-.6-1.39,1.09,1.09,0,0,1,1.51-.69c1.46.68,2.9,1.41,4.32,2.15a1.06,1.06,0,0,1,.53,1.31A1.11,1.11,0,0,1,59.38,68.22Z"/><path d="M25,19.45a3.76,3.76,0,0,1,.88.62c.56.67,1.06,1.39,1.56,2.1a1.16,1.16,0,0,1-.2,1.71,1.15,1.15,0,0,1-1.67-.38c-.54-.72-1.09-1.42-1.58-2.17A1.2,1.2,0,0,1,25,19.45Z"/><path d="M23.61,24.46a1.23,1.23,0,0,1-.8,1.08,1,1,0,0,1-1.19-.31c-.64-.8-1.25-1.63-1.82-2.48A1.09,1.09,0,0,1,20,21.31a1,1,0,0,1,1.45,0c.72.88,1.36,1.82,2,2.75A1,1,0,0,1,23.61,24.46Z"/><path d="M52.32,64.65a1.19,1.19,0,0,1-1.17-1.15,1.16,1.16,0,0,1,1.13-1.13,1.14,1.14,0,0,1,1.18,1.18A1.11,1.11,0,0,1,52.32,64.65Z"/><path d="M23.78,17.48a1.15,1.15,0,0,1-2.3,0,1.2,1.2,0,0,1,1.16-1.17A1.17,1.17,0,0,1,23.78,17.48Z"/></svg>