<svg id="Layer_1" data-name="Layer 1" xmlns="http://www.w3.org/2000/svg" viewBox="0 0 85.04 85.04"><path d="M73.06,46.42a3.59,3.59,0,0,0-2.36-1.73,5.13,5.13,0,0,0-3.7.75c-1,.55-2,1.08-3,1.6l-.46.23a12.15,12.15,0,0,0,2.95-8.44c0-3.27,0-6.6,0-9.82,0-1.39,0-2.79,0-4.19S66.29,23.35,65.1,23a54.91,54.91,0,0,1-14.68-5.92,1.4,1.4,0,0,0-1.5,0l-.61.35c-1,.57-2.09,1.17-3.16,1.68A59.63,59.63,0,0,1,34.22,23c-.93.24-1.26.48-1.26,1.37v3.12c0,4,0,8.15,0,12.23a19.62,19.62,0,0,0,.2,2.18c0,.22.07.45.09.68a9.33,9.33,0,0,0-5.49,1c-1.57.79-3.14,1.56-4.72,2.34l-1.62.8-.3.14L21,46.7a2.35,2.35,0,0,0-3-1.26c-1.61.59-3.21,1.21-4.74,1.84a2.28,2.28,0,0,0-1.31,3c2.08,5.4,4.19,10.84,6.27,16.18A2.29,2.29,0,0,0,20.42,68a2.57,2.57,0,0,0,.84-.15c1.4-.51,2.88-1.08,4.8-1.86a2.34,2.34,0,0,0,1.43-2.4,4.37,4.37,0,0,0-.09-.5h0l1.93-.18a32.1,32.1,0,0,1,4.49-.25c3.13.11,6.3.46,9.37.79l.44,0A19,19,0,0,0,54.4,61.88c2.64-1.31,5.35-2.77,8.26-4.47C65.08,56,67.48,54.47,69.8,53l1.61-1a4.53,4.53,0,0,0,1.89-2.52A3.74,3.74,0,0,0,73.06,46.42Zm-8.82-7.63a10.41,10.41,0,0,1-3.92,8.56c-1.1.94-2.31,1.88-3.71,2.87a10,10,0,0,1-1.45.8l-.42.21,0-.2a12.2,12.2,0,0,1-.12-1.22c0-.07.23-.23.29-.28l1.57-1.2c1-.8,2.14-1.62,3.16-2.49A8.16,8.16,0,0,0,62.53,41a10.89,10.89,0,0,0,.11-1.79q0-5,0-10.08V27.64c0-1.17-.15-1.38-1.23-1.71a57.73,57.73,0,0,1-11-4.42,1.43,1.43,0,0,0-1.49,0A58,58,0,0,1,37.87,26c-1,.28-1.18.59-1.18,1.63v3.55c0,2.7,0,5.4,0,8.1a7.73,7.73,0,0,0,1.56,4.93l-2.15-.86a.46.46,0,0,1-.24-.24c-.07-.27-.14-.54-.22-.81a8.39,8.39,0,0,1-.42-2.12c-.05-3.69,0-7.44,0-11.06,0-1.27,0-2.53,0-3.8v-.15l1-.31c.83-.24,1.66-.49,2.48-.75A58.87,58.87,0,0,0,49.5,19.46a.53.53,0,0,1,.39,0A56.55,56.55,0,0,0,63.69,25c.45.13.55.24.54.7V27.2C64.2,31,64.17,34.92,64.24,38.79Zm-20.8,7.28a15.31,15.31,0,0,1-3.59-3.48,4.94,4.94,0,0,1-.9-2.81c0-3,0-6,0-9V28h0l1.17-.39c1-.32,2-.65,2.92-1,1.27-.52,2.54-1.08,3.77-1.63l2.55-1.12a.94.94,0,0,1,.61,0,60.09,60.09,0,0,0,10.07,4c.35.1.4.21.4.56v2.17c0,2.75,0,5.59,0,8.39a6.46,6.46,0,0,1-2,5,33,33,0,0,1-5.14,4,4.47,4.47,0,0,0-2.85-.8,25.08,25.08,0,0,1-6.58-.91l-.1,0A1.27,1.27,0,0,1,43.44,46.07Zm9,4.43a1.42,1.42,0,0,1-.72,1.63,2.3,2.3,0,0,1-.84.37l-.81.12a19,19,0,0,1-2.81.29,19.55,19.55,0,0,1-7.47-1.39A1.14,1.14,0,0,0,38.28,53a1.06,1.06,0,0,0,.67.58,26.56,26.56,0,0,0,3.43,1,18.3,18.3,0,0,0,8,.28,44.08,44.08,0,0,0,6-2,108.11,108.11,0,0,0,11.9-5.6A3.81,3.81,0,0,1,70,46.85a1.24,1.24,0,0,1,1,.44,1.45,1.45,0,0,1,.25,1.26A2.64,2.64,0,0,1,70,50.27l-1.28.84C67.38,52,66,52.89,64.59,53.7c-3.5,2-7,4-10.09,5.65a17.31,17.31,0,0,1-10.45,1.92L41.48,61a66.88,66.88,0,0,0-7.8-.61l-1.2,0c-1.41.05-2.84.21-4.22.37-.47,0-.93.11-1.4.15h-.07c-.22,0-.22,0-.27-.11Q24.83,56.41,23.11,52L21.93,49h0l2.26-1.09c1.86-.91,3.79-1.84,5.71-2.7a6.6,6.6,0,0,1,5,.14c1.08.4,2.16.83,3.21,1.25l2.19.86a30.34,30.34,0,0,0,10.63,2A1.42,1.42,0,0,1,52.43,50.5ZM25.25,63.82h0A.58.58,0,0,1,25,64l-3.23,1.27-1.1.42a.32.32,0,0,1-.26,0c-.08,0-.15-.14-.22-.34L16.6,56l-1.37-3.53c-.35-.91-.7-1.81-1.06-2.71a.51.51,0,0,1-.06-.35c0-.07.12-.14.29-.2,1.38-.51,2.77-1,4.12-1.59a1,1,0,0,1,.3-.08l.09,0q.11,0,.21.3c1.44,3.77,2.9,7.54,4.35,11.3l1.67,4.33a2.56,2.56,0,0,1,.09.26Z"/><path d="M46.21,44.58a1.84,1.84,0,0,0,.33,0,3.1,3.1,0,0,0,2.18-1l4.38-4.37,2.46-2.47L58,34.29a3,3,0,0,0-2.34-5.08,3.07,3.07,0,0,0-2.07,1l-4.86,4.88-1.5,1.5-.67-1.16c-.18-.31-.35-.61-.54-.91a3,3,0,0,0-5.17,3c.89,1.59,1.82,3.19,2.72,4.73L44,43A3,3,0,0,0,46.21,44.58ZM56.63,32.1a.89.89,0,0,1-.24.67C53.2,36,50,39.17,47.06,42.11a.73.73,0,0,1-.57.26A.71.71,0,0,1,46,42c-1.24-2.11-2.26-3.87-3.21-5.55a.75.75,0,0,1,0-.75,1,1,0,0,1,.84-.42l.09.07a2,2,0,0,1,.48.44c.4.63.77,1.29,1.13,1.93.19.33.38.66.58,1A1.15,1.15,0,0,0,48,39l7.25-7.24c.43-.44.67-.4.83-.31A1.17,1.17,0,0,1,56.63,32.1Z"/></svg>