<svg id="Layer_1" data-name="Layer 1" xmlns="http://www.w3.org/2000/svg" viewBox="0 0 85.04 85.04"><path d="M65.64,33.91a2.84,2.84,0,0,1-.42,0l-1.58-.23,1-1.19.69-.71a14.38,14.38,0,0,0,1.31-1.43A9.56,9.56,0,0,0,62.5,15.65a2.53,2.53,0,0,1-.33-.16H61.6c-.36.24-.56.59-.53,1.41,0,1,0,2,0,3,0,.81,0,1.63,0,2.44A1.73,1.73,0,0,1,59.94,24l-.23.12a1.35,1.35,0,0,1-1.39,0,2.15,2.15,0,0,1-1.44-2.31c0-.86,0-1.72,0-2.59s0-1.69,0-2.53-.19-1-.58-1.24H55.8a11.29,11.29,0,0,0-3.41,2.13,9.59,9.59,0,0,0,.43,14.25l2.32,2H47.3V32.12a.84.84,0,0,0-1-.92H36.67c-.74,0-1,.27-1,1v1.63H30.05V26h1.32c.34,0,.68,0,1,0a1.85,1.85,0,0,0,.75-.18c1.85-1.07,3.71-2.2,5.29-3.16a1,1,0,0,0,.54-.69.94.94,0,0,0-.35-.78Q36,18.49,33.31,15.85a2.28,2.28,0,0,0-.43-.31l-.07,0H15.67a1.36,1.36,0,0,0-.57.57v9.35a1.12,1.12,0,0,0,1.23.58c1.06,0,2.14,0,3.18,0H21.7V33.8l-1.3.07c-.34,0-.68,0-1,.07a4.69,4.69,0,0,0-4.21,3.76,1.34,1.34,0,0,1-.08.26V62.22l.1.44c.09.37.18.75.29,1.12a9.3,9.3,0,0,0,8.94,6.66q18.12,0,36.23,0a9.34,9.34,0,0,0,9.3-8.1A8.89,8.89,0,0,0,70.05,61c0-2.35,0-4.71,0-7.06,0-4.94,0-10,0-15.07A4.84,4.84,0,0,0,65.64,33.91Zm-1.36,1.7h.47a6.58,6.58,0,0,1,1.17,0,3,3,0,0,1,2.48,2.95c0,2.39,0,4.79,0,7.19v2.76l-.3.74-.58.06H63.44V35.61Zm-13.11-9.9a7.79,7.79,0,0,1,2.33-6.84l.22-.19,1.53-1.31v3.18c0,1.05,0,2.07,0,3.08a.93.93,0,0,0,.48.9l2.7,1.73a.9.9,0,0,0,1.11,0l2.75-1.76a.91.91,0,0,0,.46-.87v-6.3l1.57,1.38.32.29a7.9,7.9,0,0,1-2,12.54A1.38,1.38,0,0,0,61.76,33c0,3.62,0,7.24,0,10.86v5.45H56.22V43.9c0-3.66,0-7.33,0-11a1.22,1.22,0,0,0-.81-1.29A7.87,7.87,0,0,1,51.17,25.71Zm-3.84,9.91h7.21V49.33H47.33Zm-10,9.64h1.41a11.17,11.17,0,0,0,1.16,0,.76.76,0,0,0,.73-.72.78.78,0,0,0-.64-.89,3.08,3.08,0,0,0-.48,0H37.35v-5h1.42a11.7,11.7,0,0,0,1.19,0,.76.76,0,0,0,.69-.72A.77.77,0,0,0,40,37a2,2,0,0,0-.39-.06h-2.3V32.89H45.6V49.34H37.35Zm-1.74-9.65V49.33H30V35.61ZM17.87,24.34l-.24,0-.76-.06-.09-.78V17.13H31.42a2.14,2.14,0,0,1,1.38.57c.8.76,1.58,1.55,2.38,2.36l1.6,1.61-1.48.89-2.7,1.61a1.35,1.35,0,0,1-.67.16H17.87ZM28.33,26V49.34H23.41V26ZM16.74,39.22a3.62,3.62,0,0,1,.9-2.76,3.57,3.57,0,0,1,2.68-.88h1.39V49.33h-5Zm36.4,29.57h-21l-.09-.87a2.8,2.8,0,0,1,0-.4v-.25c0-1.1,0-2.19,0-3.29a2.18,2.18,0,0,1,2.35-2.38H50.78a2.19,2.19,0,0,1,2.36,2.33v4.86Zm15.27-7.85a7.76,7.76,0,0,1-6.11,7.67,7,7,0,0,1-1.32.18H54.79v-5A3.79,3.79,0,0,0,51.59,60a2.35,2.35,0,0,0-.6,0H34.17a3.76,3.76,0,0,0-3.8,3.78c0,1,0,1.92,0,2.88v1.63l-.3.26a.94.94,0,0,1-.68.28c-.64,0-1.3,0-2,0a27.86,27.86,0,0,1-4.64-.23,7.45,7.45,0,0,1-6-7.21c-.05-2.17,0-4.37,0-6.49,0-.9,0-1.81,0-2.71a1.68,1.68,0,0,1,0-.3l.16-.65.68-.08H68.33l.06.93c0,.13,0,.26,0,.4v2C68.42,56.63,68.42,58.78,68.41,60.94Z"/></svg>