<svg id="Layer_1" data-name="Layer 1" xmlns="http://www.w3.org/2000/svg" viewBox="0 0 85.04 85.04"><defs><style>.cls-1{fill:#1d1d1b;}</style></defs><path class="cls-1" d="M74.34,31a3.82,3.82,0,0,0-4-4H68.82c-3.59,0-7.18,0-10.76,0h0a.55.55,0,0,1-.61-.39C56.3,24.26,55.15,22,54,19.67a3.83,3.83,0,0,0-3.65-2.23H49.14c-3.93,0-8,0-12,0h0a4,4,0,0,0-3.9,2.46c-1,2.09-2.09,4.21-3.13,6.25l-.24.48a.9.9,0,0,1-.24.31c-.49,0-1,0-1.5,0h-.35V26A3.82,3.82,0,0,0,24,22.2H21.53A3.78,3.78,0,0,0,17.73,26v1h-.46a4.44,4.44,0,0,0-2.36.49A4.41,4.41,0,0,0,13,30l0,34.89.12.13a3.8,3.8,0,0,0,4.05,2.89H70.28a3.81,3.81,0,0,0,4.06-4.08ZM23.8,25.08a1,1,0,0,1,1.06,1.09c0,.21,0,.41,0,.64v.11H20.63v-.15a4.54,4.54,0,0,1,0-.83.92.92,0,0,1,1-.86C22.32,25.05,23.05,25.05,23.8,25.08ZM33,26.92l.07-.15L33.91,25c.64-1.28,1.28-2.56,1.9-3.85a1.33,1.33,0,0,1,1.36-.83h0c4.3,0,8.66,0,13,0a1.37,1.37,0,0,1,1.37.83c.63,1.3,1.27,2.59,1.92,3.88l.87,1.75a1,1,0,0,1,.07.15ZM71.43,55.45H57.19a15.9,15.9,0,0,0,0-16.09H71.43ZM43.18,60.2A12.81,12.81,0,1,1,56.45,47.93,12.85,12.85,0,0,1,43.18,60.2ZM30.12,55.43H15.89V39.36H30.12A15.93,15.93,0,0,0,30.12,55.43Zm25.27-19a1.06,1.06,0,0,1-.82-.33A15.29,15.29,0,0,0,43,31.73a15,15,0,0,0-9.91,4.13,2.06,2.06,0,0,1-1.53.62h0c-2.62,0-5.24,0-7.87,0H15.85V35c0-1.38,0-2.73,0-4.07A1,1,0,0,1,17,29.83H69.92c1.29,0,1.55.26,1.55,1.54v5.09H55.39ZM15.85,58.36H25c2.33,0,4.66,0,7,0a1.1,1.1,0,0,1,.7.28,15.75,15.75,0,0,0,20.24,1.43l.21-.15a4,4,0,0,0,.9-.75,2.5,2.5,0,0,1,2.19-.85c3.64,0,7.33,0,10.9,0h4.34v1c0,1.49,0,3,0,4.45,0,.74-.36,1.1-1.13,1.14H17.39c-1.28,0-1.54-.26-1.54-1.55Z"/><path class="cls-1" d="M69.58,33.15a1.4,1.4,0,0,0-1.39-1.44c-.8,0-1.62,0-2.45,0a1.42,1.42,0,0,0-1.4,1.43,1.4,1.4,0,0,0,1.39,1.43,7.66,7.66,0,0,0,.83,0h1.62A1.43,1.43,0,0,0,69.58,33.15Z"/><path class="cls-1" d="M61,31.71h0a1.42,1.42,0,0,0-1,.43,1.4,1.4,0,0,0-.41,1A1.45,1.45,0,0,0,61,34.58h0a1.41,1.41,0,0,0,1-.43,1.44,1.44,0,0,0-1-2.44Z"/><path class="cls-1" d="M43.74,36.46h-.05a11,11,0,0,0-.11,21.9h0a11,11,0,0,0,7.77-3.2,10.82,10.82,0,0,0,3.22-7.7A11,11,0,0,0,43.74,36.46Zm8,11a8.2,8.2,0,0,1-2.48,5.7,7.84,7.84,0,0,1-5.51,2.29h-.17A8.17,8.17,0,0,1,37.87,53a7.89,7.89,0,0,1-2.28-5.68,8.22,8.22,0,0,1,2.48-5.7,7.86,7.86,0,0,1,5.5-2.28h.17a8.2,8.2,0,0,1,5.7,2.48A7.84,7.84,0,0,1,51.73,47.49Z"/><path class="cls-1" d="M47.1,22.2H40.21a1.61,1.61,0,0,0-1.17.45,1.36,1.36,0,0,0-.38,1,1.43,1.43,0,0,0,1.55,1.4H47.1a1.66,1.66,0,0,0,1.18-.46,1.34,1.34,0,0,0,.38-1A1.42,1.42,0,0,0,47.1,22.2Z"/><path class="cls-1" d="M43.53,41.22h-.07a6.25,6.25,0,0,0-6,5.94c0,1,.48,1.62,1.31,1.69h.14c.78,0,1.31-.55,1.43-1.51a3.33,3.33,0,0,1,3.34-3.24,1.43,1.43,0,0,0,1.4-1.55A1.45,1.45,0,0,0,43.53,41.22Z"/></svg>