<svg id="Layer_1" data-name="Layer 1" xmlns="http://www.w3.org/2000/svg" viewBox="0 0 85.04 85.04"><path d="M46.06,55.42v5.83h9.28a3,3,0,0,1,.9.12.84.84,0,0,1,.65,1,1.92,1.92,0,0,1-.7.94,1.65,1.65,0,0,1-.9.11H28.13a3.35,3.35,0,0,1-.71,0,1.08,1.08,0,0,1,0-2.14,3.35,3.35,0,0,1,.71,0h9.22V55.42h-.82c-6.09,0-12.19-.06-18.28,0A4,4,0,0,1,14,51.16C14,42.76,14,34.37,14,26c0-2.77,1.5-4.27,4.26-4.27H65.12c2.76,0,4.27,1.49,4.27,4.25q0,12.69,0,25.39a3.71,3.71,0,0,1-2.73,3.92,5.56,5.56,0,0,1-1.47.14H46.06ZM41.7,23.92H18.16c-1.49,0-1.95.46-1.95,1.95V51.26c0,1.53.47,2,2,2h47c1.51,0,2-.47,2-2V25.94c0-1.58-.44-2-2-2ZM39.59,61.2h4.22V55.46H39.59Z"/><path d="M19.21,34.83c-.34-.29-.73-.47-.85-.76a2.12,2.12,0,0,1,0-1.06c0-.12.17-.22.27-.32Q22,29.35,25.31,26a1.48,1.48,0,0,1,.26-.24,1,1,0,0,1,1.41,0,1,1,0,0,1,.08,1.45c-.46.53-1,1-1.48,1.52-1.77,1.78-3.54,3.56-5.32,5.32A7.87,7.87,0,0,1,19.21,34.83Z"/><path d="M18.47,30.46c-.27-.24-.66-.45-.79-.76a1.19,1.19,0,0,1,.09-1c1.14-1.23,2.33-2.41,3.55-3.57a1.05,1.05,0,0,1,1.47,1.47c-1.15,1.22-2.35,2.39-3.55,3.56C19.09,30.28,18.82,30.31,18.47,30.46Z"/></svg>