<svg id="Layer_1" data-name="Layer 1" xmlns="http://www.w3.org/2000/svg" viewBox="0 0 85.04 85.04"><path d="M42.36,59.7a24,24,0,1,1,24-24A24,24,0,0,1,42.36,59.7ZM20.65,33.45C19.37,39,23.25,49,27.9,52L39,42.37c-1.19-1.18-2.31-2.33-3.47-3.43a3.64,3.64,0,0,0-1.24-.77c-2.83-1-5.67-2-8.51-3Zm17.58-4c1.62-.43,3.18-.83,4.73-1.28a3.46,3.46,0,0,0,1.23-.65c2.54-2.17,5.05-4.36,7.57-6.55l3.42-3c-6.37-4.77-14.87-5-19.74-3,.46,2.39.93,4.79,1.4,7.18ZM33.44,15.77C28.3,17,21,26.11,21,31.33l13.88,4.78c.49-1.8,1-3.53,1.42-5.27a1.24,1.24,0,0,0,0-.5Q35.65,27.19,35,24C34.51,21.28,34,18.53,33.44,15.77Zm13,26.17c-1.77.48-3.47.93-5.17,1.41a1.69,1.69,0,0,0-.6.36L30.11,52.9l-.6.55a22.14,22.14,0,0,0,19.79,3Zm4.83,13.74A22.07,22.07,0,0,0,63.83,40.06L49.9,35.26a1.17,1.17,0,0,0-.14.27c-.43,1.58-.87,3.17-1.27,4.76a2.34,2.34,0,0,0,0,1q1.05,5.58,2.14,11.14C50.86,53.45,51.08,54.52,51.31,55.68ZM45.71,29c1.19,1.19,2.33,2.35,3.5,3.48a3.29,3.29,0,0,0,1.12.71c3.38,1.19,6.78,2.34,10.17,3.51l3.6,1.23c1.07-6.09-2.8-15.91-7.29-18.57Zm-4.8,12.24.41-.08c1.58-.42,3.17-.84,4.75-1.3a.91.91,0,0,0,.49-.56c.44-1.55.86-3.12,1.24-4.69a.91.91,0,0,0-.19-.71q-1.7-1.76-3.45-3.45a1,1,0,0,0-.77-.19c-1.57.39-3.13.82-4.69,1.27a.93.93,0,0,0-.53.52c-.45,1.56-.87,3.12-1.26,4.69a1,1,0,0,0,.18.74c1.14,1.19,2.32,2.34,3.48,3.5A2.58,2.58,0,0,0,40.91,41.22Z"/><path d="M59.27,70.06c0,.82,0,1.6,0,2.37s-.4,1.24-1,1.25-1.07-.48-1.07-1.28,0-1.55,0-2.36H51.34c0,.79,0,1.55,0,2.3s-.4,1.35-1.07,1.34-1-.51-1-1.38c0-.7,0-1.39,0-2.08,0,0,0-.08,0-.17H43.41v3.31c0,.35,0,.7,0,1,0,.69-.42,1.1-1,1.1a1,1,0,0,1-1.07-1.12c0-1.22,0-2.43,0-3.64v-.69H35.47c0,.77,0,1.52,0,2.28s-.39,1.35-1.06,1.35-1-.51-1-1.37,0-1.47,0-2.25H27.54c0,.75,0,1.5,0,2.25,0,.3,0,.7-.19.85a1.7,1.7,0,0,1-1.1.45.93.93,0,0,1-.81-1c0-.84,0-1.68,0-2.55H19.61v1.68c0,.3,0,.61,0,.91a1,1,0,0,1-1,1.05,1.07,1.07,0,0,1-1.08-1.08c0-.84,0-1.68,0-2.6-1.37,0-2.66,0-3.95,0-.74,0-1.18-.32-1.27-.87-.12-.73.36-1.25,1.2-1.26,1.08,0,2.17,0,3.25,0h.76c0-.84,0-1.62,0-2.39s.43-1.29,1.07-1.28,1,.46,1,1.24,0,1.55,0,2.38h5.81c0-.78,0-1.55,0-2.33s.41-1.28,1.06-1.29,1,.46,1.06,1.28,0,1.56,0,2.36h5.82c0-.82,0-1.64,0-2.45a1.1,1.1,0,0,1,1-1.19,1,1,0,0,1,1.13,1.07c0,.84,0,1.68,0,2.56h5.82v-.67c0-1.19,0-2.38,0-3.57,0-.77.4-1.21,1.05-1.22s1,.42,1,1.21c0,1.17,0,2.34,0,3.51v.74h5.82c0-.8,0-1.58,0-2.35s.42-1.28,1.07-1.28,1,.46,1,1.24,0,1.55,0,2.38h5.82c0-.76,0-1.54,0-2.31s.39-1.3,1-1.31,1.06.45,1.07,1.27,0,1.55,0,2.36H65.1V65.47c0-.8.42-1.28,1.07-1.28s1,.46,1,1.23,0,1.56,0,2.44h1.38c.89,0,1.78,0,2.67,0a1.08,1.08,0,1,1,0,2.13c-1.08,0-2.17,0-3.25,0h-.78c0,.85,0,1.62,0,2.4s-.4,1.28-1,1.28-1-.5-1.05-1.31V70.06Z"/></svg>