<svg id="Layer_1" data-name="Layer 1" xmlns="http://www.w3.org/2000/svg" viewBox="0 0 85.04 85.04"><path d="M10.48,24.78a18,18,0,0,1,1.29-2.56,4.83,4.83,0,0,1,3.81-1.9h53a5.29,5.29,0,0,1,5.47,4.57,5.61,5.61,0,0,1,.06.92V61.47a5.22,5.22,0,0,1-4,5.33,6.63,6.63,0,0,1-1.72.2q-26,0-52.07,0a5.45,5.45,0,0,1-5.69-4.35,1.15,1.15,0,0,0-.1-.23Zm31.78,40H68.35a5,5,0,0,0,1.17-.08A3.23,3.23,0,0,0,72,61.26V26a3.28,3.28,0,0,0-3.64-3.6H16.24c-2.35,0-3.64,1.29-3.64,3.66,0,11.7,0,23.4,0,35.1a3.41,3.41,0,0,0,3.65,3.66C24.91,64.79,33.59,64.82,42.26,64.82Z"/><path d="M46.83,41.1a1.93,1.93,0,0,1,.3-.61c1.89-1.92,3.8-3.81,5.7-5.72a3.65,3.65,0,0,1,.51-.45,1,1,0,0,1,1.35.08,1.06,1.06,0,0,1,.14,1.36,4.33,4.33,0,0,1-.46.5c-2.44,2.45-4.89,4.89-7.51,7.51a2.73,2.73,0,0,1,.61.36c2.3,2.27,4.58,4.56,6.86,6.84a3.71,3.71,0,0,1,.49.56,1,1,0,0,1-.11,1.31,1,1,0,0,1-1.3.17,2.55,2.55,0,0,1-.56-.48l-5.71-5.7-.56-.54c0,.27,0,.45,0,.62,0,1.68,0,3.35,0,5,0,.77-.44,1.27-1.06,1.26s-1.06-.5-1.06-1.28V35.4c0-.83.4-1.3,1.08-1.29s1,.45,1,1.26c0,1.63,0,3.27,0,4.91v.59Z"/><path d="M32.62,45.74h3.31c0-.62,0-1.23,0-1.84,0-.31.07-.74.27-.9a1.6,1.6,0,0,1,1.09-.34.91.91,0,0,1,.76,1c0,.68,0,1.36,0,2.11.64,0,1.21,0,1.79,0,1.07,0,1.36.54,1.38,1.06,0,.68-.49,1.07-1.37,1.08H38.07c0,1.37,0,2.69,0,4a1.4,1.4,0,0,1-.33.94,1.23,1.23,0,0,1-1,.23A1.28,1.28,0,0,1,36,52.2c-.09-1.14,0-2.28,0-3.42v-.85l-.64,0H30.88a1.16,1.16,0,0,1-1.16-.54A1.2,1.2,0,0,1,29.86,46L37,34.83c.46-.73,1.09-.94,1.66-.56s.61,1,.17,1.69L33,45.07C32.9,45.26,32.79,45.45,32.62,45.74Z"/><path d="M20.48,62.7c-1,0-1.95.06-2.91,0a3,3,0,0,1-2.84-2.94c-.05-1.82,0-3.64,0-5.46a1.06,1.06,0,1,1,2.12,0c0,1.62,0,3.23,0,4.85,0,1.12.32,1.45,1.44,1.45h4.47a3.12,3.12,0,0,1,.61,0,1.07,1.07,0,0,1,.9,1.1,1,1,0,0,1-.94,1c-.95,0-1.9,0-2.85,0Z"/><path d="M69.88,57.05c0,.83,0,1.65,0,2.48a3.08,3.08,0,0,1-2.95,3.16c-1.81.1-3.63.07-5.45.05a1.08,1.08,0,0,1-1.16-1.11,1.12,1.12,0,0,1,1.24-1c1.61,0,3.22,0,4.84,0,1,0,1.34-.36,1.34-1.36,0-1.59,0-3.18,0-4.78a1.13,1.13,0,0,1,.64-1.17,1.06,1.06,0,0,1,1.49,1C69.9,55.23,69.88,56.14,69.88,57.05Z"/><path d="M69.88,30.26c0,.87,0,1.74,0,2.61a1.11,1.11,0,0,1-1.1,1.23c-.62,0-1-.47-1-1.22,0-1.58,0-3.15,0-4.72,0-1.13-.35-1.48-1.48-1.48h-4.6c-.85,0-1.33-.38-1.34-1s.5-1.09,1.36-1.09h4.85a3.2,3.2,0,0,1,3.35,3.36Z"/><path d="M14.71,30.19c0-.83,0-1.66,0-2.48a3.18,3.18,0,0,1,3.17-3.16c1.71,0,3.43,0,5.15,0a1.1,1.1,0,0,1,1.23,1.1c0,.63-.46,1-1.22,1H18.33c-1.14,0-1.48.34-1.48,1.48v4.6c0,.86-.38,1.33-1,1.34s-1.09-.5-1.1-1.36Z"/></svg>