<svg id="Layer_1" data-name="Layer 1" xmlns="http://www.w3.org/2000/svg" viewBox="0 0 85.04 85.04"><path d="M24.07,46.23l-1.17-.47c-.9-.38-1.11-.85-.74-1.76q2.16-5.46,4.34-10.9c.17-.41.32-.73-.16-1.06a1.16,1.16,0,0,1-.28-.83c0-1.86,0-3.72,0-5.58a1.09,1.09,0,0,1,1.2-1.24c.92,0,1.84,0,2.82,0V22.74c-.35,0-.69,0-1,0-.79,0-1.2-.41-1.22-1.18,0-1.75,0-3.5,0-5.26A1,1,0,0,1,29,15.15H38.1a1.06,1.06,0,0,1,1.22,1.19c0,.7,0,1.4,0,2.1a.67.67,0,0,0,.41.72c2.2,1.13,4.37,2.3,6.57,3.42a1,1,0,0,0,.8,0,3,3,0,0,1,3.07-.18c2.12,1.09,4.24,2.18,6.33,3.32a3,3,0,0,1,1.2,4.2,3.08,3.08,0,0,1-4.15,1.2c-2-1-4-2.11-6-3.17a3.06,3.06,0,0,1-1.76-2.79.67.67,0,0,0-.25-.52c-2-1.09-4.05-2.15-6.09-3.23-.23,1.17-.25,1.18-2.34,1.43v1.58c.86,0,1.68,0,2.5,0,1.23,0,1.57.34,1.57,1.56v4.93a1.45,1.45,0,0,1-.75,1.55c.89,2.23,1.79,4.48,2.68,6.73.63,1.58,1.27,3.16,1.9,4.75.4,1,.2,1.47-.82,1.88l-1.07.45c.62,1.56,1.21,3.09,1.85,4.59.06.14.39.23.6.23,2.12,0,4.25,0,6.37,0,1.52,0,1.75.23,1.77,1.73,0,.13,0,.26,0,.48h2.44c0-.39,0-.73,0-1.08a1,1,0,0,1,1.11-1.12c2.85,0,5.7,0,8.55,0a1.14,1.14,0,0,1,1.14.91,2.27,2.27,0,0,0,.41.84,13.11,13.11,0,0,1,0,17.36,2.77,2.77,0,0,0-.45.89,1.11,1.11,0,0,1-1.14.89H57.3a1,1,0,0,1-1.17-1.11c0-.3,0-.61,0-1H53.66c0,.32,0,.66,0,1A1,1,0,0,1,52.59,72q-5.1,0-10.19,0a1,1,0,0,1-1.1-1.11c0-.31,0-.61,0-1H38.54c-1.41,0-1.69-.28-1.69-1.69V54.85c0-1.28.29-1.57,1.59-1.57h2.84c.08-1-.29-2.2,1.4-2.22l-1.6-4-1.2.46a1.14,1.14,0,0,1-1.72-.73c-.26-.62-.51-1.25-.77-1.88,0,0-.06,0-.15-.11v4.42c0,1.11-.34,1.45-1.44,1.45H34.63v14.8c0,.19,0,.39,0,.59,0,.78-.42,1.21-1.09,1.2s-1-.48-1-1.25V50.64H31.17a1.15,1.15,0,0,1-1.29-1.3c0-1.48,0-3-.13-4.47-.26.63-.51,1.27-.77,1.9a1.12,1.12,0,0,1-1.67.73c-.39-.14-.77-.29-1.22-.47-.11.25-.22.49-.31.72L16.72,70.46a2.14,2.14,0,0,1-.41.74,1,1,0,0,1-1.27.12,1,1,0,0,1-.4-1.37c.7-1.79,1.42-3.58,2.13-5.36L23.85,46.8Zm34.23,7V69.83h6.45c0-.27,0-.5,0-.74V63.57c0-3.2,0-6.4,0-9.6,0-.55-.12-.79-.72-.74s-1.4,0-2.1,0ZM46.15,69.84V53.28h-2.7V69.84ZM24.43,44.06l2.88,1.14L32.4,32.4c-1.06,0-2,0-2.94,0a.8.8,0,0,0-.54.41C27.42,36.54,26,40.25,24.43,44.06Zm15.41,1.15,2.87-1.15c-1.52-3.82-3-7.57-4.51-11.32-.06-.13-.23-.31-.34-.32-1,0-2,0-3.11,0Zm-.9-18.6H28.2v3.62H38.94ZM32,48.45h3.08v-.73c0-2.33-.09-4.66,0-7,.11-2-.94-3.6-1.57-5.54-.42,1.07-.82,1.94-1.11,2.85a7.71,7.71,0,0,0-.41,2.16c-.05,2.5,0,5,0,7.49Zm21.66,7V67.6h2.38V55.41ZM41.25,67.62V55.43h-2.2V67.62ZM30,20.53h7.17V17.29H30Zm25.93,7.59a2.84,2.84,0,0,0-.65-.66c-1.93-1.05-3.89-2.07-5.84-3.09a1,1,0,0,0-1.47.35c-.26.5-.06,1,.57,1.33.8.44,1.62.86,2.43,1.28,1.18.62,2.35,1.26,3.54,1.86C55.24,29.55,56,29.11,55.93,28.12ZM67,67c2.18-3.41,1.88-8.34,0-10.86ZM48.38,57.87V60.4h3.13V57.87Zm3.13,7.36V62.65H48.39v2.58ZM48.39,67.4v2.4h3.12V67.4Zm3.13-14.11H48.38v2.32h3.14ZM32.27,22.77v1.57h2.56V22.77Z"/></svg>