<svg id="Layer_1" data-name="Layer 1" xmlns="http://www.w3.org/2000/svg" viewBox="0 0 85.04 85.04"><path d="M43.71,30.94c.49-3,1-5.82,1.44-8.66.09-.53.17-1.06.27-1.6a1,1,0,0,1,1.26-.89l10.1,1.66L70,23.65c.25.05.51.08.76.14a1,1,0,0,1,.8,1.22c-1,6-2,12.08-3,18.12a13.16,13.16,0,0,0-.19,2.17c0,7,0,13.94,0,20.9,0,2.53-1.37,3.9-3.89,3.9-11,0-21.95,0-32.93,0a3.65,3.65,0,0,1-3.86-3.87c.1-4,0-8,0-12a1.89,1.89,0,0,0-.36-1.08q-5.55-7.26-11.12-14.49l-.39-.51a1.06,1.06,0,0,1,.25-1.74L25.71,29,34.91,22c.94-.72,1.33-.68,2.05.25l6.35,8.25ZM57.33,50.77c1.36,4.92.19,9.06-4,12A9.51,9.51,0,0,1,42.21,63c-4.56-2.88-5.85-7.14-4.46-12.27H29.68v.75c0,4.89,0,9.78,0,14.66,0,1.5.45,1.95,1.93,1.95q16.43,0,32.85,0c1.42,0,1.93-.5,1.93-1.91V50.71c-.5,0-.9,0-1.3,0a1.45,1.45,0,0,0-1.42.62,3,3,0,0,1-4.74,0A1.38,1.38,0,0,0,57.33,50.77Zm-27.66-2c2.91,0,5.69,0,8.48,0a1.11,1.11,0,0,0,1-.54,10.21,10.21,0,0,1,16.24-.58,2.53,2.53,0,0,0,2.6,1.1l.13-.05a3.22,3.22,0,0,1,6.31,0h1.93V42.05c0-1.49-.47-2-1.93-2H31.17a1.41,1.41,0,0,0-1.49,1.52c0,1,0,2,0,3Zm19-16.44c.53,0,1,0,1.47,0a5.18,5.18,0,0,1,4.62,2.24c.8,1.08,1.65,2.12,2.53,3.14a1.3,1.3,0,0,0,.86.41c1.37,0,2.74,0,4.11,0h2l1.65-10L49.8,25.48ZM35.14,28.23l-12.9,9.93,5.33,6.93a34.68,34.68,0,0,0,.14-3.64,3.3,3.3,0,0,1,2.58-3.22c.4-.09.82-.13,1.26-.19,0-.58,0-1.12,0-1.66,0-.77.35-1.13,1.12-1.14,1.84,0,3.69,0,5.53,0,.78,0,1.11.35,1.12,1.13,0,.56,0,1.12,0,1.65,1.24.46,1.46-.57,1.93-1.19s-.18-.85-.42-1.17C39,33.19,37.09,30.75,35.14,28.23ZM47.57,45.88a8.37,8.37,0,1,0,8.34,8.39A8.37,8.37,0,0,0,47.57,45.88ZM35.72,23.82,17.83,37.59l9.85,12.79a3.63,3.63,0,0,0-.59-2.73c-2.32-2.89-4.54-5.85-6.79-8.79-.62-.81-.58-1.24.21-1.85l14-10.79c.7-.54,1.17-.47,1.74.24.74.95,1.47,1.91,2.2,2.86l4.15,5.39c.78-.93.78-.93.1-1.8l-.3-.39Zm11,8.46c.44-2.64.87-5.24,1.31-7.84.14-.86.57-1.18,1.42-1,.44.08.88.17,1.32.24,5.34.89,10.68,1.8,16,2.66,1.22.19,1.3.81,1.16,1.66q-.78,4.62-1.54,9.26c-.2,1.17-.19,1.17.89,1.69l2.22-13.35-22.27-3.7C46.62,25.46,46,29,45.45,32.5Zm-3.88,5.78H55c-.84-1-1.59-2-2.38-2.92a2.61,2.61,0,0,0-2-.86q-1.87,0-3.75,0a2.56,2.56,0,0,0-2.08.89C44.11,36.06,43.5,37,42.79,38.06Zm18.48,10a1.18,1.18,0,0,0-1.16,1.25,1.16,1.16,0,0,0,1.25,1.15,1.19,1.19,0,0,0,1.14-1.2A1.2,1.2,0,0,0,61.27,48.08Zm-27.73-10h3.77v-.8H33.54Z"/><path d="M19.48,62.33a3.4,3.4,0,0,1,0-6.79,3.4,3.4,0,1,1,0,6.79ZM18.07,59a1.4,1.4,0,0,0,1.46,1.39,1.43,1.43,0,0,0-.06-2.85A1.41,1.41,0,0,0,18.07,59Z"/><path d="M20.92,17.37c0,.49,0,1,0,1.48a.9.9,0,0,1-.9.92.83.83,0,0,1-1-.74,29.14,29.14,0,0,1,0-3.37.83.83,0,0,1,1-.74.91.91,0,0,1,.85,1v1.49Z"/><path d="M16.58,21.69c-.49,0-1,0-1.48,0a.91.91,0,0,1-.95-.94.86.86,0,0,1,.84-1q1.59-.08,3.18,0a.87.87,0,0,1,.84,1,.9.9,0,0,1-.94.94C17.57,21.7,17.08,21.69,16.58,21.69Z"/><path d="M23.37,21.69c-.5,0-1,0-1.48,0a.9.9,0,0,1-1-.92.88.88,0,0,1,.88-1,28,28,0,0,1,3,0,1,1,0,0,1-.07,1.93Z"/><path d="M20.93,24.13c0,.49,0,1,0,1.48a.85.85,0,0,1-.82.9c-.53.07-1-.17-1.05-.7a29.15,29.15,0,0,1,0-3.37.85.85,0,0,1,1-.75.91.91,0,0,1,.86.95C20.94,23.14,20.93,23.63,20.93,24.13Z"/><path d="M35.47,17.81a1,1,0,0,1-1,1,1,1,0,0,1-1-.94.94.94,0,0,1,.93-1A1,1,0,0,1,35.47,17.81Z"/><path d="M21.91,68.08a.94.94,0,0,1,1-.92,1,1,0,0,1,.93,1,1,1,0,0,1-1,1A1,1,0,0,1,21.91,68.08Z"/><path d="M68.35,16.87a1,1,0,0,1-1,1,1,1,0,0,1-.94-1,1,1,0,0,1,1-.94A1,1,0,0,1,68.35,16.87Z"/><path d="M47.51,47.61a6.64,6.64,0,1,1-6.6,6.64A6.67,6.67,0,0,1,47.51,47.61Zm-4.64,6.6a4.67,4.67,0,1,0,4.73-4.63A4.74,4.74,0,0,0,42.87,54.21Z"/></svg>