<svg id="Layer_1" data-name="Layer 1" xmlns="http://www.w3.org/2000/svg" viewBox="0 0 85.04 85.04"><path d="M30,22.7c1.09.05,2.16,0,3.22.17a8,8,0,0,1,6.86,7.68c0,1.13,0,2.27,0,3.45a8.91,8.91,0,0,1,6.23,3.87,8.55,8.55,0,0,1,1.47,5.59,8.9,8.9,0,0,1-7.7,8.07c0,1,0,2.07,0,3.12a8,8,0,0,1-6.36,7.93,12.47,12.47,0,0,1-1.84.19c-.62,0-1.24,0-1.88,0a8.23,8.23,0,0,1-2.57,4.57A7.92,7.92,0,0,1,22,69.4c-1.71,0-3.42,0-5.13,0-1.07,0-1.4-.34-1.4-1.43V17.55c0-1.09.33-1.43,1.4-1.43,2,0,4-.05,6,.08a7.85,7.85,0,0,1,6.94,5.91ZM17.67,18.13V67.26c1.66,0,3.27.09,4.86,0A5.73,5.73,0,0,0,28,61.36q0-18.69,0-37.4a5.45,5.45,0,0,0-4.23-5.42A51.6,51.6,0,0,0,17.67,18.13ZM30.13,60.61h1.78a5.8,5.8,0,0,0,6-6c0-7.87,0-15.73,0-23.6,0-3.82-3.09-6.8-7.84-5.95Zm10-11.32a6.59,6.59,0,0,0,5.51-7.17c-.14-2.84-2.89-5.78-5.51-5.86Z"/><path d="M68.08,43.36C67.83,35.6,65,29.9,59.32,25.62a2,2,0,0,1-.67-.73,1,1,0,0,1,.35-1.2,1,1,0,0,1,1.31,0,43,43,0,0,1,4,3.54,22.32,22.32,0,0,1,5.84,16.9,22.73,22.73,0,0,1-9.83,17.55,1.09,1.09,0,0,1-1.51,0,1,1,0,0,1-.22-1.28,2,2,0,0,1,.55-.53,20.71,20.71,0,0,0,8.27-12.1A43.84,43.84,0,0,0,68.08,43.36Z"/><path d="M64.27,43.69a16.84,16.84,0,0,1-7.22,13.09,1.55,1.55,0,0,1-1,.39,1.61,1.61,0,0,1-.89-.76c-.25-.46.06-.84.42-1.16a32.79,32.79,0,0,0,2.88-2.63,15.15,15.15,0,0,0-2.15-21.91l-.57-.43a1.09,1.09,0,0,1-.28-1.52,1,1,0,0,1,1.53-.2,16.47,16.47,0,0,1,4,4A17.94,17.94,0,0,1,64.27,43.69Z"/><path d="M58.34,42.72A11.45,11.45,0,0,1,53.55,52a1.11,1.11,0,0,1-1.69-.12c-.37-.51-.21-1.12.41-1.59a9.2,9.2,0,0,0,.15-15c-.61-.48-.76-1-.48-1.48a1,1,0,0,1,1.26-.51,1.58,1.58,0,0,1,.54.32A11.43,11.43,0,0,1,58.34,42.72Z"/></svg>