<svg id="Layer_1" data-name="Layer 1" xmlns="http://www.w3.org/2000/svg" viewBox="0 0 85.04 85.04"><defs><style>.cls-1{fill:#1d1d1b;}</style></defs><path class="cls-1" d="M70.44,54.77c0-1.62,0-3.25,0-4.87v-.14a2.54,2.54,0,0,0,0-.39,1,1,0,0,0-1.07-.92,1,1,0,0,0-1.05.94,2.54,2.54,0,0,0,0,.39V67c0,1.35-.63,2-2,2H54.84a5,5,0,0,0,.37-2.34V45.17q0-4.81,0-9.64c0-.36.07-.46.09-.47,1-1,2-2,3-3l.64-.63.81.82c.9.91,1.8,1.81,2.68,2.71a1.68,1.68,0,0,0,3-1.15c0-4.05,0-8.1,0-12.16a1.64,1.64,0,0,0-1.77-1.79q-5.62,0-11.23,0h-.93A1.65,1.65,0,0,0,49.8,20.9a1.61,1.61,0,0,0,.48,1.89c1,.95,1.92,1.91,2.87,2.87l.48.48.16.18-.83.83c-.82.81-1.63,1.62-2.42,2.43a1.27,1.27,0,0,1-1,.45h0c-4.16,0-8.31,0-12.48,0H28c-.76,0-1.26.41-1.27,1.05a1,1,0,0,0,.28.73,1.37,1.37,0,0,0,1,.37h20l-.09.09L45.14,35l-9.93,9.94a.94.94,0,0,1-.76.33h0c-4.94,0-9.88,0-14.83,0h-.54a6.23,6.23,0,0,0-2.81.4v-3c0-2.92,0-5.85,0-8.77A1.63,1.63,0,0,1,18,32.17h5.72c.79,0,1.31-.43,1.3-1.08S24.55,30,23.73,30h-5a5.21,5.21,0,0,0-2.46.36V19c0-1.43.62-2,2.06-2H66.24c1.47,0,2.07.61,2.07,2.08V45.48a1.4,1.4,0,0,0,.36,1,1,1,0,0,0,.7.28h0c.64,0,1-.51,1-1.28q0-13.5,0-27A3.78,3.78,0,0,0,68,15l-.35-.14-.18-.07-50.25,0h-.08a4.17,4.17,0,0,0-2.31,1.6,7.57,7.57,0,0,0-.48.94c-.06.14-.12.29-.19.42l0,50.35.1.12a3.77,3.77,0,0,0,3.9,2.88h11.6c12,0,24.47,0,36.7,0h0a4,4,0,0,0,4-4.06C70.42,63,70.43,58.8,70.44,54.77Zm-37.94.66a1.07,1.07,0,0,0,.76.86A1.32,1.32,0,0,0,34.34,56c.86-.81,1.7-1.66,2.52-2.48l.89-.9,0-.05v4.18c0,3.37,0,6.85,0,10.28a1.89,1.89,0,0,1-.51,1.43,2.06,2.06,0,0,1-1.5.55l-8.4,0H18.26a1.74,1.74,0,0,1-2-2V49.37c0-1.33.61-1.95,1.91-1.95H32.5l-6.94,6.94-.8-.8c-.88-.89-1.77-1.79-2.68-2.68a1.78,1.78,0,0,0-1.45-.55,1.52,1.52,0,0,0-1.13.73,2.05,2.05,0,0,0-.31,1.06c0,4,0,8.08,0,12.1A1.66,1.66,0,0,0,21,66H33.1a1.68,1.68,0,0,0,1.18-3l-2.43-2.43L31,59.79l-.25-.26h0l.09-.08c.22-.19.44-.37.64-.58A1.08,1.08,0,1,0,30,57.33c-.42.4-.82.81-1.23,1.22l0,.06c-.7.71-.71,1.21,0,1.91l2.19,2.19L32,63.8l0,0H21.4V53.21l.66.69,2.62,2.62c.74.73,1.23.73,2,0L55.78,27.38c.86-.86.85-1.28,0-2.15l-3.14-3.15H63.16V32.62h0l-1.09-1.09-2.19-2.19c-.7-.7-1.21-.69-1.92,0L56.34,31Q44.65,42.63,33,54.33A1.72,1.72,0,0,0,32.5,55.43ZM40,66.29V63.62q0-6.39,0-12.78a1,1,0,0,1,.36-.86Q46.67,43.7,53,37.38a.52.52,0,0,0,.1-.11V67.18A1.65,1.65,0,0,1,51.35,69q-4.51,0-9,0H39.61A5.84,5.84,0,0,0,40,66.29Z"/></svg>