<svg id="Layer_1" data-name="Layer 1" xmlns="http://www.w3.org/2000/svg" viewBox="0 0 85.04 85.04"><path d="M14.56,43c0-6.75,0-13.51,0-20.27a1.21,1.21,0,0,1,1.75-1.1,26.29,26.29,0,0,0,5.09,1.86c1.38.36,2.76.71,4.15,1,1.08.24,2.18.42,3.29.57,1.57.22,3.15.42,4.74.59,1.14.12,2.29.19,3.44.24a91.8,91.8,0,0,0,9.53,0c1.62-.09,3.24-.23,4.85-.39,1.44-.15,2.88-.33,4.31-.57s3-.55,4.44-.92,3.19-.9,4.77-1.41a23.19,23.19,0,0,0,2.37-1,1.15,1.15,0,0,1,1.65.61,1.3,1.3,0,0,1,.06.49Q69,32.84,69,43c0,6.8,0,13.6,0,20.4a1.2,1.2,0,0,1-1.24,1.16,1.37,1.37,0,0,1-.48-.13,32.94,32.94,0,0,0-5.86-2.08c-1.3-.35-2.6-.67-3.92-.94-1.13-.24-2.28-.42-3.42-.58s-2.51-.31-3.77-.44A66.8,66.8,0,0,0,42.84,60c-2.55,0-5.1.1-7.64.21-1.32.06-2.63.22-3.94.38s-2.69.35-4,.57c-1.12.19-2.24.44-3.35.7s-2,.49-3,.78a29.62,29.62,0,0,0-4.66,1.73,1.14,1.14,0,0,1-1.65-.64,1.27,1.27,0,0,1,0-.44V43Zm17.88,7.26c.08-.09.12-.15.16-.2q3.57-5.55,7.13-11.09l2.16-3.37A1.15,1.15,0,0,1,43.32,35a1.35,1.35,0,0,1,.7.67l6.89,11.8c.06.1.14.21.23.34l.22-.26q2.18-2.6,4.33-5.2a1.22,1.22,0,0,1,2,0c.45.52.9,1.06,1.34,1.6l7.55,9,.31.36.06,0V53q0-11.4,0-22.8c0-1.9,0-3.8,0-5.7,0-.29,0-.3-.28-.2-.6.22-1.18.47-1.79.65-1.63.46-3.25.92-4.89,1.32-1.18.29-2.38.52-3.58.72q-2.12.33-4.26.57c-1.53.17-3.07.33-4.6.39-2.35.1-4.7.13-7.05.15a79.16,79.16,0,0,1-9.73-.59c-1.56-.18-3.11-.42-4.65-.71s-3.12-.6-4.66-1-3.08-1-4.62-1.47c-.36-.12-.35-.13-.35.24V54.22a2.11,2.11,0,0,0,0,.26l.07,0,.18-.29,6.66-11.65a1.18,1.18,0,0,1,2.08-.21l6.23,7.11ZM42.88,38.34l-.22.3L35.29,50.11,33.62,52.7a1.19,1.19,0,0,1-1.18.6,1.43,1.43,0,0,1-.9-.58L25,45.21a1.11,1.11,0,0,1-.12-.27,1.14,1.14,0,0,0-.22.24l-1,1.73L16.74,59a1.25,1.25,0,0,0-.19.55c0,.68,0,1.36,0,2,0,.17.05.22.23.16.93-.33,1.86-.68,2.81-1s1.88-.56,2.84-.79,2.16-.48,3.25-.69,1.92-.35,2.89-.5,1.93-.26,2.9-.35c1.57-.15,3.14-.33,4.72-.39,2.48-.09,5-.12,7.44-.13a68.45,68.45,0,0,1,7.57.42c1,.1,1.94.2,2.91.34,1.24.17,2.48.34,3.71.57s2.49.49,3.72.81c1.41.37,2.8.82,4.19,1.24.4.12.78.28,1.22.44v-.38c0-1.25,0-2.51,0-3.76a1.17,1.17,0,0,0-.3-.8q-4.55-5.46-9.08-10.94c-.28-.35-.57-.68-.88-1l-.24.27L52,50.48a1.17,1.17,0,0,1-2.07-.16l-5.75-9.85Z"/><path d="M30.3,35a4.6,4.6,0,1,1-4.59-4.59A4.59,4.59,0,0,1,30.3,35ZM28,35a2.28,2.28,0,1,0-2.29,2.26A2.31,2.31,0,0,0,28,35Z"/></svg>